<svg width="103" height="87" viewBox="0 0 103 87" fill="none" xmlns="http://www.w3.org/2000/svg">
<circle cx="52.5002" cy="38.5" r="38.5" fill="#FFF2CE"/>
<path fill-rule="evenodd" clip-rule="evenodd" d="M71.8813 23.8932L52 35.3714L32.1187 23.8932L52 12.4149L71.8813 23.8932ZM50.087 45.8569V39.1813C50.087 38.4974 49.7225 37.8661 49.1304 37.5246L30 26.4796V48.4806L49.3696 59.6633C49.6881 59.847 50.087 59.6174 50.087 59.2491V52.9772C50.087 52.6357 49.9043 52.3201 49.6087 52.1489L47.6957 51.0441C47.4001 50.8729 47.2174 50.5572 47.2174 50.2157V45.4427C47.2174 45.259 47.4163 45.1433 47.5761 45.2351L49.3696 46.271C49.6881 46.4547 50.087 46.2251 50.087 45.8569ZM43.0326 51.221L34.7826 46.4576V42.6315L42.913 47.3251C43.2086 47.4963 43.3913 47.812 43.3913 48.1535V51.0135C43.3913 51.1971 43.1923 51.3129 43.0326 51.221ZM43.0326 43.5689L34.7826 38.8054V34.9793L42.913 39.6729C43.2086 39.8442 43.3913 40.1598 43.3913 40.5013V43.3613C43.3913 43.5449 43.1923 43.6607 43.0326 43.5689ZM53.913 38.0926L74 26.4958V48.4958L53.913 60.0926V38.0926Z" fill="#0051E7"/>
<path d="M11.2322 77.5379V62.1699H0.474609L6.62179 74.4643L0.474609 86.7586H18.9161C20.6066 86.7586 21.9897 85.3755 21.9897 83.685H17.3793C13.983 83.685 11.2322 80.9342 11.2322 77.5379Z" fill="#FED35E"/>
<path d="M102.525 62.1699H91.7678V77.5379C91.7678 80.9342 89.017 83.685 85.6206 83.685H81.0103C81.0103 85.3755 82.3934 86.7586 84.0838 86.7586H102.525L96.3782 74.4643L102.525 62.1699Z" fill="#FED35E"/>
<path d="M86.522 56.0227H16.8733C14.411 56.0227 12.0039 57.6441 12.0039 60.0963V78.5378C12.0039 80.9901 14.411 82.6114 16.8733 82.6114H86.522C88.9843 82.6114 91.3914 80.9901 91.3914 78.5378V60.0963C91.3914 57.6441 88.9843 56.0227 86.522 56.0227Z" fill="#FED35E" stroke="white" stroke-width="2"/>
<path d="M37.2485 74.4214V64.0032H41.3589C42.1491 64.0032 42.8222 64.1541 43.3784 64.4559C43.9346 64.7544 44.3585 65.1698 44.6502 65.7022C44.9452 66.2313 45.0928 66.8417 45.0928 67.5336C45.0928 68.2254 44.9435 68.8359 44.6451 69.3649C44.3467 69.894 43.9143 70.306 43.3479 70.6011C42.7849 70.8961 42.1033 71.0436 41.3029 71.0436H38.6831V69.2784H40.9468C41.3707 69.2784 41.72 69.2055 41.9947 69.0597C42.2728 68.9105 42.4797 68.7053 42.6154 68.4442C42.7544 68.1796 42.8239 67.8761 42.8239 67.5336C42.8239 67.1877 42.7544 66.8858 42.6154 66.6281C42.4797 66.367 42.2728 66.1652 41.9947 66.0227C41.7167 65.8769 41.364 65.804 40.9366 65.804H39.4512V74.4214H37.2485Z" fill="#654A00"/>
<path d="M47.2397 74.4214V64.0032H51.3501C52.1369 64.0032 52.8084 64.1439 53.3646 64.4254C53.9241 64.7035 54.3497 65.0986 54.6414 65.6107C54.9364 66.1194 55.084 66.718 55.084 67.4064C55.084 68.0982 54.9348 68.6934 54.6363 69.192C54.3379 69.6871 53.9055 70.0669 53.3391 70.3315C52.7761 70.596 52.0945 70.7282 51.2941 70.7282H48.542V68.958H50.938C51.3586 68.958 51.7079 68.9003 51.986 68.785C52.2641 68.6697 52.4709 68.4967 52.6066 68.2661C52.7456 68.0355 52.8151 67.7489 52.8151 67.4064C52.8151 67.0605 52.7456 66.7688 52.6066 66.5314C52.4709 66.294 52.2624 66.1143 51.9809 65.9922C51.7028 65.8667 51.3518 65.804 50.9279 65.804H49.4424V74.4214H47.2397ZM52.866 69.6803L55.4553 74.4214H53.0237L50.4904 69.6803H52.866Z" fill="#654A00"/>
<path d="M66.9307 69.2123C66.9307 70.3484 66.7153 71.315 66.2846 72.1119C65.8573 72.9089 65.274 73.5176 64.5347 73.9382C63.7988 74.3553 62.9713 74.5639 62.0522 74.5639C61.1264 74.5639 60.2955 74.3536 59.5596 73.9331C58.8236 73.5126 58.242 72.9038 57.8147 72.1068C57.3874 71.3099 57.1737 70.345 57.1737 69.2123C57.1737 68.0762 57.3874 67.1097 57.8147 66.3127C58.242 65.5157 58.8236 64.9087 59.5596 64.4915C60.2955 64.071 61.1264 63.8607 62.0522 63.8607C62.9713 63.8607 63.7988 64.071 64.5347 64.4915C65.274 64.9087 65.8573 65.5157 66.2846 66.3127C66.7153 67.1097 66.9307 68.0762 66.9307 69.2123ZM64.6975 69.2123C64.6975 68.4764 64.5873 67.8558 64.3668 67.3504C64.1498 66.8451 63.8428 66.4619 63.4461 66.2008C63.0493 65.9396 62.5847 65.8091 62.0522 65.8091C61.5198 65.8091 61.0551 65.9396 60.6584 66.2008C60.2616 66.4619 59.953 66.8451 59.7325 67.3504C59.5155 67.8558 59.4069 68.4764 59.4069 69.2123C59.4069 69.9482 59.5155 70.5689 59.7325 71.0742C59.953 71.5795 60.2616 71.9627 60.6584 72.2238C61.0551 72.485 61.5198 72.6155 62.0522 72.6155C62.5847 72.6155 63.0493 72.485 63.4461 72.2238C63.8428 71.9627 64.1498 71.5795 64.3668 71.0742C64.5873 70.5689 64.6975 69.9482 64.6975 69.2123Z" fill="#654A00"/>
</svg>
