<svg
	width="20"
	height="20"
	viewBox="0 0 20 20"
	xmlns="http://www.w3.org/2000/svg"
>
	<path
		fill-rule="evenodd"
		clip-rule="evenodd"
		d="M8.39594 3.94531C9.09729 2.68489 10.8913 2.6849 11.5927 3.94531L16.7615 13.2344C17.4505 14.4725 16.5648 16 15.1632 16H4.82544C3.42378 16 2.53813 14.4725 3.22707 13.2344L8.39594 3.94531ZM10.6155 4.50289C10.3431 4.01344 9.64546 4.01345 9.37311 4.50289L4.20425 13.792C3.93801 14.2704 4.27915 14.8642 4.82544 14.8642H15.1632C15.7095 14.8642 16.0506 14.2704 15.7844 13.792L10.6155 4.50289ZM9.43335 7.50875C9.43335 7.19431 9.68523 6.94085 9.99417 6.94085C10.3031 6.94085 10.555 7.19431 10.555 7.50875V10.1433C10.555 10.4577 10.3031 10.7112 9.99417 10.7112C9.68523 10.7112 9.43335 10.4577 9.43335 10.1433V7.50875ZM9.28643 12.791C9.28643 12.3945 9.60408 12.0745 9.99417 12.0745H10.0007C10.3908 12.0745 10.7084 12.3945 10.7084 12.791C10.7084 13.1874 10.3908 13.5074 10.0007 13.5074H9.99417C9.60408 13.5074 9.28643 13.1874 9.28643 12.791Z"
	/>
</svg>