<svg xmlns="http://www.w3.org/2000/svg" width="100" height="100" viewBox="0 0 100 100"><path d="M22.823 88.95c5.663 1.151 12.34-.603 17.708 1.26 5.873 2.038 11.061 6.095 17.083 7.993 9.616 3.031 20.489 2.554 28.799-3.959 7.938-6.221 11.594-16.907 8.48-27.08-1.532-5.006-4.367-8.276-7.835-11.843-4.615-4.748-4.827-9.608-4.312-16.204.858-11 2.037-22.64-6.265-30.972C69.322.96 57.577-1.87 48.236 1.268 36.725 5.135 32.053 17.52 30.26 29.216c-.79 5.154-.897 11.017-5.622 13.667C21.576 44.599 3.993 50 4 67.675c.004 11.429 9.197 19.317 18.823 21.275"></path></svg>