<svg
	width="100"
	height="100"
	viewBox="0 0 100 100"
	xmlns="http://www.w3.org/2000/svg"
	data-test="flower"
>
	<g clip-path="url(#clip0_2168_3172)">
		<path d="M100 50C100 42.303 94.4275 35.9216 87.1001 34.6326C91.3699 28.54 90.798 20.0872 85.3554 14.6446C79.9127 9.20204 71.4601 8.62991 65.3674 12.8999C64.0784 5.57243 57.697 0 50 0C42.303 0 35.9216 5.57243 34.6326 12.8999C28.5399 8.62991 20.0873 9.20204 14.6446 14.6446C9.20197 20.0872 8.63007 28.54 12.8999 34.6326C5.57251 35.9216 0 42.303 0 50C0 57.6969 5.57251 64.0784 12.8998 65.3674C8.62991 71.46 9.20197 79.9127 14.6446 85.3553C20.0873 90.7979 28.5399 91.37 34.6326 87.1001C35.9216 94.4276 42.303 100 50 100C57.697 100 64.0784 94.4276 65.3674 87.1001C71.4601 91.37 79.9127 90.7979 85.3554 85.3553C90.798 79.9127 91.3701 71.46 87.1002 65.3674C94.4275 64.0784 100 57.6969 100 50Z" />
	</g>
	<defs>
		<clipPath id="clip0_2168_3172">
			<rect width="100" height="100" />
		</clipPath>
	</defs>
</svg>