<svg xmlns="http://www.w3.org/2000/svg" width="100" height="100" viewBox="0 0 100 100"><path d="M55.025 93.741c-.438-.109-1.094 0-1.094-.109-3.063.327-9.08-.653-11.486-1.197.328-.109-.876-.326-.985-.435-.328.109-.985-.218-1.64-.327-1.204-.761-3.72-1.088-4.705-2.067-1.64-.545-2.516-1.198-4.376-2.177h.22c-.767-.327-.985-.653-1.642-.87l.11-.11c-1.203-.653-2.516-1.959-4.267-3.156-.437-.326-2.406-2.176-3.172-2.938-.328-.327-.766-.544-.219-.327-.11-.217-.218-.217-.218-.326-.657-.544-.985-1.088-1.86-1.85-.219-.218-.11-.327-.438-.762-.219-.218-.328-.109-.547-.327.766 1.633 2.407 2.83 3.72 4.354-.329-.218-.875-.871-.766-.653.11.217 1.313 1.523.984.98-.109.108-.437-.436-.437-.436.547.653.984.762 1.203 1.088-.11.109-.766-.653-.437-.109.984.762 1.203 1.197 1.969 1.85-.547-.544-.22 0-.766-.435-.875-1.197-2.188-1.741-2.844-2.938-.438-.544-.438-.327-.657-.544.11-.218-1.75-2.068-1.531-1.742-.547-.762-.547-.762-.766-1.197-.328-.326.11.218-.219-.109-.11-.435-1.094-1.85-1.75-2.72l.11-.11c-.657-.761-1.095-1.632-1.75-2.83 0 .763 1.968 3.592 1.968 3.81 0 0 .875 1.197 1.204 1.632 1.203 1.633 2.515 3.374 3.719 4.463-.219-.218-.438-.545 0-.218.219.218.11.326.328.653.656.653 1.422 1.306 2.079 1.959-1.532-1.197-2.845-2.394-4.048-3.7.328.108 1.094 1.088 1.422 1.197-1.203-1.088-1.094-1.306-1.86-2.286-.437-.435.22.436 0 .327-1.531-1.633-2.516-2.721-3.281-4.027 0-.109 0-.109-.11-.327-.11-.108-.219-.217-.219-.326.657.87 1.094 1.524 1.532 1.85-.328-.435-.219-.435-.547-.87-.328-.436-.219-.11-.547-.436 0-.218-.328-.653-.438-.98-.109 0-.218-.217-.437-.435-.219-.217-.11-.109-.11.11-.109-.11-.218-.327-.328-.436v-.109c-.11-.218-.219-.435-.437-.653-1.313-2.394-2.626-5.66-3.5-8.162-.22-1.306-.985-4.463-1.204-5.224 0-.544-.438-3.592-.547-4.027-.11.218.219 1.741.11 2.068-.22-2.721-.11-5.986 0-8.598.109 0 .109 0 .109-.218-.11-.326.109-1.197.109-2.068.219-1.197-.438 1.742-.438 2.83 0 .218-.109.109-.109.653 0 .98.11 2.72 0 3.918-.11 0-.11-.218-.11-.218v1.96c0-.327-.109-.545-.109-.762-.437-3.157-.219-6.748 0-9.36.11 0 .219-.762.328-.98-.109.98-.328 2.286-.109 2.504.547-8.49 4.485-18.72 11.267-26.12.329-.109-.437.87-.546 1.088 2.516-2.83 4.703-5.115 7.438-6.965-.11.327-1.203.98-1.422 1.306 1.313-.98 1.422-.98 2.407-1.524.547-.326-.438.218-.219 0q1.148-.817 1.97-1.306c-.11 0-.11.11-.22.11 1.204-.654 1.532-.98 2.516-1.416-.109 0-.328 0-.547.218.329-.218.657-.327.985-.544-.11 0-.219.109-.328.109.766-.436 0 0 0 .108.11 0 .219-.108.328-.108-.766.435-1.313.761-1.75 1.088l.875-.435c.547-.218.11-.218.437-.436.22 0 .657-.217.985-.326 0-.109.219-.218.547-.327.219-.109.11-.109 0-.109.11-.108.328-.108.438-.217h.109a52 52 0 0 1 6.892-2.503c1.312-.218 3.063-.544 3.828-.87-.218 0-.437.108-.547.108.11 0 .329-.109.438-.109.219 0 .656-.109.219.109h.328c.219 0 .328-.109.438-.109h.328-.11c1.094-.218 1.86-.218 3.282-.326v-.11c.219 0 .438 0 .547-.108.438-.109.985 0 .985 0h.218s-.109.109-.218.109c.547 0 1.094 0 1.203-.11h-.438c.329 0 .547 0 .876-.108.328 0 .437.109.437.218.547-.327 2.735.109 3.5.109.329 0 .22-.11.438-.11h.438c.656.218 1.531.327 2.625.545-.984-.218.11-.109.22-.109-.22 0-.33-.109-.33-.109.439.11.767.11 1.095.218 0 0 .11.109.437.218h.22c.327.108.656.108.984.217 0 .11.765.327.984.436-.984-.218-2.188-.545-2.516-.436 5.36.98 11.158 3.374 16.3 6.857l.219.217c.547.327 1.094.762 1.64 1.197.657.654 1.313 1.306 1.75 1.524 2.298 2.394 4.048 3.918 6.017 6.639-.109-.327.657.98.985 1.306-.547-.435.547.762 0 .218.766 1.088.985 1.306 1.422 2.285-.328-.544-.328-.653-.328-.326.219.544.438.217.766.979-.328-.218 0 .218.218.87 0-.217-.109-.544.11-.326.328.544.11.435.328.762 0-.327.11 0 .438.218-.22-.11.437.98 0 .435.437.762.547 1.088.656 1.524-.437-.871-.437-1.198-.656-1.306.984 1.523 1.531 3.918 2.188 4.68-.329-.11.218.652 0 .652.328.436.437 1.306.765 1.742.11.544.11.87.22 1.415.218.544.437 1.523.655 1.74-.109.327.22 1.307.11 1.633.11-.217.219-.217.328.327-.11.435.11 1.088 0 1.088.766 2.939.328 9.142.219 11.428-.219-.327-.219.979-.328.979.218.326-.11.98-.11 1.633-.656 1.306-.656 3.809-1.531 4.897-.329 1.632-.875 2.612-1.641 4.57v-.217c-.328.762-.547 1.089-.656 1.742l-.11-.11c-.437 1.198-1.64 2.722-2.625 4.572-.22.544-1.86 2.612-2.516 3.374-.22.326-.438.87-.329.326-.109.218-.218.218-.328.218-.437.761-.984 1.088-1.64 2.067-.22.218-.329.11-.657.436-.11.217-.11.326-.328.544 1.531-.98 2.516-2.72 3.828-4.136-.218.327-.765.871-.546.871.218-.109 1.312-1.524.875-1.088.11.108-.438.544-.438.435.547-.544.656-.98.985-1.306.11.109-.547.762-.11.435.657-1.088.985-1.306 1.641-2.067-.437.652.11.217-.328.761-1.094.98-1.532 2.286-2.625 3.156-.438.436-.22.436-.438.654-.219 0-1.86 1.958-1.531 1.632-.657.653-.766.653-1.094.87-.329.327.218-.108 0 .218-.438.11-1.641 1.306-2.517 2.068l-.109-.109c-.656.762-1.531 1.197-2.625 2.068.765-.109 3.282-2.394 3.61-2.394 0 0 1.094-1.089 1.531-1.415 1.532-1.415 3.063-2.83 4.048-4.136-.11.218-.547.436-.22.11.22-.218.33-.11.548-.327 2.078-2.721 3.938-5.333 5.579-8.707 0-.109.11-.109.11-.218-.22.545-.548 1.089-.766 1.633-1.204 1.741-2.845 5.115-4.267 6.421-.437.98-1.203 1.632-2.188 3.047-.328.436-.218 0-.656.544-.437.98-2.516 2.286-3.063 3.157-.328.217-.547.435-.875.653h-.11l-.109.108c-.656.545-1.313.98-1.86 1.524-1.64 1.088-3.719 2.285-5.579 3.374-.547.326-1.094.435-1.094.653-.437.218-.765.435-1.203.653-.11 0-.11 0-.219.109h-.218c-.22 0-.329.108-.329.217-1.422.544-3.72 1.306-4.375 1.633-.547 0-3.501.87-4.048.98.219.108 1.094-.218 1.64-.327-.437.109-.765.218-1.093.326-.11 0-.219 0-.328.11-.11-.11-.547.108-.657.108h.11c-.11-.109-.438-.109-1.094 0 0 .109-.11.109-.219.218.328 0 .985-.218.985-.218-.11 0-.11.109-.11 0a2.1 2.1 0 0 1-.875.218c-.547.108-1.203.217-1.75.217h-.438c-.11 0-.328.11-.547.11-.875.108-1.64.217-2.406.217 0 0 0-.109-.22-.109-.327.109-1.203 0-2.078.109-.875 0 .547.109 1.86.109.656-.436.547-.436.219-.327M37.96 92.326c-1.97-.87-5.142-2.176-6.127-2.938-.875-.327-2.625-1.633-3.61-2.177.438.109 0-.109-.328-.326-.11 0-.218 0-.437-.11-.438-.434-1.204-1.087-2.079-1.74.438.326.985.653 1.422.87-.109-.109-.109-.217 0-.217a43 43 0 0 0 3.282 2.285c1.532 1.197 9.299 4.571 10.72 4.789.11 0-.109.109 0 .109.548.217.985.108 1.204.326-1.532 0-2.516-.544-4.047-.87M94.516 65.01s0 .11-.11.218c0-.109 0-.109.11-.218m.656-2.067-.328.98q.165-.327.328-.98M44.414 7.546c-.11 0-.22.109-.328.109.218 0 .218-.109.328-.109m-2.298.544q0 .165 0 0m-8.204 2.83c.11 0 .11 0 .11-.109-.11 0-.22.109-.329.109zm19.91-4.136h-.438c.219-.109.328-.109.438 0 .109-.109 0-.109 0 0 .109 0 .109-.109 0 0m2.297.11c-.219 0-.438-.11-.875-.11h.875c.11.11.219.11 0 .11m4.157.434c-.547-.108-.985-.217-1.532-.326.438.109.875.109 1.203.218.11.108.329.108.329.108M95.39 29.64c-.11 0-.11 0-.328-.326-1.75-3.483-4.814-8.38-9.08-12.516-4.266-4.245-9.845-7.727-14.877-9.686.328.109.765.326.547.326-4.376-1.741-8.533-2.83-12.471-3.374-11.377-1.74-23.192.98-32.162 6.748 0 .109 0 .109-.328.326-3.282 2.068-7.767 5.66-11.486 10.448S8.642 32.142 7.22 37.366c.11-.326.219-.762.219-.653-2.954 10.448-2.298 19.481.656 27.752 0-.217-.438-1.197-.219-1.088.438 1.197.875 2.503 1.313 3.7.656 1.742 1.64 3.918 2.407 4.68-3.173-5.986-4.923-12.842-5.251-18.828.11.98.219 2.72.547 3.483-.328-4.136-.657-9.577.328-13.713-.328 2.177-.656 5.006-.547 7.836-.11 2.068.766 7.945 1.094 8.598 0-.11-.11-.654-.11-.654.22.654 0 .871.22 1.089v-.218c.656 2.612 1.968 6.421 2.953 8.49a44 44 0 0 0 4.266 7.29c.11.11.11.219.219.327.328.544.985 1.306 1.203 1.742.11.217.11.435.328.544 2.079 2.938 4.814 5.877 7.986 8.38 4.376 3.918 13.018 8.271 20.676 9.468 2.625.544 5.907.653 7.876.762 2.625.109 7.11-.544 9.408-.98 13.565-2.611 26.254-12.189 32.38-25.248 6.673-12.952 6.126-28.623.219-40.486"></path><path d="M67.933 7.22c.22 0 1.97.87 2.954 1.197-.328.109-1.094-.218-1.97-.544.22 0 .657.108 1.095.326-.219-.218-1.86-.762-2.079-.98m-16.3-3.374c.329-.11 4.158.435 5.908.544.11-.109-.219-.109-.656-.218.547-.109 1.64.218 2.406.327-2.297.109-4.813-.544-7.001-.327-.766 0-.219-.217-.656-.326m-3.172 0c1.97 0 3.5 0 .657.217-.329-.108-.766-.108-.657-.217m30.959 9.033c.218 0 1.093.98 1.531 1.306-.11.109-.984-.762-1.422-1.088.11.108 0 0-.11-.218m-2.188-1.415c-.875-.762-1.204-.762-1.313-1.197.766.435 1.313.87 1.313 1.197M63.12 4.608c.11-.11.328.108.875.217-.656-.109-.547 0-.328.218-.766-.109-.985-.218-.766-.435.438.217.547.108.219 0M32.052 5.914c0-.11.438-.327.766-.436-.328.218-.219.327.328.11 0 .108-.656.326-1.094.543.219-.109.438-.435 0-.217m33.256-2.395c-.328.11-1.532-.544-2.735-.762-.656-.217 2.625.545 2.735.762M.766 57.282c.219 2.612.656 2.721 0 0m.11-16.324c.109-.436.218-1.633.327-1.524-.328 2.612-.875 3.809-.984 5.768.328-1.741-.11.98-.219 1.633.11.87.11-.545.328-.327.219.326-.437 4.897-.219 2.394-.218 2.286 0 4.789.438 5.442C0 57.827 2.735 65.662 3.282 67.294c.11.11 0-.543.219-.108.218 1.415 1.203 2.394 1.531 3.918.328.435 1.641 2.83 1.86 3.374.437.87.656.762 1.094 1.632 1.312 2.504 3.39 4.898 5.36 7.183 6.345 7.4 16.08 13.495 26.91 15.672 10.83 2.286 22.208.653 31.069-3.591.546-.327.437-.436 1.093-.653 3.063-.98 6.783-4.136 8.861-5.333.985-1.089 3.61-2.939 3.939-4.027 1.86-1.524 3.719-4.027 4.703-5.66.547-.87.985-.87 1.204-1.414-.11 0 1.75-2.286 2.297-3.592-.219 0-.547.654-.547 0 3.938-7.509 6.126-17.63 4.923-24.596.218 8.598-1.97 18.175-6.126 24.27-1.86 3.918-5.689 8.162-9.19 11.21-.546.544-1.093 1.197-1.75 1.632-2.078 1.742-4.375 3.156-6.782 4.462-5.689 3.156-12.033 5.877-19.472 5.986 12.799-1.088 24.285-7.51 30.63-15.345-4.813 4.68-6.892 6.53-12.252 9.25-.438.762-4.048 2.286-6.454 2.939 1.422-.653 4.376-1.741 5.36-2.612-7.986 3.81-16.846 5.986-25.16 4.789 3.172 0 7.657.108 11.924-.653.656-.218.984-.436 1.75-.545 8.314-1.85 16.3-5.876 21.988-11.536-3.282 2.939-8.205 6.421-11.377 7.51 2.954-1.633 8.314-4.789 10.064-7.183-3.5 3.482-10.064 6.965-14.221 8.489-.656.109.438-.436-.656 0-1.313.326-.766.326-1.094.544-5.032 1.415-10.83 2.612-15.644 2.176-.875-.108-1.203-.326-1.969-.326-.875-.109-1.64-.109-2.625-.109-3.829-.435-7.986-1.959-11.049-3.265-1.64-.762-3.282-1.306-4.922-2.285-1.313-.762-2.407-1.633-3.501-2.504-4.157-3.047-7.658-6.094-10.94-10.447-5.907-8.163-8.97-18.393-8.532-28.514.437-10.122 4.485-20.025 10.94-27.317-.329.326.437-.762 1.093-1.415 0 .218-.11.544.657-.218.656-.762-.22-.217.109-.653 6.782-7.4 18.597-13.386 30.74-13.604.437-.326 1.203-.762 2.078-.544 0 .109-.547.109-.547.109 1.203-.109 2.297-.109 2.844.109.11-.11-.437-.218 0-.218.766.218.985 0 1.422.218-.328 0-.656 0-.875.109 2.735 0 4.485.653 7.22.87-1.422-.326-1.75-.326-2.844-.653 1.203.218 1.75.436 2.297.327-.219 0-.11-.327.11-.218 2.187.544 2.406.762 4.703 1.524.22-.218-.984-.327-1.312-.653 2.188.762 4.157 1.306 5.47 2.176-.438-.326-1.75-.761-2.736-1.197-.109.11.329.218.438.436-1.094-.545-2.625-1.089-4.157-1.306 1.313.326 2.188.761 2.735.98-1.203-.219-2.735-.98-4.485-1.307 2.844.87 8.204 2.83 11.486 4.571-1.203-.762-2.625-1.306-3.391-1.741.656.109 1.422.544 1.422.326.766.327 1.75 1.089 2.297 1.197-.984-.653-2.953-1.632-3.61-1.959 8.205 3.7 15.534 9.904 20.238 17.849.438.762 1.094 2.503 1.641 2.72-.11-.544-.547-.87-.985-1.74.22 0 .22-.327 0-.654-.437-.544 0 .436-.437-.108-1.97-3.592-4.376-6.748-8.095-10.23 2.078 1.958.547.543.11-.11 2.844 2.504 6.125 6.748 7.547 8.925-.218-.327-.328-.544-.218-.544 2.625 4.462 4.266 8.489 5.907 14.257.11.108 0-.436.219-.11 1.094 4.572 1.422 8.38 1.312 11.863.875-5.876-1.094-15.018-4.594-22.201-.438-.871-.438-.218-.875-1.197 0-.327-.328-.98-.547-1.415-4.376-7.183-9.736-12.298-16.081-16.325.437.218 1.313.87 1.313.762C64.542 1.996 50.867.907 39.6 3.302c-.765.326-1.093.653-1.969 1.088 1.641-.544 2.626-.653 4.157-.98.329-.326-1.422.11-.656-.217.11.109 1.531-.218 1.86-.109 0 .109-.438.218-.547.326 3.61-.761 7.329-.87 10.501-.653-1.86.11-5.25-.217-6.344.327 1.094-.109 2.625-.218 3.61-.109-1.313 0-3.72.109-4.814.218-.11-.109 1.75-.327.547-.327-.547.11-1.422.11-1.75.436-9.408.87-18.597 5.768-25.051 11.536-1.313 1.088-2.844 2.285-3.829 3.482-2.407 2.721-3.938 5.442-5.688 7.836 1.094-2.285 3.5-5.768 6.344-8.706 2.845-2.939 5.908-5.442 7.549-6.748 0 .435 2.625-1.632 3.61-2.285-.657.544.437-.218.656-.11 3.5-2.067 6.345-2.829 9.517-4.026-.766.218-1.422.435-1.531.327.765-.218 1.203-.436 1.094-.545-3.063.871-7.877 2.939-11.705 5.224 6.891-4.68 15.643-7.509 24.285-7.618 8.642-.218 17.065 1.96 23.738 5.442 4.485 1.959 8.752 5.55 12.143 9.033.984.87.219-.218 1.64 1.306-.437-.218-.765-.435-.218.218.875.979-.219-.762 1.203.979-.11 0-.547-.544-.547-.327 3.83 3.374 6.783 9.469 8.533 13.496-.438-1.633-1.532-3.918-2.407-5.55 2.626 4.788 3.5 7.617 4.595 11.862.437.326-.219-1.524.219-.653.11.653.218 2.72.656 3.047-.328-2.068-.875-4.57-1.313-5.006.328.218-.547-2.503-1.094-3.156-.218-1.741-1.75-4.789-3.063-7.074-4.704-9.142-13.127-16.652-22.535-20.787 0-.218-.547-.436-.765-.653-9.299-3.918-20.457-5.007-31.178-2.503-10.83 2.612-21.003 8.815-28.223 17.74.328-1.089 3.063-3.157 3.172-4.027-3.172 3.373-6.563 7.835-8.86 12.624-2.407 4.789-3.72 9.686-4.267 13.278"></path><path d="M66.402 4.281c0 .109-.11 0-.328 0-.11 0 .109.109.218.218-.984-.11-2.187-.762-3.5-.98.328-.217 2.078.327 3.61.762M14.768 34.21c1.641-3.483 3.61-6.639 6.235-9.686.097.048.278-.158.47-.375.243-.276.502-.57.624-.387-.522.455-.733.793-.957 1.155-.152.243-.31.497-.574.804.077-.127.123-.2.146-.236q.018-.026.016-.027l-.012.015c-.043.054-.19.238-.369.357 0 .054-.027.109-.068.19a2.5 2.5 0 0 0-.15.354c-.417.466-.735.982-.988 1.394l-.002.002c-.278.453-.48.78-.651.78l-.13.215-.199.337c-.275.464-.603 1.018-.984 1.625 0-.046.06-.153.12-.26.08-.142.161-.284.099-.284-.11-.109-.547.87-.438.87a2 2 0 0 1-.169.15c-.097.079-.125.102-.05.177a5 5 0 0 1-.305.449c-.174.236-.317.43-.46.857l-.11-.108c-.066.13-.013.143.04.156.023.006.046.012.06.028a.05.05 0 0 1 .01.033c-.119.236-.173.248-.233.262-.05.011-.105.024-.205.173-.066.196-.013.157.04.118.034-.026.07-.052.07-.009-.128.19-.218.416-.314.659l-.001.001c-.07.174-.141.356-.233.537-.219.145-.243 0-.267-.145-.012-.072-.024-.145-.06-.181M10.174 52.82c.15-.3.093-1.328.043-2.221v-.003c-.022-.4-.043-.772-.043-1.04 0-.143-.042-.182-.089-.226-.06-.056-.13-.121-.13-.428v-.762c.065.39.13-.073.172-.37.029-.202.047-.328.047-.065 0 .087-.035.21-.07.331-.053.183-.105.366-.04.431 0-.327.11-.109.11 0 0-.874.041-1.208.1-1.67.018-.149.038-.31.059-.508.02-.181.04-.393.06-.652-.039 0-.063 0-.084.01-.04.017-.064.066-.135.208.03-.122.044-.226.05-.326q.005-.116.004-.232c0-.177 0-.367.055-.64.03 0 .044.018.05.042q.006.031.005.068c0 .054 0 .108.054.108.124-.49.108-.739.09-1.018a4 4 0 0 1 .02-.832c.025.05.044.112.062.168.059.187.097.31.266-.276 0-.218-.027-.245-.041-.259l-.005-.006c-.008-.011 0-.032.046-.17.077-.31.141-.577.201-.827v-.003c.11-.456.205-.857.346-1.347 0-.436 0-.653.219-1.415-.06-.178-.12.032-.18.243-.036.127-.072.255-.108.296q-.02.023-.04.005c0-.16.058-.377.132-.653l.002-.005q.041-.15.084-.322c.11.218.329-.217.438-.87-.042 0-.084.047-.12.088-.057.066-.099.114-.099-.088a3.4 3.4 0 0 0 .258-.712v-.002c.045-.158.096-.344.18-.592 0 0 .032-.033.08-.062a.3.3 0 0 1 .138-.047c.135-.467.186-.566.282-.748.06-.115.139-.264.265-.558 0-.327 0-.435-.218-.327-.426 1.005-.696 1.907-.924 2.669v.002c-.242.805-.436 1.453-.717 1.9 0 .195.01.312.017.407.019.223.027.32-.127 1.008-.054-.054-.082 0-.109.055a.2.2 0 0 1-.046.069c-.017.012-.037.011-.063-.015-.766 3.81-1.204 6.639-1.204 8.38-.158.079-.202.441-.255.883q-.018.145-.038.297l-.035.235c.11.435.11 1.088.11 1.85.142-.141.237-.007.317.104.043.06.082.114.12.114 0 .412.039.98.075 1.514l.001.01c.05.73.096 1.398.033 1.523.11.109.11.327.11.558s0 .476.11.64c-.056.054-.056.217-.056.312s0 .123-.054-.095c.053.212.087.398.112.565q.022.142.038.266c.049.372.085.641.287.91-.109-.435-.109-.762-.109-.762.025.147.06.337.1.546v.005c.135.724.313 1.675.228 1.844.064.383.166.653.284.965.082.22.173.461.263.776.052-.104.104.04.156.183.058.157.115.315.172.144-.875-3.592-1.422-6.422-1.422-9.142.027-.028.041-.034.048-.038l.005-.003.002-.005v-.009c0-.027 0-.109.055-.38m-.22-1.415c.055-.598.028-.625-.013-.666-.04-.041-.096-.095-.096-.748.11 0 .22.435.22.653 0 .435 0 .653-.11.761"></path><path d="M9.65 54.005a6 6 0 0 1-.023-.423c0 .109.109.218.109.109.11.653 0 .98-.11 1.088-.109-.326 0-.435 0-.217.045.044.053-.058.047-.216-.003-.1-.013-.22-.022-.34M13.076 66.618c.462 1.188.984 2.534 1.473 3.507 0 .063-.01.108-.017.146l-.002.013-.003.012c-.82-1.666-1.553-3.46-2.384-5.94.241.481.568 1.322.933 2.262M14.659 70.56l-.132-.264c-.014.075-.008.125.132.264M14.659 34.536c-.464.847-.71 1.53-1.007 2.358l-.002.005c-.123.342-.254.708-.413 1.12.043.087-.018.348-.08.61-.091.391-.183.783.08.587.4-1.397.638-1.94.937-2.623l.002-.004c.19-.433.405-.924.701-1.726-.218.109-.218 0-.218-.327M88.738 25.835c.098.14.203.29.308.43-.168.084-.336-.218-.554-.61l-.212-.37c.075 0 .25.252.458.55M53.822 91.673c.546 0 .656.11.437.218-.258.051-.321.03-.397.005-.084-.029-.183-.062-.587-.005 0-.044.142-.052.29-.061.22-.013.452-.027.257-.157M47.586 91.456c0-.11 0-.218.219-.11h.438c.054.055-.028.082-.11.11s-.164.054-.11.108c.718.102 1.195.133 1.601.159l.078.005c.093.054.336.054.51.054l.032-.011c.225.024.458.06.733.12 0-.109.766-.218.985-.109-.328 0-.547 0-.547.109.506-.072.582-.049.764.006.094.029.216.066.44.103a1 1 0 0 1 .193-.068q.092-.023.189-.041.121-.023.236-.053a1 1 0 0 0 .147-.056c-.253 0-.522-.032-.8-.066-.446-.053-.917-.11-1.388-.043-.219-.054-.11-.081-.055-.095q.024-.006.025-.008c0-.005-.085-.005-.408-.005-.32 0-.34.037-.368.09-.018.034-.039.075-.146.116-.18-.02-.354-.031-.542-.043q-.037-.022-.038-.055c0-.109.11-.109.22-.109a34 34 0 0 0-3.282-.435q-.33.163.984.327M71.543 89.061c.507-.392 1.506-.928 2.58-1.504 1.014-.544 2.094-1.124 2.89-1.652q.04.002.068.014c.062.02.123.04.37-.123-1.641 1.197-3.392 2.068-5.908 3.265"></path><path d="M56.557 93.088c.109.109.765.109 1.421.109.312-.155.735-.2 1.229-.252l.377-.041q.125-.015.254-.034c-.191-.063-.084-.164.016-.258.071-.067.139-.132.094-.177.984-.218 2.844-.544 3.063-.435.11-.11.335-.137.572-.165.23-.027.47-.055.631-.162.052.052.201.03.299.016.108-.015.15-.021-.08.093.31-.132.584-.193.83-.247.36-.08.66-.147.92-.406l-.054.014-.06.015-.107.028c-.155.04-.287.074-.382.09-.103.015-.163.008-.163-.038.323-.053.83-.212 1.303-.36h.001c.488-.153.936-.293 1.103-.293.4-.133.678-.266 1.008-.423l.224-.106c.153-.072.32-.149.518-.233-.118-.059.085-.15.243-.221.134-.06.236-.105.085-.105-3.5 1.306-6.235 2.176-8.97 2.503a.26.26 0 0 0-.12.108c-.039.063-.068.11-.427.11-.321-.16-1.47.032-2.403.189-.337.056-.646.108-.879.137a.43.43 0 0 0-.18.098.4.4 0 0 0-.041.05c-.043.06-.087.12-.325.178h-.766c.328-.054.054-.081-.22-.108-.273-.028-.546-.055-.218-.11.07 0 .16.012.256.023.207.025.435.052.51-.022-.264 0-.174-.07-.072-.098l.072-.011a.2.2 0 0 0-.072.01c-.748.111-1.09.097-1.482.08a9.5 9.5 0 0 0-1.29.019c0 .109 0 .109.218.217-.15 0-.261.013-.37.026a2.5 2.5 0 0 1-.833-.026c0-.108.219-.108.219-.108a3 3 0 0 0-1.03.03 4.3 4.3 0 0 1-.83.078l.103-.046c.214-.093.428-.187-.322-.28-.308 0-.303.035-.3.065.003.023.006.044-.137.044-.525-.066-.932-.13-1.34-.196-.27-.044-.542-.087-.848-.13-.111 0-.208.006-.303.013-.281.02-.548.04-1.12-.123-.172.058.02.085.224.114.12.017.245.034.301.059q.047.02.023.045c-.219 0-.547 0-.985-.109.22-.108-.328-.217-.984-.326 0 .041.048.067.089.089.066.035.114.061-.09.129-.235-.118-.407-.14-.636-.17a5 5 0 0 1-.785-.157c0-.067-.042-.093-.1-.129-.036-.022-.077-.047-.12-.089-.382-.109-.546-.136-.71-.163a5.5 5.5 0 0 1-.711-.163c-.329 0-.438 0-.22.218.939.233 1.777.386 2.505.52.97.177 1.747.32 2.31.568.119-.02.209-.036.283-.05l.117-.02.121-.018c.166-.021.334-.021.9-.021 0 .054.055.082.11.109.054.027.11.054.11.109 3.718.435 6.672.544 8.423.326m1.421-.435c.547 0 .766 0 .876.109-.602 0-.63.027-.67.068-.041.04-.096.095-.752.15-.079-.079.122-.156.323-.234.08-.031.161-.062.223-.093M40.015 89.184q-.001-.013.023-.014c.438.218.875.327 1.422.436.075.11.073.171.034.207-.037.035-.108.047-.18.059-.073.012-.146.024-.182.06-3.61-1.197-7.001-2.83-10.392-5.006.051-.103-.214-.279-.486-.458-.303-.201-.614-.407-.499-.522.507.442.904.627 1.297.811.285.134.569.266.891.495-.174-.07-.249-.094-.262-.09-.013.006.035.041.106.093.08.058.187.137.265.215 0-.085.134-.037.348.04l.122.042q.037.014.077.027c.526.464 1.144.743 1.607.951.405.183.69.311.69.463.373.075.847.3 1.423.574.27.128.56.267.875.406 0 .055-.137 0-.274-.054-.137-.055-.273-.11-.273-.055 0 .11.984.435.984.327.079.039.13.078.167.107.066.052.091.071.162.001.274.091.453.182.616.266.227.115.424.215.806.279l-.11.217c.219.11.219-.109.219-.109.313.063.34.125.366.187.01.024.02.047.047.071a.4.4 0 0 0 .134.07c.11.053.082.026.041-.015-.028-.028-.063-.062-.064-.08"></path><path d="M46.274 90.803a31 31 0 0 1-2.712-.613 63 63 0 0 0-1.883-.476c.05.1.077.154.06.183-.02.035-.1.035-.279.035 1.313.435 2.188.653 3.61.98.05 0 .16.017.296.039.444.071 1.16.186.907-.148M11.46 46.5c.016-.075.026-.196.026-.427 0 .019-.003.06-.008.11a4 4 0 0 0-.019.316"></path><path d="M11.46 46.5c-.015.062-.035.092-.057.126-.039.061-.087.137-.136.426q.165.327.329-.326c-.114.113-.14-.04-.137-.227M12.033 42.917c0-.218.11-.545.11-.545.109 0 .109.11.109.218.408-1.115.53-1.853.722-3.004l.044-.26c-.207-.104-.316.278-.51.96l-.037.127c.11 0 .219 0 .11.218v.435c-.047.046-.054-.005-.063-.07-.013-.091-.03-.21-.157-.147a11 11 0 0 0-.374 1.653c-.066.406-.122.753-.282 1.176.11.11.11.762 0 .98v-.544c0 .453-.039.56-.093.71a2.4 2.4 0 0 0-.126.487c0 .109.028.245.055.38.027.137.055.273.055.382.033-.2.087-.398.142-.603v-.003c.127-.467.262-.967.186-1.57.032-.128.054-.144.073-.121.01.012.02.036.029.06.03.079.057.15.117-.266 0-.307-.035-.372-.065-.428-.024-.044-.045-.083-.045-.225"></path></svg>