<svg
	width="100"
	height="100"
	viewBox="0 0 100 100"
	xmlns="http://www.w3.org/2000/svg"
	data-test="paint-circle-3"
>
	<path d="M4.13152 65.7795C3.42584 64.5121 4.83721 64.5121 5.68403 64.7937L4.13152 65.7795ZM97.4229 46.064L97.8463 46.6273C98.1286 46.909 98.9754 48.8805 97.4229 48.1764V46.064ZM36.7341 87.8891C36.7341 86.9033 37.7221 86.34 38.4278 85.7767C39.1334 87.1849 37.2987 87.0441 36.7341 87.8891ZM63.6912 34.0939C63.6912 34.798 63.8324 36.2063 62.9855 35.7838C62.2799 35.3613 62.9855 34.2347 63.6912 34.0939ZM97.5641 51.697C96.7172 51.1337 96.5761 48.458 97.5641 49.1622C98.6931 49.7255 97.9875 50.9929 97.5641 51.697ZM36.7341 87.8891C36.593 88.5932 36.7341 89.2973 37.4398 89.5789L40.4037 89.8606C40.9682 90.1423 41.5328 90.8464 42.0973 91.2689C42.0973 90.7056 41.815 89.7198 42.5207 90.0014C43.0853 90.2831 43.3675 90.1423 42.9441 89.4381L44.2144 89.7198C47.0371 92.2546 52.5414 91.6913 57.0578 90.8464C63.409 89.7198 69.4778 87.7482 74.1354 84.7909C80.4865 80.707 85.0029 74.6515 89.8015 68.8777L95.1647 63.5263C96.5761 61.6956 96.435 59.4424 96.435 56.7667C96.435 55.9218 98.1286 53.8094 98.6931 52.9644C98.9754 55.0768 98.8343 57.7525 98.8343 60.0057L99.9634 60.9915C100.246 65.2162 98.8343 67.7511 97.8463 70.7084C94.7413 79.4396 89.6604 86.1992 81.1922 89.5789C79.6397 90.9872 78.5106 92.9587 77.2404 94.9303C73.0063 94.9303 69.0544 95.7752 65.8083 98.0285C62.421 97.3243 57.1989 98.7326 53.6705 100C46.7548 98.7326 39.4157 98.1693 34.7582 96.0569C33.2057 95.3528 31.2298 97.1835 30.2418 97.8876C28.2659 99.2959 25.302 98.8734 24.5964 96.761C24.0318 95.4936 25.4432 93.9445 24.3141 92.6771C23.8907 92.1138 23.185 91.5505 22.3382 91.8322C22.3382 92.1138 22.6204 93.2404 21.9148 92.9587C20.3623 92.3954 23.185 90.2831 20.6445 89.5789C20.08 90.2831 21.0679 91.2688 20.7857 92.2546C18.6686 92.1138 16.6927 90.8464 16.2693 88.8748C16.1281 87.8891 16.5516 87.0441 17.2572 86.1992C14.2934 82.6785 12.3175 77.6088 11.3295 72.6799C11.1884 72.1166 11.0472 71.5534 10.6238 70.9901C8.36563 68.7368 7.09539 65.7795 5.26062 62.6814C4.97834 64.5121 3.70811 63.3855 3.56698 62.6814C3.42584 61.8364 3.14357 60.7098 3.70811 60.1465C2.29674 59.724 0.885378 58.175 0.320831 56.3442C-0.52599 53.6686 0.461969 51.1337 1.44993 49.7255C2.57902 43.5292 5.40175 38.4595 8.08335 33.9531C7.80108 29.0242 10.0593 26.2077 12.1763 23.532C15.2813 19.5889 19.9388 17.4765 22.0559 12.5477C24.8786 11.2802 27.9836 10.1536 30.2418 8.04125C30.8064 7.47795 31.7943 8.60455 31.0886 9.30868C30.8064 9.59033 31.5121 10.4353 31.9355 9.59033C33.7702 6.21053 37.7221 3.11237 42.9441 4.66145C44.7789 5.22475 42.803 6.91465 44.3555 7.33713C42.0973 8.18208 39.8391 9.16785 37.8632 10.5761C39.2746 10.2945 40.8271 9.73115 42.3796 10.1536C42.3796 10.2945 42.6619 10.9986 43.2264 10.4353C44.0732 9.73115 44.6378 11.9844 45.2023 10.8578L46.3314 10.1536C49.013 10.0128 51.8357 10.7169 54.2351 9.59033C53.8117 8.74538 53.5294 6.49218 53.2471 7.05548C52.2592 6.633 51.1301 7.1963 50.5655 6.35135C50.1421 5.78805 50.7067 5.22475 51.1301 4.80228C51.1301 5.64723 51.8358 5.64723 51.8358 4.80228C51.8358 3.95733 52.9648 3.8165 53.3883 3.67568C56.211 2.54908 60.7274 3.11238 63.2678 2.40825L64.1146 3.53485C65.8083 2.83073 64.9615 1.42248 66.3728 1C66.0906 1.98578 65.6671 3.95733 66.9374 3.39403C67.7842 2.97155 67.3608 1.70413 68.3487 1C69.0544 1.42248 68.7722 3.11238 69.3367 3.67568C69.7601 2.97155 69.7601 1.98578 70.4658 1.70413C71.1715 1.42248 71.4538 2.6899 71.1715 3.2532C70.4658 4.3798 72.0183 4.23898 72.5828 4.09815C74.4176 5.78805 76.1113 7.90043 78.7929 8.46373C79.922 7.05548 80.9099 5.64723 81.7567 3.67568C82.4624 5.92888 80.6276 8.18208 79.2163 9.73115C84.0149 14.3784 89.0958 19.1664 92.0597 24.2361L94.6002 35.7838C95.3059 35.7838 95.447 34.6572 96.0115 34.3755C97.1406 37.4737 96.8584 40.5718 95.8704 44.3741L93.8945 36.2063L92.2009 35.0797C91.2129 36.6287 91.4952 38.8819 90.5072 40.8535C87.9668 39.8677 86.4142 37.7553 84.7206 36.0654C83.3092 34.6572 82.039 33.1081 80.4865 32.1223C80.2042 31.8407 78.3695 32.5448 77.5226 32.6856C77.946 30.4324 76.9581 28.4609 75.6879 28.4609C74.6999 26.4893 72.8651 25.3627 72.3006 23.532C71.3126 23.532 70.7481 25.0811 70.1835 25.6444C68.7722 27.1935 67.7842 29.3058 66.514 31.2774C66.3728 31.559 66.2317 32.6856 64.8203 31.9815C66.7962 29.165 68.7722 26.2077 69.3367 21.9829C69.3367 21.5605 68.3487 20.7155 67.5019 21.4196C66.3728 22.5462 65.3849 23.8137 64.8203 25.2219C63.6912 28.0384 61.7153 30.1508 61.0096 33.5306C60.5862 33.5306 59.7394 32.8265 60.1628 32.1223C61.2919 30.2916 62.5621 27.8976 62.2799 25.0811C61.1508 25.0811 59.8805 24.7994 59.8805 23.9545C59.7394 22.6871 59.0337 21.5605 58.4692 20.4339C57.9046 20.8563 57.9046 22.1238 57.0578 21.9829C56.0698 21.7013 57.6224 19.4481 56.4933 18.4623C55.7876 17.899 55.3642 17.0541 55.223 16.4908C54.7996 17.6174 54.6585 15.0825 53.8117 16.9132C53.2471 18.1807 53.5294 15.7866 54.5173 15.2233C52.4003 14.5192 49.4364 13.2518 47.3194 13.2518C46.1903 13.2518 42.803 12.4068 41.5328 12.5477C40.8271 12.6885 42.3796 13.3926 42.2384 14.3784C40.5448 13.6743 38.8512 13.3926 36.7341 14.66C32.7823 17.3357 27.5602 19.3073 24.5964 23.2504C23.8907 24.2361 21.9148 23.2504 21.0679 23.9545C17.1161 27.6159 14.0111 31.8407 10.9061 37.0512C10.6238 40.431 10.0593 44.5149 9.91813 48.5989C9.91813 50.2888 10.4827 52.4011 10.3415 53.2461C9.91813 57.4708 10.2004 61.2731 10.7649 64.2304C12.1763 65.6387 13.0231 67.7511 13.3054 69.7226C14.0111 69.1593 14.8579 69.7226 14.9991 70.4267C15.5636 73.8065 17.3984 76.3414 19.9388 77.3272C24.7375 81.9744 30.383 84.6501 35.605 88.1707L36.7341 87.8891Z" />
</svg>