<svg xmlns="http://www.w3.org/2000/svg" width="100" height="100" viewBox="0 0 100 100"><path d="M67.926 10.441c.217.108.542 0 .542.216-.109 0-.325 0-.217.215.867.107.325-.969.975-.215.109-.431-.433-.646 0-.754.543.108.65.538 1.301.538-.325-.968-2.276-.86-2.601 0m-2.602 6.028c.326-.538.868-.646 1.301-.969-.325 0-.975-.86-.975-.215.867.323-1.193.969-.326 1.184m3.36-1.722c-.867 1.292 1.085-.43.217 1.292.434 0 .542-.216.217-.539.217-.107.542 0 .542-.215-.759.216-.867-1.507-1.3-.753.216 0 .325 0 .325.215M58.93 32.293c-.325.107-.434.323-.542.538.325 0 .976.861.976.215-.76-.107.433-.43.542-.538.108.215 0 .538.216.538v-.753c-.867.753-1.084-.861-1.517-.215.217 0 .325 0 .325.215m3.252-8.612c.433.754 1.192.108 1.517.539.109.753-1.192.215-1.3.753.325.215.867.43.758.969-.433-.215-.867.753-.975 0 .108 0 .325-.215 0-.215-.542.538.325.968.542 1.507.759.107 1.734-.97 1.3-1.292 0 .323-.758.323-.758 0 .542-.215.217-1.292.759-1.507 0 .215.216.323.216.538-.325.108-.65.43-.216.538.108-.323.433-.43.541-.753-1.409-.538.109-1.184-.541-1.83-.109.43-1.084-.323-1.301.538.325.108.65.43.217.538-.217-.107-.434-1.184-.76-.323m-3.035 7.428-.759-.754c0 .43-.108.969.217.969.433.108 1.192.108 1.843-.754-.65-.43 0-1.614.758-2.26-.216.538 1.301.538.542.215-.216-.107-.325-.215-.325-.538.325 0 .434.323.542 0-.759-.323.434-.323.542 0v-.753c-1.084.107-1.192 1.184-2.276 1.291-.217.97-.325 2.046-1.084 2.584m2.818 1.722c-.108 0-.325 0-.217.215.325.108.542.323.542.754-.108 0-.325.215 0 .215.109-.323.325-.108.542 0-.217-.646.542-.538.542-.969-1.3.861-1.3-.646-1.409-.215m2.602-5.06c.433.431-2.385 1.4-1.843.539-.109.215-.217.323-.542.215-.108.43.759 1.077 0 1.292.217-.646-1.192-.861-.976-.538.76.107.542.969.976 1.291.108-.645.433-1.076.759-1.506.433.43.65 1.184 1.842.968.109-1.4-1.084.108-1.3-.968 1.409 0 .325-.108 0-.539 1.3-.107.975-.215 1.842.216-.108-.323-.325-1.83-.758-.97m5.42 63.295c.65-.754-.326.753.216.538 0-.108 0-.323.217-.215.108.215 0 .538.217.538-.217-.754.216-.969.216-1.507-.325 0-.216-.43-.542-.538.976 1.184-1.084.107-.325 1.184m-12.683-2.799c-.542.108-.542-.323-.759-.538.109.646-1.95.646-.975 1.291.325-.968 1.409-.322 1.734-.753m-7.913.43c-.542.108-.542-1.83-1.3-.753.325.108.108.323 0 .538.325.108 1.3.754 1.3.216m.976-3.229c.867-1.4-.217 1.184.975 1.292 0-.43.217-.646.542-.754 0 .108 0 .323.217.216-.759-.754-.759-1.077-1.517-1.507.216.323-.976.538-.217.753m2.385-.538c-.434-.323-.542-.969-.976-1.292 0 .323-1.626.43-.759.754.434-.969 1.41.861 1.735.538m33.385-1.292c-.325-.107 0-.323 0 0 .325.754 1.41-1.291 0-.969-.217.431.759.754 0 .97M53.51 83.1c-.217.646 1.193.861.976.538-.542-.107.325-.753.542-.969.325 0 .975-.107.542-.215-1.41-.538-1.084 1.507-2.06.646m36.53-.753c.325 0 .216.43.541.538 0-.323.325-.43.542-.538-.108.86-.758 2.045 0 1.83-.325-.323-.108-.754.217-.97 0 .108.217.324.217 0 0-.537-1.192-2.152-.976-1.291.867.323-.867 0-.542.43m-38.59-.754c.11.538-.324.538-.541.754.433 0 .867.215.975.538-.758-.323-.867.969-.542.215.976-.323.434.969 1.301.754-.759-.754-.325-1.4-1.192-2.26m9.214-3.014c-.325 0-.216-.43-.542-.538-.216.753-.867-.108-1.3 0v.969c.758-.538 1.409-.108 1.842-.43m-6.612-1.076c-.108.753.542.969 0 1.507.976.107.976-1.4 0-1.507m-1.626 3.552 1.301.969c-.434 0-.217.753 0 .215.217-.323 1.734-1.4.976-.969-.217.43-1.193-.646-2.277-.215m.542-1.292c.325 0 .76 0 .76.215-.543 0-.868.216-.76.754.434 0 .542-.215.217-.538.65-.323 1.3.538 1.3 0-.541.323.434-1.615-.216-.754-.108.216 0 .538-.217.538.217-.86-.433-1.076 0-1.506-.433.107-.65-.431-.759 0 .868.538-.541.753-.325 1.291m8.022-4.52c-.434 0-.65.215-.76.537.651.431.868.216.218-.215.758-.215.975-.43 1.3-.538-.216-.215-2.06-.646-1.3-.215 0 .215.433.107.541.43m-4.878-1.077c-.325-.108-1.626 0-.759.215.542.323.976-.646.976 0 .216.538-.65 1.184-.76.538.11 0 .326-.215 0-.215-.433.43.11 1.184.543 1.507 1.517-1.076 0-2.368-.217-3.337-.542.538 0 .754.217 1.292m23.63 0c.325 0 .217.43.542.538.108-.215 0-.538.216-.538 0 .107 0 .323.217.215 0-.323 0-.753.217-.753.325 0 .65-.108.217-.216-1.084.646-.759-.538-.976-.753-.542.646.434 1.184-.433 1.507m-10.08-1.722c.324 0 .541.107.758.215-.217-.646-.759-1.184-1.3-1.507-.11.43-.434-.108-.543.215.542.754 1.193-.215 1.084 1.076m6.178-.323c-.109-.323-.542-.323-.76-.539 0 .97 1.41.539 1.844.97 0-1.508 1.084.753 1.3-.216-.325 0-.65-.108-.542-.538-.65-.323-1.084.753-1.3 0 .433 0 .65-.216.758-.539-.542.216-.542-.215-.758-.43.325.861-.109.753-.542 1.292m-10.515.323c-.758.322.434.322.217-.216-.867-.43-1.734-.86-2.276-1.507-.217.969-.976 1.4-1.518 2.045.976.216.109.754.217 1.507 1.192-.43.325.97.759.216-.759-.646 1.192-1.615.759-1.292-.542-.323-1.301.215-1.518-.754.542.216 2.06-1.83 3.36 0m-7.696 0c-.108.322-.542.322-.758.538 0-.323-.109-.646-.217-.216.217.323.325.646.217 1.292.758.323.65-.43.975-.538 0 .43.759.215.217 0-.542-.538-.542.108-.976.215v-.753c.65-.108.976 0 1.301.215l-1.3-2.26c-.11.322-.326.538-.76.538 0-.43.976-1.077.217-1.292v.538c-.325 0-.758 0-.758.215 1.084 0 0 .216 0 .539.325 0 .65.107.541.538-.975-.108-.65-.43-.541.538-.217 0-.326.215-.542.215-.326-.753-.76-1.399-.542-.215-.217.108-.542 0-.542.215.867-.215.325.862.975.754.325-.861 1.843-2.584 1.843-1.507 0-.108 0-.323.217-.215-.109.968 0 .215.433.645m25.365-2.369c0 .108 0 .323-.217.216-.109-.323-.542-.323-.759-.539.217 1.292.109 1.077-.542 1.83.434.108-.108.43.217.539-.217-.539 1.3.323.542-.216-.325-.107-.434-.323-.542-.538.975.323.65-.753 1.3-.753 0 .107.217.322.217 0-.108 0-.325 0-.216-.216.216 0 .325-.215 0-.323m-2.819 0c-.325.108-1.734.323-.975.539.759-.216 1.517-.431 1.843-.97-.868.862-1.193-.86-1.843-.215.867.108-.867.646 0 .754-.217-.43 1.192-.43.975-.108m-14.633.323c0 .216.217.323.217.538-.325-.322-.65-.322-.759.216.434 0 .759-.108.976-.216-.542-1.184.217-.322.542-.753-.434 0-.109-.754-.542-.754-.109.754-.76.323-1.301.97-.65-.324-.759.107-.976-.216.542-.43.326 0 .976 0 .759-.538 0-.969.759-1.507.108 1.076 1.084-.215 1.3.538-.108 0-.325.216 0 .216.217-.431.326-.754 0-.97-2.168.324-1.517-.107-3.035-.215.109 1.723-.542 1.292-1.3 1.507 1.084.646 1.734 1.292 3.143.646m-20.053-.323c.325 0 .759 0 .759-.215-.217-.108-.542 0-.542-.215.433-.108-.108-.43.217-.538.108.323.325.538.758.538 0-.323 1.301-.538.542-.754-.975.861.217-1.291-.216-.538-1.518.108-.976.215-1.518 1.722M80.5 68.03c.975-.108 1.3.538 1.842-.215-1.084.538-1.734-.861-2.06-.215.11 0 .218.215.218.43m-21.896 0c0 .108 0 .323-.217.215-.434-.968 1.084-.107.976-.753-.65-.215-1.193-.323-1.843.215 0-.107-.217-.323-.217 0 .434.538 1.843 1.184 1.3.323m26.773-.753c.868.107 0 .645.542.753 0-.538.65-.323.542-.969-.325 0-.216-.43-.542-.538-.108.43-.433.43-.542.754m-35.77-.97c.108.431-.434.647 0 .754 0-.215.434-.323.542 0-.108 0-.325.216 0 .216 0-.43.65-.216.976-.216v-.753c-.326 0-.76 0-.76.215.218.108.543 0 .543.215-.759.216-.434-.645-1.3-.43m10.08.754c.651.108.651-.538.76-.968-.65.107-1.193.538-1.518.968.65.323.759-.968.976-.215-.109 0-.326 0-.217.215m13.333-2.045c-.65.538-.433-.753-.975.215 0-.107 0-.322-.217-.215.108.43-.434.646 0 .754 0-.43 1.951-.323 1.192-.754m13.875.538c.433-.107.65.43.759 0-.109 0-.326 0-.217-.215 0-.215.217-.323.217-.538-1.084.108.216-.646-.76-.754-.758.646.651.862 0 1.507m-34.686-1.076c-.109.323-.326.43-.542.538-.326-.646.108-.753-.217-.969 0 1.4-1.193.43-.759.754 0 .323.434.538 0 .753 0-.107-.217-.323-.217 0 .109 0 .325 0 .217.216h.542c.434-1.4 1.518 0 1.843-1.507-.434 0-.867 0-.76-.539.434 0 .976.108.976-.215-.65.108-.541-.43-1.3-.215-.109.538 0 .861.217 1.184m7.479.323c.217-.754.65-1.292 1.517-.754-.65-1.184-1.842-.43-2.276-1.507-.434.861 1.192.861.217 1.292 0-.108-.217-.323-.217 0 .325.323.759.108.976-.215-.109 0-.326-.215 0-.215.758.538-1.193 1.614-1.301 1.291.108 0 .325-.215 0-.215-.434.646.217.43 1.084.323m.217-2.368c.867.107.867.968 1.842.968-.108-.538 0-.968.217-1.291-1.084.107-1.41-.323-2.06.323m-9.54-.97c-.324.647.976.754.218.97-.109 0-.326.215 0 .215.542-.43.65 0 1.3 0-.108-.646-.867-.43-1.3-1.292.325 0 .758 0 .758-.215-.325 0-.216-.43-.542-.538 0 .323-.108.646-.433.86m-1.733-.753c-.434 0-.868.216-.976.539.434 0 .65.215.542.753.434 0 .975.108.975-.215-.216-.108-.541 0-.541-.215.325 0 .65-.108.541-.539-.758-.107-.975.43-.541-.323m28.724.216c-.433-.108-.217-.754-.975-.538 0 .43-.109.753-.217.968.867.323.217-.86.975-.538 0 .215.217.43.217.108m5.637 3.875c.867.215.433 1.4.758.969.326-.861 1.951 1.184 1.518.215-1.084-.323-.217-1.292-.542-1.507 0 .323-.325.108-.542 0 0 .323 0 .753-.217.753-.325-.107-.433-.322-.542-.538.759.108.65-.646 1.3-.753.11.215.977.86.977.215-.434-.108-.217-.538 0-.754-1.301-.43.325-1.722.758-2.045.325.43-.216 1.507.217.97-.108-.754.976-.216.976-.754-.434-.216-1.193 0-.542-.754 0 .108.216.323.216 0-.542-.538-.867 0-1.3.215.433-.43.216-1.076-.217-1.291-.325 1.291-.65 1.076-.976 2.045-.65 0-.758-.43-1.3-.538-.434.86-.76.753-.976 0 .108 1.184.542 1.722.976 2.26.108-.646.758-.646.216 0 .65-.323.76.108.976-.215a1.3 1.3 0 0 1-.759-.754c.759.646.976-.538 1.3 0-.433 1.077-1.3 2.046-2.275 2.26m1.842-4.09c-.542-.216-1.409.43-.758.538.216-.216.867-.108 1.3-.754-.65.215-.542-.538-.975-.538-.109.43.325.43.433.753m-32.41 1.506c.542.216 1.735-.322.976-.538-.759.754-.434-.538 0-.753-.109-.323-.976 0-.976-.538.434-.108 0-.431-.216-.539-.65.754.867 1.184.975 1.292-.433.108-.433.754-.759 1.076m15.934-1.83c0 .323.109.539.217.754-.325-.215-1.734.861-1.734 1.292.108-.323.433-.646.542-.216-.217.216-1.3.862-.542 1.292 0-.108.217-.323.217 0-.217.43-2.493.215-1.518.969 0-.323.325-.43.542-.538-.217.646.542.538.542.969-.542.322-.975.753-.975 1.506.325.108.541.323.975.216 0-.43.217-.646.542-.754.217 0 .325.216.542.216-.108-1.507-1.626.538-1.843-.216.976-.43.542-1.076 1.843-.968-.434-.216.108-.431-.217-.97.542.108.542-.322.759-.538-.108.323-.542 1.723 0 .97 0-.431.217-.862.542-.97.325.539-.109 1.292.217.754.108-.323.216-.538.975-.754.434-.86-.108-2.045-.758-1.507.108 0 .325.216 0 .216 0-.323-.434-.215-.543-.538.868-.108.868-.754 1.843-.216 0-.43-.216-.538-.542-.215-.325-.646.542-1.507 0-1.507-.108.215-.216.323-.542.215.217.754.217 1.615-.542.97 1.084.107-.108-.54.217-1.293-.65.754-.759.108-.975-.538.108.754-.542 2.368.216 1.4m10.298.754c-.108-1.184.325-.538.542 0 .433 0 .867-.215.975-.538-.433 0-.216-.861-.758-.754-.109.43-.326 0-.76 0-.108.216-.541 1.292 0 1.292m-.217-.969c.434-1.184 1.734.538 2.276-.753-.65-.323-2.71-.216-2.276.753m-17.018-.538c-.325 0-.325-.43-.217-.754-.758.323-.65-.43-.975-.538-.109.754.867 1.723 1.192 1.292m26.774-.969c.216-.753-.542-.43-.976-.538.217 1.292-.975.646-.975.969.65.646.758-.323 1.517-.215 0 .322-.325.322-.217.753-.325-.108-.433-.323-.759 0-.216.969.868.646 1.301.969.434-.969-1.084-.108-.975-.754 1.192.108.758-1.4.975-1.507-.108.216-.108.323.109.323m-27.207-.538c0-.215-.434-.323-.542 0 .216.108.325.215.216.538.434 0 .868-.215.976-.538-.434-.108.108-.43-.217-.538 0 .323-.217.43-.433.538m1.734.538c.65.215.542-.538.759-.753-.326 0-.65-.108-.542-.538-.76-.108-.76.645-.976.968.434.754 1.3-.86.759.323m28.508-.753c.325.107.542.323.758.538-.542.43-1.192.646-1.3 1.507.758-.323.975-1.292 1.517-1.83-.325-.108-.542-.323-.759-.538.326 0 .76 0 .76-.215-.326 0-.543-.108-.76-.216.109.323 0 .538-.216.754m-10.515 0c.65-.108-.758 1.184 0 .538.326 0 .542-.43.76 0 .108.323-.976.646-.218.753 0-.645.868-.107.76.216-.868-.216-.434.538 0 .538.324-.646-.11-.754.216-.969.867.215.217.538 0 .969.975-.538.867-.646 2.06-.969.216.43 1.192 1.4 1.517.754-.867 0 .542-.861-.217-.754 0 .323-.325.43-.542.538 0-.215.217-.323.217-.538-.217-.108-.542 0-.542-.215.325 0 .65-.108.217-.215-.65.753-1.084 0-1.843.753-.108-.646-1.084-.646-.975-1.292-.326.861-1.085-1.076-1.41-.107m-3.035-.538c.434.753-.975 1.076-.216 1.291.758-.215.541-1.4 1.842-.969 0 .216-.217.323-.217.539.976-.108 1.951 0 1.301-.97-.65-.322-1.626-.322-2.71.108m2.493-.539c.65.108 1.084-.107.976-.753-.325 0-.759 0-.759-.215.109 0 .325-.216 0-.216-.325.538-.433.43-.217 1.184m9.864.216c.109-.216.217-.323.542-.216-.325-.538.65-.968 0-.968-.216 1.076-.216-1.292-.542-.216-.325.969-.758 1.184.217.538.325.539-.975.646-.217.862m-33.168-.754c-.109-.323-1.301-.323-.542 0 .325.323.867.215.758-.538-.216-.108-.542 0-.542-.215.434.107.65-.323.217-.539-.434.646-.434.754.108 1.292m-2.385 1.83c.325-.108.65.969.759.215-.109 0-.326 0-.217-.215.108-.861.65 0 .759-.538a1.3 1.3 0 0 1-.76-.754c1.735-.107-.324-.107-.216-.753.434 0 .759.107.976.215.325-.753.108-.969-.542-1.292.108.539-.76.323-.76.754.868.43-.866 1.184-.541 1.507.433.108.759-1.184.975-.538-.108.43.65.968-.433 1.399m15.717-2.799c.542.108.109 1.184.759.538.542.97-.109 1.077-1.3.97.108-.647-.543-.647-.977-.754 0 1.507 1.085 1.507-.216 2.798.216 0 .542 1.077.758.216-.216-.108-.325-.215-.216-.538.216 0 .325-.216.542-.216 0 .216.216.323.216.538-.216 0-.325-.215-.541-.215 0 .43.216.861.541.969.109-.861 1.193.43.976-.215-.325-.43.65-.646-.217-.754.325-.107 0-.969.542-.969.325 0 .325.323.759.216.325-.754.108-.969 0-2.045 1.3-.323.325.753.759.753 0-.43.758-.108.758-.538-1.083 0-.758-.861-.975-.969-1.084.861-.325.108-.542-.215-.325.86-1.3-.108-1.626.43m15.717-1.507c-.433.216-.542.861-.975.97 0-.108-.217-.324-.217 0 .433.753 1.734-.754 1.192-.97m-20.053.754c-1.084-.323-.975-.646-.216-1.292-.434.108-.543-.323-.976-.215.325.753-1.192.969-.542 1.291.217-.645.867.539.217.754.65.215.542-.538.975-.538 0 .215.434.323.542 0m-2.601-.538c-.867-.216-.759.43-.976.753.65-.753 1.084 0 1.518-.215-1.41-.323.975-1.077 0-1.507-.325.969-.65.108-.976-.215-.325.645.65.43.434 1.184m-5.962-1.507c-.542-.216-.867 0-1.517-.539-.217.539-.976.539-.976 1.292.65.108 1.41.108 1.843.538-.434 0-.65.216-.759.538.325 0 .759 1.077.976.216-.434 0-.65-.216-.76-.538.434-.108.651.43.76 0-.65-1.4.867-1.4 1.517-1.507-.867.215-.434-.97-.976-.97-.325.431.65.754-.108.97m30.893 2.26c.433.108.216.538 0 .754.433 0 .65.215.758.538-.325 0-.216.43-.542.538 0-1.4-.108-.323-.542 0-.216-.753 0-1.076-.216-1.292 0 .323-.434.216-.542.538.65.539.542 1.615 1.3 2.046.109-.216 0-.538.217-.538 0 .107 0 .322.217.215.217-1.4.217-1.4-.217-2.584.65-.43.759.108 1.518-.215-.76-1.184-.542-2.045-1.518-2.583.108.645-1.3.968-.542 1.507.434-.861.434.753.759.753 0-.108.217-.323.217 0-.217.754-.65-.43-.867.323m0-3.014c.541.323-.326.646.216.754.109-.323 1.41-1.507.76-.97-.651.216-.868.324-1.302-.215 0 1.077-.542.216-.758 0 .216.754 0 1.077.216 1.292.217-.538.542-.753.868-.86m-21.571.215c-.325 0-.433-.322-.542-.538.217-.108.542 0 .542-.215h-.759c.326.861-1.409 1.507 0 1.83-.542-1.4.217-.215.759-1.077m13.874-.215c.65.215.543-.538.976-.538.867 1.184-.65 1.83.217 2.583-1.084-.645-2.168-.43-1.518.97-1.084-1.077-.65.322.217.537 0-1.291 1.084-1.076 2.06-1.83.325-.86-1.193-1.184-.217-1.83.325.539.867.862.975 1.508-.433.753-.975 1.399-.975.538-.108.968-.217 1.399-1.3 1.83.541.323.975-.108 1.3.753-.867.538 0-.108-.542-.215-.65.646.65.646 0 1.291.325 0 .542.108.759.216 0-.323.108-.646.542-.538.108-.431-.76-1.292 0-1.507 0 .107.216.323.216 0-.325-.108-.433-.431-.758-.539.433.646-.867.754-.76.216 1.41-.97 2.386-2.476 2.277-3.875-1.192.86-3.035-.431-2.818-.97.217.539-1.3-.322-.542.216 1.626.538-.759.969-.109 1.184m-.758-.753c0-.431-.217-.539-.542-.216 0-.323 0-.753-.217-.753-.108.215-.217.323-.542.215 0-.108-.217-.323-.217 0 .434.215.65.754 1.518.754m-14.633-1.077c0 .323-.109.538-.217.754.433 0 .758.107.975.215-.108-.43.976-1.507.217-.969-.217.861-.542.215-.975 0m1.95-.215c.543 0 .326.646.976.538.217-.108 1.084-.646.542-.753-.867.645-1.517-.216-1.517.215m-13.874-1.292c.325.108.434.323.542.538-.434 0-.975-.107-.975.216.433.43 1.192-.108 1.517-.538-.759-.539-1.517-.108-1.084-.216m17.777-1.076c0 .538-.65.323-.542.968.325.754 1.734-.86.975-.215-1.084.323.434-.646-.433-.753m-5.853 1.291c.108-.753.433.431.541.539.868-.754 1.084.107 1.843-.216-.433-.107.109-.43-.217-.538-.542.323-.758.108-1.517.538.217-.43.217-1.722 0-1.291.108.43-1.41.43-.65.968m-8.239 0c.76.108-.867 1.077 0 1.292.109-.323.326-.538.542-.753.326.107.434.323.542.538-.867.108-.216 1.076.217.538.217 1.077.759 2.907 1.301 1.83 0 .215-.434.323-.542 0 1.084-.215.759-1.184 1.3-.753-.65-.323.218-1.292-.216-1.292-.108.323-.325.107-.542 0-.108.43.434.646 0 .753-.325-.538-1.41-.215-1.517-.968 1.3-.323 2.059.538 2.276-.754-1.084-.215.217.538-.542.538-.759-.323.217-.968.217-1.291-.542.107-.542-.323-.76-.539 0 1.184-.433-.215-.758-.215.108.43-.434.646 0 .753.976-.43-.542 1.077.759 1.292-.65 0-.759-.43-1.3 0-.218-.43-.651-1.722-.976-.968m21.571-1.722c-.108.323-.325.108-.542 0-.217 1.077-1.3.43-1.3 1.292 0-.108 0-.323-.217-.215-.217.753.541.43.975.538-.217-1.077 1.734-1.184 1.084-1.615m-22.33 0c.218.108.543 0 .543.215-.542 0 1.95.754 1.3.216 0-.323-.325-.108-.542 0 .326-.861-.867-.215-.541-.969.325 0 .541.43.758 0-.542-.861-2.168 1.076-1.517.538m10.19 0c.433 1.507 1.409-.215 2.06 0-.651-.43-1.41-1.507-2.06-.538.325.215.542.646.759.969-.326 0-.434-.43-.76-.43m-7.371-.538c.65 0 .108.861 0 .969.65 0 .65-.538.976-.754-.326.108-.76-.968-.976-.215m1.517.754c-.216-.862.65-1.292-.216-1.508-.109.216 0 .539-.217.539 0-.108-.217-.323-.217 0 .434 0 .109.86.65.968M81.8 46.07c.76.754-.433.861-.542 1.507.868.108.76-.754 1.301-.969-.542-.215.759-1.184-.217-1.507.325 1.184-.325 1.077-.542.969m-.325-1.184c-.217 0-.325-.215-.542-.215-.217.538.867.969.759.538-.759 0 .759-.969 0-.969 0 .646-1.3-.646-1.3 0 .324.215 1.3-.215 1.083.646m-11.49-1.615c-.108 0-.325 0-.216-.215h-.543c-.975 1.292-.758.43-.216 2.045.325-.86.108-1.076.975-1.83m-13.115-.968c.108-.216.216-.323.541-.216 0 .108.217.323.217 0-.758-.215.325-.646-.217-.968.217-.108.542 0 .542-.216-.758.215-1.084 0-1.3.215.758 0-.434 1.292.217 1.185m32.626 3.014c0-.323.434-.216.542-.539-.433 0-.65-.215-.758-.538 0-.323.325-.323.216-.753-.975-.216-.216 1.076-.758 1.291.433 0 .433.43.758.538m-6.503 4.413c-.109.323-.326.538-.542.753.433-1.076-1.735-.86-.76-.215.868-.861.326 1.4.543.754 1.409-.862.433.538 1.517.538 0-.323.434-.215.542-.538-.975.322-.867-.646-.542-.97-.867.108-.542-1.183-1.517-.968-.325.754.867 0 .759.646m1.842-6.136c-.542-.323-.542-.323-.216.216-.326-.108-.434-.431-.76-.539-.65.323.434.754-.216.97.217-.431-.542-1.077-.542-.54.325.324.325.97.976.97-.217-1.292.975-.646.975-.97-.217 0-.217-.968 0-.968.65-.108.65.538.759.969-1.3.753-.759 1.076-2.06 1.83.326-.754-.975-.861-.216-.538-.326.753.433.646.542.968.108.539-.109.97-.542.97.433-.539-.326-1.615-.542-1.292.433.43.65.86 0 1.291-.109-.215 0-.538-.217-.538.108 1.507 1.192.108 1.517.538-.758-.108-.216.969-.758.969-.109-.323-.434-.646-.542-.215.325.107.65.43.216.538-.325 0-.325-.323-.758-.215.216.538-1.301.538-.542.753.325-.215 1.192-1.076.975.215.65.108.542-.43 1.301-.215-.759-.969 1.192-.861 0-1.507 1.192-.215.759.323.975.538.109-.645.76-1.076 1.301-.538.217-.969-1.3-.215-.542-.969-.975 0-.867-.43-1.3.216 0-.323-.326-.323-.217-.754 1.3.323 2.168 0 2.818.969-.759-.646.108-1.938-.217-1.507-.325 0-.217.43-.542.538-.108-.323-.325-.107-.542 0 .867-.861-.758-.538-.758-1.292q.488.484.975 0c0 .323.109.646.542.539.109-.431-.433-.646 0-.754.65 1.077.325-.323 1.3-.215-.216 2.26-.758 3.23-1.842 5.059.976 0 .434-1.507 1.3-1.507-.108.753-.324 1.292-.216 1.83 0-.108.217-.323.217 0-.325.753-.759 0-1.3.753.108-.86-1.627-1.291-1.844-1.507.542.539-.325.754-.216 1.507.433.754 1.084-.43 1.3.216 0 .43-.867.215-.758.753.867.538-.326.646.758 2.584-.216-1.292 1.518-.97 0-1.507.217-.97.868 0 1.301-.538.109-.539 0-.97-.217-1.292.867-.646 1.301 0 1.843-.754-.976-.646-.325-1.507.217-1.291-.217-.539-.217-1.077-.759-1.83.217 0 .325-.216.542-.216.325.108.434.323.542.538-.434.108-.65-.43-.759 0 .325.108.434.431.759.539.217-1.184-.217-1.722-.217-2.045.217.645-.65-.323 0-1.292-1.084-.43-.325-1.4-.759-1.83-.108.43-1.084 1.076-1.3.538.433 0 .867-.215.975-.538-1.3-.108-.542-.323-1.3-.754-.326.108-.109.323 0 .539-.326-.539-.65.323-.76-.216.326-.215.434-.538.543-.968-.868-.108 0 1.076-.976 1.291-.433-.646.65-.86-.217-.968-.108-.539.76-.323.76-.754-.326-.108-.434-.43-.76-.538 0 .323 0 .753-.216.753 0-.107-.217-.323-.217 0 .867 1.83 0 1.615.433 3.014M71.178 39.72c-.434-.215-.542-.646-.217-.969-.867-.43-.109.861-.759.754 0-.323-.325-.108-.542 0 .325.861.325.538.542 1.292.976-.108.976-1.077 1.843-1.292.108 1.184 1.084-.43.542.215-.65-.215-.867-.861-1.301-1.292 0 .323-.108.539-.217.754.325 0 .759 0 .759.215-.325.108-.434.323-.65.323m20.595-1.507c-.109-.861-.76.861-.217 0 .65.215.542 1.292.759.754.108 0 .325 0 .216-.216-.867-.215-.216-.538 0-.968-.433-.108-.433.215-.758.43m-21.788 0c-.65-.215-1.517.646-.975.754.108-.754.433.43.758.215.109-.538-.325-.538-.541-.754h.975c.217-.43-.542-1.076-.542-.538.217.108.325.108.325.323m4.336-.538c.217 0 2.06.538 1.518.215 0-.43-.76-.107-.76-.538.76.108.434-.646.218-.753-.109.43-.434-.108-.542.215 1.084.538-.542.538-.434.86m-1.084-.969c-.867 0-.759 1.722-1.843.754-.216.86.868.323.976.753 0-1.4 1.3-.538.975-.753.217-.323-.108-.323-.108-.754.325-.538.65.323.759-.215-.217-.108-.325-.215-.217-.538.109 0 .325-.216 0-.216-.108.323-.325.539-.542.754.434-.754-1.3-.861-.542-.538.434 0 .325.538.542.753m21.896-.753c-.325-.108-.434-.43-.759-.539.217.754-1.517 1.615-.759 1.292.976-.43.542.646.976.754.759-.43-.434-1.292.217-1.507.108.107.216.215.325 0m-22.33-1.83c.434-.646-.216-.97.217-1.83-.325 0-1.409-.43-.758 0 .433.86-.542.969.541 1.83m2.06-1.83c.434.107-.108.43.217.538.867-.861-.109.861.759.969-.109-.861 1.626-2.153.975-1.83-.65.538-1.517 0-1.951.323m3.577-3.014c-.542-.538-.975.323-1.517.538-.109-.215 0-.538-.217-.538-.109.538.108.969.542.969.65-.323.65-.431.758-.754 0 .43.326.108.434-.215m-1.3-2.045c-.651-.646-1.193.538-.76 0 .76.107-.65 1.291.217 1.507.109-.216 0-.539.217-.539 0 .108.217.323.217 0-.65-.215 0-.753.217-.215-.867-.969.975-.861.216-1.507-.541.646-.975-.969-.975-.969-.542.646.65.861.65 1.723m4.118-2.046c-.108 0-.325 0-.216-.215.541-.108.541.323.758.538.217-.43.867-.753 0-.968-.108.215-1.734.645-.542.645m-1.084-2.583c0 .323-.433.215-.542.538.542.538.217.538.76 0 0 .108 0 .323.216.215-.109-.43-.325-1.83-.759-.968.217 0 .434 0 .325.215m-4.335-1.507c.216-.646-1.518-.108-.542 0 .65.108 1.084.323 1.517.538.109-.43-.433-.646 0-.753 0 .86 2.276.969 1.518.215-.109.538-.434-.323-.76.215.11-.86-.975-.323-.216-.968-.542-.323-.975.645-.975 0 .108 0 .325-.216 0-.216-.326.108-.109.969-.542.969m3.902-9.473c.108-.43.325 0 .758 0v-.538c0-.107 0-.323-.216-.215-.109.861-.65-.861-.759 0 .759 0-.759.753.217.753M63.265 42.088c-.217.861-.867-.107-1.3.754.324.323 1.191.323 1.517 0 .216.43-.76.86 0 .969-.109-.539.325-.539.542-.754a1.3 1.3 0 0 1-.76-.753c.11 0 .326-.216 0-.216m-5.42-6.674c.542.108 1.3-.968.542-1.291-.108.215-.217.323-.542.215 0 .323.108.538.217.754-.434-.108-.542 1.076-.217.322m-5.853 19.16c-.759-.215-.325-.43 0-.753-.759.108-.542-.753-1.518-.538.109.646 1.193 1.615 1.518 1.292m-10.84 22.929c.65 1.937.434.86.759-.538-1.084-.216-1.084.645-.217.215-.325.107-.325.323-.542.323M52.21 89.559c.433.107 0-.97-.217-.97-.325.754-1.193-.537-1.301.54 1.192-.431 1.517.86 1.517.43m28.507-26.373c.434-.43 2.277.43 1.518-.753-1.192.968-1.084-.861-.976-.538-.433.645-1.409-.754-1.842 0 .108 0 .325 0 .216.215-.216.107-.542 0-.542.215.542.215 1.084.43 1.518-.215.867.538-.542.86.108 1.076m9.756-22.712c-1.084-.646.433-1.077 0-1.507-.325.968 0-.754-.542-.539-.109.431-.434-.107-.542.216.759.215.433.753 0 .968 1.084.431-.542 1.292.542 2.046-.759-.108-.976.86-.217.215-.108.538-.65.538-.759.969.542.323 1.084.215 1.301 0-.325-.108-.542-.323-.759-.538.542-.323.976.645.976 0-.976-.323-.108-1.184.217-.216v-.753c-.976.43-1.301-.969-.217-.861-.542 1.291.108-.216.542.753.759-1.076 1.3.538 2.06-.215-1.193-.215-1.193-.969-2.602-.538M71.502 51.99c-.433 0-.65.216-.758.539 1.3.215.65-.97.976-.97.325.754 0 1.723.758 2.584-.65-.538-1.192-1.184-2.06-1.507.218 1.077-.541-.215-.541.538 1.084.431 0 .754-.217 1.292.434.108-.108.43.217.538.434-1.184 1.3.646 1.3-.538-.108-.538-.65.43-.758-.538h.975v.753c.434 0 .76.108.976.216.542-.754 1.192-1.83 1.517-2.046-.758-.215.217-.538 0-.968-1.192-.215-.108-.861 0-.754-.325-.107-.108-.323 0-.538-.433 0-.758-.108-.975-.215-.109.753.65 1.076-.217 1.291-.759.216-.65-.322-1.3-.215 0 .108-.217.215.108.538m4.337-9.472c.65.646-1.084 1.83 0 2.583-1.626-.968-.976 2.368-2.06.754 0 .43.217.86.542.968.109-.43.434 0 .542.216-.65.215-1.084-1.077-1.843-.538.434 0 .217.645.217.968-.325.108-.542.323-.542.754.867.108.542-.969 1.3-.969 0 .215.218.323.218.538-.325-.107-.434-.323-.76 0-.433 1.077 1.193 1.4 0 1.83 0-1.4-.108-.323-.541 0-.109-.323-.434-.646-.542-.215.217.646 1.951 1.076 2.276.753-.325-.107.217-.968-.216-1.507.975.431.65-.538 1.517-.538-.217-.107-.325-.215-.217-.538-.542-.108-.542.323-.759.538.217-.86-.108-1.076.76-1.507.108.323.541.323.758.538-.108-.43.433-.645 0-.753.108.538-.759-.753-.217-.969.434 0 .109.754.542.754-.108-.538.325-.538.542-.754-.325-.107-.108-.323 0-.538-.217-.323-.975-.108-.759-.754.326 0 .434.323.542 0-.325 0-.108-.322 0-.538-.867-.215-1.3-1.507-1.3-1.076m2.818-11.948c.325-.108.433-.431.759-.539 0 .646-.542.754.216.97.109-.54.65-.54.76-.97-.543-.538-1.302-.538-1.518-.215 1.084.215-1.084.538-.217.753m-31.11 26.803c-.108.753 1.952 1.614 1.301 1.291 0-.969.217-.107.76-.215-.11-.754-1.302-.969-.543-1.83-.325 0-.542-.108-.759-.215.434.753.217 1.4-.758.968M12.104 94.618c0-.323.433-.215.542-.538-.976-1.077-1.735-.216-2.819-.539 0 .431.217.539.542.216.109.538 1.192 0 1.843 0 0 .538-.434.753-.109.86m14.09-3.875c-.758 0-1.408 0-1.3.753h.542c.108 0 .325 0 .217-.215-.65-.43.65.323.542-.538m-15.933-.215c.325.645-.109.753.217.968-.109-.538.758 0 .758.216-.433 0-.542.215-.216.538-.65-.216-1.193.969-.76.969.76-.539 1.085-1.507 1.843-2.046-1.625.538-.108-1.184-1.842-.645m-.217-.754c.108-.215 0-.538.217-.538.325.753-.434.646-.542.968.433 0 .867-.215.975-.538-.542-.86-.542-1.399-1.517-1.291.759.215.325 1.184.867 1.399m.759-1.507c.217.108.325.215.217.538-.109 0-.326.215 0 .215.216-2.045 2.384.539 1.842 0 .109-.215 0-.538.217-.538.217.323.217.969.759.969-.65-.969-.325-1.937-1.3-.969.107-.753-.11-.86-.543-.538.867-.43-.65-1.4 0-.754.217 1.185-1.084.754-1.192 1.077m16.259-.538c.433 0 .108-.754.542-.754.542-.107.542 1.4.975.538-.325 0-.433-.323-.541-.538.325 0 .541-.107.758-.215 0 .323 0 .753.217.753 0-.323.108-.538.217-.753-.217-.108-.542 0-.542-.215-.867.86-1.734-.323-1.843.215.759-.215-.433 1.83.217.969m7.913-3.875c.108-.539.759-.431.542-1.292-.976-.108-.867.861-1.518.969.542.323.976-.646.976 0-.109.107-.325.323 0 .323m-19.728-.216c.325-.538-.108-.969.542-1.507-.108 0-.325 0-.217-.215-.433-.108-.65.323-.217.538 0-.107.217-.323.217 0-.65.108-1.192 1.077-.325 1.184m-3.36-1.291c.65.753 2.601-1.507 1.842-1.292-.541 1.076-1.517.538-1.842 1.292m2.276-2.584c.217.43.108 1.292.542 1.507.108-.43.434.108.542-.215-.542-.323-.325-1.184-1.084-1.292m-3.36.323c.433.323 1.843-.215 2.06-.215-.326 0-.217-.43-.543-.538 0 1.076-.759.107-.975 0-.109.323-.434.43-.542.753m7.479-.753c0-.216-.434-.323-.542 0 .217.107.325.215.217.538-.109 0-.325 0-.217.215.542.108.542-.323.759-.538 0 .108.217.323.217 0-.76-.215.758-.215.542-.754-.65-.215-.434.539-.976.539m-3.035-.539c-.325-.107-.65-.43-.217-.538.217.646 1.192 0 1.3-.215-.758-.108-.975.538-1.517 0-.65.215.109 1.507.434.753m7.696.216c.867-1.292-.867-.538-.976-1.292.109 0 .326-.215 0-.215-.65.645.434 1.184.976 1.507m-11.381-.97c-.326.647.433-.645.975 0 .217-.86-.65-.537-.759-.968.109 0 .325-.215 0-.215-.108.215-.975.861-.975.215.108 0 .325-.215 0-.215-.542.646.542 1.184.758 1.184m9.755-.322c.65-.323-.433-.754.217-.969.867.538.975.323.975.969.109-.646 1.084-.108 1.301 0-.217-.754-1.192-.861-1.517-1.507-.326 1.292-2.277-.646-2.06 0 1.192.108.867 1.938 1.084 1.507m-5.311-.215c-.759 0 1.192-1.507-.217-1.507.433.645-.867 1.937.217 1.507m12.79 7.427c.217-.646.76-.108.217.215.867-.323.217.862.976.538 0-.753-.65-.86-.76-1.507.218 0 .326-.215.543-.215.108.216 0 .538.217.538-.109-.43.433-.645 0-.753 0 .108 0 .323-.217.215 0-.43.433-1.076 0-.538 0 .538-1.735.861-.976 1.507m2.385-7.427c-1.518-.216 0 .969-.976.969 0-1.507-1.842 1.184-1.3 1.507h1.3c-.65.215-.65.86-1.3.968-.109-.323-.326-.43-.542-.538 0 .108 0 .323-.217.215 0 1.077.217 0 .542 0 0 .97-.542.754-.759.97.542-.216.542 1.29.759.537-.542-.538.325-.969.759-1.291.216.753.758 2.26-.217 1.507.975.215.108-.97-.217-.97.217.862-.434.97-.217 1.83-.975.539-1.3.647-1.842.539.433.108-.109.43.216.538.109-.43.326.108.542.215 0-1.076.217 0 .542 0 1.626-1.184 2.493-2.26 2.602-3.013-.434.107-.65-.324-.217-.539.108.43.325-.753.975-.969-.325-.107-.108-.322 0-.538-.65 0-.758.538-.975-.215.108-.323.325-.43.542-.538.108 1.507.542-1.077.976-.538-.434-.97-.65-1.508 0-2.26-.109 0-.326 0-.217-.216h-.542c.759.646-.867.646-.217 1.83M22.4 75.78c-.325-.107-.65-.323-.217 0 .65.216 1.193.646 2.06.216-.976-.323.759 0 .542-.538-.326 0-.217-.431-.542-.539-.542.754-.76.646-1.518.216-.108.322-.108.538-.325.645m-8.78-.538c.434.215-.65.969 0 1.292.434-.646 1.951-.43.542-.969.759.215.542-.753 1.3-.538.11.43-.433.646 0 .753.11-.323.326-.538.218-.968-1.084.215-1.193.107-2.06.43m19.078.215c-.542-.538-.76-.86-.976-1.506 0 .538-1.192-.108-.542-.539-.65.538-1.192-.43-1.843.216 1.41-.216 1.518 1.937 3.36 1.83m-8.997-2.26c-1.41.215-.867 1.076-.217.969.217.538-1.3.538-.542.753.325-.538.65.323.759-.215-.976-.646 1.409.323.542-.215-.434-.108.108-.43-.217-.538-.325.43.108-.754-.542-.539.108 0 .217 0 .217-.215m-9.539-.538c-.325.215-.108.969-.759.753 0-.323.325-.43 0-.538.109.323-.975.646-.216.754 0-.539.975.215 1.3.215 0-.323.109-.538.217-.754-.217-.107-.542 0-.542-.215.542.108.976-.108.976-.538-.326-.108-.65-.323-.217 0 0 .323-.434.323-.759.323m24.389.753c.542.216 1.626-.215.759-.538 0 .108 0 .323-.217.215-.325-.753.867-1.291.217-1.507-.217.43-1.193-.215-1.301.216-.109.645 1.084.645.542 1.614m-21.029-1.507c.325 0 .542-.107.759-.215v.754c-.325-.323-.759-.108-.976.215 1.084.43 1.084-.43 1.843 0-.65-1.4-.759-1.723-1.843-1.292.109.108.217.215.217.538m14.417-1.291c-.326 0-.109-.323 0-.539-.867-.107-.867.539-1.301.754.325 0 .217.43.542.538 0-.43 0-.861.542-.753-.109.107.108.322.217 0m-8.021 1.507c.541-.108.541.323.758.538.76-.216.65-.108.76-.754 0 .323.975.97.975.538-.217-.43-1.084-.538-.542-.968-.542-.323-.976.646-.976 0 .542-.108.542-.646.976-.754.108.323.542.323.758.538 0-.323.868-.968.217-.968-.108.753-.433-.43-.759-.216-.325.861.868.216.542.97-.542 0-.325-.647-.975-.54-.542.754-1.518 1.723-1.735 1.616m-5.095-2.046c-.434-.107 0-.43.217-.538.542.646.542 1.077 1.3.215-1.517-.215-.216-.538-.758-1.291-1.301 2.045-3.794 1.184-.759 1.614m.434-2.045c-.109.754-.434-.43-.76-.215.326.646-.975.753-.216.969.108-.323.542-.323.759-.539-.759 1.615.867.108.217-.215m.867-.43c.216-.646 1.084.538.975-.754-.542.323-.975-.646-.975 0 .867 0-.976.646 0 .754m5.853-1.83c-.217.538-.65.645-1.3.753-.651-.108-.218-1.076-.543-.538-.542.215.434.861.76.969.65-1.292 2.167-.323 2.6-.538-.216-.108-.325-.216-.216-.539-.759.323-2.385-.43-1.301-.107m-5.853-.216c0-.107-.217-.323-.217 0 .325-.107.65.97.759.216-.434.43 2.601-1.507.975-1.292.65.108-.325.646-.542.753.325-.538.217-1.076 0-1.291-.65.43-.216 1.076-.542 1.291-.108-.322-.433-.645-.542-.215.325 0 .434.43.109.538m22.329-2.368c-.108 1.4-.976 2.045-1.518 3.014.868-.323 1.193-1.507 2.06-1.507-.542-.43-.108-.215-.542-1.507m-2.602.323c0-.43-.758-.215-.216 0 .759.538 1.3-.969 2.06-1.292-.976 0-1.085.97-1.843 1.292m-11.598-.753c.217-.323.76.215.976-.539.759.431-.65.754 0 .97.108-.539 1.409-.216 1.517 0-.108-.431.434-.647 0-.754-.542.43-1.734.107-.758-.754-.434.754-2.277-.215-1.735 1.077m-2.818 0c-.325 0-1.41-.43-.759 0 .109 0 .326 0 .217.215 0 .323-.325.43 0 .538 0-.323.325-.108.542 0 .325-.861.325 0 .542-.969-1.951-1.076-2.385-1.184-.542.216m9.322 2.045c0 .215.217.323.217.538-.867.108 0 .646-.542.754-.109-.431-.434.107-.542-.216.759-.646-.542.43-.542-.215 0-.323.433-.215.542-.538-.65.215-.542-.538-.976-.538.434.86.217 1.291.976 2.045-.217 0-.325.215-.542.215 0-.215-.867-.753-.759-.215.759-.108-.65.969.217.969.542-.323-.325-.646.217-.754.758.323.108.538.542 1.292-1.084.753-1.626-.108-1.301 2.045.325-.108 0-.969.542-.969.975.323-.108 1.077.759 1.292.108-.43 1.517-.861.758-1.292a2.12 2.12 0 0 1-.975.969c.65-1.4.325-1.292 2.06-2.26-.434-.108.108-.431-.217-.539-.109.323-.326.538-.542.754.65-1.615-.217-1.077 1.3-2.584-.216.43-.325 1.507.217.754-.542-.646.759-1.292-.542-1.83.217 0 .325-.215.542-.215.542-.216.542 1.291.759.538-.65-.215.759-1.507 0-.969 0 .323-.325.43-.542.538-.108-1.614-1.734-1.614 0-2.583-.434-.215-1.192 0-.542-.754 0 .108.217.323.217 0-.542-.538-.867 0-1.301.216-.108-.43.434-.646 0-.754-.976.538-.65.754-1.3 1.507-.434 0-.76-.108-.976-.215 0 .43-.217.646-.76.538 0 .646-.541.754.218.969.542-1.507 1.517-.538 2.601-.969-1.084 1.184.217.538.976.969-.217.753-.976.108-.976.538.325.646.976-.323.976.215-1.084.323.542 2.046-.759 1.507 0-.323.434-.215.542-.538-1.518-.43-.867-1.507-1.843-2.26.217.968-1.084 1.184 0 1.507.109-.216 0-.539.217-.539.542.862.434 1.4 1.084 1.077m8.455-4.629c.108.538-.434 1.4 0 .754.433-.754.542-.861 1.3-.538 0-1.185-.758-.539-1.3-.216m-20.27-.215c-.325 0-.217-.43-.542-.538 0 .323-.434.323-.759.215.109.538-.108.969-.542.969.325-1.077-.975.323-1.3.215.433.108.541.43.541.969.434 0 .868-.215.976-.538-.542.107-.976-.108-.976-.539 1.626-.215 3.578.431 4.12-1.291-.868-.323-.217.86-.976.538.542-.538-.108-.323-.217-.754.325-.107.542-.323.759-.538-1.41 0-.759 1.184-1.084 1.292m-.759-.861c-.65-.646-.867-.108-1.517-.754.325.538-.65.97 0 .97.108-1.185 1.084.645 1.517-.216m15.609 1.292c0-1.185.434 0 .542-1.292h-.759c-.108.646-.325.969.217 1.292m-.976-1.723c.217-.753-.541-.43-.975-.538.217 1.292-.976.646-.976.969.65.646.76-.323 1.518-.215-.542.538.108.538.217.968-.109.108-.976.646-.976 0 .217-.107.542 0 .542-.215-.433 0-.65.215-.759.538.76.43 1.301.646 1.518-.215-.217 1.292 0 1.83.217 2.26.867-.86 0-1.399-.217-2.583.325-.215 1.3-.861.759-.969-.434.215-.542.861-.976.969.325-.646-.542-1.292 0-1.292-.217.216-.108.323.108.323m-6.72-.323c.434.538.217 1.615.542 1.292 0-.43.542-1.4.217-1.83 0 .43-.542.323-.759.538m9.539-.43c.108-.538.759.323.975.538-1.192.646-1.192 1.507-2.06 1.507 1.085.538 1.627-1.184 2.277-1.83-.975-.323-.65-.323 0-.754-.325 0-.542-.107-.759-.215.434.861-1.409-.215-.433.754m-17.235.215c.325 0 .65.108.542.538h.542c0-.215.217-.323.217-.538-.759 0-.759-.323-1.301-.969 0 .646.434.43 0 .969m3.794-1.507c-.542 0-.325-.646-.976-.538-.216.43-.975 1.291 0 1.507-.108-.538.325-.538.542-.754-.217-.107-.542 0-.542-.215.542-.43.976.646.976 0m-5.095-.323c1.193-.108-.325 1.615.217.969.217 0 .325-.215.542-.215 0 .322.108.645.217.215-1.084-.538.433-1.4 0-1.83 0 .108 0 .323-.217.215 0-.107-.217-.323-.217 0 .65.108-1.626 1.077-.542.646m17.235-.43c0-.108 0-.323.217-.216-.542 1.4-.434.538.217.754-.434 1.291-1.518 1.507-1.518 2.26.65-.646 1.084-.43 1.3-.538-.541-.538.11-.323.218-.754-.217-.107-.542 0-.542-.215.325 0 .325-.323.758-.215-.325-.538.65-.969 0-.969-.108.43-.325 0-.216-.538h-.542c.108.108-.326.323.108.43m-1.3.753c0-.323-.11-.969-.218-.538 0 .323-.108.646-.541.538.216 1.292-.109.754 1.3.969.434-1.077-.217-2.476-.217-2.045.326.323.109.753-.325 1.076m-6.721.215c.65-.323 1.084.754 1.3 0h-.541c.433-.538 0-.323 0-.968.325-.539.65.323.758-.216-.758-.753-.975.754-1.517 1.184m-9.972.216c.433-.431-.109-.754-.217-1.292.325-.646.759.43.975-.215-.433-.216-1.734-.216-1.3 0 .65.215-.976 1.722.541 1.507m18.752-1.507c1.409-.108-.217 1.399 1.3 1.291 0-.43-.216-.538-.541-.215.65-.753-.542-.969 0-1.292 1.517 1.4 1.192 1.292.216-.538.109 0 .326-.215 0-.215 0 .646-.975.323-.975.969m3.035-.539c-.109 0-.325.216 0 .216.217-.754.975-.108.975-.538-.325.107-.65-.97-.758-.216.108 0 .325 0 .216.215-.65.216-1.084-1.076-1.517-.215.65 0 1.084.108 1.084.538m-7.913-1.184c0-.538 1.192-1.83.542-1.291-.217 1.184-1.192-.754-.759 0 .109.322-.325 1.291.217 1.291m9.972-1.291c-.325 0-.542-.108-.758-.216-.217.861.867.43.975.216.108.43-.434.645 0 .753.108 0 1.084-.538.542-.215-.325-.108-.759-1.4-.975-.754.216 0 .325 0 .216.216m-6.937 2.26c0-.215-.434-.323-.542 0 .759.323 1.192.108 2.06 0 0-.43-.217-.861-.542-.969-.326.216-.434.754-.976.97m.325-2.045c-.542-.108-1.409.753-.759.969 0-.323.65-.216.542.215.65.215 1.626-1.077.976-.538-.867.43-1.084.215-.759-.646m-.542-.215c.109-.861.759.968.976 0-1.626 0 .433-1.507-.217-.97-.759-.107-1.192.431-.759.97m-3.035-1.077c.65.969 2.06-.108 1.301-.538-.434.754-1.3.215-1.3.538m9.43-.43c-.758-.108.434-.431.217-.754-.325-.108-.433-.43-.758-.538-.76.538-.217 1.938.542 1.292m-9.213-1.077c-.434 0-.976.108-.976-.215.109 0 .326-.215 0-.215-.433.43.109.753.542.968.109-.645 1.084-.215 1.301-.753-.975.323-.542-.754-1.3-.538-.109.538.216.538.433.753m10.514-3.552c.65-.215 1.084.861 1.301.215-1.192-.215.434-.86-.217-.968-.108.538-1.192 0-1.084.753m-8.671 1.292c.433.323-.109 2.798.975 2.045h-.542c-.108-.861.976-2.045 0-3.014.217 0 .325-.215.542-.215.325.107.434.322.542.538-.217.108-.542 0-.542.215h.759c.108-1.184-1.084-1.076-1.3-1.292 0-.215.216-.322.216-.538-1.192.323.542 1.83-.65 2.26m-2.602-2.045c.65 0 .759.43 1.301.538-.108-.43.325-.538.217-.97-1.084-.214.217.54-.542.54-.434-.108-.65-1.723-.976-.97.217 0 .217.43 0 .861m11.598-1.077c-.108 0-.325.215 0 .215 0-.323.326-.107.542 0 .217-.753-.867-.323-.541-1.291h-.76c0 .323-.108.538-.216.753.217.754.65-.323.975.323m-8.02.538c.325 0 .325-.323.758-.215.108.215 0 .538.217.538v-.753c-1.518.107-1.626-2.045-1.843-1.507-.108.86 1.3 1.507.867 1.937m8.454-2.798c-.759-.216-.434.538-.542.968 1.084 0 .542-.323 1.843-.538v-1.292c-.434 0-.976-.107-.976.216.434 0 .867 0 .759.538-.108.323-.542.323-.759.538.217-.969-.975-1.507-.325-.43m-13.875-.216c.109-.215 0-.538.217-.538 0 .108.217.323.217 0-.433-.323-.65-.323-.975 0 0-.43-.217-.646-.542-.753.108.753.65.86 1.083 1.291m-.433 3.768h-.759c-.108.538.65 1.291.759.753-.217 0 .542-2.26-.542-1.507.325.108.217.539.542.754m-2.385 1.83c-.108.538-.433.538-.759.215.109.861.542 1.076 1.301.753.109-.538-.108-.968-.542-.968m-.217-.323c.76-.215.543.753 1.301.538.325-.215.867-.43.759-.969-.867-.215-.325.861-.976.754.542-1.184-.216-.323-.541-.754.216-.108 1.517-.969.758-.538-.975-.215-1.084-.108-1.3-.753-.868 0-.868.86-1.518.968.325 0 .542.108.759.215 0-.538.216-.86.758-.753.326.43.326.969 0 1.292m-3.902 4.844c-.325.968-1.409-.216-1.517.753.325.43.759.646.759 1.292-.326 0-.542-.43-.76 0 .218.107.326.215.218.538.867.108.758-.753 1.3-.969-.216.861.867.323.976.754-.325-.754.433-.646.542-.969-.325 0-.542-.108-.759-.215 0 .323 0 .753-.217.753-.216-1.076-.433-2.153-.542-1.937m1.301-3.23c.434.108.65-.43.759 0-.759.754-.434.216-1.3.97.975.107-.977.43 0 .537.324-.107.433-.43.758-.538-.325.969.542.861.759 1.292-.76-.323-1.41-.754-1.843-.215.325.538.65-.323.759.215.108.753-1.41-.215-1.301.538.759.646 1.084 1.507 2.06.969-.434 0-.651-.215-.543-.754.65 0 .542-.43.976 0 0-.43-.108-.968.217-.968.108.215 0 .538.217.538.216-.323.65-.538.758-.969-.975-.108-1.3-.861-1.842-.753.758-1.184 1.3-2.261 1.517-3.014-.325.645-1.084 1.506-1.951 2.152m-.217-1.614c0 .323-.433.215-.542.538.109 0 .325 0 .217.215-.217 0-.325-.215-.542-.215-.217.753.542.43.976.538.108-.646.65-.861-.109-1.076m4.336-6.566c-1.41.107-.65.645-.976 1.83 0-.108.217-.323.217 0-.325.107-.433.43-.759.538.109-.43-.325-.646-.541-.216.325 0 .325.431.216.754h-.758c-.217 1.076.541-.215.541.538-.325 0-.325.323-.758.215-.65-.323.542-.86-.542-.753.325 1.076.542.861.542 2.26-.65.216-.867.216-1.301.539.759.107-.434.43-.217.753 1.084.538.759.215.759.969.434-.538.65-.646.759-.969 0 .108 0 .323.217.215.433-.86-.868-.107-.76-.753.218-.861 1.41-.538.76-1.507.541.538.65.108.975-.215.65.323.108.538.542.753.108-.323.325-.538.542-.753.217.323.65.538.976.753-.217-1.076-.109-.753 0-2.045-.326 0-.76 0-.76-.215.11 0 .326-.216 0-.216-.108.323-.324.539-.758.539-.217.753 0 1.076-.217 1.291-.217-.43-.867-.968 0-.538.109-.538-.325-.538-.542-.753 1.084-.108 1.084-.862 2.277-1.83 0 .107.216.323.216 0-.433-.754-1.3.645-1.517 0 .433-.323 1.409-1.077.867-1.184m8.455 0c.65-.754.108.323.542.215 0-.215.433-.323.542 0-.109 0-.325.215 0 .215.217-.753.975-.107.975-.538-.325-.108-.433-.43-.758-.538-.217.646-1.952-.323-1.301.646m-2.818-1.077c.108.969.758.323-.217 1.292.325 0 .542.108.759.215 0-.323.108-.646.541-.538.109-.646-.758-1.507-1.084-.969m9.538.538c.109-.215.65-.968-.217-.753-.108.753 0 2.583.76 1.507-.76-.861.541-1.292.975-1.292 0-.323-.109-.646-.217-.215-.325.107-.759.323-1.3.753m2.277-3.552c.758-.215.433 1.507 1.842.969-.433-.108-.542-.43-.542-.969-.758 0-1.734-.861-1.3 0m-3.794-.753c-.325-.108-.434-.43-.759-.539.217.754-1.517 1.615-.759 1.292.976-.43.542.646.976.754.758-.43-.434-1.292.217-1.507 0 .107.216.215.325 0m-2.818-1.292c-1.301 0-1.301.646-2.06.753.759.646-.108 1.292.759 1.83.542-.538 0-1.184-.217-1.507.542-.753 1.084-.107 1.517-1.076m-5.745 1.292c.541-.646-.109.323-.217.538.325 0 .542.43.759 0-.217-.108-.542 0-.542-.215.867.215.975-.97.216-.97.217.216-.867.431-.216.647m14.741.215c-.65.108-.65.646 0 .753.109-.215 0-.538.217-.538-.217-.969-1.084-1.184-1.3-2.045v.969c.65 0 .65.646 1.083.86m3.794-.969c-.542-.107-.217-.969-.759-.969-1.084.97.65.323-.542 1.292.867-.323 1.084-.108 1.301-.323M40.394 45.641c.65.322-.217.753-.76 1.83 0-.323.326-.323.218-.754-.542-.215-1.626.215-.76.538 0-.108 0-.323.218-.215 0 .43.108.753.216.969-.542.215-.867-.754-.758.215.542-.108.975.108.975.538-.217.323-.217.969-.759.969 0-1.077-.975.215-1.3-.538.325.323.325.646-.217.753-.108-.215 0-.538-.217-.538.108.43.108 1.076.542 1.292-.217-.646.867-1.184.976-.539-.434.216-1.193 0-.542.754.216-.646.867-.538 1.3-.215-.867 1.507-.758.968-.975.538.217.646-.542.538-.542.969.867-.216 1.409 1.184 1.843.538-.217-.43-.868-.43-.76-.969 1.735-1.076.218.323 1.843-.215-.433.43.326.753-.541.969.216-.861-.542-.431-.542 0 .758.107.975.322 1.3 0-.65-.216.759-.539 0-.97.65-.107.976-.43.976.539-.325-.108-.542-.43-.542.215.759-.43 1.084.97 1.3.216-.433-.108 0-.323 0-.754-.541-.108-.867-.538-1.3-.753-.108.322-.542.322-.759.538-.433-1.077-1.084-.323-.975-1.507.975-.215 1.626-.108.758.538.65-.323.76.108.976-.215-.325-.538 0-.216-.542-.538 1.3-.108.65-2.476 1.843-1.292 0-.861-.326-1.615-.76-.754 0-.323-.324-.323-.216-.753h1.3v-.538c-.324 0-.541-.431-.758 0 .108 0 .325 0 .217.215-.542-.43-.325 0-.976 0-.108-.646-.759-1.83-1.3-1.076m.541-3.122c.434 1.076-1.3 1.4-.975 2.045.108-.861 1.084.43.975-.215-.867-.43 1.301-1.507 0-1.83m1.518-1.507c-.325.108-.65-.969-.759-.215 1.084 1.076-1.409-.323-.542.215.65.43.325.323.217 1.292 1.192.215-.325-.646.542-.754 0 .215.217.323.217.538-.325.754-.759 1.4-1.3 2.045.758.216-.11.862-.218.97.65.322 1.084-.754 1.301 0-.867.322 0 .645.217 1.291.325-.646.108-.646 0-1.507 2.276.969 1.734-3.767.542-2.045 0-.215-.217-.323-.217-.538 0-.431.217-.862.542-.97 1.3-.645.867 1.723 1.3.97-.65-1.077.434-1.507.218-1.83-.326.43-1.626.968-1.843 0 1.084-.323 1.734-1.077 1.843-1.83-.109.538 1.192.86 1.3.215-.217-.108-.542 0-.542-.215.217 0 .325-.43 0-.538 0 .43-.217.645-.542.753 0-.215-.216-.323-.216-.538.325-.969.65-.323 1.3-.969.109-.753-.433-.861-.217-1.83 1.41-1.292.109 0 1.843 0-.325-1.076-.975-.969-1.843-.538 0-.215-.216-.323-.216-.538.758.43 1.192-.646.542-.754-.109.538-1.193.108-.976.754.759.107.434.753 0 .968-.975.216.217-1.614-.542-.968.108.538-.325.538-.542.753.542.43.65.215 1.518.969-.542-.108-.542.323-.76.538-.541.108-.541-.323-.758-.538v.753c.867.216 1.3-.645 1.518.216-.867-.216-.542.646-.976.753-.217-.538.759-.86-.217-.753.326 1.076-.867.646-.975 1.291.65.108 1.084.216 1.3.754-1.083-.754-.216.538-1.3.753.433-.43.65-.86 0-1.291-.217.968 0 .323-.759.753.976.646-1.41-.323-.542.215.217.431 1.084 1.185.542 1.4m-5.962-8.934c.542-.323-.433 1.614.217.753-.433-1.076 1.3.215.542-.538-.217-.108-.325-.215-.217-.538.325 0 .542.43.759 0-.325-.323-1.084-.108-1.3.323m8.022.753c.325.108.541.323.758.538-.867-.215-.433.538 0 .538.434-1.076.109-2.798.217-3.014-.108.431-.434-.107-.542.216.65.323-.433 1.076-.433 1.722m-4.661-.969c.108-.969-.542-1.184-.976-1.507 0 .861-.542 1.4.217 1.83.433-.646-.109-1.076.217-1.292.433.108.108.862.541.97m-10.515-1.291c.325.107.434.322.542.538-.108 0-.325 0-.217.215.326 0 .542-.108.76-.215 0 .107.216.323.216 0-.108 0-.325 0-.217-.216.109 0 .325 0 .217-.215-.325 0-.759 0-.759-.215.109 0 .325-.215 0-.215 0 .107-.433 0-.542.322m15.176.968c.433-.43-.109-1.614-.76-1.83.218.43-.758.861 0 .97 0-.324.326-.431.543-.54-.217.862-.434 1.077.217 1.4m9.538-3.552c-.433 0-.65.215-.759.538.542.108.542.43.217.754.542-.323.976.646.976 0-.759.107.65-.969-.217-.969.217.861-.867.43-.759 0 .434 0 .867-.215.976-.538-.325 0-1.41-.43-.759 0 .217 0 .325 0 .325.215m-15.5 1.507c.217-.753.433.538.759.538.216-.968 1.192-.323 1.517-.753-.542.107-.542-.323-.759-.538-.325.86-.65 0-.975.753-.109-.323-.434-.43-.542-.753.542.538.867-.216 1.3.215-.108-.538.326-.538.543-.754-1.084.323-.76-.538-1.843.216.108-.539.433-.97-.217-1.292 0 .323-.434.215-.542.538 1.3.43.325 1.615.759 1.83m3.36-2.26c.542-.108 1.192.968 1.3.538 0-.215-.216-.323-.216-.538.325 0 .976-.108.542-.216-.434-.215-.867.754-.976 0 .109 0 .326-.215 0-.215-.108.215-.542.108-.65.43m11.273-3.014c0 .43.108.753.217.968.433.108.65-.43.759 0-.109 0-.325 0-.217.216 1.3-.646-.542-.43-.759-1.184m-11.815.753c-.108 0-.325 0-.217.215h.542c.109 0 .325 0 .217-.215-.65 0-.325-.969-.976-.969 0 .323-.108.538-.216.754.216 0 .65-.108.65.215m9.539-1.615v.754c.975.323.759-.646 1.517-.538-.216-.754-.216-.539 0-1.292h-.542c-.108 0-.325 0-.216.215 1.192.754-.434.43-.217 1.292 0-.323-.325-.323-.217-.754-.65.108-1.192.323-1.517.754-.326-.215-.109-.969-.76-.754-.433.431.11.97.76.97.325-.108.65-.431 1.192-.647m-4.878 7.428c1.192.538-.434.215-.217.969.65 0 1.084-.108 1.301-.539-.542.216-.867-1.076-1.084-.43m1.518-1.723c-.109.216 0 .539-.217.539 0-.108 0-.323-.217-.216.759 1.077 1.843 3.122 0 1.507.542 1.077-.759 1.4-1.3 1.507-.11.646.324.862.975.754.325-1.184.975-1.615 2.06-1.292.216-.969-1.085-.753-.217-1.507-.326 0-.76 0-.76-.215.326.108 1.627 0 .76-.215-1.626.215-.434-.108-1.084-.861m1.842-2.045c-.433.861.867.108.759.754-.434.215-.65.86-.217 1.292-.975.43-.433-.108-1.3-.216 0 .323-.109.538-.217.754.975.107 1.734-.108 2.276 0-.325-.108-.542-.323-.542-.754.325.108 1.3 1.077.759.538-.217-.86-.867-.43-.976-.753.109-.323.325-.538.542-.754.217.754.65-.323.976.216 0-1.507 1.3-.97 1.517-.97-.433-.107 0-.322 0-.753-1.192.216-1.517 1.292-2.601 1.507 0-.753 1.843-.86.975-1.507-1.084.539-.65 1.292-1.95.646m-1.3-4.09c-.434.538-1.735-.861-.76.215-.433 0-.758-.108-.975-.215.109.43-.433.646 0 .753.542-.968-.108 1.184.542.97 0-.431.217-.647.542-.754-.325 1.076.65.86-.542 1.507.65-.216 1.193.86.542.968-.108-.215-.217.323-.759.216.217.107 1.084.646.542.753-.975-.43-.975-.107-1.95-.107-.218-.431-1.301-1.4-1.518-.97.542.108.542.431.217.754 1.084 0 1.626.43 2.276 1.292.325-.538 1.409-.538 1.3-1.507.109.43.326 0 0-.215h.976c-.325.538.434 1.184.542.538-.325-.108-.325-.538-.542-.754.65-.323 1.734-.86.759-1.291.542-.216 1.192-.216 2.06.215.216.861-1.735.753-.976 1.292.108-.43.542-.216.759 0 .542-.754.325-.861.975-1.507-.325 0-.759 0-.759-.216.109 0 .326-.215 0-.215-.758.323-1.626-.215-2.601-.215-.217.753 0 1.076-.217 1.292-1.192-.754.325-1.938 0-2.8 0 .324-1.734-1.075-2.06-.537.543.107 1.41 0 1.627.538m-4.661.215c.65.43 1.084-.108 1.842.215v-.968c-.65.215-1.734-.97-1.3-.216 1.192.323-.109.646-.542.97m-9.756-.538c.65 0 1.3 0 1.3-.538-1.408.753-.541-.861-1.842-.215.542 0 .65.322.542.753m20.812-.215c0 .107 0 .323.217.215.108-.538.542-.646.758-.969a1.3 1.3 0 0 1-.758-.753c.216 0 .325-.43 0-.538-.434 1.076.108 1.83-.217 2.045m-2.06-2.26c.217 1.183 1.084.645 1.843.968-.217-.43-.434-2.26-.976-1.507.542.646-.216.215-.867.538m-8.671.215c.542 0 1.3-1.077.759-1.292 0 .86-.868-.538-.76.215.651.108 0 .969 0 1.076m12.574-1.292c-.434.107-.868-.969-.217-.969.108.215 0 .538.217.538-.109-.43.433-.646 0-.753-.217.43-1.193-.216-1.301.215.65-.108.65 1.83 1.3.969m-12.574-2.046c1.192-.215.217.431.759.539.325.323 1.192-.538 1.517.215-.867.323 0 .646-.759.969.325.107.434.43.759.538.65-.323-.325-.969.217-.969.217.646 1.3 0 1.517-.215-.325-.538-.65.323-.758-.215.216-.108 1.517-.538.758-.754-.542.323-.758.108-1.517.538-.434-.322-1.41-1.614-.759-.215-.867.215-.867-.538-1.3-.753.433.107.866-.97.216-.97.108.539-.434.754-.65 1.293m2.818-2.26c.108-.43.325 0 .759 0 .325-.754.108-1.184-.759-1.292.217 1.4-1.084-.969-.542 0 .217.754.434.97.542 1.292m-3.36-1.292c.433.538.758.216.975.538-.65.431-.216.431-.542.97 1.41 0-.65.43.217.538.325-.108.542-.323.976-.216 0 1.507 1.084.43 1.517 1.292-1.084-1.4-1.626-.538-2.06-3.014-.325-.646-.758.43-.975-.215.434 0 .217-.754 0-.216.109.108-.108.108-.108.323m9.755 2.26c1.518.216 2.168.431 1.518 1.83.108-.322.325-.107.542 0 .108-.215 0-.538.217-.538-.109.431.325.646.542.216-.65-.754-.868-1.4-.976-2.045.867 0 1.192-.539 1.843-.754-.325-.107-.325-.538-.542-.753.325.107 1.3 1.076.759.538-.434-.538-.65-.969-.76-1.292-.433.646-2.167 1.4-.975 2.045-.975.216-1.517 1.077-1.517.216-.109.43-.542.322-.65.538m-1.3 6.137c-.217-.108-.542 0-.542-.216.975.216 1.084-.43 1.517-.753-.867.43-.108-.861-.759-.754-.433.323-1.626 2.26-.216 1.723m-.976-1.292c-.867.323-1.3.646-1.3 0-.651.753.65 1.292.975 1.83-.867-.323-.759.107-1.3.215.541.538 1.625.108 1.517-.753-.326-.108-.542-.323-.76-.539.326-.107.434-.323.76 0 0-.323 0-.753.216-.753 0 .107 0 .323.217.215 0-.646-.542-.646-.759-.969-.325.646.217.323.434.754m.434-2.476c.216-1.184-1.084-.323-.217-1.507-1.41-.108-.325 1.292.217 1.507m-.434-4.09c-.759.538.65 1.076.759.215.975.215.433 1.722-.217 1.83.217-1.507-1.192 0-1.3-.969-.11.323-.326.538-.543.753-.108-.322-.433-.645-.542-.215 1.41.538.542.646 2.06.538.325.646-.109.754.217.97.542-.324.216 0 .542-.539.975.323-.326.969.975.538.325 1.723-2.385 1.615-2.818 1.83.975.43-.542.43-.542.754 1.626.322 1.517-.431 2.601-.97 0 .324.76 1.293.976.539-.759-.538.217-1.184-.217-1.83.217 0 .325-.215.542-.215 0 .323-.325.43 0 .538 0-.108 0-.323.217-.215v-.538c-.325-.108-1.3.323-1.3-.216.541-.215.65-1.184.541-1.507-.108.323-.325.43-.542.538.542-.753-.65-1.614-.759-2.583.217 1.184-1.626.215-.975.753.217-.322.325-.215.325 0m2.06.43c-.326-1.4.433-.861-.542-1.83.541.216 1.625-.215.758-.538-.108.646-.433-.323-.975 0 .108 1.507.108 1.507.542 2.583.758-.322 1.084 0 1.842.216.326-.754.109-.862-.216-1.507-1.084-.108-.76 1.076-1.41 1.076m.975-1.184c.542-.108.759 1.4.976.753-.867-.968 1.409-1.614.542-2.583.867-.107 1.3 0 1.517-.215-.542-.216-1.843-.108-2.276 0 .433.969-.65.538-.976 1.507.65.323.759-.969.976-.216-.325.108-.542.323-.759.754m-3.035-1.83c-.108 0-.325.215 0 .215.759-.646 1.41.754 1.843 0-.976-.538-1.41-.215-.976-2.045-.325-.107-1.3-1.076-.759-.538 0 .753-.433 1.4-.108 2.368m-3.577.754c.108-.431-.325-.646-.542-.216.759.108-1.518 1.292-.542.754.976.215 1.41-.216 1.843-.538 0 1.399.867 1.937-.217 2.583 1.192.215 1.084-.969 1.3-1.83-.325-.107-.541-.323-.758-.538.434-.108-.108-.43.217-.538.325.107.433.43.758.538.109-.969-.758-.754-.758-1.507.542-.323.975.646.975 0-.758-.215 0-1.184.217-1.292-.759-.753-.65.43-1.3.538.541-.538 0-1.076-.543-1.291.217 1.076.76 2.906-.65 3.337m4.553-2.26c.975-.109 1.734.43.541 1.29.326.108 1.301-.322 1.301.216 0 .108 0 .323.217.215-.217-1.291 0-.646-.759-.968.325-.108.325-.539.542-.754-1.084.108-1.192-1.83-1.3-1.292-.217.862.108.754-.542 1.292m7.262-.54c.434 0 1.517-1.183.759-.753 0 .108 0 .323-.217.216-.542 0-1.084-1.077-1.3-.539.433.108 0 1.185.758 1.077m-3.902.216c.433.215.65.754 1.517.538.217-.645-.542-.538-.542-.968 1.951-.862 1.084-.431 0-.97.109 1.4-.65-.645-.758.216.867.323-.542.538-.217 1.184M46.03 7.535c.217.861-.542.43-.759.215.109.43-.433.646 0 .754 0-.323.759-.323.759 0-.542-.108-.542.323-.759.538 0-.43-.758-.215-.217 0 .65.538.868-.215 1.301.538 0-.753.867-.538.976 0-1.301-.107-1.301 1.077-2.06 1.507 0-.323.109-.538.217-.753-.975-.216-.217 1.291-.975.538.216 1.184-.868-.43-.976.538.217.108.542 0 .542.215-.434.108 0 .431.217.539-.109-1.077 1.3-.323 1.3 0 .326-1.507 3.144-2.584 1.518-3.876.325 0 .65-.107.217-.215-.434-.107-.759 1.184-.976.538.109-.215.325-.86-.325-1.076m-.759-.969c-.217.538-1.409.108-1.517.754.217 0 2.384.107 1.517-.754M30.313 34.338c-.759-.108-.65-1.076-1.3-1.292 0 .216-1.085.538-.218.754.65-1.077.759 1.83 1.518.538M42.453 7.32c.542 0 .976-1.4 1.3-.754-.108 0-.324.215 0 .215.218-.43.326-.753 0-.968-1.083.646-1.3 1.722-1.842 2.26.108-.538-.108-.969-.542-.969-.108.431.325.539.217.97-.325.537-1.41-.431-.759.537-.325-.645-1.517.646-.975.754 0-.215.867-.754.758-.215-.65.107.65.538.542.968-.867-.43-1.842.216-1.3 0 .542.216.542.754.975 1.507-.325-.646-1.951-.107-2.06-.968.651.968.543-1.4.217-.754-.108 1.184-.108-.323-.758 0 .65.754-.434 1.292 0 1.507.108-.538 1.192-.107.975.538-.325 0-.433-.323-.542 0 .109.43.759.43.976.754-.325 0-.65.107-.217.215.542-.107.976-1.292 1.3-.215a3.7 3.7 0 0 0-1.3 1.291c.867-.215.542-.215.976.216.65-.323-.326-.969.216-.969 0 .323.434.215.542.538 0 .323-.433.215-.542.538.217 0 .325.431 0 .539-.542-1.292-1.192.43-1.517.215-.325-.108.433-2.26-1.518-2.26 0 .86 1.084.43.976 1.291-.434.43-.867-.215-1.3.538.433 0 .108.754.541.754 0-.43-.108-.969.217-.969-.217.754.433.754.217 1.507-.109 0-.326.215 0 .215 0-.323.325-.43.542-.538.108.323.433.43.542.754-.976-.754-.542.43-.76.538-.65-.323-1.517.538-1.517 0 .325-.646.542-.108.759-.538-.867-.216-.108-1.938-1.3-1.83-.326 1.291.433.646.758 1.83-.867 0-1.084-.538-1.517.215.65.323.758-.108.975.215-.65.538.867.969-.217 1.292.109-.323-.758-.861-.758-.215.433 0 1.409 1.291.216 1.291.434-.43-.108-.753-.542-.968-.542.753-.542.86.217.215.217 1.722.434.861 1.3 1.507-.216-1.077.543-1.615.543-2.584.325 1.615-.108 2.261-.976 3.553-.433-.216.217-1.077-.216-.538 0 .538-.76.968.216 1.291-1.409-.107-.108.538-.216 1.292-.326 0-.326.323-.76.215-.216-1.291-.324-2.26.218-3.337-.434.215-.868-.753-.976 0 1.192.215-.325.43-.217.538.217.323.976.108.759.754-.325-.646-.759.43-.976-.215.109 0 .326-.216 0-.216-.433.539.109.431 0 1.292.542-.107.976.108.976.538-.759 0-.325 1.184-.759 1.507.325.216.759.43.976.754-.434 0 .542 1.291-.542 1.291a1.3 1.3 0 0 0-.759-.753c0 .753.759.753.542 1.83-.759.43-1.192-.538-1.843-.538.325 0 .217-.43.542-.539 0 .431.867.108.976.539-.109-1.077-.867-.323-1.3-.754-.11.323-.326.538-.543.754-.65-.323.542-.861-.542-.754 1.084 2.045-.108 2.907 0 3.875.109-.645 1.626-1.614.542-2.798.542.43 1.41.538 1.843.968-.65-.107-.542.431-1.3.216.65.753.975 1.937.541 2.583-.217-.538-.759-.538-.976-.969-.433 1.938-.108 1.4.217.754.109.538.65.538.759.969-.434.215-.759.86-1.3.215 0 .323.108.538.216.753h.542c0-.43.217-.645.542-.753-.217 1.076-.867 2.368-2.06 1.292 1.084.107 0-.323.217-.97-.433.108-.65-.43-.758 0 0 .647 1.084 1.4.541 2.584-.541-.107-.541-.646-.975-.753-.434.215-.759.86 0 .969.108-.216 0-.539.217-.539 0 .323.433.216.542.539-.65.215.542.753.216 1.507-1.3.753-.433-.108-.541-.216-.109-.215-.65 0-.76-.215.11.108.543-1.184 0-.538-.433.43-.866 1.076-1.3 1.507.325 0 .217.43.542.538.108-.323.542-.323.759-.538-.109.323.325 1.291-.217 1.291-.759 0-1.41-.86-1.843 0 .867.216.976 1.292 1.518 1.83-.217 0-.325.216-.542.216-.108-1.184-1.41-.216-.759-.539.434.216.542.646.217.97.975.322.867-.539 1.3-.754.109.323.326.43 0 .753.651-.323.76.108.976-.215.217-.43-1.084-2.583.217-1.292 0-.86-.65-1.291.542-1.507-.109.43-.65 1.4.217 1.83-.542-1.4.433-.215.758-.753-1.192-.216-.216-1.507-.975-1.83 1.084.107 0-.323.217-.969.542-.108 1.084-.108.975-.753-.433-.108-.65.43-.758 0 .325 0 .216-.431.541-.539.326.861.109-.753.76-.215.324.969-1.41 2.045-.218 1.507-.325.538-1.192 1.292-.216 1.83-.109-.861 0-1.615.975-1.292.109-.107.65-1.184 0-1.291-.433 1.937 0 .322-.217-.539-.325-1.184-.433-.107 0-.538.976-1.076-.541-1.292.976-.969-.217.538 0 1.184.542 1.292-.759-1.507.108-2.799-.976-3.552 1.084 0 1.193-.108.542-.538.76-.216 1.084-.216 1.843 0-.108-.646-.217-1.077-.759-1.292-.108.323-.325.538-.542.753-.216-.753-.758-1.076 0-1.83 0 .431-.108.97.217.97.434-.216.542-.862.976-.97-.434.539.216.539-.217.97.65-.324.759.107.975-.216-.433-.43-.758-1.507.217-1.507 0-.754-.65-.861-.759-1.507.542.108.542-.323.76-.538 0 .323.108.538.216.753-.217 0-.325-.215-.542-.215.325 1.615.542-.215 1.3-.215.11-.43-.324-.539-.216-.97.434-.107 1.734-.645.976-.968.433.215-.217-.646-.434-.861.759.108.65-.646 1.3-.753 0 .645.434.538 0 .968.976-.107 1.193-.86 1.518-1.507-.65 0-.759-.43-.975-.753.65.646 1.409.215 2.06 1.292h-.976c.216.43-.76.86 0 .968.108-.43.542-.215.758 0-.216-.753 1.084-1.291.542-1.507-.108.43-1.084-.43-1.3-.753.758.107.65-.646 1.3-.754-.542.538.326.538.542.969.217-1.292-.542-2.476-.542-2.799 0 .43-.216.539-.542.216-.108.753.65.645.76 1.291-.868.43-1.085-.107-1.518-.753.542-.215.65-.646.758-1.292-1.734 0 .434-2.368-.758-2.583.433-.539.65-1.292 1.3-1.507.109-.646-.433-.539-.216-1.292-.868-.323-.217.861-.976.538l-.759-.753c1.41.43.65-.646 2.06-.216v.754c.325 0 .758 0 .758-.215-.65.107-.65-.539-.758-.97 3.468.108.542-4.95-.217-3.013-.325-.43-.434-.646-.542-.861m-4.119.753h-.759c-.759 1.507.867 1.507.759 0m-4.336 8.181c.434.43.976-.323.976.753.433 0 .975.108.975-.215-.325 0-.758 0-.758-.215.108 0 .325-.215 0-.215 0 .107 0 .323-.217.215-.109-.43.433-.646 0-.754 0 .108 0 .323-.217.216 0-.323-.108-.646-.542-.539 0 .323-.108.539-.217.754m-5.961 13.025c.758.215 1.409-.969.975-.969-.108.43-1.192 0-.976.969m.541.538c0 .969-.541.753-.758.969.542-.216.542 1.291.758.538-.65-.646.434-.646.543-1.292-.217-.107-.326-.215-.217-.538-1.626-.215-.867 1.4-.326.323m1.518 3.014c-.867 0 .542-.861-.217-.754-.433 0-1.95.108-2.601.754.867.753 1.734.215 2.276-.538-.108.43.542 1.184.542.538m-3.577.753c1.084-.86.108 1.723.976.754-.542-.215.541-1.184-.542-1.507.325.538-1.193.538-.434.753m-3.577 14.317c-.434-.108 0-.323 0-.754-.434-.107-.976-1.399-1.518-.538 1.301.108 0 1.292 0 1.83 1.193-.969.868-.753 1.518-.538M6.249 93.111c-.759-.215.325-.646-.217-.969.217-.108.542 0 .542-.215-.433 0-.758.107-.975.215.325.646-.542 1.292 0 1.292.108-.215.217-.323.542-.215-.217 0 0 .107.108-.108m35.445-26.803q-.162 1.13-1.3 1.292c0-.323 0-.754-.217-.754-.109.43-.434-.108-.542.215.65.108-.325.43 0 .97.975-.862 1.084.645 2.276-.216-.108-.43.325-1.507-.217-1.507m8.997-22.282c-.434-.108-.65-.43-.976-.538.109.43-.433.645 0 .753.65-.646-.433.861.542.754.109-.216 0-.539.217-.539 0 .431.759.216.217 0-.108 0-.325 0-.217-.215.109.108.217.108.217-.215m2.818-3.552c-.758-.646-.433 1.076 0 .753-.217 0-.325.215-.542.215-.216-.753-.433-.322-.758 0 .108-.86-.434-1.076-.76-1.507-.433.862.218.646.218 1.507-.976.108-2.06-.86-1.843 0 .217 0 .325-.215.542-.215.759.861.108 1.507.217 2.045 1.084-.753 1.192-.538 1.517.754-.433.538-.217.646-1.517 1.507.975.323 1.409-1.184 1.842-.538-.65.323-.975.968-1.842.968-.326-.107-.542-.322-.76-.538.218.323-.216-1.076-.758-.753.108 0 .325 0 .217.215-.325 0-.759 0-.759.215.325.108.434.323.759 0-.108.539.325.539.542.754-.217 0-.325.215-.542.215-.325 0-.542-.108-.759-.215 0 .753.976.646.217 1.291.325 0 .542-.107.759-.215 0 .323.108.538.216.754-.758.107-.758.86-1.842.753 0 .323 0 .754-.217.754-.108-.216 0-.538-.217-.538 0 .968.65 1.184.759 2.045-.434 0-.759-.108-.976-.216 0 .323-.108.539-.216.754 1.192.215-.326.43-.217.538.542.43.65 0 1.3 0-.108-.969.543-1.184.976-1.507 0 .215.217.323.217.538-.217 0-.759.861-.217.754 0-.108.217-.323.217 0-.867.323-2.168 1.184-.759 1.507-1.192.108-1.626.215-2.276 0 .108 0 .325-.215 0-.215-.217.322-.542 1.83-.217 1.83.325-1.077 1.518-.216 1.843-.97-.217.97.325 1.938.217 2.8 0-.97.975 0 .975-.539q-.487-.645-.975-.969c2.059.754 1.517-.107 2.059-.968.325.645.325 2.583.217 1.291h.759c.108-1.184-1.193-.86-.976-2.045-.434 0-.976-.108-.976.215.326 0 .326.431.217.754-.542.43-.542-.215-.975.215 0-.215.217-.323.217-.538-.434 0-.65-.215-.76-.538.976-.323.651.753 1.301.753.109-.646-.433-.538-.216-1.291 1.3 0 1.3-.431 2.601-.754-.433 1.507 2.276.861.217.538.217-1.076-.65-.968-.976-1.507.65 0 .542.43.976 0-.434.754.976 1.184.217.754-.217-.861.325-1.077.542-1.507-.867-.323-.217.86-.976.538-.108-.754.542-.969 0-1.507.65.323 1.193-1.184.759-.538-.325 0-.542.43-.759 0 .542-.215 1.193-.538 1.3-1.292-.758-.215-.975.215-1.191-.215.975-.646 2.818 1.291 2.601.753-.759-.43-.867-1.4-1.3-2.045 0 .215-.434.323-.543 0 .76-.323 1.301.323 1.843-.538-.434-.108-.65.43-.759 0 .976-.215.434-.861.759-1.292.867.538 0 1.292.759 1.83 0-.43-.109-.969.217-.969 0 .108.216.323.216 0-.325-.215-.758-.43-.975-.753.325 0 .217-.43.542-.538s.65.968.759.215c-.65-.646-.434-2.153-1.843-2.799-.108.215 0 .538-.217.538-.108-1.076 1.951-.538.759-1.507.325-.323 1.3-.43 1.3.216-.325.107-.541.323-.541.753.325 0 .216.43.542.538-.542-1.399.108-.538.541-.753-.65-.43-.325-1.077-.975-1.83.542.323.976 1.184 1.518.215-1.626-.323-1.843-1.184-3.36-1.291 0 .322.108.538.216.753-.217.108-.542 0-.542.215.65.323 1.084-.753 1.3 0-.324 0-.216.43-.541.538.108-.107-1.734-.322-.976 0 .325.216.542.431.542.862m-.542-10.442c.109.646.65.861 1.301.97-.108-.431 1.192-.754.542-.97-.542.754-.434-.107-1.843 0m2.602-3.552c.325-.538 1.3-.215.758-.538-1.3-.108-.65.215-1.517 1.507.867.43.867.538.976 0 .325.107.541.323.541.753-.433 0-.541.216-.216.539-.325.107-.65-.97-.759-.216.108.43.759.43.976.754-1.41.646-.868 1.507-2.06 2.26.217.754 0 1.077.217 1.292.325-.43 1.3-.323 1.517-.754-.433 1.4.109.862 0 2.046 0-.323.76-.323.76 0-.543.43-1.41-.108-2.06.215.65.646 0 1.184.758 1.507.109-.646.326-1.184.976-1.292 0 .754.867 1.184.217 1.83.217.108.542 0 .542.215-.976.323-.434-.968-1.301-.753 0 .646.108 1.507-.542 1.507-.542-.753-.217-1.83-1.3-2.583-.218.753-.326.86.216 1.291-.217 0-.325.216-.542.216-.434 0-.759-.108-.975-.216-.217.861-.868.43-.976.754.217 0 .325.43 0 .538-.108-.43-.325 0 0 .215-.65.323-1.518-.538-1.518 0 .542-.323-.433 1.615.217.754.542-1.184 1.735.107 1.518.753.542-.43.108-.968 0-1.507 1.084-.323.867-.215 1.517-.968.325 1.614.759.645 1.518 2.045.759-.108.759-.861 1.3-.97-.433-.107-.65.431-.758 0 .542-.107.867-.537 1.3-.753-.541.646 1.084 1.4.542 1.292 0-.861 0-.861.542-2.045-.758-.108-.758-.754-.975-1.292.65-.107.433-.86 1.3-1.291-.758 0 .217-1.615-.541-1.508-.65 1.077 0-.538-.976.539 0-.216-.217-.323-.217-.538.326-.216.76-.431.976-.754-.65-.215-.542-.861-.217-1.292 1.084.108-.217 1.507.759.754-.434-1.292-.65-1.292-1.3-2.26 1.191.107.216-.647.541-.97-.108.323-.542.323-.759.539.76-.43-.433-1.077.217-1.292.217.861.976.969 1.518.969.65.753-.542.969 0 1.292.325-.323 1.192-.646 1.517-.216.759-.43-.65-.753 0-.969-.108.323.759.862.759.216-.108-.108-.542-.97 0-1.292.867.108-.434 1.4.217 1.292.217-.43.975-.43.975-.97-.325 0-.65-.107-.216-.214.108 0 .325-.216 0-.216-.326 0-.326.323-.76.216 0-.216-.216-.323-.216-.539.434 0 .867-.215.976-.538-1.084-.43.433-.86-.217-1.291-.867.43.108 1.937-.976 1.291.108 2.476-1.192.108-1.517.538.216.108-.542.216-.542.97-.326-.862-.976.107-1.301-.539.217-.108 1.3-.538.542-.754-.434.431-1.518 1.292-1.951.431M48.306 5.06c.326-.539 2.168-.862 1.518-1.508-.434.43-1.192.754-1.518 1.507M41.152.645c0 .215-.108.215-.217.215-.108.323-.216-.646-.975.215 0 .539.65.323.542.97-.65.43-.867-.216-1.518.214-.108.431.217.431.217.754.434-.108-.108-.323 0-.754.542-.107.325 1.83.65.97.76.322-2.167 2.367-1.517.968-.759.323.325 1.076-.217 1.292.217-.108.434-.216.542-.538.65.43-.433 1.076-.759 1.291.326.754.542-.753 1.301-.538-.325-.646.759-1.076-.217-.969 0-.646.867-.107.976 0-.434.43-.325 1.184.542.97.108-.432-.217-.432-.542-.54.108-.214.217-.43.217-.753 1.084.323.325 1.184.758 1.507-.325.539-1.3-.43-1.517.539.108 0 1.41.322 1.734-.431.759.538-.758 1.507-.975.538.433.43-.759 2.907-1.301 1.83-.759.215.325.646.217.969.325 0 .108-.215 0-.215 1.517-.754 1.409-1.83 2.818-2.8.217 0 .217.324.217.54.217-.216.217-.54.759-.54-.434-.537 0-.322 0-.968.433 0 .867.646 0 .538 0 .646.867.108.758-.215.65.323.976.969 2.06.754 0 .43-.108.968.217.968 0-.646.542-.538.758.539.976-.539-.975-.97 0-1.507 0-.323-.433-.216-.758-.216.433-.538 0-.323 0-.969.758.108.542.323 1.409 0-.65-.107-.65-.43-1.843-.538.108.216.217.43.217.754-.325-.216-.434-.538-.542-.969.434.108 1.517-.43.759-.754.975-.538 1.626-1.291 2.601-.968.434-.108-.108-.323 0-.754.65-.323 1.626.108 1.3-.215 0-.215.11-.215.218-.215h.542c-.542 1.184.108 2.152-.76 2.798.11.108.434 1.292.543.539.759.43-1.41.43-.976 1.614-.542-.646-1.192.215-1.517-.215.108.215.217.43.217.753.65-.645.433.431.758.754.434-.108-.108-.323 0-.754.217.108.434.216.76.216-.326.538-.543 1.937-1.302 1.291 0 .216.217.216.217.539.542-.108.542-.754.976-.216.542-.107-.326-.646.216-.968.217.753 2.06.107 1.518-.216 1.3-.215 2.493-2.476 2.602-.538 1.409.969 2.059.754 2.6 0-.108.754 1.41 0 1.844 0 .433.108.216.754.975.538 0 .969-.217.108-.759.216.434.645.65.43 1.301.215-.108-.646-.975-.538-.759-1.507-.216.107-.433.215-.758.215 0-.215.325-.215.542-.215 0-.215-.109-.215-.217-.215.542 0 .65.107 1.843-.216 0 .323.108.43.216.538 0 .539-.65-.322-1.3 0 .108.323.433.646.542.216-.109.86.541 1.4 1.3 2.045.542 0-.325-.646 0-1.292.326.108.65.43.217.538.976.862.434 1.4.976 2.584-.217 0-.217.323-.217.538-1.518-.538-.759 0-2.602 0 0 .323.434.215.76.215.108 1.077-.651.323-.76.754-.325-.108-.542-.323-.542-.754-.975.431.434.754.217 1.292-.867-.538-.217.538.542 0-.542-1.184.542 0 .65-.969.434.754-1.409 1.615-2.059 1.507.434.97 1.518.216 1.843-.753.325.107.65.43.217.538 0 .215.325.215.541.215-.108.43-.758.216-.541.97-.326 0-.217-.432-.217-.754-.217 0-.217.215-.542.215.108.323.433.646.758.753-.433.431-1.083.646-1.517.97 1.3.107.325 1.076-.542.537-.434.108-.542.431-.542.97.434 0 1.084-.431.542 0 .217.645.867-.431 1.3.215 0 .322-.216.107-.216 0-.434.215-.434.968-.976.968.109.646.65-.323.76-.538.324.108.216.538.541.538-.108.43-.325-.107-.759 0 .109.216.217.43.542.538-.108.323-.433 0-.542-.215-.216.215-.542.323-.975.215.759.539.759.216 0 .754.108.538.65-.323.975.215-.433.323-1.626 1.184-1.517 1.83 0 .646-.65-.107-.542-.538-.217.215-.434 1.076.217.969-.109.538-.434.538-.76.215.76.969-1.191 1.507-.541 2.583-.217 0-.217-.215-.542-.215.108.215.217.43.542.538.434-1.291 1.084 1.077 1.517-.215.868.43-.65.538-.541.969 2.276-.646.541-.754 1.3-2.045-.325 0-.867 1.076-.759 0-.216.215-.433.43-.541.753-.76.754.433-.861-.217-.753.975-.323-.217-.754.217-.97.108.324.975 0 2.059-1.29.759 0-.325 1.29.217.537.759.216-.217.539 0 .97-.434-.754-.759-.108-1.3-.539-.543 1.076 1.842 1.507.541 1.83.108.646.976 0 .759-.538.867-.108 1.192.323 1.3.968.109-.43.868-.86.976-.968.759-.754 2.276-1.938 2.276-2.045 0 .107-2.384-.646-.758-1.508 1.734.216.542.216 2.276.539-.867.43-.325.753-1.518 1.507.76 0 .976-.108 2.06.215.217-.108.217-.646 0-.753 0-.646.867 0 .759.215.542-.108.542-.754.975-.215-.433-.646.217-.97-.542-1.508-.433.97-1.084.216-1.517 1.292-.542-.43.216-.646-.217-1.291-.542.43-1.3-.646-1.843-.97-1.192.324-.325.431-1.517.539-.109.538.325.538.758.538-.325.861-.975-.108-.975 1.292 1.192.215-.434-.754.759-.538-.217 2.045-2.385-.431-2.602 1.291-.325-.107-.217-.538-.542-.538.109-.215 1.084 0 .976-.969-.434.216-.217.754-.759.216.976-.108.976-2.046 2.06-1.292a1.3 1.3 0 0 0-.76-.754c0-.323.218-.107.218 0 .216-.215.216-.538.758-.538-.433.538 0 .323 0 .969.759-.215-.325-.646.217-.969.759.646.759.646 1.843.754-.325-.646 2.168-.861.975-2.584-.758.215-1.084-.323-2.06-.215.434.753.218.969.543 1.507 0 .323-.217.108-.217 0-.759-.215-.65.323-1.3.215.433-.43-.326-.753.216-1.291.65-.216.542.538.976.538 0-.538-.65-.323-.542-.969-.65.215-.76.969-1.518.969-.108-.43 1.192-.754.542-.969.759-.108 2.168-.43 2.818-1.292-.433-.107-1.3.323-2.06-.538 1.193.215 2.71-.108 3.036-1.292.217 0 .217.323.217.538.216 0 .216-.215.542-.215 0-.215-.217-.215-.217-.538-.65-.538.325.108.542.215.325-.107.433-.43.759-.538-.542.108-.867-.646-1.843-.753 0-.323 0-.754-.217-.754.434-.43 1.41 1.076 1.843.754.759 0 .325-1.184 1.3-.97-.325 1.292 1.193 1.292.217 1.83 0 .539 1.084-.537.76.754.324-.107.433-.43.758-.538 0-.323-.217-.108-.217 0-.325-.108-.217-.538-.542-.538.217-.538.867-1.077.976-.216.325-.215.867-.43.758-.968-.216.215-.433.43-.542.753-.65-.43.542-.969-.758-.538.433-1.076-.109.108-.76 0 .11-.754 1.193-.43 1.844-.754-.434-1.184-1.301.646-1.301-.538-.65.646-2.927.538-3.36-.215.433-.108.433.215.758.215.109-.753-.867-.646-.216-1.291.325.645 1.409.323 1.517.538.217-.215.217-.538.759-.538-.109-.216-.759-.431-.217-.539-.108-.43-.433.216-.542-.215-.108-.43.217-.538.217-.215.217-.215.433-.43.542-.754.65-.107.975 0 1.3.216-.216.753-.867-.108-1.3 0 .433.753 1.951.215 1.517 1.83.217 0 .217-.216.542-.216-.216-.323-.216-.969-.758-.969 0-.538.65-.538 1.3-.538v.861c.434-.753.76-.753 1.518-.215.217 0 .217-.215.542-.215-.65-.215-2.168-1.184-3.035-.215-.759-.216.325-.646 0-1.292.433.107 1.084.107 1.3.538.76-.323-.325-1.292.217-1.507.326 0 .109.215 0 .215.217.43.76.216.217.754.65.323.65-1.184.759 0 .325 0 .217-.43.217-.754h.975c0 .323-.433.216-.758.216 0 .43-.109.968.216.968.326-.107.217-.538 0-.538.109-.43.326.108.76 0-.434.215-.76 1.507 0 .754.541.215-.543.753-.543 1.291.217 0 .217-.107.217-.215.867.108-.867 1.077-.542 0-1.518.861-1.41.861-1.843.969-1.626.538-.108 1.076-.975 3.014 1.734-.538-.217-1.4 1.517-1.83 0-.43-.867-.108-.975-.538.108-.538 1.3-.108 1.842-.216-.325 1.077-1.517 1.4-.542 2.261-.65-.108-1.084.861-2.06.215-.433.646 1.085.538.218.754.216.215.433.43.758.538-.542.969.217 1.722-.975 2.26 0-.322 0-.753-.217-.753.217-.323.542-.43.976-.538 0-.216-.217-.216-.217-.539-.434.646-.65.108-1.518.539.65-.969-.325.107-.758-.539.216.323.433.862.975.754-.217 1.076 0 .646 0 1.83.217-.108.434-.215.759-.215 2.276.646-1.3.86-1.3-.216-.76.216.65.431.216.97-.217.215-.65.107-.759.537-.433-.107.109-.322 0-.753-1.084 0-.325 1.615.217 1.507.65.646-.867-.43-.759.538.325.538 1.518-.43.542.538 0 .538.976-.107.976-.538v.754c-.326.538-1.301-.216-1.843.538.217.753-.542-.969.217-1.507-.759-.108-.109-1.723-.759-1.292-.867 0 .542-.861-.217-.753.217-.754 1.084.107 1.518 0 0-1.184-1.626-.754-1.518-2.046-.758.323-.975.108-1.3-.538-.217.108-.434.215-.76.215a2.6 2.6 0 0 0 1.518.539c.325.43.759.646.759 1.291-.867.216-1.192 0-2.06.539 0 .538.868-.323 1.518 0 0 .753-.975.646-1.843.753-.216.754.868.323.542 1.292-.975-.861-.758.753-1.842.538.108.323.433.646.542.215.433.216.108.538-.217.538.108.323 1.734 0 2.06-.215 0-.323-.218-.107-.218 0-.758-.323.434-.753.543-.969-.326-.107-.868-.215-.217-.968.325 0 .108.215 0 .215.325.753.867-.43 1.517-.215-.759.538-1.409 1.291-1.517 2.583.65.108.867-.323.758-.969.217.216.217.538.76.538.108.431-.976 2.046.758 1.83 0 2.369-1.41.97-2.818 2.26.108.431.325-.107.758 0-.325.216-.108.97-.758.754 0-.645-.434-.753-.217-1.507-1.951.862-.434 3.122.976 3.014-.434.97-.868.754-1.301.754 0 .753 1.192.861.542 1.507.216-.108.433-.215.542-.538.758.107-.434.43-.217.753-.325-.107-.542-.323-.542-.753-.542.107-.108 1.291-.976.969.76.322.326.968 0 1.506-.975.108-1.192-.538-1.517-.968-1.192.43 1.084 1.722-.217 1.507.108.215.217.43.542.538.217 0 .217-.215.542-.215 0-.539-.65-.323-.542-.97.759 0 .325 1.185 1.3.97-.216.215-.433.646 0 .753-.108.43-.433.538-.975.538.109-.323.542-.215.542-.538-.217-.753-.433.538-.975.215 0 .431.867.216.758.754-.542-.538-.867 1.292-2.06 1.507.326 1.184.76-.43 1.302.215-.217 1.292-1.193 1.077-.76 2.045-.65 0-.324.216-.216.539.325.538-.65-.97-1.3 0 .325-.539.867-.97 1.3-1.507 0-.539-1.192.43-.542-.539-.759 0-.65.431-1.517.754.325-.861-.868-.215-.542-.969-.65.538-.542.323-1.518.215 0 .431.325.539.217.97.325-.108.217-.539 0-.539.325-.646 1.3.754.759.969.216-.108.433-.215.758-.215-.108-.539-.975-.216-.758-.97.867.216 1.517 1.077 1.517 1.508-.217.753-.65-.323-.975.215.108.323.433.646.542.215.325 0 .216.43.216.754.217 0 .217-.323.217-.538.108-.108.65 1.507.976 2.045-.542-.43-.542.215-.976-.216 0 .754.542.862-.217.539-.433.646.867.753.76.215.324 0 .108.215 0 .215 0 .216.324.216.541.216-1.409 2.152 0 .107 0 1.722-1.409-.323-1.409-.43-.217-1.292-.65-.538-1.409-.538-1.842 0 .216.43.542.108.542-.215-.65.969 1.517 2.26 0 3.014.867-.108.65.753 1.517 1.507-.217.43-.65.753-.759 1.291.109.862 1.084-1.399.976 0 .325-.215.433-.538.542-.968-.217-.861-.542 0-.976-.538.217-.539.542-1.723-.542-2.046.76-.323 1.951-1.507 1.518-2.045.217-.323.65.108.759-.753.325.86.975 0 1.842 0-.216-.754-.867.107-1.3 0a1.3 1.3 0 0 0-.76-.754c.218-1.184.218-1.076.76-2.045.216.753 1.3 0 .758.969.542-.108.542-.754.976-.216-.867-.538-.759-2.152-.217-3.336.65.43.867-.323 1.3.215.543-.108-.324-.43.218-.754-.217.216-.65.108-.76.539-.758-.539.76-.754.976-.97-.325-.43-.867-.968.217-.968-.217-.43-.433 0-.758 0-.76 0 1.192-.861.216-.969.976 0 .217-.753 2.06-.753-.217-.754-.65-1.292-.976-1.83.109-.538.867.215.759.753.542 0 .108-.86.217-1.291-.867.43-.109 0-.217-.754.217.43 1.084.538.542.969 1.41-.646.759-.646 1.843-1.292-.434 0-1.843-.215-1.301.754-1.084-.754-.325-1.507-.542-2.26.759 0 .975.537 1.3.968.326 0 .11-.215 0-.215.218-.323.651-.539.976-.754-.542-.538-1.192 1.184-1.843 0 1.193.215.326-3.552.76-.753.541-.431 0-1.4.975-.754-1.41-.538.65-1.83.217-2.045.108-.43.433.215.542-.215.65.215-.542.538-.542.968 1.409.539 1.3-1.076 2.06-1.83-.11-.538-.651-.538-.976-.753.325-.646.541-.753 1.3-.538q-.65-.485-.975-.969c.216-.323.542-.43.975-.538-.542.538 0 1.076.542 1.291.109-.43-.216-.43-.542-.538-.216-.646.542-.538.542-.969.542.108.542.646.976.754-.976-1.4-1.3-3.23-.217-3.875.542.107-.325.646.217.969.325 0 .108-.216 0-.216.108-.538 1.084 0 1.3.216.217 0 .217-.323.217-.539-.108-.538-.65.323-.975-.215.325-.215 1.734-.861 2.276-.753.759.215-.325.645-.217.968.542 0 .326-.646.976-.538-.108-.215-.217-.43-.217-.753-1.084.215-1.3-.43-2.276.538-.217-.861.433-.538-.759-.754.108-.215.217-.43.217-.753 1.3 1.076 1.192-.323.975-.969.109-.215.76-.43.217-.538.109-.646.976 0 .759.538.542-.646-.325-.646-.217-1.292 0 0 .65.539.759.539.325-.323-.867-.754-1.3-1.292.324-.108 1.083-.43 1.517-.969.867.538 1.517.43 2.06-.538.324 1.614 1.192.753 2.059 1.292v.753c-.65.43-1.084-.107-1.301.215-.867-.215-.217-.538 0-.968-1.084.215-.217.968-.976 1.291.65.323 1.626.216 2.602-.215-.217.753.325.646.217 1.292-.217-.216-.217-.539-.76-.539.868.754.76 1.185-.216 1.83-.65-.107-.433-.86-1.3-.753.65.538.758.43.541 1.507.217-.538 1.518-1.292 1.518 0-.217-.108-.434-.215-.542-.538-.217.107-.434.215-.542.538.975 0-.325.43.217.969-.542-.108-.76.107-2.06.215.109.538.759.861.217 1.292.759-.538.325.646.217.969-.325-.108-.434-.431-.759-.539.434.861-.108.216-.542 0-.325 0-.108.216 0 .216-1.3.86.65.43-.542.968.217.431.65.539.976.216.433-.646-.109.538-.542.538.65.43.108.646.758 1.292-.216-.108.868-1.4.542-.754.326-.215 1.626 1.076 2.06.754-.217.538 1.192 1.937-.542 2.045 0-.216.325-.216.542-.216-.108-.215-.759-.43-.217-.538-1.734-.968-.325 1.4.759 1.83-.217.323-1.41-.107-.542.754-.217.43-.542.968-.976.538.217.753.217.538 0 1.292-.325 0-.758 0-.758.215-.217-.215-.434-.43-.542-.754-.326.323-.976.323-1.301 0 .867.646.65 1.723 1.843 1.83-.434 1.723-.65 2.046-.976 4.09-.65-.215-.542.539-.975.539-.976-.215-.65-.108-1.843-.215.65.323.325.968-.217.538.325.323.108.43 0 .753.975-.538-.542.862.759 1.292-.217.43-.65.538-.976.215 1.734 1.723.976-1.722.759-1.83.217-.538.867-.968 1.3-.538-.541.646-.325 2.153.76 2.046 0-.216-.326-.216-.542-.216 0-.323.433-.215.758-.215 0-.323-.433-.215-.758-.215 0-.43.433-1.077 0-.539-.76-.107.433-.43.216-.753.325.323.542.753.759 0-.108.969.542.43.542 1.83-.759 0-1.192.753-2.276.969.108 1.399.325.968.975 1.507-.217.43-.65.753-.758 1.291-.217-.107-.434-.323-.543 0 .109-.538 0-.86-.541-1.83.433.108.433-.215.758-.215-.108-.323-.542-.215-.542-.538-.108.43-.216 1.076-.975.215.108.538.542.861.758 1.292-.216.861-.541 0-.975.538.217.754.867-.108 1.3 0-.65 1.722.434-.108.76 1.292-.543-.969-.976 1.076 0 .753.541-.646-.217.754-.976.216.108.215.217.43.542.538-.217.753-.434-.646-.976-.215.109-.323.434-.646.76-.754-.218-.43-.651-.753-.76-1.292-.325 0-.108.216 0 .216 0 .323-.433.215-.758.215.867.215 0 .969.542 1.292-.217.323-.542 0-.976.538 1.084-.108.542.969-.217.538-.433.215-.217.754-.758.215.433 1.184 1.3-.43 2.276-.215-.325.108 0 .969-.542.969.108.43 1.3-.646.217.215.108.538.65.538.758.969 0-.215.542-.861.217-.969.109-.538.867.215.759.754-.867-.216-.434.538 0 .538-.217.43-.434 0-.759 0 .109.215.217.43.542.538.976-.108-.217-1.184.976-1.292 0-.43-.867-.107-.976-.538.325-1.614-.217-.861 0-1.83.217-.538 1.084-.753.976.215h-.76c.76.754.651.108.218 1.508.325-.108.975-1.723.975-.539.65 0 0-.86-.217-.753.109-.538.65-.538.976-.215-.217-.216-.325-.539-.217-.97-.217.216-.433.431-.542.754-.542 0 .217-.969.217-1.292.542-.107.65.216.975.216-.216-.646-1.517-.969-.758-1.83.542.215.759.753.975 1.292.434-.323-.758-1.184.542-1.292 0-.754-1.192-.323-.975-1.292.433.215.758.646 1.3.754.217-.216.976-1.184.543-1.292.216-.861.541.323.758.215a1.3 1.3 0 0 1-.758.754c.108.86 1.192-.754.975.538.434 0 .108-.861.542-.969-1.3.861 0-1.507-2.06-.969.109-.538.434-.538.76-.215-.11-.215-.543-1.292-.76-.538-.975-.43.65-.43.217-.969.217.108.434.215.76.215-.326.323-.11.646 0 .216.541.43.107 1.83.758 2.045-.109-.108.65-1.615-.217-1.507.759-.43.65-.323.759-.969.217 0 .217.323.217.538.433-.107.216-.753.975-.538-.433-.43-1.3-.861 0-.538-.217-.215-.325-.538-.217-.969.76.43.76 0 1.843-.215.109.86-1.192 1.614 0 2.045-.108.538-.65.538-.759.969-.433-.969-.867.753-.758-.969-.434.43-.65 1.076-.976 1.507 1.084-.43-.867.861 1.3.215-.541-.86.11 0 .218-.538.433.108-.217.43.216.538-.108.538-.433-.323-.758.216.216.43.758.215.216.753.434 0 .65-.215.76-.538.866.215-.977.969-.218.969-.216.753-.65-.323-.758-.539-.65.539-.543.646-1.301.754.108.323.65.215.975.215-.867 1.4.326-.215.217 1.292.759.323 1.192-1.184.217-.969.542.108 2.927-1.076 2.06-.538-.326.215-.543.646-.976.753.217.754.65-.322.975-.215 0-.753-.975 2.907-1.3 2.045-.217.754.758.539.542 1.292.65-.215 1.517-.969 2.06-.538-.11-.215-.218-.43-.218-.754-.975.539-.65-.107-.975-.753 0-.969.975-.969.975-1.83.867.43.109 0 .217-.754h.759v.97c.433.107.433-.216.759-.216-1.518-.108 1.192-1.184.542-1.83.216-.646.65.43 1.3.215-.542-.646.109-.646.217 0 .217 0 .217-.215.542-.215-.108-.753-1.409-.108-1.3-.969.433 0 .867.216.975.538.217 0 .217-.215.542-.215 0-.215-.325-.215-.542-.215.542-1.615-.217-.969-.759-.754-.433-.107.217-.43-.217-.538.217-.215.868-.215 1.843-.215-.433.646.65.753 0 1.507.65.323.434-.646.217-.538 1.192-.97.975 2.475 1.843 2.583-.65.43-.542 1.507-1.843 1.292.65.753-.325 1.291-1.3 1.291 0 .646.975.431 1.3.754-.217.754-.542-.215-.976 0-.108 1.615-.216 2.368.76 3.337-1.085-.215-1.193-.646-1.302-1.292-.542.108-.65.538-1.3.538 0 .323.433.216.758.216-.867 1.507-1.3.86-2.06.968 0 .431.868.216.76.754.325 0 .108-.215 0-.215.108-.754 1.409-.108 1.3-.97.976.431 0 .324 0 .97-.325-.323-.433-.108-.758 0 .108.538.433-.323.758.215-.325.754.434.323-.216 1.292-.434-.323-.434.323-1.518.538 0 .323.217.108.217 0 .325.108.108.753.542.753-.217.431-.434 0-.759 0-.217.861.867.323.976.754 0 .646-.434.753-.542 1.292-.326 0-.109-.216 0-.216-1.084-1.076-.976 1.184-1.301-.538-.325.108-.108 1.722-.542.538-.542.216 0 1.507.542 1.507.542-.107.542-.43.217-.753.108-.861.542 1.291.758.215.65.108-.216.754-.758.538.542.538-.109.538-.217.97.108.753.759.753 1.3.968-.108.323-.433.43-.541.753 0 .216.216.216.216.539.217-.216-.108-.861.543-1.292.541 0 .541.646.541 1.292.65-.323 1.735-.754 1.301.215.434 0 .65-.215.759-.538-.325.215.542 1.614-.217.968.109.216.217.431.542.539.217 0 .217-.323.217-.538.975.322-.217 1.399.759 1.507-.326.645-1.41-.431-.76-.754-.216.215-.65.108-.758.538 0 .323.217.108.217 0 .867.323.325 1.292.975.754.543.107-.758.645-.758.968.216.646.758-.86 1.3 0-.975.646-.975.754-2.276.97-.108.215.109.537.217.537-.976.754-.434.431-.542.97-.325 1.506-.217 2.044-1.517 3.013.541.215 1.625-1.291 2.276-1.83.108.646 1.734.754.975 1.507h.976c.217.216.108.646.542.754-.109.538-.65-.43-.759.538.217.323.65-.108 1.3.215-.216.754-.433.323-.975.216-.216.43.759.86 0 .968.217.646.542-.753.976 0-.867.97-1.41 2.153-1.518 2.8-.108.322-.433 0-.542-.216.109.215-.433 1.507-.216 1.507.541 1.4 0 .215-.542.43 0-.215.108-.215.216-.215-.108-.538-.433.323-.758-.215.542.646.216.646.542 1.291.325-.215-.109-.86.758-.215v.538c-1.084-.215-.65 1.4-2.06 2.046 0 .323 1.085.43 0 .538.434.323.651.861.76 1.507a3.7 3.7 0 0 0-1.301 1.291c-.325 0-.109-.322-.542-.753 0 .538-.434 1.507-.217 2.045.217 0 .217-.323.217-.538.542.215 0 1.292-.759.969-.217.969.434 1.937 0 2.26.759-.538.434.323 0 .538.759-.43 2.385.216 3.035-.968.109.753-.217 1.83-.759 1.291.109.216.217.431.217.754.542-.215.434-1.077 1.3-.969-.758-.753-.108-1.291 0-.538.651-.754-.433-.538-.758-.754.759-.753 1.626-.215 2.276-.753-.867-.538.868.108 0 .215 0 .216.326.216.542.216-.325.322-1.192.645-1.517.215 0 1.722.433.108.759.969.216 0 .216-.323.216-.539.434 0 .542.323.976.216 0 .43-.65.86-.542 0-.542.215-.759.753-.759 1.507-1.192-.754-.542 0-1.3.538-.542.108-.65-.215-.976-.215-.325.107-.434.43-.759.538.109.538.65-.323.976.215.217.646-.542.538-.542.969-.542-.43-.217-.43-.976-.215-.108.538 0 .753.542.753 0 .646-.867.538-1.517.538.108.216.216.43.216.754-.216-.538-1.3-.108-.541.215-.976.43-.976-.43-1.301-.538-.325.108-.217.646-.217.969-.867-.43-.325-1.184.217-1.507 0-.538-.65.323-1.301 0 .108.43.108 1.076.542 1.291-.325.646-.976-.538-.976-.968-.325.215 0 .538-.541.968 1.083-.538-.217.216 0 .97-.868-.647.108-.647-1.301-.754-.109.538.325.538.758.538-.433.538 0 .323 0 .969-.758.43-.325 0-.758.753-.326-.646-.867.538-.759-.538-.65-.108.108 1.184-.759.753.217.216.434.431.759.539.325-.539 0-.216.542-.539.867.323-1.3.862-.542.97-.108.322-.542.215-.542.538-.759-.216.325-.646.217-.97-.867-.107-.65.862-.976 1.292-.433-.645-.758-.215-1.3.216-.109-1.292-2.168 0-3.36-.754-.218.754.866.323.541 1.292-.867-.43-.217.969-.975 1.507-.434-.215 0-.43 0-.754-.65.323-.868 1.077-.976 1.83-.867-.215-2.71-.646-3.577-.215-.542-.538-1.084-1.076-.759-1.83-.65.323-.433.538-1.3.215-.76-.107.65.754-.217.754.217.43.433-.108.975.215-.216-.215-.542-.215-.542-.753.434.107.65.43.976.538-1.084 1.937-2.818 3.23-4.878 3.552-.542-.43.325-.753-.542-.969-.325.108-.217.538 0 .538-.108.431-.325-.107-.758 0 .975-1.399-1.41-1.614-.217-2.26-.109-.43-.325.108-.76 0 0-.43-.324-.538-.216-.969 1.3 0 .65-1.937 1.843-2.045-.109-.43-.325.108-.759 0-.108-.538.325-.538.759-.538 0-.323-.434-.216-.759-.216v-.968h.976c-.217-.754-.434-.323-.976-.216.325-.645.867-.968 1.518-1.291-.109-.969-.434-1.507-.542-1.83.108-.538.433.323.758-.216.109-.322-.975-.645-.216-.753.325.538.65.43 1.842.753-.433-.86-1.3-1.507.217-1.291v-.538c-.975-.323-.325-.97-.975-.97-.76 0 1.734-.43.216-.968-.65-.646.868.323.976-.215.108-.646-.434-.538-.217-1.292h1.3c-.758-.646-.216-.646 0-1.507.326-.753.326.754 0 .754.543-.108.434-.754 1.302-.539-.326-.645-.868-1.614-.76-1.291-.541-.43.976-.97 1.302-1.292-.217-.215-.434-.43-.76-.538v-.538c.218-.431.326.107.218.538.216-.216.216-.538.758-.538.326-.862-.867-.216-.542-.97.217.108.434.324.542 0 .326 0 .217.431.217.754.759-.215-.108-.86 0-1.291.867.753-.108-.862 1.3-.754-.108.538-.758.538-.216.969.217 0 .217-.323.217-.538.217 0 .217.107.217.215.433-.108-.217-.43.216-.538-.541-.323-.975-.97-.975-1.83.867-.43.65-.861.217-1.507.217.215.65.107.758.538.434 0 .217-.861.76-.754.108-.538-.76 0-.76.216-.216-.43.217-1.723.976-.754 0-.43-.325-.538-.217-.969-.433-.107-.433.216-.759.216-.541.646.434-.646.542-.97.542-.107.65.216.976.216.217 0 .217-.323.217-.538-.867 0-.325-1.184.758-.538 0-.216-.325-.216-.541-.216.541-.322 1.3-.322 1.517.216.434-.108-.108-.323 0-.754-1.192.216-.975-.215-2.276.216 0-.216.108-.216.217-.216 0-.323-.434-.215-.76-.215 0-.323 0-.754-.216-.754.217 0 2.06.323 1.3.97.218-.108.434-.216.543-.539-1.301-.43.108-1.184-.542-2.045.867-1.077.975-.108 2.276-.538v.753c-.217 0-.217-.323-.217-.538-.217 0-.217.215-.542.215.217.43.759.215.217.754.325-.108.65-.43.759-.754 0-.646-.434-.753-.542-1.291-.65 0-1.3 0-1.3.538-.976-.754.866-.97.541-2.045-.542.86-1.951 1.614-2.818.753.217.43.759.646.542 1.507.867-1.722.867 1.292-.976 1.292.325.43.867.538-.216.538.867.43.867.861-.217 1.507.108.43.325-.108.758 0 0 .323.109.43.217.538 0 .323-.217.108-.217 0-.216.215-.433.43-.541.754-.76.215-.76-.43-1.518-.216.217.539 1.517.108 1.3.97-.325-.109-.433-.431-.758-.54-.759-.107.65.754-.217.754.976.108-.325 1.507-.975 1.83.541-.323-.326-.645.216-.753-.216-.215-.433-.43-.758-.538.216.215.108.645.542.753-1.084 1.292-1.084.538-.976 2.045.542 0 .325-.645.976-.538-.542.538.325.754.216 1.507-.216 0-.216-.108-.216-.215-.542.215-.109 1.507-.976 1.292.434-.431.325-1.184-.542-.97.542.754.65 1.077-.759.97.109-.323.434-.431.542-.754-.867.323-.542.43-1.517.538.216.754.65-.323.975.216 0 .43.109.968-.216.968.108.646.433-.323.975 0-.108.323-.434.43-.542.754.65-.323.759-.538.542-1.292.217.108.434.323.542 0 .325.108.217.538.542.538-.867.108-1.626 2.26-2.06 1.292-.867.215-.433.861-.758.969.216.215.433.43.758.538-.65.538-.325.43-.541 1.507-.868-.215-.109-.43-.217-1.292-.434.646-3.577-.86-2.602.97.325-.108 0-.431-.216-.54.325-.537.975.54 1.3.754.759-.215-.65-.43-.217-.968.65-.43.542 1.076.76.215.433.108-.326.861.758.753-.109.216-.325.431 0 .539-.109.645-.434-.323-.976 0 .868.753 0 .86-1.3.968.216-.645-.542-.538-.542-.968-.76.215.325.645 0 1.291.975 1.292.975-.968 1.3.754-.325.323-1.192-.108-.542.538-.108.323-.433 0-.541-.215-.217 0-.217.215-.542.215 0 .323.216.108.216 0 .759 0-.325 1.292.217.538.434-.107 0 .969-.542.754v-.323c-.325.108-.433.43-.759.538 0 .323.217.108.217 0 .325.108.217.538.542.538-.433-.215-.65.969-1.3.538-.109.323.758.862.758.216.325-.754.325.43 0 .538-.433.108-.433-.215-.759-.215-.108.43.217.43.217.753.434.108.434-.215.759-.215.867.108-1.3.538-.217.753 0 .646-.867 0-.759-.215-.758.215.65.43.217.969-.217-.215-.65-.108-.759-.538-.758.107.434.43.217.753-.542-.215-1.626.754-1.843 1.83.65.108.217-.969.976-.753-.108.538-.759.43-.542 1.291-.217-.107-.434-.323-.542 0-.325 0-.217-.43-.217-.753-.542.43-.325 0-.975 0 0 .646 1.084.215.759 1.291-.217 0-.217-.215-.542-.215-.109.43.216.43.542.538v.97c-.868-1.4-.542 1.506-1.301 1.83-.65.537.325-.54.217-.97-.65-.107-.217.97-.976.754.867 1.076.217 1.292.217 2.045-.217.646-.434-.646-1.301-.215.217.323.867.323.976.753l-.976 1.292c1.518 0-1.084 1.4-.759 1.83 0 .646-.65-.108-.542-.538h-.758c.216.215.433.43.758.538 0 .753-1.3-.323-.542.215-.975 1.077-3.577-.538-4.66-.753 1.192-.108-.76-1.615.541-2.26-.65.753.217 1.29.217 2.044.217-.538.217-1.076.976-1.507-.326-.753-.542.754-1.301.539.325-1.077 0-.861-.217-1.83-.433 0-.108.86-.542.969-.217-.539-1.95-.862-.759-1.292-.108-.646-.433.323-.975 0-.434-.323-.217-1.292-.217-2.045h.759c0 .753-.542.86.217.538.542-.646-.109.323-.217.538.217 1.184 1.084-.43 1.517.215-1.084-1.4-2.384-2.26-2.601-2.798.108-.216.325-.431 0-.539.108-.322.434 0 .542.216 0-.43.867-1.938.217-2.26 1.192-.539.433-.431 1.517-.97-.65-.215-1.409.216-1.843.216-.216-.216.109-1.184-.758-1.292-.109.43.216.43.542.538.108.538-.76.323-.76.754.218.43.434-.108.977.215-.217.538-.434 1.184-.76 1.507-.433-1.076-1.408.646-.975-.538-.217.107-.433.215-.542.538.217.754.867-.108 1.3 0 .11.215.218.43.218.754-.217 0-.217-.324-.217-.539-1.3 1.292-1.734.215-3.035.969-.867-.323 0-.646-.759-.969-.217.108-.433.215-.542.538-.108-.43-.217-.323-.542-.968-1.951.43-2.818-1.292-4.336-.754.434-.323-.433-1.292.217-1.83-.108-.323-.217 0-.542 0-.542.323.542-.646.976-.538-.759-.969-1.735.538-.976-.969-.217.108-.433.215-.542.538-.325-.107.217-1.184-.217-1.83.542.754 1.084 0 1.518.754.759-.108-.434-.43-.217-.754-.325 0-.433.108-.542.216-.65-.108.542-1.507-.542-.754-.542.646.109-.323.217-.538.976.969.65-.538 2.06.215-.109-.215-.217-.43-.217-.753-.217.108-.434.215-.542.538-.325-.646-1.084-.753-.976-1.83.434.108.434-.215.542-.538.217.108.434.215.542.538.65-.323.109-2.583.976-1.83-1.084-.323-.76-1.937-.76-2.583 1.302-.754.76-.969 1.302-1.83-.109-.323-.434 0-.542.215-.976-.43 1.084-1.076.216-1.291.65 0 .65-.862.76-1.507.541.107-.434.753.541.215-.108-.538-.759-.43-.542-1.292.65.323 1.084.538.542-.215.65-.108 1.518-.108.542-1.292.759-.43.542.215.759-.753.217 0 .217.323.217.538.758-1.4-1.626.646-1.301-1.507.325.215.434.538.542.969.542-.646.434-.754 1.517-.539-.108-.215-1.192-.645-.975-.215.108-.969-.325-.108.217-1.507.867.646 1.084.108 1.842.754-.433-.862-1.842-.646-1.3-2.046 0-.215-.109-.215-.217-.215-.65-.538.867 0 .759.538.216-.215.433-.43.542-.753.108.86.325.86 1.3.215 0-.215-.216-.215-.216-.538 0 .215-.434 1.076-.542-.215-.65.645-.217-.539-1.301-.216.108.43.759.216.542.97-1.734-.97.975-2.584-.759-3.015.325-.646 1.192.538 1.518.754-.109.538-.65.538-.976.753.108.861 1.084-.646 1.3.215.326-.107.218-.538.543-.538 0-.323-.217-.108-.217 0-.325-.43-.542-.969-.976-1.292.326-.322 1.518-1.076.76-1.507.433-.107.433-.538 1.3-.215-.108-.43-.434-.538-.976-.538.326-.323.109-1.4.76-.754-.434-.86-.218-1.076-.976-1.83.216-.215.758-.322 1.3 0-.108-.43-.433-.538-.975-.538 0-.646.433-.753.758-.968 0-.216-.867-.754-.758-.216-.217 0-.217-.323-.217-.538-.325.108-.217.646-.217.969-.433-.43-1.517-.108-1.3-.969-.868.108.758 1.184-.543.969 1.518 0-.108 2.045.76 2.798-.543-.107-.326.539-.76.539.109.323.434 0 .542-.216.76.216-.216.539 0 .97-.216-.108-.433-.216-.758-.216l.758.753c0 .323-.216.108-.216 0-.326.108-.217.539 0 .539-.217.753-.434-.646-.976-.216-.434.108.108.323 0 .754h-.542c0 .646.867 0 .759-.215.433.107.542.43.542.968-.217 0-.217-.323-.217-.538-.433.646-.542.108-.975.754.325.538.867.86 1.517.968-.108.323-.542.216-.542 0-.217.108-.433.216-.542.539-.759-.108.434-.43.217-.754-.759 0-1.084.43-1.3.969.216 0 .216-.108.216-.215.542 0-1.192 1.507.542 1.291-.65.216-.542 1.184-1.518.97.868.43-.975.968.217.968-.867.43-1.409 1.184-2.276 1.507.108.538.65-.323.975.215-.325-.538-.325-.538.217-.215-.108.646-1.3.43-1.3 1.292-.217-.323-.976-.108-.76-.754.218.108.434.215.76.215-.434-.43-.76-.753-.976-1.291-.976.646.759 1.614 0 2.045.976-.538.542.215 1.3.538-.108.538-.433.538-.758.215 1.084.97-.217 1.615 0 2.584-.65.108-.759.43-1.518.969-.108.323.76.86.76.215.324.108.216.538.541.538-2.06-.215-.975.754-.975 1.83 0 .754-1.301 1.077-.217 1.292-.434.538-.434.215-.217.969-.867-.431-.542-.646-.759-1.508.434 0 .65-.215.759-.538 0-.215-.217-.215-.217-.538-.867.754-.758 1.507-.975 2.26.433.431.867-.215 1.3.539-.325.43-.867 0-1.3.753 0 .323.216.108.216 0 .434.216 0 .43 0 .754 1.301.108-.867.43-.541 2.045-.65 0-.326-.215-.217-.538-.217.108-.434.215-.542.538 0 .538.217.861.758.754-.108.322-.541.215-.541.538-.217-.216-.217-.538-.76-.538 0-.216.218-.216.218-.539-1.084.646.65 1.83-.542 2.584-.434-.215 0-.43 0-.754-.217 0-.217.215-.542.215.433 1.507-.109 2.8-1.301 2.8-.108.537.325.537.759.537-.542.216-.217 1.292-.976 1.292.217.216.542.216.542.754-.434.107-.434-.216-.759-.216.325.862-.108.43.542.754v.538c-.433 0-.542-.323-.975-.215.108.43.758.215.542.969a1.3 1.3 0 0 1-.76-.754c-.65 0-.541.43-.975 0 .217.323.434.861.976.754.217.86-.217.968-.542 1.291-.325-.215-.217-.538 0-.968-1.3 1.614-3.36.753-4.12-.216-.433.108.11.323 0 .754-.866.323-.866-1.184-1.083-.43 0 .322-.542-1.293-.217-1.83-.542-.108-.325.753-.759.753.109.538.434-.323.76.215 0 .43-.868.108-.976.538 1.192-.107.325 1.83-.217 2.799-.325-.108-.434-.43-.759-.538.108.646.65.86.759 1.507-.65-.97-.325 1.4-.759 0-.759.215.325.646 0 1.291-.542.431-.325 0-.975 0 .108.323.325.539.758.539-.108.323-.433.43-.542.753-1.084-.323-.216-1.184-.975-1.83-.217 0-.217.216-.542.216 0 1.076 1.3.753.975 2.045-.433-.538-.867-.754-.542.215-.216-.108-.433-.323-.542 0-.216 0-.216-.323-.216-.538-.326 1.292-1.41-.538-1.301.538h-.976c0-.215.326-.215.542-.215 0-.216-.108-.216-.216-.216 0-.215.325-.215.541-.215 0-.43-.325-.538-.216-.969-.434-.107-.434.216-.76.216 0 .323 0 .753.218.753-1.193.646.108-2.368-1.518-1.292.217-.322.217-.968.976-.753-.217-.43-.867-.43-1.301-.754 0-.538 1.192-1.076.542-1.507.217-.43.434 0 .759 0-.325-.323-.217-.538.217-.538-.542-.646-1.084-2.476 0-2.045-.76-.861.433-.969.758-1.507-.65-.538.109-1.292-.758-1.292-.76.754.541-1.076.758 0 .65.108-.108-1.184.76-.753 0-.215-.218-.215-.218-.538l-.758.753c-.326-.323.325-.753.216-1.292.65.539.65-.107 0-.215.109-.323.217 0 .542 0 0-.43-.216-.646-.542-.753.217-.431.434 0 .76 0a1.3 1.3 0 0 0-.76-.754c.109-.646.434.323.976 0 .433-.969-1.192-1.184-.542-1.507 0 0 .433-.215.759.538.325-.107.65-.43.216-.538 0-.215.326-.215.542-.215-.758-.323 0-.646-.542-.969-.108-.754.976.646.976-.215-.217-.323-.434.107-.759-.538.217-.323.542-.431.976-.539-.217-.753-.542.216-.976 0 .325-.645.867-.753 1.518-.538-.434-.323-.759-1.184-.976-.215-.433-.216-.542-.646-.217-.969-.542.323-1.192.323-.758.538-1.518.538.216-1.4.758-1.83 0-.215-.216-.215-.216-.538 0 .538-.976 1.615-1.518 2.26 1.41.97-.65 1.077.217 2.046.325 0 .108-.216 0-.216.108-.322.542-.215.542-.538-.108.646-1.084 2.584-2.06 3.337.542 1.507-.65 0-.542 2.799-.325-.646-.867.538-.758-.538-.109.969.975 1.291-.542 2.583 0 .323.433.216.758.216-.216.322-.325.645-.216 1.291-.542-.108-.76 0-.76.538-.866.323-.216-.86-.975-.538.434.861 1.084.861.217 1.83.108.323.434 0 .542-.215.325.107-.217 1.614-.976 1.507.326.323.109.43 0 .753 1.085-.86-.758 2.26-.975 1.83 0 .43.325.538.217.969-.759.108-.976.754-1.518.969-.65.107-1.192-1.077-1.843-.216-.325 0-.216-.43-.216-.753-.217 0-.217.323-.217.538-.542-.646-.434-.215-1.3-.538.108-.43.433-.646.541-.969.217 0 .217.323.217.538.325-.215.434-.538.542-.968-.434 0-.867-.43-.976-1.292-.542.861.65 1.292-.542 2.045-.433-.215 0-.43 0-.753-.65-.216-.542.538-.758.753-.867-.969-1.518.754-1.518-.753-.433-.108-.433.215-.542.538-.433 0-.542-.323-.975-.215.216-.754.216-.539 0-1.292q.487-.484.975 0c-.217-1.4-1.192.538-1.517-.215.216-.216.542-.216.542-.754.325.323.433.108.758 0-.65-.753-1.626.538-1.842 1.83-.326-.43-1.084-.969-.542-1.507.433.108-.109.323 0 .754 1.084-.323.325-1.615 0-2.046.433.646.867-.323.216-.538.434-.43.76-.861 1.301-1.292 0-.538-.65-.323-.542-.968.325.323.65.107.217 0 .108-.754.759 0 .542.538.759-.323-.325-.969.217-1.292-.217.108-.434.215-.759.215.325-.538 1.192-.645.217-1.291-.109-.539.759 0 .759.215.325 0 .216-.43.216-.754-.867.539 0-.107-.542-.215.542-.538.868-.753.542-1.507.542.108 1.084.754.542 0 .76-.108.434 0 1.843 0-.542-.753-1.084-.108-1.843-.538.109-1.507.109-2.045.109-2.368.217-.43.433 0 .759 0-.326-.323-.217-.538.216-.538-.216-.754-1.626-.861-.975-.754.325-.107.217-.538 0-.538.542.215.759-.646 1.842-.754-.542-.968.65-1.937.217-2.583.109-.323.434 0 .542.215.542-.215-.433-1.291.759-1.291-.108-.216-.325-.431 0-.539-1.3-.215-.108-.538-.542-1.83.542 0 .867-.215.759-.753-.867 1.184-.434-.646 0-.969.65 0 1.192.538.758.969.65-.754 1.518.646.976.969.217 0 .217-.216.542-.216-.867-.968-.542-1.291-.217-2.045-.542.108-.65.538-1.3.538 0-.645-.434-.753 0-1.291.433.107.65.43.975.538-.108-.215-.217-.43-.217-.754-.325.323-.433.108-.759 0-.108-.538 0-.968.217-1.291.217 0 .217.215.542.215.217 0 .217-.323.217-.538.434.323.542.86 1.3.753 0 .216-.216.216-.216.538.759-.215.325-.43.217-.968-.325.323-.434.107-.759 0 .217-.43.65-.538 1.3-.538-1.083-1.507.434.538.218-.97.325.324.542.216.542-.215.325.108.542.323.542.754.216 0 .216-.215.541-.215 0-.216-.325-.216-.541-.216 0-.645.867-.107.975 0-.108.323-.542.216-.542.539 0 .322.434.215.759.215 0-2.153-1.192-.754-2.06-1.507-.216.215-.433.43-.542.753-.216-1.184-.325.323-1.517.216.108.323.434.645.542.215.759 1.076-1.735.646-.759-.538 1.3.107 1.084-1.292 1.518-2.046-.217.216-.217.539-.76.539.326-.323.11-.646 0-.216-.324-.107-.216-.538-.541-.538.542-.323.759-.107 1.517-.538-.108-.215-.216-.43-.216-.754-.434 0-.109.862-.542.97-.76 0 .325-1.292-.217-.539-.325 0 0-1.507.759-1.292-.109-.215-.217-.43-.542-.538 1.3-.215 1.192-.538 2.601-1.292-.217-.753-.433.646-.975.216 0-.216.108-.216.216-.216-.216-.215-.542-.215-.542-.753.65.323 1.193.215 1.518-.754.434 0 .542.323.975.216-.108.323-.433.43-.541.753.541-.538.541.108.216.538.867-.107 1.843-1.076 1.301-1.83-.217 0-.217.216-.542.216.867.107-.108.323.217.753-1.3.97.325-1.614-1.518-.968.434-.216.542-1.077.976-.539-1.3-2.476 0-1.83-.542-3.875.217-.646 1.084.215.975.754.434 0 .217-.861.76-.754-.326-.43-1.518.323-.543-.753-.759.753 0-1.507-1.3-1.507.108-.646.433.323.975 0-.542-.43-.217-.754-.542-.97.325.108 1.192-.107 1.843 0-.109-.753-1.301-.43-.976-1.506.325.108.542.323.542.753h1.3c-.541-.215-.758-.968-1.3-1.291.109-.216.217-.43.217-.754.542-.108.65.215.976.215-.326-.322-.217-.538.216-.538-.216-.43-.433 0-.758 0-.76-.107.433-.43.541-.538-.216-.538 0-1.507-.541-.969-.326-.323-.109-.753.216-1.291.65 0 .109.86 0 .968h.76c-.218-.753-.218-.538 0-1.291-.11-.323-.543-.216-.543 0-.433-.861 1.084-.323 1.3-1.292-.866.215-.975-.215 0-.969-.107-.323-.541-.215-.541 0-.976-.646 1.084-.215.542-1.292.542.108.542.431.217.754.542.108.975 0 1.3-.215-.108-.323-.65-.216-.975-.216.108-.43-.217-.43-.542-.538.542-.323.759.108.975-.753.109-.646-1.192.107-.758-.754 1.3.538.65-.108.975-1.292.542.646 1.084.323 1.843 0 0 0-1.192-.538-.976.216-.542-.108-.542-.646-.975-.754.108-.323.433 0 .542.215.65 0 .759-.43 1.517-.215-.325-.753.109-.646-.216-1.292-.326.108-.326.754 0 .754-.217.754-.868-.108-1.301 0 .217-.538.542-.969.759-1.507.65 0 .758.43 1.517.215-.108.323-.434.43-.542.754.759.646 1.192-.216.759-.969-1.3.108-.65-.215-.976-.754-.433.323-.542.862-1.3.754 0-.215.325-.215.542-.215 0-.216-.109-.216-.217-.216.217-.322.542 0 .975-.538-.542-.43-.216-.753-.542-.969 0-.753 1.301 1.185 1.301-.215.325.108.217.646.217.969.542-.108.542-.754.975-.215-.975-.754-.325-.323-.542-1.507-.541.107.326.43-.216.753-.434-.215-.76-.861-.976 0-.325.538.759-2.26-.217-3.337.217.108.434.215.76.215-.218.862.433.754.541 1.292.434-.323.65-.323.976 0-.868-.323-.434-1.722-.976-1.291-.65-.323.65-.862.976-.97 0-.322-.217-.107-.217 0-.109-1.506-.65-.645-.759-2.045.217.216.434.431.542.754-.108-1.076 2.601-1.722.759-2.799.217-.43.433.108.975-.215 0-.215-.325-.215-.542-.215-.433-.43 1.626 0 1.843 0-.65.646-.325 1.4.217.538.65.215-.434.753-.542.969.325.538.975-.646.975-1.292-.108-.43-.433.215-.541-.215s.216-.43.216-.754c.65 1.077.325-.323 1.301-.215-.108-.43.325-1.507-.217-1.507-.759.215.325.646 0 1.292-.433 0-1.084-.43-.542 0 .109.645-1.517-.43-.759.215-.542.538-.975-1.292-.758-2.26.759 1.399.65-.862.975.538 1.301-.43.109-.861.542-1.507-1.084-.108-.108.538-.217.968-.216-.215-.541-.322-.975-.215 0-.753.975-.646.217-1.292-.326 0-.109.216 0 .216-.109.43-.434-.216-.542.215-.65-.215.542-.538.542-.969 1.3.538 1.734.969 2.601 1.507-.542-1.614-1.084-.538-.975-2.26-.217-.108-2.385-.754-1.301-1.83.325.108.217.538 0 .538l.759.754c.325 0 .108-.216 0-.216.433-.215.65-.753.542-1.507.975.215 3.035-2.906.758-2.26-.542.86.109-.861.217 0 .434-1.292 1.951-1.507 2.276-2.799.326.754.976-.108.542.754.76-.646.76-.97 1.518-1.292-.542-.646-.65-.538-.759-1.292-.217 0-.217.215-.542.215.217.861.759.861 0 1.507-.433-.215-.108-.538.217-.538-.217-.215-.542-.215-.542-.753-.434-.108-.434.215-.759.215q1.139.162 0 1.292c-.325 0-.108-.216 0-.216-1.192-.538.109-.43-.759-1.291-.65-.539.326.107.542.215.76-.43.217-.969.217-1.83.759.646.867-.646.542-.754 1.193-.753-.542 1.723.976.754 0 .753-.759.861-.976.538.434.861 1.843 0 2.06 1.507.325-.538.108-.753.542-1.507-.217.215-.434.43-.542.754-.325-.539-.325-1.507-1.301-1.507.867-.323.325-.646.976-.754-.109-.86-.65 0-.76-.538-.108-.43.218-.538.218-.215.433-.108-.109-.323 0-.754.216.108.433.216.758.216-.216 1.83.76 1.399.76 2.583 0 .538.975-.43.975.538.65-.215-.76-.538 0-.969h-.109c-.325-1.399-.217-1.722-.759-2.798a2.12 2.12 0 0 1 .976-.97c-.867-.753-.867 1.508-2.06 1.293 0-.216.326-.216.543-.216-.976-.43-.326-.968-.976-1.291.434-.97.434.645.976.215 0 .215-.326.215-.542.215.108.323.542.215.542.538.433-1.399 2.059-1.291 2.818-1.291-.325-.323-.325-.97 0-1.292-.217.108-.434.215-.759.215.434.538-.542.646-1.3.538 1.517-.645-.218-2.906.758-2.583.217-.646-.542-.538-.542-.969-.542.108-.759.646-1.517.538.108-.215.325-.43 0-.538.108-.43.758.216.975-.538.65.215.867.969 1.518 1.292.216 0 .216-.216.542-.216-.542-1.184 0-1.507-.976-1.507.325-.43.217-1.184.976-.968-.217.86.867.323.975.753 0-.646-.759-.538-.759-1.292.65 0 .65-.538.976-.753.975.43-.65.43-.217.969.542-.216.867-.861 1.41-.323"></path></svg>