<svg xmlns="http://www.w3.org/2000/svg" width="100" height="100" viewBox="0 0 100 100"><path d="M42.575 96.786c.232-.117 0 .117 0 .233.116 0 .232-.233.116-.35 0 0-.232-.116-.116.117M13.69 68.12c.116-.35.928-.233.812-.7-.232.35-1.044.234-.812.7m.58-.7c.116-.116.348-.232.464-.232 0 0 0-.117-.116-.117-.116-.116-.464.233-.348.35m.58-.232c.232-.233-.116.116.116.233.116-.117.696-.466.464-.7-.116.35-.58.117-.58.467m28.307 27.85c0 .117.116.233.232.35.116-.233-.116-.467-.232-.35m-1.045-1.98c.116.116.116 0 .232.116l.116-.117v-.116c-.116.116-.232 0-.348.116m-.116 1.164q0-.174 0 0v.233c.232-.116.116 0 .348 0-.116.117 0 .234.116.35 0-.117.116-.35.232-.466-.116-.117-.232 0-.348 0 .116-.117 0-.117.116-.233l.116.116c.116-.233.116-.233-.116-.35.232-.116.232-.232.464-.465-.232-.117-.116-.117-.348-.233-.116.233-.348.233-.348.233.116-.233 0-.117-.116-.117.116.117.116.117 0 .233l-.116-.116c-.116.116-.232.233-.116.35.232-.234.232.116.116.232.116 0 .232-.116.232-.233.116.233.232 0 .348 0l-.348.35s-.348-.117-.232.116M19.49 68.237a.355.355 0 0 0 0 .466c.116-.117.232-.117.348-.233-.116-.117-.232 0-.348-.233m9.976 9.438c.116 0 0 .117.116.117q.174-.175 0-.35s-.232.117-.116.233m-8.352-8.856c.348.117 0 .117.232.35.116 0 .116-.35.116-.466-.116 0-.232 0-.348.116m6.38 5.827c.116 0 0 0 .116-.117-.116-.233-.348 0-.116.117m8.585 7.69c-.232.117-.232.234-.116.467 0 0 .116 0 .116.116.116-.466.464 0 .696-.116-.232-.35-.464-.233-.696-.466m-7.077-7.69c.116-.117.116 0 .116-.117 0-.233-.232 0-.116.117m7.193 7.34c-.116-.116.232-.232 0-.349-.116 0-.232.35 0 .35m-7.193-6.99c.116.349.58.465.928.465-.116-.116-.116-.233 0-.466-.348.117-.232-.466-.58-.466-.116.117-.116.233-.348.466m17.286 16.546.116-.116c-.116-.35-.348-.117-.116.116m-9.861-10.138c.232.117.464.35.58.35 0-.233-.464-.35-.58-.35m-5.684-5.826c0-.117.116-.233 0-.35-.116 0-.116.233 0 .35m7.888 7.574c.116.233.58-.35.348-.233-.116.117-.232.233-.348.233m-3.364-4.544c.232-.117.116-.233 0-.35-.116.233 0 .35 0 .35M4.988 47.262c.116.233-.116.466 0 .699.116-.117.116-.233.348-.466 0-.117-.116-.233-.348-.233m-.232-.117c.116-.117.116 0 .232-.117l-.116-.116c-.232 0-.232.117-.116.233M34.571 77.21c.116.117 0 .233.116.35.116-.117 0-.233.232-.233-.116-.117-.232-.117-.348-.117m11.833 12.003.116.116q.174-.174 0-.35c0 .117-.116.117-.116.234M6.148 47.495c-.232-.233-.348 0-.464-.35-.116.117-.232.35-.116.466.232-.233.232.117.58-.116m-.696-1.282c-.116.116-.232.233-.116.35s.116-.117.232 0q.174-.176 0-.35zm.464.233c-.116.116 0 .233-.116.35-.232 0-.116-.234-.348-.117-.116.116.116.233 0 .35l-.116-.117c-.116.117-.348.233-.116.466.116-.116.232-.116.232-.233.232.117.116.117.232.117.116-.233.232-.35.464-.583 0-.233-.116-.117-.232-.233M37.24 78.14c0 .35.58.467.116.7.116 0 0 .233.116.116 0-.116.116-.233.116-.466-.116-.116 0-.35-.348-.35M5.104 45.514c-.116.116 0 .116-.116.233.116.233.348.116.464.35.464-.35-.116-.35.116-.583l-.116-.117c0 .233-.116 0-.348.117m.232-.233-.232-.233c-.232.116.116.233.232.233m30.627 31.23c-.116.116 0 .116-.116.232.464.233.464.466.928.583a2.7 2.7 0 0 0-.812-.816M5.104 43.998c.232-.233.232-.233.116-.466-.232.116-.232.35-.116.466m6.613 2.796c.232.117 0 .233.116.35.116-.117.232-.35.116-.466s-.232 0-.232.116m9.28 8.857q.176-.175 0-.35-.172.175 0 .35M9.514 35.958q-1.218-2.272-.696-4.544s-.116.116 0 .116c-.58 1.515-.58 3.38.696 4.428m3.48-.233c-.116-.233-.232-.582-.464-.582-.116.116.232.466.464.582m.116-1.398c.464.7.696 1.515 1.392 1.748 0-.117-.232-.233-.116-.35.116.117.232.233.348.117-.348-.583-1.044-1.049-1.624-1.515m45.824 40.086-.232-.233c-.116.116.232.35.232.233m0-.466c.116 0 .232-.117.348-.117 0-.117-.116-.233-.232-.35-.116.233-.232.35-.116.466m.696-1.282c-.116.116 0 .233-.116.35.116.232.232.232.464.116-.116-.117-.116-.35-.348-.466M38.515 49.009c.116-.116.116-.233.116-.35l-.116-.116zM27.842 38.29c.232.117.348.35.58.233.116-.116-.348-.116-.116-.233s.116-.117.348-.233c-.232-.233-.116-.233-.348-.35.232-.116.116-.233.116-.35l-.116-.116c-.116.35-.348.7-.464 1.049m30.859 28.55c-.116-.234-.116-.7-.464-.816.232.233.116.699.464.815m-.58-.583c.232.233.232.582.464.815 0-.233-.232-.932-.464-.815M33.179 39.804l.116.116.116-.116v-.117c-.116.117-.116-.116-.232.117m24.014 25.869c0-.35.696-.816.812-1.282-.464.466-1.509 1.165-.812 1.282M39.79 46.446c.116.233.232.466.464.7l.58-.584c0-.233-.116-.35-.348-.582-.232 0-.464.233-.696.466M19.606 25.12c.348 0 .232-.466.116-.35.116 0-.232.117-.116.35m39.907 40.785c.116 0 0-.117.116-.117 0 .117-.116.234 0 .35.464-.233-.348-1.049-.58-1.165.116.35.232.582.464.932M33.179 39.105c.232.116.464.116.696.233.116-.117.232-.233.232-.466l-.464-.466c-.116.116-.232.116-.348.233 0 .116.232.233.116.35 0 .116-.348 0-.232.116m-9.05-15.032q0 .35.349.699c.116-.117-.116-.7-.348-.7m1.045.815c.116.117 0 .233.116.233.232-.116 0-.35-.116-.233M68.445 66.14c.233.117.117.233.233.35.231 0-.233-.466-.233-.35m-1.508-1.515c-.116-.116 0-.35-.116-.466-.232.117-.116.466.116.466m-45.94-47.427c0-.233.349.117.58 0-.231-.233-.927-.233-.58 0m0-7.69c-.231 0-.347 0-.58.233.233.233.349.233.58.116 0-.116.117-.233 0-.35m.233.582c.116-.116.232 0 .348-.116l-.232-.233c-.348.116-.232.233-.116.35m-1.044-1.515c.116.117.348 0 .464 0-.348-.233-.348-.699-.696-.815 0 .35.58.582.232.815m.116-3.612c0 .116-.58.116-.464.466.232-.116.58-.233.696-.35 0-.116-.116-.116-.232-.116m6.148 4.545c-.116.116-.116 0-.232.116-.232.466.696.233.232-.116m-.812.35c.348.582.812.582 1.044.931.232-.116.232-.116.58 0-.116-.116 0-.233-.116-.35-.58-.116-1.044-.815-1.508-.582m-.116 1.164c-.464-.233-1.044-1.165-1.508-1.514.464-.35.928.699 1.508.582 0-.233.116-.35.232-.582-.232-.117-.116-.234-.232-.467-.58-.815-1.74-1.631-1.624-2.097-.58-.35-.696-1.049-1.16-1.515-.464.583.232 1.282.58 1.748.464.583 1.044 1.049 1.392 1.515.116.116.464.233.116.466-1.044-.117-2.204-.816-2.552-2.098-.58-.35-.812-1.048-.928-1.514-.232 0-.232.233-.464.35.116.815.812 1.98 1.74 2.563 0-.117-.232-.233-.232-.35.232.233.464.466.464.583-.116.116-.232.233-.348.233-.928-.7-1.392-1.981-1.856-2.68-.58 1.049.116 1.98.928 2.913-.116.116-.116.233-.232.35.116.233.348.116.464.233.232.466.696.466.928.932 1.392 1.049 3.248 2.797 4.988 4.078.232-.116.58.466.58.233-1.508-1.398-3.016-2.68-4.408-4.195.348-.233.116-.35.232-.699.116.233.348.466.58.583.58.233 1.044.816 1.508 1.282.232.233.464.582.696.466-.58-.7-.928-.932-1.392-1.399m46.52 45.097V56c-.116-.233 0-.582-.348-.816-.116.35-.232 1.05.348.933m6.148 4.195c-.116-.117-.116-.233-.232-.35-.116.117.116.35.232.35m-.58-.583c.116 0 .116.233.348.117-.116-.233-.116-.117-.232-.35-.116 0-.232.117-.116.233m2.9 2.68c0-.116 0-.233-.116-.35-.232.117 0 .467.116.35M24.246 4.263c.116.116-.116.116.116.233.116 0 .116 0 .232-.117-.116-.116-.232-.233-.348-.116m51.856 53.02c-.232.35-.464.35-.58.7.348.349.696.698.812 1.048.58-.35-.464-.816-.348-1.165.348.466.58.582.928.699 0-.35-.348-.932-.812-1.282m-3.48-3.496q.174-.174 0-.35-.174.176 0 .35m8.12 8.04s-.116.117 0 .117l.117-.116c-.116-.117-.116-.234-.116-.35-.117.233-.233.466 0 .35M25.059 4.73c.232.233.464.35.58.233 0-.233-.348-.35-.58-.233m52.088 53.137c.116-.117-.116-.466-.232-.466.116.233.232.35.232.466m-4.176-4.428c.232-.117 0-.35-.116-.35 0 .117-.116.233.116.35m7.308 7.34q-.174.176 0 .35c.348.117.348-.35 0-.35m-.464-.465c-.116-.117-.232-.117-.348-.233.116-.117.232 0 .116-.117-.116-.116-.464-.116-.58-.35.116.234.464.7.812.7M25.522 4.263l-.232-.233c-.232.116-.464-.117-.58-.35-.116.117 0 .117-.116.233 0-.116 0-.116-.116-.233-.116.233-.232-.116-.348.117.464.233.348.233.812.582.116 0 .232-.116.464-.116-.232.116.116.35.232.116-.348-.116-.348 0-.116-.116m.116.35c.116.232.232.465.464.582.232-.117.116-.35.348-.233-.348-.233-.58-.35-.812-.35m54.988 55.933q-.174.174 0 .35.35-.35 0-.35m-1.044-.932c0-.117.116-.117.116-.117l-.232-.233c0 .116.116.233.116.35m-.696-1.05c-.116-.116-.116-.232-.232-.349-.232 0 .116.35.232.35m-2.204-1.98c.232.582.812 1.049 1.276 1.165 0-.583-.464-1.049-.812-1.515-.232.233-.232.233-.464.35m-3.828-4.778c-.232.117 0 .233-.116.35.116.116.116 0 .232.116 0-.116.232-.233.116-.35-.116.234-.232 0-.232-.116m8.005 8.274c0-.35-.697-.7-1.045-.466.348.233.696.466 1.045.466m-.697 0c.116.116.348.233.464.35.349-.234-.116-.35-.232-.583-.116.116-.232.116-.232.233M36.891 16.73c.116.233.696.583.928.816.232-.117.464-.233.58-.466-.116-.583-.58-1.049-.812-1.515-.232.35-.348.7-.696 1.165m42.691 41.834c-.232.233.232.466.464.582 0-.233-.232-.466-.464-.582m-1.74-3.146-.348.35c1.044 1.048 1.624 1.864 2.784 2.446-.696-.932-1.392-1.98-2.436-2.797m-2.9-1.981c-.116-.467 0-.816-.232-1.282-.348.233 0 1.165.232 1.282m-.696-1.399c0-.233-.116-.466-.116-.582-.232.116-.116.582.116.582m4.408 3.73c-.116-.35-.116-.584-.232-.933-.58.233-.232.816.232.932m-4.06-7.575c0 .116-.232.116-.348.116-.116-.233 0-.35-.116-.582-.348.116-.232.116-.464.466l.116.116c.116 0 .116-.116.232-.116 0 .116.116.233.232.233-.116.116-.116.233-.232.233q.174.175 0 .35c.116.233.232.233.464.233 0 .116 0 .466.232.466q-.174-.175 0-.35c.116.117 0 .117.116.233.116-.466.116-.699.348-1.049 0-.233-.348-.466-.58-.35m2.436 3.146c.116-.466.116-1.049-.232-1.515-.116.466 0 1.165.232 1.515m-1.16-3.263s0 .35.116.233c0-.116.116 0 .116-.116 0-.117-.116-.117-.232-.117M34.223 5.312c0 .116.116.116.232.116-.116-.116-.232-.233-.232-.35 0 .117.116.117 0 .234m40.951 41.95s0 .116-.116.116c.348.233.464.35.58.7.232-.234-.116-.583 0-.933-.116 0-.232-.35-.232-.233.232.466 0 .35-.232.35m1.392 1.048c.232-.233-.232-.233.116-.466-.232 0-.116-.35-.348-.35 0 .35-.116.7.232.816m4.873 4.312c.348-.35-.116-.35-.116-.7-.232.234.116.467.116.7m-5.569-6.176c0 .233.232.583.464.7-.116-.234 0-.467-.232-.584 0 .117-.116 0-.232-.116m8.005 6.409c-.116.117-.116 0-.116.117 0 0 .116.116 0 .116.348.466.696.233 1.044.466 0-.35-.696-.233-.928-.7m-1.276-1.631-.116.116c.116.117.232.466.464.35-.232-.117-.116-.117 0-.233-.116-.233-.348 0-.348-.233m-.116-.233c-.116-.117-.116-.117-.232 0l.116.116c.116-.117.232-.117.348-.233l-.116-.117c-.116.117-.116.233-.116.233m1.392 1.048c-.116.117-.232 0-.348.233.116.117.116 0 .232.117.116 0 .116-.117.232-.117.116.117-.116.117 0 .233.116-.116.232 0 .348-.116-.116-.117-.116 0-.232-.117v-.116c-.232 0-.232 0-.232-.117m-.812-.35c.232.117 0 .35.232.35 0-.233.116 0 .116.117.116-.117.116 0 .232 0-.116-.117.232-.117 0-.233-.232 0-.348-.35-.58-.233m1.276.583c-.116.117 0 .117-.116.233.232.117.348.117.58.35.116-.117-.116-.233.116-.233-.232-.117-.464-.233-.58-.35m.58.466a.356.356 0 0 0 0 .467c.232-.233.464.116.58.116 0-.233-.348-.466-.58-.583m-1.16-1.281c.116 0 .116 0 .232-.117l-.116-.117c-.232 0-.232.117-.116.234m-.812-.7c0 .117 0 .117.116.233.116 0 .348-.116.232-.233-.116.117-.232-.116-.348 0m1.044.816c.232-.116-.116.233 0 .35.232 0 .464 0 .464.116-.116-.233.116.117.116-.116s-.58-.583-.58-.35m2.088 1.632c-.348-.117-.348-.583-.696-.467 0 0 .116 0 .116-.116-.116-.233-.232-.117-.464-.117l-.116-.116c0 .35.348.233.464.233 0 .233.348.7.696.583m-1.624-2.098c.232.233.232.35.464.35v-.117c-.116-.117-.348-.35-.464-.233m.58.466c.232 0 .348.35.58.35 0-.233-.58-.583-.58-.35M40.603 5.545c0-.233.116 0 .232-.117.232.466.812.932 1.044 1.049-.58-.7-1.16-1.399-1.856-1.632.232.233.58.7.58.7M84.92 50.757c.116.233.696.933.696.467 0 .116.58.35.58.233-.464-.117-1.044-.583-1.276-.7M52.784 12.42c-.232.116-.232.35-.464.466.116.116.116 0 .232.116.232 0 .348-.35.58-.466-.116-.116-.232-.116-.348-.116m8.353 5.477c-.116.116-.348.233-.232.35.232-.117.464.349.696.232.116-.233-.348-.35-.464-.582m8.469 6.642-.232.233c.348.116.58.582.928.466-.116-.233-.464-.35-.696-.7m20.07 21.091c.231 0 .231-.582 0-.582.115.233-.117.466 0 .582m1.275-.116c.116 0 .232 0 .348.116q.174-.174 0-.35c-.232.117-.464.117-.348.234M80.278 33.86c.232.116-.116.35 0 .466.232 0 .465.466.58.35.233-.233-.348-.816-.58-.816m-.348.116c.116.117.232 0 .348-.116-.116-.117 0-.117-.116-.233-.116 0-.348.116-.232.35m9.281 8.857c.116.116.232 0 .348-.117-.116-.117 0-.117-.116-.233-.232.116-.464.233-.232.35M70.998 24.655c.116-.116.58-.466.58-.699-.348.35-.58.35-.58.7m-4.64-6.525c-.117.116 0 0-.117-.117-.232.233-.348.35-.348.816.116-.117.116 0 .232-.117 0-.233.232-.233.116-.35.116-.116.116.117.232 0v-.116c-.116.117-.116 0-.116-.116m4.872 5.593c.116.117.348 0 .348.233.116-.116.464-.35.348-.466-.232 0-.464 0-.696.233m-13.457-14.8c-.116.35-.116.35-.116.584.116.233.348-.117.464.116.232-.233.348-.35.348-.583-.232 0-.464 0-.696-.116m21.461 21.442c.116-.233.116-.116.348-.35-.116-.116 0-.35-.232-.466-.116.35-.232.583-.116.816m-.232-.466c-.232.116-.232.233-.116.466.232-.233.348-.35.116-.466m1.74 1.049c-.116.116-.232 0-.348.233 0 .116.116.233.232.116 0-.116 0-.116.117-.116 0 0-.117-.117 0-.117l.116-.116zm.928-.7c-.231.234-.231.35-.115.7.115-.233 0-.35.231-.583zq0 .174 0 0m-.347.35c-.116-.116-.116.117-.232.117 0 .116.116.116 0 .233.232 0 .232.233.348.233-.116-.233 0-.35-.116-.583m-1.16-1.398c.115-.117.231-.233.115-.35-.116 0-.116.233-.232.117 0-.117.116-.233 0-.35-.116 0-.464.35-.348.466.232-.116.464-.116.464.117m-.465.466s0-.117-.116-.117c0 .117-.116.117-.116.117zc.116-.233.348 0 .58-.233-.116-.233-.348 0-.348-.233-.116 0-.116 0-.232.116.232 0 0 .117 0 .35m10.21 8.74c.115.116-.117.35.115.466.116 0 .232-.117.348-.233-.116-.117-.348-.35-.464-.233M63.804 11.138c-.116.233-.348-.117-.464 0 0 .117.116.117.116.233.232-.117.348.117.58-.117-.116-.116-.116 0-.232-.116m17.982 18.295c-.117.116 0 .116 0 .233-.233-.117-.349-.233-.58-.233.116-.117.116 0 .232-.117-.232-.116-.232.117-.464 0 .116-.116-.232-.233-.116-.35-.233.234-.116.35-.349 0-.348.117 0 .583.233.583-.233.233-.233.35-.465.583-.232 0-.116-.117-.232-.117-.116.117-.232.35-.116.467.116-.117.348-.35.464-.117.232-.233.232-.35.465-.583.232.35.348.117.58.583.116-.35.348-.233.58-.583-.117-.233 0-.233-.233-.35M55.337 2.282c.115.116.347.116.347 0-.116-.233-.232-.117-.348 0m35.382 35.89c-.232.117 0 .35.116.35.116-.233 0-.233-.116-.35M55.22 1.932c.116.117.116.117.116.233 0-.116.116-.116.116-.116 0-.117-.116-.35-.232-.117m36.311 36.823c.232-.117.232.35.464.35l.116-.117c-.116-.116-.116-.233-.116-.35-.116-.116-.464-.116-.464.117m-8.816-9.09c.116-.116.348-.116.348-.349-.232 0-.348.233-.348.35m-7.773-8.273c.116.117.116.117.232.35l.232-.233c-.232.116-.348-.35-.464-.117m16.01 15.848c-.117.117-.117.117-.117.233q.174.175.348 0s-.116-.233-.232-.233M76.565 22.208c-.116 0-.116-.116-.232-.116v-.117c0 .117-.116.117-.116.233.232-.116.232.35.348 0 .116 0 0 0 0 0m-.464-.466c.116-.117.232.116.348-.117l-.116-.116c-.116.116-.348.233-.232.233m-.58-.932c.116.233-.232 0-.232.116.116.35.58-.116.232-.116m-.116.35c0 .116 0 .116.116.116h.116l.116-.117v-.116l-.116-.117c-.116.233-.116.233-.232.233m15.545 15.498c.116-.117.232-.467 0-.467 0 .117-.232.35 0 .467m-14.5-15.033c.115-.233.463.233.463-.116-.116.116 0-.117-.232-.233-.116 0-.348.233-.232.35m-.465-.699c.116 0 .464-.35.232-.466-.116.117-.348.35-.232.466m1.972 1.282c0-.116 0-.116-.116-.233-.232.35.464.233.116.233m-1.392-1.282c.232-.233 0-.233 0-.35-.232.117-.116.234 0 .35m.348.233c.116.117.348-.116.232-.233-.232 0-.116.117-.232.233M87.82 31.996c.116-.233.116.117.232 0 0-.116-.116-.35-.232-.35zm-.348-.699c.232.117.232.35.464.35-.116-.117.232-.117 0-.233-.232.116-.348-.35-.464-.117m-.348-.932.116.117c.116-.117 0-.117 0-.233 0 .116 0 0-.116.116m-10.325-10.37s.116 0 .116.116c.116-.117.116-.35.116-.466-.116.116-.232 0-.348.116.116 0 .232.117.116.233m11.37 11.419c.231.233.231 0 .347 0-.116-.233-.232-.117-.348 0M76.565 19.178l-.232.233.116.117h.116c-.116-.117.116-.117.232-.117-.232-.116.116 0 0-.116-.116 0-.116-.117-.232-.117m10.209 10.954c.116 0 .348-.117.464-.233-.116.116-.232 0-.348 0 .116.116 0 .116-.116.233m.464-.233c.232.116.116.466.348.233-.232-.117-.116-.233-.348-.233m1.16 0c-.116.233-.348 0-.464.116.116.117 0 .233 0 .35.232.233.232.233.232.466q.174-.174.348 0c0 .233-.232.233-.232.35.116 0 .232-.117.464-.117.232.117 0 .233.116.35.116-.35 0-.583.232-.932-.116-.233-.116.233-.348.116.116-.116 0-.233.116-.35-.116-.116-.116 0-.464-.35M24.246 6.01c.116.116.232.233.348.116 0-.116-.232-.233-.348-.116m-4.524 1.748c.116 0 .232-.117.348-.117-.116-.116 0-.233-.116-.35-.116.234-.116-.116-.232.117-.116.117 0 .233 0 .35m-5.8 28.432c-.697-.699-1.509-2.097-2.09-2.796 0 .932 1.045 2.097 2.09 2.796m-1.625-7.108c-.232 0-.464-.116-.58.117-1.276-.933-2.784 1.631-2.32 2.796.116 0 .116-.116.232-.116 0 .932.464 2.447 1.392 3.146-.58-1.282-1.044-2.797-.464-3.962-.116.466.116 1.049.232 1.515.232 0-.116-.466.116-.583.116.816.464 1.981 1.16 2.68-.116-.116 0-.233-.232-.465 0-1.632-1.16-3.496-.116-4.895-.116.35-.232.7 0 .933-.116.233-.116 0-.232 0 .116.582-.116 1.165.116 1.63l.116-.116c.116.233.232.816.58 1.05-.116-.7-.232-1.516-.348-2.215-.116 0 0 .117-.116.117 0-.117.116-.233.116-.35 0-.7.232-1.631.58-2.33.116-.234.464-.35.232-.583-.812.116-1.972.466-2.436 1.398.464-.233.928-.116 1.508-.233.116.233.58.466.464.466m85.499 26.569c-.696-.467-1.74-.816-2.204-.467-.116-.116-.232-.116-.348-.233-.928 0-1.624-.815-2.437-1.281-.464-.35-1.16-.35-1.624-.583-.928-.466-1.624-1.165-2.552-1.515.116.932.348 1.748.232 2.68-.812 0-.812.816-1.044 1.166s-.464.466-.348.815c.58.466 1.508.35 1.624 1.166-.464.35-1.044-.233-1.508-.35-.232.466.232.816 0 1.165-.232.466-.928.117-1.392.583-.232-.117-.464 0-.696-.35-1.044.7-2.088-.932-3.132-1.282-.116-.116 0-.116-.116-.233-.465-.116-1.044-.116-1.276-.582-.349-.117-.58-.117-.697.233.116.233.348 0 .232.116-.464.35-.812-.233-1.276-.233.812.816 2.089 1.748 2.437 2.68-.465-.233-.812-.699-1.277-.699.116.35.349.466.58.7-.231 0-.231-.35-.464-.117l.349.35c-.233.466.812.35.812.932-.233-.117-.117-.117-.349-.35-.115.117-.347.117-.231.233.232 0 .464.35.696.233.232.35.348 1.049.812 1.165.116-.815-.58-1.398-.928-2.33 1.276 1.049 1.044 2.68 1.972 3.729-.116.116-.464.35-.58.116-.696.933-2.088.35-2.9 1.05-.117-.117-.117-.35-.117-.117-.116.233.116.116.232.116.232.816 1.276 1.282 1.508 2.214-.231.117-.115.233-.231.35.115.233.696.582.58.816-.116.116-.232.233-.349.116-.347-.35-.231-.7-.695-.932-.465 0-.813.116-1.277.116-.812 0-1.624-.815-2.552-.815-.116.116 0 .233-.116.35-.464.232-.812-.234-1.16-.35-.696-.35-1.624-.466-2.204-.7.928 1.748 2.784 3.73 2.436 5.477.58 1.748.696 3.496-.232 5.127-.116-.582-.232-1.514-.812-1.864-.116.233.116.35.116.583-.116-.117 0-.117-.116-.233-.232.35.232.699.116 1.048-.812-1.165-1.392-2.563-2.204-3.612 1.16 1.981 1.74 4.078 1.392 6.06-.348-.816-.348-1.749-.928-2.564-.696-1.165-1.856-1.981-2.9-3.146-1.276-1.399-2.553-2.797-3.945-4.079-.116.233-.348.35-.232.583.464.35.928.815 1.276 1.282-.58-.35-.928-.583-1.508-1.166a24 24 0 0 0-2.668 3.613c.812.466 0 .932.58 1.398h-.116c1.044 1.049 2.436 1.864 3.48 2.33-.116 0-.232 0-.116.117.58.35 1.044.583 1.392.932a39 39 0 0 1-3.944-1.864c-.348.116-.58 0-.928-.233-.116.233-.232 0-.348.116-.116 0-.348.466-.348.466-.58-.233-1.16-1.048-1.972-.815 0 .35.58.815.464 1.165-.464-.233-.464-.7-1.044-.816.464.7 1.508 1.399 2.204 2.214-1.044-.815-1.972-1.048-2.9-.582.812.699 1.392.932 2.088 1.398-.696-.35-1.392-.7-2.204-1.165-.232.116-.232.466-.464.466 0 .233.116.35.232.466-.348-.233-.696.233-.928.583.232.233.696.466.58.699-.696-.117-1.276-.466-1.624.35-.116.232-.116.232-.348.466-.232.582-.232.699-.232 1.048-.116.466-.697.7-.697 1.049-.116 0-.232.117-.464.117 0 .116.233.116.117.233-.465.815-1.277 1.514-1.625 2.33-.116 0-.232.233-.348.117-.348.932-1.044 1.514-1.624 2.33.464 0 .812.466 1.044.7-.348-.234-.696-.234-1.16-.583-.348.466-1.044 1.049-1.044 1.398-.116-.116-.116-.116-.232 0-.348.466-.58.816-.928 1.282-.928 1.165-2.204 1.864-2.784 2.913-.116.117-.232-.116-.348.117-.232.233-.348.466-.464.699-.696.816-1.856 1.398-1.972 2.563-.116.117-.233.117-.465.233 0 .117 0 .234-.115.467-.697.466-1.393 1.631-2.32 1.864 0-.117-.117-.117-.117-.117.116-.699.696-1.514.464-2.214.116 0 .116-.116.116-.116 0 .116.116.116.232 0-.116-.117-.232 0-.232-.233.348-.466.116-.583-.116-1.049.232-.233.348-.35.116-.582-.116.116-.116.233-.232.35-.232-.35-.464-.118-.58-.35 0-.117.232-.35.116-.467-.116 0-.116.233-.232.117.232-.233-.116-.117-.116-.117-.464-.35-.696-.699-1.044-1.398.116-.233-.116-.466 0-.7q-.174.176-.348 0c.348-.349 0-.931.58-1.397 0-.234.116-.583.348-.816 1.392-.932 2.553-2.913 3.829-4.312-1.625-1.049-3.249-1.748-4.873-2.68-.348.233-.58.7-1.044.7-.116-.117.116-.117 0-.234-.232 0-.348.117-.464.233-.116-.466-.812-.35-1.16-.466.348.35.812.35 1.044.7-.116 0-.232-.234-.464-.117-.116.233.348.116.116.35-.348 0-.58-.117-.928-.117.232.233.348.233.58.35-.464.233-.812-.35-1.16-.117-.116.466.348.583.58.816-.348 0-.696-.35-1.16-.233 0 .466.812.116.928.466-.58-.233-.116.699-.58.815q.174.176 0 .35c-.232 0 0 0-.116.116h-.464c-.232.117.232.234 0 .35-.464 0-.696.35-1.16.35.464-.233-.116-.7.348-1.05 0-.232-.116-.349-.116-.582.348 0 .464-.233.812-.233 0-.116-.232-.116-.232-.35.116 0 .348.234.464 0-.232-.232-.348 0-.58-.232.232-.117.232-.117.116-.35.232.233.348 0 .464-.117-.116-.116-.348-.116-.232-.233.232.117.116-.116.348-.233.232.117.348.35.696 0-.116-.116-.232-.116-.232-.233.116-.116.348 0 .116-.116-.232-.233-.464-.233-.58-.35-.116.466-.696.35-1.044.233.232-.233.348.117.464 0 .116-.233-.232-.233-.116-.35s.232 0 .348-.116c-.116-.116-.812-.466-1.044-.116.116.233.348 0 .464.233-.116.116-.348-.117-.348.116.116.117.116.466-.232.583 0 .116.348.116.232.233-.232.116-.58.116-.58-.117.116-.233.348.117.348-.116-.116-.117-.232-.117-.348-.35.232-.116 0-.233 0-.35.116-.116.348.117.232-.116-.232-.233-.58.117-.58-.233.348-.116.464 0 .812-.233-.116-.117-.348 0-.232-.233.232.35.464-.117.696 0-.232-.35 0-.466 0-.816.116 0 .232.117.464 0 0 0-.116-.116 0-.116-.232-.233-.232.233-.464-.117.232-.35.58-.116.928-.233 0-.233-.348 0-.58-.233.348-.116 0-.466.116-.699-.116-.233-.232 0-.348-.233.116-.816-1.044-.816-1.508-1.398-.116 0 0 .116-.116.116-.348-.35-.696.233-1.044-.116-.232.466-.116 0-.348.116.116.466 0 .583-.348.932 0-.116 0-.35-.233-.233.116.117 0 .117.116.233-.116 0-.348 0-.348.117 0-.117 0-.117-.116-.233-.232.35-.232.582-.348.699l-.116-.117c-.58.467-.812.816-1.624 1.282.58-.466.928-1.282 1.74-1.398.116-.233.349-.466.233-.816.232 0 .348-.116.58-.116.116-.117.348-.233.348-.35 0-.233-.349-.35-.465-.466-.348.116.116.35-.116.466-.116-.116-.348-.233-.464-.116-.116.35-.116 1.048-.58 1.281-.116-.116 0-.233-.116-.35-.232.117-.464.467-.464.7-.232-.233-.464.233-.464.233s0-.117-.116-.117c-.116.234-.348.234-.464.234-.116.466-.812.466-.928 1.165-.812.233-1.276 1.398-1.972 1.282.696-.933 1.392-1.166 1.972-2.098.696-.233 1.044-.582 1.392-1.165.696-.233.696-.816 1.392-1.399.465-.116.348-.35.813-.582-.349-.35-.58-.233-.813-.466 0 .116-.348.116-.116.35-1.624-1.516-3.016-2.331-4.988-3.73-.58.816-1.044 1.282-1.856 1.515.348-.699.464-1.398.464-2.097-.58-.816-1.624-1.282-2.204-2.098-.116-.116-.232.117-.348-.116-.232-.35-.696-.7-.928-1.166-1.044-.35-2.089-1.63-3.133-2.447.116.117-.116.233 0 .35-1.044.816-2.32 1.515-3.712 1.864l-.464.467c.116-.933.464-1.865.116-2.68-.116-.117-.232-.117-.464-.117-.348-1.049.348-2.098.928-3.146-1.856-2.448-3.48-4.778-4.872-7.225.232-.583-.812-1.515-.812-2.098-.58-.35-.464-1.165-.928-1.631.116-.117.116 0 .116-.117-.116-.35 0-.699-.232-1.048h-.232c-.232.582-1.16 1.048-1.74 1.282-.233.116-.349.35-.465.466s-.348 0-.464.116c-.812.466-1.276.816-1.856 1.165-.116.117.116.117 0 .233-.232 0-.348.234-.464.467-.464-.117-.58.35-1.044.233.232-.233.464-.35.58-.816C.232 53.904.116 54.02 0 53.904c.116-.7 1.276-.933 1.624-1.632.116 0 .232.117.348.233.464-.233.812-.582 1.044-.699 0-.233-.232-.233-.348-.233.116-1.049 1.16-1.515 1.856-2.447 0-.233 0-.35-.116-.583.116.117.116.117.232 0-.116-.582.348-1.281-.348-1.748 0-.233.232-.233.116-.466s-.232.233-.348 0c.116-.233.348-.466.348-.582 0 .116.116.116.116.116-.232.35.116.466.232.7.116-.234.232-.234.232-.467-.464-.466-.348-.932-.696-1.398 0-.117 0-.117.116-.233 0 .116 0 .233.232.35.348 0 .464-.35.928-.35.116.116-.232.233 0 .466.116-.116.232-.35.348-.466-.116 0-.348-.233-.58-.233.232.233-.116.233-.348.233-.116-.583-.232-1.165-.696-1.515v-.583c.348.35.348.35.696.583l.232-.233c-.348-.233-.464-.466-.464-.932.696.233.928 1.049 1.625 1.165.232-.233.232-.583.348-.932.232-.117.348 0 .58-.117.348-.582 1.276-.582 1.508-.932 0-.35-.116-.816.116-1.165.116-.117.348 0 .696-.233.464-.233.58-.7 1.044-.7-.696-1.281-1.972-2.563-2.552-3.845.232-.116.116-.233.232-.35l-.232-.233c-.232-2.447 1.508-6.059 4.64-7.224.464.116 1.044-.233 1.392-.7.116-.116.464.117.348-.116-.116.117-.116-.116 0-.116 0 .116.58.233.58.116 0-.116 0-.116.116-.116-.232-.117-.232-.117-.348-.466.464-.583 1.276-.7 1.856-1.166.812-.582 1.276-1.398 2.089-1.748-.233-.815-1.509-1.515-1.973-2.33.812.699 1.624 1.281 2.436 1.98.465-.116.813-.582 1.277-.698-.116-.583-1.276-1.166-1.276-1.632.232.35.464.7.928.583-.116.116-.116.233-.116.35 1.276.698 1.972 1.864 3.132 2.796.232-.35.58-.7.812-1.049-.116-.116-.348-.233-.232-.35.116.117.232.35.348.117-.58-.233-.928-1.398-1.624-1.398l-.464-.466c.116 0 .116 0 0-.117-.348-.932-3.133-2.563-3.017-3.845 0-.583.697-.932 1.509-1.165-.116-.117-.232-.233-.116-.467.116-.116.232-.116.348-.233.348-.815-.348-1.748-.928-2.563 0-.466-.116-.932-.232-1.282.232 0 .116-.233.348-.233-.116-.466-.697-.466-.697-1.049.233.117.465.117.697.117 0-.117-.232-.233-.116-.35.232 0 .348.117.58.233-.116-.466-.696-.932-.348-1.398-.348-.583-.58-1.282-.58-1.748.232.233 0 .699.464.583 0-.35 0-.816-.464-1.05-.232.117 0 .467-.116.467-.348-1.165 1.508-2.564 2.668-2.447.232.699.928.116 1.508.35-.464-.35-1.16-.117-1.276-.467.116-.116.116-.116.116-.233.348.233.464-.116.812 0 .116-.116 0 0 0-.233.116.117.464.117.232.35 0-.117.116-.233-.116-.117.116.35.58 0 .58.233-.116.233-.348.117-.116.233.116.117.232.233.348 0 0-.233-.116-.35-.116-.466a.35.35 0 0 0-.464 0c.116-.466.928-.35 1.16-.35.232-.116.464-.465.696-.116.116 0 0-.233.116-.116.116.116.116 0 .232.116-.232.233-.464.233-.812.233.116.466.812.117.812.7.232-.117.58 0 .696.349.348-.117.464.116.58-.117.232.35.928.583.812.933-.232-.35-.348.116-.58-.117-.116-.233.116-.35 0-.583-.232 0-.464-.116-.696 0q.348.35.348.7c-1.044-.233-2.088-.933-3.132-.467.116.117.116.117 0 .117.696.583 1.276 1.631 1.856 1.981 0 .117 0 .233.116.466.232 0 .696.35.812.583-.812-.466-1.624-1.282-2.088-1.981.116.116.116.116.232.116-.696-.35-.812-.932-1.276-1.515-.348.117-.232.233-.464.35.464.932 1.392 1.981 2.32 2.797.116-.233-.116-.466-.232-.583.232.233.58.466.58.7-.116.116-.464-.117-.232.116 0 .35.464.116.58.233.116.233.464.582.464.815.464 0 .812.35.812.816.464.233.812.583 1.16.932-.232 0-.348 0-.348.233-.116 0-.232-.233-.348-.116l-.232.233c.232.233.116.466.464.466 0-.233.464-.35.348-.7.232.117.116.234.232.35.116 0 .116-.116.232-.116.116-.35.116-.583 0-.932.348.35.58.582.928 1.049.116-.117.348-.117.464-.117.928.816 1.277 1.282 2.089 1.748.812-.583 1.392-1.282 2.204-1.864-.58-.816-1.16-1.748-1.972-2.215.116-.116.116.117.232 0a.9.9 0 0 0-.464-.466c.116-.116.232.117.348 0-.232-.35-.348-.233-.696-.582.116-.117.116.116.232 0l-.58-1.166c.116.117.348.35.464.35.232-.233.116-.35.232-.583-.116-.233-.116-.466-.232-.699.116-.116 0-.233 0-.233.232-1.398 2.088-1.748 2.668-2.214.464-.35.812-.7 1.044-1.165 0-.233-.348-.466-.116-.7.58.234 1.044.7 1.74.35.232-.233-.232-.35 0-.466 1.972 1.748 3.016 3.146 4.988 5.01.813.117 1.624-.116 2.437-.116q-.174.175 0 .35c.232.116.464-.117.696 0-.116.35.116.35.232.466-.464.466-.928.816-1.392 1.282.116.233.58.815.812.699-.116.466.696.816 1.044.932 3.016-3.03 5.684-5.593 7.888-7.807.58-.583 1.044-1.165 1.74-1.282.117.233.117.816.349.816.115.932-.465 1.515-.233 2.447.349 0 0-.7.349-.7-.117.234.812.234 1.392.234.232.233.232.699.348.932-.116 0-.232-.117-.464.116 0 .233.232.35 0 .583-.696.35-.697 1.631-1.508 2.098 0 .116.115.233 0 .35-.117-.117-.117-.117-.233 0-.348.232-.464.582-.58 1.048 0 0 0-.117-.116-.117-.232.233 0 .7-.348.7-.116.815-1.392 1.864-2.088 2.913.116.116.232.116.348.233.928-.816 1.508-1.748 2.32-2.214.349-.466.813-1.049 1.276-1.166-.116-.35.58-.466.58-.815 0 .233.233.116.349 0 .116-.117-.116-.233 0-.35.928-.466 1.856-1.515 2.9-1.282.348.467.58.933 1.16 1.282.232 1.165 1.508 1.049 2.088 1.399-.116.233-.232.466-.232.699.812.815 1.044 1.282 1.856 1.748-.348.466.116.932-.232 1.515-.116-.117-.232-.117-.348-.234-1.392 1.632-2.436 3.147-3.712 4.662.232.233.464.233.696.466 1.276-1.282 2.552-2.447 4.06-2.447.928.815.696 1.98.928 3.146.348.35 1.044.466 1.74.699 0 .35-.115.816.233 1.165-.465.816-1.277 1.748-1.625 2.447.58.35 1.276 1.05 1.856 1.282.116-.466-.812-.582-.696-1.049.349.35.697.35 1.044.7.58-.35.929-.933 1.74-1.399 0 .117.117.117.233.117 0-.117-.232-.117-.116-.233.58-.233.928-.7 1.624-.933l-.116.117c.116.233.232-.233.348-.117-1.044 1.05-2.204 1.399-2.9 2.448.232-.233.464-.117.696-.233-.116-.117.116-.35.348-.467.928-.466 1.972-1.631 3.016-2.68.464-.466 1.16-.815 1.508-1.398l.232.233c.464-.466.232-.583.58-1.049.232.233.116-.116.348-.233.232.233.58.583.696.816 0 .116-.116.35-.116.466 0 .233.348.7 0 .7 0-.117.116-.35-.116-.35s0 .35-.232.466c.232.116.348.233.348.466.116.116 0-.35.116-.117 0 .117.116.233 0 .35.116.116.232-.117.348 0 .116.233-.348.233-.116.466.116-.233.464-.233.348-.466.348.35.348-.117.58.233.696-.7 1.044.35.928.816.116.233.232.116.348.35.116.582-.464 1.281-.696 1.864.348 0 .696-.117 1.044.116.465.816.928 1.515 1.74 1.865-.115.116-.115.233-.231.466.464.699.58 1.864 1.508 2.33 0 .117-.116.117-.232.117.116.116.348 0 .232.116-.232.233-.464.583-.58.583.232.116.348-.233.58-.233-.348.7-.116 1.515-.348 2.214-.696.233-1.16.466-1.856 1.282-.232-.117-.58-.117-.813.116.232.117.697.466 1.044.816.465-.233.929-.816 1.277-1.282 1.276-1.748 2.9-4.311 4.64-5.36.232-.117.348-.466.58-.466.348.582.232 1.165.464 1.748.58.35 1.16 1.165 1.16 1.631a.64.64 0 0 0-.348.583c.348-.117.348-.466.58-.7 0 .234.232.35.464.583.116-.35.348.117.464-.116.348.35.348.582.696.699.232.466 0 .816-.348 1.282-.58.699-1.276 1.631-1.624 2.33l.348.35a.9.9 0 0 1 .928-.233v.699c.58-.35 1.16.233 1.392.816.348-.117.348-.35.812-.35.116.117.348.35.465.583-.117.116-.349-.233-.465 0 .116.233.232-.117.465.116-.117 0-.349.233-.349.35.465.233.813.466 1.276.466.117.116-.115.233.117.35.115.116.232-.234.348 0 .116.35-.233.35-.349.466.117.116.233.233.349.116.116-.116-.116-.116 0-.233.232.35.116-.233.348-.117.348.234.58.816.58 1.166-.58.233-1.392.35-1.856-.35.115-.116.347-.116.115-.233 0-.116-.347-.233-.463-.466-.233-.117-.349.117-.58 0-.117-.117.115-.117.115-.233-.348-.233-.348-.583-.58-.583-.232.117-.116.233-.232.35.116.233.348.35.464.466 0 .7-.812.7-.928 1.282-.232-.233-.348-.117-.58-.233-.232.116.116.35 0 .466-.464 0-.464.466-1.044.35.116.233-.116.35-.348.466 0 .35.116.699.232 1.048-.116.117-.348.35-.464.35.232.233.116.466-.232.932.928.816 1.392 1.515 2.088 1.865.232.116-.116.35.116.466.116 0 0-.233.232-.117.348.466.696.932 1.276 1.282-.116.117-.348.35-.348.466.232-.116.464-.116.58-.233a2.86 2.86 0 0 1 1.625 1.165c.812.233 1.392 1.515 2.204 1.515.58.583 1.16 1.282 1.74 1.632.116.116.116.233.232.35.58.116.812 1.164 1.044 1.747-.232-.466-.812-.932-1.16-.932 0 .466.58.932.812 1.398-.116.117-.232.233-.348.233-.232-.116-.348 0-.696 0 .116.233-.116.466 0 .7-.232.116-.464.466-.812.699"></path></svg>