<svg
	width="100"
	height="100"
	viewBox="0 0 100 100"
	xmlns="http://www.w3.org/2000/svg"
>
	<path d="M98.4211 31.1902H93.8947C92.5263 29.6794 97.1579 29.5714 94.2105 28.1685L95.1579 28.2764C96.2105 28.2764 86.6316 27.0894 99.2632 26.6577H99.6842C99.6842 26.5498 98.7368 26.5498 100 26.5498H97.2632C96.3158 26.226 94.3158 25.9023 94.1053 25.5785C94.6316 25.5785 95.4737 25.6864 96.2105 25.6864L95.7895 25.0389L98.6316 25.1469C97.2632 24.8231 91.3684 24.2835 94.8421 24.1756C90.7368 23.8519 92.5263 23.636 90.4211 23.5281C90.9474 23.5281 91.6842 23.636 92.4211 23.636C92.1053 23.3123 91.2632 22.6648 89.2632 22.2331C89.2632 22.2331 80.1053 22.4489 75.6842 22.2331C77.0526 21.9094 75.2632 22.0173 73.7895 22.0173L74.7368 22.1252C73.5789 22.2331 71.0526 22.0173 70.3158 22.0173C70.5263 22.0173 70.7368 22.0173 71.0526 22.1252L70.7368 22.0173C71.1579 22.0173 71.4737 22.1252 71.7895 22.1252C72.3158 22.2331 72.7368 22.2331 72.5263 22.341H72.3158C72.6316 22.4489 72.1053 22.6648 71.8947 22.6648L69.7895 22.4489C72.3158 22.8806 68.9474 22.9885 66.1053 23.0964C65.6842 22.8806 65.0526 22.7727 64.3158 22.5569C64.3158 22.5569 55.1579 22.7727 50.7368 22.5569C52.1053 22.2331 50.3158 22.341 48.8421 22.341L49.7895 22.4489C48.6316 22.5568 46.1053 22.341 45.3684 22.341C45.5789 22.341 45.7895 22.341 46.1053 22.4489H45.7895C46.2105 22.4489 46.5263 22.5569 46.8421 22.5569C47.3684 22.6648 47.7895 22.6648 47.5789 22.7727H47.3684C47.6842 22.8806 47.1579 23.0964 46.9474 23.0964L44.8421 22.8806C48.8421 23.5281 38 23.4202 37.6842 23.7439C34.8421 23.7439 38.1053 24.3914 36.5263 24.6073C35.5789 25.0389 33.2632 24.4994 31.2632 24.6073C29.7895 24.8231 33.7895 24.8231 33.8947 24.931L30.7368 25.0389C30.6316 24.8231 29.2632 24.8231 28.4211 24.7152C27.8947 25.0389 23.6842 25.1469 27.8947 25.6864C25.5789 25.9023 23.8947 25.7944 23.5789 25.9023C24.4211 25.9023 25.1579 25.9023 26 25.9023C24 25.9023 26.4211 26.0102 26.8421 26.0102C28.5263 26.4419 18.3158 26.6577 23.0526 27.1973L22.2105 27.0894C25.6842 27.521 29.1579 27.7369 30.9474 28.1685H29.3684L30.7368 28.4923C29.5789 28.4923 28.6316 28.3844 28.2105 28.2764C29.6842 28.7081 27.5789 29.0319 26.9474 29.3556L36.7368 29.8952C34.4211 30.0031 29.5789 30.111 32.6316 30.5427L29.3684 30.4348C22.9474 30.5427 31.8947 31.0823 29.8947 31.1902H26.2105L26.4211 30.8664C24.5263 30.9744 23.2632 31.0823 20.9474 31.0823H21.0526C21.1579 31.0823 21.3684 31.0823 21.5789 31.0823H21.6842C23.3684 31.2981 24.5263 31.5139 24.3158 31.7298C23.6842 32.0535 26.2105 32.4852 22.2105 32.701L25.7895 33.1327L23.4737 33.3485L20.4211 32.8089C20.7368 32.4852 20 31.6219 20 31.0823L18.7368 30.9744C18.6316 31.2981 19.6842 31.7298 19.3684 31.8377C18.7368 31.8377 15.6842 31.8377 13.7895 31.5139L16.5263 31.9456C16.4211 32.9169 16.5263 32.9169 12.9474 33.6723H14.4211C15.1579 33.996 15.8947 34.2119 13.5789 34.1039C12.8421 34.6435 10.8421 35.1831 6.94737 35.291L10.3158 35.6148C10.1053 35.7227 4.84211 35.5069 9.57895 35.9385L10.9474 36.3702C10.6316 36.4781 12.5263 36.8019 10.5263 36.8019C10.4211 36.8019 10.3158 36.8019 10.1053 36.8019C10.2105 36.8019 10.3158 36.8019 10.4211 36.8019C8.73684 37.1256 13.4737 37.0177 11.3684 37.3414C8.94737 37.3414 15.5789 37.881 14.7368 37.9889L9.78947 37.7731C6.84211 37.9889 11.6842 38.4206 11.4737 38.9602C9.68421 39.0681 5.47368 38.9602 1.78947 38.4206C6.10526 39.0681 4.63158 38.7444 6.63158 39.2839C4.73684 39.176 4.42105 39.176 2.73684 38.9602C0.526316 39.284 4.42105 39.4998 4.21053 39.7156C7.68421 40.0394 13.1579 40.5789 13.2632 40.6869H14.4211C16.2105 41.1185 16.9474 41.4423 15.1579 41.5502L13.4737 41.4423L14.2105 41.766L12 41.6581L12.5263 42.0898H13.1579C13.3684 42.1977 14.1053 42.6294 12.8421 42.7373L11.4737 42.5215C7.47368 42.7373 12.3158 43.6006 12.5263 44.2481L10 44.0323C7.47368 44.0323 13.8947 44.356 12.5263 44.5719L9.36842 44.356C13.3684 44.8956 8.42105 44.5719 6.84211 44.6798L10.9474 44.8956L10 45.1115C8.52632 45.3273 4.84211 45.0035 2.73684 44.7877L5.89474 45.2194L2.31579 45.0035C6.42105 45.3273 1.57895 45.0035 3.68421 45.4352C2.31579 45.3273 1.57895 45.2194 0.947369 45.3273L5.89474 46.0827L3.78947 45.651L9.05263 46.0827C12.9474 46.6223 8.31579 46.4065 9.78947 46.7302L8.31579 46.5144C9.47368 46.946 7.26316 46.8381 6 46.946C6.94737 46.946 8.42105 46.946 9.1579 47.1619C9.36842 47.2698 7.26316 47.054 6.73684 47.1619C10.2105 47.3777 12 47.8094 10.3158 47.9173C9.78947 47.9173 9.36842 47.8094 9.05263 47.8094C9.57895 47.9173 10.5263 48.0252 9.57895 48.0252L5.68421 47.7015L9.36842 48.1331C8.31579 48.241 11.0526 48.5648 8.42105 48.349L7.68421 48.241L6.21053 48.9965L3.05263 48.7806C7.26316 49.1044 1.26316 49.2123 6.63158 49.536C3.68421 49.536 8.52632 50.3994 2.52632 49.8598C1.89474 50.5073 7.57895 51.1548 4.42105 51.6944C-0.736842 51.6944 0.736842 52.5577 0 52.9894C1.89474 54.0685 3.68421 54.824 5.05263 55.7952C-2.21053 56.011 7.1579 57.414 2.94737 57.8456L5.78947 58.2773C1.15789 58.4931 6.52632 59.3565 2 59.7881C3.26316 60.004 3.57895 60.1119 3.68421 60.1119C3.78947 60.1119 4.42105 60.1119 6.21053 60.1119C4.94737 60.2198 6.42105 60.6515 2.84211 60.4356L2.52632 60.3277C-1.05263 60.1119 4.10526 60.8673 0.947369 60.9752L4.73684 61.0831L4 61.4069L3.26316 61.299C11.5789 63.0256 -0.842106 63.1336 6.73684 64.7523C2.52632 64.4286 8.94737 65.0761 4.31579 64.9681C-1.57895 65.0761 5.47368 65.6156 6.94737 65.9394C7.1579 65.9394 7.47368 65.9394 7.78947 65.9394L7.1579 66.3711C1.36842 65.8315 11.8947 66.9106 7.05263 66.479C2.52632 67.5581 6.63158 69.2848 4.42105 70.6877H5.89474C5.57895 71.0115 7.36842 71.5511 4.84211 71.7669C2.42105 71.9827 8.63158 72.4144 8.8421 72.6302C11.1579 72.954 7.15789 73.0619 6.52632 73.0619C7.36842 73.3857 12.4211 73.8173 10.1053 74.1411C5.1579 74.1411 14.8421 75.4361 9.26316 75.3282H9.68421C5.68421 75.7598 12.3158 76.5152 8.73684 77.0548C8.73684 77.0548 8.31579 77.0548 8 77.0548L24.8421 78.5657H43.5789L49.8947 78.2419H68.6316L83.8947 77.5944L80.8421 74.7886L87.0526 72.8461L85.8947 67.5581L81.7895 67.0186C89.3684 66.2631 81.0526 64.6444 86.6316 63.7811L83.0526 63.5652C82.9474 63.2415 85.1579 63.3494 85.7895 63.3494C85.5789 60.4356 81.5789 57.1981 86.7368 54.9319C89.1579 54.824 88 53.9606 90.5263 53.9606C86.4211 52.8815 86.6316 52.0181 87.3684 51.1548L87.7895 51.2627L87.2632 50.831C87.5789 50.831 88 50.831 88.3158 50.939C85.2632 50.2915 88.6316 49.7519 90.1053 49.3202L90.5263 49.4281C92.2105 46.2985 86.6316 42.8452 92.8421 40.1473C99.2632 39.176 91.8947 36.8019 97.4737 35.6148C101.053 35.1831 100 31.6219 98.4211 31.1902Z" />
</svg>