<svg xmlns="http://www.w3.org/2000/svg" width="100" height="100" viewBox="0 0 100 100" ><path d="M87.331 28.89c-1.994.947-3.988 1.893-5.982 2.944 2.939-3.574 1.364-9.145-2.624-11.143 3.569-2.628 7.137-5.256 10.495-8.2C94.468 7.867 88.905-2.12 82.19.402 59.31 9.022 36.327 17.642 16.492 32.15c-7.452 5.466-.21 17.976 7.24 12.51.84-.631 1.785-1.157 2.625-1.788 1.049 1.367 2.413 2.523 4.197 2.944a161 161 0 0 0-16.161 10.827c-7.137 5.467-.84 17.45 7.24 12.51.42-.21.84-.526 1.26-.736a174 174 0 0 0-18.68 20.604c-4.408 5.677 4.198 13.982 9.865 9.882 3.778-2.733 7.556-5.361 11.334-8.095.525 4.836 5.352 9.146 10.39 5.677 17.631-12.3 35.577-23.758 55.202-32.588 8.501-3.785 1.155-16.19-7.241-12.51a149 149 0 0 0-9.236 4.415 1384 1384 0 0 1 20.045-14.401c7.662-5.467 1.26-16.505-7.241-12.51"></path></svg>