<svg xmlns="http://www.w3.org/2000/svg" width="100" height="100" viewBox="0 0 100 100"><path d="M16.162 97.119c0 .106.536.106.214 0-.322-.214.43-.107.322-.214-.215.107-.322-.426-.322-.106.322.426-.75-.427-.322 0 .215 0 .215.106.108.32m-.644-3.308c-.107.427.214.213.214 0-.536.106-.429-.427-.75-.214.107 0 .107 0 .107.107-.215 0-.215-.107-.322-.107 0 .32.644.32.751.214m-.215-.854c.215-.107.322.427.322.107-.214 0 0-.214.107-.214.108.107.322.64.322.32-.429-.32.43-.533 0-.853.215.747-.536.32-.75.64m-4.397 0c0-.107 0-.213-.108-.213-.214.427.751.64.43.32-.537 0 .321-.534-.215-.747.107.427.214.533-.107.64m5.041-2.027c.107 0 .322.106.107 0v-.214c.215.214.43-.106.644-.213-.322.213-.537-.427-.644-.107.43.107-.214.32-.107.534m-3.325-.747c-.215 0-.215-.214-.322-.214.215.427-.429.747-.107.854 0-.213.107 0 .322 0-.108-.32-.43-.213 0-.64 0 0 .107.106.107 0m.107-.427c0-.107.107-.107.215 0-.108-.32.107-.32-.108-.427 0 .32-.321-1.067-.214-.427-.107.427 0 .534.107.854m1.073-2.028c-.43-.106.536-.426.107-.64 0 .32-.322-.107-.429-.107-.107.427.214 1.067.322.747m-5.149-1.067c.536.214-.107.107-.107.214-.107.213.429 1.28.107.32-.107-.214.644-.64.215-.96 0 .32-.108.32-.215.426m3.969-.106c.322.213.643 0 .643-.427h-.321c-.215.32.321.427 0 .427-.108-.107-.322-.107-.322 0m-2.467-1.708c.536.107.322.32.322.427 1.072-.854-.537-.32-.322-.427m4.612-2.027c0-.64.43 0 .43-.427-.43.213-.537-.427-.644-.107.429.107-.108.32.214.534m2.145-.64c.322.426.43-.534.751-.107-.214-.107-.536.213-.214.213 0-.107.214-.107.321-.107v-.32c-.429 0-.643.214-.858.32m-.321-.64c0-.108-.108-.214-.215-.214 0 .213.107.213.215.32-.537-.107-.537.213-.751.427.322 0 .322-.214.643 0-.107-.32.537-.534.215-.747 0 .106-.107.213-.107.213m-.644-.214c0 .32-.322.213-.429.427.107 0 .107.106 0 .213.107 0 .643-.427.429-.64m3.861.213c-.321.107.322.107.322.213-.107-.213-.214-.533-.429-.746-.322.213-.107.32.107.533m.537-.213c.322.106.214.106.643 0v-.32h-.214c.107.64-.644-.534-.644-.107.215.106.43.32.215.427m-3.54-.747c-.429-.107-.322.427-.75.32 0-.214-.108 0 0 .106.321.107.321-.32.643-.32 0 .107-.107.107-.107.214.214 0 .214.106.321.213 0-.64-.107-.747-.214-.853 0 .213.107.213.107.32m-5.363-.32c0 .106-.107.106-.215 0 0 .746-.107-.427-.214 0 .107.533 0 .426-.215.746.215 0-.107.214.108.214-.108-.213.643.213.214-.107-.107 0-.214-.106-.214-.213.536 0 .429-.427.75-.32-.107 0-.107 0-.107-.107-.107 0 0-.107-.107-.213m4.29 0c0-.107 0-.107.108-.107-.107.213.214.64.214.32-.321-.427.322.32.215 0 0-.32-.322-.107-.322-.32.107 0 .107-.107 0-.107 0 .107 0 .107-.107.107 0-.32-.43.213-.107.107m5.256-.32c0-.107-.214-.107-.214 0 .214 0 .214.32.429.32-.107-.32.214-.534 0-.64 0 .213-.107.32-.215.32m-1.394.64c.214.213.429 0 .75 0 0-.64-.536-.214-.75 0m.322-.32c.214-.214-.322-.32-.322-.64 0 .106-.322.533-.107.64 0-.214.214-.107.322-.214 0 .107 0 .214.107.214m-1.824-.64c.108.213-.322.32-.214.746h.214c.108 0 .108 0 .108-.106-.43-.32.536 0 .75-.32-.536.106-.321-.534-.321-.32-.215.106-.859-.32-.537 0m3.969 0 .322-.32c0 .106.107.106.107 0-.429-.214-.107-.641-.429-.641.43.427-.107.747 0 .96m-.965-.961c-.215 0-.966.427-.644.747.322-.427.644.427.858.107 0 .106.107.106.107 0-.107 0-.107 0-.107-.107.107 0 .215 0 .215-.107-.644.107-.322-.213-.43-.427 0-.106.108-.213 0-.213m-.858.32c-.43.107 0 .427-.215.64.107 0 .43.427.43.107-.215 0 .106-.213-.108-.213 0 .106 0 .106-.107.106-.108-.64.321-.533.214-1.067-.107 0-.322 0-.322.107.108 0 .215 0 .215.107-.322.106-.215-.32-.644-.214 0 .214-.214.32 0 .32 0-.106.107-.213.215-.213-.108.534.107.107.322.32m1.287-.854c-.322-.213-.537.107-.858.107.107 0 .107.214.214.214 0-.214.322-.214.43-.32.106.106.214.213.214 0m.322.214c-.108 0-.108 0-.108-.107.322-.107.537.534.644.214 0-.32-.537-.107-.43-.64.215.213.43.213.752 0 0 .213.107.213.107.32-.107 0-.215 0-.215.106.215 0 .43 0 .43-.107-.322-.106.214-.426-.215-.426-.107.106-.43 0-.644.213 0-.213-.643-.64-.322-.32.108.107-.429.96 0 .747m-1.395-.427c-.107-.107-.536-.32-.215-.107 0 .107.215.32 0 .32 0-.106-.107-.106-.107 0 .108 0 .108 0 .108.107h.214c0-.213.107-.32.215-.32-.108-.32.107-.32-.108-.427-.214.107.108.427-.107.427m.43-.534c.214.32-.108.534.214.747 0-.213.107-.213 0-.32.107 0 .214 0 .214-.106-.322 0-.214-.32-.429-.32m61.568-.64c0 .107 0 .107-.107.107-.215-.214-.75 0-.644.213.215-.213.644.214.859-.106-.215 0 .107-.107-.108-.214m-60.282.427c-.322 0-.322.213-.643 0-.215.534.643 0 .643.32-.107 0-.107.107 0 .107.108-.214.644-.96.322-.854-.214.427-.322-.533-.214-.107-.215.214-.215.107-.108.534m-1.501-.534c-.108.427-.322-.64-.644-.106.43 0 0 .32.215.32 0-.107.107-.107.214-.107.107.427.644-.107.215-.107m1.716-.746c0-.32.429 0 .322.106-.108 0-.215 0-.215.107h.43c.106-.214.106-.64-.108-.32.107 0 .107 0 .107.106-.107 0-.214-.106-.214-.213.214-.107.536-.107.643-.32-.429 0-.429.213-.643-.107.107.64-.322-.32-.322.107.429.107-.322.534 0 .534m-8.26-1.495c-.214-.106.322-.426-.107-.64 0 .214-.107.32-.214.32s-.107-.106-.215-.106c0 .32.215.32.322.427 0-.107.214.213.214 0m9.332-1.707c0 .214.108.214.108.32-.322.107-.858-.213-.858 0 .214.214.321.107.429.214-.751.533-.108.533 0 1.387.321 0 .429 0 .643.107.107-.214-.107-.747-.214-.32.214 0 0 .213-.215.106 0-.213-.107-.213-.107-.32.536 0-.215-.107-.107-.32.214 0 .321.213.321 0-.321-.534-.214-.427.215-.213.107-.427-.322-.214-.322-.427.215 0 .43-.107.43-.214zm-7.4-1.067c0-.213.321.214.428.214-.214.106-.643-.214-.322 0 .108.106.43.533.43.213-.215 0 0-.107 0-.32-.108-.107-.751-.427-.537-.107m55.562 0c0-.213.214-.213.214-.32-.322.107-.214-.213-.429-.213 0 .213-.107.213-.107.32.107 0 .322 0 .322.106 0 0-.108.107 0 .107m-55.24-.32c.106 0 .32.534.428.107-.214 0 .107-.214-.107-.214 0 .107-.215.107-.215 0 .108 0 .108-.213.215-.213.107.32.107-.214-.107-.107 0 .107-.108.214-.215.427m54.703-.213c0-.214.215.106.215-.107-.322-.214 1.501-.107.75-.32.108 0 .108 0 .108.106-.644.107.107-.533-.215-.64 0 .107-.214.32-.214.107.107 0 .107-.107 0-.107 0 .214-.215.214-.215.32.859.32-.965 0-.429.64m19.951-.32c-.107 0-.214-.107-.214-.214.214 0 .322 0 .429.107.107-.107.107-.32.107-.64.107 0 .215 0 .215-.107-.537-.214-.43.533-.751.213.107.32-.215.214-.43.214v.213c0 .107 0 .107.108.107 0-.534.429.533.536.106m-64.572-.32c0 .106 0 .106-.107.106-.108-.427.107-.534-.215-.747.107.213-.429.32-.107.32 0-.107 0-.107.107-.107-.215.534.536.854.322.427m64.465-.961c.214 0 .214.213.322.213 0-.213.214-.213.107-.427-.215 0-.429.107-.429.214m-62.427 0c-.322-.107-.644-.747-.966-.214.108 0 .215 0 .215.107-.107 0-.107 0-.107.107.429-.107.214.32.858 0m44.621-.427c0 .107 0 .213-.107.213 0-.106 0-.32-.107-.32 0 .107 0 .107-.108.107v.213c.322.64.537-.32.322-.213m-46.552.427c-.322 0 .965-.32.644-.64-.215.32-.322-.427-.322-.107-.107.213-1.18.747-.322.747m64.572-.854c.215.32.322-.213.43-.32-.215-.107-.322-.213-.43-.213 0 .213-.214.32 0 .32 0-.107.322-.107.322 0-.107 0-.214.106-.322.213m-1.072-1.494c-.107-.106-.644-.213-.751 0 .215 0 .43 0 .322.214 0 .213-.215.106-.322.213 0-.32-.107-.534-.215-.64.108.427-.214.427-.107.853.43 0 .751-.213.966-.746 0 .213.107.32.107.106m-72.295-.106c-.108.213-.322.746.107.853 0-.106.107-.106.214 0-.214-.427.644-.213.215-.32-.43.213-.215 0-.43-.213 0 .106-.107.106-.107 0 .108-.107.108-.32 0-.32m74.44-.214c-.322.107.215.32-.107.427 0-.107-.107-.213-.215-.213-.107.426-.321.64-.214.853.107-.213.429-.213.643-.32-.214.32 0 .534.215.213-.43-.426.215-1.067-.43-1.387 0 .214-.106.214-.106.32 0 0 .214 0 .214.107m1.073-.32c0 .32-.43.107-.43.32.215 0-.106.213.108.213 0-.213.322-.213.644-.213-.322-.213 0-.213-.215-.747 0 .534-.858-.213-.644.107.215.213.537.106.537.32m-7.938.427c0-.427.43.213.322-.107-.644 0-.429-.64-.965-.64.322.213.322.64.643.747m-67.361-.747c0 .106 0 .106-.107.106 0-.106 0-.32-.215-.213-.107.32.107 1.067.322.747h-.215c-.107-.534.322-.32.215-.64m11.263.427c0-.107 0-.107.107-.107 0 .107 0 .213.107.213.107-.533 0-.64.107-.96-.429.32-.321.213-.643.64.107 0 .214 0 .214.107.108 0 0 .107.108.107m63.607-.64c.214 0 .214-.107.429-.107v-.32h-.322c0 .213.107.213.107.32-.322 0-.429-.214-.214.106m-63.715-.427c-.429 0-.536.213-.75.213.107 0 .107 0 .107.107-.107 0-.107.106 0 .106.107-.427.214-.106.429 0 0-.213-.107-.213-.215-.32.215 0 .322 0 .43.107.107-.213-.215-.64-.215-.32.214 0 .214 0 .214.106m-9.975-.534c-.215-.213-.858-.107-.43.32.215-.427.215.107.43-.107 0 .214-.322.107-.215.427.537-.213.537.107.644 0 .322 0-.107-.32-.215-.32 0 .213-.107.32-.214.107.214 0 .107-.32.429-.214 0 .107.107.107.107 0-.322-.426-.75-.533-.75-.96 0 .107-.43.427-.108.427 0-.214.322.213.322.32m43.549-.534c.322.107.429.107.643-.106-.107 0-.214-.107-.214-.214.107 0 .107-.106 0-.106-.107.213-.43.106-.43.426m.214-.533c-.429-.107-.107.427-.429.213.107.427.107.534.215.854.322-.427-.322-.64.214-1.067m-37.864 7.47c-.214.427.43.106.322.32-.214.107-.536.427-.107.427 0-.32 0-.427.214-.427.215.213-.107.32.108.32.214-.214-.108-.32-.108-.747-.214.107-.107.32-.429.107m.644-3.308c-.536 0 0 .533-.43.64 0-.32 0-.427.108-.64-.429 0-.536-.214-.75.106.536-.106-.108.214.214.214.214-.427 0 .64.322.427.214-.214.536-.32.536-.747m-.322-.534c-.322.213-.643-.32-.75 0 .214 0 .107.32.214.32 0-.533.536.107.536-.32m-.858 3.735c.215-.213 0-.32-.107-.427.107 0 .214-.107.214-.32-.214-.107-.214-.213-.107-.32-.214 0-.214-.107-.322-.214 0 .107 0 .214-.107.214 0-.107-.107-.107-.107 0 .322.107-.215.213-.108.32.108.107.322.107.322.213-.322-.106-.536-.106-.75 0 .428 0-.43.32 0 .32.214-.32.214.427.428.427-.321 0-.107.534 0 .64-.536.214-.429-.746-.643-.32.322.427-.215.214-.215.32.215.107 1.073.214 1.073.107-.107-.213.43-.213-.107-.32.536-.32 1.394-.64 1.394-1.067.322.214.215.32 0 .427.322.534.644-.854.215-.213 0-.32.214-.32.214-.64-.536-.107-.214-.641 0-.961-.214 0-.214-.107-.322-.107-.107.107-.107.32-.214.32s-.215-.106-.215-.213c.215-.107.537.107.43-.64.321.106.536-.107.321-.32.215 0 .215-.107.322-.214 0 .213.107 0 0-.107.43-.213.43.534.644.214.107-.214-.43-.32-.108-.32.215.106.322.106.43 0-.322-.214-.43-.534-.751-.854.321 0 .321-.213.643 0 .107-.32.107-.64.322-.64-.107 0-.107 0-.107-.107.536-.213.643.64.858.32-.322-.213-.537-.64-.858-.96.321-.107-.215-.32.107-.427.322 0 .322.96.643.64-.214 0-.107-.213 0-.32-.536-.107-.107-.32-.429-.427-.214.213-.429.32-.643.64.214-.427-.107-.32-.107-.747.107 0 .107-.106.214-.106.215.64.858-.427 1.073-.214 0-.32-.322-.64-.751-.96 0 .213-.215.107-.322.213 0-.106-.107-.32-.107-.106.107.426.643 0 .858.32-.322 0-.858.533-.75.32.106.107.32.107.32.213-.106 0-.106.214-.214.214-.107-.427-.214-.107-.429 0 0-.214 0-.427-.107-.427 0 .533-.429 0-.429-.107-.107.534.107.534.215.96.107-.213.214 0 .321-.213 0 .32-.429.534 0 .32-.321.64.322 0 .322.64-.75-.106.107.107.215.107-.215 0-.215.107-.43.107-.214 0-.214-.32-.428-.32 0 .106-.215.106-.215.213.215 0 .322-.213.322 0-.43.534-.751-.64-1.18-.106.429 0-.215.426.107.32.537-.214 0 .213.322.32-.107-.214.215-.534.215-.214-.108.64-.43 0-.751.214.321 0-.108.32-.108.427.215 0 .43-.534.751-.107-.107.32-.643.107-.643.64.321.107.536.107.858-.106-.215.32-.322.213 0 .426-.215 0-.751.427-.43.427 0-.107.108-.107.108 0-.43 0-.536.32-.965.64 0-.213.214-.32 0-.32-.537.32-.322.214-.858.32.321 0 0 .427 0 .427.321 0 .321-.32.643-.32-.107.32 0 .214-.107.64.322.107.75.214 1.072-.106-.107.106-.107.32-.214.32-.43.107-.215.107-.43-.107.644.64.644 1.174-.32 1.174m-5.149-7.577c0 .32.322.854.43.64-.215-.106-.43-.213-.322-.426.214-.214.322.107.322-.107-.215-.32-.108-.107-.43-.107m-.321-.32c0-.106 0-.106-.108-.106.108.106.322.64.322.426-.107-.533.644-.213.215-.747 0 .534-.108 0-.215 0 0 .214-.214-.106-.214.107q.16.16 0 .32m12.55-.533c.321-.107-.108.533.214.427 0-.214.536-.747.214-.427-.107.427-.214-.427-.429 0m-.751-.32c0 .106 0 .106-.108.106 0-.106 0-.213-.107-.213 0 .213-.107 0-.322 0 0 .213-.107.213-.107.32.536 0 .107.427 0 .427.214 0 .214.107.322.107.214-.32-.215-.64 0-.854 0 .427.643.32.322.107m-2.79-.107c.108-.32.323.213.43-.107v-.32c-.322-.213-.537.427-.43.427m.752-.107c0-.213.214-.213.321-.64-.214 0-.429.107-.429.213.215 0-.107.64.108.427m52.451-.64c0-.107 0-.107.108-.107.107.534-.322.32-.322.427.214-.107.322.427.322.107-.215 0 0-.214.107-.214-.107.32.429.427.107.214.107-.427-.429-.854-.322-.427m-52.666.107c0-.107.536-.214.107-.32 0 .106 0 .106-.107.106 0-.213-.107-.32-.214-.32-.108.32 0 .427.214.534m-5.9-2.561c0-.107-.107-.107-.107 0 .215 0-.107.213.108.213 0-.213.321-.213.321-.427-.321-.107.215-.427-.214-.427-.107.32.107.427-.107.64m43.335 0c0-.107 0-.214.107-.214 0-.32-.214-.427-.322-.64 0 .213-.214.32 0 .32 0-.107 0-.107.108-.107.107.214-.108.64.107.64m-32.394-.747c.108 0 .108.213.215.213 0-.534.107-.32.215-.107 0-.106 0-.32.107-.32s.107 0 .107-.107q-.322 0-.644.32m46.338-.96c-.214 0-.429 0-.214.106.321-.32 1.072.427.965-.107-.215.427-.75-.64-.965-.107.107.107.214 0 .214.107m-57.386-.428c0-.32.108.534.322.107-.322 0 .322-.747 0-.427.107.107-.75 0-.322.32m11.37-.426c-.322 0-.536.106-.643.213.536 0 .643-.32.965-.427-.322.214-.536 0-.75-.213.106.32-.43.32-.108.427 0-.427.429-.214.536 0m-1.287 0c-.215.426-.536.213-.75.213.321.107 0 .64-.108.747l-.322-.32c-.322.32.43.32.43.64 0-.213.214-.107.321 0 0-.213-.215-.32 0-.32q.16.32.644.32c0-.213-.108-.213-.215-.107-.215-.426.43-.32.107-.426-.214-.107-.322.426-.322.106.43-.213-.321 0-.214-.213.215-.32.43-.214.75 0 0-.107.43-.427.108-.427-.107.107-.107.32-.214.32-.43-.32.536-.533.107-.854-.107.32-1.073-.106-.322.32m9.225-.64v.213c.107 0 .107 0 .107.106h.215c0-.106 0-.106.107-.106v-.214c-.108 0-.108 0-.108-.106h-.214c0 .106 0 .106-.107.106m23.812.213c.107.32.751-.107.322-.214 0 .107-.215.107-.215 0 .322.107.537-.533.322-.213-.107.107-.536.107-.429.427m-37.542 6.51c.215.64-.858 1.066-1.073.32.215.106.215-.428.108-.108-.322 0-.108.64-.108.748 0-.107.215-.107.215 0-.107 0-.107.106 0 .106.214-.213.643-.213.858-.427 0 .107.107.107.107.214-.214 0-.858.427-.429.213.537-.32.644.32.858.107-.107 0-.107-.214 0-.214.322.107.43.107.751-.106 0 .106 0 .213.107.213 0-.107.108-.107.215 0-.215-.64-.644-.107-.965-.107.107-.32-.215-.32-.215-.426.107 0 .107-.107.215-.107.107 0 .429.32.429 0-.215-.32-.644-.747-.858-.427.536.213-.644-.213-.215 0m1.18-1.282c-.215.32 0 .427.107.427-.322.107-.858.64-.322.854 0-.213.108-.854.43-.64 0 .213-.322.106-.322.213.214 0 .321 0 .429-.107.107-.32 0-.64-.322-.746m-.536-.106c.321-.107.429-.854 0-.427.107 0 .107.213 0 .213-.108-.106-.108-.32-.215-.32 0 .107 0 .427.215.534m2.788-5.656c-.643.534-.965 1.387-.75 2.028-.322 0-.322.213-.43-.107.215 0 .43 0 .215-.107-.215 0-.215.107-.322.107 0-.107 0-.32-.107-.32v.427c.107 0 .322 0 .214.213-.643.427-.536.854-.858.427-.107 0-.107 0-.107.107.322.106.43.32.644.426-.322.107-.322.534 0 .748-.108 0-.108.106-.215.106 0-.213-.536-.427-.214-.213 0 .213.214.213.214.32-.322.32-.965.213-.858.213 0 .214.215.214.215.32-.108 0-.322 0-.322.107.429.214.322.427.214.747.215 0 .43 0 .43-.107-.322-.106 0-.64.107-.747-.43.747.429 0 .643.64-.214.214-.536.214-.75.428.321 0 .428.213.643.32-.215 0-.215.106-.322.106-.107.854.322-.32.751.107-.215-.107 0-.107.107-.213-.107 0-.107-.214-.214-.214-.108.32-.43-.107-.43-.213.43-.214.752-.747.43-.96 0 .106-.108.213-.215.213 0-.214.215-.32 0-.32 0 .106-.322.533-.322.213.108 0 .215-.107.215-.213-.536.106.107-.214-.215-.214-.107.107-.321.214-.429.32 0-.106-.107-.106-.107-.213.537 0 .644-.534 1.073-.64 0 .747.107.213.858 1.067-.215-.64-.43-.214-.644-1.067.215.106.322.106.43 0-.108.32.428.427.107.213 0-.213-.108-.427-.215-.427 0 .107-.107.214-.214.214-.215-.32-.644-.32-.751-.64.107 0 .214-.107.321-.107 0 .106-.107.106-.107.213.215 0 .215-.107.322-.107v-.213c-.107 0-.322 0-.322-.107.215 0 .215-.106.43-.106 0 .32 0 .533.107.747.321-.214.858.213.858 0-.108-.107-.43-.107-.43-.32.108-.32.537-.32.644-.64-.214.106-.536-.214-.214-.214 0 .106.107.106.107 0-.43-.32-.75.427-.43.427 0-.107.215-.32.215-.107-.321.107-.214.64-.643.747.107-.534 0-.427-.107-.854.214.214.321-.213.214-.32 0 .107-.214.107-.214 0 .107 0 .107-.107.214-.107s.215.107.322.107c0-.107.322-.427 0-.427 0 .107 0 .32-.107.32-.108-.533-.215-.747.107-.747.107-.426 0-.213-.322-.32.215-.533.43-.213.751 0 0-.533.536 0 .429-.427-.429-.106-.322.32-.75.214 0-.32 0-.427-.108-.64.107 0 .214-.107.214-.214m-7.722 0c0 .107 0 .107-.108.107-.214-.427.537 0 .43-.32-.108-.107-.752-.107-.752.32.322.107.751 0 .43-.107m12.442-.427c.322.96.644-.64 0 0m-12.335-.106c.322-.214.429.106.643-.107-.643-.107.322 0 .108-.32-.322 0-.537.213-.751.427m9.224-.534v-.213c0-.107 0-.107-.107-.107 0 .213-.322.107-.322.213.215.107-.429.427-.75.427 0-.213.214-.32 0-.32-.108.213-.537.64-.322.747.643-.32.858-.534 1.501-.747m-.858-.107c0-.213.215-.747-.107-.853 0 .213-.107.213-.215.32.108 0 .215.106.215.213-.215.107 0 .214.107.32m1.824-1.067c.107-.213.643.107.858-.106-.215 0 .107-.214-.107-.214-.108.32-.322-.107-.644 0 0 .107-.429.213-.107.32m.858-.96c.214.32.107.853.429.96.322-.533.965-.213 1.394-.853 0 .213.108.32.215.32.107-.214-.107-.64.107-.64 0 .106.107.106.107 0-.214-.214-.429 0-.643.106 0-.213.214-.32 0-.32-.215.32-.322.213-.43.32.108 0 .215.32 0 .427-.321-.32-.536-.213-.857 0 .214-.534 0-.213-.215 0 0-.534-.429-.64-.322-.854 0 .107-.107.107-.214 0-.215.427-.751.64-1.073.747.107.107 0 .32-.107.427.107-.213-.322-.533-.322-.213.107.106.536.427.215.64 0-.107 0-.214-.108-.214.108.32-.107.32.108.427 0-.213.214-.32.429-.213 0-.213 0-.32-.108-.427.751-.107.43-.32.966-.32-.107-.107-.322-.107-.322-.213.43.213.215-.32.43-.32 0 .106.106.106.106.213-.322.107-.107.427.108.427.214-.214-.322-.427.107-.427m-1.395-.747c.537.107.108.32.43.427-.108-.214.643-.214.214-.32-.536.32-.107-.32-.429-.32.107.106-.107.106-.215.213m0 .32c-.107-.107-.321-.107-.643-.107 0 .214 0 .427.107.427-.107-.747.43.32.751-.213-.322-.107-.536-1.28-.858-.747.214.533.214 0 .643.64m4.291-1.6c-.322 0-.43 0-.644-.107 0 .32.215.32.322.426.107 0 .537-.426.107-.746.108.213.215.32.215.426m-1.824-.214v.32c.322.107.537-.747.108-.747 0 .214.107.214.107.32h-.215zm-1.608.854c.107.213-.43.32-.108.32.108-.107.322.106.644-.107 0 .107.107.107.107.213-.322 0-.322.32 0 .32-.107-.32.107-.533.322-.64 0 .107-.215.214 0 .214 0-.214.214-.214.214-.32-.321 0-.429 0-.643.106.107-.747-1.073-.106-.43-.96-.321.427-1.18 0-.965.64 0-.533.108 0 .215 0 0-.106.107-.213.215-.213.214.533.107.32.428.427m.858-1.28c-.215 0-.215-.214-.322-.214-.107.64-.644.426-1.073.64.108 0 .108.107.108.213.321 0 .643-.213.858-.32-.215.32-.108.32-.215.64.322.107.322-.106.43.107 0 .107 0 .107.106.107 0-.32 0-.534.215-.64 0 .106.322.533.322.213-.215-.107 0-.107.107-.213-.644.213-.215-.214 0-.32-.43.106-.965.426-.536-.214m3.11-.534c-.429.32.108-.214-.107-.214-.107.32-.536-.107-.429-.427-.322 0-.322.214-.43.32.215-.32.966.96.966.32m-8.903-.64c.43-.641-.214-.428-.429-.428.215 0 .215.32.43.427m9.976-.214c.214-.32.322-.854.75-.214-.214 0-.214-.106-.321-.106 0 .213.644.533.644.32-.215 0 0-.107 0-.32-.43-.534-.859.106-1.18-.427v.32c.321-.107-.215.32.107.427m29.82-.534c-.215 0-.108.32 0 .107 0-.213.106 0 .32 0-.106-.533.43.107.323-.213-.108 0-.108-.214-.215-.214 0 .32-.536-.32-.214 0 0 .107.107.107.107.214-.43.213-.215-.32-.43-.32 0 .213-.106.213-.106.32.107.106.214 0 .214.106m-29.176-.32c.107 0 .321.534.428.107-.214 0 .108-.214-.107-.214 0 .107-.214.107-.214 0 .107 0 .107-.213.214-.213.108.32.108-.213-.107-.107 0 .107-.107.32-.215.427m-10.512-1.174c0-.106.107-.213.107-.32-.322 0-.536.534-.107.64-.108-.213.429-.32.107-.32zm-1.073.107c.215.107.536-.427.215-.427.107.427-.751-.106-.43.214.108 0 .215 0 .215.213m.322 0h.322c-.215-.533.321-.533-.215-.64.215.106-.107.533-.107.64m22.847-.533c0-.427.429.32.429-.107-.322 0-.644-.747-.858-.214.214 0 .322.107.322.214zm-2.467-.107c0-.107.214-.747 0-.427-.107.534-.107-.107-.215-.107 0 .214-.536.534-.214.64 0-.533.322-.32.429-.106m.858-1.387c.322 0 .75 0 .858-.107-.429-.32-1.394.213-.75-.32-.43-.107-.537.427-.108.427m-11.155 1.92c0-.106 0-.213-.108-.213 0 .213.108.213.108.427.321 0 .536 0 .643-.214-.75.427-.107-.32-.322-.106-.214 0-.214.106-.321.106m.536.214c.214.32 0 .427.107.747-.107 0-.214 0-.214.106.321-.106.321.107.429-.106-.108-.214 0-.107-.215-.214.215-.106.644-.64.43-.747-.108.214-.323.214-.537.214m.536-2.028c0 .427-.429.214-.429.32.107.32.215.107.322.214 0 .427-.536-.107-.858.213.107.32-.107.32.107.427 0-.107 0-.107.107-.107.43 0-.429-.32 0-.32.108.107.43 0 .43.32.107.32-.322.534 0 .747.214-.32.428-.213.643 0 0-.426-.215-.533-.215-.96.215 0 .215.213.322.213 0-.533-.643-.32-.429-.96.322-.107.536 0 .644-.107-.322-.106.214-.32.214-.426-.536 0-.429.853-.858.426m.644-.533c-.108.32-.215-.32-.43-.214-.107.747.644.32.43.214m4.076-.107c-.108-.107-.215-.32-.322-.427 0 .214-.429.107-.322.32.108 0 .108.214.215.214 0-.214.214-.107.322-.214-.108.107 0 .214.107.107m-3.218-.64c.107.427-.215.427-.107.853.429.107.536-.213.858-.32-.751.214-.43-.213-.751-.533m0-.427c-.107-.213.322-.427 0-.427-.644.32.536 1.174 0 .64.322-.32.322-.533.75-.426 0-.107-.106-.32-.106-.107-.215-.107-.537 0-.644.32m11.692-.534c-.322-.213-.537.107-.322.214.322-.32-.107.32.107.213 0-.106 0-.106.107-.106 0 .106 0 .213.108.213 0-.32.214-.96-.108-.747.108.107.215.107.108.213m-9.44-.533c0-.107 0-.214-.107-.214 0 .32.215.32.322.427 0-.853.858.107.75-.106.215 0 0-.427-.106-.427-.644.213-.644-.214-.859.32m-4.505.853c.43 0 .858.32 1.288.107-.108.107 0-.64.107-.747 0 .107.107.107.107.214 0 .213-.215.32 0 .32 0-.214.644-.214.215-.32-.322.213.107-.32.214-.32a1.2 1.2 0 0 0-.858 0c.322-.32-.75-.107-.965-.64.107.213-.322.426 0 .426 0-.107.107-.213.214-.213.107.533.644.106.751.426-.215.534-.429.32 0 .427-.107 0-.107.107-.215.107-.214 0-.429-.107-.429-.213.108 0 .108 0 .108-.107-.215.32-.751.534-.537.534m1.073.64c-.107 0-.107 0-.107-.106.107 0 .322 0 .322-.107-.215-.213-.108 0-.43 0 0-.106-.107-.213-.214-.213.107.32 0 .32.107.64 0-.106.215 0 .322-.213m-1.287 3.416c-.322.106-.322.533-.536.746.321-.106.643-.746.536-.746m-3.647 2.56c.214.107 0 .107-.107.214.107 0 .107.107 0 .213.214 0 .214.107.321.107-.107-.427.43-.213.322-.427-.322.107-.107-.533-.322-.64 0 .107-.214.107-.214.213.429.32.107.107 0 .32m-.322-1.066c.43.426-.107.853.107 1.067.215-.32.215-.534.322-.854.107.107.322.533.43.107 0-.107-.323-.854-.644-.64.321.746 0 0-.215.32m3.325-6.083v.213c0 .107 0 .107.108.107.321-.32.429-.747.429-1.067q-.162.32-.322.32c.107.427.107.64-.215.427m.108.64c0-.106-.322-.533-.322-.213.107.96-.108 1.174-.322 2.027-.536-.106-.107-.32-.43-.426 0 .746-.428.213-.32.32-.108.32.214.32.643.106.107.534-.215.747-.322 1.174-.43-.107.107-.854-.107-.64-.322.213 0 .427-.215.64.215.214.751.96.107 1.174-.107-.32.322-.534 0-.64-.107.106-.107.32-.214.32 0-.107-.107-.107-.107 0 .107.213.321.32.321.64-.107 0-.107.107-.214.107.107-.534-.43-.427-.751-.427 0 .213-.215.213-.215.32.215.32.43 0 .644.32-.644.32-.107 1.387-.215 2.134 0-.32.215.214.43 0-.108-.533.321.107.321-.32-.321-.213-.536.427-.643.107.322-.107.322-.427 0-.64.107-.107.75-.747.322-.747.107 0 .214-.107.321-.107 0 .107 0 .32.108.32.214-.853.643.32.965 0-.536-.107 0-.32-.215-.427-.429 0-.429 0-.965-.106 0-.214-.107-.214-.107-.32.429-.107.429-.32.75 0 0-.107 0-.214.108-.214-.107-.427-.322-.533-.107-.747.107.32.322.64.322 1.067.321 0 .321.214.428-.106-.214-.214-.321.106-.321-.107.322 0 .107-.32.322-.32-.108.426.214.213.214 0-.322-.107-.322.106-.429-.107 0-.107 0-.107-.107-.107 0 .32.214.32-.108.427-.214-.427-.214-.854-.214-1.174.322.107.322-.32.429-.427-.107-.106-.322-.106-.322-.213.215 0 .108-.32.43-.213-.215.106-.215.533.107.64-.108-.534.214-.534-.108-1.067.215.427.644-.32.322 0-.322-.32-.429.213-.643 0 .428-.96.643.106 1.287-.64.321.533-.751.426-.322.746 0-.426.536.214.429-.106-.107 0-.107-.107-.107-.214.214 0 .429.214.429-.106-.537 0 .107-.214-.322-.427-.107.213-.43.213-.644.32-.643-.427-.107-.107-.429-.64.108 0 .108-.107.215-.107 0 .213.107.427.214.427.322-.32-.214-.427-.214-.747.214.213.643 0 .858-.107-.107 0-.107-.107 0-.213-.322 0-.43 0-.43-.214 0-.213.859-.32.43-.64-.215.32-1.073.213-.965.64m2.36-1.387c0 .213.107.213.214.107 0 .533.107-.32.322.106 0-.213.536-.533.214-.64-.107.427-.322.64-.75.427m-8.26.213c-.107-.32.43.107.107-.106 0-.107-.107-.107-.214 0 0-.32-.215-.32-.322-.427 0 .107 0 .32-.107.32 0-.213-.322-.107-.108 0 .108 0 .108.107.215.107 0-.107.107-.214.215-.214 0 .107.107.214.214.32m14.373-.32c-.107 0-.107-.213-.214-.213-.107.213-.966.427-.751.747.429-.64 1.18-.107 1.394-.854-.214.107-.321-.427-.321-.107.107.107.107.427-.108.427m-5.041-.64h.429c0-.213-.429-.533-.429-.32.215 0 0 .107 0 .32m2.36-.107v-.426h-.322c0 .106 0 .426.322.426m-5.042-.426c-.536.213-.75.853-.321 1.173.214-.213 0-.533-.108-.747.108-.213.644 0 .43-.426m.537.426c-.108-.32.214-.747 0-.747-.108.32-.644.64 0 .747m.107.214c0-.107.215-.32 0-.32 0 .32-.536.32-.75.106 0 .214-.108.214-.108.32.536.107.75-.213.965.32 0-.106 0-.106.107-.106.108.533-.321.107-.321.32.322.32.536-.534.75 0 .215-.32-.214-.747.215-.747-.107 0-.215-.107-.215-.213.108-.214.43-.32.43-.747-.322 0-.215-.214-.43 0 0-.107 0-.32-.214-.214 0 .214-.107.214-.107.32.107 0 .322 0 .214.214-.429-.214 0 .64-.536.747m2.789.106c.107 0 .107-.213 0-.213 0 .107-.43.427-.107.427 0-.32.321.107.321.213-.321-.32-.858.107-.643.427.214-.213.536-.107.107-.32.215 0 .43.107.43.213-.215 0-.323.107-.215.32.536 0 .321-.106.107-.213.536-.107.322.534.429.214.322-.107-.322-.214-.215-.427.215 0 .322.213.322 0-.107 0-.214-.107-.214-.214.214 0 .321.214.321 0 0-.213-.643-.106-.643-.427m.75-1.173c.108 0 .215.106.215.32-.322-.107-.214-.107-.643 0-.108.533.321.533.429.853-.108.107-.322.107-.322.214.214.213.322 0 .429-.107 0-.427-.43-.427-.43-.853.323 0 .752-.32.966-.32v-.32c.108 0 .215 0 .215-.108-.43.214-.43.427-.858.32m-.536-.534c0 .107-.214.107-.214.214.214 0 .322-.214.322 0-.215.106-.108.32-.322.106 0 .214.107.214.214.32-.214.32-.429-.213-.321.214.321 0 .214-.214.429 0-.215-.64.643-.32.214-.854 0 .747-.107 0-.322 0m2.467-.107c0-.106.215-.213 0-.213-.429.213.322.534.322.32-.214 0 .215-.32.215-.427.214 0 .429 0 .214-.106-.536-.214-.322.426-.75.426m.43-1.067c-.322.107-.322.107-.751 0 0 .32.321.32.429.427l.321-.32c-.214.213-.214.213 0-.107m-1.288 0c-.107 0-.214-.106-.322-.106-.214.426-.107 1.067.322.746-.107-.106-.322-.533-.107-.64 0 .107.107.214.107 0m1.824-1.067c-.322-.32.536.214.429-.107-.215 0-.108-.32-.215-.32.107.32-.429.32-.214 0-.322 0-.43.214-.322.427.215 0 .322.214.322 0m1.394.107c.322-.32.644-.107.858-.214-.107 0-.107-.213-.214-.213 0 .213-.537 0-.644-.107 0-.106-.107-.32-.107-.106 0 .213.214.32.107.64m1.93-.854c0 .214-.643.214-.214.32 0-.106 0-.106.108-.106.75.32.321 0 .107-.214m-.964-.853c-.215-.107-.644.32-.322.32 0-.32.322.32.322-.107-.108 0-.215 0-.215-.107.322-.106.43-.213.644-.213-.108-.107-.966-.32-.644-.107 0 .107.215.107.215.214m-1.824-.534c0 .107-.107.107-.214 0 .107.427-.322.427-.322.747.107 0 .107.213.214.213 0-.106.107-.213.322-.213.107-.213-.322-.427 0-.427 0 .107.107.107.107 0-.107 0-.107 0-.107-.107 0-.106.107-.106 0-.213m0-.107c.322 0 .536-.106.75-.213-.32-.107-.75-.214-.75.213m16.09 0c.321-.106.321-.427.643-.64-.322.107-.322-.107-.429.107.107.213-.214.32-.214.533M47.16 33.626c0 .214-.215.32 0 .32.107.107.536.32.965.32 0-.106.215-.32 0-.32 0 .107 0 .214-.107.214.107-.214-.43-.427-.322-.214.107 0 .107 0 .107.107-.214 0-.322-.107-.322-.213.108-.107.322-.107.322-.214-.429-.32-.429.534-.643 0m2.467-.213c-.108.427-.108.853-.108.64.108-.32.537-.32.751-.64-.429-.107-.322-.107-.643 0m13.73-.64c.214 0 .214.746.321.32-.107 0-.107 0-.107-.107.214 0 .536.213.214 0-.321-.214-.107-.214-.214-.32-.107 0-.536.32-.215.106m-11.907.213c-.214 0-.107-.32-.214-.32 0 .533-.751.106-.644.747.43-.32.536-.107.107.106.751.107.108-.426.644-.426 0-.107.107 0 .107-.107m14.159-.747c.214 0 0 .107 0 .32.107 0 .214 0 .214.107.966-.107.108-.534.322-.64-.107.426-.536 0-.536.213m-16.411.854c.107 0 .321.106.107 0 .214-.32.429-.214.643 0 0-.107 0-.214.108-.214-.108.214.214.534.214.214-.322-.107.322-.534.43-.214-.108-.32-.108-.32.107-.64-.108 0-.215 0-.215-.107.107 0 .107-.106 0-.106q-.161.32-.322.32c.108-.214.108-.32-.107-.32 0 .213-.215-.107-.215.106.43.854-.536.214-.75.96m-.858-1.068c.214 0 .107.214.214.32-.107 0-.107.107-.215.107 0-.106-.429-.32-.321-.106.214 0 .429.426.107.426 0-.106-.107-.106-.107 0 .107 0 .107.214.214.214 0-.107 0-.214.108-.214.214-.32.214-.213.321-.853 0 .213.537.64.215.32-.107-.32.429-.32.107-.427-.214.427-.214-.534-.429-.107.43.214-.322.107-.215.32m-9.654-1.067c-.215.32 0-.213.107-.213-.322 0-.429 0-.429.213.215 0 .107.32.215.32 0-.213.214.107.214-.106-.107 0-.107 0-.107-.107.107 0 .107-.107 0-.107m15.66-.426c-.322.213-.214-.32-.429.106 0-.107 0-.107-.107-.107 0 .214-.215.32 0 .32 0-.106.965-.106.536-.32m11.585-.214c0 .32 0 .64.322.64.214-.426.107-.533-.322-.64m-21.346.32c0-.107.108-.107.215 0 0-.213.107-.213 0-.32.107 0 .214 0 .214-.107-.321.214-.429-.32-.429 0 .322 0 0 .427-.107.32-.107-.32.107-.32-.107-.426-.215.213 0 .533.214.533m6.65-.533c-.107.32.215.213.322.32.108-.214.108-.214-.107-.107v-.32c-.643-.107-.75.64-.214.107m6.866-.64c-.108 0-.322.213-.108.213 0-.214.644-.107.751 0 0-.214.215-.32 0-.32-.214.427-.75-.32-.75 0 0 0 .107 0 .107.106m-5.578.106c-.537.534.429-.213 0-.32-.108.213-.537-.107-.751-.213-.107.32-.107.96 0 .747.214 0 .107-.214 0-.32.322-.107.75-.107.75.106m7.723-.32c-.215-.107-.43 0-.751-.213 0 .426-.536.213-.43.64.752-.427 1.18-.107 1.717-.747 0 .213.107.32.215.32.107-.213-.108-.64.107-.64 0 .106.107.106.107 0-.429-.214-.429.32-.858-.107.107.534-.215-.107-.215.213.108.214-.107.214.108.534m-6.543-.534c0-.106-.108-.106-.108 0 .215 0 .537.747.322.32 0-.213-.107-.213-.107-.32.429 0 .858-.106 1.18-.213-.107 0-.107-.107 0-.213-.43.106-.215.106-.43-.107.108.427-.214.32-.321.427 0-.534-.107.32-.322-.107-.107 0-.107.213-.214.213m-3.325-1.067c-.108.214.107.747.214.32-.107 0-.107 0-.107-.106.536.213.429.213.75.853-.428 0-.643.534-.107.427-.321-.64.43-.106.43-.32q-.322-.16-.322-.32c.107-.32.429.107.429-.107-.108 0-.108-.106 0-.213-.537-.32-.751-.534-1.287-.534m12.442-.426c.107 0 .215.106.215.32-.322.213-.644.427-.644.747 0-.107.214-.107.322-.107-.108-.534.429-.534.429-.854-.107-.106-.322-.106-.322-.213.107 0 .322 0 .322-.107-.215 0-.215-.107-.322-.107q.16.16 0 .32m-1.073-.427c-.321.106-.536-.214-.643 0 .322 0 .107.32.322.32.107 0 .536-.427.107-.747.107.213.214.32.214.427m-9.224.213c0-.107 0-.107.107-.107 0 .107 0 .214.107.214-.107-.32.322-.534 0-.64-.107.426 0-.32-.322-.107 0 .213-.214.64.108.64m1.072-.213c0-.107.215-.107.215 0-.107 0-.107.106 0 .106.214-.213 0-.32-.107-.64.107-.213.643.107.322-.107 0-.106-.751-.106-.43 0 .322 0-.321.64 0 .64m8.152-1.28c0 .32.751.426.43.106-.322.427 0-.64-.108-.214.108.32-.643-.213-.322.107m-5.577-.321c0 .107 0 .213-.108.213 0-.213 0-.426-.107-.426-.214.32.215.853.322.64-.322 0 .322-.32-.107-.427m-14.159.534c.322-.214.429-.534 0-.747-.107.106-.215.64 0 .747m13.622-.214c-.107.32-.321-.213-.429.107.215 0 .215.107.322.213.322-.32 0-.533.215-.853-.108 0-.215-.214-.43-.107.108.427 0 .32.322.64m6.222-.747c-.43-.213.107-.32-.108-.427-.214.32-.429-.32-.429-.106.108.533-.321.106-.321.32.214 0-.108.213.107.213q.16-.32.322-.32c0 .213.75.534.429.32m-19.951-.213c0-.107 0-.214.107-.214 0 .107 0 .214.107.214-.107-.214.108-.64-.107-.64 0 .213-.43.426-.107.64m14.91-.64c0-.534.321.213.75.106 0-.213-.107-.213-.214-.106 0-.107 0-.32-.108-.32-.214.32-.536-.214-.75 0 .107 0 0 .426.321.32m.965-1.174c.107 0 .107.106 0 .213.429-.107.322-.747.214-.854-.214.32.108.534-.214.64m-.858-.534c-.108.107-.966.214-.751.64-.108 0-.108-.106-.215-.106-.107.32.215.213.43.213-.108-.533.214.107.214-.213-.108 0-.215-.107-.215-.214.215.214.43-.106.644.214-.107 0-.107.106 0 .213-.107 0-.322 0-.322.107.43.213.75-.427.215-.747 0 0 .107-.107 0-.107m-8.045 0c.107-.32.214-.107.322 0-.108-.213.321-.533 0-.64.107.64-.644-.64-.322-.107.322.107-.215.64 0 .747m6.972-.96c0-.107-.107-.214-.215-.214 0 .32.215.32.322.427 0-.107 0-.32.215-.213-.108.213-.108.32.107.32v-.427c-.215-.107-.322 0-.43.107m2.038.32c.107-.427.322-.32.644-.107.107-.32 0-.427.107-.853-.215.106-.644 0-.751.213.536.213-.107.213-.107.427.214.106-.108.32.107.32m-.858-.32c.322 0-.322.32.107.32.107-.427.322-.534.322-.96-.215-.107-.536.213-.215.213.215-.213-.107.533-.214.427m0-.32V20.5c.107 0 .214 0 .214-.107-.321.214-.429-.32-.429 0 .322.107-.322.534.215.534m-7.08-.534c-.214.214-.107.534.108.64.214-.64.536.427.643.107.108-.213-.429-.32-.107-.32.215.213.215-.107.43.107 0-.32-.752-.854-.43-.64 0 .106.107.213.107.32-.322 0-.536.106-.75 0 0-.107.214-.107.214-.214-.322-.213-.75-.534-.965-.107.429.107.643-.106.75.107m8.045-.213c.322 0 .43 0 .43-.214-.215 0 .107-.213-.108-.213-.107.106-.107.32-.215.32 0-.107-.107-.107-.107-.214.108 0 .108-.106 0-.106-.214.106 0 .106 0 .427m-4.076-4.269c.322 0 .43.214.215.32h.214c.108 0 .108 0 .108-.106-.215-.214-.108-.32-.108-.747-.107 0-.643-.214-.322 0 .43.106 0 .427-.107.533m-5.9-.213c0-.107-.107-.214-.321-.214-.107.32.322.32.429.427 0-.213.107-.32.215-.32 0 .107 0 .213.107.213v-.32c-.751-.213-.751-.106-.215.107-.107-.107-.214 0-.214.107M61.213 5.028c-.429-.214-.429.32-.858-.107.107.32-.215.213-.215.427.43-.32.537 0 .859.213.107-.213-.108-.64.107-.64 0 .107.107.213.107.107m.536-1.921h-.321v.213c0 .107 0 .107.107.107 0-.213.214.107.214-.107-.321-.106.215-.213.108-.32-.108 0-.108-.213-.215-.213 0 .107.107.213.107.32m-22.096 26.25c-.214.214-.429-.213-.214.214-.322.214-.322.107-.644.214.107 0 .215 0 .215.106-.108 0-.108.107 0 .107.214-.32.536-.534.858-.854-.322.107-.215-.213-.43-.213-.107.32.108.32.215.427M32.251 42.27h-.215c.108-.427-.214-.32 0-.64-.107 0-.429-.32-.429 0 .322.32.108.853.644.64M18.2 63.718c.214-.106.858-.426.429-.747-.215.214-.322.427-.43.748m-1.502 4.162c.107 0 .322.534.429.107-.215 0-.107-.32-.215-.32-.107.32-.214-.32-.429-.107-.107.32.43.854.215.32m-5.792 25.29h-.215c-.107 0-.107 0-.107.107.214.32-.322.107-.215-.106-.536.64.644.64.537 0m2.681-5.335c-.429.213-.107-.427-.322-.32 0 .213-.214.427-.107.64.322-.213-.322.214 0 .32.322 0 .537-.213.751-.427-.215 0-.215.107-.322.214-.107-.214-.107-.32 0-.427m2.253-4.588c.322 0 .214-.214.429 0-.107-.32-.43-.534-.644-.748v.214c.322.32.322.213.215.534m-1.287 11.951c.107.107.429.107.643.214-.107-.32.537-.32.107-.427-.107.533-.75-.107-.75.213m17.376-8.643c.107 0 .107 0 .107-.107h-.214c-.107 0-.107 0-.107.107.321.213 0 .64-.108.64.215 0 .108.213 0 .32.215 0 .215.107.322.213-.322-.426.644-1.387 0-1.173M95 65.746c-.322.107-.322-.213-.43-.213 0 .32 0 .533.216.64 0-.214.214-.32.214-.427m-6.329 1.814c.215-.213-.107-.32-.107-.747.537-.213.215-.32-.107 0 .107.213 0 .534.215.747m-.965.747c0 .427-.429.213-.429.32.215.32.215.107.322.214-.107.213-.966.32-.644.32.322-.427.43.533.644.213-.322-.32.322-.427.107-.96.536.106.536-.427.858-.64-.536.106-.429.96-.858.533m-3.754-2.988c0-.107 0-.107.107-.107-.107.534 0 .64.107.96.215-.213-.107-.533 0-1.066h-.214c0 .106-.215.106 0 .213M65.824 35.12c0-.107.322-.533.43-.213-.108 0-.215 0-.215.106h.322c.107-.747-.858-.106-.537.107m1.502-2.561c-.107 0-.107-.213-.214-.213 0 .32-.537.64-.108.96.108-.32.108-.427.322-.747m-13.837-8.11c.322 0 .43.213.215-.107.214 0 .322.107.322.214-.108 0-.215.107-.215.213.214 0 .429-.213.429-.427-.322.107-.322-.213-.43-.213 0 .213-.32.107-.32.32m-.214 0c-.322.107-.215-.32-.644-.213.107.533-.536.747-.107.64 0 .107.214.32.214.107-.214-.534.751 0 .537-.534m-.644 1.707c0-.213.215.107.215-.106-.108-.214-.43 0-.43-.214-.107-.32.108-.533.322-.64 0 .213-.429.747-.107.427.215-.534.322 0 .322.107.322-.32.643 0 .214-.427.215-.107.644.106.644-.107-.43.107-.215-.427-.644-.427.108.534-.214-.106-.214.214.107 0 .214.106.214.32-.214 0-.214.106-.321.106 0-.213-.108-.32-.215-.32-.107.32-.429-.213-.644.214.215.213.322-.107.322.106-.536.427 0 .427.322.747m-4.827 5.336h.644c0-.213.107-.213.107-.427-.322 0-.536.213-.75.427m-2.145 3.415c-.107 0-.107.533 0 .213 0-.32.214-.32.107-.427-.536.107-.858 1.174-.75.96.214-.32.428.854.75.32-.643 0 .322-.213-.107-.32-.215.428-.215.107 0-.106-.107 0-.322 0-.322-.107.107-.213.107-.427.322-.533m-4.72 2.988c0 .213-.214.213-.214.32.536.213.107.747.429 1.067-.215.107-.43-.534-.43-.214.323.32-.214.107-.214.32.322 0 .322.214.644.214-.215-.32.536-.32.429-.107-.536 0 0 .214 0 .32-.322.107-.107.64-.107.854-.215-.213-.322.107-.322-.107.322 0 .214-.32 0-.426 0 .213-.107.213-.215.32.215 0 .108.426.322.32 0-.214.322.106.43-.214-.215-.32.535 0-.108-.426.75-.107.107-.32 0-.427 0-.64.429-.854.858-1.068q-.322-.16-.322-.32c-.322-.106-.214.214-.429.214.107-.107.322-.534.107-.214-.214.214-.321.64-.429.854 0-.107-.107-.107-.107-.213.215-.32-.107-.854-.322-1.068m7.938-14.62c.214.107.429.32.643.427.215-.32.215-.854-.107-.747.107 0 .215.107.215.214-.322.213-.644-.214-.751.106m3.218-2.881c-.43.32-1.61 1.067-1.502 1.067.858 0 .858-.427 1.287-.64-.322-.107.322-.213.215-.427m7.08-11.098c-.537.214-.43 0-.644 0 .107.534 0 .427-.215.747.215 0-.107.214.107.214 0-.32.322.32.322-.107-.214 0-.322-.107-.322-.214.537 0 .537-.533.751-.64m.32-9.177c0-.32.323.107.43.107-.215.32.322.106.215.64.643-.32.643.213 1.18.107-.108.106-.108.213-.108.32.107 0 .107-.214.322-.214-.215.107 0 .64-.322.32.107.427.43 0 .536.427.215 0-.214-.32.108-.426.322.213-.322.64.214.853.43.107.108-.427.43-.213-.108.64.214.96.321 1.174 0 .32-.322.106-.322.32.107.213.215 0 .322.213 0 .214-.107.214-.107.427-.322-.64-.215.534-.644.107 0 .213.108.427.215.427.214 0-.107-.214.107-.214.429 0 0 .214.214.427-.536-.32-.321.534-.643-.107-.107.427-.215.534-.322.96-.429-.213.107-.746-.322-.853 0 .747.322 1.28-.107 1.814-.107.32-.214-.107-.429 0 0-.32.43-.213.43-.427 0-.106-.108-.106-.108-.213-.107 0-.107.107-.107.213-.108 0-.108-.106-.108-.213-.107.107-.322.107-.322.213.215 0 .215.64 0 .96-.214-.106-.107-.32.108-.213-.108-.32-.322.107-.43.107 0 .534 0 1.387-.75 1.707 0-.106 0-.106.107-.106 0-.214-.322.213-.322-.214-.321.107.537.427-.214.32.214.107 0 .427.214.427.215 0 .108-.32.108-.427.107.107.107.32.321.214 0 .106-.107.106-.214.106.107.107.107.214.107.32-.322 0-.322.32-.75.32.536.32-.215.107-.215.428.107.32.214-.32.429-.107-.107.32-.644.427-.751.427-.215-.107-.107-.32.107-.214-.322-.427-.322.534-.75.32 0 .107.107.107.107.214.107 0 .214 0 .214-.107.108.107.108.214 0 .427-.107-.107-.214-.107-.322-.107 0-.32-.107-.533-.214-.64-.107.213-.107.427-.215.747.215 0 .215-.107.215-.213.107 0 .214.213.322.213 0 .107-.108.107-.108 0-.321.534-.643.534-.858 1.387-.536-.533 0 .214-.75.214.321-.32.214-.214-.108-.32-.107 0-.107.106 0 .106-.643.427-.214-.106-.322.96 0-.106.537-.213.215-.213 0-.32.214.214.429 0-.107-.107-.322-.107-.215-.32.215 0 .322.534.43.213.429 0-.43.32 0 .32-.108.214-.215-.32-.644 0v.64c-.215-.213-.215-.426-.215.107-.107 0-.214-.213-.321-.213 0 .32.214.32 0 .64.321-.213.107 0 .321.107 0 .107-.107.107-.107 0-.214.107-.107.64-.75.427 0 .213-.108.427.107.427-.322 0-.322.213-.644.64 0 .213.429-.213.644.107 0 .106-.215.106-.215 0-.107.106 0 .213-.107.64-.107-.107-.215-.107-.215 0-.214-.213-.429-.32-.429-.747 0 .213-.107.747.108.747-.322.747-.43.534-.751.96-.108-.106-.215-.32-.215-.106-.214 0 0-.214.107-.214-.107-.213-.214 0-.429-.106 0 .106.108.106.215.106-.107.107-.322.427.107.32-.107.107 0 .427-.322.32.215-.213 0-.213-.107-.426-.107 0-.107.106 0 .106-.215.214-.644.214-.75.64.106.32.214-.213.321-.213.215-.32-.107.214 0 .427.215 0 .322-.213.215-.427.214.534-.322 1.067-.43 1.494-.107.214-.107-.213-.107-.64-.107 0-.107.107-.107.213-.322.107-.215-.213-.43-.213.108.213.644.64.323.854.214.32.429 0 .643.213-.536.214-.536.534-.429.747-.107.107-.322-.107-.643.107 0 .427.214.32.429.213-.108.427-.43.107-.644 0-.214 0-.107.32-.107.427-.107-.107-.215-.32-.215-.107 0-.533-.643.107-.858-.106-.214 0-.107.32-.107.426 0 .214.429.107.322.32.214 0 0-.106 0-.32.214 0 .322.107.429.107.107.534-.644.427-.322.747 0 .32-.43-.533-.322.107-.214 0 0-.534-.214-.64-.43.106.107 1.067.429.747 0 .106 0 .213.107.213 0 .107-.215.107-.215.213q-.321-.16-.321-.32c0 .214-.322.747.214.747-.107.32-.536 0-.643.214-.215-.107.214-.534-.43-.427 0-.107.108-.107.108-.214-.107 0-.215.107-.215.214.322.213-.214.427-.322.854.322.213.43.32.751.746.108 0 .108 0 .108-.106.321.106-.215.213-.215.32 0-.214-.214-.427-.429-.64-.107.213-.322.213-.644.32 0 .106.108.106.108.213 0-.533.643.214-.108.214 0 .106.108.213.215.213-.107.213-.215 0-.322 0a.498.498 0 0 1 0 .854c.107.32.322-.214.322-.32.107 0 .107.106 0 .106 0 .214.215 0 .215-.106.107.106-.108.533-.108.64-.429-.214-.643 0-1.501.107 0 .106.214.106.321.106 0 .214 0 .32.108.32.214 0-.108-.213.107-.213.322-.213-.107.427 0 .427-.107.32-.322-.214-.322-.32-.107 0-.107.106-.214.106.429.32-.108.107-.215.32-.107 0-.107-.106-.107-.213-.644.213-.107 0-.644.64 0 .214.322-.213.43.107-.537.32.214.107.107.64-.108.107-.537.32-.644 0-.215.32-.215.64-.75.64-.108.32.214.214.428.214-.322.427-.429 0 0 .64-.107.32-.107-.32-.322-.213-.107 0-.107.107-.214.107.429.213 0 .426-.215.64 0 .32.322-.107.322-.214.322.214.322.107.644.214-.322-.107-.858.747-.215.64.107-.213.107 0 .107.107-.214.32-.429-.214-.321.213-.322-.32.107-.427-.644-.106.107-.32 0-.32.107-.64-1.501.64-.429.533.108.853 0 .107-.108.107-.108 0-.107.107-.214.32-.429.107.108.32-.107.213-.107.64-.322-.214-.536.213-.965.213.107.64.321.427.75-.106.108.106.322.213.322 0 .108 0 .215.106.215.32.536-.107.107-.534.429-.427-.215-.214-.107-.64.214-.64-.107.106-.107.32-.214.32 0 .106.107.106.107.213.43-.427 0 0 .215.214.107-.107.214-.214.214-.427.107.106.215.106.215-.107.107.427 0 .32.429.64 0 .107-.108.107-.108 0 .43.214.644.214.43.96-.108-.106-.108-.32-.322-.213.107-.106.107-.32.214-.32-.107-.32-.214.214-.322.107.108-.427 0-.214-.321-.747-.43 0-.322.64-.966.427.108-.107.108-.214.108-.32-.215-.107-.215.64-.322.213-.322.107.214.213.107.32-.107.214-.107-.107-.215-.107-.214 0 .108.427 0 .747.108-.106.215-.106.322-.106.215.106-.107.106-.214.106v.32c.107 0 .214-.106.214-.213.322 0-.322.32.215.214-.108.106-.108.213 0 .213-.43 0-.107.32-.644 0-.214.107.108.32-.107.64-.322 0 0-.427 0-.427-.322-.106-.322.214-.644.107.108-.32 1.288-.427.215-.96.107-.214.214-.214.322-.107v-.32c-.644.32-.43 0-.751.107q0 .48.643.64c-.321.107-.536.32-.75.64-.215-.107.214-.427.321-.427-.214.107-.965 0-1.394-.213 0 .32.429.213.644.32v.747c-.108-.32-.644-.107-.644-.64-.107 0-.107.213-.215.213.108.107.322.107.215.64.107-.106.215-.213.215-.32.321.214-.537.854.214.854-.322.427-.429.32-.644.854-.107-.427-.429-.427-.643-.747-.107 0-.107.106 0 .106-.107.214-.215.214-.322.107.107.107.107.213.107.32.215 0 .215-.32.644-.213-.107.213-.215.213-.322.106.322.214.43.747.858.427.108.427-.429.214-.322.427.215.107.644.107.644-.747.107.107.215.107.322.107-.215.427.429.213.75.107-.321-.107-.75-.107-1.072-.427-.107-.214.75.213.322-.107.107-.32.322.213.322.427.107-.107.321-.107.643-.107-.214.214-.214.427-.322.747-.429-.427-.429-.107-.429.32-.321 0-.107-.32-.321-.32-.108.107-.108.32-.751.427 0-.213-.108-.213-.108-.32l-.321.32c-.322-.107.321-.213.107-.427-.215.107-.215.32-.322.427 0 .107.107.107.107.213.322-.106.537-.32.858 0 .108 0 .215-.106.215-.32.107.107.215.107.215 0 .214.107.107.534.321.64-.429.32-.107-.213-.643-.106.322.533-.215.533-.644.747 0 .213.107.427.322.32.322-.213.107-.213.322-.64.214.32.429-.32.75 0 0-.32 0-.427-.214-.427.107-.32.215.32.43.107 0 .106-.108.106-.108.213.107-.107.322-.107.322-.213-.108-.107-.43-.107-.751-.32 0-.214.536 0 .643.106.322 0-.321-.32.215-.213 0-.107-.107-.214-.215-.214.215.107.751-.32.215-.64.214-.107.429-.213.429-.107.215 0 .215-.533-.107-.32-.108.214 0 0 0-.107.322 0 .429.427.643 0 .322-.213-.107.427-.214.427 0 .107.107.107.107 0 .107.214.536.32.858.32-.107-.32-.643-.213-.643-.747.321 0 .107-.32.214-.746-.107 0-.107.106-.107.213-.322-.107-.537-.32-.858-.427 0 .214.107.534-.644.427 0 .213.107.32.215.32-.108.32-.43-.107-.644-.107.107-.747.75-.213.858-.853.215 0 .322.213.644.213s-.108-.747.429-.427c0-.213-.107-.213-.107-.32-.322.107-.322.32-.43.64-.107 0-.107-.106 0-.106 0-.214-.107 0-.321 0 .107-.534.965-.214.75-.96.108 0 .215 0 .215-.108.215.107 0 .214 0 .32.107-.106.322-.106.43-.106-.108-.107-.108-.32-.108-.427-.215 0-.322.107-.322.214-.107 0-.107-.214-.107-.32-.108 0-.107 0-.107.106.107-.64.321 0 .965-.32-.644.32.429.427-.107.427.214.64.536-.534.858-.107-.107-.32.322-.533-.107-.64.429-.107.214-.107.429-.747-.215.64-.43-.32-.108-.427 0-.213-.75.107-.75-.32.857.213 1.287 0 2.145-.32-.108 0-.644-.32-.858.107-.215 0-.322-.214-.215-.427.644.213.215-.214.965-.214-.107-.32-.536.214-.429-.32-.107.427-.214.64-.858.64 0-.32.537-.106-.107-.32.107-.427.214-.107.43 0-.108-.213.857-.854.857-.427.43 0 .215-.64.751-.64v.32h.215c.107.107-.108-.853.107-.213 0 .107.214.107.322.107-.108.32-.215.106-.644.213.536.534.215 0 .858.213-.107.427.107.427.107 0 .215 0 .108.427.215.427.536-.427-.43-.533-.43-.64 0-.213.752 0 .323-.64.321.106.107.64.643.64-.214-.213-.429-.32-.214-.747-.108-.107-.215-.213-.322-.213s-.107.213-.107.32c-.43.213-.215-.32-.644-.214.215-.213.75-.106.965-.32 0-.213-.429-.107-.643-.107 0-.106.107-.106.107-.213-.214 0-.429.427 0 .32-.536.32-.643-.64-1.18-.427 0-.106.537-.213 0-.213.537-.214-.107-.427.108-.747.321.213.429.213.858 0 .214.64.536.213.75.107 0 .32 0 .533-.107.747.322 0 .107-.427.43-.32-.43-.32-.215-.64-.43-1.174.107-.107.215-.107.322-.107-.107-.107-.107-.213 0-.213 0-.107-.107-.107-.107 0-.108 0-.215-.107-.215-.32-.107 0-.214.106-.214.213-.322 0-.322-.32 0-.32-.108-.32-.215.32-.43 0 0-.107.108-.214.322-.214 0-.106 0-.106-.107-.106.107-.32.644.213.322.32.644.106-.215-.534.322-.32 0-.107-.215-.107-.215 0-.214 0 .107-.214-.107-.214.429-.427.536.64 1.18.747 0-.213-.107-.213-.107-.107-.215 0 0-.213.107-.213 0-.213-.215 0-.215.107-.429 0 .215-.427-.107-.32 0-.214.858.106.43.32.32 0 .428 0 .643-.107-.215-.107-.108-.107-.43-.213-.428-.107.215-.107.322-.107 0-.107-.214-.214-.214-.32-.107 0-.107.106-.107.213-.108 0-.108 0-.108-.107v-.213c.322-.107.215.213.43.213-.108-.106 0-.426-.322-.32.107-.106.107-.213 0-.213.321-.32.321.64.858.64-.108-.213-.751-.64-.108-.747-.214-.32-.321-.107-.75-.107.107 0 .321-.533.107-.213-.215 0 .107-.534.214-.213 0-.534-.321 0-.643-.107 0-.32.429-.107.429-.32.214 0 .214.32.322.427.107 0 .107-.214.214-.214 0-.106-.107-.106-.214-.106.107-.214.429-.32.643-.107 0 .213-.643.427-.214.64 0-.107.214-.64.643-.32q-.16-.32-.322-.32c.108-.427.644.64.751-.107.108.107.215.107.322.107-.107.213-.214.32-.214.427-.108-.214 0-.107-.322-.214 0 .107.214.214.214.32.322.107.215-.32.644-.213 0-.32-.322-.64.215-.64-.215-.32.214-.534-.108-.747-.107.106 0 .853-.643.853.107-.32.107-.426-.215-.64 0 .213.107.213.215.213-.108.214-.108.534-.43.427 0-.106 0-.106.108-.106 0-.107-.215-.107-.322-.107.107-.427-.215-.32 0-.64.43.427.536-.214.965.213.215 0 0-.32.215-.32 0-.213-.107-.32-.215-.32.322-.32.644.64.859-.107-.322-.213-.215-.32 0-.64-.322.32-.43.213-.859.107.322-.214.215-.32-.107-.427.107-.214.215 0 .43-.107 0 .107-.108.107-.215.107 0 .427.322 0 .322.213.214-.213.536-.427.858-.427-.43.32-.108.64-.644.854.429.213.107.64 0 .96.429.107.215-.426.429-.32.215-.32 0 .107-.107.214.429-.214.107 0 0 .213.536 0 .107-.427.322-.64-.108-.32-.644-.427-.322-.747.107.107.214.213.214.32.215 0 0-.32-.107-.32 0-.214.43-.107.644-.107.214-.32 0 .32-.322.107.107.213.536.107.643.32.108-.213-.107-.534-.107-.747-.322.107-.214.107-.643 0 .536-.32-.215-.427 0-.747-.108 0-.215 0-.215.107-.107-.214-.322-.32-.322-.64.108 0 .215 0 .215-.107.322 0 .107.533.643.427 0-.107-.107-.107-.214-.107.322-.427 0-.64.107-.854-.107-.107.536.427.107.427 0 .107.108.107.108.214.214 0 .214-.107.321-.107 0-.214-.107 0-.321 0 .321-.214.643-.534 1.072-.747 0 .106-.107.106-.214.106.107.32.322-.213.429.107s-.537-.107-.43.214c.322.106.322 0 .108.427 0 .106.215.213.215.32-.108-.32.214-1.068.107-1.494-.322.32-.322-.214 0-.214-.215-.107-.644-.854 0-.854-.215.214.107.214-.108.427q.322-.16.322-.32c-.107 0-.107 0-.107.107-.215-.107.322-.427.322-.747.536.107.107.107.214.32 0 .107-.107.213-.321.213.214.107.429.747 0 .427.321.747.321.854.643 1.28 0-.32-.107-.426.215-.96-.108.107-.215.214-.215.32-.214-.106.107-.746.43-.64-.108.107-.108.214-.108.32.429.107.429-.213.644-.32-.108-.106-.215-.32-.322-.427.214-.213.643-.32.75-.746.215-.427.108.64-.214.426 0 .214.107.32.107.427.108 0 .108-.213 0-.213.108-.214.322-.107.215.106.214-.106-.215-.746.322-.746-.108.32 0 .213-.108.64 0 .106.108.213.215.213 0-.427.214.107.322-.32.536.213-.537.534.107.64 0 .32-.43.214-.322-.106-.107.106-.107.32-.322.213.215.32.43 0 .644.213-.107.534-.322.214 0 .747-.107 0-.215 0-.215.107-.321-.32-.214 0-.321-.427-.322 0-.43.214-.322-.213-.107 0-.107.107-.215.107 0 .32.43.213.322.64-.214 0-.214.32-.322.427.43.107.108-.64.644-.427 0 .534.322-.107.643 0 0 .107-.107.107-.107.213.108.107.322.107.215.32-.644-.32-.322.107-.966 0 .108.427.537-.106.43.32.536-.32.536.107.643-.746.322 0 .322.213.322.427-.108 0-.108 0-.108-.107-.214 0 0 .107 0 .32-.107.107-.214 0-.321 0 0 .107.107.107.107.213.107 0 .215-.213.322-.213-.108.107.322.107.107.427.107 0 .536-.32.215-.32.107-.534.429.533.321-.107.537.427.108 1.28.108 2.027.536-.64 0-.426.75-.96.859.107.108 1.067.751 1.067-.322 0-.858.747-.858.214-.322.106.108.213 0 .426q.322-.16.322-.32c.214.214.107.64.644.32-.537.747.75.64.321 1.814.108 0 .215-.106.215-.32.107.107.107.32.322.214-.537.213.75.747.107 1.067 0 .32.322-.107.322-.214.322 0-.43.747.107.32.107.107-.107.32-.107.64 0 .214.643-.32.429.32-.43-.426-.43.535 0 .428.214 0-.43.213-.322.213-.107.107-.107.854 0 .64.429.747-.536-.213-.644.32-.536-.106.215-.32-.107-.64.107-.32.107.427.43.214-.43-.214-.108-.534-.323-1.067-.214 0 .215.32-.321.213.107.107.107.213-.108.213.43.427-.107.64.108 1.174-.43-.32-.215.64-.751.214.107.213.322.106.107.32.43-.32.75-.747 1.287-.96-.322.426.644.213.43-.214.214.427.428 0 .75.213-.107 0-.322.214-.322.107-.214.107-.322.32-.107.427.107 0 .107-.107.107-.213.322 0 .43 0 .43.213.214.107.214-.534 0-.427.214-.32.536.214.75.32 0 .214-.322.214-.429.32-.107.214.858-.213.43.214 0-.107.535-.214.214-.214.322-.426 0 .747.429.64 0 .107-.108.214-.322.214.322.427.429-.32.75-.32.323-.213-.321.32-.214.64.215 0 .108-.32.43-.213v.32c-.108.107-.215 0-.322 0 .107.213.214.427.429.32-.108.107-.108.213-.108.32-.321 0-.214-.213-.429 0 0 0 .43.214.644 0 .214-.107-.107.747.214.64-.107.214-.429.32-.643.747.75.214-.322.214.214.32-.107.214-.321.64-.643.32.107.107.322.428-.108.32 0 .108.215.108.215 0 .215 0 0 .108 0 .321l-.965-.32c0 .32.429.213.643.32v.747c-.107-.213-.322-.213-.429-.32-.214 0-.107.427-.107.64.107-.107.215-.213.215-.32.214.427-.215.534.107 1.067-.322.107-.322.107-.215.427-.107 0-.107 0-.107-.107-.215.32-.322 0-.75 0 0-.106.106-.106.214-.106 0-.107-.215-.214-.215-.32-.107 0-.107.106 0 .106-.107.107-.214.214-.322.214.215 0 .858.853.966.426.107 0 .214.107.214.214v.213c-.107-.107-.214 0-.322 0 .108.107.322.214.108.427.107 0 .214-.107.214-.213 0 .426-.107.533.108.746-.108.32-.322-.106-.43-.106.322.32.215.32-.107.427 0 .32.43 0 .43 0 .321 0-.215.213-.323.213.215.214 0 .107 0 .427.215 0 .215-.107.43-.107-.322-.427.321-.106.321.107-.107.213-.107 0-.107-.107-.107 0-.215.214-.322.214 0 .213.322.106.43.106 0 .107 0 .214.107.214 0 .213-.322 0-.322-.107-.215.107 0 .214-.108.427.215-.32.108-.107.644-.107 0 .107 0 .854.107.427.322.107-.214.32-.322.32 0 .107.108.214.215.214-.215.213-.536-.214-.644.426.215-.426.644-.213.322.214 0 .32.537.107.644 0 .214-.32-.107.427-.43.213.108.107 0 .214 0 .32.108-.106.323-.213.43-.32.214 0 .214.747.214.107.108.107.215.32.43.32 0 .32 0 .534.214.64 0 .32-.43 0-.322-.106-.107 0-.107.106-.214.106.321 0 .536.32.429.854.107-.107.214-.107.322-.107 0 .214.107.32.214.32-.107.748-.107.534.322.96-.215.214.214.534-.108.855.108 0 .108-.107.215-.107 0-.214.107-.427-.107-.427 0-.107.214-.107.214-.213q.322.16.322.64c-.214 0-.322.107-.429.107 0 .32.215.533-.107.64 0 .213.214 0 .214-.107.215 0-.107.214.108.214 0 .106-.215.106-.322.106 0 .107.107.107.107.214.322 0 .536-.214.43-.64.106 0 .106.106.106.213.108 0 .108 0 .108-.107.214 0 0 .427-.215.32.107.214.536.107.215.427.107-.107.214-.107.214 0 .215-.213.43-.213.215-.64.214 0 .214.32.322.427.107 0 .214-.107.214-.214.322.214.107.427.858.747-.107.107-.107.32-.214.32 0 .427.321-.106.429.214.214-.534.214-.427.429-.854-.108-.213-.322-.427-.108-.64.215.213.43.213.858.427-.107.106-.214.106-.428 0 .321.747.536.96 1.394.64 0 0-.322.427.214.747 0 .32-.214.32-.321.427.536-.107.107 1.067 1.072 1.067-.214-.747-.536.32-.322-.64-.107 0-.107 0-.107.106-.214-.427.43.107.644.32-.215.534 0 .534-.43.64.323.32.215.32.323.748.214.106-.644-.32-.859 0 .43.213.644.426.859.853-.108.214-.322.214-.43.32 0 .32.322-.32.215.214.107-.427.215-.32.75-.214-.106-.106-.214-.32-.321-.426 0-.214.644.106.644-.32.214 0 .214.533-.108.32 0 .106.108.106.215.106.214-.32.214-.853.858-.747-.322.534.215-.106.322.214.214 0-.108-.427.322-.32-.322.533.321-.107.214.32.107-.107.107-.32.322-.214 0 .214.107.214.107.107.215-.107.215.534 0 .427.215.213.644.107.966.213-.108.534.536.747.75.96 0 .107-.429.428.108.214 0 .107-.215.214-.215.32s.107.214.215.214c.107-.107.214-.214.214-.427.107 0 .107.107.107.213 0 .107.215.107.322.107.107.32-.214.32-.107.747.322-.32.214.32 0 .427 0 .106.214.32.214.106.322.32-.214.32-.321.32.107.107.107.214.107.32.214 0 .322-.213.643-.213-.107.107-.107.214 0 .214-.107.106-.536-.107-.643.32 0 .107.107.107.107.213.107 0 .322-.426.107-.32.215-.32.108.32.215.214 0 .213-.43.106-.322.426-.214 0-.429-.32 0-.213 0-.213-.322-.213-.322-.427-.321.107.43.32 0 .64.215.214.43.32.751.32v.854c.43-.213.322.534.322.747.322 0 .322-.213.644 0 0 .107-.108.107-.108 0 0 1.28 0 1.494-.107 1.494 0 .534.536.64.858.96 0 .32-.429 0-.429 0-.214.427.537 0 .322.427-.43-.426-.322.214-.75.214.214.213.428.107.32.427-.106.32-.75-.32 0 .106.215.107.108.214-.106.214 0 .106.107.106.107.213.107-.107.107-.32.322-.213-.108.213-.108.32.107.32-.107.32-.322-.107-.644 0 .108.213.322.213.108.427.107-.107.214-.107.321-.107.322-.213-.107.213-.321.213 0 .32.429 0 .321-.106 0 .427.43.427.215 1.174-.322 0-.322.213-.644 0 .108-.107.215-.32.322-.427 0-.107-.107-.107-.107 0-.107 0-.107-.214 0-.214-.107-.106-.215 0-.644-.106.108.106.108.213.108.32.214-.32.321-.107.321.213-.321-.107-.429-.107-.643.107 0 .213.214 0 .214-.107.215.107.108.64.43.747.107 0 .107-.107.107-.213.214.106.321.213.429.213-.108 0-.644.107-.108.32-.107.214-.321.107-.214-.106-.107.106-.322.106-.322.213s.107.107.107 0c.322.107-.107.213.108.32.214-.32.75-.107.429-.64.322 0 .322.32.107.427.107.32.215-.107.322.106.322-.106-.108-.213.107-.32.75.32.965.534 1.18 1.067.214 0 .429-.106.429-.213.322 0-.215.64.107.213.215 0-.214.534-.322.214 0 .32.322.32.322 0 .215 0 .322.64.43.106.321.107-.215.534.214.427-.215.107.214 1.494 0 1.174-.108 0-.108.214-.108.32.215 0 .43-.106.322-.32.108.107.215.107.215-.106.107 0 .107.213.214.213 0 .213-.321-.107-.429.213.215-.106.644.534.644.854.214-.534.536 0 .322-.64.107 0 .214.106.214.32.108-.107.215-.213.215-.32-.108-.214-.108-.534-.215-.64.108-.427.322.106.215.32.322-.32.429-.107.643.213.108 0 .108-.107 0-.107 0-.213.322.214.322-.213-.107-.107-.322 0-.644-.213.108-.107.108-.214 0-.214.537-.64.751-.534.966-1.28.322 0-.322.32.214.213-.321.213.215.534-.214.64.107.107 1.287.32.965-.32-.214 0-.214.107-.214.213-.322 0 0-.426 0-.426.107 0 .107.106.214.106.108 0 .108-.213.108-.32-.322-.106-.215.32-.644.214 0-.107.107-.107.107-.214 0-.106-.107-.106-.214-.106.322-.427.322.32.75 0 .215.106.108.533.215.746.644-.32-.536-.746-.107-1.173h.322q-.161.48.321.32c-.214-.32-.107-.107.215-.107 0 .107-.107.107-.107.213.107 0 .107-.106.214-.106 0-.107-.107-.214-.214-.214.214-.106.214-.426.429-.32.107.214-.322.427.107.32-.107.32-.322.534-.43.854.215-.32.645-.427.752-.96.322-.107.322.213.75.106-.428.214.108.107-.107.427.108 0 .108-.106.215-.106.107-.32-.215-.32-.107-.64.536.746.429-1.175 1.18-.107.214-.32.214-.747.214-.854.322-.64.965-.107.75.32-.106 0-.106-.107 0-.107 0-.106-.106-.106-.214-.106-.214.32-.536.64-.75.96.107.107.321.107.214.32.429-.32 0-.32.644-.32 0-.107-.108-.107-.215-.107.215-.427.75.534.75-.213.108.107.43 0 .323.32-.215-.107-.322-.107-.43 0 0 .427.322 0 .322.213.322 0 0-.64.43-.64.107.64-.537.534-.644 1.067.107 0 .107-.106.107-.213.107.106.215.213.215.427-.108.213-.108-.107-.108-.214-.107.107-.321.107-.321.214-.215-.214-.537-.32-.43-.854-.107 0-.214.213-.321.213 0 .107.107.107.107.214.215 0-.644 0-.644-.32-.321.106.108.427 0 .64 0 .213.43.107.43.213-.322.32-.108.534-.108 1.067a.84.84 0 0 1-.429-.426c-.214 0-.214.106-.429.106-.107.32.107.427.107.747-.214 0-.321-.106-.429-.106-.107.213.215.213.322.213 0 .213-.322.107-.214.427-.215-.107 0-.213 0-.32-.108.106-.215.106-.215-.107-.322-.107.107.534-.214.427.214-.213.429.64 0 .32 0 .213.107.213.107.427.107 0 .107-.107.214-.107.215 0-.643.534 0 .64 0 .427-.429-.213-.321.107-.322-.107.107-.32 0-.64-.215.107-.108.32-.322.107.107.213.214.426.214.853-.322-.213-.214-.213-.643-.106.107.106.107.213.107.32.322-.534.107-.107.214.106-.321-.106-.75.64-1.072.427.322.214 0 .427.214.64q-.16.32-.643.32c.107-.213.107-.32-.107-.32 0-.213.321-.106.429-.106-.215-.214-.108-.64-.322-.747-.43.213.214.32.107.64-.322 0-.429 0-.644.107.322.213.215.213 0 .427.215 0 .322-.107.322-.214.108.107 0 .747 0 1.067.108.214-.107-.106-.107-.426-.429.213-.75-.107-.858.853.215-.107.536-.533.858-.213-.107.32-.429.213-.322.747-.322 0-.643 0-.643-.32-.108.106-.215.213-.215.32.215-.32.43.213 0 .106 0 .107.215.107.215 0 .214.107-.108.534.107.854-.322-.213-.43.107-.43.213-.32 0-.106-.106-.106-.213-.108.107-.215.107-.322.107.107.213.107.32 0 .427-.107 0-.107-.107 0-.107 0-.107-.215-.107-.215-.213-.214 0-.214.746-.214.106-.43.32-.751.214-1.073.427-.322 0 0-.427 0-.427-.322.64-1.394-.213-1.394.747-.322-.213-.537-.32-.322-.747-.322.214-.107.32-.107.747-.322 0-.43 0-.215-.213-.107 0-.107.106-.214.106 0 .107.107.214.214.214.107.107-.536 0-.643-.107-.108.107 0 .534-.43.427 0 .107.108.213.215.213-.322.214-.536-.106-.858.214.322-.64-.322.32-.215-.213-.321.106 0 .64.108.746-.322.214-.322.107-.322.427-1.073.214-.966.427-2.253.32v-.426c-.214.426-.214.32-.321-.107-.43.213-.537-.107-1.073-.107.215-.533-.107-.64-.644-.427.215-.213-.107-.213.108-.427-.108.107-.322.107-.322.214-.107 0-.107-.107 0-.107-.107-.107-.322-.107-.215-.32.215 0 .215-.107.43-.107 0-.106-.215-.106-.215 0-.215-.32-.322-.213-.858-.213-.108-.427-.215-.32-.215-.854-.107 0-.107.214 0 .214 0 .106-.107.106-.214.106 0 .214.429.107.322.427-.322 0-.322.214-.644 0 .107.534 0 .107 0 .854.536.427.644 0 .536 0-.214 0-.214.32-.322.427.215 0 .215-.107.215-.214.215.107 0 .214 0 .32-.215 0-.215-.106-.43-.106-.106 0-.214.106-.214.213.108.214.215 0 .644 0 0 .107-.107.107-.215.107 0 .107.108.107.215.107 0 .213-.322 0-.322.213-.107.32-.107-.213 0-.213 0-.214-.322.213-.429-.107.536.533-.214.533-.429.213-.215-.106-.536.214-.215.214-.214.106-.75-.534-1.287-.214.43-.427-1.072-.853-1.501-.853-.215-.64-.43-.854-1.18-1.28 0-.535-.215-.321-.215-1.068.43.107.322-.213.644 0 0-.534-.322 0-.644-.107.215-.213 0-.106 0-.427.322.32.215-.106 0-.213.108-.32.215.32.43.213.107-.426-.43-.106-.215-.426.214.32.429-.427.107-.427 0-.107.215-.107.322-.107-.107-.107-.107-.32-.107-.427.214-.427 0 .32.214.214.322 0-.107-.32-.107-.427-.107 0-.215 0-.215.107-.214-.107-.107-.32.108-.64-.322.106-.322.426-.859.32.215-.32.108-.107-.214-.107 0-.214.107-.214.107-.32-.107 0-.214.106-.214.213.107-.213-.644-.213-.322-.64-.536-.427-.215.32-.751 0 .107-.214.215-.96-.107-.427-.215.107-.215-.534 0-.427 0-.107-.215-.107-.215-.213-.107 0-.214.106-.214.32-.537-.214.107-.107 0-.64-.215.32-.537 0-.858.213.107.107.214.32.321.427-.214.213-.429.427-.858.427v.426c.108 0 .108-.106.108-.213.107.213.429.427.214.64-.214 0-.107-.32-.429-.213.322.747-.429.32-.429 1.067.322-.214.107-.107.107.213-.214-.213-.107 0-.429 0 .322.534-.429 1.388-.214 1.388q-.162.159-.644 0c0 .32.215.426-.214.32.429.213-.108.427.107.64-.107.32-.215-.213-.322-.107-.107 0-.107.107-.215.107 0 .213.108.213.108.32-.108-.107-.215.213-.644 0 .215.64-.643.32-.965.854-.107 0 .322-.534.322-.747q-.323.16-.644.64c-.107-.32-.322.107-.322-.32-.322 0-.322.213-.429.32-.643-.213-.75-.427-.75-.64-.322.533-.43-.107-.859-.107 0-.213.108-.213.108-.32-.215 0-.108.32-.43.213.108-.32 0-1.067-.643-.747 0-.213.107-.213.214-.213-.429-.107-.75-.534-1.18-.32 0-.107.108-.214.322-.214 0-.106-.107-.213-.214-.213-.322.854-.751 2.348-1.18 2.348-.43 0 0-.107-.107-.32-.108 0-.215.533-.215 0-.322.106.215.32-.107.426.107 0 .107 0 .107-.106.107.426.43-.107.43.32-.215-.214-.108 0-.43 0 .322.64-.214.747-.214 1.28-.215-.106-.215-.213-.108-.32-.429.107-.107.427.108.427-.108.213-.215 0-.322 0 .214.427-.108.854-.43.96 0 .107.108.107.215.107-.107.427-.536.534-.858.214.322.426.215.853.215.96 0 .32-.537.107-.322.64-.215-.107-.215-.213-.107-.32-.322.213-.322.64-.644.96.322-.106.322-.533.75-.426 0 .106 0 .106-.106.106-.108 0-.108.107 0 .107-.108.32-.966.64-.751.96-.107.32-.536-.106-.322-.32-.107 0-.107.214-.107.32.214.214.429.32.214.747-.214-.32-.214-.533-.429.107.107 0 .108-.107.108-.213.321.213-.215.64-.43.32.215.106.215.427.43.32-.215.534-.108.107-.108.96-.429-.427-.322 0-.214.214-.322-.214-.644.533-.322.213-.107.107-.43.214-.644.747-.107-.213-.536-.213-.214-.427-.108 0-.108.107-.215.107 0 .213.322.213.215.64-.108-.213-.43-.32-.43.107.537-.213-.321.427-.107-.32-.536.32-.536.427-1.072-.107-.322 0 0 .32.214.214-.107.213-.429.213-.75.213.107-.107.107-.32.214-.32-.429-.214-.644 0-1.18 0 .215-.64-.536-.32-.214-.854-.108 0-.215.107-.215.32-.214-.32-.75-.213-.75-.747-.108.32-.215.107-.323.214 0-.214-.321-.427-.429-.427-.214 0 0-.32.108-.32 0-.32-.322.32-.215-.214-.107 0-.107.107-.107.214-.215-.747-.215-.64-.751-1.174.215-.107.215-.32.322-.427 0-.107-.215-.107-.215-.213-.107 0-.107.106 0 .106 0 .214-.322.107-.429.107.108-.107.108-.213.108-.32-.322.427-.644-.213-.966.427-.107 0-.107-.107 0-.107-.214-.427-.858.107-.858-.32-.107 0-.107.213-.107.32-.215-.534-.858.32-.644-.213-.107 0-.214.106-.214.213s.107.107.214.107c-.107.213-.214.32-.214.427-.108.213-.215-.107 0-.107 0-.213-.215.107-.215-.107-.322 0 .215.214 0 .427-.214-.107-.322-.32-.75-.32.107.107.214.213.428.213-.107.107-.107.427-.107.747-.429-.64-.214.64-.214.747 0 .534-.966.64-.644 1.388-.107 0-.215-.214-.322-.214 0 .107.107.214.215.214-.537.32-.108.533-.858.64-.108 0-.108.107-.215.107 0 .106.215.106.322.106-.215-.106-.215 0-.215.32-.322.214-.643 0-.643.427-.43-.106-.858.534-1.18 0-.322 0 .214.214 0 .427-.965-.32-.536.214-.965-.427-.108 0-.108.214-.108.32-.214-.106-.536-.106-.429-.64.107 0 .107.107.215.107 0-.107-.108-.107-.108-.214-.214 0-.214.32-.214.64.107.428-.107-.426-.215-.426-.107 0-.107.213-.107.213-.214-.106-.322-1.067-.644-.32-.107-.107-.536-.854-.643-.213-.322-.107.214-.427-.107-.64-.108 0-.215.106-.215.213.107 0 .107 0 .107-.107 0 .534-.214-.32-.75-.32.107-.32.107-.64-.322-.64 0-.32.214-.214.107-.64-.215 0-.107.426-.215.426-.428 0 .43-.64-.214-.64.215.64-.107-.32-.429-.107.322.32 0 .534-.215.747 0 .214.215 0 .215-.106.322.213-.322.533-.43.747.108.32.215-.214.323-.107.214.107-.322.427-.644.427.107.32.322-.107.644 0-.322.213-.108.32-.215.747-.107 0-.107-.214-.214-.214-.108.107 0 .214-.108.64h-.321c0-.106.107-.106.214-.106-.322-.427-.429.427-.75.427 0 .213.214 0 .214-.107.322.107-.322.213-.108.64-.214 0-.214-.106-.321-.106.322.96-.644 0-.751.853-.644-.213-.858-.107-1.502-.107.215-.32.108-.106-.214-.106.214-.214 0-.107 0-.427-.108.32-.43.213-.215-.107-.214.214-.322-.213-.429.214-.107 0-.107-.107 0-.107.107-.427-.643-.213-.214-.64h-.644c.322.427-.107-.107-.215.213-.214-.107-.107-.32.108-.213 0-.32-.43 0-.43.106-.214-.106.215-.426.322-.426-.214-.214.108-.427-.107-.64-.107.106-.214.64-.429.96 0-.427-.536.106-.643.427-.215 0-.215-.107-.215-.214-.107.32-.536.427-.107.64.107 0 .214-.106.214-.213.43 0-.429.32 0 .32-.321.107-.321 0-.643.213.107.32.214-.106.429 0-.322.214-.43.534-.966.64-.107.107-.107.32-.321.214.107-.32.536-.32.429-.747-.215.32-.322.32-.751.107 0 .427.107.533-.322.747 0 .106.215.106.322.106v.427c-.644-.106 0 .427-.43.107-.107.427.43.213.43.32-.322 0-.322.534-.751 1.067-.322-.106.215-.32-.107-.427-.43.107-.215.214-.215.427-.536-.106-.322-.32-.429-.747-.429.107 0 .427-.322.64 0 .214.322-.213.43.107-.108.107-.108.32-.215.32.107.32.429-.106.429-.213.214.534-1.716.854-.858 1.707-.107-.106-.322-.106-.43-.106.108.213.108.427-.107.213-.107 0-.107.107-.214.107 0 .213.75 0 .322.32.107-.107.214-.107.322-.107 0-.106-.108-.106-.108-.213.322-.214 0 .533.322.427-.107.32-.214-.107-.429 0 .107.106.322.106.215.32-.322-.107-.43-.107-.108.106-.214.107-.75.64-.429.96.108 0 .215-.106.215-.212.322.106-.644.853-.644.106-.214.32 0 .427-.107.854-.107-.107-.215-.213-.215-.32-.214 0 .108.427.215.427.429 0-.107-.427.322-.32-.215.64-.858.533-.644 1.067-.107 0-.322-.534-.429-.107.322-.107.43.747.322.427 0-.32-.322.106-.215.32h-.321c0-.214.429-.64-.108-.64 0-.107.108-.107.215-.107 0-.214-.43-.107-.43-.214.537.427 0 1.067.43 1.28-.107.321-.215-.213-.322-.106 0 .214.107.214.107.427-.322-.32-.107.32-.643.213.107-.426.322 0 0-.426-.108 0-.537.32-.215.426-.107.107-.643-.106-.75-.106-.215.106-.215.427-.322.64-.108-.107-.108-.32-.322-.213.322-.534-.322-.32-.215-.854-.429.64.322.747-.214 1.707-.43-.106-.322.214-.644 0 .107-.106.536-.533.215-.747 0 .107-.215.96-.751.64 0 .107.322.534.322.214.107 0 .107.107.107.213-.107.107-.215.107-.322.107.322-.427-.214-.213-.214-.32-.108.107 0 .32-.108.747-.107-.107-.107-.32-.322-.213 0-.32 0-.534-.107-.96-.214.213-.107.426-.643.426q.16.32.322.32c0 .214-.215-.107-.215.107-.107 0-.107-.214-.215-.214-.107 0-.107 0-.107.107-.214-.213.215-.427 0-.853.215 0 .107-.32.43-.214 0-.213-.108-.427-.323-.32 0-.214.43-.107.43-.214 0-.32-.322.32-.322-.106-.108 0-.108.213-.215.213 0 .107.107.214.322.214 0 .32-.75.426-.43.64-.535.32-.214-.427-.75-.107 0-.213.107-.32.215-.32-.108-.107-.322-.213-.108-.213-.107-.32-.214.32-.429 0 0-.32.322-.32.107-.854-.321.534-.428-.534-.858-.64-.107-.96.322-1.388.108-.427.214.107.75-.32.858.32.429-.107.214-.32.322-.64-.108 0-.322.213-.108.213-.643.214 0-.533-.214-1.067.107 0 .322.214.107.214 0 .32.536-.107.322.32.214 0 .214-.107.322-.107 0-.107-.108-.107-.108 0-.214-.32-.643-.534-.965-.854.214.214.858 0 .43-.213.106.106.535.32.964-.107 0-.107-.107-.107-.107-.213-.107 0-.107.213-.214.213-.215.32.107-.32.214-.427-.322-.106-.214.214-.322.32-.107-.106-.214-.32-.643-.213 0-.107 0-.213-.107-.213.214.106.643-.64 0-.748 0-.213.321 0 .321-.213.215.107 0 .214 0 .32.322-.213.215-.213.644-.106.214-.32-.75-.214-.107-.32 0-.107-.322-.107-.322 0-.215 0 0-.854.322-.64 0-.321-.322-.321-.322 0-.215-.321.214-.214-.107-.641.429.107.643-.534.429-1.067.214-.107.643-.32.858-.107 0-.32-.537-.213-.43-.64.108.106.215.106.322.106 0-.213-.321-.106-.214-.426.214.106.322-.214.107-.214.107-.213.215 0 .322 0-.214-.213-.322-.533.107-.213 0-.107-.107-.214-.214-.214.107-.106.429 0 .643-.213 0-.213-.214 0-.214.107-.215.106-.43-.64 0-.427 0 .107 0 .107-.107.107.429-.107.536.426.75.213 0-.213-.321-.747.108-.427-.215-.213-.322-.427-.43-.747 0-.213.322.214.322-.213.322.107-.107.32-.107.427.322 0 .215-.32.43-.427 0-.214-.43-.107-.43-.32-.214 0 .751-.107 1.073-.32-.108-.214-.322-.107-.108-.32-.214.106-.429.213-.321.426-.108-.106-.322-.213-.322 0-.215 0 0-.106 0-.32.75.427.214-1.28 1.18-.854-.215-.213-.215-.747-.322-1.067.43.32.43-.213.75 0 .108-.427.323-.427.323-.853.107-.107.536 0 .75-.214-.429-.213-.429.427-.858-.32.215 0 .215.107.322.107-.107-.107-.107-.214 0-.214-.214-.213-.322-.533-.75-.427 0-.213.321-.106.428-.106 0 .106 0 .213.108.213.107-.106.214-.32.321-.427-.214-.32-.75-.213-1.072-.427 0 .427.75.107.643.64-.214 0-.107-.32-.429-.213.322.107.108.427-.107.107-.107 0-.107.213-.215.213.108.107.322.107.215.64.107-.106.215-.213.215-.32.107.107.214.748-.215.64.107.214.644 0 .43.428-.323.32-.537 0-.323.427-.429 0-.322-.534-.643-.64 0-.107.429-.214.322.106.321 0 0-.427-.215-.32.322-.107 0-.32.215-.427 0-.32-.537-.107-.43.107.537.64-.536-.427-.321.213-.215.107-.215-.213-.644.107-.107-.32-.107-.32.107-.64-.643.427-.75 1.173-1.287.747 0 .106.107.106.215.106-.215.214 0 .107 0 .427-.322-.213-.322.747-.43.747-.107.32-.428-.213-.107-.32-.321.107-.429.427-.75.427.107.107.107.213 0 .213.107.32.214-.32.429 0-.108.107-.108.32-.108.427.108-.107.108-.32.322-.213.107.213.107.32 0 .427-.322.106-.214-.32-.643-.214 0-.107 0-.107.107-.107-.107-.32-.215.107-.322-.106.536.32-.214.747.215.853-.322.214-.43-.106-.966.107.215.214-.107.214 0 .64.215 0 .107-.32.43-.213-.537-.427.428-.32.75-.107.107.214-.536.214-.429 0-.322.214.215.534-.107.747.214 0 .214-.106.322-.106.107.32-.966.96-.751 1.387-.215.32-.644-.214-.858.213.107.107.214.107.643.213.107.32-.322.32-.429.427.43.64-.214 1.708-1.072 1.494.214.107.321.32-.108.32.107.107.322.107.215.32-.107-.106-.322 0-.107 0 0 .214-.215 0-.215-.106-.215.107-.215.32-.429.107 0 .106.214.32.214.106.322 0 .108.427.43.32-.215.107-.108.534-.43.427.108.107.215.214.322.214-.107.106-.107.427-.322.427 0 .213.215 0 .215-.107.214.427-.75.213-.322.747-.107-.107-.322-.214-.322 0-.321 0-.321-.32-.107-.427-.643.107.322.64-.214.64.107.214.214 0 .321 0 .322-.32-.429.427 0 .427.322-.213-.214.32-.321-.107-.215.214-.108.747-.644.427.215.214.215.107.107.427h-.643c.429.214.321.214.429.747-.644 0-.537.107-.43.64-.107-.32-1.5.214-1.286-.64-.215 0-.322.213-.215.427 0 .107.215.107.215.213.214.214-.43-.213-.644.107.215-.32.107-.427.107-.96-.214 0-.214.106-.322.106 0 .214.108.427.322.32-.107.32-.214.107-.429.107 0 .214.107.32.215.32-.215.214-.751-.32-1.073-.32 0-.213.322.214.322-.213 0-.214-.107-.427-.322-.32 0 .106.107.106.215.106 0 .427-.43-.106-.322.32-.536 0-.644-1.173-.215-1.067-.107-.32-.214.107-.429 0 0 .107.108.107.215.107-.537.427-.322-.747.107-.32 0-.107-.107-.107-.107-.213-.43.64-.537.426-.966.32.537-.747-.429-.427 0-1.28.215 0-.214.32.322.213-.643-.96-.107-.64.215.106.214 0 .214-.106.322-.106 0-.214-.108-.214-.108-.427-.858 0-.322-.427-.858-.32.215-.32.751-.107.751-.427.107.106.215.106.322.106-.107-.106-.215-.213-.322-.213-.322 0-.215.427-.644.32.644-.427.43-1.067.859-.32.214 0-.108-.427.321-.32-.107.107 0 .213 0 .32.108 0 .108-.107 0-.107.108-.106.215-.213.322-.213 0-.107-.214-.107-.322-.107.215-.213 0-.107 0-.427.215.107.322.107.43 0 0-.213-.108 0-.322 0 .107-.213 0-.427.214-.747.107.107.215.107.322.107s.107-.107.214-.107c0-.106-.107-.106-.107-.213-.107 0-.107.107 0 .107-.107.213-.214 0-.322 0-.214 0-.107.32-.429.213.108.107 0 .213 0 .32-.321-.853.751-.64.108-1.387.321 0 .321.32.75.213 0-.106-.107-.106-.214-.106 0-.214.107-.32.107-.427-.214 0-.214.106-.214.213-.322-.106.107-.32 0-.64.214 0 .107.32.429.213 0 .107-.215.214-.215.32s.215.107.322.107c0 .107-.107.107-.107.214.107 0 .107-.107.214-.107-.214-.213-.322-.32-.107-.747-.536 0-.322-.747-.107-1.067.214.213-.108.533.214.96.107-.106.322-.106.43-.106 0-.107-.323-.107-.323 0 .215-.747-1.18-1.174.108-1.921 0-.107-.108-.107-.108-.214.108-.32.322.427 0 .427.322.107.43.64.322.32 0-.106.108-.213.322-.213-.644.107-.214-1.067.215-1.174 0-.213-.43 0-.43.107-.429-.214-.214-.427-.321-.854.322.32.536 0 .75.427-.214-.427.108-.747.751-.96 0-.427-.536-.107-.643.106-.215 0 0-.32-.215-.32.108-.32.43.214.644-.107 0-.213-.107 0-.322 0-.107-.32.107-.533.43-.426-.108-.32-.215-.747.214-.427 0-.107-.108-.107-.108-.214-.321-.106-.321.427-.643.107.214-.213.322-.64.858-.64.107-.107.214-.214.214-.32s-.321-.107-.321 0c-.215-.107.429-.427.643-.64-.322.533.215-.107.215.106.214-.32.107-.32.429-.32-.107-.213-.858-.107-.43-.427-.214.107-.428.213-.428.64-.215 0-.108-.32-.108-.427.215.32.43-.213.108-.213.107 0 .429 0 .75-.213-.107-.427 0-.32-.214-.747.322.106.215-.214.322-.32 0-.427-.43.32-.322-.214h.644c-.43-.64.429 0 .214-.747-.429.32.107-.106-.214-.213.214-.214.429-.32.429-.747.107.213.429 0 .107-.107 0-.213.107 0 .322 0-.107.107-.107.214-.107.32.107-.32.536-.213.75 0-.107-.427-.75-.427-.965-.747 0-.106.643.107.965.32-.643-.747-1.072-.426-.107-.96.215 0 0 .213-.107.213 0 .107.107.107.107.214.107 0 .107-.214.215-.214.107-.32-.108-.426-.108-.747.215.214.537-.106.644-.32.107.107.214.214.214.32.215 0 0-.533.108-.746-.215.213-.537.32-.215-.107-.214.106-.536.106-.643.32-.43 0 .321-.427-.108-.427-.107-.213.644-.107.215-.213.214-.427.429 0 .75-.214-.214-.106-.428 0-.643-.32-.214 0 0 .107 0 .213-.107.107-.322-.533-.107-.853-.215-.32.107.213.429.106.214-.213.214-.533.107-.64.107-.427.215.107.322.107s.107-.107.107-.213c0-.32-.643.106-.429-.32.215.213.215-.107.43.106-.108-.32-.537-.213-.323-.747.215.214.322-.107.751 0 .107.107.322.214.322.427.215 0 .215-.107.322-.107-.107-.106-.43-.106-.644-.427 0-.32.537-.533-.107-.64.107-.32.322-.427.75-.427-.214-.32-.428.214-.75.107-.107-.107-.322-.107-.215-.32.43.107.966.213.751-.32.215.427.43.213 1.073 0 0-.107-.536-.214-.107-.32 0-.107-.215-.107-.322-.107-.107.213.322.427 0 .427-.215.427.107-.534-.107-.107-.108-.107-.108-.32-.644-.213 0-.214.215-.32.43-.214-.537-.106 0-1.174.106-.32-.107 0-.107-.107-.214-.107.107.32.75.64 1.072.32-.214-.213-.429 0-.214-.426-.107.106-.215.213-.215.32-.536-.534.858-.427.322-.96.107 0 .215.213.322.213-.214.854-.214 1.387-.429 1.707.107.32.322-.213.429.107-.107-.107 0-.213 0-.32-.536.427.322-.96.644-.64 0-.214-.108-.32-.108-.427-.214 0 0 .533-.322.427-.321.106.43-.534 0-.214.108-.747-.536-1.067-.965-.854-.107-.32.215-.32.107-.64.215 0 .43.32 0 .214.537.32.43-.214.751 0 0 .426.43.32.215.64 0 .107.107.107.107.213.107-.213-.107-.427.322-.106 0-.32-.322-.32-.43-.427.215-.214 0-.107 0-.427.323.107.323-.214.644-.107v-.32c-.214.534-.643 0-.75.64-.215 0-.215-.106-.43-.106.43-.427 0-.214-.214-.427-.215 0 .322 0 .643.106 0-.32-.107-.533-.214-.746.215-.32.43.106.215.32.643-.214.107-.854.858-.96-.108-.214-.322-.32-.43-.108-.321-.213.966-.32.43-.746.107-.32.214.426.429 0 0-.107-.108-.107-.108 0-.214-.107.322-.534.215-.854.214.213.214 0 .429-.107-.107-.64-.107-.854.215-1.174.107.107-.108.534.429.32 0-.213-.322-.213-.322-.426-.107.106-.322.213-.43.32-.321.213.215-.534.323-.64-.322-.107-.43-.107-.215-.64.43.533.965-1.068.858-.108.322-.106 0-.746.644-.32.107-.32-.215-.427 0-.747h-.215c0-.213.537 0 .644.107.322 0-.322-.32.214-.213 0-.107-.107-.214-.214-.214.107-.213.429.32.75 0-.107-.213-.321-.427-.428-.64 0-.32.214.213.429 0-.108-.107 0-.32 0-.107.107 0 .107-.213.107-.32-.537.107-.215.107-.322-.32-.644.32.215-.213-.429-.107 0 .214 0 .32.215.32-.108.32-.43-.106-.644-.213.214-.213.75-.32.858-.747.322-.107.215.213.43.213 0 .32-.323-.106-.43-.106.107.213.43.427-.107.32-.107.213.643.213.214.32 0 .107.215.107.215.213.214 0 .322-.106.322-.213.214.213-.215.64.107.854 0-.427.214-.534.214-1.28 0 .32-.536.106-.429.426-.107 0-.107-.213-.214-.213.429-.107.322-.747.429-1.068.107 0 .107.107 0 .107.214.214.429.32.643.427.215-.107.215-.107.108.107.536-.214-.108-.32-.215-.32 0-.214.107-.214.107-.427-.321.64-.429-.214-.965.213.107.107.107.214 0 .214-.107.213-.107-.214-.429-.214-.429-.107 1.073.214.858-.747.107 0 .215 0 .215-.107.214 0 .107.32.429.214-.215-.107-.322-.214-.322-.427-.215 0-.322.107-.322.213-.214 0-.214-.746-.214-.106 0-.747.214-.107.965-.427-.644.32.644.427-.107.427 0 .106.107.106.107.213.215 0 .215-.32.43-.32-.108-.32-.537-.427-.108-.747-.107-.32-.215.213-.322.107.215-.427-.107-.214-.429-.854-.215.107-.107.32-.322.107.107-.32.43 0 .43-.214.321.107-.108.214.107.32.214 0 .107-.426.428-.32 0 .427.322 0 .43.32.214 0-.108-.533.214-.64-.107-.213-.214 0-.429-.106.215-.427.43-.107.858-.107-.107-.534-.429-.214-.858-.214.107-.213.107-.32-.107-.32 0-.213.107 0 .322 0-.108-.213-.43-.32 0-.426.214.106 0 .106-.108.106 0 .214.322.214.322.427.322 0-.322-.32.215-.213-.108-.107-.322-.107-.215-.32.107 0 .107.106.215.106 0-.107-.108-.213-.322-.213.107-.427.214-.107.429 0-.322-.32.214-.107.214-.32-.107-.32-.214.106-.321-.107.107-.107.107-.214 0-.214.643.107.965.534 1.394-.32.215 0 .215.107.43.107-.215-.427-1.073 0-1.073 0-.108 0-.108-.107-.215-.107v-.213c.322.107.322 0 .643.213.108 0 .215-.213.322-.213 0-.213-.214.107-.214-.107v-.213c.214 0 .429.107.322.32.214.107.429-.32.321.107.215 0 .108-.427.215-.427-.107-.107-.322-.214-.322-.427-.214.107-.322.107-.429 0 0-.107.536-.213 0-.213.322-.107.215-.534.107-.64.108-.428.215.106.322.106.215 0 0-.107 0-.32.322.213.107.107.107-.214.322-.106.322 0 .751 0 0 .534-.322.32-.429.107-.107.32.644.32.322.427.107.32.215-.107.322.107-.215-.214-.215-.96.107-1.067 0-.107-.107-.107-.107-.214 0 .32-.322.214-.43-.213.215.213.108 0 .43 0 0-.107-.215-.107-.215 0-.322-.534-.107-.107-.75.213-.108 0 .643-1.067.857-1.28 0 .213.108.426 0 .747.537-.107-.321-.854.644-.854 0 .107-.107.107-.214.107 0 .213.321.213.321.426.108 0 .108-.106.215-.106 0-.32-.322.32-.215-.214h.43l-.322-.32c.107-.32.643-.64.858-.427.107 0 .107-.106.214-.106-.429-.32-.214-.64-.75-.747 0-.214.107-.214.214-.214 0-.106 0-.106-.107-.106.107 0 .643-.107.75.32.322-.107-.107-.214 0-.427.108.107.43.107.43.32.214-.107-.43-.533.214-.64a.92.92 0 0 0-.75 0c-.323-.107.107-.854-.43-.64.107-.107.322-.107.215-.32.536.213.965-.854 1.823-.748v-.533c-.322 0-.214.427-.643.32.321-.427.321-.32 0-.854.321.427.965-.106.858.427.214 0-.108-.427.322-.32-.108.107 0 .213 0 .32.107 0 .107-.107 0-.107.107-.106.214-.213.321-.213 0-.107-.214-.107-.322-.107 0-.426.215-.533.215-1.067.322 0 .536 0 .75-.106 0-.107-.106-.107-.106-.214-.215.32-.43.107-.858.32.107.107 0 .214 0 .32-.322-.64.75-.533.214-1.387.214.107.322.214.43.214 0 .106-.216.106-.216.213.108.32.322-.107.322-.213-.107-.107-.322-.107-.214-.32.107.106.322.106.429.106-.107.107 0 .214 0 .32.214-.213 0-.32-.107-.747.536-.32.214-.96.965-1.174-.536-.64.429-.853-.107-1.067.214-.32.536.214.643.427-.107 0-.107.107-.107.214-.107 0-.215-.214-.322-.214.107.107.107.214.107.32.43.107.322-.213.644 0-.215-.213.215-.96-.215-1.067 0-.32.322-.106.322-.32.322 0 0 .32-.214.214.322.106.536.106.322.64.321-.32.107-.534.429-.96.214 0 .214.106.321.106 0-.533-.643-.107-.643.107-.215.107-.322-.427-.322-.107-.322-.107.215-.427-.215-.64 0-.214.322.107.644 0 0-.214-.429-.107-.429-.214.215-.213.858-.747.858-.106-.536-.32.107.213.107.426.322-.106.322-.213.215-.64-.322.107.215.32-.107.427-.322-.427.214-.64.107-1.067-.107 0-.107 0-.107.107-.322-.32.429-.107.322-.214.321.107-.322.214-.215.427.644 0 .429-.747.75-.213.43-.107-.321-.747-.214-.427-.429-.214 1.502-.747.43-.427 0-.107.214-.533.214-.747 0-.107-.215-.107-.322-.107.215.96 0 0-.429.64.107-.106.107-.32.107-.426-.107 0-.214.107-.214.213-.322 0 .429-.747.322-.106 0-.214.214-.64.107-.748.214-.426.214.32.322.32.107-.106.214-.106.321-.106 0-.107-.214-.107-.214 0-.215-.107 0-.213-.107-.427.214 0 .214.107.429.107.107 0 .107-.214.107-.32-.322.427-.322-.214-.215-.64.108.213.644 0 .322-.107.215-.427.322.213.43.213.214 0-.108-.213.106-.213-.107-.214-.321-.214-.75-.214 0-.64.429-.747.643-1.174.322-.32-.322.534.215.32 0 .107-.108.107-.215.107.215.107.536 0 .751.32.43-.533-.429-.64-.644-.64.108-.427.537-.213.215-.853.644 0 .644 0 1.073.32.107 0 .107-.107.214-.107 0-.107-.536 0-.214-.32-.108.32-.322-.214-.43.107-.321-.534.644-.214-.214-.64 0-.107.107-.214.322-.214 0 .107-.107.107-.215.107 0 .213.322 0 .322.213.107 0 .107-.213.215-.213-.108-.107-.215 0-.43-.214.108-.107.322-.213.108-.213.429-.107.214.213.75.32-.107-.214-.107-.64-.321-.854-.107-.32.322-.213.214-.64.537.427.108-.534.43-.107.214-.427.107-.213-.108-.747.108 0 .215 0 .215-.107.107 0 .107.107 0 .107.107.107.214.214.322.214.107 0 .107-.107.214-.107-.429 0-.429-.854-.214-1.174.107 0 .107.107 0 .107.107.32.321-.107.429-.107s.107.107 0 .107c-.322.107.536.427.107.747.322-.214.429-.64.322-1.174-.108 0-.108.107 0 .107 0 .213-.215-.107-.215.106-.322 0-.107-.32-.322-.32.43-.106.215 0 .322-.427.322-.106-.107.534.215.427.321-.106-.108-.32 0-.64.107-.107.321-.107.643-.107-.107.107-.107.214-.107.32.107 0 .107-.106.215-.106 0-.32-.43-.427 0-.747 0-.214-.108 0-.322 0 .107-.107.107-.32.107-.64.322.64.322 0 .322-.32.107 0 .107.213.107.32.215 0 .215-.64-.107-.427.107-.107 0-.427.322-.32-.322.426.321.533.643.64.107-.427-.536-.107-.644-.32 0-.214.537-.534.43-.107.321-.107-.108-.427-.215-.427.43-.534.43-1.067.965-1.494.215 0 0 .107 0 .214.215-.214.537-.427.322-.854.43.107.108.427 0 .64.108.214.215.534.322.747.215-.107-.215-.534 0-.854l.322.32c0-.213-.215-.426.429-.426 0-.107 0-.214-.107-.214 0-.106.107-.106.214-.106-.214-.214-.536.213-.643.32-.644-.214 0-.534-.751-.427.107-.107.322-.107.214-.32.215.213.108 0 .43 0 0 .106-.108.106-.108.213.215-.213.43.107.644-.107 0-.32 0-.426-.215-.426.215.426.858 0 .322 0-.322 0 .429-.107.75-.107-.428-.214.108-.427.43-.427-.108-.32-.43.213-.644-.107 0-.213.322-.213.43-.32 0-.32-.43 0-.323.107-.321-.213.322-.427.644-.427-.107.32.536.534.644.214 0-.214-.108 0-.322 0 .107-.32-.215-.32-.107-.64.214-.108.321-.108.429 0 0-.32-.215-.32 0-.641-.108 0-.215.107-.215.32-.429 0 .215-.534-.107-.427.107-.213.858.214.429.427.322-.32.429-.213.858-.32-.215-.107-.536.107-.965-.214.214-.106.536 0 .75 0V18.9c0-.32-.214.213-.429 0 .215-.534.858-.213 1.073 0 .215-.107-.215-.427.322-.213 0-.107-.107-.107-.107-.214-.215 0-.43.107-.43.214-.214 0-.107-.64-.321-.214-.215 0 .107-.213-.108-.213 0-.214.537 0 .43.213.321-.107.214-.747.75-.747 0-.32-.214-.32-.214-.64-.215 0-.107.32-.107.427-.322 0-.43-.107-.537-.107 0-.107.108-.107.215-.107 0-.213 0-.32-.107-.32-.108-.213.643.214.214-.106.322-.427.322.426.75.32-.106.106-.106.427-.32.427 0 .213.428.106.32.32.215 0 0-.214-.106-.214.536-.427.107-.64-.108-1.067 0-.107.108-.107.108 0 .107 0 .107-.213 0-.213.321-.214.214.32.321.64.108-.107.43-.32.322.107.215-.107.107-.32.322-.107-.107-.427-.322 0-.75-.213.428-.107 0-.854.106-.427-.429.106-.107-2.028.858-1.28-.429-.428.322-.428.322-1.068.215 0 .215.107.43.107-.108.427-.43 0-.644.427 0 .213.107.213.107.32 0 0 .43-.96.43-.32.32-.107.214-.64.643-.747 0-.64-.322-.107-.858-.214 0-.106.107-.106.214-.106 0-.107 0-.107-.107-.107.536 0 .322-.427 1.072-.427 0-.213 0-.32.108-.32-.644-.107.322-.64-.215-.64.537-.32.43.427.858.106v.32c.215-.213.108 0 .43 0-.108-.106-.322-.213-.43-.32 0-.106.215-.106.322-.106-.643-.214 0-.214.107-.64.322 0 0 .426 0 .426.108 0 .215-.106.215-.32 0-.107-.107-.107-.107-.213q-.322.16-.322.32c-.322-.107 0-.64 0-.854.75-.107.75-.64.643-1.174.322.32.644 0 .43-.427.107.214.643 0 .75.214.108-.107 0-.427.43-.214-.322-.533-1.073.427-1.18-.32.536.214.321-.32.321-.853.215 0 .215.32.43.32-.108.106-.215.213-.43.213.108.32.43-.107.644-.107-.322-.32.536-.533.107-1.067.322 0 .322-.213.644 0 0-.106-.322-.533-.322-.213-.43 0 .214-.427-.107-.32.107-.32.429.107.643.107.107.32-.107-.214-.214-.214.107.107.107.214.107.32.536 0 .858-.106.858-.64-.107.107-.214.32-.322.427-.322-.107.215-.96-.214-.427-.43-.32.322-.32 0-.747.322.213.214-.32.429.107.322-.107-.322-.214-.107-.427.321.32 0-.214.321-.427 0 .32 1.502-.213.751-.747-.107.213.322-.427.751-.213 0-.214-.107-.427-.215-.427.537-.107.215.427.859.213-.215-.213.429-.64.75-.427-.214.107-.429.214-.536.214 0 .213.215-.107.215.107.321-.214.214-.32.107-.64-.43 0-.43.32-.751.32.43-.534-.107 0 0-.854.215.213.322-.107.75-.107-.214-.32-.106-.427-.214-.747.215-.32.215.32.322.427.43-.107.215-.32.322-.64.107 0 .107.213.107.32.43-.107 0-.64-.429-.64.107-.534.644.213.43-.427.428 0 .321-.747 1.18-.64-.108.106-.108.213-.108.32 0 0 .75-.107.429-.214"></path></svg>