<svg xmlns="http://www.w3.org/2000/svg" width="100" height="100" viewBox="0 0 100 100"><path d="M41.589 47.351c-.11.331-.55.441-.22.552.22-.442.66.22.77.331.55-.662.661-.662 1.652-.773-.11-.551.33-.551.11-.883-.22.221-.44.331-.66.442.55-.442-.771-1.104-.22-.552.44.773-.441 1.545-1.432.883m6.166-6.402c.33-.441.77-.11.88.11-.22 0-.55 0-.77.111.11.11.44.11.33.331 0 .22-.11.442 0 .442.22-.994.33.33.55-.221-.55-.773.991.773.44 0-.33 0 0-1.104.331-.773 0 .331.11.442-.22.552.55.331 1.211-.662.33-.331.11-.22.22-.552.44-.552.11.22.661.993.33.331-.44-.772-2.201-.441-2.642 0m4.073-1.876c.33-.552.33-.331.44-.993-.22-.11-.55-.221-.66 0 0 .22-.44.662.22.993m2.973-3.642c-.88-.11-.66-.773-1.211-.994 0 .442-.88.442-.33.773.55-.331-.11.33-.33.33.33.111.44.222.55.442.11-.772 1.21.331 1.321-.551m-.55.883c-.11.22-.33.22-.551.22.33-.22.44-.441 0-.662-.11.22-.44.22-.66.441.11.11.44.11.33.332-.11 0-.22-.11-.33.11.44.331 1.65.441 1.21 0-.66.552.44-.442 0-.442m-4.625 6.401c-1.431 0-2.752.662-2.642 1.545.44-.772.99.884.88.11-.77-1.213.11-1.213 1.432-.661.11-.663 1.1-.442.33-.994m12.001-15.783c0-.221 1.211.551.771-.11-.11.11-.11.22-.33.11.11-.221.11-.442.22-.552-.33-.442-.991.552-.66.552m-33.91 22.627c-.441.33-.882.441-1.542.33.22-.22.44-.22.55-.772-.33.442-.99 0-1.1.442.11-.442.55.22.55.441-.11 0-.33.11-.11.22.88-.661 1.43 1.215 1.761.663 0-.22-.22-.22-.44-.11.33-.442-.22-.552-.11-.994.11.221 1.1.883 1.431.552-.55-.22 1.431-.883.55-.773-.44.332-1.54.883-1.54 0m-.111-.994c.11-.22-.11-.331 0-.441.77-.221.66.22 1.211-.221-.88-.552-1.982.662-1.872 1.104.991-.773 1.652.22 2.423-.221-.44-.22.11-.773-.33-.994-.11.332-.22.663-.11.883-.551-.441-.882-.11-1.322-.11m3.303-1.214c.33.331.22.883.44 1.325.661-.994-.22-1.104.55-1.877-.33.331-.66.331-.99.552m0-2.76c.33 0 .99.663 1.101.221-.22-.22-.33-.441-.44-.662.22 0 .44.11.44 0-.55-.22-.88-.11-1.101.442m1.101 4.857c-.55-.441-1.541-.662-1.321-.11.77-.221.11.552.66 1.435 0-.883 0-.994.661-1.325m.22-5.298c.77 0 .33.552.66.773.11-.221.221-.552.331-.773-.55-.441-.77-.773-.99 0m7.817-3.422c-.77-.22-1.1.994-.77 1.325.11-.441.66-.773.55-.883-.77.11-.11-.22.22-.442m.33.883c.22-.33.441 0 .551.221.11-.11.77-.552.33-.772-.11.22-.22 0-.44-.11.11.44-.99.22-.44.661m1.542-1.103c0 .11-.11.22.11.33.22-.44-.22-.661-.33-.992-.55.22-.33 1.434.22.662m-1.651-1.546c-.33.883-.33-.11-.55-.22 0 .441-.331.993-.111 1.324.33-.662.22.883.55.221-.88-.331.551-.993.11-1.325m.44-.772c-.22-.11-.33-.552 0-.442.33.221.22 1.435.77.994-.22 0-.44-.883 0-.662.22.33.11.772.551.22-.11-.11-.44-.11-.33-.33-.55-.332-.991.11-1.211-.442-.33-.11-.22 1.214.22.662m2.422-.662c.66.11.44.441.881.552.22-.442-.22-.663-.33-.994-.11.22-.33.22-.55.442m1.982-3.422c.33.11.44.22.55.441-.11-.662-.22-1.103-.11-1.434-.33.33-.55-.442-.88-.11.11.772.99.22.44 1.103m1.541-.773c.22.221.33.442.11.773-.11 0-.33.11-.11.22.44-.11.661-.772 1.102-.993-.11.331.88.883.33.331.11-.33-.33-.441-.44-.662-.33.773-.771.221-.992.331m-.77-.993c.22.11.44.441.22.11.11-.22.33-.22.55-.22.33.441 0 .441.11.772.22-.33.551.552.881-.33-.66 0-.66-.222-1.1-.663-.22.11-.551.11-.661.331m4.184-2.98c-.661.22-.11-.662-.881-.11 0-.11.11-.221-.11-.332-.66.442 0 1.325-.11.442.33.33 1.43.33 1.1 0m.44 1.324c.22-.22.44-.441.55-.883-.99-.22.33-.33-.22-.552-.11.11-.11.221-.33.11 0-.22.11-.44 0-.44.11.772.11 1.213 0 1.765m7.157-8.278c-.661.331.44 1.877.77 1.656-.22-.442-.33-.883-.66-1.214.44.33.88-.883.33-.331-.22.22-.33 0-.44-.11m2.312-1.214c.88-.11 1.21.442.88-.552.11 0 .33-.11.11-.22 0 .44-.88-.663-.44 0 .991.882-.99.44-.55.772m2.312.442c.44-.442 1.1 0 .55-.773.11 0 .22.11.33-.11-.33-.11-.44-.221-.55-.442-.33.331-.44 1.656-.33 1.325m-.66-4.195c-1.432 1.325 2.201.883 1.21 0-.77.552-1.32.994-1.21 0m1.32-2.76c-.11.442-.44.332-.66.442.22.221.33.442.44.663-.33-.11-.77-.11-.99.11.33.22-.22.331 0 .441.44-.662.66-.33 1.1.221.33-.22.771-1.435.22-1.324-.11.22.22.441-.11.441-.11-.22.44-.772 0-.993m5.946-1.544c.77.22-.44 1.545-.88 1.545.11.11.44.11.33.331 0 .22-.11.442 0 .442.22-.442 1.21-.11 1.54.11.331-.552-.22-.883-.66-.773.22-1.214.66-1.545.771-1.986 0 .11.11.33.22.11-.33-.331-.77.11-1.321.22m5.395-9.051c-.77.331-.33-.773-.991-.331.44.33-.66.662-1.211.11-.22.442-.22.773.11.994.44-1.104.22-.221.44.11.11-.331.33-.331.44 0 .221-.22.221-1.104.551-.883-.11.441.33 0 .33.331-.77-.22-.11.883-.88 1.104.66-.11.66.33.88.11-.44-.331-.22-1.435.661-1.104.11-.33.11-.772-.11-.993-.11.11-.11.22-.33.11 0-.22.11-.441 0-.441-.33.441.33.441.11.883m-4.734 3.422c.55.662 1.761.662 1.651-.552-.55.33-.22-1.104-.33-1.546.55.442.44-.33.11-.441-.55.331 0 .773-.55.883.22-.331-.441-.993-.771-.552 1.21.662 1.32 2.318-.11 2.208m.11.772c-.11-.11-.22-.22 0-.441-.33-.221-.55 0-.881-.11 0-.221.11-.442 0-.442-.33.772.44 1.104.88.993M33.33 46.027c.22 1.214.11 1.103.22 1.765.33-.993 1.322.11 1.762.221.11-.33.11-.772-.11-.993-.11.331-.33.441-.66.441-.551-.662-.881-1.103-.22-1.876-.772-.552-.441-.552-.662-1.214.22.11.441-.22.11-.442-.11.221-.22.442-.55.221-.11.552 0 .883-.33 1.435.22.11.55.22.77.331.22-.331-.11-.662.22-.552-.11.221.11.331 0 .663-.11-.11-.22.11-.55 0m21.91-18.544c-.33.773-1.32.332-1.981.332-1.212-.883 2.202 1.655 1.981-.332m6.606-8.057c.771 0-.11.662.661.773.22-.332-.11-.552-.11-.773.22.11.33-.11.66 0-.11.22-.11.442-.22.552.771.22.44-.442 1.101.22-.11-.882.33-.33.771-.882-1.211.33-1.872-.442-2.862.11m2.533-2.98c.33.11.66.22.99.441.331-.552.11-.883-.22-1.214-.55.11.11.773-.55.773.44-.442-.55-.994 0-.442zm3.193-5.74c0 .332.55.552.33.994-.33-.11-.44-.994-.77-.552.55.331-.441.22-.441.552.44.552.66.441.33-.11.22.22 1.101.22.881.551-1.321.442.991 0-.11.883.55.331.77-.22.99-.772.111.33 1.983.22 1.763-.221-.11.11-.11.22-.33.11.55-.33 0-.22 0-.662-.661-.22-.992.22-1.542.331.11.11.44.11.33.331-.88-.441-.66-1.324-1.431-1.435m4.404-1.103c-.44-.11-.77-.331-.881-.552-.11.11-.11.441-.33.33-.11.442 0 1.546.44 1.105-.44-.442.44-.11.44.11 0-.662-.11-.441.33-.993m.44-3.532c.33.552.66.11 1.101.662-.11-.552.33-.552.11-.883-.22.11-.77-.11-1.21.22M25.624 57.837c-.11.33-.55.441-.22.551.55-.441.77 0 .99.442.111-.22.111-.441.221-.552-.33-.22-.66-.331-.99-.441M64.6 39.514c-.33-.552-1.762-.993-1.321-.11.11-.22.33-.22.55-.22-.22.551-.33.993-.11 1.324.11-.663.55-.663.881-.994m17.066-23.51c0-.11.11-.22-.11-.33-.33.33.33.993.44.662-.44-.442.77-.332.88-.552 0 .11.11.33.221.11-.33-.662-.88.22-1.431.11m1.981-.772c.551-.331-.11.33-.33.33.55.222.881.222.991-.33-.11-.11-.44-.11-.33-.331.11 0 .33-.11.11-.221 0 .331-.991.22-.44.552m-1.21 1.324c.11.11.22.221 0 .442-.22-.11-.22-.221-.33-.331.11.883-1.432-.332-.882.33.33.221.771.442.881.773-.22 0-.44-.11-.44 0 .11.11.44.11.33.332-.11 0-.33.11-.11.22.55-.22.33-.662.44-1.214.44-.331.44.442.66 0-.22-.11-.22-.331-.22-.552.661-.33 1.762.662.661-.441-.33.772-.77.33-.99.441m1.761 1.877c.44 0 .44.883.77.33-.88-.551 1.322-.22 1.432-.772-.22-.11-.55-.22-.55-.441.33.11.11-.332 0-.442-.33 1.214-.771.994-1.322.883 0-.441.661-1.104.22-1.324-.11.33-.33.33-.44 0-.11.662.77 1.435-.11 1.766m2.312 0c.77.22.77-.331.77-.883-.44-.221-.77-.221-.99.11.33.22.66-.11.55.22-.22.222-1.21.442-.77.884.77-.221-.22.552.33.883.11-.331.22-.442.44-.552q-.33-.165-.33-.662M21.22 97.46c.44.221 1.652.11 1.321-.441-.44.11-.77.441-1.21.22.44-.551.44-.662 0-1.213.11.772-.11.662-.11 1.434m1.101-.993c.11-.331.22-.442.44-.552-.66-.11 0-.772-.88-.772-.33.662-.44 1.103.44 1.324m1.431-1.325c0-.33.771.332.771.552-.33.11-.44.663-.33.773.11-.22.33-.22.55-.22-.44.33-.22.551-.77.882.99.11.55-.552 1.1-.993-.22-.442-.55-.883-.88-1.325.11 0 .33-.11.11-.22-.11.33-1.101.22-.55.552m4.184-2.98c-.22.332-.44 0-.55-.22-.11.11-.11.441-.33.33-.11-.661.11.332-.33.332 0 .22.88.662.44.11-.11-.11-.22-.11-.11-.33.11 0 1.32.33.88-.222m.66-.662c1.432.993.772-1.876.882-.993 0 .772-.66.33-.881.993m-1.54-1.766c-.11-.552 0 .11-.11.442.22.11.55.22.55.441-.77-.22.44.883-.11.22.11-.22.22-.22.33-.33-.55-.552 0-.883.22-1.325-.88-.441 0 .883-.88.552m5.835 2.76c.33-.332-.33-1.325.77-1.325-.22-.552-.77-.11-.88-.552-.33.773.11 2.097.11 1.877M28.267 88.3c.88-.22.11.442-.33.331.11.221 1.21.883.99.442-1.1-.22.77-.552.11-.883 0 .22-1.21-.552-.77.11m2.202 1.435c.11-.22.22 0 .44.11.44-.662-.33-.441-.55-.441.22-.441-.11-.773-.33-.993-.11.22-.221.552-.441.552.11-.332-.55-.332-.22-.11.22.11.22.22.33.33.11-.22.33-.22.55-.22-.11.33 0 .551.22.772m4.073-1.435c-.33-.33.11-.993-.44-1.324-.11.22-.991.11-.44.552.88-.773.11 1.435.88.772m-1.982-.772c-.33-1.215 1.101-.221 1.652-1.215-1.211-.772-2.642 1.215-1.652 1.215m-.99-1.766c.11.11.44.11.33.33-.44.332-.44-.44-.66 0 0 .442-.331.884 0 1.877-.551-.22-.551.22-.771-.331-.33.773.88.662.88.552 0-.22.11-1.104 0-1.876.44 0 .771-.221 1.211-.221 0 .33-.99.22-.44.552.11-.221.44-.221.66-.442-.22-.552-.77 0-.66-.773.11 0 .33-.11.11-.22-.11.33-.44.22-.66.552m-1.652-1.104c.33.22-.22.331 0 .441.991-.33-.33.663.33.994.11-.773 1.982-1.104 1.322-1.104-.33.22-1.212-.442-1.652-.331m4.514-.331c.11-.11.11-.221.33-.11-.33.772-.66.44-.88.551.44 0 0 1.214.44.662-.11-.33 0-.551.44-.551.11.441-.44.993 0 .662.441 0-.22-2.428-.33-1.214m-2.092-1.104c0-.22.11-.442 0-.442-.11.221-.22.552-.33.773.66.11 1.321.22 1.762-.22-.33-.663-.881-.111-1.432-.111m11.45 3.311c0-.22.111-.441 0-.441-.11.22-.44.22-.66.441.22.552.44 0 .771.552.11-.441.44-.331.66-.441-.33-.11-.55-.11-.77-.11m-1.21 0c.22.221.33.552.33.883.44.221.77-.11 1.211 0 0 .221 0 .552.11.773.44-1.104-.88-1.325-1.21-.993 0-.221-.11-1.104-.441-.663m-15.745-6.843c.11.11.22.22 0 .441-.22 0-.66.11-.33.332.44-.332.77-.221.99-.332-.55-.441.662 0 .662-.441-.771.11-.881-.11-1.322 0m8.698 2.428c-.66.221 1.432.442.44-.552-.22.663-1.1-.772-.66 0-.11.332.22.332.22.552m1.652.662c-.44-.11-.33-.441-.77-.551-.772.11.11 1.655-.992 1.214.44 0 .33-1.104 0-.663.22.773-.77.442-.88.552.22.552.55.221.88.11-.22.773.991 0 .77.553-.11.22-1.1.22-.66.441.771 0 1.322-1.104.66-1.104.111-.33.331-.441.662-.441 0 .22-.11.441 0 .441.22-.772.99-.441 1.32-.883-.55-.11.441-.883-.33-.883-.22.442.22.552-.22 1.104-.55-.11-.55-.552-.44.11m-9.249-4.746c-.11.331.33.11.44 0-.44-.11-.55-1.324-.44-.662-.66.331-1.1 1.104 0 .662m10.24.994c.11.441.66.662.77.993-.22-.11-.22.22.11.331.551-.772-1.21-.993 0-1.214-.66.22-.88-.773-1.43-.331.22.22.22.331.55.22m-1.542-.11c.22.11 0 .44.22.551.11-.11.11-.441.33-.33 0 .11-.11.22.11.33.221-.772.111-1.324.111-1.545-.55.22 0 .993-.77.993m9.58 2.538c0 .442.44.662-.111.883.44-.11 1.541-.442 1.321-.883-.55.883-1.1 0-1.21 0m.66.11c.22 0 .88-.441.44-.552-.44.552-.11-.551-.44-.662-.22.331-.33-.22-.44 0 .66.331.22 1.546.44 1.214m-6.386-4.856c-.11.11-.11.22-.33.11 0-.11.11-.22-.11-.33-.551.661-.551.44-1.322.882.33.22-.22.331 0 .442 0-.442.881.662.44 0-.22-.11-.22-.332-.22-.552.771.33 1.101-.331 1.432-.11-.11-.111-.22-.111-.11-.332.22.11.44 0 .22-.11m-2.753-1.766c.11.11.22.11.11.33-.33-.22-.66.111-.33.332.22-.331.33.11.33.331-.22-.11-.77-.22-.44 0 .66.11 1.321.22 1.762-.22-1.652.44-.33-.884-1.432-.773m1.322-.662c.88.22.88.883 1.43.33-.33-.22-1.32-.22-1.1-.662.22 0 .44.11.44 0-.33-.11-.66-.33-.88-.11.22.11.33.22.11.442m5.064.772c-.44.552.11-.552-.55-.441-.66.662-.11.662.11.993a.84.84 0 0 0-.55.22c.44.332 1.21-.551.99-.772m-23.672-8.61c.55-.11.22.111.55-.22.221.662.331 1.435 1.102 1.877-.11-.883 1.321-.221.77-.883-.22.11-.88-.11-1.1-.663.22 0 .44.11.44 0-1.101-.441-.22.663-.77.663-.771-.332.33-.994 0-1.215-.22.11-1.432-.11-.992.442m30.939 11.26c.44-.222 1.1-.773.22-1.105-.11.773-.33.883-.22 1.104m-7.377-3.533c.22.22.33.442.44.662-.11 0-.22-.11-.33.11.33.222.55 0 .66-.44-.11-.111-.44-.111-.33-.332.11-.22.44-.22.11-.441 0 .22-.33.22-.55.441m10.46 3.422c-.44-.11 0-.662-.66-.773.11.552-.882.773-.441.994.22-.332.22.11.55.22.22-.22.44-.33.55-.441m-13.543-5.078c-.66.11.55-.11.22.552-.11 0-.22-.11-.33.11.22.111.55.222.66 0 0-.44-.66-1.324-.66-1.213 0 .22.22.33.11.551m-12.882-6.07c0-.11-.11-.331-.22-.11.33.11-.11.551.11.772.22-.331.33.22.44 0-.44-.22.441-.441.661-.441a.7.7 0 0 0 0 .662c-.22-.11-.55-.11-.33.11.33 0 1.541-.11 1.101-.441-.33-.11-.77-.773-1.762-.552m18.277 7.726c-.44-.441 1.101-.883.33-.772-.11.22-.33.22-.55.22.11-.33.33-.662.11-.883-.22.552-.77.331-1.1.442-.331.552.44.772-.221 1.104.33.11.44.551.55.22-.22-.11-.11-.441.11-.441 0 .11.11.33.22.11-.22-.22-.33-.441-.44-.662.881-.552.66.993.991.662m7.817.662c.22.11.33-.11.661 0 .44-.441 0-1.324-.33-.883.77.663-.881.663-.33.883m.55-1.876c.221.11 0 .442.221.552.11-.22.22-.552.44-.552-.11.22-.22.552 0 .662.661-.552-.22.994.33.331.441-.662-.11-.551-.33-1.545.11 0 .33-.11.11-.22-.99.33.11.662-.77.772m-8.807-3.642c-.11-.11-.22-.221 0-.442.11 0 .33-.11.11-.22-.33.44-.66-1.104-1.101-.221.22.11.22.441.44.662.55-1.214-.11.993.55.22M31.79 63.245c.44-.22.44 2.097-.44 2.318.44.22.66-.22.99-.331-.33-1.766.11-1.435.44-2.208.331.221.661-.11.331-.33-.33.661-1.762.33-1.321.551m-2.643 1.545c.661-.441.771-.22 1.432-.11-.22-.11-.22-.331-.22-.552.11 0 .33-.11.11-.22-.661.33-1.101.22-1.322.882m1.982-.883c-.22-.11 0-.22.11-.441-.22-.11-.44-.221-.22-.552-.55-.552-1.321.11-1.431-.552.33.11.55 0 .77-.11-.99.11-.22-.442-.55-.883-.44.33-.11.662-.66 1.103.33.331.66.883 1.1.663-.33.11-.55.662-.11.883.22-.221.44-.331.771-.11 0 0 .11.22.22 0m-.11-1.435c.22.331 1.101.663.88.11-.11.111-.11.221-.33.111.22-.773.881-.441 1.322-.883-.77-.22-1.211.552-1.872.662m18.057 5.96c-.33-.33.88-.44.22-1.103-.55 1.324 0-.773-.88.331 0-.11.11-.22-.111-.331-.22.441.22.662.33.993.11-.11.11-.22.33-.11-.11.22 0 .441.11.22m.77-.33c.11-.221.55-.332.44 0-.88.662-1.1.882-1.87 1.103.88-.11.77.11 1.1.221-.55-.552 1.211-.552.44-.552-.11-.11-.44-.11-.33-.331.22.11.33-.11.66 0-.11-.552.772-.552.331-.773.11 0-1.1-.22-.77.332M42.47 64.68c-.55.772.88 1.324.99.441-.44-.441-.55-.441-.99-.441m-.991 4.304c-.33.773-.771.332-1.211 0-.44.442-.11.663-.55.773-.221-1.104-.331-.11-.882-.11-.33-.442.44-.442 0-.663-.11.221-.33.221-.55.221-.33-.772-.22-.662-.11-.993-.55.552-1.322-1.104-.991-.442-.33.552.66.442.55.883-.77.663-.99.442-.33.773-.22.773-1.101-.552-.77.11.11.442.55.994 0 1.215.66.33.33.33.33.883.11-.221.55-.332.44 0-.55.11-1.541.441-1.651-.442.22.11.55-.883.11-.441-.22.22-.661 1.103-.771 1.324.66-.11 1.431-.441 1.651.441.55-.11-.11-.551.44-.551-.11.22.221.441.441.11-.33-.22.11-.331.33-.331-.33.331-.44 1.214-1.43.772-.11.11-.11.442-.331.332-.11.33.11 1.435-.55 1.435-.33-.332.44-.773 0-.442-.551 0 .33.883-.11 1.325-.331-.332-.551-.442-.771-.332.44.883-.881.773-1.322.883.11.773.881-.33.771.332-.22-.11-.88.33-.44.551 1.1.442 3.743-.772 2.972-2.317-.11.22-.66 0-.55-.221-.11-.773 2.312.22 2.092-.11-.44-.221.33-.884-.33-.994-.22.331.11.662-.22.552.22-.662-1.102.22-.881-.552.77.552 1.21-.662 1.54.11.221-.33-.11-.551-.11-.772.661.22.441 1.104.992.441-.881-.22.22-.552.33-.772-.44-.331-.22-.773-.33-1.546.88.663.88-.772 1.651-.551-.99.662.66.551.991 1.103.11-.33.55-.441.22-.552-.22.442-.88-.33-.88-.551.44-.332.44.441.66 0-.33-.221-.11-.663-.44-.883m1.541-2.207c-.11.331-.99.442-.55.773.22-.221.55.33 1.1.22-.11.221-.22.552-.44.552-.11-.993-.88-.441-1.321-.11-.22-.552.33-.331.11-.883-1.1 0 0-.22-.88-.773.33 1.214-.992 0-.771.883.44-.11.99.221 1.32.773-.22-.11-.33.11-.44 0-.11-.773-.44-.442-1.1-.662-.11.33-.33.662-.11.883.55-1.546.22 1.103.99.441-.99-.441.55-.11.66-.441.221.11.331.662.551.441.11-.22-.11-.331 0-.441.661.11 1.101.11 1.211.441-.55.11-1.1 0-1.43.662.55.442.44.332 1.1.221.11.662-.44 1.545.22 1.877.881-.221.991-.773 1.872 0 .66-.773 1.101-.552 1.321.22.22-.22.22-1.103.55-.883 0 .11.11.331.221.11-.55-.772-.88.221-1.321-.772-.66.22-.33.442-.881 1.104-.44-.662-.77-.662-1.431-.552.66-.552 0-.22-.44-.11.44-.883-.11-1.435-.771-.994.11-.22.11-.441.22-.552.33 0 .99.663 1.1.221-.66-.773 1.102-.883.551-1.435.11-.441-1.651-.883-.44-1.766-.55-.441-.66.331-.991.331.33-.883-1.101-.11-.55-.883-.881-.33-1.542.11-1.872 0 .22 0-.33.994.22.552-.11-.11-.22-.11-.11-.331 1.982-.442.22 1.214 2.312.662-.22.442-1.211.11.22.221m2.202-1.435c-.22-.772-.66-.552-1.321-.22.55.551-.33.662-.44 1.213.55.221.55.552.88.773.55-.662 0-1.656.661-1.766-.11 0 .11.22.22 0m.22-.11c0-.221.991.33.55-.221-.11.11-.11.22-.33.11.11-.551 1.212-.662.771-1.324 0 .883-1.32.773-.99 1.435m-.55-1.435c.11 0 .33-.11.11-.22-.33.22-.44.44-.33.772-.22 0-.66.11-.33.33.44-.11 1.981-1.213 1.54-.992-.44-.221-.99.883-.99.11m5.945 3.09q.165-.496-.33-.33c.66-.332 0-1.105.22-.553-.44.442-.88-.552-.44-1.103-.44-.221-.66.22-.991.33.88-.11.44 1.105 1.541 1.656m-8.147-2.87c.77 0 1.211-.44 1.431-1.324-.77-.331-.99.442-1.651.552.33.773.88-.22 1.32-.441-.11 1.103-.88.441-1.1 1.214m1.872-1.324c-.11 0-.33.11-.11.22.22-.44.44.442.77.553.11-.221.22-.552 0-.663-.22.332-.22-.22-.33-.33-.11.11-.11.22-.33.11 0-.11-.11-.331-.22-.11.22 0 .33.11.22.22m14.203 5.188c.11.11.22.22 0 .441.55.221.77-.11.99.442.22-.552-.33-.773-.44-1.104-.11.22-.44 0-.55.22m-8.698-3.863c.33.22-.22.33 0 .441.11-.11.11-.22.33-.11-.11.33.88.883.33.33-.88-.551.991-.992.33-.772-.44.221-.55-.552-.99.11m-5.175-2.76c-.33 0-.55.11-.88-.11-.221.441-.441.993 0 1.214.11-.331.22-.662.11-.883h1.21c-.66-.331.22-.552-.11-.773 0 .331-.99-.662-.55.221.11-.331.33.11.22.331m16.185 5.409c.11-.221-.22-.332-.55-.442.33.883-1.102.773-.771 1.325.22-.331.33.22.44 0-.55-1.104 1.101.441.55-.221-.22-.11-.11-.552-.11-.773.44.11.771.663.44.11M42.8 60.817c.55-.552-.55-1.214.22-1.325.11.442-.11.883.22 1.214.11-.441.661 0 .771-.662-.44-.11-.33-.441-.44-.662-.66.331-.771-.662-1.211-.442.44.442.11 1.987.44 1.877m-7.046-4.526c1.54.994-1.212-1.324-1.652-.441.11.11.44.11.33.331-.11 0-.33.11-.11.22.33-.551.33.332.77.332.221-.22.441-.442.662-.442m16.955 7.064c.77-.441-.44-.551-.55-.441.11.11.22.22 0 .441.22.11.55.221.77.332.11-.11.11-.442.33-.332.22 0 .441.11.441 0-.11-.11-.44-.11-.33-.33s.22-.221.33-.332c-.22-.11-.44-.11-.55-.22-.22.33 0 .551-.11.882-.11-.11-.22 0-.33 0m-1.1.332c.22-.442.33-1.215.55-1.435-.55-.11-.11.22-.881.33.11-.33.11-.772-.11-.993-.22 1.546.33 1.215.44 2.098m-4.735-4.415c-.11.441-.66 0-.881.33.66-.11.11 1.104.77.553-.22-.11-.22-.332-.22-.552.22.11.33-.11.44 0 .331.11.772 1.103 1.102.662-1.211-.552 1.21-.22.55-.773-.66.11-1.21.442-1.761-.22m-10.35-3.864c.991.11.881.442 1.431.994.11-.663.44-.442.551-.883-.11-.11-.44-.11-.33-.331-.55-.442-.55.441-1.211 0 .66-.332 0-1.104.22-.552-.11.11-.33.552-.66.772m11.12 1.987c-.66-.552-.88.331-.77.662-.991-.552-.22.442-.991.331.11-.22.22-.551 0-.662-.11.331-.55-.11-.77.11.66.111.22.663.88.773.55-.11.99-.33 1.431-.662-.22-.11-.22-.331-.22-.552 1.321.662-.11-1.324.66-1.766-.33-.331-.77-.22-1.32-.22.66.551-.11.551-.551.772.33.22-.22.331 0 .442.22-.221.44-.332.66-.442.11.331.33.662.551.883.11-.11.11-.441.33-.331 0 .331 0 .441.11.662m-2.642-2.318c0 .331-.66.994-.22 1.104.33-.441.77-.441 1.1-.993-.33-.221-.44 0-.88-.11m1.101-.33c-.77-.332-.66 0-1.211-.442a.7.7 0 0 0 0 .662c-.22 0-.44-.11-.44 0 .55.11 1.1-.11 1.651-.22m9.249 3.42c.22.111.33-.11.44 0 .11 1.215-1.541.111-1.101.994.33-.662.77.662.88.11-.11-.11-.22-.22 0-.441.22.552.441 0 .771.552-.77-.773.22-.552-.11-1.435-.11.22-1.32-.22-.88.22m-1.762 1.105c-.22-.11-.33.11-.44 0-.11.33-.11.772.11.993-.11-.883.33-.442.66-1.104-.55-.22-.55-1.435-1.1-.662.11.662.55.331.77.773m-7.927 2.98c.11.33.66.11.11.993.55 0 1.1 0 1.431-.662-.88.552-1.541-.883-1.541-.331m2.752-4.526c.44.663 1.321.11.991 1.104-.22-.552-.44 0-.77-.552-.22.552.11.773-.551.773 0-.442.44-1.546-.11-1.435.11.441.22.883-.44.993.22-.33 0-.552-.22-.11.55.331.44.331.99.883.11-.552.55-.552.99-.331-.22.11-.55.993-.22.552.22 0 .22-.221.11-.442.441.11.771.331.882.552.22-.883-1.101-1.104-.44-1.766-.441.773.66.552.77.331.33.662-.33.773.44 1.325.33-.773-.66-.994-.22-1.766 1.101.441-.11-.994.55-.773.22.993.441.11 1.212.441-.44 1.877-2.643 2.429-2.533 3.643.22-.552.44-.773.771-.883 0 .773-.33.552-.33 1.435-.55 0-.55-.221-1.211 0 .33-.883-.22-.552-.66-1.214-.221.33-.772-.11-.882.33.11.773.991.221.991 1.104-.44-.551-1.21.332-.66 0 .55.552 1.1-.441 1.1.221-.44 0-.77.663-.99.11-.44.773-.33 1.104-.771 1.325-.44-.22-.11-1.214-.77-.552.55.221.55.663.77.994-.33.33-.33 1.103-.99.772.22.11 0 .442.22.552.33-.552.33.331.77.331.22-.883.44.442.88-.33-.55-.553-1.1.44-1.1-.222.44-.22.88-.441.44-.993.44-.11 1.431-1.104.55-.883.22.11.11.331-.33.11.11-.33.33-.441.661-.441.44.662.22.552.55.22.661.332-.22.553.11.773.11-.22.441-.22.661-.441-.66-.11 0-.883-.77-.552.33-.662 0-.994.66-1.104 0 .11.66.773 1.101.22-1.1-.772 1.321-1.213.55-2.096.22.11.551.22.771.33.55-.661-.44-.992-.11-.33-.33-.11-.77-.221-.77-.552.44.331 1.32-.442.99-.773-.11.11-.11.442-.33.331 0-.662.55-.551.77-1.324-.88-.442-.22-.993.221-1.325-.11-.772-.99.442-.99-.441.22 0 .44.11.44 0-.11-.11-.22-.11-.11-.331-.11 0-.22-.11-.44-.11-.551.772.44.882 0 1.655-.441-.662-.331-.11-.662 0-.11-.662-.88-.773-1.1-.662.22.11 0 .441.22.552.11-.11.11-.442.33-.331-.11.551-.55.22-.77.662.33.22.66-.11.55.22-.771.663-.771-1.214-1.101-.662.88.773-.11.442-.66.883m-4.294-4.967c1.211 0 .11.221-.11.883.33 0 .22.994.55.442-.88-.552 1.102-1.104.661-1.656-.22.663-1.1-.552-1.1.331m12.882 4.415c-.44.552.44.552 0 1.215-.11 0-.33.11-.11.22 1.1-.772.11-.22.22-1.324.11.11.55.772.77.33-.66-.551.551.222.551-.22-.22-.552-.66 0-.88-.552a.6.6 0 0 1-.551.331m10.13 3.09c-.22.332-.441 0-.551-.22.11.883-.66.994-.77.11-.441.552.11.773.33.994 0-.662 1.32-.331.99-.883m-26.645-9.602c-.33-.11-.66-.33-.77-.552.33.773-.331.773-.221 1.325.33-.773.55.441.99-.11-.44-.221-.33-.442 0-.663m-.11.442c.55.11.22.552.66.772.22-.662 1.982.442 1.212-.662-.33.552-.771-.11-1.432.11.22-.11.88-1.103.55-1.434-.11.11-.11.441-.33.33 0-.11-.11-.33-.22-.11.55.442-.11.773-.44.994m10.79 2.428c-.11.11-.11.22-.33.11-.441-.11 0-.662-.331-.883-.11.442-.44.331-.66.442.44.552.88.11.88.773-.55 1.434-.11 1.324-.88 2.207 0-.11-.11-.331-.22-.11.11.11.22.11.11.33-.22-.772-.882-.44-1.212-.44.22.11.11.44 0 .662.22.33 1.211.551.881.11-.44.441-.88-.552-.22-.552-.33.773.99.22.99.442-.44-.221.551-.442.11-.883.772.33.772 1.103 1.322.772-.33.11 1.101-1.656 0-1.214.22.11.11.441-.11.441-.44-.772.44-.993-.77-.551-.11-.663.77-.442.11-.883.11-.442.66 0 .88-.331-.22-.11 0-.221.11-.442-.66-.11-.55-.552-.88-.773-.11.331.22.442.22.773m5.725 3.2c-.33-.661-.88-.772-.55-1.655-1.432-.11.11.221-1.322 1.104 1.211.11 1.982.442 1.872.552m-3.413.442c.33.442.77.552.99.442.11-.442.11-.331.441-.993.44.22-.11.772.33.993.11-.11.11-.22.33-.11 0-.221.11-.442 0-.442-.11.11-.11.22-.33.11.11-.22.11-.441.22-.551-.22-.11-.44-.11-.55-.221a.7.7 0 0 0 0-.663c.88.11.66-.883 1.101-1.214-.55.663.22-.551-.22-.551-.22.33-.33-.221-.44 0-.11 1.324-1.212 2.538-1.872 3.2m-.33-3.31c0 .661-.22.661-.661 1.103.66.883 1.1.662 1.762.662-.11-.11-.22-.22 0-.441-.551-.332-.771.33-1.212.22 1.101-.33.11-1.103.881-1.766-.44-.11-.33-.441-.44-.662-.44.442.66 1.214-.33.883m13.982 5.187c.33-.11.881.11.881-.552-.22-.11-.44-.11-.55-.22a.7.7 0 0 0 0 .661c-.33-.11-.661-.11-.33.11m-9.358-7.616c.11-.22-.33-.331-.22-.552.11 0 .33-.11.11-.22-.22.33-.33-.221-.44 0 .11.33.22.551.33.882-.22-.11-.551-.22-.661 0 .44.331-.77 1.435 0 1.656.55-.22.55-.773.77-.883 0 .441.881 1.104.551.22.22.111.22.442.44.663.11-.442.661-.552.551-.883-.22.552-1.431.11-1.211-.442.66-.33.22.442.88.552 0-.552.992-1.435.441-.993-.44.331-.55 0-1.541 0m1.21-.662c.772 0 .882-.332.772.33.22-.33.77.111.88-.33-.66-.11-.99-.663-1.651 0m3.854.772c-.22-.11 0-.22.11-.441-.88-.11-.99-.11-1.54-.11.22.551.66.11 1.21.44 0 .222.11.332.22.111m-6.165-1.435c.33-.662.77.663.88.11-.22-.11 0-.44-.22-.551-.33.552.33-1.104-.44-.662.33.33-.55.883-.22 1.103m-.33-1.986c-.33-.221-.771.993-.441.993.66-.552.66-.22 1.211-.662-.22-.11-.77-.994-.88-.552.11 0 .22 0 .11.22m2.091-.552c-.11.22-.22.552-.44.552s-.44-.11-.44 0c.88.22 0 .883.33.993.22-.22.44-.331.66-.441-.11.22.11.33 0 .441-.33-.11-.44.331-.66.442.33.33.77.662.66 1.214-.44 1.214.881-.883.44-.994-.11.773-.77-.11-.77-.33.44 0 .66-.442.88-.994-.88-.442-.22-.221-.66-.883m4.404 1.214c-.66-.442-.66.773-1.21.662-.551-.773-.661 0 .11.331.33-.11.33-.662.88-.33-.33.11-.55.661-.11.882.44-.331 0-.993.33-1.545m-6.275-2.428c.55.441.88.33 1.21 1.103.11-.11.11-.441.331-.33-.22.772.88-.442.22.11-.22-.221-.22-.331-.55-.221-.11-.552.33-.552.11-.883-.66.552-.22.11-.44-.11.11.441-1.102-.773-.661 0 .77.22-.11 0-.22.33m4.624 1.766c-.55-.332.11-1.104-.66-1.435-.551.662-.551.552-.882.993.771.662.44-1.104 1.101-.441-.11.883-.66.772-1.1.993.11.11.22.11.11.331 0 .11-.11.22.11.331.33-.772.99-.441 1.32-.772m-2.973-1.877c.991.221-.33.331.22.552.11-.22.33-.22.55-.22.441.44-.55.44-.11.882.331-.441 1.102-.11 1.432-.662-.44-.331-.55.22-.99.11.11-.22-.11-.33 0-.441.22.11.22.22.33.331-.11-.662.99 0 .44-.552-.991.221.11-.441-.22-.552-.11.221-.55.11-.771.11.11-.22-.11-.33 0-.44.22.33.44.44.66 0-.33-.221-.77-.773-1.32-.221.77.551-.11.33-.11.441.33.331.22.552-.11.662m-1.872-2.097c-.11.331-.11.773.11.994.11-.332.22-.663.661-.442-.11.22-.55.331-.22.552.11-.331.33-.331.44 0 .66-.552-.22-1.545.11-.883-.33.773-.44-.331-1.1-.22m9.69 4.526c.33 0 .99.662 1.1.22.11 0 .22-1.655.11-.883 0 .994-.88.221-1.21.663m-8.699-2.98c.55-.111.55.33.881.11-.22-.442-.22-1.545.66-1.104.11-.331.11-.773-.11-.993-.11.551-.55.551-.88.551.22-.33-.11-.662-.33-.33.22.551.55.44.66.772-.88-.22-.22.773-.88.993m4.074.662c.55.441.66-.11 1.101.22-.11.221-.11.552.11.331.11-.22-.11-.33 0-.441.22.11.77.22.44 0-.88-.11-.66-.11-.77-.552-.33.11-.55.22-.88.331.22-.552.33-.993.66-1.103-.33-.221-.55-.552-.991-.442.11.11.44.11.33.331-.11 0-.33.11-.11.22.11-.22.55-.33.44 0-.55 0-.33.553-.33 1.105m2.753.662c.44.331.66.662.66 1.214.11-.11.11-.442.33-.331s.22.22.33.331c.221-.442-.11-.773-.33-.993-.11.11-.11.441-.33.33.66-.882-.44-1.876-1.1-1.876.33-.11.77.11.99-.33-.55-.221-.88.22-1.321.44.11.553.77-.11.77.553-.33-.11-.55 0-.77.11.33.11.44.22.55.441.11-.22 1.101-.441.991-.11-.33.773-.55-.22-.77.22m-2.092-2.87c-.11 0-.22-.11-.33.11.11 0 .22.11.44.11.11 0 .22.111.33-.11-.55-.22 0-.883-.44-1.103-.11.33-.22.441-.44.552.22.11.55.11.44.441m-1.872-.552c0-.22.11-.441 0-.441-.22.33.22 1.104-.44.993-.551-.11.66-1.104-.33-.993 0 .662-.441.662-.221 1.324.22.11.44.11.55.221.22-.22.991-.993.661-1.104 0 0 0 .11-.22 0m1.211-1.435c-.44.11-.77-.993-1.651-.441 0-.11-.22.441-.551.883 0-.11-.11-.331-.22-.11 0 .22.33 1.434.11.772.66-1.545 2.202.442 2.312-1.104m4.844 2.429c.661-.552-.44.993.11.993.771-.331 0-1.545.992-1.214-.11.22-.44.331 0 .441.44-.551-.661-1.214-.771-.993.66.22-.881.552-.33.773m1.652 0c-.66-.221-.33 1.324 0 .662-.11-.11-.22-.22 0-.442.22.11.22.221.33.332.33-.773-.88-1.767-1.21-1.656.22.441.88.552.88 1.104m-11.12-4.636c.44.22.99.441 1.21 0-1.21-.22-.44 0-.66-.773 0 .442-.88-.662-.44 0 .11.221 0 .442-.11.773m8.037 2.649c-.11.552.11.11.44.662-.22.22-.77-.22-.99.11.33.11.77 1.104 1.1.663-.33-.221.11-.221.22.11.111-.22.221-.552.331-.773-.44-.11-.77-.33-.66-.772.44.441.99-.552.44 0-.33-.22-.66-.22-.88 0m1.211.22c.22.111.55.221.55.442-.33-.11-.33.552-.11.22.441-.11.441-1.103-.11-.772.771-.662-.11-.662-.33.11m-6.496-5.077c-.44.11-1.761.332-1.651.552.44-.22.88.442.77.994-.33-.331-.55-.994-.99-.442.22.11.11.442 0 .662.55.11.88.442.55.883-.77-.22-.88 1.435-.77.883.22-.22.44-.33.77-.11-.66 1.325.22 1.545-.66 1.766.33.22.55 0 .88.11 0-.772-.33-.883.33-.772-.22-.11 0-.221.11-.442-.33-.22-.66.11-.55-.22.44-.773 0-2.429 1.211-3.201-.44-.442-.99.551-.88-.11.22-.221.66-.221.88-.553m10.46 4.636c.22.442.99.552 1.321.22.11-.44-1.1-1.434-.77-.551.66-.11-.33.331-.551.331m-.11-4.525c.44-.442.44-.883-.22-1.214-.11.11-.11.441-.33.33.44-.44-.551-.993 0-.44-.22.551 0 .993.55 1.324m-2.863-2.208c1.101.552 0 1.435 0 1.877.33 0 .55-.11.881.11-.44 1.214.66.662.77 1.435-.44-1.435-1.1-.993-.66-3.09-.11-.552-.77.11-.77-.552.33.11.33-.552.11-.221 0 .22-.22.22-.33.441m1.542-3.421c-.44-.442-.55 1.103-.11.441.33-.773.33.22.77-.11 0 .22-.11.441 0 .441.66-.993-.55-.993-.77-.993.11 0 .22.11.11.22m-3.634-.663c-.66.994.22-.552-.55-.441.11.883-.66 1.104-.55 1.435.11-.11.11-.221.33-.11.44.33.66 1.545 1.21.44-.33-.22-1.32-.22-.88-.772.33.663.55-.33.44-.552m2.312-.552c.11.11.22.11.11.332-.66-.442-.77.11-1.21.22 1.1.773-.551.994-.33 1.987-.331-.773-.551.331-.992.331.11-.33-.44-1.103-.66-.772 0 .441.44.551.55.883-.11 0-.33.11-.11.22 1.101-.552.88 0 1.651-.772-.44.441.551.993 0 .441.22-.33.44-.883.881-.552-.11.221-.22.221-.33.331.33.332 1.211.11.77-.11-.22.331-.66-1.104-1.32-.22 0-.553.44-.773.66-1.104-.55.441.77 1.103.22.552-.33-.332.991-1.877.11-1.767m3.744 1.767c-.22-.11-.55-.221-.66 0 .44.11 0 .662.33.883.11-.332.22-.773.55-.773-.55.993.44.22.33.993-.55-.11-1.32-.441-1.43.663-.772.22-2.423-.663-1.762.441.33-.883.88.22.99.442.44-1.215 1.762-.442 2.423-1.325-.11-.883.22-1.104.22-1.325-.33-.11-.44.221-.77.11 0-.33.33-1.213-.331-.992.33.33-.44.33.11.883m6.386 1.324c.11.11.77.883.99.441-.33-.993.661.332.882-.33-.11-.111-.44-.111-.33-.332.11 0 .33-.11.11-.22-.11.11-.11.22-.331.11 0-.11-.11-.331-.22-.11.44.551-.881.11-1.101.441m-6.606-4.415c-.33-.11-.66-.331-.881-.11.44.11.33.441.77.551 0-.551 1.212-.33.992-.11-.771 0-.44.883-.33 1.435.44-.993.22.773.55.883.44-1.104-.55-1.656.22-2.428-.33.662 1.1.552.55.22-.55.11-.88-.883-1.1-1.324-.11.331-.551.441-.22.552 0-.11.22-.11.22.11-.992.552-.551-1.435-.661-.772-.55.33-.22.551-.11.993m1.1-1.545c0 .22-.11.441 0 .441.11-.22.11-.441.22-.552-.88.11-.77-1.103-1.1-.662.22.442.22 1.104.88.773m.441.662c1.762-1.104 1.541.773 1.982.773-.44.551-.11.552-.55.883.88.22.22-.663.99-.773-.44-.331-.55-.883-.66-1.435.44 0 .99.773.55.22-.22-.551-1.541-.551-1.761-.882.11 0 .33-.11.11-.22-.22.33-.991 1.324-.66 1.434m4.074-2.76c.33.884-1.101.773-.77 1.325.22-.331.33.22.44 0-.551-1.104 1.1.442.55-.22 0-.111.44-1.104.22-.553-.22.442-.11-.551-.44-.551m1.431-.772c.77-.331 0 .441.77.552.441 0 .662-.442 1.102-.442-.88.442-1.652-.772-1.872-.11m-.88-2.539c-.11 1.214 0 .663.55 1.656-.22.22-.44.331-.66.441 0-.551-.882.442-.992-.441-.11.331-.22.773-.55.773 0-.221.11-.442 0-.442-.22.773.11 1.214 0 1.876-.33-.11-.66-.33-.77-.551-.111.33-.221.441-.441.551.88.552-.33.221-.33.332.88.883.88-.552 1.871-.221-.11-.662-.44-1.545.44-1.656-.33.331.33.994.441.662-.22-.11-.22-.33-.22-.551.88.993 2.092-.994 1.761-.442-.88-.11.22-1.104-.11-1.435-.44-.33-.77 0-.99-.552m1.54-1.435c-.44.332-.33.332.11.332-.22.551-.44.22-.33.772-.33 0-.99-.662-1.1-.22.55 0 .44 1.214 1.21.993-.88-.22.441-.662-.55-.442.33-.772 1.321-.22 1.101-.441-.22-.11 0-.22.11-.442-.44-.11-.55-1.214-.88-.772.33 0 .44 0 .33.22m-4.183 0c-.44.11-.55 1.104-.991 1.215.88-.442.66-.332 1.431-.11-.44-.332-.22-.773.11-.222.11-.772.55-.551.991-.33.33-1.656-.99.44-1.541-.553m-6.496 8.279c-.66.551-.88-.442-1.321-.221.88.883-.991.662-1.211 1.324.99.221.11.442.44.663.11-.442.66 0 .88-.332-.33-.22-.66.11-.55-.22.33-.773 1.872-.773 1.762-1.214m-.991 6.18c-.33-.11.66-1.103-.11-1.434-.22.552-.33 1.435-.991 1.214.11-.22.55-.331.22-.552-.22.331-.33-.22-.44 0 .44.442-.55.442-.11.883.66.552.77-.441 1.21-.22 0 .11.11.33.221.11m-1.872 1.104c-.33-.662.991-.441.22-1.103-.88.22-.66-.883-1.54-.11.22-.884.33-.663.22-1.325.22.11.77.22.44 0-.33-.11-.55 0-.771.11.33.22-.11.331-.44 0-.11.662-.661 1.877-.33 1.435.55-.331.77 0 1.54-.331 0 .441-1.21.993-.33.773-.55 0-1.651 1.434-.77 1.324-.11-.11-.22-.11-.11-.331.55-.773.77.331.99-.773.11 0 .991-.22.771.331-.44 0-1.321.773-1.1.994.22-.331.33.11.33.33-.44-.44-.991.553-.44 0 .55.663.55.111 1.32.222-.11.22-.55.33-.22.551.11-.441.44-.33.55-.772-.77-.331-.11-1.325-.11-1.435-.11.662-.66-.11.661-.442-.44.11-.66.442-.88.552m2.973 2.539c-1.762 1.876-.44 1.656 1.321 1.214-.55-.552.66-.331.55-.883q-.495-.165-.33.331c-.88-.552-1.541-.22-1.761-1.435a.7.7 0 0 0 0 .663c-.22-.11-.44-.11-.55-.221.11-.22.22-.552 0-.662-.22.33-.22-.11-.551-.221.11 1.104.33.552.66 1.435-.55-.221-.55.22-.77-.331-.771.441-.44 1.103-1.322 1.103.11-.33.881-.993.33-1.434-.88.662-.22 1.434-.77 1.986.44.11.33.442.44.663.44-.332-.22-.994.33-.773.331.11 0 .552.441.662 0-.552 1.101-.331.55-.883-.11.22-.55.11-.77.11.33-.22.44-.441.33-.772.771.22.44-.11 1.872-.552m-7.817-.22c-.11 1.103.99.882 1.541 1.544.55-.662-.44-.551 0-1.214.11 0 .33-.11.11-.22-.88 0-1.1.883-1.651-.11m3.523 1.544c.88.332 1.211-.441.55-.883-.22.332.11.552.11.773-.66-.441-.77.552-1.43.11.77-.883-.661-1.434.33-1.986-.11-.552-1.211-1.325-.44-1.766-.661 0-.882.33-1.212.22.22.994.11.221.881.773-.22.552-.33-.662-.55.22.33.442.99-.22.77.332-.66 0 .11.662-.55.773.55.22.77.441.88.772-.33.662-.55-.22-.77.11.55.442-.22.552.33.994-1.1.22-.99-.993-1.762-.662.22.11 0 .22-.11.441.22.552 1.101.552 1.432.331-.22.773-.11.773 0 1.656.88-.552 2.092-.22 2.312-1.214-.22.331-.66-.662-.77-.994m-8.698 3.974c.55.22.55-.22.77.331.11-.331.11-.773-.11-.993-.11.33-.55-.11-.77.11.22.22.22.331.11.552m.44 5.96c-.66-.441 1.212-.33.551-.883-.22.442-.44-.441-.77-.552-.11.11-.11.442-.331.332-.22.441.22 1.434.55 1.103m-1.1-.772c.44.22-.44.441-.661.441.22-.441.77-.662.22-1.104 0 .883-.33.663-.44 0-.11.663-1.211.663-.881.994.77-.331-.77.22-.11.441.11-.552.88.552.99-.11-.22-.11-.22-.331-.22-.552.991-.22-.22.22.44.662.221-.22.551-.33.882-.33-.22.33-.771.11-.55.772-.551-.331-.882-.331-1.102 0 .22.11 0 .441.22.552.661-.663.55 0 1.542-.331-.22-.11-.11-.442.11-.442 0 .11.11.331.22.11-.66 0 0-1.545-.66-1.103m.11 2.759c.55.11.22.552.66.773 0-.11.11-.221.11-.442.11 0 .22.11.33-.11-.33-.221-.66.11-.55-.221.44-.441.991 0 1.211.441-.44.883.22.663.33-.11-.66-.772-1.43-.993-2.091-.331m-2.643-1.766c0 .331.55.552.33.993-.22-.22-.44-.551-.66-.772-.55.441-1.431 1.324-.991 1.214.33.11.33-.442.22-.552.66.11 1.101.11.33.331.661.22 1.101-.22 1.652-.552-.22.773-.66.773-1.101.994.55.11.77-.11.44.662.771.441.991-.552.55-.883.331.11.662.22.992.441.44-.33-.22-.993.33-.772.22.11 0 .441.22.552.11-.221.44-.221.66-.442-.77-.331-.44-.441-1.21-.441-.22.33 0 .552-.11.883-1.211-.442-.771-1.546-1.652-1.656m-3.853-1.766c.66.11.77.552.77.993-.66.221-1.21.442-1.981.331.55.442-.11.442.11.994-.22-.22-.22-.331-.55-.22 0-.222.11-.442 0-.442 0 .11-.111.22-.111.441.66.331.55.994.44 1.325 1.322-.442.22-.331.881-1.766.55.441.66-.332.991-.332.11.332.55 1.987.44 1.325-.33-.993.991-.331.551-.883-.44.441.11-.662-.55-.22.55-.221.11-.773 0-1.215.77.442.44.883 1.43.552-.11.331-.33.662-.11.883.331-.662.992-.552.441-1.214 1.211.441.33 1.104-.22 1.324.33.221.55 0 .88.11 0 .221-.11.442 0 .442.882-1.104-.55-1.876-.66-2.318 0 0 1.321-1.214.11-.441-.55.22-.88.11-1.21.662 0-.22-.221-.22-.441-.11.11-.331.22-.442.44-.552-1.1.662-.88.11-1.651.331m-4.735 5.63c.33.22-.11.772.33.882-.11-.662.992-.331.551-.773-.22.552-.55-.772-.88-.11m-2.752 4.525c.44 0 .77-.332.99-.773-.88 0-.33-.22-.66-.773-.66.773.33 1.214-.33 1.546m-1.762-2.098c.11.331.22.552.33.883-.11 0-.33.11-.11.221.33-.662 1.211.773 1.322.22-.44-.33.33-.22 0-.661-.33-.221-.551 0-.881-.11.77-.553-.771-1.436-.33-.884.55.994.11.221-.33.331m.991-.11c.33.22.55 0 .88.11.221-.441-.11-.772-.33-.993-.22.331-.77.331-.55.883m-.55-2.097c.33.22.55-.11.77-.11-.11.22.33.33.22.551-.11.883-.77.331-.88 1.104 1.21-.773 1.651.22 2.752-.11-.66.11-.33-.994-.77-.552.22.11.33.552 0 .441-.551-.551-.992-1.103-1.432-1.766.11 0 .33-.11.11-.22-.11.441-.55.33-.77.662m3.413-.993c.22.33-.22.33.11.772-.33.11-.991-.331-1.101-.662.66-.331 0-.552-.11-.994.11 0 .22.11.33-.11-.77-.662-.44 1.104-1.101.442.33-.11.55-.663.66-1.104-.33-.11-.44-.552-.55-.22-.44.11-1.211 0-.22.551-.66.22-.66.22-.991-.441-.22.993-.33.772-.11 1.545-.22-.11-.55-.11-.33.11 1.1.22-.33-1.214.99-.773-.99 1.104.771-.11 1.322.773-.11.331-1.432-.22-.881.331.77-.441-.44.442 0 .442 0-.221.88-.442.66 0-.77-.552-.55 1.324 0 .662-.22-.11-.33-.552 0-.442.771.994 1.762.994 2.423 1.435-.55.221-.881.663-1.322.442.22.22-.55.883-.22 1.104 1.211-.221 1.211-1.215 1.872-.221-.22 0-.22.22-.11.441-1.101-.33.22.442.55-.22.11-.221-.44-1.435-.55-.883-.11-.773 1.1-.552.55-.883-.33.662-.22-.883-.55-.221.22.11.11.441-.11.441a3.9 3.9 0 0 0-1.211-.993c.22.11.11.441-.11.441-.22-.11-.11-.551-.11-.772.44 0 .66-.442.88.11-.11-.33-.22-1.545-.66-1.103m-4.735-3.201c.771.993-.77.441-.55.772.11.11.88.552 1.871 0-.44-.441-.99.552-.88-.11.66.11-.55-.442.11-.883.33.11.77.662.44.11 0-.662-.88-.11-.99.11m-8.367 8.057c.22.11.11.442 0 .662.66.331.11.773.77.331-.44.442.55 1.325.11.773-.11-.552.11-1.545-.55-.883-.11-.552.33-.552.11-.883-.11.11-.11.22-.33.11.22-.11.11-.33-.11-.11M16.486 71.854c.22-.441.66-.441.11-.883-.44-.11-.44.331-1.321.883.44.331 0 .994.99 1.104.551-.662-.55-.662-.44-1.104.22-.11.881-.993.881-.33-.33-.222-.55.11-.22.33m-.44 2.097c-.22-.11-.22-.33-.551-.441-.11.441.11.993-.44 1.214.55.331.66-.441.99-.773m2.972-2.759c-.22.442-.22.773.11.993.11-.772 1.652 0 1.211-.662-.55.22-.55-.22-1.32-.33M34.322 61.7c-.22-.11-.22-.442-.44-.663-.33.11-.55.663-.66 1.104.33.331.77 1.325.77.552-.11.11-.11.22-.33.11.99-.662-.22 0 .66-1.103m.66.772c-.44-.11-1.32.883-1.1 1.215.66-.552.66-.552 1.1-1.215m-1.1-2.538c-.22.441.11.772.33.993.22-.331.33.22.44 0-.66-.22-.55-.883-.66-1.435-.33.331-.991.552-.11.442m6.936 1.766c-.66.993.11-.442-.22-.552-.22.22-.991.993-.66 1.104.33-.663.77.662.88.11-.66-.11.66-.331 0-.662m-7.377 17.99c-.55.442-.33.663-.11 1.325-.66-.551-1.321.332-.44 0 .11.883-1.431-.33-.881.332.11.11.44.11.33.33 0 .221-.11.442 0 .442.22-.993.33.331.55-.22-.55-.773.992.772.441 0-.77-.773 1.101-.773.44-1.215-.44.552-.33-.883-.33-.993m-8.257 12.363c.11-1.104 1.982.662 1.21-.662-.33.552-.77-.11-1.43.11.22-.11.88-1.104.55-1.435-.11.221-.22 0-.44-.11.11.662.22 1.104-.55 1.435.66 0 .22.441.66.662m1.321 3.09c-.44-.22-1.101-1.103-1.652-.441.661.11 1.322.22.661.773.44.11.33.441.44.662.771-.11-.11-1.104.44-.993-.11 0 0 .22.111 0m44.15-36.975c-.66-.11 0-.773-.55-.883-.44 1.655-.99.552-1.761 1.435.44 0 .44.883.77.33-.77-.661 1.321-.22 1.542-.882m-.77-1.435c.33-.22.66-.22.88-.552-.33-.11-.66-.22-.88-.11 0-.221.11-.442 0-.442-.66.22-.11.662 0 1.104m-6.276 4.746c.33-.331.88-.11 1.211-.22-.11.33-.22.44-.44.551 1.321.773-.11-2.318.77-.883-.11-.662.551-.662.22-1.104-.11.11-.77.883-.77.11.44-.11 1.321-.33.55-.882-1.21 1.435-1.32 1.324-1.54 2.428M52.05 72.627c-.22.993-.22.883.55.883 0-.442.22-.883 0-1.214-.11.33-.33.33-.55.33m-4.955 7.395c.11-.552.55-.552.88-.552-.44.773 0 1.104.441.662-.22.332.11.552.11.773-.55.331-.99-.773-.77.11 1.1-.22 1.21.332 1.43.552.11-.662 0-.441.551-.772-.88-1.435.11-.221-1.1-.221.11-.552-.441-.662-.441-1.104.11 0 .22.11.33-.11-.66-.331-1.761.11-1.431.662m-2.202.773c.22.11 0 .22-.11.441.11.331.88.662 1.1.221-.22-.22-.44-1.214-.99-.662m-3.634-.773c.22-.22 0-.993-.22-.552.22.11.11.442 0 .662.66.11.44 0 .991.442.44-.662-.55-.662-.77-.552m7.157-9.934c.44.331-.99.331-.11.883.66-.993.77.773 1.321.221-.44-.552-.33-1.214-1.21-1.104m21.25-26.931c-.11.11-.11.22-.33.11 0 .11-.11.22-.11.442.55.11.44 1.435.99 1.103 0-.33-.55-.551-.33-.993.77.993.33-.662 1.1.22.551-.44-.99-1.213-.44-.662.22.442-1.43.221-.88-.22m2.092-3.09c-.661.33-.33 1.655.11 1.434-.33-.22.22-.331 0-.441-.11.11-.11.22-.33.11.22-.773.88-.662.22-1.104m-.11-.332c-.11 0-.33.11-.11.22.11-.33.55 0 .88.111.11-.22.11-.441.22-.552-.77-.33-.77 0-.88-.552-.22.221-.44.332-.771.11.11-.33-.55-.33-.22-.11.22.552.88.552.88.773m7.707-7.837c-.661.773-1.101-.33-1.101-.883-.11.332-.33.663-.55.773.88.22.44.22.11.773.11 0 .22.11.44.11.44 0 0-.22 0-.441.66.552.55.552.99.883.11-.331.22-.442.44-.552-.11-.221 0-.552-.33-.663m-1.101 1.656c0-.883.88.22.99-.331-.44-.662-1.651-.441-.99.331m-3.744 3.642c-.55 1.104-2.092.442-1.982 1.104-.66-.11-.44 0-.77-.552-.11.221-.44 0-.55.221.88.993.88.22 1.65 1.104.33-.442.771-.883 1.102-1.214-.11.22.11.33 0 .441 0 .331-.991.221-.44.552.11-.22.22 0 .44.11.44-.33.11-.441.77-.662-.33-.11-.44-.33-.44-.662.33.331 1.321.331.77-.11-.44.441-.33-2.208-1.1-.663.33.331.66 0 .55.331m-1.211.221c.22-.993-.99-1.324-1.541-1.986.22-.11 1.541.772 1.32.11-.22-.11-.33.11-.66 0 0-.883.66-.442.881-.993-.55-.442-.66.11-.99.11.22-.442-.111-.773-.331-.994.11 1.325-.77.773-.66 2.318-.331-.772-.441.221-.992.11.22-.33-.11-.661-.33-.33.55.33-1.541.551-.66.441.44.11.77.331.88.552.11-.331.33-.442.66-.442-.44.773.441 0 .221.552-.33 0-.66.331-.77.883.88.442-.331.332-.441.552.33.11.66.221.88.11.331-.551-.11-1.213.441-.551.44-.552.11-.773.22-1.325.33.883.33-.552.991-.11-.22.331-.66.662-.22 1.104.55-.11.11-.883.55-.773.33 0 0 .552.551.662m.99-5.519c.221-.441 1.432-.33.992-.772-.44.22-1.762.552-.991 1.214.22-.883 1.211.11 1.1-.442-.55.11-.44-.22-1.1 0m6.277-10.044c.11-.22-.11-.33 0-.441.44.11.55-1.325.66-1.766-.66.11 0 .993-.55.883-.33-.773-.881-1.435-1.542-1.987-.11.331-.55.442-.22.552 0-.331 1.101 0 .77.331-.33-.22-.66.11-.33.331.441-.662.771.22.881.552-.77-.11-.22.442-.77.662.44.221.55-.22 1.1.221-.33.22-.22 1.435-.44 1.656.11-.221.44 0 .55-.221-.77-.662 1.102-.442.441-.993-.11.22-.33.22-.55.22M22.21 63.024c1.321-.33.11.883 1.101.663-.55-.221.44-.221.33-.773-.33-.11-.66-.22-.99-.442-.11.221-.22.331-.441.552m-.66 2.208c.11-.331.22-.773.55-.773 0 .331.11.442-.22.552.55.442.55-.552.99-.331 0 .22.22 1.104.441.662-.11-.331-.44-1.435-.99-1.104.33.663-.331.221-.441-.11-.33.331-.771.552-.33 1.104m2.312-3.422c.11.552-.33.552-.11.883.22-.331 1.32-.552.88-.993-.22.11-.55 0-.77.11m-11.12 25.938c.55.221.77-.441 1.32-.441-.77-.552-.77-.662.11-1.325-.66-.11-.77-.33-1.1-.22.66.33-.771.993-.22 1.103.22-.441.77.332.77.552-.55-.33-.66.221-.88.331m4.954-5.408c0-.22-.11-.662-.33-.331.22.11.22.441.44.662.33-.331.66-.441.99-.773-.11 0-.22-.11-.44-.11-.33-.11-.33.331-.22.552-.22-.11-.33 0-.44 0m4.734-5.63c-.11 0-.22-.11-.33.111.33.22.55-.11.77-.11-.22.772.881-.22.551.441-.33.221-.77.11-.22.552.33-.441 1.761-.772.77-.883.33.22-.11.331-.33.331-.11-.993.11-.552-.66-1.214.11 0 .33-.11.11-.22-.991.22-1.431.772-.66.993m-2.972 1.436c-.22-.883 1.21-.773 1.32-1.104-.55-.442-.55.441-1.21 0-.11.441-.991 1.435-.11 1.104m-1.432.11c-.11.11-.11.22-.33.11 0-.22.11-.441 0-.441-.11.331-.33.662-.11.883.33-.552.22.441.55.441.22-.551.771-.33 1.101-.441-.22-.11-.22-.442-.44-.662-.33.993-.991.552-.77.11m-2.092 3.642c-.11.332-.11.773.11.994.22-.331-.11-.662.22-.552.22.552.11.993.22 1.214.11-.11.11-.22.331-.11.11 0 .22.11.33-.11-.44-.111-.55-.442-.33-.884.88.442.44 1.325.88 1.987.221-.22.441-.22.551-.772-1.1-.773-.99-1.435-2.312-1.767m3.854-.883c-.11 0-.22-.11-.33.11.22.222.33.442.11.773-.11 0-.33.11-.11.221.11-.11.11-.22.33-.11 0 .11-.11.22.11.331-.11-.662.99-.331.55-.773-.99.552-.44-1.103-.66-.552m1.1-2.317c0-.221.11-.442 0-.442 0 .331-.66.993-.22 1.104.441-.331.661-.994 1.322-.883 0-.11.11-.22.11-.442-.22-.11-.22-.22-.33-.33-.771.11-.22.772-.881.993m5.946-9.272c-.33.22-.55.442-.88.552-.11-.662.99-.331.55-.773-.22.331-.22-.22-.33-.33-.22.33-.44 0-.55-.222-.662.442 0 1.325-.11.442.88.331.11.552.33.993-.551-.552-.771 0-1.432-.33.33-.111.33-.773.22-1.105-.55.221 0 .773-.77.663-.11-.552 1.1-.883.99-1.435.22.662 1.542.772 1.872.552 0-.332-.77-.332-.66-.773.11 0 .33-.11.11-.22-.22.22-.44.33-.66.44.66-.772-1.212 0-.992-.882.55.441.55-.663.55-.773-.11.11-.22.22-.44 0 .11-.22.11-.552-.11-.331-.11.22.11.331 0 .662-.33-.662-1.211-.33-1.651 0 .77 0 .88.442 1.541.11-.33.332.33.884-.33.773 0-.33-.22-.11-.11.221-.22-.11-.55-.22-.771-.331-.22.993-.33-.331-.55.22.11.552-.11.221.22.552-1.101-.11-1.542.994-1.872 1.325.11-.22.55-.11.77-.11a.7.7 0 0 0 0 .662c-.99-.552-1.21.552-2.311.441.11-.22.11-.551-.11-.33 0 .22.11.44.22.551.33-.22 2.642 1.325 2.752.11-1.211 0 2.642.221.77-.662.331.11.551 0 .771-.11-.55-.11-.55-.552-.55-.883.22.552.66.331 1.211.441-.77.11.22.994-.11.442.66-.662 1.211.883 1.652.662-.22-.22.44-.552.55-.772 0 .22 0 .551.11.772.55-.33.22-1.104 1.101-.993-.11.441.44.552 0 1.214-.22-.11-.33.11-.44 0 1.1-.552-1.431-.11-.881.331.55-.441.77 0 .99.442.221-.663.331-.663.551-.221.881-.442-.66-.994.661-1.104-.88.773.77.22.11-.441-1.211.441-2.202 0-1.982-.442m-7.046 7.395c.66-.11.44-.441.66-1.104.881 0-.22.883.33.994.22 0 .22-.11.11-.22.11-.222.441 0 .661 0 .11-.332-.66-.663.11-.442 0-.663-.88.11-.88-.552.22-.11.55 0 .66-.442.11.11.11.331.33.331.11-.33-.44-1.214.33-.772 0-.663-.66.11-.77-.552.22-.331.55-.331.991-.11 0-.663-.88-.994-1.541-1.325.22-.552.99.11.99-.773 1.212.331-.55.994.661 1.435-.77-.441.66-.883-.22-1.214.55 0 .77-.552 1.321-.441-.66.22-.11.772 0 1.214-.22.552-.33-.663-.55.22.77.773-.22.332.22 1.215.33.22.55-.11.88.11-.33.552.441.773-.22 1.104.22 0 .33-.11.44 0-.22-.442 0-.994-.44-1.325.22-.22.22.22.551.22-.11-.55-.33-.55-.88-.55-.11-.222 0-.553.11-.884.55-.22.33.331.88.11-.11-.441-.99-.11-1.211-.993.11-.22.44 0 .44.11 0-.11.881-1.103 1.212-.22.22.11.33-.331.44-.552-.55-.221-.77.11-.77-.552-.441-.11-.441.883-.771.883-.991-1.435-1.982.883-2.863-.442.88 1.325-.77.883-1.431.663-.44.662.55.772.11 1.435-.881-.773-.771.662-1.542.33.33-.33.66-.772 1.211-.662 0-.33-.33-.11-.44 0-.22-.11-.11-.33 0-.441-.33 0-.55.331-.77.662 0 .773-.11-1.435.55-.883 0-.33-.22-.441-.11-.772-.44.11-.66.883-1.211.662 0 .22.11.33 0 .441.66 0 .33 1.546.88 1.325-.22.772-1.761-.22-2.532.441-.11.331.55.331.44.663 0-.442.881-.332.771.551-.55-.33-.77.11-.99-.441 0 .22.11.441 0 .662.22.11.22-.22.33-.33.22 1.434-.661.992-1.432 1.324.22-.442-.11-.221-1.21-.994-.331.442.22.552.11.994.55.33.99-.332 1.32.22 0 1.214-2.532-.22-1.651.552-.11.442-.77-.22-1.101-.22.22-.221.22-1.104.55-.884 0-.22-.66-.883-.77-.551-.33-.221.44-.883.55-.221.11-.552-.66-.773-.11-1.435.33.662.33.993 1.101.883-.33-.331-.77-1.325-1.211-.993-.66-.332.88-.221.22-.552.33 0 .881.441.991.883.33-.331.66-.994.66-1.104.441-.442.441.552.882.11.22-.772-.881 0-.33-.993-.221 0-.441.11-.661 0 .55-.442.33-.11.44-1.214.22.33.33.22.55.22.11-.33.11-.551-.11-.772.771.22-.11-.22.55-.773.331.11.331.442.772.552.44.11-.11-.662.55-.772-.55-.442-.66.11-1.1-.221.11-.221.11-.331 0-.442.11-.22.44 0 .55-.22-.22.662.33.11 1.21.441-.99.442.772.773-.55.773.11 1.103 1.322-.11 1.872-.221 0-.22-.33-.442-.11-.773.77.773.44-.11 1.211-.662-.77.773-.55-.993.11-.883-.11-.22-.88-.662-1.651-.662.22-.994.44.552.66-.442.66.663 1.101.331 1.762.883.33-.441-.22-.441-.11-.772-.33-.11-.771-.11-.991.11-.77-1.214.55-1.104 0-1.656.44-.11.77-.441 1.431-.11.11-.773.22-.552.22-1.324.22.33.44.441.771.33.33-.44-.99-.22-.66-.772-.22-.11-.22.22-.33.331-.662-.552.11-.993-.111-1.435.44.663 1.211-.552 1.872-.22a1.92 1.92 0 0 0-.33-1.546c.33-.22.77 0 1.21 0 .11-.772-1.43 0-.88-.772-.22-.11-.22.22-.33.33-.33-.33-.33-.882-.992-1.103 1.102-.331 1.432.11 2.203-.331.11.662 1.541 1.655 1.32.22-.22-.11-.44-.11-.55-.22.22.662-.88-.331-1.321-.22.11-.442 1.211-.332 1.101.22.88-1.214.77-.773 1.321-2.097.11.441.771.552.44 1.103.661-.22 1.102-.883 1.872-.662-1.21-.11-.66 1.435-1.43.662 0 .883.66.552.88 1.325-.55.662-.55.331-.44 1.214-.22-.772-1.212-.11-1.102-.883-1.1-.331-.88 2.208-1.541.993-.22 1.104.77 1.766.66 1.877.441.883-1.1.662-1.43 1.324-.11.442.66.442.33.883.44.773-.771-.993-.33.11-.551.773 0-.44-.661-.33.22.662.33 1.655 1.21 1.103.551-.772-.11-.993.11-1.545.331-.331.221.22 0 .442.221-.11.441-.221.662-.442.55.442-.44.442-.551.773.22 0 .44 0 .55-.221.22.22-.11.331-.33.331.11.442.55 1.766 1.211.993.33.552-.77.883-.99.332.66 1.324 1.21.883 1.54 1.986.441-.11.111-.662.551-.883.33.332.33.773.991.883-.44-.662-1.1-1.324-.33-1.986.33.22.66.662 1.211.441-.44-.552-1.1-.11-1.211-1.104 0 .663-.99-.33-.88.332-.441.551-.661-.332-.771-.552.88.22.77-.552 1.21 0 .22 0 .33-.11.441 0-.99-.773-.44-.773-1.321-1.214-.11.22.22.22.33.33-.11.221-.44 0-.66 0 .44-.772 1.32-.882.44-1.655.33 0 .55-.552.99-.331-.22.552.221.662.551.883.22 0 .22-.11.11-.22.22-.111.44-.111.771-.111.77-1.545-.66-1.435.55-2.539-1.32.22-.22-.441-1.1-.662.11-.331 1.21.22.66-.442.881-.22 1.431 0 1.431-.662.551.11-.44 1.877.881 2.428-.66-.33 0-1.434-.33-.993-.22-.552 1.431-.11 1.541-.993-.44-.552-.77.772-.66 0-.33 0-.11.33 0 .441-.881.22-.33-.773.22-1.104.55.552.77.11 1.431.331.33-.441-1.32-1.434-.22-1.214.22-.441-.66-.33-.88-.551.66.772-.331.551-.551 1.434-.66-.552-.55.442-1.211 0 0-.22.11-.11.33-.11-.66-.662-1.431-.442-1.541-1.545.88 1.103 1.32-.11 1.541 1.324.44.11.33-1.214 1.101-.441-.66-.773 1.101-.883 1.651-1.214.11-.883.661-1.104.11-1.325.22-.11.331-.22.441-.552 0 .442.88.221.44 0 .881.331 1.872-.11 2.973.221-.55-.773-1.1-.441-1.871-.552 0-.22-.11-.441 0-.662.22.11.11.331 0 .441.44 0 .22-.33.22-.552-.22 0-.44 0-.55.221.33-.993.88-2.207 2.421-2.538-.33-.773.22-1.325.881-2.208.22.11 0 .22-.11.22 0 .442.88 0 .88-.551.992-.11-1.21 1.104-.22 1.104-.88.22-.77.22-1.43.772 0 .221.11.331 0 .442.33 0 .33-.442.55-.773.77.221 0 .221 0 .662.33 0 .66-.33.77-.883.11.221.551.332.441.663.33-.994 1.541-.442 2.092-.552.22.883.66.993 1.321 1.435.11-.11 0-.221-.11-.331.11-.221.33-.11.44 0-.11-.221-.22-.442-.44-.663.22-.551.66-.551.991-.772.22.11.11.33 0 .441.22 0 .66-.11.33-.33.22-.111.66.33.11-.442-.66-.11-.99.11-1.651 0 .66.22-.44 1.324-.11.441-.66 0-.22.883.33.883-.55.442-1.321-.552-.99-1.104-.111-.33-.441-.11-.662-.772-.11.552.661.883 0 1.214-.44-.442-.44-1.104-.77-1.656-.77-.22.44.773-.22.552-.11.22.33.331.55.442-.55.772-1.1-.442-.44-.663-.22-.11-.33-.11-.44 0 .22-.33-.441-1.655.77-1.324-.22.11-.33.22-.44.552.44 0 .33-.552.66 0-.11-.552-.22-.994 0-1.656.33 0 .66-.331.77-.883.662.662 1.102.22 1.212.442.22 0 .33-.883.77-.11-.33-.994.331-.332.331-1.436.33.11.55.221.66 0-.44 0-.33-.883.551-.772.11-.552-.77-.331-.77.11-.33-.993.99-.883 1.54-.331.221-.441-.99-.22-.33-.883-.33 0-.66.11-.88.331-.33-.331.99-.993-.22-1.214.44-.331.99-.11 1.1-1.214 1.102.552-.33.441-.33 1.435.33 0 .44-.221.771-.11 0-.221-.11-.221-.22-.111.33-1.104 1.1.22.77-1.325-.55-.441.33-.33.44-.551.331.33.331.441 0 .662.221 0 .441 0 .551-.22-.11-.222-.22-.442-.44-.663.11-.22.22-.552.33-.773.22.221 0 .552-.11.883.44.11.33-.883.991-.33q-.165-.497.33-.332c.11-.22-.33-.331-.55-.441.11-.221.11-.442.22-.552.55.22.22.22 0 .441.66 0 .77-.552 1.321.11-.33-.772.22-.772 0-1.655-.22 0-.33.11-.44 0 0 .22.11.22.22.11-.44.663.22.221-.44 1.214-.771-.662.33-1.103-.55-1.655.22-.11.33-.221.44-.552.33.662.99.773 1.43.331.331.331.662.993 1.322.773 0-.221-.44-.442-.55-.221-.11-.22 0-.552-.44-.662.66.11 1.21-.331 1.65-.773.221-.441-.55-.11-.55.22-.22-.22-.22-.44-.44-.662.11-.33.33-.441.66-.441-.11-.331-.44-.331-.77-.331-.22.552.11.773-.44.993-.992-.662 1.54-1.876.33-1.986-.33-.221.33-.332 0-.442.22-.442.44.552.77-.11.44.33-.99.33-.11.883.22-.442.44-.331.55.441.551.11 1.212-.662 1.542.11-.11-.22 0-.551.11-.883-.33.221-.88-.11-1.1.442-.11-.22 0-.552-.441-.662.66-.11 1.651-.221 1.431-1.325.33.331.55.662.44 1.104.22 0 .33-.11.441 0 .11-.22-.22-.22-.33-.331.22-.11.33-.552.66-.442 0-.662-.88.11-.66-.772-.44.22-.66.441-.33-.331-.22-.11-.22.22-.33.33-.111-.22-.221-.33-.441-.11-.33-.441.33-.441.22-1.103.22.551.88.33 1.211 0-.22-.11-.77-.332-.99-.442-.551.22.44-.552.22-1.104-.11 0-.22-.11-.441-.11-.22.331-1.652.552-.77.883-.551 0-.772.441-1.432.11.22.442.44.663-.33.331-.11.773.44.221.66.773-.22.22-.44.331-.77.11 0 .663.66 0 .88.11.22-.33 0-.44 0-.661.22-.442.22.552.44.662.661 0 .992-.552.771-.883.44-.552.11.552.44.662-.22.552-1.32 0-.99.773-.22-.11-1.101-.663-1.762.22.771-.11-.44.994-.99 1.435-.331-.33-.441-.662-.441-1.103-.55-.332.33.772-.44.551.11.332.44.11.66.773-.11.22-.22 0-.22-.11-.55-.442-.55.441-1.211 0-.11.662.66-.11.99.441-.22.11-1.1 1.104-.55.773.33.552-.99.662-1.321.883-.22-.22 0-.552.11-.883-.33-.11-.88 1.104-.22 1.104-.11.33-1.211.22-.77.662-.221.11-.551-.331-.771.662-.33-1.104-.44-.331-1.212-.993.22-.221.44-.221.661-.442-.77 0-.55.221-1.321-.11.33.22 1.21.773.22 1.214-.11.552.44-.11.77.331 0-.22-.33-.441-.11-.773.22.221.441.442.881.552-.33.994-1.1 3.201-2.532 1.766 0 .442.11.994.66.773.441.331-.66.331-.99.11 0 .331.22.442.11.773.22-.331-.881.441-.77-.552-.662-.11-.111.662-.441.994.22-.11.55.11.77-.11.33.22-.11.772.33.882-.22.552-.33-.662-.55.22.44.553-.55-.22 0-.661-.55-.221-.22 1.214-.88.551.11.663-.33.552-.22 1.325-.551-.441-.772-.11-1.322-.22.66.662-.33.772-.77 1.324-.551.11-.551-.773-.771-.331 0-.442-.881-.994-.22-1.215-1.652.11.44.442-.771 1.325.77-.22 1.32.883 2.092.11.22.11 0 .442.22.552-.44.442-.44-.552-.881-.11.77.331-.22 1.324.55.883 0 1.435-.77-.331-.77-.331-.44 0-.991.993-1.762.441.11.331.33.11.77.552-.33.22-.55.773-.77.11.11 1.325 1.542-.33 1.762.663-1.211 0-2.312.33-2.643-.331-.44-.221.33-.552.55-.221 0-.22-.33-.442-.11-.773-1.32-.33-.99-.441-2.091-.552.11.442 0 .552-.33.773.55.11.66-.773 1.43-.11-.66 1.103.551.552-.11 1.324q.496-.165.331.331c.22 0 .44-.33.77-.11-.33.441-.55.552-.22 1.104-.22.441-.44-.442-.77-.552.22.772 0 .993-.44 1.655-.11-.772-.661.442-.551-.22-.22.441-.991.551-.11.883-.22.22-.55 0-.881-.11.22-.553-.33-.994.33-1.436-.55.221-.88.11-.88-.551-.33-.11-.881.883-.33.33.33.442-.772.663-.992 1.215.44 0 .771-.331.991-.773.22.11.55.22.77.331-.22.773-1.1 0-1.43.663 0 .772 1.1.11 1.1.662.551-.442-.33.552-.44-.11 0 .33.11.551.44.662-1.65.551-1.65.33-3.082 1.324-.44-.22.44-.441.55-.773-.99-.33-.88.552-1.541-.11-.44-.11 0 .883-.55.883.55.442.55-.552 1.21 0-.22.442-.77.662-.22 1.104.11-.331.55-.552 1.101-.993.44.551.991.11.771.993-.33-.442-1.431-.11-1.762.441.55-.33 1.432-.441 1.212.442.44-.11.22-1.104 1.1-.993-.44-.332-.22-.994-.33-1.546.66-.883 1.431.221 1.872-.662.44.22.22.662.55.883-.44.441-.77-.773-.99.331.22.11.22-.22.33-.331.44.441-.55.773-.881.552.22.552-.22 1.104-.11 1.324.66-.33-.55.552-.33-.33-.661.22-.881 1.324-1.762.882 0-.22-.11-.441 0-.662-1.101 1.104-.55.773.22 1.766-.22.331-.33-.331-.44 0-.22-.22.11-.22.11-.441-.44 0-.88.33-1.431.11-.11-.11.11-1.104-.22-.552-.551-.441.44-.441.55-.773.33-1.545-.77-.883-.66-1.876-.22 0-.331.331-.551.22.55.221.44.773-.44.994-.441-.22-.33-1.435-1.212-.993.22.22.55.33-.22.552-.22.883 1.541 0 .55.883.661.551.771-.552 1.542.11.11-.22-.22-.22-.33-.331.44-.331.44.331 1.1.22-.22.332-.66-.11-.77.663-.33-.773-.55.441-.77-.331-.331-.11-.331.552-.661.441.55.552-.55.552.33 1.987 0-.22 1.211-.773 0-.662.88-.221 1.321-.773 2.092-.11-1.101.882-.22.44-.44 1.655-.33-.11-.33-1.104-.551-.22-.33-.111-.33-.442-.77-.553 0 .663.33 1.435-1.542.994.44-.773-.66-1.435-1.211-.994-.771-.11 1.1-.22.66-1.103.22.441.771.11 1.432.551 0-.551-.771-.772-.33-1.545-.33-.11-.551-.22-.661 0-.33-.22.44-.662.55-.883-.33.11-.66 0-1.1-.22.66.551-.11.772.44 1.324-.991.11-1.322.11-2.092.11-.22-.22-.33-.441-.11-.772-.55.22-.33-.221-.44-.662-1.102.22 1.1 1.545-.661 1.103-.22.331.77.331.88.11.11.221.11 1.325.55.884.441.22-.77.772-.77.11 0 .11-.11.22-.11.441.11.221.55.221.33.994-.22-.11-.11-.331 0-.442-.33.221-.77.221-.99.773-.33-.11-.33-.331-.22-.552-.441-.11-.441.662-.881.331-.22.552 1.21.221.55.883-.55-.22-.77-.883-1.321-.772 0-.331 0-1.104-.55-1.656.11-.22.22 0 .22.11.22.11.22-.22.33-.33 0 .551 0 1.765.77 1.434 0-.22-.11-.22-.22-.11-.66-.663.22-1.214 0-1.877-.55-.22.22.773-.55.221.22-.883 1.761 0 1.21-.22 0 .33.331.11.441 0 0-.221-.44-.553 0-.442 0-.22-.44-.883-.55-.442-.22-.22 0-.551.11-.883.11.221.22.332.55.442-.22-.883.661-2.539 1.652-3.09.22.11 0 .22-.11.22-.11.22.22.22.33.331-.11.221-.44 0-.66 0 0 .221.44 1.435-.44.994 0 1.435 1.32 1.324 1.54 1.986.44 0 .33-.441 0-.441 0-.22.11-.11.33-.11.11-.442-.66.11-.44-.663-.22-.11-.22.221-.33.331-.22-.772-.11-.11-.77-.33.11-.442.33-.442.55-.773.11.22.33.441.77.551-.55-.33-.22-.883-.44-.662.44-.552.44-1.214 1.431-.772-.22.11-.77-1.215 0-.442 0-.662-.55-.993-.77-1.435.11-.22.44 0 .55-.22 0 .883.661.11.771.551.33-.11.66-.33.88-.552-.99.11.221-.22.441-.551.22-.442-.55-.11-.55.22-.66-.33.66-.441 0-.662.66.11.66-.11.66-1.104 0 .663.661.773.771.994.22.11.33-.331.44-.552-.33-.22-.44 0-.55.22-.33-.33-.44-.993 0-1.213.22.22-.11.22-.11.441.88-.441 1.762-.883 1.211-1.325.11 0 .22.11.44.11-.11.111 0 .222.11.332-.55.22-.88.773-1.1.993 0 .331.55.11.88.552-.77.221-.33.221.33.331-.55-.883 0-1.545.441-2.207.22.331 0 .883.44 1.104-.11-.331.11-.773-.33-.994.22-.33.55-.33.991-.11-.22-.883-.99.22-1.541-.11.66-.552 1.21-1.435 1.43-1.987.221.11 0 .441 0 .662.331.11.331-.552.662-.441.11-.221-.22-.221-.33-.332.22-.22.55-.22.99-.11-.11.11-.33.11-.33.331.22 0 .44-.11.66 0 0-.22-.11-.441 0-.662.22.22.33.552.33.883.331.11.441-.662.771-.662.44.22.22.662.551.883.44-.552-.55-.552-.33-.994-.55.11-1.542.11-1.101-.883.11.11.33.331.22.552.44.331 1.321-1.104.99-.11.661-.11.11-.883-.55-.883-.44 0-.55.662-1.21.22.11-.22.33-.11.44 0 .11-.11 0-.22-.11-.33 0-.442 1.21.33.55-.221.22-.11 1.101.551 1.321-.442.11.22.11.442.11.773.22-.442.44-.331.771.33-.33-.882.22-.882.11-1.544-.33-.11-.55-.221-.66 0-.661-.331.66-.773.11-.883.22-.442.55.33.22.551.77 0 .77-.22 1.21.442-.11-.662-.44-.883-.99-.883.11-.22.11-.441.22-.552q.33.165.33.331c.33-.11.551-.22.881-.33.11.772.11 1.103 0 1.655.66-.221 1.542 0 1.982-.883-.22.11-.44.22-.66.441-.881-.11-.551-.772-.991-1.103 0-.663 1.32-.221.88-.552.44-.331.771-.11.771.33.44.111.33-.882.22-1.103.11.552-1.32.552-1.761-.22.44 0 1.21.44 1.871 0-.22-.773 0-1.104.881-1.104 0-.221-.11-.332 0-.442-.22 0-.22.11-.11.22-.11.221-.44 0-.55.221-.33-.22.33-.33 0-.441.11-.22.44 0 .55-.22.22.33.55.551.33.993.991-.11 1.322-2.318 1.212-.663.33.11.55-.22.77-.662-.44-.22-.77-.22-.99.11.11-1.434 1.65-2.097 2.642-1.324-.33-.331-.33-.773.44-.552 0-.22 0-.441-.22-.552-.11.11-.55.883-.99.11.11-.22.22 0 .22.111.66.11 0-.552.33-.773.99 1.215 1.21-1.324 1.871 0-.33-.441-.77-1.214-.66-1.214-.22-.11.44-1.214.99-.772-.33.11-.55.662-.44.993 0-.22.991-.883.33-1.435.11-.441.991.11.551.442.55-.11.22-1.104.66-1.104.992.11-.66.552.33.883-.66.662-.44 1.104-1.32 1.104 1.1.772 1.32-1.656 2.202-1.435-.11-.442-.66-.663-.771-.994-.11.11 0 .221.11.331-.22.221-.22-.11-.44-.11 0-.11.11-.22.11-.441.55-.221.33.22.77.551.22-.441-.22-.662-.33-.993.55-.11 1.211 0 2.202-.773-.22.11-.44.221-.66.442-.33-.22.55-.442-.44-.662 1.65-.994-.11.441 1.87-.221.221-.442-.99-.22-.33-.883 1.432.22 2.313 1.104 3.414.22-.33-.22-.44 0-.55.221-1.212-.883-1.102-.993-2.643-.993.11-.441.33-.441.55-.773.22.883.33-.11.881.552-.11-.33 0-.772-.55-.883.33-.552 1.1.552.44-.552.33-.662.55.221.77-.11 0 .442.331.773.221 1.214.22 0 .33-.33.55-.22 0-.221-.11-.221-.22-.11-.44-.332.22-1.105-.66-1.215.88-.552.22-.22.44-.993.22-.221.22.22.55.22-.11-.552 0-.552.33-.11.221 0 .331-.11.441 0 .11-.442-.44-.442-.11-.993.22.883 1.101.772 1.431-.11 0 .44.22.772.44 1.103.331-.11.111-.331.551-.773-.88.663.11-.772-.88-.772.22-.221.44-.221.66-.442-.22-.11-.99.331-.88-.11-.33 0 .66-.331 1.43-.11.11-.884-1.21.22-.99-.442.44.11-.22-1.214.66-.442.11-.22.11-.33 0-.441.661-.442.771.773 1.212-.22.44.11.11 1.655.66.772.66.552-.22.662-.33 1.435.55-.883.77-.11 1.431-.663 0-.22-.33-.441-.11-.772-1.651.22-.44-1.435-1.982-.994-.11-1.324 1.652-.552 1.321-1.103.22-.221.55 0 .881.11-.22.11-.33.22-.11.441-.11.221-.44 0-.66 0 0 .663.77.11 1.1.221-.44-.772.11-.993-.33-1.545.55-.662 1.432-.552 1.762-1.656-.22 0-.33.11-.44 0-.11-.662.88.332 1.1-.441.44-.662-.66-.994.11-1.325.22.221-.11.221-.11.442.771-.11.661-.773 1.322-1.545.33-.332.22.22 0 .441.22.11.44.11.55.22.11-.22-.22-.22-.33-.33.55-.221.11-.773 0-1.214.44-.552.77.441.66.772.33.221.22-.552 0-.662.771-.662.771.552 1.322.22-.55-.551.22-.772.55-1.434.44.11.44.331.77.552-.22.33-.77-.11-.99.11-.22.662 1.211-.22.66.773.33.11.33-.552.661-.442-.11-.883.55-1.876 1.101-2.318.22.11.11.332 0 .442.22 0 .44-.331.771-.11 0-.221-.11-.332 0-.442-.991.442-1.211-.441-1.101-1.324.22 0 .11.11.11.33.33 0 0-.33.22-.551.33-.11.33 0 .55.22 0-.772-.55-.22-.55-.882.11-.221.22 0 .22.11.551-.442 0-.552.881-.331 0-.221 0-.442-.22-.552.33-.442.22.331.66 0 .22-.331 0-.442 0-.662.661.662.22-.552 1.432.33.55-.772-.55-.882-.33-1.544.55.441.55.441 1.21.441.11-.22.11-.441.221-.552-.22.11-.44.22-.66.442-.22-.11 0-.442-.22-.552.22-.11.55 0 .66-.442.11.11.11.331.33.331.33 0 0-.441.33-.33-.55-.111 0-.663-.11-.994.55-.442.66.552.33.993.33.11.771.11.992-.11 0-.442-.44-.331-.44 0-.551-.331.33-.331.33-.773.44.442.44.663.66.663 0-.221-.11-.442.11-.442.11-.22-.33-.331-.55-.441.55-.663 1.32-.221 0-.663.44-.662 1.32 0 1.32-.662.441 0 .661.442 1.432.442-.22 1.103.991 1.103 1.211 2.317.11.663-.99.332-.55.773-.33-.22-.77.11-1.211.552-.44-.11.11-.993.44-.552.22-.662-.99.22-.44-.662-.33-.11-.771-.11-.991.11-.11.11 0 .22.11.331-1.211-.441 1.761-1.766 1.211-.22 2.092-.663-.44-1.325-.44-2.54-.661-.11.33.442-.11.884-.11-.11-.33-.331-.22-.552-.221 0-.331.11-.441 0 0 .22.11.22.22.11-.88 1.325-.66 2.539.33 4.526-.44-.221-.44-.662-.77-.994-.22 0-.44.332-.771.11.44.884-.55.553 0 1.877-.22.11-.44-.22-.88.331-.111.552.44-.11.55.442-.11.33-1.212 0-.661.441-.33.11-.88-.11-.99-.441-.221-.11-.551 1.545-1.102.441-.22.442-.11.552-.11.883.11-.22.55-.552.55.221.33 0 0-.331.22-.552.11.22.22.331.441.11-.22.773 0 .994-.11 2.098-.33-.221-.44 0-.33.11 0 .11-1.211-.22-.33.331-.661.22-1.542-.883-1.212-1.655-.33.11-.77.993-.99 1.434-.661-.441.22-.551.22-1.324-.33 0-.33.441-.55.773-.661-.442.22-.552.22-1.325-.881.662-.992.773-1.432 1.325.33-.11.66 0 1.101.22-.44.221-.11.221-.33.773 1.1.11 1.651-.442 1.982-.331.22.883 0 1.435-.22 2.207.55 0 .66-.993 1.43-.662-1.1.662-.44 3.311-.88 1.766-.66.883-.991 2.207-2.422 3.753 0-.11-.44-1.546.33-1.987-.33 0-.44.22-.77.11-.441-.441.66.11.22-.552-.441 0-.992-.22-.331-.33.11-.221-.33-.332-.55-.442.11.883-.11 0-.33.331-.221-.22.22-.22.22-.552-.441 0-.661.773-.992.11 1.212-.11-.55-.883.991-.772 0-.22-.11-.442 0-.662-.88.441-.77-.442-1.43-.332.22.221.33.332.88.773-1.101.773.11 1.877-1.101 1.656 0 .22.33.441.11.772-.11-.11-.11-.33-.33-.33 0 .33.22.44.11.772.33-.11.22-.331.55-.883.55.11.33.662.33.993-.33-.22-1.21.11-.88.331-.44.552-.66-.33-1.101.442-.22-.331.22-.331-.11-.773-.44.221.11 1.325 0 1.877-.33.33-.44.33-.66 0 0 .22.11.33 0 .441.44.22.77-.11 1.32.22-.11.111-.33.111-.33.332.22 0 .33-.11.44 0 0-.22 0-.441-.22-.552-.33-.552.991.442 1.101.662.22-.993-.77-.441.22-1.324.55.441-.33 1.324.44 1.104.221.22-.22.22-.22.552-.33-.552-.66.33-1.32.883.55.33.66-.442.99-.773.66.883-.55.993-1.1 1.656.11-.883-.771-.773-.882-1.767-.44-.11-.22 1.546-.77.663-.22.772.33.772.88.772-.33.994-.33.11-.88.332.55.662-.33 1.103-.22 1.766-.44-.11-.55-.442-.33-.883-.22 0-.331.11-.441 0 .55.551.55 1.434.44 1.766-.44.662-.66-.332-1.21.22-.441-.552.77-.441.77-1.324-1.982 1.214-1.101 1.104.99 2.207 0-.22-.11-.662-.33-.33-.55-.442.44-.442.551-.773.55-.221-.55.772 0 1.214.33 0 .66-.331.77-.883s-.44.11-.55-.442c.44-.662.77.22.881.552-.22.662-1.431.883-1.321 1.104-.11.22-.44 0-.55.22-.441-.11 0-.662-.331-.882-.33.551 0 1.545.33 1.986-1.431.221-1.21.221-2.752.552.22.662.88.11.99.883-.44.442-.55-.552-1.21-.441.77.993-1.102.662-.661 1.655-.22.332-.33-.33-.44 0-.22-.33.11-.441.44-.993-.66.773-.55-.773-1.211 0-.33-.22.33-.331 0-.442.22-.11.44.11 1.1.221-.11-.22-.11-1.214.551-.772-.33.11-.33.551-.11.883.22-.332-.11-1.435 1.101-1.215-.11-.33-.55-.551-.55-.883-.55-.11.11.442-.44.552-.11-.22 0-.552-.441-.662.77-.441-.33-.11-.66-.773.33-.662 1.21 0 1.21.442 1.101-.11.11-2.097.991-1.435 0-.883-.33-.662-1.1-.662.22.662.22.662-.441.993.33.662-.55-.552.33-.33-.11 0-.77-.774-.88-.553.77 0 3.192-1.104 4.073-2.097-.11-.22-.55-.993.22-.552 0-.441-.33-.22-.55-.22-.22.33.11.551-.11.882-.33-.772-.881-.441-.991-1.103-.88.772-1.982 1.103-3.083 1.324 0 .22.11.662.33.331.22.221-.11.221-.11.442-.11.22.22.22.33.33.551 0 .44-1.213 1.212-.661-.55.883-1.542.552-2.202 1.986-.881-.662-2.312-.551-1.982.332.22-.11.44-.883 1.321-.442-.44.552-.22 1.435-1.101 1.656-.22-.221-.33-.442-.11-.773-.991-.11.33.993-.33.773-.11.662.44-.221.66 0-.11-.11-.88 1.214-1.431 1.324-.11.552.44-.11.55.442-.22.33-.77-.11-.99.11-.11.442.44.442.11.993.22 0 .44-.33.77-.11.22.552-.33.883-.77.883.77.331 1.1 1.766.77-.11.55.441.771 0 .881-.552.22.11.33.11.44 0-.11.883.22.772.771 1.655.22-.662 0-.551.77-.883-.11-.22-.55-.22-1.1-.662.33-.883.77.662 1.321.11.11-.44-.88 0-.88-.551.44-.442.55.662.99-.11.22.662.33 2.096-.11 2.538-.11-.22 0-.552-.44-.662-.22.552.33.772.44 1.103-.22.11-.77-.22-1.211.221-.44-.22-.22-.772.11-.883-.44 0-.99 0-1.431.11-.22.552.77-.22.22.552.22-.662.99-.441.33.332.22.11.22-.221.33-.331.441.441-.11.883-.22 1.324.771.22 0-.773.881-.331-.11.441-.33.441-.55.772.22 0 .44 0 .55-.22.44.441-.66.11-.55.883-.55-.442-.55-.11-.881-.552.88-.331.22-.22-.55-.442.33-.33.77-.551.99-.11 0-.22-.11-.331 0-.441-1.541-.11-1.431 1.214-.88 2.207.44-1.766 1.1 2.428.11.331-.22 0-.33.11-.44 0 .22.552.66 1.104-.441.993.77.221-.22.442 0 1.215-.33.33-.33-.11-.55-.221-.11.331-.11.552.11.773-.22.33-.551.33-.991.11-.11-.331 0-.331.22-.552-1.211.11-1.101.993-1.101 1.656.44 0 .77-.663 1.32-.442-.88.552-.33.773-1.65.552-.441.773-1.652 1.656-.992 2.649-.33.442-.99-.22-.33-.331-.66-.442-.66.662 0 .662 0 1.104-1.431.662-.99 1.435-.221.441-.882-.22-1.322-.22 0 .44 1.321.882 1.431.33.22.221-.33.552-.22 1.104-.22-.11-.55-.22-.77-.331.22.552-.11.22-.33.773 1.43-.552-.221.883-.661 0 .55-.221.44 0 .55-.773-.55-.11-1.101.22-1.651 0-1.542-.331-.44-.331-1.432 1.325.11.33.44.662.33.993.22 0 .33-.11.44 0 0-.22-.11-.22-.22-.11-.22-.442.661-.773-.22-1.215.551.331 1.212-.993 2.203-.772-.11.33-.551.33-.22.552-.331 0-.331.11-.992.11.11 1.435.33 2.207 1.982 1.987 0 .22-.11.11-.33.11-.11.552.44-.11.55.442-.33.33-.66.441-1.1.441-.551-.331.44-.22.55-.22.22-.553-1.101-.111-.33-.332-1.101-.662-1.212-.662-1.982-.772-.11.33.22.551.66.772-.77.883-.55-.552-1.32-.772-.221.33-1.542.883-.771.11-.771.11-.661.773-.771 1.325.44.11.44-.442.99-.11-.11-.332 0-.332.22-.553.221.11.441.11.551.221-.11.22-.33.11-.44 0 0 .331.22.441.11.773 0 .662-.55.662-.99.772 0 .442.55.331 0 .662.22.11.33.11.44 0 .33.221-.44.552.11.994-.33.11-1.542 0-1.872-.552.11.331-.11.773.33.993-.66-.22-.33.883-.88 1.546.22 0 .33-.883 1.1-.442-.22.552-.22.22-.44 0-.22.442.11.773.33.994.11-.221.55-.332.881-1.104-.22-.11-.33.33-.44.552-.22-.331-.22-.773.11-.883-.55.11-.33-.221-1.101-.221 1.762-.11 2.752-1.325 3.743-1.987 0-.331-.44 0-.33-.331-.22-.11-.33.331-.44.552.11-.22-.661-.993-.33-.331-.22.33-.331-.331-.441 0 .22-.883 1.761 0 2.092-.552 0-.331-.11-.552-.44-.662-.22-.552.77.662 1.54.662 0-.331-.44-.331-.77-.552.33-.662 1.101-.331 1.652-.552 0-.552.11-1.214-.661-1.435.11-.772.99-.11 1.211-.662.44.441-.77.22-.33.773.22.11.22-.221.33-.331.33.11.66 1.434-.22 1.103 0 .221.11.331 0 .442.66-.331 1.321-.11 1.651-.552.22.22.44.552.661.773-.11.883-.55.993-.22 1.765-.11-.11.99-1.103.22-1.324.66-.11.55-.11.88-.552.221.11.111.331 0 .442.331 0 .441-.552.992-.11 0-1.877 1.21-.111 1.761-1.656-.33.22-.88-1.877 0-1.656 0-.22-.11-.331 0-.441-.55.11-.55.33-.55.883-.22-.663-.88-.883-1.431-.552 0 .22.11.33 0 .441.22 0 .66-.11.33-.331 2.092.552 0 1.876.33 1.987-.22.11-1.431.33-.99-.442-.771.11.44.994-.441 1.214-.44-.552.11-.772-.66-1.434 0 .441.33.883.11 1.434-.441-.11-.441-.33-.771-.552.11-.33.33-.22.44-.551-.55 0-.99.22-1.651 0 .11-.663.66-.883.88-.331 0-.221-.11-.442 0-.663-.77.331-.66.221-.99.11-.11.221.77 0 .77-.22.22.22-.22.22-.22.552.77.11.77-1.545 1.872-.663 0-.22-.11-.33 0-.441-.33-.22-.44 0-.66 0-.441.22.55-.22.11-.883.44.773.33-.773 1.43-.11-.33-.552-.22-.663.22-1.104q.827.993 0 1.656c.22 0 .661-.11.331-.332.33-.22.55-.551.99-.33.111-.553.221-.773.111-1.546.66.441.88 1.214 1.651 1.104-.44-.331-.66-.552-1.43-.994.22-.11.33-.22.44-.551.22.33.66.441.88.772.11-.773-.88-1.324-1.21-.441-.331-.331-.331-.442 0-.663-.331-.22-.441 0-.551.221-.33-.11.22-1.324-.33-.331-.44-.773 1.1-.552 0-1.214 1.1-.22 1.32.773 1.32 1.214.22 0 .22-.11.11-.22.11-.221.441 0 .661 0-.77-.442-.77-1.325-1.541-1.325.99-.331-.22-1.435.33-1.435.55-.331-.22.11 0 .441.55-.441.55.221 1.211 0-.22-.441.11-.993-.11-1.434.22-.221.55-.221.991-.11a2.4 2.4 0 0 0-.55-.884c0-.22.11-.11.33-.11.22-.11 0 .11.55.441.661-.441.881-.441 1.322.11.22-.44-.22-.551.22-1.103.77.22 1.211.331 1.211 1.104-.22 0-.11-.11-.11-.331-.88.772.11 1.103.11 1.434.55-.441.88-1.986 1.762-1.655.33-.773-.33-.221-.771-.552.22-.11.33-.22.44-.552.11.11.11.331.33.331-.33-.552.331-1.545-.22-1.876-.22 0-.33.11-.44 0 0 1.104.33.441.33 1.545-.77-.441-.55-.441-1.43-.552 0 .22.66.883.77.552.22.441-.22.662-.44.993-.11-.22-.441-.552-.551-.22-.22-.663.55-.994-.33-1.546.22-.22.55-.441.77-.662.22.331.11.773.55.22-.77-.772 2.203-2.096.882-2.869.11-.22.44 0 .55-.22.22.44.44.772.44 1.324.33-.11.881 0 .771.552.66 0-.44-.663.33-.773-.77-.11-.77-.552-1.1-.883.33-.552.22.442.55.442-.33-.883.55-.331.66-1.104-.11-.22-.22-.442-.44-.662-.66.11.77-.332.77.33.221-.11.441-.22.661-.44-.22-.111-.77-.773 0-1.215.44.331-.33.22 0 .662.551-.441 1.212-1.545 1.212-1.876.55-.552.33.662.88.552.22-.331 0-.442-.11-.331-.55-.331.33-.331.33-.773.771.662-.11.993.11 1.435-.44.331-.88-.662-1.32-.11.22.11 1.21.551 1.981.33-.77-.33 0-1.324-.66-2.538.11-.552.66.993.44.11.33-.33.66.994 1.321.221.33-.441-1.21.22-.66-.772.22.551.66.11 1.21.441-.66.993-.88 1.435-1.32 2.76.66-.332.44-1.325 1.431-1.325-.33-.662.66-2.539-.22-1.766 0-1.435 1.1 0 1.871-.22.22.11 0 .44-.11.44-.22.553.661.332.771.332 0-.22-.11-.22-.22-.11-.22-.11 0-.442 0-.663-.22-.22-.33-.33-.88-.772.11.22.22.441.44.662-.44.22-.661-.22-.991-.442.66-.772.66-1.103 1.1-.993-.11.993.881.773.551 1.656.22 0 .33-.11.44 0-.11-1.104-1.54-1.766-.88-3.643.11.22.22.331.44.11.33.442-.55.552-.22 1.325.44.22.77-.11 1.321.22.11-.44-1.211-.44-.33-.882-.77-.22 0 .772-.881.33.55-1.103 2.092.111 2.422-1.324-.55-.22-.77 0-.88.552-.771.221-.771-.772-1.212-.441-.22-.22.991-2.097 1.322-1.104-.22-1.104 1.43-.552 1.981-1.104.11-.33-.66-.441-.66-.772.33-.331.99.22 1.21-.221.221.22.221.441.441.662.11-.662.11-1.214.33-1.435.551-.662 1.212 0 1.652 0 .11-.662 0-.441.44-.993.44.773.991-.552 1.762-.22.44-.332-.22-.994.33-.774 0-.33-.33-.551-.66-.772.55-.22.99.331.55-.883.22-.331.771.11.881-.331.11.11.33.33.22.552.44 0 .66-.773.991-.11.22-.442.22-.773.22-1.104-.55-.221.22.993-.66.441.11-.441.33-.773.44-1.214.66.11.33.773.44 1.104.22-.332.33-1.546 1.432-1.325-.11.22-.11.331 0 .442-.11.552-.77-.11-.991.33.88.442 1.652-.22 2.532-.662-.11.11-.33.11-.33.332-.11.662.22.33.77.552-.11.33-.66.772-.11.441.331.883-1.21.773-1.43 1.766.11-.11 1.1.11.55-.22.22-.442 1.321.33.55.44.33.221.55-.11.881.111.11-.441-.44-.441-.11-.993-.33 0-.44.552-.99.11.99-1.104 1.1.773 1.43.331.11.442-.33.773-.33 1.435.55-.331.55 1.214-.22 1.766.11-.441.33-.441.55-.772-1.54.441-.33 1.545-1.651 1.214-.22-.221-.33-.442-.11-.773-.88.11.11.662-.22 1.104.77-.442.77.441 1.1.662.661.331-.66.442 0 .662-.11.221-1.1.331-1.1-.22-.33-.552.11.22.55.22.22-.441-.22-.552.22-1.104-.88.332-1.32-.22-1.21-1.103-.882-.331-1.432.33-1.322-.773-.55-.11.11.442-.33.773.55.22.55-.221.77.33-.66.553-.33.773-.44 1.657-.22-.221-.22-.442-.44-.663-.22 1.214-.22 2.429 0 3.532.77-.22.77.773.22.552.11.773 1.321-.441.88.773-.55-.442-.66.11-1.1-.22.33-.774.11-1.215-.661-1.877.33-1.435 0-1.214-.11-2.65-.66-.33-.991.221-1.431.663.55.22.77 0 .88-.552.991.11-.11 1.104.44.662.331.221-.66.663.11.994-.33.441-1.1-.552-.44-.663-.22 0-.44.11-.66 0 0 .221.11.442 0 .663-.55.662.22-.552-.22-.552-.22 0-.22.993-.771.11.33.773-.44.552-.66 1.104 1.1-.662 0 .883-.441-.11.33 1.766-.44 1.214.44 2.317-.11.332-.33.442-.66.442.33.331.77.552-.11.441-.33.663.11.994 0 1.656-.44-.11 0-.662-.66-.773-.221.552 0 .883.44 1.104-1.322.22-.22 1.435-1.762 1.435 0-.22.11-.11.33-.11 0-.221-.44-.883-.55-.442-.22-.22 0-.552.11-.883.11.22.22.331.55.442-.22-.663-.11-1.435-.88-1.766-.11.33.11.552.66.772-.11.221-.11.442-.22.552-.55-.22-1.431-.441-.66-.772-.551.11-1.102.993-1.542-.11-.33.11-.11.993-.44 0-.22 0-.33.33-.551.22.55.773 1.982.441 2.752.662.44.22-.55.442.11.773-.44.662-.55-.331-1.21 0 0 .22 0 .441.22.552-.22.22-.22-.221-.55-.221.44.662-.882 1.214-.111 1.545.22 0 .22-.11.11-.22.22-.552.33.662.55-.221.22.662-.55.993-.55 1.876-.66-.331-.99.331-1.651 0 0-.331-.22-.441-.11-.773-.551-.33-.771.11-.991-.441 0 .22.11.441 0 .662.77-.993.55 2.539-.22 1.325 0 .22.11.33 0 .441.55-.11.55-.33 1.1.221 0-.441 0-.993-.44-1.325.55-.11 1.211 1.766.44 2.318 1.101-.662-1.21 1.546-.22 2.429.22 0 .33-.11.44 0 .22-.552-.77-.442-.33-.994.771-.441.66 0 .881-.993.66.441.44.22 1.101.662-.22.22-.55.331-.88.331-.22.552 1.43.221.77.994.33-.332.77-.883-.11-.773.22-.11.33-.552.66-.441-.66-1.215.11-.994-.33-1.987.771.33.881 0 1.432.552.11-.552-.22-1.766.77-1.325-.11-.552.22-1.324-.55-1.656.44-.33.66-.993 1.321-.883.11-.33-.22-.551-.66-.772.22-.662 1.1-.11 1.43-.662.22-.773-.66 1.435.331.993.22.22-.22.22-.22.552-.33-.11-.22-.331-.55-.442-.11.221-.11.442-.22.552.11.11.22 0 .33-.11.22.11 0 .22-.11.22-.11.663.66.11.99.442 0-.22-.33-.331-.44-.11-.33-.331.66-1.104 1.21-.663-.77.221-.55.883-.11 1.325-.11-1.104-.11-.773.661-1.104 0-.22-.11-.662-.33-.33-.11-.884 2.202.44 2.422.992-.11.11-.77.552-.33.773-.11.22-.22 0-.22-.11-.22-.11-.22.22-.33.33-.33-.33.11-.33.22-.551.11-.22-.33-.331-.55-.442-.11 1.215-.221.11-.551-.22-.33.772.44.993.55 1.655-.44.221-.77.773-1.321.883-.11.663.44-.33.88.11-.33 0-.55.553-.99.332-.44-.442.55-.442.11-.883.44 0 .55-.442.88-.552 0-.331-.55-.11-.88-.552-.88-.22-.44.773-1.101.442.44.552.44 1.324-.33 1.435 0 .33.33.11.44 0 .22.33.22.662 0 1.214-.33-.221-.44 0-.33.11-.55-.11-1.211.22-1.211-.441-.22 0-.66 1.324-1.101.441.66-.11.22-.331.77-.662.11-.221-.33-.331-.55-.442.11.221 0 .552-.11.883-.22-.22-.22-.441-.44-.662.11.552.33.552-.22 1.104.55-.442.99.552 1.65.662-.55.11-.55.552-.11.883-.22.552-1.1.11-1.32-.22-.441.772-.441.44-1.432.772-.22.552 1.211.22.55.883-.88-.773-.22.22-1.21 0 0 .993.55 1.104.77 1.656-.55-.552-.77 0-1.431-.332.33.331.66.331.99 1.104-.66.552-.88.11-1.76-.22.77-.773-.111-1.877 1.43-1.325 0-.22-.11-.331 0-.442-.44 0-.88.331-1.1-.22-.33 1.214-1.432.993-1.542 1.545.66.331.77 0 .44.662.33.22.55-.11.881.11 0 .221.11.442 0 .663-.22-.11-.11-.331 0-.442-.55.11-.44 1.104-.99.331 0 .663.11 1.325.77 1.656-.33.552-.33-.331-.77-.331-.11.22.22.22.33.331-.661.11-1.322.11-1.872.662-.33.552.44.773-.22 1.104.22 0 .44 0 .55-.22.33.22-.44.551.11.993-.33-.221-.99.33-.99-.442-.33-.11-.33.993 0 1.214-.22.331-.661-.441-.881-.552-.661-.11.33.442-.11.883-.44 0-.771-.33-1.542-.11 0 .22.11.331 0 .441.22-.11 1.321-.772.88.11.331-.11.662-.33.882-.551.22.22.44.552.66.773-.22.441-.44-.442-.77-.552 0 .22 0 .441.22.552-.33.22-.77 0-1.211 0-.44.11-1.101.883-.44 1.214.55-.442-.331.552-.441-.11-.22.551.22.551-.33.772-.991-.552-.661-.11-1.102.442-.22-.221-.33-.442-.11-.773-.44 0-.33.552-.66 0-.22.552 0 .773.55.883-.55.22 0 .662-.55.883-.22-.11 0-.22.11-.22 0-.332-.44 0-.33-.332-.11.22-.991 1.435-1.432.662.11.331 0 .331-.22.552-.11.22.22.22.33.331.22 0 .22-.11.11-.22.11-.552.881.11.881-.552.11 1.103.44.441 1.432.993 0-.22-.33-.441-.11-.773.55-.11.55.773.77.331.33.332.33.773.22 1.215-.55-.221-.44-.773-.11-.994-.33 0-.44.221-.77.11.44.553-.55 1.435.22 1.215.22.22-.22.22-.22.552-.22-.11-.11-.331 0-.442-.44-.11-.44.442-.991.11.33-.22.55-.772.99-.772 0-.22-.11-.331 0-.442-.55-.441-.77.11-1.32-.22 0 .33-.661.993-.22 1.103-.221.442-.441-.441-.772-.551 0 .441.11.883.771.993-.99.773-1.541-.773-2.532-.773.11-.441.66 0 .88-.33.11-.442-.77-.111-1.1-.222.22.663.11.552-.22 1.325-.11-.11-.33-.331-.22-.552-.22 0-.331.11-.441 0 .33.22.33.662 1.1.662 0-.22-.11-.441 0-.662.111.331.662.552.882.11.22.552-.881.663-.44.994-.11.441-.661 0-.882.33-.22-.22.22-.22.22-.551-.22 0-.44.11-.66 0 .11.22-.11.552.11.773-.44.551-.77-.331-1.21 0-.221.551.77-.221.22.551.22 0 .55-.441.44 0 .88-.551 1.871-.22 2.092-1.214.44.11.11.552.44.663-.88.551-2.092.441-2.863 1.435-.44-.221-.22-.663-.55-.884-.44.332-.66.552-.991.332 1.101 1.324-.88 1.876-1.652.551 0 .442.55.663.771.994.66.22.991-.442 1.762-.22-.11-.442-.55.11 0-.663.33.331.55.773.11 1.435-.33 0-.66.11-.991.11.77 0 .44.442 1.431.993-.77.332.66.773-.22 1.104-.44-.22-.22-.662-.33-.993-.44 0-.33.552-.66 0-.331.552.11.883-.331 1.435-.22-.11-.11-.331 0-.442-.44-.11-.44.442-.991.11.11-.22.11-.44.22-.551-.55.22-.66-.331-.88-.552.22.773-.22.662.22 1.214.11-.883.33.22-.44.552-.661-.773-.661.11-1.322-.11.11-.221.11-.442.22-.552-.66-.11-.11.662-.44.993.88-.22-.11.331.11.773.77.11.22-.442.66-1.104.22.331.44.441.661 0 0 .552-.22.773.11 1.435.66.22.77-.883 1.541-.331-.55.772-1.32 1.214-1.32 2.207-.771-.331-.331-.883.11-1.324-.661-.11-.661 1.324-1.432.772.44-.552-.11-.662.22-1.104.44.332.44-.22.771-.11-.11-.22-.55-.441-.99-.441-.221.33.11.551-.111.883-.44-.332-.22-.994-.33-1.546-.55-.22-.881.221-1.322.442.33.772.551-.22.881-.331.66.33.11 1.103.33 1.545-.44.331-.44-1.104-.55.22-.99-.772-.66-.22-.99-.882-.882.33.33 1.214.55 1.655-.55.332 0 .883-.771.663.77.22.44.552 1.101.22-.66-.772.55-.33.88-.993.882.331.992.773.441 1.325-.33-.11-.22-.332-.55-.442-.22 0-.33.331-.55.22.22.442.22.994 0 1.215-.221.441.11-.883-.661 0-.22-.22.22-.22.22-.552-.44.11-1.101.331-.991-.441-.77.441.22.993-.55 1.434-.22-.11-.11-.33 0-.441-.22 0-.33.11-.441 0 0 .772.88.22.77.993.441-.11-.22-.772.551-.883-.55.11-.55 0-.11-.33.66.22-.33 1.213.66 1.434-.33.11-.33.662-.88.331.22-.11.33-.22.44-.552-.66.442-1.21-.662-1.761.442.22.883.88.772 1.32 1.214-.33.552-1.21-.331-.77.11-.33.442-1.21-.883-.55-.883-.44 0-.771.221-1.211.221.77.552-.22.883.33 1.545-.11.442-.66 0-.881.331.55.332-.11.221.44.663-.11.33-.44.33-.55.772-.11-.883-.33-.22-.77.11-.331.332 1.1.553.22.553 0 .22.33.33.44.11.33.22.33.552.11.993-.11-.552-.33-.662-.77-.33-.11.551.55.661.22 1.213-.992-.772-.11-.772-.22-1.766-.661.442-.441.552-.551-.22-.771 0 .11 1.324-.881.993-.22.331.77.331.77-.11.33.441-.55.772-.22 1.103-.33.11-.77-.33-.77.663-.44-1.104-1.432 1.324-.55.22.33.773-.992.11-.771 1.325-.33-.22.11-.773-.33-.883-.221 0-.331.11-.441 0 0 1.104.33.441.33 1.545-.44-.441-.66-.441-1.211-.441.77.772.33.551.66 1.434-.44.552-.55 0-.77-.33 0 .44-.66.551-.22 1.103.55 0-.33.11-.66 0 .11.331.33.662.55.883.33-.883 0 .883-.991.773.55.33-.33.772-.66 1.655-.441-.662.77-3.2.99-1.986.66.11-.22-.442 0-.663-.55-.33-.77.442-1.101-.22 0 .441 0 .883-.11 1.324-.33-.331-.55-.773-.11-.993-.66-.11-.33.22-.55.772-.11.331.66.442.66.773-.44.11-.66.773-1.101.993.11.442.22.883.44 1.325-.22.11-.55 0-.66.441-.22-.22-.22-.441-.44-.662-.11.552.33 1.325-.441 1.656-.44-.552-.22-.773-.991-.883.22-.11.33-.221.44-.552.33.22.33.662.881.773.11-.773-.88-1.325-1.211-.442-.33-.331-.33-.442 0-.662-1.101-.331.22 1.103-.88 1.103-.11.552.44-.11.55.442-.22.11-.44.331-.55.773-.441-.663-.551.441-.992.772.55-.441 1.982-.883 1.542-2.207.33.33.66.772.99 1.103-.22.221-.55.221-.99.11-.22.553 0 .773.55.884-.22.331-.66.331-.77.883-.11.11 0 .22.11.331-.44.552-.11-.552-.771-.552.11-.441.33-.441.55-.773-.66-.33-.55 1.215-1.32.883 0 .332.99.994-.221 1.104 0 .221.11.331 0 .442.55.441.66-.331.99-.331 0-.442-.22-.773-.44-1.104.33-.331.881 1.104.661.772-.11.221.22.221.33.332-.22.22-1.32.441-.99.772-.33.442-1.322.442-1.542-.11.33-.331.33.11.55.22.22 0 .33-.11.441 0-.55-.22-.55-.772-.77-1.434-.661.552 0 1.103-.441 2.318-.55-.11-.55-.552-.55-.883-.22 0-.441.11-.661 0 0 .22.11.441 0 .662.77-.662 1.21.662.55 1.656-.22.11-.55 0-.88-.11.11-.222.44 0 .66 0-.33-.553-.99-.663-.22-1.215-.66.11-.991.773-1.652.773 0 .22.11.441 0 .662.771-.22 1.212-.11.55.883.551 0 .551-1.214 1.432-.662-.55.11-.77.883-1.431.772-.77 1.214 1.321.883.22 1.766.33.11 1.211-.552.77-.883.331-.552.331.331.772.331-.33-.552-.11-.33.22-1.103-.991.441.22-.663.11-1.546.33.11.77.11.99-.11-.11-.331-.66-.11-.11-.993.441.662 1.212.33 1.322-.883.33.441 1.1.772 1.541-.332.11-.551-.44.11-.55-.441.44-.22.77-.22 0-.442.44-.551.44-.11.88.11-.22-.551.22-.33.661-.44.11-.442-.44-.663-.33-.994-.44-.22-.22.993-.881.331.22-.883.99-.11 1.321-.883.44-.552.11.442 0 .662.22 0 .44-.33.77-.11.111-.331.221-.662.441-.993-.33-.221-.44 0-.55.22-.22-.11 0-.441 0-.662.77-.11.55 1.104.88.552-.11.22-.33.773-.77 1.325 1.321.441.22-1.435 1.541-.994.22-.662-.22-.993-.66-1.435.22-1.104.88-.772.11-1.545.55-.442.88 0 1.211.441-1.211.221.44.773-.99.773-.111.22.22.22.33.331.99-.33.66-1.324 1.65-1.214-.22.331-.77.11-.55.773.44-.331 1.101-.11 1.542-.331-.11-.332-.44-.11-.66-.773-.11.993-.441-1.435-1.322-1.214.77.22 1.541-.773 2.092.11.33-.552-.44-.993.22-1.324-.22-.11-.33-.11-.44 0-.771-.552.88-.221.22-.552.22-.552.33.662.55-.22.33.33.33.44 0 .661.55.442.661-.33.991-.33-.55-.553.22-.884.11-1.325.881-.221.55-.663 1.322-1.104.55.441 0 .552-.33.773.44 0 .77-.221 1.1-.442 0-.331-.22-.11-.33.11-.88-.551.55-.551.11-.883 1.101-.22 1.321-.441 1.762-1.655-.66-.331-.55.993-1.101.993-.771.552 1.1-.993-.33-.993.77.11 1.21-1.877 1.32-.442.331 0 .441-.22.771-.11 0-.331-.33-.11-.44 0 0-.331 0-1.545.55-2.097.33.33-.11.33-.22.552.33 0 .44-.221.771-.11 0-.221 0-.442-.22-.553.33-.22.44.11.99.442-.88.22-.22.441.11.773.221-.552-.22-.883-.44-1.325.661.11.22-.11.11-.883.11-.552.551-.552.881-.552.11-.552-.44.11-.55-.441.33-.442.44-.663 1.1-.994.221.331-.11.883-.77.883.33.11.55.773 1.211 1.104 0-.22-.33-.441-.11-.773.33.11.55.11.77-.11-.11.442-.55.773 0 1.656.221 0 .331-.11.441 0-.22-.221-.11-.331-.66-.773.33 0 .33-.993.88-.552-.33-.772-1.541-.11-.44-1.104-.22.11-.44.221-.66.442-.22-.22 0-.552.11-.883 1.43.22.77-.662.22-1.104.44-.11.66-.441.55-.772.22-.332.33.33.44 0 .22.551-.44.441-.55.883.66.441.77-.11 1.211-.221-.11.33-.66.772-.99 1.435.55-.221 1.21-.11 1.76-.221.551.441-.33.662.441 1.104-.44.552-.11.552-.55.883.77.11.22-.442.77-.663.11.332.661.552.991.442-1.43-.22-.77-2.76-2.312-2.318-.66-.22 1.211-.552.11-.883.22-.552.55-.662 1.101-.441-.22.551-.22.22-.44 0 0 .22.11.33 0 .441 1.101.442.88-1.214 1.762-.22-.11-.442.22-1.105-.11-1.436-.771 0 .22.663-.22 1.104-1.102.11-1.872-1.324-2.313 0-.22-.11 0-.441-.22-.552.11-.22.99 0 .11-.441.22-.11.66-.11.33-.331.661-.221 1.982-.552 2.643-.332.11.332.22.552.33.883 0-.33.44-.993.991-.33 0-1.104 1.872-.773.44-.994 0-.883.661-.22.881-.552-.44-.22-.66-.883-1.32-.773.99-.22.33-.772 1.87-.662 0-.22-.33-.33-.44-.11-.22-.22.11-.331.33-.331 0-.442-.22-.773-.44-1.104-.44.331-1.21.773-.66 1.104-.11.22-.44 0-.66 0 .66-.663.88-.883.99-1.987.11.22.33.442.77.552-.22-.442-.44-.883-.66-1.435-.22-.662.55.331.44.662.551.442.551-.552 1.212 0 .22-.662-.44-1.545.66-1.103-.11.33-.44.33-.55.772.55 0 .66-.883 1.21-.662 0-.22-.11-.22-.22-.11-.33-.221.11-.773-.33-.883.11-.442.66 0 .881-.332.33.442-.11 1.104 0 1.656.44.331-.22-1.214.77-.662-.22-.221.221-.773-.11-.994.331.331.882-.552 1.212 0-.11-.883-.77-.883.55-.883 0-.22-.11-.33 0-.441-.44.22-.77.441-1.21.662-.551-.662.66-.22.77-.662 0-.331-.44 0-.33-.331-.44-.552.77.441 1.21 0 .551.11-.55.883.11.993-.22.22-.55 0-.88-.11.22.441.66.662.11 1.435.55.11.55-.442.33-.773.22-.331.551.11.33.331.331 0 .441-.22.772-.11.55-1.214-.661-1.435 0-2.318.11.22-.33.662.44.11 0-.441-.55-.772-.88-.552-.441-.552.99.11 1.1-.441.22.22-.22.22-.22.552 1.211-.663.44-.331 1.872 0-.22.11-.33.22-.11.441-.22.11-.44.11-.771.11.11.442 1.651-.22 1.21.994.772 0 .662-.22.882-.993-.55.22-.66-.11-.991.11-.55-.552.77-.331.99-.331 0-.662-.77 0-1.21-.442.11-.552.55-.22.77-.662-.77-.331-.88.773-1.651.552.44-.993.22-.331.22-1.325.22-.11.33-.22.44-.551.22.22.44.552.661.772-.11-.33 0-.772-.55-.883.22-.11.44-.11.77-.11-.33-.331-1.1-.22-1.651-.442.22-.33.88.11.88-.551.11.22.661.993.33.33 1.212-.11-.11 1.546.661 2.319.22-.221.11-1.435 0-1.215-.22-.993.881-.22.771.552.77-.11-.77-1.104.11-1.324-.33-.221-.66.11-.55-.221 0 .11.44-.662.77-1.325.55.332-.33.994.55.442.221.11.111.331 0 .442.221 0 .441-.332.772-.11-.11.551 1.32 1.213 1.32.772.331.772-.99.993-1.43 1.986-.11.221.33.332.55.442-.11-.883.77-.662.66-1.656.441 0 .661-.441.882.11-.22-.772.11-.882.33-.11.44-.22.11-.772.88-.993.33.22-.11.662.661.773.55.552-.88 0-.77-.331-.33 0 0 .33-.22.551.55-.11 1.32.442 1.43.552.11.221-.99-.33-1.981-.33 0 .33.22.44.11.772.22.662-.11-.552-.77-.552.55 1.104-.441.11-.992 1.214 0 .22 0 .441.22.552-.22-.883.551-.11 0 .441-.77-.551-.22-.33-.66.442-.11-.22 0-.552-.44-.662.77-.663-.441-1.325-.992-1.546.11.773.771.883 1.212 1.104-1.101 1.214-.33-.22-1.432.662-.88-.883.11-.772.11-1.103-.33 0-.44.22-.77.11-.22.441.44.441.33.883.22 0 .44-.331.77-.11.22.552-.11.22-.33.772-.11-.11-.11-.33-.33-.33.44.772-.33.992-.88 1.544-.441-.22-.22-.662 0-1.214.11.11.11.331.33.331 0-.22 0-.441-.22-.551-.992-.442-1.102 1.324-.661 1.103.33.552-.66.331-.881-.11.44-.442-.33-1.104.55-.773 0-.33-.22-.441-.11-.772-.22 0-.33.11-.44 0 0 .22.11.22.22.11.22.22-.11.331-.33.331 0 .442.33.993-.22 1.325.22.11.33.11.44 0 .44.33-.66.551-.77.883 0 .552.88-.331 1.32.11-.11.22-.22.552-.33.773.33.11.33-.552.66-.442-.11-.22-.22-.441-.44-.662.33-.662.44.662.661 0 .22 1.435-1.761 2.097-2.092 1.214 0 .773.55.22.55.883-.77.331-.88 0-1.65.552 0 .331.33.11.44 0 .33.22-.661.662-.881.993-.33-1.876.44-1.435.33-2.649.11.221.22.331.55.442 0-.221-.11-.331 0-.442-.33-.11-.77-.11-.99.11-.22-.11.22-.662-.11-.772-.551-.11.11.442-.33.773.55.22.55-.221.77.33-.88.663-.11.884-.55 2.098-.33-.993-.33.11-.551.773-.44.33-.44-.663-.77.11-.221-.331-.772-.552-.11-.773-.441-.11-.662.221-1.212 0 .99.552.11.442-.55.883-.22-.22-.33-.441-.11-.772-.441.11-.11 1.876-.881.993-.33.773.22 1.104.22 1.766.88-.552.11-1.214.55-1.876.11.772.55.33.991-.11.55.993 1.211-.663 1.762.22-.11.22-.22 0-.22-.11-.44-.11.11.662-.55.772-.441-1.545-.551 1.325-1.432.11.55.994.22.663.55 1.656.33-.22.11 0-.11.221-.55-.11-.22-.552-.66-.773-.22.552.22.663.55.883-.55.442-1.1-.552-.77-.993-.22 0-.33.11-.441 0-.11.662.22 1.766-.99 1.214.22.773.55 1.214 0 1.877-.441-.221.55-.442-.111-.773-.66-.22.22 1.435-.77.883-.22.552.66.331.77.331.66 0-1.211.11-1.321.883-.11-.22-.22-.331-.44-.11-.22-.221 0-.552.11-.883.11.22.22.33.55.441-.22-.662-.11-1.435-.88-1.766-.11.331.11.552.66.773-.11.22-.11.441-.22.552-.22-.11-.55-.221-.771-.332.44.773.22.332.44 1.104-.44.663-.55-.33-1.21 0 0 .221.33.442.11.773-.331-.11-.22-.331-.551-.442.33.773-1.211 1.435.22 1.766-.22-.552-.33-.33.22-.552.33.773-1.1.884-.44 1.656-.22-.22-.55-.22-1.101.442-.66-.11-.44-.552-1.101-.663.77.773-.22 1.877-.991 1.215 0 .22.11.33 0 .441.55.11.88-.662 1.541-.331-.44.662 0 .993-.44 1.214-.66-.993-.991-.11-2.092-.552.33.331.22.883-.11 1.545-.33-.22-.44 0-.55.221-.551-.441-.441-.33-1.102-.22-.11.33.55.33.44.662.22-.11.441-.221.661-.442 0 2.097-.88 1.987-1.981 3.201 0-.993-1.102-.441-.771-1.435-.22-.11-.22.22-.33.331.22.773 1.1.442.77 1.656-.55-.11-.88-.442-.55-.883-.33.773-.55.331-1.211.22 0 .111.55.663.99.442.44.883-1.651 1.325-.22 1.766-.22.11-.33.22-.44.552-.33-.11-.66-.22-.991-.441.11-.332.44-.332.55-.773-.33.11-.66.442-.55-.22-.55-.111.44.993-.55.772-.33.552.44 0 .44.552-.11.552-.55.22-.77.662.33 0 .66-.11.88-.331.33.331-.44 1.104-.88.552 0 .33.11.552.44.662-.44.11-.771.442-1.432.11.11.883 0 .883-.88 1.104 0 .331.33 0 .55.22-.11.222-.22.553-.33.773-.33-.11-.22-.33-.55-.441-.111.331.11 1.766-.772 1.325.11-.332.22-.552.44-.552-.11-.332-.44-.663.11-.883-.22 0-.33.11-.44 0-.44.551.11.772-.22 1.324-.33-.22-.44 0-.55.22-.22-.11 0-.44 0-.661-1.101.552.77 1.103-.11 2.097-.991-.773-1.652.883-1.872 1.104.44.11.44-.663.88-.332.882-.33-.88.221-.22.552-.33.221-.88 0-1.21.221 0 .331.33 0 .55.22-.22 0-.66.884-.11.442.55.331-.44.221-.44.552-.22-.11-.11-.331 0-.441-.22 0-.44.11-.661 0-.33.551.44.662-.11 1.324-.33-.22-.55.11-.881-.11.11-.11.33-.11.33-.331-.33.11-.33 0-.55-.221.22 1.104-.44.993-.881 2.649-.22-.22-.22-.442-.44-.662.44 1.655-2.203 1.876-1.542 2.649-.33-.11-.55-.221-.66 0-.44-.552.11-.663-.44-1.325-.661-.22.55.993-.441.552 0 .552.99.552.44 1.325.33 0 .66-.11.88-.332 0 1.104-.55.773-1.43 1.325 0 .22.11.331 0 .441.33.552-.22-.22-.33-.33.22-.222.44-.222.66-.442-.44-.11-.44.441-.991.11-.11.331-.11.552.11.773-.33.441-.44-.663-.88-.773.11-.331.44-.331.55-.773-.77 0-.77.552-1.542-.11.44.883.881.773 1.322 1.435-.11.22-.22 0-.22-.11-1.432.441-1.432-1.215-2.423-.994 0-.441-.66-.662-.22-1.214.22.11.44.11.55.22-.77.553.22.222.551.222-.66-.442-.66-.994-1.101-1.877-.55-.22-.33.662-.33.773.33.552-.22-.22-.33-.331-.331 0-.551.11-.661.441-.11-.11-.11-.33-.33-.33-.22.33 0 .44 0 .661.33.11.77.11.99-.11-.22-.331 0-.11.22.11-1.32.332-1.43 1.215-2.752.994-.11.441.44.441.11.993-.33-.11-.66-.22-.99-.441.33-.773.33.22.77-.11.11-.332-.33-1.436.44-.994-.44-.552-.88.331-1.431 1.324-.22-.22-.22-.552-.11-.993-.22-.11-.55.442-.22.552-.22.22-.55-.331-1.101-.22.22-.222.44-.442.55-.884-.77-.22-.77-.11-1.1-.662-.221.331.11.552-.11.883.55.552.44-.552.99-.11-.22.11-.44.33-.55.772-.33-.11-.22-.331-.551-.441-1.431 1.655-.99 3.421-3.303 2.428 0 .22.33.331.44.11 0 .331 0 .331.33.883.551.11-.11-.441.441-.552.44.221-.22 1.325-.77.663-.11.22.22.22.33.33-.11.442-.661 0-.771.663-.77-.552-1.542-1.435-2.422-1.435.22-.552.55-.552.77-.11 0-.221 0-.442-.22-.552-.44 0-.66.552-.99.772-.551-.551 0-1.214-.992-.882.771-.332.55-.552.44-1.215.441.552.331 1.104.771.552.11-.33-.66-.441-.66-.772.33-.332.22-.663.88-1.104.771-.331-.77.662.441.662.33-.883 0-.883.55-1.435-.55.442-1.21.552-.55-.441.66.552.991-.442 1.321.22.11-.22.11-.441.22-.551-.55-.11-.66.551-1.21.22.11-.33.11-.552-.11-.772.33-.552.22.441.55.441.22 0 .33-.11.44 0-.11-.33-.22-.552-.33-.883.11-.33.77.552 1.431.552-.33.22-.22.331-.22.552.33.11 0-.773.88-.331-.33.22-.22.331-.22.552.22 0 .22-.11.11-.221.22-.11.441-.11.771-.11-.55-.442-.55-1.104.22-1.325.11-.552-.44.11-.55-.441-.11.11 0 .22.11.33-.11.222-.44 0-.66 0 0 .442.77.663.11.994-.11-.883-.44 0-1.211-.441.11-.221.33-.11.44 0 .11-.221-.22-.221-.33-.331.11-.332.22-.663.44-.994.33.662.66-.22 1.211.442-.33-.442.33-1.215-.33-.994-.22-.22.77-.993.99-1.435.221.994.992 0 .992.883.22 0 .11-1.214-.11-1.434-.11-.663.99-.332.55-.773.33-.442.44.552.881.552-.55-1.214.44-.773.66-1.656-1.1.11-1.21.22-2.091.552-.33.331-.22-.22 0-.442.99.552.55-1.545 1.431-.662-.11.221-.33.11-.44 0 0 .442.33.221.55.221-.11-.22.11-.552-.11-.773.44-.33 1.541-1.434 1.651-2.428.661.662.881-.11 1.652.442-.77-.442-.22-.994-.88-1.325.44-.331.88-.552 1.32-.883.33.331-.11.331-.22.552.44.11.66-.331.77-.883-.88.11 0-.11-.33-.331.441-.11.881-.331 1.322-.442 0-.662-.22-.772.22-1.324.33-.11.77.11 1.211 0 0-.331-.33 0-.55-.22.22-.111.33-.222.11-.442.22-.442.88.22.99.441-.66-.993.11-.662-.66-1.435.33-.22.44-.662.88-.552-.11-.552-.77.331-.77-.552-.55.663-.99.221-1.651-.662-.44.773-.33.994.22 1.877-.11.22-.44 0-.55.22-.331-.33-.331-.441 0-.662-.661-.441-.771 1.325-1.212.22-.22.773 1.101.773.77 1.436-.11-.221-.22-.331-.44-.11-.22-.111-.11-.332 0-.442-.33 0-.44.22-.77.11 0 .331.11.552.44.662-.22.221-.44.221-.66.442-.22-.22.22-.22.22-.552-.33 0-.55.11-.66.442.33.33.33.883.44 1.324-.11-.11-.991.22-.771.662.33.883-.66-.883-.77.11-.441-.551-.221-.22-.331.332 0 .11 0-.22-.22-.331.33-.442 1.651-.552 1.32-1.104.111-.22.331-.11.441 0-.55-1.104-.99 1.435-1.871.662.22 1.214-.661 1.104-.55 2.097.99-.993 0 .332-.662 1.104-.33-.11-.55-.11-.77.11-.44-.33.33-.22 0-.662-.33.11-.11.331-.55.773-.331-.11-.551-.22-.661 0-.33-.22.11-.883-.55-.883.33-.331.88-.22 1.1.22.33 0 0-.33.22-.551-.55.22-.22-.11-.77-.331-.22.33-1.322.11-.881.552-.33.11-.55-.442-.881-.552.88 0-.11-1.215.99-1.435-.33-.331-.22-.11-.33-.994.22 0 .11.11.11.331.22 0 .441-.33.771-.11 0-.883-.22-.331.44-.993.111.22.221.33.551.441-.55-1.324.55-2.097 1.432-3.09-1.982 1.214-.22-.221-.66-.773.44-.22.77-.441 1.32-.441-.66.551 0 0 .22.551.22-.662-.55-.883-.33-1.545.55-.11.77.883.991.442.44.22-.22.883-.44.993.22-.11.55 0 .88.11 0-.22-.33-.441-.11-.772.22.441.991.11.771.993.55-.441.77.22 1.431-.11.11-.662-.44.22-.66 0-.22-.331 1.21-.331 1.431-.773-.11-.552-.88-.772-.33-1.545-.22-.11-.33.331-.44.552.11.33.33.662.55.883-.22.22-.44.22-.66.441-.331-.33-.331-.441 0-.662-.331.11-.771 0-.881.552.22.11.22-.22.33-.331.33.552-.77.883-.991.33.11-.11.33-.11.33-.33-.55.11-.55.33-1.1-.22.22-.222.44-.222.66-.442-.44-.332-.55.22-.881.33-.22 0-.11-.11-.11-.33-.44-.221.88.11 0-.663.22.11.77-.22 1.1.221-.33-.773.441-.883-.33-1.545.11-.442.441-.552.881-.331-.11.22-.33.11-.44 0 0 .441.33.22.55.22 0-.22 0-.441-.22-.552.22-.22.55 0 .881.11-.66.442.11.332.77.553-.33.33-.77.552-.99.11.44.773-.33 1.214-.55 1.435.11.22.22.442.44.662-.11-.22.11-.552-.11-.772.88-.221 1.21-1.214 1.541-1.656 0-.22-.11-.331 0-.442-.33 0 0 .332-.22.552-.11-.22-.33-.441-.77-.552.33-.11.55-1.103.88-.33.22-1.325-.66.33-1.211 0 .55-.663.77-.552.88-1.546.22-.11.551.11.771-.11.55.441-.55.11-.66.441 0 .442.88-.33 1.431.331 0-.662-.55-.993-1.211-.993.44-.441.66-1.325.66-1.656.441-.552.661.442.881.552-.33.552-.22-.441-.55-.441.11.22-.11.552.11.772-.33.552-.22-.441-.55-.441-.33 1.324 2.312.662 1.871-.22-.33.11-.11.44-.77.661-.44-.552.99-.883-.22-1.214.66-.11.55-1.324.44-1.214-.11-.552 1.321 0 .66-1.104 1.212.442 2.092.994 3.193.11-.33-.22-.44 0-.55.221-1.542-.882-.77-1.103-1.762-2.097 0-.441.77-.441 0-.662 1.211-.22 1.431.22 1.321 1.214.22 0 .33-.33.55-.22 0-.221-.11-.221-.22-.11-.44-.222.22-.994-.44-1.105 0-.441.771-.441 0-.662 0-.331.991-.22.44-.552.331-.33.331.11.551.221.22 0 .33-.11.44 0-.11-.331 0-.773-.55-.883.55-.773.55.331.88.552 1.102.11.992-1.545 1.762-1.435.11-.552-.66.11-1.1-.22.55-.773.66-.111 1.54-.332.221-.552-.66-.331-.66 0 .33-.11.771-.11.771-.441-.55.22-.88.883-1.431.11.44.662-.22.883-.22 1.766-.771-.11 0-.773-.33-.993-.441.11-.331.993-.992.772.11-.552.55-.33.55-.883 0-.22-.11-.33 0-.441-.22 0-.66.11-.33.33-.22.332-.66-.11-.77.663-.881-.331-.66-.993-.991-1.545.88.22.77-.773 1.431-.662-.33.772-.55.662-.55 1.435.22-.552.55-.663 1.431-.663.44.331-.33.221 0 .663.44.11.66-.332.77-.883-.44-.221-1.76-.332-1.32-1.435.22 1.103.66-.442-.44-.11.22-.111.33-.221.11-.442.11-.221.44 0 .66 0 0-.662.22-.662.66-1.104-.33-.22-.44 0-.66 0-.11.331-.22.552 0 .662-.44.11-.77.442-1.211.221.44-.552.44-.662 0-1.214-.33.552.66.552-.11.883 0 .331.11.552.44.662-.33.442-.88.331-1.101.993-.11-.441-1.211-.11-.44-.662-.661.11-1.101.773-.771 1.325.55.11-.11-.442.44-.552-1.21-.11 1.101-.331.33.883-.66-.662 0 .11-.22.552-.22-.11-.33-.11-.44 0-.11-.221-.11-.442-.11-.773-.33.11-.77 0-1.321-.22.11.33 0 .33-.22.551.33-.22.88 0 1.21-.22.661.551-1.1.441-.44.993 0-.442 1.101-.552.44.11.881-.11 1.872.331.881-.33.991-.332.991 1.213 1.652 1.544.11-.22.44-.551.88.11-.11.221-.22 0-.22-.11-.44.442-1.1.221-1.43.773-.221 0-.11-.11-.11-.331-.221-.11-.221.22-.331.331-.22-.11 0-.442 0-.662.44.22.55.11.88.11 0-.22-.11-.331 0-.441-1.1.22-.77-.221-1.761-.663.77.883 0 2.429-.77 3.201-.22-.11-.11-.33 0-.441-.331-.11-.441.662-.772.662 1.212-.441 1.102 1.104 1.872.552.22.22.22.552.11.993-.44-.22-.88-.33-1.43-.552.77-.22.22-.11 0-.662-.221.331-.662.993-1.212.22 0 .332.22.442.11.773.88-.441.33.11-.11.442.55.22.77-.331 1.101-.442.44.221-.55.442.11.773-.11.22-.22 0-.22-.11-.33 0-.11.33 0 .441-.44.11-.881-.22-1.211-.441-.44.883.88.662.77.993.44.552-.44-.441-.77.11.11-.441-.11-.551-.771-.33-.55-.332.44-.221.55-.221 0-.221-.11-.332 0-.442-.33.442-1.54-.22-1.54-.883-.441 0-.331.552-.662 0-.11.442.22.662 0 1.214-.22-.22-.22-.441-.44-.662-.22.552.33.883.66.773.11-.221.11-.332 0-.442.441-.441.881.442 1.212.442-.22.22-.44.22-.66.441.66-.22.44.22 0 .442.22.11.33.11.44 0 .22.441-.771 1.324-.33 1.986-.22.442-.441-.441-.441-.662-.44-.11-.66.331-.88.552.33.22.44 0 .55-.22.22.22 0 .551-.11.882-.11-.22-.33-.441-.771-.552-.11-.22 0-.552.11-.883-.22-.11-.55-.22-.77-.33.33.551.88 1.103.33 1.986-.11-.662-.33-.22-.661-.773-.22.773.88.552 0 1.215.33-.11.66-.332.88-.552.11.22.22.33.551.441-.33.442-.88.331-1.1.994-1.432-.773-.992.883-1.873 1.103.44.331.551-.22.881-.33.22.11 0 .22-.11.22 0 .22.33.331.44.11.11.221-.11.773-.44.994-.22-.11.22-.663-.11-.773-.22.442-.55-.11-1.211.662-.22-.11 0-.22.11-.22.11-.442-.77 0-.99.11-.331-.442.66-.22.44-.994-.55.221-.22-.11-.771-.33 0 .33.33.551.66.772-.88.22-.44.22-1.32.883.11.11.22 0 .33-.11-.11.993 1.541.33 1.21.993.11.11.22 0 .331-.11.33.22-.11.552-.33.33-.11.111 0 .222.11.332-1.322-.993-1.762.662-2.202 1.435.22 0 .44 0 .55-.22.33.11-.44 1.434.33.882-.33.11-.55 1.545-1.43 1.325.11-.332.22-.552 0-.663-.11.552-1.652.221-2.093 1.215 1.101-.552.991-.221 1.652-.773.11.22 0 .552.44.662-.99.11.11.552-.55.883-.11-.22-.11-.441-.11-.773-.22.11-.55-.11-.771.11.33.553.66-.33.66.773-.11.332-.99-.551-.66 0-.44.552-.55-.441-.11-.772-.22 0-.33.11-.44 0-.22.441.11.772.33.993-.22.221-.22-.22-.55-.22.11.772.55.33 1.32.772-.33.331-.88.22-1.32.442 0 .33.22.441.11.772-.331-.662-.771.773-1.762.442 0 .33.11.552.44.662-.11.662-.55.442-.66 1.104-.33-.221-.33-.662-.881-.773 0-.22.11-.11.33-.11-.11-.331-.44-.331-.77-.331-.11.662 1.1.441.33.993.22-.11.55 0 .88.11-.22.552-.99.221-.33.773-.11.331-.77-.331-.44-.662-.22 0-.44.33-.771.11-.22.662-.44 1.214-.99 1.214-.111.552.44-.11.77.331-.991.663-2.422 1.104-2.092 2.429-.33.22-.77.11-.22.552-.881-.663-1.322.551-1.542-.883-.55-.221-.22 1.214-.88.551.99-.441-.551-.772.11-1.545-.33-.22-.551.11-.881-.11.66-.662.44-.11.44-.994.77.552.22-.993.55-1.434.22.441.22.11.771.33.11-.33-1.1-.772 0-.44.11-.332.11-.553-.11-.773.66-.332.33-.663 1.101-.994.22.22-.11.22-.11.442.44.33.44.441.33.993.22-.11.55-.552.11-.883.33-.22.661-.22.881-.552.11-.441-.44-.662-.33-.993s.44-.331.55-.773c.661.883-.11-.662.771-.11-.33-.773.881-2.097.22-2.208.44-.33 1.212-.662.991-1.214-.33-.552.22.22.33.331.551-.772.992-.772 1.652-.552-.99-.662-.77-1.103-.44-.33"></path></svg>