<svg xmlns="http://www.w3.org/2000/svg" width="100" height="100" viewBox="0 0 100 100"><path d="M90.857 14.424v.05c-.06.02-.063.065-.102.083-.033.018-.096.01-.117.019l.019.017c.173.124.51-.004.665.05.02.02.031.033.052.051h.28c.054.02.061.086.1.115.03.025.197.07.233.084v.02c.06.017.165-.038.248-.02.137.035.286.1.417.135.198.054.412.02.597.083v.016h-.165c-.065-.049-.156-.03-.219 0l.02.017c.154.1.361.086.465.234h.019q-.01.006-.02.016a.4.4 0 0 1-.198.067c-.097-.097-.299-.148-.448-.181h-.317c-.039-.017-.039-.065-.064-.085a.6.6 0 0 0-.268-.102.3.3 0 0 0-.019.084c.025.022.022.01.032.05-.061.001-.06-.01-.08.032.013.023.013.029.016.068-.025.009-.025.011-.068.017-.097-.075-.325-.094-.478-.1-.024.04-.027.047-.032.114.05.024.112.052.165.069q-.009.006-.014.015c-.042.025-.36.016-.418.02-.025.048-.057.104-.082.148-.02-.005-.032-.011-.052-.017.02-.134 0-.175-.165-.168v.033l.065.05c-.03.054-.053.065-.065.134.035.013.035.02.065.034-.027.056-.046.079-.05.167.072.059.07.126.2.134.142.093.273-.023.448.032.04.015.154.054.2.069h.231c.226.062.52.134.748.216.158.058.393.047.45.201a.2.2 0 0 0-.085.1c-.11-.002-.097.03-.216.033a.25.25 0 0 0-.184-.119c-.097.131-.26.17-.465.17q-.007-.027-.02-.051c.042-.035.05-.09.052-.168l-.231.018c-.049-.11-.098-.14-.267-.132-.06-.042-.126-.008-.217-.035-.218-.064-.56-.165-.78-.083v.033c.08.026.174.076.268.1v.034h-.085c-.04-.023-.058.012-.099 0q-.017-.026-.032-.05l-.232.015c-.138-.03-.288-.08-.449-.084q-.01.01-.017.02c.022.02.041.044.066.064h-.118c-.019-.013-.004-.006-.032-.016-.021-.049-.014-.062-.065-.083-.074-.046-.166.003-.231-.017-.124-.037-.61-.199-.75-.135-.04.022-.012-.008-.032.033.068-.002.09-.008.116.034a.3.3 0 0 0-.1.05c.068.004.084.018.117.05-.025.023-.021.013-.03.052.177-.003.068.025.166.066.06.025.189-.038.266 0 .08.039-.003.077.167.083.096-.049.479.117.617.132.077.013.166-.062.266-.03.112.031.326.102.45.115.098.014.23-.037.348 0 .177.057.396.112.649.117l.017-.017c-.002-.073-.023-.06.02-.082.027-.05.039-.062.115-.067.04.056.11.127.183.15v.016h-.082c-.032-.04-.058-.048-.132-.05-.018.03-.021.029-.032.066h.016c.057.051.147.053.25.051 0 .064.065.056.167.05.023-.019.61.16.649.217v.084c-.03.026-.033.074-.049.117-.237-.064-.207.037-.371.098-.025-.114-.056-.213-.132-.267-.203-.136-.605-.124-.867-.185-.115-.025-.244.032-.33 0a1 1 0 0 1-.05-.05l-.202-.017c.005.084-.03.075-.149.066a.32.32 0 0 0-.228-.084c-.013.074-.053.085-.067.135-.031.098.056.199.067.25a.7.7 0 0 1-.118.25c-.017.004-.007.013-.017 0-.021-.026-.019-.106-.032-.135a.2.2 0 0 1-.132.068v-.018c.01-.029.016-.087.022-.134-.054-.045-.071-.127-.132-.169-.068-.041-.187-.041-.249-.08-.02-.018 0-.046-.017-.068-.032-.04-.11-.032-.185-.032-.153-.097-.324.081-.528.032-.339-.079-.811-.164-1.165-.167-.017.028-.021.027-.032.064h.032c.147.116.463.058.698.119.088.024.256.002.367.032.05.016.108.072.148.084h.316c.092.024.21.085.3.117.11.038.19-.027.28-.032.017.06.035.067.052.133-.147-.003-.273-.04-.399-.017v.084c.258.104.554.203.816.3v.017h-.053c-.025-.018-.068-.017-.114-.017a.1.1 0 0 0-.02.017q.007.05.02.101h.018c.082-.052.177.023.248.034.074.013.084-.03.168-.034-.002.05-.014.046 0 .065.056.04.14.042.198.084.075.057.126.177.218.219.174.077.447.075.63.15.098.037.147.163.233.2.102.04.205.016.297.066.022.012.02.054.034.066q.098.034.197.067c.124.065.306.212.331.367-.03.022-.095.05-.116.083-.022.04 0 .057 0 .118 0 .205.119.107.267.186.05.025.074.094.117.131v.05c-.176 0-.34-.023-.465 0-.02.041-.017.063-.054.084-.065-.055-.186-.051-.312-.05v-.068c-.021-.006-.032-.012-.051-.017-.149-.092-.351-.02-.549-.068a5 5 0 0 0-.778-.116c-.012.025-.014.026-.022.066.052.037.066.12.12.15.161.094.37.089.546.168-.007.005-.01.01-.017.018-.04.025-.134.02-.197.017a.6.6 0 0 0-.15-.065c-.06.085-.183.123-.218.2l-.02.017c.117.033.252.118.352.15.058.018.064-.026.132 0 .107.04.193.144.317.167v.066h-.033c-.027.02-.08.019-.132.019v.05c.117.04.154.172.25.218h.116c.241.081.632.077.915.132v.084c-.015.02-.006.004-.019.033-.027.01-.018.002-.03.017-.238-.053-.633-.077-.85.033-.044.025-.058.078-.116.101.013-.065.027-.084-.031-.117-.108-.07-.36-.005-.482 0v-.067h-.032c-.04.055-.056.12-.1.184-.031.048-.092.028-.133.066-.025.024-.046.108-.067.133h-.032c0-.084-.004-.107-.066-.133-.087-.077-.363-.04-.48-.033-.018.029-.022.029-.03.067a.3.3 0 0 1 .114.018c-.005.04-.008.04-.017.067.049.002.149-.017.149-.017.025.01.09.07.133.083q.082.01.167.018a.3.3 0 0 0 .03-.034c.02.024.032.044.053.067.07.036.174.024.248.05v.034h-.102c-.045-.03-.34-.044-.398-.034-.016.05-.031.05-.051.1.017.022.017.028.02.069.207.111.773.124.797.434-.044.026-.071.033-.15.033-.05-.034-.198-.02-.28-.017-.014.021-.018.036-.032.05.012.028.003.016.017.035.029.05.168.124.232.131.081-.069.183.014.299.018.174.004.357.035.498.068q.11-.008.217-.018c.037.01.074.04.132.03.122-.014.366.032.517.069q.118-.01.23-.02c.045.016.063.071.151.052.02-.003.049-.037.08-.032.077.006.147.062.2.082h.133q.038.041.083.083h.147c.184.057.368.066.565.134q.167.008.332.018c.23.07.523.067.73.15h.183c.144.062.1.234.218.284.084.053.216.006.332.033.213.05.478.095.729.099.021.036.025.031.03.084-.026.024-.044.012-.016.033.085.062.306.043.45.083.13.038.224.159.348.183.171-.126.553-.01.728.033l.22.017c.024.013.072.073.1.084.104.042.255 0 .367.051-.03.061-.083.067-.118.115l-.018.102c-.019.025-.072.014-.082.05q.006.05.018.1a.5.5 0 0 1-.082.218c-.175.106-.713-.094-.764.17 0 0 .03.104.03.181-.058.021-.122-.002-.184.034q-.025.04-.049.083c-.112.064-.232-.008-.283.117-.014.022-.014.04-.018.084h.033c.114.066.69.048.93.084.062.008.151-.025.217.017.014.018.01.015.019.05-.054.02-.068.025-.051.067.016.056.019.062.067.084.14.112.579.049.667.216h-.02c-.047.032-.174.02-.249.018q-.032.033-.066.067l-.034.149c-.046.076-.154.037-.18.15.036.053.04.133.08.182.113.078.388.19.432.317-.034.048-.044.122-.08.168-.073.05-.15.025-.184.118-.066.097-.01.212 0 .316h-.032c-.08.05-.24 0-.3-.016-.124-.036-.264.02-.33.05-.063.109-.117.17-.119.35.065.035.13.05.202.083.003.02.01.034.015.051.119.065.45-.047.534.083h.016l-.016.017c-.074.064-.13.042-.132.183.099.03.148.1.148.234-.078.094-.133.198-.218.283-.109.115-.232.167-.181.398v.15c.027.066.074.051.08.168-.05.053-.32.468-.329.535.044.048.019.077.049.149.051.12.153.202.18.368-.225.012-.468.119-.561.267-.025.074-.045.146-.07.22-.081.068-.181.11-.265.182-.046.04-.09.147-.148.169q-.077-.008-.15-.018l-.034.031q.019.041.035.084c.112.042.197.1.217.233-.02.025-.026.067-.033.1-.114.053-.23.032-.365 0-.14-.03-.274.053-.432.02a1.7 1.7 0 0 0-.549-.02c-.143.028-.388 0-.499-.016-.08.01-.166.024-.25.033-.15-.019-.458-.068-.63-.02-.048.017-.105.07-.148.084l-.22-.017c-.279.084-.66.066-.878.15.013.028.022.045.032.082l-.032.031h-.032v-.05l-.168-.017v-.05c-.103-.004-.246-.013-.316.03q-.054.067-.116.134c-.156.081-.365.01-.518.135.028.022.024.01.035.05-.17 0-.293.05-.43.083v.033c.073.01.1.057.145.065.029.007.083-.026.102-.032l.3.019c.072-.024.178-.109.25-.134.095-.034.171-.005.25-.052q.047-.047.098-.099h.15c.151-.029.148-.008.281.034.084.027.154-.032.198.033h-.03v.031h.017c.1.102.697.228.914.186.01-.042.03-.113.068-.134.03-.029.052-.031.117-.033.023.036.326.332.348.333.066.005.068-.044.132 0-.037.026-.048.028-.032.066.01.04.042.062.051.081.022.067-.041.114-.05.151-.026.097.09.392.131.419.056.032.117.008.15.067.006.02 0 .135.016.2-.093.081-.067.138-.266.135-.037-.035-.121-.043-.183-.052-.017.028-.023.027-.03.067.035.02.079.047.116.067l-.018.018c-.037.041-.105.035-.183.033q-.018-.058-.032-.118l-.233.05v.068c.054.069.04.15.132.183.023.01.05-.016.103 0 .135.042.297.111.446.15.08.022.166-.063.218-.034.014.023.014.042.017.084-.074.043-.038.058-.082.132-.031.054-.09.033-.147.067-.105.06-.093.151-.27.167-.11-.089-.23-.07-.43-.067a.2.2 0 0 0-.019-.05c.014-.02.012-.017.02-.05-.103-.015-.132-.07-.217-.085-.184-.033-.397.05-.55.084q-.065-.008-.134-.019c-.125.034-.29.1-.416.15v.05c-.242-.023-.51.164-.797.2-.028-.045-.039-.047-.117-.05-.174.16-.373.03-.598.101-.074.023-.28.111-.398.067-.056-.021-.117-.111-.166-.134-.046-.021-.353-.054-.418-.032a3 3 0 0 0-.365.131c-.03.015-.091.077-.117.084-.179.05-.498.042-.717.117-.076.026-.17.096-.248.133v.05c.207.003.33-.041.516-.066v.032c-.021.008-.076.023-.032.033.03.029.063.027.083.067-.197.025-.434.127-.616.185-.15.046-.29.023-.434.082-.087.037-.14.135-.215.184-.058.038-.124 0-.2.033-.044.02-.112.084-.167.101h-.3c-.025.05-.02.063-.03.117-.115-.064-.576.064-.65.15h-.018l.019.017c.032.032.071.048.116.067-.012.029-.002.017-.019.033-.032.023-.06.01-.08.05h.05c.02-.012.025-.012.065-.017.02.038.018.027.051.051-.018.043-.023.025-.033.083h.067v.05q-.084.016-.165.034c-.095-.028-.168-.15-.283-.167-.1-.017-.224.076-.3.1h-.382v.032h.02c.03.025.06.01.08.05-.138.047-.129.244-.216.285h-.251c-.025-.04-.221-.096-.298-.067-.021.007-.058.061-.08.067q-.121.007-.233.017c-.071.03-.173.124-.248.15-.07.023-.079-.032-.084-.033-.01-.004-.148.02-.197.018-.025.055-.028.07-.1.084-.016-.1-.013-.137-.132-.134a.8.8 0 0 1-.32.185l-.115.017c-.06.04-.025.094-.115.117-.074-.082-.19.007-.284 0a1 1 0 0 0-.265.018c-.034.01-.086.062-.117.067-.034.008-.095-.042-.149-.018-.066.029-.139.12-.216.15-.094.04-.212.04-.268.117-.224-.132-.536.037-.73.134q-.126.024-.25.05l-.083.082c-.057.023-.064-.041-.115-.033-.026.006-.09.061-.133.067l-.2-.016c-.046.015-.103.082-.15.099q-.024-.027-.048-.05c-.046-.016-.26.007-.3.016-.016.076-.046.087-.066.151h.018c.02.012.017.01.051.017.032-.031.228-.063.299-.083s.15.022.199.018c.074-.007.121-.067.168-.084.076-.027.228-.013.297-.019v.02c-.04.032-.046.072-.049.15h.066q.01.008.019.02v.03h-.032c-.047-.069-.076.013-.168-.017-.024-.008-.064-.063-.081-.067q-.009.008-.017.019a.6.6 0 0 0-.069.268c.029.018.027.021.07.032.062-.062.14-.037.265-.032v.018h-.034c-.095.113-.122.021-.198.218-.086.007-.133.055-.217.016q-.017-.025-.03-.05c-.056-.016-.121.078-.184.05-.012-.019-.011-.017-.018-.05.006-.008.032-.284.032-.284-.023-.04.007-.01-.032-.033-.063.074-.263.072-.398.051-.021-.064-.05-.06-.067-.134.039-.019.03-.016.05-.051h-.031c-.059-.034-.317.012-.35.068.122.004.104.047.166.084q.094.024.184.05v.032c-.07.061-.059.175-.166.2-.168-.116-.207.09-.4.018-.024-.01-.03-.057-.051-.068-.095-.05-.317-.048-.417-.05-.014.048-.039.097-.08.118-.124.081-.25-.049-.35-.068l-.018.051c-.012.022.014.07 0 .1-.026.032-.024.029-.084.034-.093.058-.337-.028-.446.05a.23.23 0 0 0-.068.134q.009.006.019.019c.086-.002.268.007.33.03.025.012.032.062.05.068.052.021.107-.015.15 0-.017.013-.005.006-.032.017-.033.02-.115 0-.168.02v.032a.3.3 0 0 1 .102.018v.032h-.2c-.044-.04-.168-.068-.265-.032l-.068.067c-.103.034-.02-.079-.167 0l-.018-.019c-.014-.031-.01-.013 0-.05-.212-.015-.85.01-.946.15h-.019l.019.016c.205.133.56.01.797.084.198.06.452.018.679.068.102.02.342.065.482.1l.218-.017c.063.015.237.098.297.082.03-.008.067-.074.103-.082l.1.016c.144-.036.272-.074.397-.134v-.019c-.02-.006-.03-.01-.048-.017-.061-.036-.142-.012-.22-.033-.167-.05-.478-.085-.697-.134-.16-.035-.313.029-.416-.05q-.01-.008-.02-.018a.5.5 0 0 1 .15-.017c.042.029.32.067.4.05.018-.005.048-.038.079-.033.077.012.157.033.25.051.073.012.08-.055.168-.033.072.018.063.032.102.066.149-.053.244.032.43.032v.068h.051c-.006-.04-.008-.042-.019-.068h.032c.022.013.017.002.066 0v.068c.027.008.041.013.083.017a.7.7 0 0 1 .183-.1l.084.017c.121-.02.292-.104.416-.148.105-.037.473.02.563.03.065-.086.129-.169.284-.167.019.015.026.015.065.02.018.025.063.05.03.064-.025.025-.081.028-.114.052q.075.006.148.018c.022-.027.02-.015.032-.05-.002-.013.005-.004-.019-.034.061-.001.14-.053.151-.05.041.011.086.071.168.05.062-.017.08-.056.167-.067v-.05h-.085v-.034a.4.4 0 0 1 .134-.017c.02-.014.018-.01.05-.018.024.025.032.05.068.065.065-.056.08-.007.148.02.022-.057.026-.049.1-.051.05.048.124-.015.168.051h-.032c-.043.04-.121.047-.149.1.156.118.368.153.598.2.017.028.024.027.033.064h-.018c-.025.021-.069.02-.118.02-.048.018-.09-.034-.15-.05-.148-.038-.38 0-.516-.02q-.122.044-.251.084c-.005.019-.012.032-.018.05h-.148c-.102.03-.522.12-.565.185h-.017l.017.017c.086.092.643.169.832.167-.017.091-.025.039 0 .119h-.051c-.096-.065-.218-.02-.351-.05-.17-.041-.381-.12-.565-.15-.087-.015-.189.05-.266.067a2 2 0 0 1-.149-.019c-.03.01-.081.059-.117.067-.144.043-.26.013-.348.1h.016c.076.09.267.05.399.083.275.073.624.208.945.2.04-.025.17.07.22.081.032.01.05-.03.065-.032.048.02.102.032.148.051.054.01.144-.025.231 0 .124.03.281.137.467.1.132-.027.254.056.383.068.238.02.498.025.729.084h.482c.364.081.91.09 1.227.03.125-.022.22.033.382.033v-.05q.216.008.432.017l.05.051c.05.018.12-.025.149-.032.074-.02.147.024.198.032l.185-.02c.098.026.472.055.581.034.054-.01.096-.074.181-.05.066.018.166.072.25.083a8 8 0 0 1 .267-.033c.25.056.571.024.815.067q.11-.01.216-.017c.112.027.27.035.4.05h.314c.134.029.249.123.368.101.165-.033.308.075.45.05.223-.039.471-.034.726.033.13.035.476 0 .52-.067-.06-.02-.057-.02-.068-.084h.068c.046.095.025.074.099.15.028-.012.016-.003.033-.02.012-.016.006-.004.015-.032a.6.6 0 0 1-.115-.367h.018c.049.114.174.095.283.148.076.041.168.148.25.186l.049-.02c.038.019.08.07.118.083.07.025.128-.005.18.034.041.027.047.093.102.117.106.044.273.062.315.166h.02l-.02.018c-.014.04-.004.027-.032.05-.016.005-.007.015-.016 0-.063-.053-.347-.223-.481-.184-.063.02-.074.067-.15.084-.02-.033-.028-.063-.067-.084a1.3 1.3 0 0 0-.332-.05v.017c.225.218.46.456.715.634.144.1.348.218.434.368.063.114.025.314.1.42.088.13.283.115.316.318a.5.5 0 0 0-.083.064c-.214-.015-.468-.046-.63.068-.027.039-.058.077-.082.118-.025.016-.071.008-.082.032v.133c-.024.045-.102.049-.135.084-.08.09-.004.193-.165.217-.032-.021-.151-.002-.2.018.012.028.002.016.017.033.05.124.163.148.183.3a.4.4 0 0 0-.083.184c.063.06.106.147.185.186q.081.007.167.016c.026.014.233.127.248.15.016.022.016.042.019.084-.048.04-.181.139-.167.183.056.105.207.143.317.2.142.076.278.214.415.3.131.084.3.082.398.201.048.065-.027.329-.033.482.106.064.261.105.302.233-.093.08.008.05-.031.135-.024.04-.108.06-.135.101h.032a.8.8 0 0 1 .282-.102v.068c-.144.062-.241.181-.382.232h-.1c-.017.018-.032.03-.05.05-.065.03-.135.014-.2.05l-.05.065q-.056.018-.116.033c-.12.078-.147.218-.317.168-.07-.022-.119.025-.146.033h-.168c-.04.04-.076.078-.118.118l-.1.016c-.026.04-.057.078-.083.119-.02.018-.07.008-.082.032v.133c.148.124.166.358.267.534.032.058.086.15.133.2.017.017.053.02.069.032l.03.1c.037.04.198.145.218.184v.15c-.017.02-.007.006-.02.034-.246 0-.268.053-.449.101-.149.04-.395.02-.53.017q-.009.008-.018.02l-.018.182c.046.034.054.102.099.133.145.104.292.166.45.251v.02a1 1 0 0 0-.216.116c-.019.026-.033.056-.051.082-.07.042-.154-.043-.251 0l-.066.068h-.183c-.124.037-.217.167-.314.233v.032q.046.033.097.067l-.015.018c-.116.124-.524.195-.716.269-.073.027-.171.104-.25.133-.152.056-.286.052-.432.117-.025.012-.057.057-.083.066-.199.072-.575-.042-.598.2-.077-.005-.114-.05-.182-.033-.034.009-.085.058-.116.067-.192.067-.356.075-.533.15-.046.023-.104.08-.146.1h-.102c-.096.038-.118.133-.249.15-.016-.055.007-.025-.035-.05-.09.07-.2.025-.28.084-.068.05-.054.128-.166.15l-.019-.051c.017-.03.007-.03 0-.083.066-.027.125-.098.183-.117h.117c.11-.036.258-.107.365-.15.07-.027.135-.016.2-.05.204-.108.498-.238.716-.317V50.3c-.147-.014-.233-.043-.367.018-.025.014-.056.059-.083.067-.128.046-.235.006-.366.05-.095.032-.23.107-.332.133-.037.012-.046-.02-.067-.018-.077.017-.184.117-.266.15-.103.043-.206.027-.317.064-.06.023-.116.091-.167.12-.09.047-.189-.001-.283.016-.1.02-.157.087-.266.101v.05c-.22.131-.41.102-.666.168v.018a.2.2 0 0 1 .081.02l-.016.017c-.07.068-.232.125-.352.133v-.018h.02a.9.9 0 0 1 .216-.117v-.018c-.227.023-.388.137-.568.2-.195.07-.356.079-.546.15-.144.053-.26.143-.449.15-.032-.051-.06-.054-.148-.051a.8.8 0 0 1-.218.117h-.167c-.026.032-.058.067-.08.103-.099.049-.195.062-.284.099v.032c.039.003.046.003.065.018a1.3 1.3 0 0 0-.363.052h-.219c-.095.038-.185.164-.299.2q-.058-.01-.115-.018c-.04.01-.124.068-.168.082l-.134.018c-.05.025-.09.113-.147.134l-.249.018c-.107.044-.241.139-.35.183q-.11.01-.217.02l-.018.05c-.065.047-.162.049-.232.082-.165.077-.348.22-.518.285-.131.051-.22.04-.366.081-.066.022-.127.077-.183.1-.058.026-.073-.011-.114 0-.025.025-.047.045-.068.069-.06.006-.124.01-.183.017-.198.081-.44.17-.63.252q-.118.018-.232.032c-.035.017-.125.041-.168.066l-.049.069c-.072.035-.112-.02-.182 0-.074.02-.134.09-.199.117h-.102c-.025.01-.06.054-.081.064-.063.036-.127.024-.2.053-.025.01-.056.056-.083.067q-.081.008-.167.02c-.148.045-.345.124-.498.167-.1.025-.171-.002-.25.03-.321.142-.668.275-.996.418h-.166c-.04.016-.08.071-.117.083-.149.059-.299.043-.45.102-.18.068-.366.197-.531.268l-.217.02c-.048.016-.108.067-.167.081h-.15c-.05.02-.106.08-.167.1-.213.072-.413.083-.614.17-.063.026-.135.095-.2.118h-.148c-.026.008-.058.056-.082.065l-.268.02c-.099.025-.187.115-.265.148-.086.039-.203.017-.284.053-.085.034-.167.118-.25.148-.11.04-.169.012-.28.05-.15.053-.339.148-.48.22a4 4 0 0 1-.186.03c-.186.074-.412.16-.597.234l-.15.018-.081.083q-.077-.01-.15-.018-.032.033-.066.064c-.077.05-.174.055-.249.104q-.018.024-.032.05h-.134c-.098.03-.21.118-.298.15-.127.047-.249.064-.367.1h-.083l-.049.068c-.117.063-.242.057-.382.1-.183.055-.374.11-.564.183-.036.016-.092.072-.133.082l-.1-.017c-.035.007-.084.055-.117.067-.11.042-.213.03-.317.082-.123.061-.235.188-.363.233q-.1.016-.2.03c-.116.051-.266.15-.383.202-.076.019-.153.032-.23.05-.067.023-.15.078-.216.1h-.103c-.004.003-.02.046-.03.052a5 5 0 0 1-.25.031c-.026.012-.057.06-.082.067l-.148.02c-.074.028-.186.101-.268.132q-.065.01-.132.018c-.07.025-.156.103-.232.132-.105.043-.205.026-.317.069-.048.017-.106.081-.149.1h-.166c-.065.025-.129.105-.184.132-.095.054-.195.043-.299.083-.21.08-.434.147-.665.234-.556.214-1.166.451-1.712.682-.088.039-.173.02-.267.05-.159.065-.342.196-.5.25-.09.033-.174-.005-.25.034q-.057.06-.118.117c-.132.073-.328.08-.447.17-.22.16-.306.382-.614.481v-.066c-.23.027-.365.155-.549.252.008.037.02.032 0 .066-.021.014-.019.012-.05.019-.057-.083-.326-.005-.383.066l-.03.101h-.15c-.025-.021-.007-.01-.032 0-.034.022-.03.012-.05.05 0 0 .064.003.031.019h-.03c-.087.047-.187-.011-.284.082.028.025.018.014.018.032-.037.02-.037-.033-.116-.016-.049.01-.103.053-.133.064h-.1c-.1.037-.221.147-.318.186-.182.073-.33.104-.497.182 0 .055.026.025-.018.05-.122.145-.292.054-.449.135-.073.04-.03.103-.149.115-.005-.03-.002-.029-.017-.05-.07.076-.415.264-.532.284-.016-.053.01-.025-.032-.05a.8.8 0 0 1-.25.1c-.015.043-.013.077-.05.102-.112.059-.321-.051-.367.116 0 0 .067.01.033.02h-.018c-.02.017-.033.032-.051.05-.024-.009-.026-.01-.066-.018q.01-.02.02-.031h-.02c-.048.04-.083.018-.15.049-.128.062 0 .135-.282.133v.05h-.065c-.005-.042.01-.028-.066-.03-.019.013-.006.006-.032.017-.019.04-.032.076-.051.118-.044 0-.075 0-.1.017-.023.024-.023.027-.032.067h.132c.146-.089.356-.035.549-.081.171-.042.397-.102.565-.151.104-.007.212-.013.316-.018.106-.026.26-.026.382-.068.07-.022.157-.091.219-.118.082-.032.172.026.228 0 .043-.016.08-.097.134-.116h.116c.049-.022.104-.098.15-.117h.1c.018-.02.034-.033.051-.05.018-.007.029.026.065.017q.035-.03.068-.066.09-.01.183-.02c.068-.026.58-.313.646-.283l.051.02v.032c-.093.021-.156.09-.232.117h-.116c-.025.015-.065.072-.1.082-.061-.012-.096.003-.168.033-.045.022-.086.082-.132.101-.206.077-.456.078-.566.252h.02c.084-.05.47-.03.631-.069.276-.063.678-.049.997-.131h.298c.456-.104.998-.07 1.415-.169q.142.009.28.02c.235-.055.481-.014.731-.069h.25c.166-.036.405-.029.566-.066.19-.043.407 0 .58-.033.257-.05.65-.005.93-.066h.284c.208-.044.537-.017.778-.067q.115.007.231.018c.506-.107 1.108-.052 1.545-.15h.283c.124-.026.308-.03.43-.049h.32c.531-.128 1.173-.064 1.728-.2.292-.019.586-.033.88-.051.461-.124 1.043-.077 1.512-.184h.23c.434-.102.953-.082 1.396-.185.094-.021.151.017.218 0 1-.222 2.157-.21 3.09-.433.051-.013.107.017.135.018.06.006.09-.037.133-.049.056-.018.093.023.13.017.065-.01.18-.064.252-.083q.224-.025.448-.049c.294-.073.644-.117.93-.184.25-.061.484-.023.73-.084.258-.066.874-.175 1.146-.133q.084-.006.168-.016h.979c.119.026.29.055.397.082.074.023.203-.006.252-.018.122-.026.288.016.38.052.025.01.064.056.082.064q.093.02.185.034c.054.031.132.128.216.131.015 0 .058-.027.066-.03.078-.021.207.014.268.03-.007.05-.027.023.018.052.171.124.701.26.78.434.019.039.009.125.016.15.1.037.16.098.232.148.088.064.198.074.284.134.011.009.022.061.03.067h.167c.074.027.129.104.134.218-.034.034-.048.105-.083.133-.104.082-.302.118-.448.15-.015.148-.152.187-.27.232a.2.2 0 0 0 .02.033c.083.031.308.124.33.217a.1.1 0 0 1-.017.019c-.123.001-.229-.007-.35.019v.05c.027.04.008.078 0 .133-.122-.008-.203-.025-.331-.018-.048.154-.256.162-.299.318.093.069.081.12.266.116.067.066.197.017.283.067.012.02.01.017.019.05-.062.03-.14.057-.17.118h-.02l.02.018c.03.025.083.049.119.067v.018c-.05.02-.273.166-.284.15-.035-.021-.035-.026-.1-.032-.041.025-.139.031-.182.05-.026.056-.054.065-.066.133a.7.7 0 0 0 .232.031c.058.027.065-.019.114-.03.095-.028.276.005.351.018.164.028.404-.123.43.118-.02.025-.01.008 0 .03.095.058.278-.014.333.068-.09.035-.069.143-.115.216-.092.142-.41.08-.434.355.016.02.016.025.018.065.059.028.103.042.117.118-.056.049-.117.092-.132.184.04.022.037.025.102.032.028-.048.038-.06.117-.066.033.13.146.156.216.25.061.084.104.188.15.284.14-.001.152.054.229.083.112.04.198-.069.3-.052.146.025.297.025.449.067.193.053.457-.027.497.168-.102.043-.163.074-.218.169-.117-.06-.14-.172-.298-.185-.044.113-.21.1-.3.166-.073.058-.076.175-.132.252-.031.048-.1.035-.15.068-.024.032-.055.067-.081.1h-.1c-.087.026-.28.088-.318.168-.047.072.037.23.102.251.035.024.098 0 .149.018.069.024.11.122.182.133.03.006.097-.03.118-.032a.9.9 0 0 1 .268.019c.253.055.521-.067.727.018-.005.01-.01.024-.017.033-.085.025-.26.016-.35.03-.021.041-.028.05-.033.119.034.028.149.118.17.15-.07.011-.085.048-.134.065q-.151.019-.3.032c-.025.015-.027.067-.049.083-.063.051-.118-.01-.183.02q-.018.023-.032.048h-.268c-.056.02-.11.097-.166.117h-.102c-.044.014-.107.058-.148.066-.057.016-.114-.025-.148-.032-.064.02-.124.032-.183.051v.031c-.028.045-.011.097 0 .15-.041.025-.037.038-.102.05-.026-.068-.056-.085-.1-.131-.12-.016-.227-.047-.232.1.015.02.007.006.019.031.074.036.146.073.25.084a.3.3 0 0 0 .03-.05c.071.036.225.105.333.082.01 0 .051-.032.066-.032.048-.001.057.074.083.083.025.013.095-.029.149-.016.044.01.11.025.167.048.053.024.281.19.315.233q.018.048.033.1c.087.085.231.17.25.32h-.033c-.092-.122-.223-.286-.418-.301-.244.185-1.02.054-1.127.318h.016c.029.025.066.025.103.05.041.03.063.095.1.133 0 .267-.125.364-.135.603.04.003.049.003.068.017a1.7 1.7 0 0 0-.38.117c-.026.015-.05.059-.084.067-.047.013-.137-.027-.217 0-.027.026-.057.058-.083.082-.126.071-.273.047-.417.101-.155.061-.383.1-.547.15h-.131c-.1.031-.247.09-.352.118h-.166c-.052.016-.16.057-.218.067q-.056-.008-.117-.019c-.741.178-1.646.279-2.393.47-.355.088-.752.087-1.048.167l-.28.019c-.261.06-.552.09-.798.15-.196.045-.403 0-.565.08-.102.053-.23.235-.269.354.05.027.061.038.068.117-.03.017-.053.054-.082.065-.09.037-.19.021-.268.068-.06.037-.13.123-.2.147h-.182c-.017.029-.03.06-.049.084-.148.079-.327-.007-.367.184.025.023.046.059.067.084.043-.013.07-.042.1-.052.068-.022.135.01.184 0l.199.018c.01-.004.035-.062.05-.066.046-.021.11.019.132.019.012 0 .148-.064.232-.067v.019h-.018c-.043.038-.099.027-.148.064-.027.023-.023.082-.05.103-.106.064-.303.025-.418.066-.097.032-.144.12-.23.15-.118.018-.234.03-.353.051-.182.063-.424.122-.612.201q.009.007.017.017c.021.014.026.014.066.018.158-.098.434-.09.632-.15.171-.05.315-.169.497-.2.028.048.049.073.1.102l-.017.018c-.085.111-.244.083-.397.132-.323.106-.683.187-.998.283h-.148c-.044.014-.13.054-.184.067l-.068-.019c-.048.016-.088.084-.132.102h-.248c-.034.014-.073.07-.117.084-.125.038-.247-.017-.381.03-.213.075-.466.095-.649.15q-.096-.008-.197-.018c-.209.05-.537.08-.75.134h-.18c-.402.102-.946.103-1.282.2-.081.007-.167.012-.248.018-.414.107-.833.087-1.246.184-.17.039-.446.059-.549 0-.012.063 0 .046-.049.067-.088.052-.378.052-.516.083h-.232c-.175.056-.503.07-.715.133l-.416.019c-.625.15-1.41.183-1.995.334-.126.03-.33-.015-.498.03-.36.099-.814.148-1.165.234l-.199-.018c-.325.074-.719.16-1.096.168v-.033c.069-.043.138-.052.267-.051.03-.02.214-.05.282-.066.039-.01.123.022.133.017.012-.017.021-.03.032-.05.079-.034.258-.048.331-.066.107-.027.152.062.282.018l.049-.05c.083-.041.234-.046.318-.067.097-.026.162.025.228 0 .047-.016.162-.053.22-.066q.083.01.165.016c.216-.055.48-.118.73-.148.02-.004.06.025.102.018.451-.112 1.058-.16 1.495-.27l.216.019c.177-.043.48-.078.648-.132.174-.058.329.014.465-.02.048-.011.13-.053.184-.066q.159-.007.318-.018c.319-.077.671-.097.914-.169.156-.045.33-.003.449-.081a2.3 2.3 0 0 0-.647.081q-.098-.007-.2-.017c-.063.011-.204.048-.28.05-.038 0-.153-.036-.217-.018-.085.025-.122.079-.2 0-.066.057-.193.088-.282.117l-.316.018c-.08.025-.232.07-.315.084-.066.012-.175-.075-.2-.05-.043.02-.05.064-.082.08a6 6 0 0 1-.268.033c-.007-.002-.03-.035-.05-.032-.08.01-.207.063-.299.084a.9.9 0 0 1-.45-.02c-.087-.024-.115.027-.198.031v.069c-.086.01-.174-.026-.282 0-.15.032-.307.093-.48.1-.147.006-.274.085-.352 0 .035-.021.031-.01.052-.05l-.02-.02q-.147.043-.298.085-.018.033-.031.065c-.103.057-.227.005-.351.034-.064.015-.116.049-.183.064-.013-.068-.008-.06-.08-.064-.054.049-.103.098-.183.117s-.371-.04-.417-.02c-.02.012-.027.075-.052.085-.02.008-.517.05-.517.05-.034-.014-.025-.042-.098-.05-.137.15-.112-.006-.22.05-.009.006-.02.061-.029.067-.1.05-.212-.004-.33.032-.195.06-.478.112-.734.118-.004-.04-.007-.042-.016-.068-.123.028-.185.129-.298.168h-.22c-.097.028-.22.025-.331.034v-.084h-.031s-.44.079-.482.066c-.024-.008-.04-.026-.084-.032-.016.038-.012.046-.049.066-.044.027-.119 0-.182.018-.171.043-.4.084-.566.15.019.021.08.034.048.05-.065.046-.222.059-.311.068q.006-.05.016-.101a.1.1 0 0 1-.016-.02 1.3 1.3 0 0 0-.617.05c-.127.05-.27-.011-.382.02-.167.042-.323.097-.482.133-.17.038-.351.03-.498.066q-.074-.007-.148-.019l-.052.05-.23.02c-.034.01-.084.057-.116.066h-.168c-.047.017-.11.06-.149.084l.02.017c.024.03.014.024.065.032.049-.063.439-.13.564-.133v.018h-.015a1.2 1.2 0 0 1-.452.2h-.28c-.058.023-.084.07-.168.082-.032-.059-.038-.079-.131-.082-.113.15-.113.037-.282.102-.025.01-.084.058-.117.066h-.168c-.032.011-.088.058-.13.067h-.268c-.036.007-.123.042-.15.05h-.23c-.074.022-.128.062-.231.069a.2.2 0 0 0-.02-.084q-.082.017-.166.032c-.026.022-.032.082-.067.102-.117.06-.533.1-.63.049-.05.154-.359.093-.53.133-.061.015-.188-.005-.268.02-.155.042-.388.113-.581.168-.127.033-.217 0-.333.032-.223.065-.46.088-.664.133l-.152-.02c-.025.008-.056.06-.08.068a2 2 0 0 1-.134-.02c-.076.016-.21.067-.265.084l-.15-.019c-.354.083-.797.175-1.193.27h-.186a4 4 0 0 1-.283.08h-.198c-.039.014-.09.06-.115.07q-.118.007-.232.017c-.168.042-.37.079-.531.117-.184.042-.324-.002-.499.05-.25.075-.521.16-.849.17-.015-.028-.02-.027-.033-.068.124.01.107-.035.199-.067.106-.035.319.026.383 0q.042-.05.082-.1c.098-.046.375-.075.482-.102.104-.025.418.026.466 0 .02-.01.027-.073.049-.084h.117c.05-.014.137-.051.2-.066q.165-.019.331-.032c.043-.012.118-.072.184-.05.042.014.039.051.1.066.034-.067.042-.1.148-.101.214-.16.412.08.631-.082.016-.019.009-.004.02-.033 0 0-.066-.003-.033-.018h.033c.096-.079.227-.014.381-.05.256-.062.58-.093.832-.184v-.018a.3.3 0 0 0-.117-.02c-.134.077-.363.035-.531.083-.31.089-.723.092-1.098.218-.11.036-.195 0-.316.032-.153.043-.317.072-.498.118l-.363.033c-.229.075-.53.124-.767.183-.148.037-.26-.01-.397.031-.182.058-.362.084-.547.133q-.15.008-.3.02c-.58.179-1.354.24-1.96.42-.126.035-.212 0-.332.03-.301.083-.566.125-.849.201l-.115-.019a2.4 2.4 0 0 0-.416.119c-.134.055-.33.007-.416.05-.04.012-.037.018-.066.031v.02h.032c.063.031.106-.044.166-.033.026.003.053.044.116.049l.018-.017v-.05c.288-.012.667-.098.932-.186a1 1 0 0 1 .3-.016c.293-.096.557-.076.88-.17.398-.11.819-.173 1.213-.283.076-.021.176.04.25.033.117-.011.187-.067.349-.067l-.018.117c-.381.042-.844.106-1.13.251-.022.012-.082-.048-.133-.03-.267.073-.566.061-.831.165q.015.02.033.034h-.05c-.06-.084-.502.09-.582.117-.078.025-.118-.015-.148 0-.014.018-.01.016-.018.05.025.009.04.014.083.018.095-.046.344-.064.48-.101h.216c.435-.114 1.116-.212 1.598-.35h.215c.053-.015.159-.04.217-.051l.115.019c.612-.203 1.424-.238 2.028-.433.136-.046.255.01.398-.034.21-.066.52-.08.682-.2.068.014.076.07.184.032.06-.022.11-.083.165-.102l.299.019c.18-.042.347-.029.533-.084.085-.025.168-.096.248-.116l.118.017c.045-.014.155-.053.214-.066q.083.008.164.02c.049-.014.12-.075.168-.085.057-.01.124.027.201 0l.049-.05c.064-.021.233.027.33 0 .384-.105.763-.113 1.148-.218.078-.022.104.044.15.034.002 0 .056-.048.066-.052l.28-.032c.038-.015.066-.072.103-.082l.33-.02c.246-.09.55-.038.768-.148.034.004.046.044.1.03.067-.016.207-.074.28-.1.04-.011.065.021.084.018.027-.004.102-.046.13-.05.058.004.11.012.167.02.063-.02.175-.05.252-.069h.13c.152-.047.375-.075.55-.117q.092.008.181.02c.147-.046.374-.145.53-.082v.015a6 6 0 0 0-.928.185l-.3.018c-.272.07-.618.099-.916.183-.188.055-.349.021-.53.067-.573.148-1.02.147-1.561.3-.15.043-.295.006-.417.034-.202.046-.47.095-.68.15-.1.024-.222-.026-.3 0-.017.017-.033.03-.05.05-.19.068-.419.068-.614.117h-.15c-.195.051-.445.101-.613.148h-.216c-.296.084-.68.132-.997.219-.096.025-.139-.037-.232 0-.188.074-.465.114-.682.168h-.183c-.405.11-.949.184-1.31.283-.18.05-.32 0-.5.05-.08.024-.205.077-.282.102l-.232.018q-.017.026-.033.05l-.132-.016c-.094.019-.309.04-.399.08q-.033.035-.067.067c-.06.021-.213-.017-.247-.018-.04-.001-.153.057-.184.067l-.198-.02c-.265.082-.663.154-.966.234-.134.035-.269.03-.38.066h-.233c-.323.106-.76.172-1.113.269q-.165.018-.332.031c-.64.169-1.323.272-1.911.42h-.15c-.031.008-.11.042-.134.05h-.197c-.037.012-.086.058-.117.067-.142.047-.26.01-.4.05-.217.064-.482.074-.73.135-.127.028-.337.116-.482.081-.077.028-.175.096-.249.117l-.166-.018c-.132.017-.292.072-.417.1l-.132-.017-.05.05c-.09.01-.176.024-.267.034-.125.04-.315.094-.432.131q-.283.034-.564.069c-.314.083-.686.173-.997.25-.165.04-.344-.02-.498.03-.027.011-.071.06-.1.068-.086.032-.152.006-.25.033-.176.05-.398.103-.548.169-.13.055-.407-.006-.582.049-.995.315-2.081.445-3.073.753h-.133c-.043.014-.107.069-.15.082h-.183q-.015.017-.033.032h-.199c-.039.018-.073.084-.116.1h-.216c-.039.012-.096.056-.134.07-.14.04-.237.009-.381.05-.067.019-.122.078-.184.099h-.2c-.03.013-.065.07-.098.082-.086.035-.225.065-.299.083h-.149c-.068.024-.19.088-.267.117-.263.098-.57.087-.796.22.012.017.022.03.034.05a1.5 1.5 0 0 0-.366.132c.21.012.273-.086.481-.102q.009.01.018.02l.018.117c-.172-.004-.487.117-.631.166l-.184.02c-.334.125-.678.217-1.014.351-.148.061-.357.09-.448.201-.034.04.021.05 0 .082-.022.039-.077.032-.1.083.035.028.05.047.033.083v.017c-.037-.012-.064-.022-.101 0-.048.057-.024.1-.118.117-.07-.058-.136-.025-.182-.117-.068.035-.179.082-.199.167.042.024.01-.007.033.035h-.033c-.075.051-.199-.003-.231.1.113-.01.229.15.25.283h-.033a.9.9 0 0 0-.268-.27c-.047.087-.629.017-.647.034-.113.033-.114.127-.248.148-.028-.037-.04-.041-.1-.05v.034c.07.071-.034.202-.066.266-.05.097-.028.181-.116.235-.113.07-.3.158-.334.3.057.065.124.14.134.252h.048c.014.016.046.022.05.033v.116h.034c.033.032.187.188.198.218v.169c.009.015.059.025.067.05v.081c.081.165.247.223.249.484h-.033v-.018c-.042-.048-.032-.108-.066-.169-.024-.044-.097-.083-.115-.132v-.103c-.016-.025-.061-.026-.084-.05l-.083-.148-.05-.02c-.034-.048-.018-.119-.05-.168q-.032-.017-.064-.032c-.116-.143-.195-.371-.367-.451-.077-.044-.121.039-.216.017-.036-.01-.166-.06-.217-.05-.082.017-.175.15-.314.1-.009-.003-.05-.046-.067-.05a4 4 0 0 0-.366 0c-.062.013-.186.052-.265.033l-.05-.032c-.074-.015-.104.069-.183.05-.013-.004-.055-.046-.066-.05-.041-.014-.364.003-.432 0-.087-.005-.133.064-.233.032-.09-.025-.146-.078-.265-.083-.007-.038-.01-.04-.018-.067-.043.013-.07.042-.1.05-.072.023-.1-.033-.168 0l-.05.069c-.054.021-.054-.04-.084-.034-.024.007-.058.061-.083.068-.096.03-.202-.09-.267-.068-.02.024-.045.044-.066.068h-.167c-.01.004-.05.048-.067.05-.05.007-.169-.044-.198-.033-.04.03-.043.031-.05.104h.033c.02.012.017.01.05.017v.05c-.094.01-.183.037-.267.052v-.052c.036-.006.031-.003.05-.017.015-.019.006-.007.017-.033h-.033c-.082-.045-.131.054-.199.067-.088.02-.218-.079-.332-.031-.036.014-.081.084-.117.1-.133.057-.241-.037-.332.031-.014.023-.014.041-.017.083q.024.028.05.05c.063-.024.114-.019.184-.016.099.003.36-.13.5-.151q.005.01.018.019v.018c-.092.005-.109.033-.167.068v.05h.064c.01.025.012.027.018.066l-.018.018-.247.034c-.05-.017-.066-.1-.168-.067-.054.018-.156.082-.217.1-.116.029-.407-.072-.499-.019.055.017.025-.008.05.034q-.092.007-.183.016v-.016c.013-.02.01-.016.018-.05-.11.008-.399.023-.481.116l-.02.02c.084-.009.178-.025.218.05.016.024.017.055.017.1l-.017.018c-.237.017-.674.144-.93.218q-.108-.007-.217-.017c-.164.037-.24.063-.382.1l-.282.018-.215.068c-.032.024-.042.1-.084.118h-.149c-.015.005-.088.045-.115.05q-.05-.01-.101-.017c-.147.035-.293.122-.449.148-.03-.043-.05-.037-.064-.1.09-.082.188-.19.299-.252.25-.136.574-.15.864-.25.102-.035.245-.122.349-.15.117-.035.154.022.233 0 .068-.021.169-.078.23-.1.14-.047.254-.017.366-.084.045-.028.112-.099.166-.117l.216.018c.085-.024.14-.124.216-.15q.058.007.118.018c.071-.018.158-.087.216-.116l.132-.019c.07-.024.15-.09.217-.117.101-.04.195-.03.281-.066-.037-.036-.062-.03-.083-.084a.3.3 0 0 0 .1-.067c.025.01.028.012.065.02.02.033.025.03.033.082.148.006.105-.037.2-.067.054-.017.139.03.216 0 .252-.1.713-.184.878-.367.19.055.09.016.284-.018l.018-.084-.033-.031c-.044.025-.106.072-.168.031.042-.02.011.007.034-.031h-.135q-.006-.01-.016-.02c.007-.048.026-.02-.017-.05-.063.04-.145.012-.232.033-.054.015-.099.05-.149.067v.032h.082c.031-.045.049-.059.118-.067.007.025.013.038.018.081-.035.006-.032.005-.05.02.013.019.006.005.018.03.014-.016.006-.003.018-.03.063-.024.045-.07.1-.1.007.073.015.06.05.1-.015.019-.006.005-.018.03-.154.048-.128.009-.232.135-.167-.037-.335.06-.5.051-.015-.044-.02-.027-.032-.082l.017-.02c.042.018.077.076.1.05h.017v-.017c-.036-.007-.03-.004-.049-.018h.018c.029-.017.029-.006.084 0 .003-.064.014-.076.032-.117h-.066c-.09.075-.212.044-.332.1l-.068.067c-.103.044-.174.01-.28.05-.033.015-.07.075-.1.083q-.058-.007-.117-.017c-.092.014-.2.066-.284.1.013.028.004.017.02.032.018.014.016.01.05.018.03-.027.042-.028.098-.033l.02.018c-.026.042-.041.052-.05.12a2.5 2.5 0 0 0-.534.037c-.073.013-.16-.042-.25 0-.032.014-.076.083-.116.1h-.215c-.215.06-.484.153-.732.132-.02-.055-.045-.043-.067-.1h.018c.029-.11.094-.082.149-.15.053-.063.052-.147.115-.2.043-.027.112-.005.167-.032.02-.026.033-.056.05-.083.076-.057.175-.019.199-.132-.287.01-.494.105-.748.198a4 4 0 0 1-.23.032c-.08.033-.147.1-.25.119v-.032a.17.17 0 0 0 .066-.1c.004-.019.014-.007 0-.02-.063-.037-.158.023-.217 0-.062-.021-.104-.111-.182-.133-.162-.045-.428.07-.582.032-.214-.048-.397-.159-.63-.217-.128-.032-.344.066-.482.082-.037-.07-.053-.085-.166-.082-.06.038-.329-.022-.399-.05-.033-.075-.09-.094-.115-.17.106-.053.215-.084.364-.118.025-.041.04-.051.05-.117-.066-.081-.02-.134-.185-.133-.052.04-.423.078-.48.05-.086-.028-.073-.076-.2-.08-.046.043-.103.052-.198.05q-.008-.01-.017-.02c-.008-.113 0-.208 0-.352a.4.4 0 0 1-.133-.116c-.086.03-.497.125-.598.084-.045-.021-.052-.09-.149-.068-.198.043-.359.092-.548.082a.4.4 0 0 0-.1-.183c-.151-.116-.228-.074-.431-.067-.022-.034-.025-.028-.033-.083.02-.03.002-.055.016-.082.062-.105.188-.028.199-.202l-.149-.1v-.132c-.027-.074-.091-.091-.1-.201.086-.023.182-.075.267-.1.222-.065.526-.026.599-.233.017-.026.025-.098.033-.134-.038-.022-.112-.06-.135-.1.053-.018.05-.017.067-.066a.3.3 0 0 0-.082-.02c-.056.026-.074-.033-.167-.018-.118.024-.299.062-.416 0-.024-.012-.05-.057-.082-.066q-.158-.01-.317-.018c-.049-.016-.106-.073-.149-.083-.076-.024-.113.03-.165 0h.033c.021-.04.075-.049.115-.067a.3.3 0 0 1 .018-.118c.074-.038.162-.086.231-.132l-.015-.019c-.07-.125-.33-.073-.449-.15q-.017-.017-.033-.03l.017-.02c.08-.093.211-.167.3-.252 0-.146-.063-.168-.1-.267.08-.038.116-.08.116-.201-.058-.035-.149-.07-.166-.15.047-.028.159-.253.166-.318a.8.8 0 0 1-.149-.317c.107-.053.155-.108.23-.184v-.067l-.049-.05c-.094-.071-.378-.06-.5-.083-.007-.025-.01-.026-.017-.067.029-.016.306-.231.316-.251l.018-.116q-.008-.01-.018-.02c-.05.002-.105.003-.132-.017-.015-.019-.006-.004-.018-.034.052-.03.1-.128.133-.148.092-.055.149.019.199-.118.02-.027.018-.081.018-.132-.062-.03-.067-.038-.066-.133.05-.027.056-.03.066-.1-.06-.053-.09-.11-.085-.185.266-.12.684-.132.85-.352-.077-.042-.177-.065-.268-.1.02-.073.02-.103-.065-.118-.065.052-.162.053-.233.102-.034.03-.067.066-.1.1H6.5v-.019h.02c.173-.314.852-.647 1.213-.801 0 .074-.037.049.032.067.088-.088.072-.025.198-.067.07-.024.139-.103.2-.134l.131-.017c.187-.055.576-.153.6-.353a.2.2 0 0 1-.033-.05 3.4 3.4 0 0 1-.482-.083q-.008-.015-.017-.03c.038-.02.047-.014.066-.051-.07-.074-.061-.122-.217-.118q-.008.01-.017.02c.002.052.007.104 0 .117-.02.014-.041.014-.083.017-.06-.043-.134-.039-.165-.118l.017-.016c.153 0 .608-.124.648-.235-.055-.076.03-.219.1-.23.083-.047.26.048.365.03.108-.016.186-.116.283-.148q.009.007.016.017c-.03.046-.052.048-.064.118h.03c.162.078.372-.176.469-.219h.082l.065-.068h.1c.114-.052.234-.192.349-.23.058-.023.096.02.167-.019.072-.036.12-.133.183-.167h.067c.015-.02.032-.033.048-.052q.042.008.084.02c.047-.03-.016-.075.1-.102.018.025.138.041.199.051.05-.043.103-.074.148-.116-.016-.046-.021-.03-.033-.084.057-.01.05-.021.1-.032v.018c-.026.023-.019.012-.033.051l.016.018c.094-.055.168-.128.25-.184.086-.06.18-.073.266-.133.057-.042.104-.131.166-.169.204-.12.405-.125.6-.268.173-.124.57-.466.812-.482v-.051c.125-.078.237-.214.366-.281q.05-.011.1-.02c.078-.042.15-.14.233-.182a1 1 0 0 1 .1-.02c.077-.045.153-.147.232-.2.156-.105.321-.167.48-.269.063-.038.12-.116.183-.15.107-.06.21-.083.317-.148l.132-.134c.072-.042.155-.03.216-.082.095-.08.177-.113.283-.185q.023-.032.05-.065c.048-.028.177-.057.216-.083v-.032c.031-.03.099-.078.132-.102.062-.038.15-.034.2-.083.025-.025.032-.077.065-.101.103-.062.208-.056.313-.118.09-.049.182-.159.267-.216q.092-.034.184-.068c.084-.053.176-.141.265-.183.063-.03.128-.025.184-.067.021-.017.041-.067.064-.082.127-.085.275-.155.399-.232a3 3 0 0 1 .233-.134c.057-.022.049.029.1 0 .119-.068.244-.191.364-.268q.1-.034.199-.066c.133-.07.29-.184.415-.27.101-.065.372-.147.384-.281a.34.34 0 0 1-.134-.105c-.066.035-.073.066-.183.069-.019-.054-.013-.077-.068-.1-.125-.085-.421-.068-.58-.102-.022-.063-.05-.05-.067-.119.047-.027.066-.055.084-.117-.14-.065-.482-.066-.515-.232.023-.035.13-.399.132-.502-.073-.037-.101-.082-.101-.2.094-.035.23-.246.25-.351l-.018-.02c-.054.033-.074.07-.149.084-.018-.037-.012-.046-.05-.067-.045.043-.182.048-.215.1.04.025.01-.006.032.034-.044.01-.112.056-.133.033q-.01-.012-.019-.02c.055-.014.026.009.05-.03q.008-.012.018-.021h-.066c-.011.004-.094.01-.132.02-.01.026-.012.026-.018.066.052.016.046.022.05.032-.054.038-.15.02-.2.05-.013.01-.016.06-.032.068h-.1c-.103.043-.205.135-.3.184-.146.074-.274.086-.432.15-.123.047-.27.163-.384.217q-.082.015-.165.033c-.057.024-.11.09-.167.116-.428.19-.835.372-1.213.602-.115.068-.264.045-.382.117-.005.019-.01.031-.019.05-.068.062-.18.07-.265.117-.067.036-.146.125-.216.151-.114.043-.284.084-.332.183.038.023.03.023.033.032-.046.05-.208.164-.232.2-.021.03-.015.09-.033.118-.148.112-.59.22-.648.384-.016.024-.016.053-.019.099h-.049v-.065a.3.3 0 0 0-.083-.02c-.074.07-.233.087-.247.201-.196-.016-.315.074-.4.219-.116-.078-.156.022-.231.067-.043.005-.09.01-.132.018-.104.053-.202.165-.3.22q-.076.008-.148.017c-.031.014-.08.075-.117.082-.065.017-.05-.035-.1-.018-.027.034-.03.073-.066.102-.027.022-.053.025-.1.031.01.06.089.216.083.22-.019.011-.015.009-.05.016-.006-.033-.003-.031-.018-.05-.017-.043-.045-.078-.065-.117-.05.016-.084-.009-.117.051-.002.02.025.061.018.066l-.032.05c-.038-.02-.038-.025-.1-.031-.022.032-.012.03-.051.05-.031-.025-.034-.03-.067-.019-.106.04-.177.164-.281.219-.088.046-.219.05-.301.1-.137.084-.154.222-.364.202-.043.06-.108.16-.167.2-.112.078-.22-.062-.231.133q-.01.008-.018.017h.018a1 1 0 0 1 .165-.066v.052c-.013.019-.01.015-.017.05.045.025.089.031.115.05.014.02.01.018.018.05-.064.023-.092.054-.167.069-.03-.025-.044-.013-.066-.05a.3.3 0 0 0 .066-.083H9.6c-.112.096-.3.005-.399.066-.021.018-.014.066-.03.082-.042.04-.152.1-.2.134v.018h-.1c-.06.028-.097.115-.167.15.013.052.033.064.017.1a.4.4 0 0 1-.115.1v-.064c.03-.026.023-.019.032-.068l-.019-.018c-.092.036-.128.097-.197.148-.065.052-.15.053-.217.103-.025.018-.043.08-.067.1-.051.038-.146.037-.199.084-.036.03-.036.11-.082.131-.013.007-.033-.026-.066-.017-.048.016-.2.115-.25.149-.143.106-.285.27-.498.301-.012.067-.14.165-.115.183.025.037.035.025.05.083-.062.026-.042.05-.05.118-.07.034-.098.082-.184.1v-.018c.02-.025.018-.07.018-.118.086-.022.112-.063.149-.132l-.017-.018c-.125.043-.318.135-.348.268-.175.014-.147.124-.25.2-.056.041-.123.044-.184.085-.043.028-.076.094-.115.132.01.064.021.055.033.116-.028.018-.028.022-.065.034-.022.014-.029.014-.066.018.004-.067.049-.121.032-.134-.019-.013-.016-.011-.05-.018-.043.04-.125.042-.166.082-.029.028-.035.073-.067.102v.066c-.162.022-.13.072-.217.118-.102.053-.207.041-.282.119-.11.11-.134.257-.283.331v.05c-.06.017-.056.038-.099.069-.005-.038-.007-.042-.018-.068h-.032v.05c.022.026.01.01 0 .033-.022.016-.055.017-.1.017v.119h-.065c-.062.076-.156.101-.167.232-.014.019-.01.016-.019.05-.05-.001-.045-.014-.064 0h-.018c.037.037.049.02.067.082-.11.03-.144.117-.184.22a.47.47 0 0 0-.349.167c-.021.025-.021.065-.05.082-.069.042-.126.041-.2.083-.061.036-.117.134-.198.148-.053.012-.046-.025-.065-.03l-.232.03v.052c.066.016.131.007.15.083-.015.017-.007.004-.02.032-.096.013-.175.005-.248-.05-.013-.02-.01-.018-.017-.05.027-.022.02-.013.033-.05l-.018-.02q-.09.02-.182.032c.005-.104.038-.104.05-.198-.049-.012-.08-.06-.099-.033-.205.126-.275.554-.515.6-.022-.015-.042-.015-.085-.016v-.051c.09-.04.247-.286.25-.42-.05 0-.065.012-.082 0-.05-.075-.069-.175-.149-.218-.03-.013-.132.002-.199 0 .005.127-.03.25-.116.282-.02.017-.04.017-.082.02l-.018-.02q-.008-.05-.018-.099c.11-.068.168-.172.199-.32-.125-.027-.326-.135-.35-.266.032-.062-.001-.3.05-.384q.025-.01.05-.02.017-.046.033-.099c.06-.09.163-.169.232-.251l.018-.083c.02-.025.077-.025.099-.05.138-.144.417-.4.465-.603-.091-.007-.195-.093-.25-.148-.027.01-.015.003-.03.019-.022.026-.035.079-.05.117-.083-.005-.148.037-.248.032.006-.034.003-.03.016-.05.054-.032.112-.022.15-.068.012-.02.077-.164.083-.184-.058-.017-.052-.008-.066-.066-.105.015-.167.075-.249.1l-.198-.018c-.058.016-.147.086-.231.033.071-.004.192-.039.23-.082.02-.025.027-.086.05-.103h.116c.062-.021.107-.083.115-.168-.041-.017-.078-.025-.1-.065.048-.033.05-.051.05-.134h-.033c-.071.066-.322.196-.366.27v.082a1.5 1.5 0 0 1-.2.202c.03.04.044.025.034.065-.023.042-.007.025-.064.032-.013-.01-.001-.024-.034-.017v.017c-.056.043-.025.09-.066.15l-.05.019c-.059.066-.134.258-.2.3-.004.002-.299-.016-.381-.017-.051.086-.149.28-.217.35-.037.036-.097.045-.132.082H.115v-.03q.06-.058.117-.118c-.007-.095-.04-.095-.05-.184H.048c-.004-.088-.035-.07-.048-.164.056-.023.077-.024.1-.083-.001-.004-.062-.336-.051-.383.01-.032.06-.074.066-.102.018-.06-.042-.133 0-.2.097-.147.314-.252.367-.434-.019-.074-.149-.045-.233-.1-.016-.02-.016-.068-.034-.083-.021-.022-.06-.01-.082-.032H.115c-.03-.052-.002-.122-.033-.168-.008-.015-.058-.021-.064-.032-.028-.044-.005-.315.018-.368.043-.11.189-.201.215-.318.02-.08-.041-.14 0-.25.033-.086.122-.11.15-.2H.42l-.018-.02c-.027-.03-.024-.026-.083-.03-.012-.01 0-.026-.032-.02v.02c-.043.045-.043.096-.118.116-.03-.077-.07-.109-.082-.2.064-.086.074-.21.132-.301l.051-.02c.058-.066.079-.142.132-.217.022-.026.076-.042.099-.067.048-.052.033-.114.067-.184.05-.1.154-.194.216-.282l.016-.101c.057-.072.096-.138.15-.219l.148-.133c.066-.098.109-.191.183-.282.037-.046.063-.025.083-.103H1.33c-.035.026-.068.031-.133.032v-.018c.02-.023.022-.027.033-.067.076-.007.165-.044.182-.118h-.017c-.032.028-.051.03-.117.033v-.017a.3.3 0 0 0 .034-.05h-.034a.4.4 0 0 1-.216.08v-.017h.016c.105-.125.23-.175.366-.267.04-.027.065-.085.1-.119.118-.104.272-.2.4-.282v-.018c-.04-.003-.042-.005-.067-.016.028-.057.047-.08.05-.168h-.033c-.057.044-.143.057-.199.101-.025.025-.034.076-.05.118-.263 0-.332.175-.48.28-.071.052-.148.069-.217.118-.062.047-.074.111-.167.134v-.032c.088-.066.09-.188.217-.22.019-.012.016-.01.05-.017.038-.373.285-.431.548-.619.12-.084.224-.227.349-.3.071-.042.146-.037.217-.084s.14-.134.215-.183c.152-.097.304-.162.449-.27.021-.015.04-.065.065-.082.085-.054.173-.062.25-.117.405-.285.895-.509 1.295-.802.067-.049.189-.058.267-.1.058-.03.125-.104.185-.133.128-.07.257-.093.382-.168.268-.161.584-.314.83-.5.105-.081.256-.1.383-.152.082-.033.173-.129.248-.168l.134-.017c.082-.038.172-.135.247-.186q.125-.03.25-.064c.101-.053.201-.169.3-.218h.081c.068-.032.16-.123.232-.15h.084c.028-.015.063-.07.1-.083l.098-.017c.022-.018.047-.072.067-.083.063-.04.145-.022.199-.068q.007-.025.017-.049c.119-.074.25-.08.367-.15q.04-.042.083-.083c.027.004.054.013.084.019 0 0 .055-.078.066-.083.073-.032.132 0 .198-.032.067-.034.13-.124.2-.152h.1c.05-.022.112-.105.167-.133q.082-.007.165-.017c.022-.015.061-.084.1-.102h.1c.062-.032.128-.13.198-.167.104-.052.21-.049.315-.1q.031-.043.066-.084l.15-.016c.15-.069.258-.2.465-.22v.069c.066-.009.072-.013.134 0-.006.039-.012.007 0 .05.121-.048.435-.142.446-.284a.3.3 0 0 0-.082-.018c-.013-.01 0-.025-.034-.018v.018c-.015.016-.02.029-.033.05-.083-.043-.106-.008-.199.02v-.02h.017c.031-.036.085-.049.117-.082-.053-.032-.132-.08-.15-.148l.05-.02c.134-.083.533.02.698-.118a.3.3 0 0 0 .067-.1c-.084-.033-.201-.058-.232-.15-.012-.018-.01-.017-.017-.05.079-.057.197-.15.2-.285-.11-.096.006-.223-.02-.365-.048-.012-.085-.04-.115-.05-.209-.066-.4.058-.598 0-.162-.05-.218-.211-.368-.27-.193-.075-.36.034-.546-.067-.074-.038-.078-.178-.149-.219-.007-.003-.052.026-.083.02-.038-.011-.194-.052-.218-.083v-.4h.019c.043-.109.149-.082.167-.232-.092-.141-.103-.373-.283-.419-.083.037-.18-.074-.25-.103a5 5 0 0 0-.432-.05c-.158.028-.177.17-.348.183-.063-.052-.188-.043-.231-.116-.06-.1.025-.363.016-.468-.026-.288.168-.587.282-.804.062-.115.056-.265.117-.381.06-.121.157-.21.198-.369-.034-.021-.028-.025-.082-.031-.158.104-.512.044-.731.1-.122.028-.265.072-.382.102-.1.023-.175-.006-.267.03-.117.05-.193.168-.332.184v-.03c.042-.03.043-.032.05-.101-.235.025-.408.109-.666.115v-.283c-.025-.01-.028-.013-.065-.019a9 9 0 0 1-.317.103l-.115-.02c-.037.01-.101.057-.133.068-.111.037-.277.04-.383.064h-.148c-.073.03-.022.064-.167.069-.146.007-.34.135-.433.1-.028-.01-.016-.002-.031-.017.08-.079.027-.116.064-.184.023-.037.092-.065.117-.102v-.05c.038-.025.077-.055.115-.081l.018-.083c.026-.045.099-.063.132-.102.062-.07.067-.184.134-.25.09-.093.4-.37.432-.483q-.093.008-.183.018v-.018c.014-.018.006-.006.017-.032.157-.03.606-.53.632-.703h-.033c-.07-.033-.302-.015-.433.018q-.365.01-.731.018c-.053.017-.09.043-.167.05v-.067c-.082-.041-.173-.092-.265-.117-.102-.025-.257.02-.317 0-.16-.052-.123-.166-.396-.168-.023.027-.011.022-.05.033-.002-.23-.172-.103-.25-.25-.018-.031-.007-.116-.018-.169a1.3 1.3 0 0 0-.267-.118c-.071-.018-.151.015-.183 0l-.032-.031a.6.6 0 0 0 .23-.27h-.016c-.03-.063-.114-.094-.165-.132.014-.058.033-.067.05-.119-.05-.032-.073-.059-.083-.133a.22.22 0 0 0 .1-.103c.009-.04-.02-.11-.084-.131-.063-.05-.16-.016-.266-.034-.036-.006-.095.012-.166-.017-.109-.04-.184-.118-.299-.132-.021-.064-.007-.121-.067-.151-.073-.044-.228-.004-.298-.05-.014-.018-.01-.017-.017-.05.057-.023.051-.039.05-.118-.07-.024-.049-.052-.1-.082-.132-.122-.308-.012-.449-.034v-.032c.1-.009.183-.042.217-.116.01-.018.002-.031 0-.082-.061-.028-.132-.05-.159-.128.061-.025.125-.049.15-.117-.063-.053-.05-.157-.102-.219-.021-.02-.045-.019-.064-.049.053-.02.091-.028.115-.081-.069-.047-.027-.088-.065-.17.09-.006.102-.035.183-.05-.01-.064-.033-.115-.05-.182-.075-.033-.133-.058-.149-.15.076-.025.098-.074.101-.17-.06-.074-.07-.088-.216-.081-.029.019-.038.019-.066 0h.032c.075-.107.215-.138.283-.252-.078-.052-.197-.208-.25-.285.13-.036.312.017.364-.101-.048-.053-.058-.16-.116-.201-.09-.061-.208-.073-.248-.183.084-.026.139-.074.248-.102v-.05l-.033-.034a.44.44 0 0 0 .2-.167c.105-.139.025-.403.017-.567-.088-.046-.21-.083-.232-.2.014-.02.006-.005.017-.033.118.002.275-.058.315-.133.024-.028.027-.052.033-.1-.062-.027-.077-.026-.082-.118.118-.043.286-.09.299-.233h-.032c-.092-.06-.312.04-.467-.115.062.002.107.012.133 0 .012-.02.01-.018.017-.052-.063-.03-.07-.049-.067-.148q.01-.008.02-.018c.187-.02.327-.044.514-.084.006-.01.011-.023.019-.031h-.02c-.024-.02-.104-.018-.132-.032.147-.023.223-.107.217-.285a.6.6 0 0 0-.183-.017c-.106-.06-.293.028-.366-.118-.013-.022-.013-.028-.016-.067q.006-.009.016-.017c.184 0 .3-.057.434-.033v-.05l-.017-.02c-.06.004-.092.016-.118 0-.018-.025-.017-.067-.017-.116a1.1 1.1 0 0 0 .134-.25.7.7 0 0 1-.267-.133c.064-.062.371-.414.349-.469-.012-.04-.017-.037-.033-.065-.09.034-.211.082-.3.1-.029-.043-.05-.038-.065-.1.168-.116.282-.333.384-.52.025.021.014.02.05.033a.4.4 0 0 1 .116-.148c.018.012.016.01.05.017.032-.062.078-.098.117-.15l-.018-.018c-.03.02-.027.034-.065.05v-.05c.057-.04.053-.084.1-.133.127-.137.295-.236.432-.368.025-.025.037-.079.066-.1.088-.064.237-.133.281-.233.016-.032-.021-.094-.018-.099.042-.072.159-.074.232-.117.055-.031.229-.283.25-.35q-.008-.013-.017-.02l-.233-.034c-.092.13-.216.175-.348.27-.07.048-.09.142-.15.2h-.05c-.045.041-.073.106-.116.15q-.058.033-.116.067v.05c-.048.054-.124.075-.184.118-.126.092-.152.273-.366.282-.024-.122-.093-.129-.116-.232.08-.07.04-.176.018-.268.106-.053.098-.176.168-.27.103-.14.465-.313.48-.516-.04.002-.048.002-.065.017-.091.03-.087.099-.148.15a2.7 2.7 0 0 1-.433.25v-.067a1 1 0 0 0 .1-.333h.05c.19-.283.473-.6.715-.835.083-.08.21-.14.28-.232.046-.06.035-.179.084-.234.082.066.256-.06.25-.15v-.018h.1c.08-.101.233-.13.28-.268-.043-.025-.07-.032-.148-.032a.3.3 0 0 1-.199.116v-.067h-.1l-.019-.018c.006-.019.012-.032.02-.051a.6.6 0 0 0 .25-.25.94.94 0 0 0 .479-.168c.063-.044.115-.129.184-.166.087-.048.173-.048.25-.102q.065-.067.133-.133c.098-.062.286-.108.333-.217.013-.02.007-.005.016-.034h-.064a.3.3 0 0 1-.232.134l.016-.084c.066-.04.214-.112.25-.183l-.018-.017c-.15.03-.263.096-.416.117-.025-.053-.025-.033-.016-.1-.131-.019-.13-.027-.267-.019.012-.075.06-.133.1-.184-.04-.035-.036-.09-.033-.167.084-.025.133-.088.198-.134v-.017c-.062-.008-.05-.011-.083-.033.016-.027.021-.026.031-.067-.149.005-.262-.003-.363-.083-.016-.02-.016-.041-.018-.084.014-.017.006-.004.018-.031.124 0 .36-.127.363-.25-.048-.022-.029-.004-.049-.052.118-.014.267-.1.299-.2h-.067c-.044.064-.123.084-.232.083a.1.1 0 0 0-.016-.031c.034-.02.097-.033.116-.069l-.018-.016c-.395.134-.73.269-1.08.433-.14.067-.341-.063-.431.083-.015.02-.011.017-.02.05q-.066.01-.133.02a.34.34 0 0 1-.182.15v-.084c.088-.034.087-.107.116-.2.133-.055.28-.12.315-.268.014-.021.014-.027.019-.067-.056-.014-.025.01-.051-.031.087-.072.188-.191.199-.335-.123-.07-.09-.182-.148-.218-.071-.043-.099.016-.134-.067-.035-.059.021-.154 0-.183-.02-.016-.028-.014-.066-.02-.038.046-.127.112-.183.085-.013-.017-.007-.005-.017-.034.057-.008.127-.035.149-.082.013-.02.01-.017.017-.05-.175-.013-.231.03-.433.032v-.033c-.015-.021-.015-.04-.017-.083.056-.028.073-.06.115-.1v-.084l.317-.067c.018-.041.035-.072.05-.116-.05-.057-.061-.132-.132-.168-.031-.012-.074.025-.117.032q-.082-.017-.167-.032v-.031c.106-.042.174-.262.199-.386h-.033a.25.25 0 0 1-.116.05v-.033h.018c.073-.074.258-.176.366-.216v-.084c-.228.014-.437.174-.615.251h-.1q-.033.034-.065.066l-.185.019-.128.031c-.005.02-.01.032-.017.052-.053.025-.06-.017-.1 0-.151.05-.258.187-.449.216v-.02c.015-.017.008-.004.018-.03.07-.023.128-.065.149-.135a.5.5 0 0 0-.149-.018c-.107.077-.291.128-.446.15-.04-.056-.088-.055-.183-.051-.11.093-.54.275-.7.251-.006-.054-.013-.05-.031-.084.187-.099.382-.189.564-.282.05-.019.099-.032.149-.05.139-.085.32-.286.465-.352v-.017c-.033-.007-.03-.005-.05-.019h.033a.5.5 0 0 1 .2-.1q.04.006.083.016l.065-.064c.079-.034.149.003.217-.034q.045-.05.1-.1.09-.017.183-.032c.037-.026.083-.082.133-.102.17-.059.343.017.416-.133-.042-.023-.012.007-.034-.035.235-.03.266-.232.433-.282.083.051.207-.058.282-.081q.099-.01.198-.02c.115-.045.28-.129.398-.166h.117l.198-.084c.027-.02.055-.105.084-.117.046-.02.02.05.083.034.085-.023.21-.093.282-.119h.117c.107-.045.24-.146.349-.2.106-.054.216-.036.332-.082.103-.042.216-.133.333-.17.185-.055.321-.08.482-.167.04-.021.09-.082.133-.1.1-.042.147.001.183-.1-.044-.038-.029-.058-.017-.118h-.066c-.119.095-.327.105-.482.168-.12.049-.275.134-.397.183h-.117c-.034.012-.086.058-.117.067-.041.013-.045-.025-.1 0-.064.027-.155.11-.232.131l-.214-.015c-.056.015-.076.053-.15.066v.067l-.017.018a1 1 0 0 0-.23.05c0 .032.016.003 0 .032-.1.07-.668.047-.7.102.016.026.003 0 0 .031-.04.017-.148.02-.148.02-.014.018-.01.015-.018.05q.018.015.033.033h-.033c-.024-.023-.028-.023-.067-.034 0 .077-.007.096-.065.118-.03.021-.092-.003-.135.018-.046.022-.066.098-.132.117l-.084-.017c-.058.025-.013.116-.148.133-.049.026-.062-.016-.118 0-.026.006-.044.038-.083.05.004-.062 0-.05-.018-.117.278-.125.54-.223.781-.367.045-.028.25-.101.267-.084.046-.054.098-.123.166-.15.584-.249 1.149-.478 1.679-.735v-.05c-.08.004-.124.037-.184.05q-.058-.01-.116-.017l-.051.05c-.102.04-.24-.025-.315 0-.025.008-.046.074-.066.082l-.15-.03c-.06.017-.151.112-.217.13-.07.024-.09-.024-.165 0-.113.043-.216.137-.35.15v-.03c.039-.021.073-.039.1-.068-.103.011-.322.088-.365.17h.034c.021-.028.01-.023.05-.034v.05c-.25.15-.538.258-.864.269-.016-.053-.037-.065-.066-.1-.364-.015-.569.25-.93.268v-.033c.056-.023.09-.096.1-.167-.015-.02-.007-.006-.019-.034-.025-.008-.095-.02-.115-.033h.018c.08-.09.189-.064.333-.1.196-.051.292-.147.498-.15.036-.054.033-.063.05-.116.233.064.304-.069.465-.167.08-.049.183.006.283-.032.059-.025.124-.109.2-.133l.23-.019.067-.066.083-.018q.007-.026.017-.05c.068-.038.043.066.1-.02.013-.018.01-.016.019-.05h.1c.021-.054.044-.045.066-.1-.027-.023-.02-.012-.033-.05h.018c.13.175.655-.09.796-.15.137-.057.29-.145.432-.2l.267-.017c.173-.071.371-.198.549-.27q.092-.008.182-.018c.215-.111.355-.258.649-.3v.033h-.034c-.035.032-.084.045-.115.083l-.018.018h.051c.068-.048.104.01.181-.018l.268-.102c.045-.032.056-.106.115-.131.14-.06.37-.037.382-.22h-.032v.019c-.014.018-.024.046-.033.067-.279.007-.432.19-.699.218v-.019h.02a.74.74 0 0 1 .331-.2c.096-.014.11.064.182-.017-.036-.023-.03-.022-.033-.033.06-.068.153-.069.235-.117.123-.074.228-.177.363-.251v-.034h-.065c-.085.075-.155.043-.25.084-.216.097-.448.2-.664.302v.082c-.074.004-.11-.026-.168-.018-.061.011-.156.066-.214.083q-.085.007-.167.018c-.134.067-.323.178-.466.233h-.082c-.056.025-.129.107-.184.132-.136.067-.242.074-.383.134-.193.082-.344.258-.614.285.01-.044.008-.033 0-.084-.414-.061-.495.146-.88.216v-.032c.104-.017.063-.044.116-.1.039-.039.113-.044.149-.083.025-.025.089-.146.115-.167q.048-.008.1-.02c.11-.052.248-.135.349-.196h.1c.102-.045.23-.14.333-.183.118-.05.2-.038.331-.084.294-.103.61-.283.897-.4.109-.044.275-.054.366-.117q.014-.04.032-.083c.068-.046.132.015.199-.017.04-.02.119-.07.183-.1q.076-.02.149-.034c.058-.031.117-.096.183-.116.082-.029.129-.005.217-.034.037-.014.083-.07.115-.084q.075-.007.15-.017c.066-.043.148-.105.231-.134q.108-.026.216-.05c.207-.128.432-.184.682-.283.241-.098.53-.22.765-.334q.157-.04.313-.084c.105-.05.243-.146.35-.184a.4.4 0 0 1 .217-.018c.055-.023.091-.093.149-.116l.116-.02q.008-.024.018-.05c.048-.032.268-.084.332-.115-.015-.026-.047-.015-.018-.035q.008-.016.018-.031c.042.026.025.042.065.03.063-.033.054-.089.133-.115.022.033.022.033.065.05.04-.066.029-.111.15-.117.05-.028.12.012.198-.018.171-.059.348-.158.497-.232h.134c.146-.048.308-.181.449-.231q.091-.01.184-.02c.127-.044.277-.14.398-.2.092-.046.183-.032.268-.083v-.032c.07-.02.145-.033.217-.052.018-.013.02-.056.05-.066.163-.072.343-.072.5-.15q.03-.034.063-.065c.111-.06.23-.042.334-.102.088-.05.216-.159.315-.184.049-.014.088.026.132.018.076-.02.147-.12.216-.15.183-.075.325-.095.516-.166.018-.007.18-.072.2-.084.015-.012.015-.057.031-.068.099-.05.201-.019.3-.064.037-.022.095-.084.134-.103h.132c.15-.05.317-.168.465-.217.042-.014.079.013.1.018.047-.015.081-.065.117-.082.071-.02.145-.033.215-.05.064-.027.172-.092.232-.12h.134c.098-.039.232-.124.333-.167.066-.026.119-.006.199-.032.069-.024.149-.089.215-.117.123-.052.23-.05.35-.1.126-.053.27-.15.398-.2.121-.049.204-.039.332-.084.368-.13.695-.253 1.08-.4.073-.026.084.025.15 0 .022-.009.07-.056.1-.066.086-.029.154-.005.25-.032.146-.042.306-.158.45-.218q.08-.007.166-.018c.23-.086.523-.188.764-.282l.166-.018c.141-.05.347-.1.497-.168.024-.01.065-.06.085-.067.04-.017.172.011.25-.018.21-.074.453-.172.664-.25.108-.04.336-.096.432-.117l.083.02c.078-.024.184-.092.268-.12.22-.068.445-.112.647-.183.176-.063.336-.055.515-.117.069-.025.164-.105.23-.133.134-.057.221.024.25-.132-.037-.041-.018-.008-.016-.066.029-.013.016-.003.032-.02h-.065l-.018.033h-.018a.2.2 0 0 0 .018.034h-.018c-.019.013-.058 0-.083.016-.053.035.001.07-.116.102v-.102c-.174-.003-.291.065-.415.102-.087.023-.136-.029-.199 0-.019.02-.032.044-.05.065h-.148c-.088.037-.152.076-.148.219l-.017.018c-.133-.03-.164.022-.317.033l-.017-.034h.017c.031-.032.079-.038.116-.066-.162 0-.43.08-.581.15l.017.017c.022.018.056.018.1.02.033-.052.061-.053.148-.052v.019c-.021.021-.021.027-.033.066-.086.012-.207.056-.28.066-.032.003-.044-.046-.084-.032l-.082.083-.167.02q-.026.031-.05.065l-.115.032c-.144.043-.252.006-.3-.067-.07.025-.14.026-.166.1h.05c.024-.016.055-.016.1-.017-.006.034-.003.03-.017.05-.069.061-.292.13-.383.148q-.059-.007-.116-.016c-.023.008-.034.058-.083.05-.06-.01-.142-.061-.232-.067-.032.063-.038.097-.133.1-.018-.014-.006-.006-.032-.018v.018c.02.011.013 0 .016.017a.48.48 0 0 1-.283.134v-.051c-.082.013-.099.068-.166.083-.088.026-.096-.06-.2-.032-.143.036-.242.156-.365.2H23.4c-.04.024-.079.044-.116.068v.017c.04.006.042.007.066.02-.047.073-.09.086-.216.082q-.033-.034-.066-.067c-.07.027-.047.06-.15.067-.02-.027-.01-.02-.05-.034-.015.025-.04.102-.065.12h-.083c-.02.013-.016.067-.033.082-.062.047-.131.017-.216.05-.034.016-.097.069-.133.084-.06.026-.117.003-.183.034-.062.027-.092.074-.2.084-.028-.057-.034-.076-.116-.084-.071.107-.175.068-.28.116-.037.018-.07.068-.1.082-.13.07-.257.03-.384.066-.072.022-.116.106-.182.134h-.117c-.078.025-.183.082-.265.118q.009.016.015.033h-.015c-.147.147-.396.123-.6.218-.043.02-.126.115-.167.082-.072-.032-.033-.068-.132-.082-.124.189-.506.22-.765.317-.074.026-.154.092-.231.117h-.118c-.018.009-.022.059-.034.066-.038.025-.253.04-.314.067-.055.024-.099.093-.149.117-.1.047-.188.027-.298.066-.047.017-.096.068-.133.084h-.084c-.145.054-.303.118-.464.184-.224.09-.522.21-.714.283h-.15c-.1.027-.198.104-.281.134h-.116c-.194.077-.419.23-.614.301-.396.146-.717.26-1.064.434l-.216.033c-.106.045-.226.131-.332.184-.207.1-.435.111-.647.2-.167.072-.359.175-.517.25q-.082.008-.165.017c-.087.03-.179.122-.267.15h-.1c-.09.037-.206.112-.299.15-.095.04-.176.035-.266.084-.04.023-.074.08-.116.1-.143.063-.287.061-.432.117-.192.072-.421.18-.615.252l-.166.018c-.068.025-.16.103-.232.134-.15.064-.27.058-.432.117-.105.04-.164.111-.332.117v-.032c.228-.062.469-.199.664-.3.086-.046.19-.028.267-.083.02-.016.022-.056.05-.067.098-.044.183-.04.282-.084.221-.093.466-.207.665-.316.06-.032.224-.025.267-.05.022-.015.041-.072.065-.084.079-.04.15-.021.234-.05.082-.031.191-.103.265-.15.17-.108.413-.096.549-.233q-.01-.007-.018-.017c-.231.057-.464.188-.667.283-.175.081-.341.081-.513.167-.056.025-.117.095-.166.116-.116.054-.254.039-.35.069-.075.022-.147.104-.217.133-.121.05-.214.057-.333.1a4 4 0 0 0-.398.169c-.064.028-.14.013-.199.05-.048.03-.144.109-.198.082l-.018-.017c.043-.028.06-.096.099-.117q.058-.009.117-.019c.043-.021.104-.079.15-.1.098-.043.187-.032.281-.083.072-.036.155-.116.231-.15.084-.036.117.041.184.019l.05-.084q.075-.018.148-.031c.055-.027.11-.112.166-.134.07-.03.145.006.199-.033.05-.035.076-.134.133-.167.062-.036.123-.007.199-.034.047-.017.091-.08.133-.1h.1c.05-.022.126-.098.184-.116q.076.007.148.017c.045-.017.09-.097.133-.116.077-.036.175-.016.25-.052.043-.021.084-.1.134-.116.041-.017.078.013.1.018.056-.02.083-.079.133-.1.056-.026.075.015.117 0q.015-.026.033-.05h.099c.027-.013.091-.073.115-.084.073-.036.156.011.217-.032.027-.021.028-.083.067-.1q.073.007.147.018c.04-.016.093-.098.133-.116.055-.027.059.014.1 0 .02-.024.045-.046.066-.069.05-.022.107.01.149-.016.021-.017.04-.074.066-.084l.148.032c.12-.015.196-.128.282-.167l.166-.02c.057-.032.085-.133.148-.166.135-.067.275-.003.398-.05.079-.029.125-.09.232-.1l.018-.084a3 3 0 0 1 .365-.15c.022.056.025.048.1.05.098-.092.48-.239.631-.268v-.101h.034c.016.028.03.042.05.067.085-.029.126-.074.183-.1.134-.06.258-.055.383-.117.084-.044.224-.148.332-.118.036-.017.07-.07.1-.083.085-.042.159-.023.232-.068q.031-.033.065-.066c.076-.027.097.031.165 0 .11-.051.226-.152.333-.2.125-.057.112.065.185-.083.049.022.04.051.082.033.068-.015.092-.021.1-.102.014-.016.006-.003.02-.032h-.085c-.035.03-.092.061-.116.051-.013-.019-.006-.006-.019-.032.04-.021.073-.014.117-.033.052-.024.078-.09.133-.116.012.077.032.099.033.2.275-.034.353-.217.6-.269v-.017c-.038-.011-.045-.014-.067-.034h.017c.025-.029.016-.023.067-.031v-.068c.056-.039.303-.223.365-.182.015.018.01.015.018.05-.03.025-.022.016-.033.066l.018.018c.065-.017.094-.032.132-.05a1 1 0 0 0 .05-.118c.036.025.03.029.101.034q.015-.052.031-.1c.043.012.04.02.083.03.032-.043.058-.058.084-.116l.018.018c.033.036.047.1.065.15.06.006.074.036.117.032.088-.007.158-.088.266-.1v-.083c-.053.004-.053.018-.083 0l-.018-.018c.204-.01.222-.189.349-.233-.001.068-.008.09.033.117.062-.048.187-.09.217-.169-.042-.02-.01.009-.031-.03.124-.043.24-.128.364-.17.005.056.031.09.018.101-.04.083-.092.04-.101.168l.018.017a.3.3 0 0 1 .083-.017q.015-.085.033-.168c.104-.01.114-.07.181-.1.034-.015.061.033.1 0 .062-.054-.028-.103.1-.15.025.03.016.025.066.034.007.101.028.083.034.149-.076.018-.103.02-.183.034-.008.057-.02.051-.033.1h.083c.079-.067.255-.112.382-.118v-.05c-.056-.02-.05-.038-.117-.05v-.051c.114-.06.137-.174.283-.201.022.056.026.049.1.05.022-.079.074-.093.116-.15l.117.017q.007-.047.018-.1c.08.003.106.003.133-.05l-.018-.018c-.169-.015-.238.043-.382.101-.017.059.021.061-.05.083-.113-.111-.258.015-.365.05-.059.02-.086-.031-.15 0l-.066.068c-.036.01-.076-.014-.116 0v.05c-.065-.007-.053-.016-.1-.032-.016.096-.072.089-.183.082-.03.022-.103.01-.134.033-.052.04-.098.177-.199.134-.062-.021-.064-.033-.067-.117-.077.002-.225.035-.265.084-.025.026-.017.077-.05.1l-.1.017c-.006.02-.012.033-.015.051l-.084-.018c-.07.03-.033.103-.149.118-.019-.034-.025-.03-.033-.082-.193.004-.314.114-.499.132v-.1c.025-.009.028-.013.066-.019.137.09.144-.068.25-.05.09.016.164-.073.232-.117h.082c.043-.022.096-.085.149-.1.07-.022.085.034.15 0 .027-.019.04-.08.065-.1q.048-.01.1-.02c.075-.046.086-.103.217-.116.021.033.021.033.065.05.086-.146.32-.133.498-.134.054 0 .077-.07.117-.084l.116.02c.036-.01.042-.041.1-.051v-.067c.048-.012.173-.013.232-.032.046-.02.1-.082.148-.1q.11-.019.218-.033c.035-.016.065-.072.1-.084.05-.02.095.032.165 0 .054-.025.09-.109.149-.133.082-.033.158.042.25 0l.018-.05q.075-.008.149-.02c.122-.052.269-.142.382-.216q.04-.042.082-.083c.037-.015.219.013.28 0 .015-.045.022-.04.034-.083-.049-.015-.045-.007-.064-.05q.065-.033.132-.068h.1c.037-.014.077-.071.117-.083q.058.008.115.018c.122-.029.173-.125.314-.134.012.029.004.018.018.033v.034c-.088.025-.227.066-.247.167.028.011.015.003.033.017.127-.025.26-.026.38-.05.019-.067.056-.108.085-.168.118.002.203-.013.281-.033l.018-.05h-.033c-.057-.029-.188.03-.266.05v-.031c.077-.022.25-.047.313-.083.098-.055.027-.082.218-.083v.05q-.02.01-.034.019c-.04.025-.113.021-.15.05-.012.022-.012.028-.017.067.056.001.122.004.149-.018.063-.021.134-.082.15-.15 0 0-.066-.002-.034-.018h.034c.088-.095.073-.057.199-.101.021-.008.061-.061.082-.066.072-.025.099.048.149.033.027-.009.127-.13.183-.149a2 2 0 0 1 .2-.035c.023.012-.002.073.1.05.091-.02.118-.09.23-.1l.033.034c-.005.018-.012.03-.018.05-.164.027-.312.07-.432.134-.007-.02-.02-.078-.032-.032-.042.033-.11.081-.133.131h.064c.156-.12.38-.033.582-.131.067-.034.174-.093.25-.12q.082-.007.165-.017c.061-.024.116-.1.182-.117q.076.008.15.018c.106-.024.229-.086.315-.116.162-.061.339-.031.498-.084.167-.055.308-.16.466-.218.219-.078.645-.028.764-.2a.5.5 0 0 0-.182-.02c-.049.04-.217.084-.249.068l-.018-.019c.116-.057.254-.1.382-.134h.117c.021-.007.227-.07.248-.082q.027-.035.05-.066c.126-.061.264-.026.398-.067.053-.015.156-.034.217-.066.062-.034.055-.097.15-.116.021.018.048.023.082.031v-.031c-.027-.024-.02-.013-.033-.052.115.009.132-.019.216-.05.092-.037.227.016.281 0 .073-.02.192-.106.267-.135.092-.034.256-.023.332-.067q.017-.031.032-.066c.105-.057.351-.038.432-.05.025-.059.027-.086.1-.102 0 0 .603-.09.667-.117.027-.012.06-.077.115-.068l.05.05c.129.037.243-.087.333-.117q.08.008.166.018c.02-.009.066-.066.1-.067.018 0 .033.034.067.018.032-.02.04-.11.115-.132.097.005.188.012.282.018.02-.008.02-.06.032-.067.064-.04.21-.016.267-.032.032-.011.097-.058.133-.066h.184c.02-.009.058-.06.082-.067h.149c.108-.043.25-.119.382-.148.146-.038.166.052.299.016.08-.022.172-.09.233-.12h.148c.021-.007.059-.058.083-.064q.092.008.183.018c.066-.018.129-.1.185-.119q.09.012.182.02v.017c-.031.026-.047.041-.032.067.021.017.054.017.099.018.207-.283.689-.172 1.03-.35.124-.066.042-.133.281-.134.08.068.416-.109.517-.15.069-.03.268-.019.332-.034v.02c-.033.025-.048.06-.067.1-.041-.008-.015-.008-.065 0v.016c.015.018.007.006.017.034h.066c.012-.014.303-.167.314-.17.028.04.025.04.085.051.049-.049.113-.053.215-.05q.034-.066.066-.134c.208 0 .347-.082.515-.117q.084.009.167.02c.102-.042.23-.152.351-.186l.148.02c.025-.01.03-.06.05-.068.014-.006.034.028.066.02.052-.02.116-.082.167-.102q.15.007.3.018c.034-.01.218-.058.233-.05.017.006.01.04.032.05.008-.009.263-.064.281-.067.009-.068.013-.08.066-.102.084-.063.445-.146.582-.15.025.043.025.053.083.069.147-.113.222-.13.417-.103 0-.053-.028-.022.016-.05a.6.6 0 0 1 .267-.067l.05.067c.063-.029.16-.031.231-.067.083-.042.143-.126.25-.15.092-.021.113.042.217.035v-.07c.097-.025.21-.074.298-.099h.1l.066-.067h.149c.054-.017.156-.067.216-.082h.25q.023-.032.05-.068l.198-.016c.034.012.045.073.133.05.082-.02.08-.085.132-.118.07-.04.161-.014.25-.03.106-.026.3-.143.449-.119 0 .047-.018.043.064.05q.076-.023.15-.05c.012-.048 0-.086.066-.118.018-.012.015-.01.05-.016l.064.083c.06.036.557-.1.582-.119q.032-.05.067-.101l.38-.032c.03-.027.055-.057.085-.082.113-.04.178.076.266.05.012-.02.021-.033.033-.05.104-.042.293 0 .398-.05.064-.03.115-.136.23-.17.106-.025.281.078.4.051.087-.021.094-.1.216-.117.003-.04.006-.042.015-.068h.034c0 .073-.036.049.033.068.04-.026.122-.007.166-.034.041-.021.042-.083.1-.099.064-.018.293.06.382.032l.198-.083c.055-.054-.008-.067.102-.082.025.003.015.033.066.031 0 0 .395-.114.398-.116.005-.018.012-.032.018-.051.047-.025.189.048.269.019.138-.057.245-.171.446-.184v.05h.033c.162.105.483-.168.582-.117q.04-.044.08-.083c.055-.015.076.054.153.034.163-.048.34-.036.53-.102.062-.02.083-.09.131-.119.042-.022.072-.006.1 0 .098-.039.198-.064.298-.099.142-.047.186.06.318.017.094-.029.08-.109.215-.115.02.026.032.057.068.065.014.002.49-.1.549-.118.146-.041.344-.057.499-.114.043-.02.107-.095.147-.102.035-.007.074.049.149.032.033-.005.123-.006.152-.017.03-.012.068-.064.103-.069.089-.014.197.018.314-.017.112-.03.16-.124.27-.15.093.108.281-.003.381-.033q.148-.015.3-.032c.477-.134 1.063-.2 1.578-.333.186-.05.43-.012.563-.116.05-.058.026-.079.135-.084.049.075.144.05.217.017.017-.05-.003-.05.032-.082a.6.6 0 0 1 .267-.084q.008.006.017.019c-.025.053-.037.066-.098.084v.017h.098c.031-.02.083-.002.134-.017.244-.07.575-.13.83-.2l.316-.034c.026-.008.057-.057.082-.067h.217c.121-.027.278-.068.4-.1q.115-.008.23-.017c.536-.158 1.165-.224 1.678-.386l.28-.017c.073-.022.117-.086.152-.1.033-.017.149.03.214.016.074-.018.174-.025.27-.05.485-.142 1.094-.195 1.56-.352l.432-.031c.252-.066.569-.127.83-.2a6 6 0 0 0 .25-.019c.098-.025.242-.096.332-.115.017-.003.063.025.102.017.146-.037.312-.05.478-.1.034-.01.127-.028.168-.05.02-.018.032-.033.051-.05.053-.01.02.044.084.034.2-.035.469-.094.664-.15q.232-.035.466-.067c.017-.005.064-.047.083-.05.016-.003.06.025.1.018.28-.075.63-.13.915-.2.222-.056.376.078.598.019.044-.014.117-.055.166-.067.104-.026.185.006.267-.034.11-.051.252-.136.382-.168.14-.031.17.074.333.032.252-.063.552-.12.798-.184.188-.047.342-.012.53-.067.072-.02.097-.084.148-.117.094-.061.127.022.184 0 .063-.026.037-.063.168-.066v.018a.2.2 0 0 0-.031.033h.064c.06.034.234-.021.299-.051.228-.111.4-.209.748-.217.009.034.006.03.018.05.025.02.079.02.129.017.213-.133.601-.063.866-.148.032-.012.096-.059.132-.067h.168c.047-.013.124-.068.167-.083q.14-.007.282-.017c.124-.046.228-.189.347-.233v.018c.032.023-.005.026.07.032.019.015.016.012.049.02v.065c.242.005.238-.027.383-.083v-.017l-.299.05v-.017h.016c.107-.128.185-.028.3-.051.014-.001.055-.046.065-.05.11-.041.275-.043.402-.05l.016.016c-.016.016-.004.008-.031.02-.028.03-.063.026-.084.065h.02c.167-.104.532-.048.716-.117.01-.04-.016-.055.03-.083a.4.4 0 0 1 .183-.068v.05c-.06.02-.058.013-.068.083.2.001.287-.048.434-.083h.183c.075-.019.223-.06.299-.082.152-.046.3.015.432-.05.04-.02.037-.075.065-.1.066-.058.323-.064.367-.033-.043.022-.02-.005-.036.049h.032c.077.052.187-.015.25-.034a.2.2 0 0 1 .018-.082c.195-.022.442-.07.632-.118.057.004.12.01.18.016.287-.07.67-.074.928-.133h.27c.095-.025.302-.043.396-.067h.232c.074-.025.062-.085.168-.1-.006.049-.02.034 0 .065.034-.026.06-.02.082-.064-.04-.017-.026-.007-.049-.034h.08c.093-.042.127.078.2.1.26-.02.521-.045.778-.065.028-.074.031-.112.133-.118v.083c.434.072.685.028 1.1-.067l.148.02c.1-.024.284-.123.434-.102.12.019.313.033.447.067.13.032.268-.05.399 0 .018.018.03.033.049.05.014.005.106-.047.167-.032.062.017.15.058.216.067.105.014.244-.072.386-.034.144.04.428.059.563.119.032.014.071.07.118.082.13.04.252-.027.38 0a.9.9 0 0 0 .404.102"></path></svg>