<svg
	width="100"
	height="100"
	viewBox="0 0 100 100"
	xmlns="http://www.w3.org/2000/svg"
	data-test="splatter-2"
>
	<path d="M55.3623 10.7556C57.4081 10.094 58.2399 7.65326 57.5328 5.90468C57.2081 5.09737 56.554 4.43695 55.5423 4.1655C52.8658 3.4475 50.0728 5.12087 50.4799 8.11626C50.7658 10.2315 53.5422 11.3443 55.3623 10.7556Z" />
	<path d="M52.1258 94.4554C52.5023 93.3614 52.5611 92.1275 52.2964 91.2368C52.174 90.8208 51.9823 90.4671 51.7446 90.1674C51.4352 89.6974 51.014 89.3166 50.474 89.0863C50.2223 89.0499 49.9787 89.0217 49.7434 89.0029C49.0481 88.8642 48.2999 88.9007 47.5952 89.0934C45.6293 89.4906 44.6211 90.8455 44.4858 93.0735L44.5417 93.1945C44.7017 93.541 44.8622 93.8883 45.0328 94.2239C45.1199 94.4519 45.2222 94.6599 45.3364 94.8327C45.414 94.9502 45.5011 95.0642 45.5905 95.177C46.0869 95.8926 46.7222 96.4696 47.6693 96.7352C48.4646 97.0454 49.3387 97.1124 50.1905 96.7775C50.2634 96.7481 50.334 96.714 50.4046 96.68L50.4187 96.6726L50.4592 96.6511L50.4764 96.6412L50.4997 96.628C50.535 96.608 50.5699 96.5883 50.6046 96.5671L50.6917 96.5119L50.7564 96.4649C51.354 96.0372 51.8034 95.3626 52.0811 94.5871C52.0846 94.58 52.087 94.5718 52.0893 94.5647L52.1092 94.5047L52.1258 94.4554Z" />
	<path d="M88.8765 28.3804C90.8436 27.8763 92.8236 27.9726 94.6836 28.8164C98.4907 30.5403 100.62 34.8072 99.8401 38.9342C98.8913 43.9529 94.4325 44.8349 90.2249 45.6672C89.2829 45.8535 88.3535 46.0374 87.4789 46.2646C86.213 46.5936 85.1059 47.2188 84.2941 48.039C82.7153 49.6337 82.2553 51.9639 83.9141 54.2801C85.2694 56.1709 87.5132 57.1196 89.7498 58.0653C92.534 59.2425 95.3072 60.415 96.3412 63.3943C99.6554 72.9457 87.593 78.6697 80.1659 73.8729C77.8694 72.3887 71.3211 70.5132 72.1294 75.6791C72.3008 76.7744 72.5934 77.8475 72.8833 78.9105C73.6341 81.6635 74.3665 84.349 72.927 87.1788C71.0776 90.8146 66.3199 93.5856 62.2399 92.3446C59.1585 91.4067 57.5892 88.7757 56.0518 86.1984C55.7901 85.7597 55.5294 85.3225 55.2622 84.8955C53.0952 81.4313 49.0234 78.4512 45.6622 82.7827C44.9799 83.6615 44.4543 84.5675 43.9557 85.4271C42.5859 87.7884 41.4187 89.8005 37.761 89.9427C33.7669 90.099 29.0622 88.0319 28.2327 83.6722C27.6204 80.4588 28.8341 77.8384 30.1221 75.0577L30.1277 75.0456C30.241 74.8011 30.3548 74.5553 30.468 74.3077C32.5363 69.7835 31.1339 64.5695 25.4845 64.9725C23.7693 65.0949 22.1026 65.6693 20.4404 66.2421C17.6346 67.209 14.8418 68.1714 11.8503 66.9479C8.07149 65.4026 6.03736 61.1499 6.84795 57.185C7.71409 52.951 11.1316 52.3119 14.6118 51.661C16.4402 51.3191 18.2859 50.9739 19.788 50.1025C22.5951 48.4738 21.6151 44.5031 19.6551 42.7075C18.9923 42.1006 18.2807 41.576 17.5841 41.0624C15.6221 39.6158 13.7793 38.2572 13.4833 35.3971C12.9315 30.0514 17.1468 27.3263 21.9609 28.0808C25.4245 28.6237 30.4622 29.2547 30.8692 24.5084C31.0392 22.5153 30.6059 20.5055 30.173 18.4976C29.6502 16.0732 29.128 13.6514 29.6692 11.2648C30.4527 7.80638 34.2728 5.2975 37.7787 5.30337C41.9785 5.31048 44.0814 8.71741 46.0712 11.9412C46.3845 12.4488 46.695 12.9519 47.0105 13.4364C47.1339 13.626 47.2601 13.8231 47.3894 14.0251C48.8243 16.2671 50.6479 19.1164 53.5552 19.0711C56.0716 19.0322 57.7148 16.914 59.1373 15.0802C59.2636 14.9173 59.3883 14.7565 59.5117 14.5998C61.7046 11.8159 64.5023 8.35869 68.3964 8.40217C71.7811 8.44095 75.8553 10.9369 76.5682 14.3671C76.9952 16.4225 76.338 18.3655 75.6813 20.3074C74.9355 22.5123 74.1903 24.7158 75.0329 27.0807C76.0623 29.9715 79.1188 32.0856 82.2188 31.4487C83.3751 31.2108 84.4857 30.5651 85.6082 29.9124C86.6707 29.2946 87.7438 28.6707 88.8765 28.3804Z" />
	<path d="M83.5753 23.1665C89.0859 26.6801 95.3612 14.8255 90.3635 13.5035C90.0223 13.413 89.6506 13.3989 89.26 13.4494C85.407 13.943 79.7188 20.7081 83.5753 23.1665Z" />
	<path d="M22.7057 18.7673C22.8222 20.0576 21.9845 21.899 20.561 22.2151C18.9104 22.5817 17.1857 21.3584 16.7892 19.8108C16.6421 19.2373 16.6763 18.6192 16.9645 18.0211C18.141 15.5733 22.4445 15.8741 22.7057 18.7673Z" />
	<path d="M12.515 42.9968C12.2974 42.1648 10.9691 41.052 10.2644 40.6089C9.48324 40.1166 8.56559 39.8627 7.67853 39.6371C5.96441 39.2011 3.93616 38.9168 2.32557 39.8522C0.783212 40.7488 -0.0779676 42.6254 0.00556216 44.3705C0.247916 49.4024 7.81618 48.6597 10.6621 46.6103C11.7068 45.8594 12.8691 44.3635 12.515 42.9968Z" />
	<path d="M80.7905 84.6501C80.7976 88.2307 86.9611 89.5833 87.8117 85.9392C88.92 81.1823 80.7823 79.2128 80.7905 84.6501Z" />
</svg>