<svg
	width="100"
	height="100"
	viewBox="0 0 100 100"
	xmlns="http://www.w3.org/2000/svg"
	data-test="splatter-1"
>
	<g clip-path="url(#clip0_2221_15960)">
		<path d="M5.55541 82.76C10.9788 89.7923 21.58 68.32 29.7912 71.7C34.679 73.7122 30.1356 86.08 35.4023 86.5323C42.1602 87.1123 38.9779 68.4967 45.7424 69.0045C56.8214 69.8356 47.2602 101.815 58.2081 99.919C69.3304 97.9945 49.4169 70.9967 59.5781 66.0934C67.1648 62.4311 73.1049 85.8589 79.9871 81.0012C86.1427 76.6556 68.8315 65.22 73.536 59.3344C78.9616 52.5467 96.0917 69.0711 99.5417 61.0944C104.031 50.7133 74.046 49.2844 74.6971 37.9955C75.2093 29.0844 93.3617 30.5777 96.2617 22.1388C98.0284 16.9966 96.9051 8.40546 91.8361 6.43879C81.1327 2.28212 73.1382 29.0733 62.5637 24.5966C54.8425 21.3277 65.5604 0.761002 57.2081 0.0187784C48.8091 -0.726779 55.6236 20.9622 47.5513 23.3966C42.7168 24.8544 39.4057 12.4766 34.9923 14.9277C31.1345 17.0699 39.1512 25.7155 35.4757 28.1577C27.2734 33.6077 14.5477 7.81879 8.67544 15.7244C2.54427 23.9766 31.6967 28.7933 29.1812 38.7611C26.65 48.7944 -0.952422 39.0766 0.0253642 49.3733C0.945372 59.1078 25.5134 44.9289 28.9812 54.0678C33.3601 65.6078 -1.98132 72.9789 5.55874 82.7478" />
	</g>
	<defs>
		<clipPath id="clip0_2221_15960">
			<rect width="100" height="100" />
		</clipPath>
	</defs>
</svg>