<svg
	width="100"
	height="100"
	viewBox="0 0 100 100"
	xmlns="http://www.w3.org/2000/svg"
	data-test="star"
>
	<path d="M96.7245 36.2344L67.3594 34.1726C65.9876 34.081 64.8484 33.2792 64.3369 32.0192L53.2697 5.14766C52.084 2.28411 47.9221 2.28411 46.7364 5.14766L35.6692 32.0192C35.1577 33.2792 34.0185 34.081 32.6467 34.1726L3.28157 36.2344C0.119524 36.4635 -1.15924 40.335 1.25879 42.3509L23.7883 61.0213C24.8346 61.8918 25.2764 63.1976 24.9509 64.5263L17.8595 92.6807C17.0922 95.7276 20.4635 98.11 23.1606 96.4606L48.1314 81.112C49.2939 80.4018 50.6889 80.4018 51.8747 81.112L76.8455 96.4606C79.5426 98.11 82.8906 95.7047 82.1234 92.6807L75.032 64.5263C74.7065 63.1976 75.125 61.8918 76.1945 61.0213L98.7241 42.3509C101.165 40.335 99.8866 36.4635 96.7245 36.2344Z" />
</svg>