<svg width="24" height="24" viewBox="0 0 24 24" xmlns="http://www.w3.org/2000/svg">
<path d="M10.5229 5.50075C12.5081 5.50075 14.2807 6.39883 15.4623 7.79321L14.4697 8.64402C13.5244 7.53324 12.1064 6.82423 10.5229 6.82423C7.63959 6.82423 5.32349 9.14033 5.32349 12.0236C5.32349 14.9069 7.63959 17.2231 10.5229 17.2231C13.7843 17.2231 16.2186 14.2688 15.6514 11.1019L16.7622 10.1329C18.0148 14.2688 14.9188 18.5229 10.5229 18.5229C6.93058 18.5229 4 15.5923 4 12C4 8.40769 6.93058 5.47711 10.5229 5.47711V5.50075ZM9.34121 9.94388L11.1137 12.1891L18.9365 5.47711L20 6.7297L10.8774 14.5524L8.04136 10.9838L9.31758 9.96751L9.34121 9.94388Z" />
</svg>
