
<svg width="24" height="24" viewBox="0 0 24 24" xmlns="http://www.w3.org/2000/svg">
<path d="M12 4C9.87855 4 7.84315 4.84307 6.34299 6.34299C4.84299 7.84299 4 9.87835 4 12C4 14.1216 4.84307 16.1568 6.34299 17.657C7.84299 19.157 9.87835 20 12 20C14.1216 20 16.1568 19.1569 17.657 17.657C19.157 16.157 20 14.1216 20 12C19.9977 9.87914 19.1546 7.84532 17.6546 6.34535C16.1546 4.84535 14.1209 4.00236 12 4ZM15.6185 10.1538L11.6062 14.6669C11.4977 14.79 11.3439 14.8639 11.1792 14.8716C11.0261 14.8739 10.8785 14.8146 10.7692 14.7077L8.4223 12.6069C8.18692 12.3654 8.18692 11.9792 8.4223 11.7377C8.66308 11.4977 9.0523 11.4977 9.29231 11.7377L11.1385 13.3785L14.7323 9.33306C14.9608 9.08384 15.3469 9.06153 15.6023 9.28383C15.8469 9.51998 15.8538 9.90923 15.6185 10.1538Z" />
</svg>
