<svg width="24" height="24" viewBox="0 0 24 24" xmlns="http://www.w3.org/2000/svg">
<path d="M12 4C16.412 4 20 7.588 20 12C20 16.412 16.412 20 12 20C7.588 20 4 16.412 4 12C4 7.588 7.588 4 12 4ZM12 5.28418C8.298 5.28418 5.28418 8.296 5.28418 12C5.28418 15.704 8.298 18.7158 12 18.7158C15.702 18.7158 18.7158 15.704 18.7158 12C18.7158 8.296 15.702 5.28418 12 5.28418ZM15.1377 9.15234C15.3877 8.90034 15.7939 8.90034 16.0459 9.15234C16.2957 9.4023 16.2957 9.8096 16.0459 10.0596L11.2559 14.8477C11.1299 14.9737 10.9658 15.0361 10.8018 15.0361C10.6378 15.0361 10.4736 14.9736 10.3477 14.8477L7.9541 12.4541C7.7041 12.2041 7.7041 11.7959 7.9541 11.5459C8.20411 11.296 8.61234 11.2959 8.8623 11.5459L10.8018 13.4863L15.1377 9.15234Z" />
</svg>
