<svg width="24" height="24" viewBox="0 0 24 24" xmlns="http://www.w3.org/2000/svg">
<path d="M12.8457 1.82819C13.2547 1.20619 14.2139 1.53138 14.1709 2.27838L13.7373 9.7276L18.209 9.31744C18.781 9.26444 19.1687 9.86727 18.9267 10.3663L18.8769 10.4532L11.1543 22.1729C10.7453 22.7929 9.78607 22.4687 9.82907 21.7227L10.2617 14.2706L5.79099 14.6827C5.21899 14.7347 4.83121 14.1319 5.07321 13.6339L5.12302 13.5469L12.8457 1.82819ZM7.16794 13.085L10.9687 12.7354C11.0652 12.7271 11.1627 12.7379 11.2549 12.7676C11.347 12.7974 11.4324 12.8451 11.5058 12.9083C11.5791 12.9714 11.6395 13.0483 11.6826 13.1348C11.7258 13.2215 11.7506 13.3165 11.7568 13.4131V13.5079L11.4326 19.0743L13.708 12.7598C13.8958 12.2385 13.5091 11.6887 12.955 11.6885H12.0302C11.5164 11.6883 11.1361 11.2099 11.2509 10.709L12.5615 4.99127L12.5683 4.88971L7.16794 13.085Z" fill="black"/>
</svg>
