<svg width="24" height="24" viewBox="0 0 24 24" xmlns="http://www.w3.org/2000/svg">
<path d="M12 4C7.58737 4 4 7.58737 4 12C4 16.4126 7.58737 20 12 20C16.4126 20 20 16.4126 20 12C20 7.58737 16.4126 4 12 4ZM15.1495 14.2063C14.9979 14.4253 14.7621 14.5432 14.5095 14.5432C14.3579 14.5432 14.1895 14.4926 14.0547 14.4084L11.5453 12.64C11.3432 12.4884 11.2084 12.2526 11.2084 12V7.77263C11.2084 7.33474 11.5621 6.98105 12 6.98105C12.4379 6.98105 12.7916 7.33474 12.7916 7.77263V11.5958L14.9642 13.1284C15.3179 13.3642 15.4021 13.8526 15.1495 14.2063Z" />
</svg>
