<svg width="24" height="24" viewBox="0 0 24 24" xmlns="http://www.w3.org/2000/svg">
<path fill-rule="evenodd" clip-rule="evenodd" d="M12 20.0007C7.58133 20.0007 4 16.4187 4 12C4 7.58132 7.58133 3.9993 12 3.9993C16.4187 3.9993 20 7.58132 20 12C20 16.4187 16.4175 20.0007 12 20.0007ZM11.2971 7.30765V12C11.2971 12.2601 11.4376 12.487 11.6482 12.6085L14.6801 14.3608C15.0176 14.5557 15.4482 14.4409 15.6438 14.104C15.8374 13.7678 15.724 13.3366 15.3864 13.1416L12.7036 11.5924V7.30748C12.7036 6.91899 12.3885 6.60385 12.0007 6.60385C11.6129 6.60385 11.2977 6.91899 11.2977 7.30748L11.2971 7.30765ZM16.6591 7.34093C14.0857 4.76752 9.91428 4.76752 7.34156 7.34093C4.76815 9.91365 4.76815 14.0858 7.34156 16.6592C9.91428 19.2326 14.0864 19.2326 16.6591 16.6592C19.2319 14.0858 19.2319 9.91435 16.6591 7.34093Z" />
</svg>
