<svg width="600" height="600" viewBox="0 0 600 600" fill="none" xmlns="http://www.w3.org/2000/svg">
<path fill-rule="evenodd" clip-rule="evenodd" d="M101.997 169.66C98.7112 171.538 98.7112 176.276 101.997 178.154L295.146 288.525C298.154 290.243 301.846 290.243 304.854 288.525L498.003 178.154C501.289 176.276 501.289 171.538 498.003 169.66L304.854 59.2889C301.846 57.5704 298.154 57.5704 295.146 59.2889L101.997 169.66ZM517.679 207.224C520.939 205.357 525 207.711 525 211.469V422.577C525 426.088 523.119 429.33 520.071 431.071L326.883 541.464C323.623 543.327 319.565 540.973 319.565 537.217V326.318C319.565 322.81 321.443 319.57 324.487 317.828L517.679 207.224ZM75 211.683C75 207.927 79.0573 205.573 82.318 207.436L275.506 317.829C278.554 319.571 280.435 322.813 280.435 326.323V387.97C280.435 392.995 275.146 396.263 270.652 394.015C266.158 391.769 260.87 395.037 260.87 400.062V441.774C260.87 445.479 262.963 448.866 266.277 450.524L275.027 454.899C278.341 456.556 280.435 459.943 280.435 463.649V537.217C280.435 540.973 276.377 543.327 273.117 541.465L79.929 431.071C76.881 429.33 75 426.088 75 422.577V211.683ZM211.957 335.85C211.957 332.478 210.219 329.342 207.359 327.555L141.179 286.193C137.922 284.157 133.696 286.499 133.696 290.341V325.006C133.696 328.38 135.433 331.514 138.293 333.302L204.473 374.665C207.73 376.7 211.957 374.358 211.957 370.517V335.85ZM133.696 378.384C133.696 374.542 137.922 372.2 141.179 374.237L207.359 415.598C210.219 417.386 211.957 420.521 211.957 423.894V458.56C211.957 462.401 207.73 464.744 204.473 462.708L138.293 421.345C135.433 419.558 133.696 416.423 133.696 413.05V378.384Z" />
</svg>