<svg width="50" height="50" viewBox="0 0 50 50" fill="none" xmlns="http://www.w3.org/2000/svg">
<path fill-rule="evenodd" clip-rule="evenodd" d="M42.7253 14.2335L25 24.467L7.27475 14.2335L25 4L42.7253 14.2335ZM23.2944 33.8153V27.8637C23.2944 27.2539 22.9695 26.6911 22.4416 26.3866L5.38574 16.5395V36.1545L22.6548 46.1245C22.9388 46.2882 23.2944 46.0836 23.2944 45.7552V40.1635C23.2944 39.859 23.1315 39.5776 22.868 39.425L21.1624 38.44C20.8989 38.2873 20.736 38.0059 20.736 37.7015V33.446C20.736 33.2823 20.9134 33.1791 21.0558 33.261L22.6548 34.1846C22.9388 34.3483 23.2944 34.1436 23.2944 33.8153ZM17.005 38.5978L9.6497 34.3509V30.9397L16.8984 35.1243C17.1619 35.277 17.3248 35.5584 17.3248 35.8629V38.4127C17.3248 38.5764 17.1474 38.6796 17.005 38.5978ZM17.005 31.7754L9.6497 27.5285V24.1174L16.8984 28.302C17.1619 28.4547 17.3248 28.7361 17.3248 29.0405V31.5904C17.3248 31.7541 17.1474 31.8573 17.005 31.7754ZM26.7055 26.8931L44.6141 16.5538V36.168L26.7055 46.5073V26.8931Z" />
</svg>