<svg width="24" height="24" viewBox="0 0 24 24" xmlns="http://www.w3.org/2000/svg">
<path fill-rule="evenodd" clip-rule="evenodd" d="M15.25 4.74998L14 2L12.75 4.74998L10 6L12.75 7.25003L14 10L15.25 7.25003L18 6L15.25 4.74998ZM2.30931 18H4.45136L5.1527 15.8441H8.56636L9.26634 18H11.4084L8.14915 8.54546H5.57316L2.30931 18ZM8.05973 14.2837L6.89809 10.706H6.82423L5.66032 14.2837H8.05973ZM13 18V11H14.9989V18H13ZM19 9L19.9375 11.0625L22 12L19.9375 12.9375L19 15L18.0625 12.9375L16 12L18.0625 11.0625L19 9Z"/>
</svg>
