<svg
	width="18"
	height="18"
	viewBox="0 0 18 18"
	xmlns="http://www.w3.org/2000/svg"
	className="align-content-flex-end"
>
	<path d="M11.75 8C11.75 7.72386 11.9739 7.5 12.25 7.5H14.75C15.0262 7.5 15.25 7.72386 15.25 8V9.5C15.25 9.77614 15.0262 10 14.75 10H12.25C11.9739 10 11.75 9.77614 11.75 9.5V8Z" />
	<path d="M7.25001 8C7.25001 7.72386 7.47387 7.5 7.75001 7.5H10.25C10.5262 7.5 10.75 7.72386 10.75 8V9.5C10.75 9.77614 10.5262 10 10.25 10H7.75001C7.47387 10 7.25001 9.77614 7.25001 9.5V8Z" />
	<path d="M2.75001 8C2.75001 7.72386 2.97387 7.5 3.25001 7.5H5.75001C6.02615 7.5 6.25001 7.72386 6.25001 8V9.5C6.25001 9.77614 6.02615 10 5.75001 10H3.25001C2.97387 10 2.75001 9.77614 2.75001 9.5V8Z" />
	<path d="M2.75 11.5C2.75 11.2239 2.97386 11 3.25 11H5.75C6.02614 11 6.25 11.2239 6.25 11.5V13C6.25 13.2761 6.02614 13.5 5.75 13.5H3.25C2.97386 13.5 2.75 13.2761 2.75 13V11.5Z" />
	<g opacity="0.4">
		<path
			fillRule="evenodd"
			clipRule="evenodd"
			d="M15.5 15.3C15.5 15.6866 15.1561 16 14.7318 16L3.26818 16C2.84393 16 2.5 15.6866 2.5 15.3C2.5 14.9134 2.84393 14.6 3.26818 14.6L14.7318 14.6C15.1561 14.6 15.5 14.9134 15.5 15.3Z"
		/>
		<path
			fillRule="evenodd"
			clipRule="evenodd"
			d="M15.5 2.7C15.5 3.0866 15.1561 3.4 14.7318 3.4L3.26818 3.4C2.84393 3.4 2.5 3.0866 2.5 2.7C2.5 2.3134 2.84393 2 3.26818 2L14.7318 2C15.1561 2 15.5 2.3134 15.5 2.7Z"
		/>
	</g>
</svg>