<svg
	width="19"
	height="18"
	viewBox="0 0 19 18"
	xmlns="http://www.w3.org/2000/svg"
>
	<g opacity="0.4">
		<path
			fillRule="evenodd"
			clipRule="evenodd"
			d="M16 15.3C16 15.6866 15.6561 16 15.2318 16L3.76818 16C3.34393 16 3 15.6866 3 15.3C3 14.9134 3.34393 14.6 3.76818 14.6L15.2318 14.6C15.6561 14.6 16 14.9134 16 15.3Z"
		/>
		<path
			fillRule="evenodd"
			clipRule="evenodd"
			d="M16 2.7C16 3.0866 15.6561 3.4 15.2318 3.4L3.76818 3.4C3.34393 3.4 3 3.0866 3 2.7C3 2.3134 3.34393 2 3.76818 2L15.2318 2C15.6561 2 16 2.3134 16 2.7Z"
		/>
	</g>
	<path d="M12.25 5.8C12.25 5.52386 12.4739 5.3 12.75 5.3H15.25C15.5261 5.3 15.75 5.52386 15.75 5.8V7.3C15.75 7.57615 15.5261 7.8 15.25 7.8H12.75C12.4739 7.8 12.25 7.57615 12.25 7.3V5.8Z" />
	<path d="M7.75 5.8C7.75 5.52386 7.97386 5.3 8.25 5.3H10.75C11.0261 5.3 11.25 5.52386 11.25 5.8V7.3C11.25 7.57615 11.0261 7.8 10.75 7.8H8.25C7.97386 7.8 7.75 7.57615 7.75 7.3V5.8Z" />
	<path d="M3.25 5.8C3.25 5.52386 3.47386 5.3 3.75 5.3H6.25C6.52614 5.3 6.75 5.52386 6.75 5.8V7.3C6.75 7.57615 6.52614 7.8 6.25 7.8H3.75C3.47386 7.8 3.25 7.57615 3.25 7.3V5.8Z" />
	<path d="M3.25 10.7C3.25 10.4239 3.47386 10.2 3.75 10.2H6.25C6.52614 10.2 6.75 10.4239 6.75 10.7V12.2C6.75 12.4761 6.52614 12.7 6.25 12.7H3.75C3.47386 12.7 3.25 12.4761 3.25 12.2V10.7Z" />
</svg>