<svg
	width="24"
	height="24"
	viewBox="0 0 24 24"
	xmlns="http://www.w3.org/2000/svg"
>
	<path
		fillRule="evenodd"
		clipRule="evenodd"
		d="M22.3819 7.89422C22.4927 7.84908 22.6064 7.79549 22.723 7.73343L24 7.0141L23.3703 5.99859L22.0933 6.72638C21.9883 6.78843 21.8892 6.85331 21.7959 6.92102C21.7026 6.98308 21.6181 7.0536 21.5423 7.13258C21.5773 7.03103 21.6006 6.92384 21.6122 6.811C21.6297 6.69817 21.6385 6.58251 21.6385 6.46403V5H20.3615V6.48096C20.3615 6.71227 20.3965 6.92948 20.4665 7.13258C20.3265 6.9859 20.1399 6.85049 19.9067 6.72638L18.6297 5.98166L18 6.99718L19.277 7.73343C19.3878 7.79549 19.4985 7.8519 19.6093 7.90268C19.726 7.94781 19.8396 7.97884 19.9504 7.99577C19.7289 8.04654 19.5044 8.13681 19.277 8.26657L18 8.9859L18.6297 9.99295L19.9067 9.27362C20.0117 9.21157 20.1108 9.14951 20.2041 9.08745C20.2974 9.01975 20.3819 8.9464 20.4577 8.86742C20.4227 8.96897 20.3965 9.07616 20.379 9.189C20.3673 9.30183 20.3615 9.41749 20.3615 9.53597V11H21.6385V9.51904C21.6385 9.28773 21.6035 9.07052 21.5335 8.86742C21.6735 9.0141 21.8601 9.14951 22.0933 9.27362L23.3703 10.0099L24 9.00282L22.723 8.26657C22.5015 8.13117 22.2741 8.0409 22.0408 7.99577C22.1574 7.9732 22.2711 7.93935 22.3819 7.89422ZM9.2347 17.561V16.553H8.1547V11H7.0027L4.9597 12.7145L5.4007 13.2995C5.4217 13.3295 5.4547 13.3595 5.4997 13.3895C5.5447 13.4165 5.5957 13.436 5.6527 13.448C5.7097 13.457 5.7697 13.457 5.8327 13.448C5.8987 13.436 5.9647 13.4045 6.0307 13.3535L6.7777 12.7325C6.7717 12.8195 6.7672 12.9065 6.7642 12.9935C6.7612 13.0775 6.7597 13.1615 6.7597 13.2455V16.553H5.4997V17.561H9.2347ZM2.0385 15.734C2.2185 15.698 2.448 15.674 2.727 15.662V16.31C2.589 16.451 2.4525 16.553 2.3175 16.616C2.1825 16.679 2.025 16.7105 1.845 16.7105C1.677 16.7105 1.5495 16.679 1.4625 16.616C1.3755 16.55 1.332 16.4375 1.332 16.2785C1.332 16.1975 1.3515 16.1225 1.3905 16.0535C1.4325 15.9845 1.506 15.923 1.611 15.869C1.716 15.815 1.8585 15.77 2.0385 15.734ZM1.152 12.989C0.81 13.109 0.498 13.2935 0.216 13.5425L0.468 13.979C0.51 14.045 0.564 14.102 0.63 14.15C0.696 14.198 0.777 14.222 0.873 14.222C0.981 14.222 1.074 14.204 1.152 14.168C1.23 14.132 1.3095 14.0915 1.3905 14.0465C1.4745 14.0015 1.569 13.961 1.674 13.925C1.779 13.889 1.914 13.871 2.079 13.871C2.286 13.871 2.445 13.9325 2.556 14.0555C2.67 14.1755 2.727 14.372 2.727 14.645V14.843C2.193 14.855 1.7505 14.909 1.3995 15.005C1.0485 15.101 0.7695 15.221 0.5625 15.365C0.3555 15.506 0.21 15.6635 0.126 15.8375C0.042 16.0085 0 16.178 0 16.346C0 16.556 0.033 16.742 0.099 16.904C0.165 17.063 0.258 17.1965 0.378 17.3045C0.501 17.4125 0.6495 17.495 0.8235 17.552C0.9975 17.606 1.191 17.633 1.404 17.633C1.563 17.633 1.707 17.6195 1.836 17.5925C1.968 17.5685 2.091 17.531 2.205 17.48C2.322 17.426 2.4345 17.3615 2.5425 17.2865C2.6505 17.2115 2.763 17.1245 2.88 17.0255L2.979 17.282C3.024 17.396 3.0795 17.471 3.1455 17.507C3.2145 17.543 3.315 17.561 3.447 17.561H4.086V14.645C4.086 14.378 4.044 14.132 3.96 13.907C3.876 13.682 3.7545 13.4885 3.5955 13.3265C3.4395 13.1615 3.2475 13.034 3.0195 12.944C2.7945 12.851 2.541 12.8045 2.259 12.8045C1.866 12.8045 1.497 12.866 1.152 12.989ZM14.4554 16.553V17.561H10.7204V16.553H11.9804V13.2455C11.9804 13.1615 11.9819 13.0775 11.9849 12.9935C11.9879 12.9065 11.9924 12.8195 11.9984 12.7325L11.2514 13.3535C11.1854 13.4045 11.1194 13.436 11.0534 13.448C10.9904 13.457 10.9304 13.457 10.8734 13.448C10.8164 13.436 10.7654 13.4165 10.7204 13.3895C10.6754 13.3595 10.6424 13.3295 10.6214 13.2995L10.1804 12.7145L12.2234 11H13.3754V16.553H14.4554ZM17.3586 18.7715L19.8516 12.8945H18.7266C18.6456 12.8945 18.5706 12.9185 18.5016 12.9665C18.4326 13.0115 18.3846 13.0685 18.3576 13.1375L17.6646 15.14C17.6286 15.233 17.5941 15.3275 17.5611 15.4235L17.4621 15.7115C17.4171 15.5195 17.3586 15.332 17.2866 15.149L16.5216 13.1375C16.4946 13.0715 16.4511 13.0145 16.3911 12.9665C16.3341 12.9185 16.2516 12.8945 16.1436 12.8945H14.9106L16.7736 17.1515L15.8736 19.0415H16.9176C17.0496 19.0415 17.1456 19.019 17.2056 18.974C17.2656 18.932 17.3166 18.8645 17.3586 18.7715Z"
	/>
</svg>