<svg
	width="18"
	height="18"
	viewBox="0 0 18 18"
	xmlns="http://www.w3.org/2000/svg"
>
	<path
		opacity="0.3"
		d="M10.0002 16H8.00024V9.8252C8.31339 9.93604 8.64913 10 9.00024 10C9.35136 10 9.6871 9.93604 10.0002 9.8252V16ZM18.0002 8H11.8264C11.9372 7.68694 12.0002 7.351 12.0002 7C12.0002 6.649 11.9372 6.31306 11.8264 6H18.0002V8Z"
	/>
	<path
		d="M10 15.0002H12L9 18.0002L6 15.0002H8V9.82642C8.31304 9.93718 8.64902 10.0002 9 10.0002C9.35098 10.0002 9.68696 9.93718 10 9.82642V15.0002ZM9 5.00024C10.1046 5.00024 11 5.89567 11 7.00024C10.9999 8.1047 10.1045 9.00024 9 9.00024C7.89551 9.00024 7.00013 8.1047 7 7.00024C7 5.89567 7.89543 5.00024 9 5.00024ZM2.95117 2.61646H3.00293L4.23242 0.181885H5.80371L3.67578 4.05688V6.00024H2.27832V4.05688L0.150391 0.181885H1.72168L2.95117 2.61646Z"
	/>
</svg>
