<svg
	width="18"
	height="18"
	viewBox="0 0 18 18"
	xmlns="http://www.w3.org/2000/svg"
>
	<path
		d="M1.86364 0.181885L2.92614 2.01995H2.97159L4.04545 0.181885H5.61932L3.86364 3.09098L5.67614 6.00007H4.0625L2.97159 4.14211H2.92614L1.83523 6.00007H0.232955L2.03693 3.09098L0.278409 0.181885H1.86364Z"
	/>
	<path
		opacity="0.3"
		d="M10.0002 18H8.00024V9.8252C8.31339 9.93604 8.64913 10 9.00024 10C9.35136 10 9.6871 9.93604 10.0002 9.8252V18ZM15.0002 8H11.8264C11.9372 7.68694 12.0002 7.351 12.0002 7C12.0002 6.649 11.9372 6.31306 11.8264 6H15.0002V8Z"
	/>
	<path
		d="M18 7L15 10V8H11.8252C11.936 7.68687 12 7.35109 12 7C12 6.64891 11.936 6.31313 11.8252 6H15V4L18 7ZM9 5C10.1046 5 11 5.89543 11 7C11 8.10457 10.1046 9 9 9C7.89543 9 7 8.10457 7 7C7 5.89543 7.89543 5 9 5Z"
	/>
</svg>
