<svg width="18" height="18" viewBox="0 0 18 18"  xmlns="http://www.w3.org/2000/svg">
<path fill-rule="evenodd" clip-rule="evenodd" d="M5 1.5C3.89543 1.5 3 2.39543 3 3.5V11.5C3 12.6046 3.89543 13.5 5 13.5H13C14.1046 13.5 15 12.6046 15 11.5V3.5C15 2.39543 14.1046 1.5 13 1.5H5ZM5 2.5C4.44772 2.5 4 2.94772 4 3.5V11.5C4 12.0523 4.44772 12.5 5 12.5H13C13.5523 12.5 14 12.0523 14 11.5V3.5C14 2.94772 13.5523 2.5 13 2.5H5Z" />
<path opacity="0.4" fill-rule="evenodd" clip-rule="evenodd" d="M16 11.5C17.1046 11.5 18 10.6046 18 9.5V5.5C18 4.39543 17.1046 3.5 16 3.5V5.5V9.5V11.5Z" />
<path opacity="0.4" fill-rule="evenodd" clip-rule="evenodd" d="M2 11.5C0.895431 11.5 0 10.6046 0 9.5V5.5C0 4.39543 0.895431 3.5 2 3.5V5.5V9.5V11.5Z" />
<circle cx="9" cy="15.5" r="1" />
<circle opacity="0.4" cx="12" cy="15.5" r="1" />
<circle opacity="0.4" cx="6" cy="15.5" r="1" />
<path d="M11.5 6.5L13 9.5V11.5H5.5L11.5 6.5Z" />
<circle cx="7" cy="5.5" r="1.5" />
</svg>
