<svg
	width="18"
	height="18"
	viewBox="0 0 18 18"
	xmlns="http://www.w3.org/2000/svg"
>
	<path
		fill-rule="evenodd"
		clip-rule="evenodd"
		d="M9 15.2C11.0435 15.2 12.7 13.5435 12.7 11.5C12.7 9.45655 11.0435 7.8 9 7.8C6.95655 7.8 5.3 9.45655 5.3 11.5C5.3 13.5435 6.95655 15.2 9 15.2ZM9 16.5C11.7614 16.5 14 14.2614 14 11.5C14 8.73858 11.7614 6.5 9 6.5C6.23858 6.5 4 8.73858 4 11.5C4 14.2614 6.23858 16.5 9 16.5Z"
	/>
	<path
		fill-rule="evenodd"
		clip-rule="evenodd"
		d="M12 10.2C14.0435 10.2 15.7 8.54345 15.7 6.5C15.7 4.45655 14.0435 2.8 12 2.8C9.95655 2.8 8.3 4.45655 8.3 6.5C8.3 8.54345 9.95655 10.2 12 10.2ZM12 11.5C14.7614 11.5 17 9.26142 17 6.5C17 3.73858 14.7614 1.5 12 1.5C9.23858 1.5 7 3.73858 7 6.5C7 9.26142 9.23858 11.5 12 11.5Z"
	/>
	<path
		fill-rule="evenodd"
		clip-rule="evenodd"
		d="M6 10.2C8.04345 10.2 9.7 8.54345 9.7 6.5C9.7 4.45655 8.04345 2.8 6 2.8C3.95655 2.8 2.3 4.45655 2.3 6.5C2.3 8.54345 3.95655 10.2 6 10.2ZM6 11.5C8.76142 11.5 11 9.26142 11 6.5C11 3.73858 8.76142 1.5 6 1.5C3.23858 1.5 1 3.73858 1 6.5C1 9.26142 3.23858 11.5 6 11.5Z"
	/>
</svg>