<svg width="20" height="20" viewBox="0 0 20 20" xmlns="http://www.w3.org/2000/svg">
<path d="M10 18H5V17H10V18ZM12 16H5V15H12V16Z"/>
<path opacity="0.4" d="M15 2C15.5523 2 16 2.41588 16 2.92871V13.0713C16 13.5841 15.5523 14 15 14H5C4.44772 14 4 13.5841 4 13.0713V2.92871C4 2.41588 4.44772 2 5 2H15ZM5 13.0713H15V2.92871H5V13.0713ZM12.5703 4.36523V5.01367H12.4307C11.9678 5.01367 11.4126 5.0135 11.1348 5.29102C10.9959 5.47623 10.9033 5.7081 10.9033 6.03223V9.41211C10.9033 9.73624 10.8106 10.1999 10.5791 10.5703C10.3475 11.1721 9.74522 11.6348 9.05078 11.6348C8.17115 11.6348 7.42994 10.8942 7.42969 10.0146C7.42969 9.13487 8.171 8.39355 9.05078 8.39355C9.51367 8.39356 9.93019 8.57877 10.208 8.85645V6.03223C10.208 5.5229 10.3472 5.10595 10.625 4.82812C11.088 4.36508 11.8291 4.36523 12.3848 4.36523H12.5703Z"/>
</svg>
