<svg width="24" height="24" viewBox="0 0 24 24" xmlns="http://www.w3.org/2000/svg">
<path opacity="0.3" fill-rule="evenodd" clip-rule="evenodd" d="M3 13.2V12H12V13.2H3ZM3 16.2V15H17V16.2H3ZM3 18V19.2H9V18H3Z"/>
<path opacity="0.3" fill-rule="evenodd" clip-rule="evenodd" d="M1.85 2C1.35938 2.00008 0.888882 2.19504 0.542 2.542C0.195 2.889 0 3.36 0 3.85V6.15C0 6.64065 0.19491 7.11121 0.541852 7.45815C0.888795 7.80509 1.35935 8 1.85 8H8.15C8.39295 8 8.63351 7.95215 8.85796 7.85918C9.08242 7.76621 9.28636 7.62994 9.45815 7.45815C9.62994 7.28636 9.76621 7.08242 9.85918 6.85796C9.95215 6.63351 10 6.39295 10 6.15V3.85C10 3.35935 9.80509 2.88879 9.45815 2.54185C9.11121 2.19491 8.64065 2 8.15 2H1.85ZM1.39038 3.39038C1.51228 3.26848 1.67761 3.2 1.85 3.2H8.15C8.23536 3.2 8.31988 3.21681 8.39874 3.24948C8.47761 3.28214 8.54926 3.33002 8.60962 3.39038C8.66998 3.45074 8.71786 3.52239 8.75052 3.60126C8.78319 3.68012 8.8 3.76464 8.8 3.85V6.15C8.8 6.32239 8.73152 6.48772 8.60962 6.60962C8.48772 6.73152 8.32239 6.8 8.15 6.8H1.85C1.67761 6.8 1.51228 6.73152 1.39038 6.60962C1.26848 6.48772 1.2 6.32239 1.2 6.15V3.85C1.2 3.67761 1.26848 3.51228 1.39038 3.39038ZM3 4.4V5.6H7V4.4H3Z"/>
<path d="M13 5.6V4.4H14V5.6H13Z"/>
<path fill-rule="evenodd" clip-rule="evenodd" d="M11.542 2.542C11.8889 2.19504 12.3594 2.00008 12.85 2H14.15C14.6407 2 15.1112 2.19491 15.4581 2.54185C15.8051 2.88879 16 3.35935 16 3.85V6.15C16 6.39295 15.9521 6.63351 15.8592 6.85796C15.7662 7.08242 15.6299 7.28636 15.4581 7.45815C15.2864 7.62994 15.0824 7.76621 14.858 7.85918C14.6335 7.95215 14.3929 8 14.15 8H12.85C12.3593 8 11.8888 7.80509 11.5419 7.45815C11.1949 7.11121 11 6.64065 11 6.15V3.85C11 3.36 11.195 2.889 11.542 2.542ZM12.85 3.2C12.6776 3.2 12.5123 3.26848 12.3904 3.39038C12.2685 3.51228 12.2 3.67761 12.2 3.85V6.15C12.2 6.32239 12.2685 6.48772 12.3904 6.60962C12.5123 6.73152 12.6776 6.8 12.85 6.8H14.15C14.3224 6.8 14.4877 6.73152 14.6096 6.60962C14.7315 6.48772 14.8 6.32239 14.8 6.15V3.85C14.8 3.76464 14.7832 3.68012 14.7505 3.60126C14.7179 3.52239 14.67 3.45074 14.6096 3.39038C14.5493 3.33002 14.4776 3.28214 14.3987 3.24948C14.3199 3.21681 14.2354 3.2 14.15 3.2H12.85Z"/>
<path opacity="0.3" fill-rule="evenodd" clip-rule="evenodd" d="M0.542 9.542C0.888882 9.19504 1.35938 9.00008 1.85 9H22.15C22.6407 9 23.1112 9.19491 23.4581 9.54185C23.8051 9.88879 24 10.3593 24 10.85V20.15C24 20.3929 23.9521 20.6335 23.8592 20.858C23.7662 21.0824 23.6299 21.2864 23.4581 21.4581C23.2864 21.6299 23.0824 21.7662 22.858 21.8592C22.6335 21.9521 22.3929 22 22.15 22H1.85C1.35935 22 0.888795 21.8051 0.541852 21.4581C0.19491 21.1112 0 20.6407 0 20.15V10.85C0 10.36 0.195 9.889 0.542 9.542ZM1.85 10.2C1.67761 10.2 1.51228 10.2685 1.39038 10.3904C1.26848 10.5123 1.2 10.6776 1.2 10.85V20.15C1.2 20.3224 1.26848 20.4877 1.39038 20.6096C1.51228 20.7315 1.67761 20.8 1.85 20.8H22.15C22.3224 20.8 22.4877 20.7315 22.6096 20.6096C22.7315 20.4877 22.8 20.3224 22.8 20.15V10.85C22.8 10.7646 22.7832 10.6801 22.7505 10.6013C22.7179 10.5224 22.67 10.4507 22.6096 10.3904C22.5493 10.33 22.4776 10.2821 22.3987 10.2495C22.3199 10.2168 22.2354 10.2 22.15 10.2H1.85Z"/>
<path opacity="0.3" fill-rule="evenodd" clip-rule="evenodd" d="M17.542 2.542C17.8889 2.19504 18.3594 2.00008 18.85 2H22.15C22.6407 2 23.1112 2.19491 23.4581 2.54185C23.8051 2.88879 24 3.35935 24 3.85V6.15C24 6.39295 23.9521 6.63351 23.8592 6.85796C23.7662 7.08242 23.6299 7.28636 23.4581 7.45815C23.2864 7.62994 23.0824 7.76621 22.858 7.85918C22.6335 7.95215 22.3929 8 22.15 8H18.85C18.3593 8 17.8888 7.80509 17.5419 7.45815C17.1949 7.11121 17 6.64065 17 6.15V3.85C17 3.36 17.195 2.889 17.542 2.542Z"/>
</svg>
