<svg
	width="20"
	height="20"
	viewBox="0 0 20 20"
	xmlns="http://www.w3.org/2000/svg"
>
	<path d="M7.5 10.6V9.4H12.5V10.6H7.5Z" />
	<path
		fill-rule="evenodd"
		clip-rule="evenodd"
		d="M3.54185 6.54185C3.88879 6.19491 4.35935 6 4.85 6H15.15C15.6406 6 16.1112 6.19491 16.4581 6.54185C16.8051 6.88879 17 7.35935 17 7.85V12.15C17 12.6407 16.8051 13.1112 16.4581 13.4581C16.1112 13.8051 15.6406 14 15.15 14H4.85C4.35935 14 3.88879 13.8051 3.54185 13.4581C3.19491 13.1112 3 12.6407 3 12.15V7.85C3 7.35935 3.19491 6.88879 3.54185 6.54185ZM4.85 7.2C4.67761 7.2 4.51228 7.26848 4.39038 7.39038C4.26848 7.51228 4.2 7.67761 4.2 7.85V12.15C4.2 12.3224 4.26848 12.4877 4.39038 12.6096C4.51228 12.7315 4.67761 12.8 4.85 12.8H15.15C15.3224 12.8 15.4877 12.7315 15.6096 12.6096C15.7315 12.4877 15.8 12.3224 15.8 12.15V7.85C15.8 7.67761 15.7315 7.51228 15.6096 7.39038C15.4877 7.26848 15.3224 7.2 15.15 7.2H4.85Z"
	/>
</svg>