<svg width="20" height="20" viewBox="0 0 20 20" fill="none" xmlns="http://www.w3.org/2000/svg">
<path d="M10 18H5V17H10V18ZM12 16H5V15H12V16Z"/>
<path opacity="0.4" d="M15 2C15.5523 2 16 2.41588 16 2.92871V13.0713C16 13.5841 15.5523 14 15 14H5C4.44772 14 4 13.5841 4 13.0713V2.92871C4 2.41588 4.44772 2 5 2H15ZM5 13.0713H15V2.92871H5V13.0713ZM7.86035 5.56543C7.86052 5.16806 8.30136 4.9298 8.63379 5.14746L12.3477 7.58203C12.6485 7.77949 12.6485 8.22051 12.3477 8.41797L8.63379 10.8525C8.30136 11.0702 7.86052 10.8319 7.86035 10.4346V5.56543Z"/>
</svg>
