<svg
	width="20"
	height="20"
	viewBox="0 0 20 20"
	xmlns="http://www.w3.org/2000/svg"
>
	<g opacity="0.4">
		<path d="M4.0625 2.4V1.6H8.8125V2.4H4.0625Z" />
		<path
			fill-rule="evenodd"
			clip-rule="evenodd"
			d="M2.37252 0.361235C2.61105 0.12994 2.93455 0 3.27188 0H16.7281C17.0654 0 17.389 0.12994 17.6275 0.361235C17.866 0.59253 18 0.906233 18 1.23333V2.76667C18 3.09377 17.866 3.40747 17.6275 3.63876C17.389 3.87006 17.0654 4 16.7281 4H3.27188C2.93455 4 2.61105 3.87006 2.37252 3.63876C2.134 3.40747 2 3.09377 2 2.76667V1.23333C2 0.906233 2.134 0.59253 2.37252 0.361235ZM3.27188 0.8C3.15336 0.8 3.03969 0.845654 2.95589 0.92692C2.87208 1.00819 2.825 1.11841 2.825 1.23333V2.76667C2.825 2.88159 2.87208 2.99181 2.95589 3.07308C3.03969 3.15435 3.15336 3.2 3.27188 3.2H16.7281C16.8466 3.2 16.9603 3.15435 17.0441 3.07308C17.1279 2.99181 17.175 2.88159 17.175 2.76667V1.23333C17.175 1.11841 17.1279 1.00819 17.0441 0.92692C16.9603 0.845654 16.8466 0.8 16.7281 0.8H3.27188Z"
		/>
	</g>
	<g opacity="0.4">
		<path d="M4.0625 9.4V8.6H8.8125V9.4H4.0625Z" />
		<path
			fill-rule="evenodd"
			clip-rule="evenodd"
			d="M2.37252 7.36123C2.61105 7.12994 2.93455 7 3.27188 7H16.7281C17.0654 7 17.389 7.12994 17.6275 7.36123C17.866 7.59253 18 7.90623 18 8.23333V9.76667C18 10.0938 17.866 10.4075 17.6275 10.6388C17.389 10.8701 17.0654 11 16.7281 11H3.27188C2.93455 11 2.61105 10.8701 2.37252 10.6388C2.134 10.4075 2 10.0938 2 9.76667V8.23333C2 7.90623 2.134 7.59253 2.37252 7.36123ZM3.27188 7.8C3.15336 7.8 3.03969 7.84565 2.95589 7.92692C2.87208 8.00819 2.825 8.11841 2.825 8.23333V9.76667C2.825 9.88159 2.87208 9.99181 2.95589 10.0731C3.03969 10.1543 3.15336 10.2 3.27188 10.2H16.7281C16.8466 10.2 16.9603 10.1543 17.0441 10.0731C17.1279 9.99181 17.175 9.88159 17.175 9.76667V8.23333C17.175 8.11841 17.1279 8.00819 17.0441 7.92692C16.9603 7.84565 16.8466 7.8 16.7281 7.8H3.27188Z"
		/>
	</g>
	<path
		opacity="0.4"
		fill-rule="evenodd"
		clip-rule="evenodd"
		d="M0.460575 -6.53943C0.755476 -6.83433 1.15545 -7 1.5725 -7H18.4275C18.8446 -7 19.2445 -6.83433 19.5394 -6.53943C19.8343 -6.24452 20 -5.84455 20 -5.4275V18.4275C20 18.8446 19.8343 19.2445 19.5394 19.5394C19.2445 19.8343 18.8446 20 18.4275 20H1.5725C1.15545 20 0.755476 19.8343 0.460575 19.5394C0.165674 19.2445 0 18.8446 0 18.4275V-5.4275C0 -5.84455 0.165674 -6.24452 0.460575 -6.53943ZM1.5725 -5.98C1.42597 -5.98 1.28544 -5.92179 1.18182 -5.81818C1.07821 -5.71456 1.02 -5.57403 1.02 -5.4275V18.4275C1.02 18.574 1.07821 18.7146 1.18182 18.8182C1.28544 18.9218 1.42597 18.98 1.5725 18.98H18.4275C18.574 18.98 18.7146 18.9218 18.8182 18.8182C18.9218 18.7146 18.98 18.574 18.98 18.4275V-5.4275C18.98 -5.57403 18.9218 -5.71456 18.8182 -5.81818C18.7146 -5.92179 18.574 -5.98 18.4275 -5.98H1.5725Z"
	/>
	<rect opacity="0.4" x="2" y="5" width="6" height="1" />
	<rect x="2" y="13" width="2" height="1" />
	<rect x="5" y="13" width="9" height="1" />
	<path
		opacity="0.4"
		d="M2 17C2 16.4477 2.44772 16 3 16H7C7.55228 16 8 16.4477 8 17C8 17.5523 7.55228 18 7 18H3C2.44772 18 2 17.5523 2 17Z"
	/>
</svg>