<svg
	width="20"
	height="20"
	viewBox="0 0 20 20"
	xmlns="http://www.w3.org/2000/svg"
>
	<path
		opacity="0.3"
		fill-rule="evenodd"
		clip-rule="evenodd"
		d="M3 3C2.44772 3 2 3.44772 2 4V8C2 8.55228 2.44772 9 3 9H17C17.5523 9 18 8.55228 18 8V4C18 3.44772 17.5523 3 17 3H3ZM5 7C5.55228 7 6 6.55228 6 6C6 5.44772 5.55228 5 5 5C4.44772 5 4 5.44772 4 6C4 6.55228 4.44772 7 5 7Z"
	/>
	<path
		opacity="0.3"
		fill-rule="evenodd"
		clip-rule="evenodd"
		d="M3 11C2.44772 11 2 11.4477 2 12V16C2 16.5523 2.44772 17 3 17H17C17.5523 17 18 16.5523 18 16V12C18 11.4477 17.5523 11 17 11H3ZM5 15C5.55228 15 6 14.5523 6 14C6 13.4477 5.55228 13 5 13C4.44772 13 4 13.4477 4 14C4 14.5523 4.44772 15 5 15Z"
	/>
	<rect x="7" y="13" width="9" height="2" rx="1" />
	<rect x="7" y="5" width="9" height="2" rx="1" />
</svg>