<svg width="24" height="24" viewBox="0 0 24 24" xmlns="http://www.w3.org/2000/svg">
<path d="M8.37598 16.3447H6.56543V11.3877C6.56543 11.251 6.56738 11.083 6.57129 10.8838C6.5752 10.6807 6.58105 10.4736 6.58887 10.2627C6.59668 10.0479 6.60449 9.85449 6.6123 9.68262C6.56934 9.7334 6.48145 9.82129 6.34863 9.94629C6.21973 10.0674 6.09863 10.1768 5.98535 10.2744L5.00098 11.0654L4.12793 9.97559L6.8877 7.77832H8.37598V16.3447ZM16.9189 7.65527C17.4814 7.65527 17.9639 7.75684 18.3662 7.95996C18.7725 8.16309 19.085 8.44043 19.3037 8.79199C19.5225 9.13965 19.6318 9.53418 19.6318 9.97559C19.6318 10.4482 19.5381 10.8799 19.3506 11.2705C19.1631 11.6611 18.8896 12.0479 18.5303 12.4307C18.1748 12.8135 17.7451 13.2373 17.2412 13.7021L16.1396 14.7393V14.8213H19.8721V16.3447H13.8838V15.085L16.0342 12.9111C16.4678 12.4658 16.8154 12.0947 17.0771 11.7979C17.3428 11.4971 17.5342 11.2236 17.6514 10.9775C17.7725 10.7314 17.833 10.4678 17.833 10.1865C17.833 9.84668 17.7373 9.59277 17.5459 9.4248C17.3584 9.25293 17.1064 9.16699 16.79 9.16699C16.458 9.16699 16.1357 9.24316 15.8232 9.39551C15.5107 9.54785 15.1846 9.76465 14.8447 10.0459L13.8604 8.87988C14.1064 8.66895 14.3662 8.46973 14.6396 8.28223C14.917 8.09473 15.2373 7.94434 15.6006 7.83105C15.9678 7.71387 16.4072 7.65527 16.9189 7.65527Z" />
</svg>
