<svg width="24" height="24" viewBox="0 0 24 24" xmlns="http://www.w3.org/2000/svg">
<path opacity="0.3" d="M3 12C3 9.61305 3.94821 7.32387 5.63604 5.63604C7.32387 3.94821 9.61305 3 12 3C14.3869 3 16.6761 3.94821 18.364 5.63604C20.0518 7.32387 21 9.61305 21 12C21 14.3869 20.0518 16.6761 18.364 18.364C16.6761 20.0518 14.3869 21 12 21C9.61305 21 7.32387 20.0518 5.63604 18.364C3.94821 16.6761 3 14.3869 3 12ZM12 4.54286C11.0207 4.54286 10.051 4.73574 9.14628 5.1105C8.24153 5.48525 7.41946 6.03454 6.727 6.727C6.03454 7.41946 5.48525 8.24153 5.1105 9.14628C4.73574 10.051 4.54286 11.0207 4.54286 12C4.54286 12.9793 4.73574 13.949 5.1105 14.8537C5.48525 15.7585 6.03454 16.5805 6.727 17.273C7.41946 17.9655 8.24153 18.5147 9.14628 18.8895C10.051 19.2643 11.0207 19.4571 12 19.4571C13.9778 19.4571 15.8745 18.6715 17.273 17.273C18.6715 15.8745 19.4571 13.9778 19.4571 12C19.4571 10.0222 18.6715 8.12549 17.273 6.727C15.8745 5.32852 13.9778 4.54286 12 4.54286Z"/>
<path fill-rule="evenodd" clip-rule="evenodd" d="M14.9119 8.09455L8.09179 14.9147L8.08567 14.921C7.96581 15.0496 7.90055 15.2198 7.90365 15.3956C7.90675 15.5714 7.97797 15.7391 8.1023 15.8634C8.22662 15.9877 8.39435 16.059 8.57015 16.0621C8.74595 16.0652 8.91619 16 9.04482 15.8802L15.8712 9.05382C15.9362 8.99237 15.9884 8.91865 16.0248 8.83691C16.0619 8.75367 16.0818 8.66382 16.0834 8.57271C16.085 8.4816 16.0683 8.3911 16.0342 8.3066C16 8.22211 15.9492 8.14535 15.8848 8.08092C15.8204 8.01648 15.7436 7.96568 15.6591 7.93155C15.5746 7.89742 15.4841 7.88066 15.393 7.88227C15.3019 7.88388 15.212 7.90382 15.1288 7.94091C15.0471 7.97733 14.9733 8.02955 14.9119 8.09455ZM9.28497 10.1436C9.17111 10.0297 9.10714 9.87531 9.10714 9.71429C9.10714 9.55326 9.17111 9.39883 9.28497 9.28497C9.39883 9.17111 9.55326 9.10714 9.71429 9.10714C9.87531 9.10714 10.0297 9.17111 10.1436 9.28497C10.2575 9.39883 10.3214 9.55326 10.3214 9.71429C10.3214 9.87531 10.2575 10.0297 10.1436 10.1436C10.0297 10.2575 9.87531 10.3214 9.71429 10.3214C9.55326 10.3214 9.39883 10.2575 9.28497 10.1436ZM9.71429 7.75C9.19332 7.75 8.6937 7.95695 8.32533 8.32533C7.95695 8.6937 7.75 9.19332 7.75 9.71429C7.75 10.2352 7.95695 10.7349 8.32533 11.1032C8.6937 11.4716 9.19332 11.6786 9.71429 11.6786C10.2352 11.6786 10.7349 11.4716 11.1032 11.1032C11.4716 10.7349 11.6786 10.2352 11.6786 9.71429C11.6786 9.19332 11.4716 8.6937 11.1032 8.32533C10.7349 7.95695 10.2352 7.75 9.71429 7.75ZM13.8564 14.715C13.7425 14.6012 13.6786 14.4467 13.6786 14.2857C13.6786 14.1247 13.7425 13.9703 13.8564 13.8564C13.9703 13.7425 14.1247 13.6786 14.2857 13.6786C14.4467 13.6786 14.6012 13.7425 14.715 13.8564C14.8289 13.9703 14.8929 14.1247 14.8929 14.2857C14.8929 14.4467 14.8289 14.6012 14.715 14.715C14.6012 14.8289 14.4467 14.8929 14.2857 14.8929C14.1247 14.8929 13.9703 14.8289 13.8564 14.715ZM14.2857 12.3214C13.7648 12.3214 13.2651 12.5284 12.8968 12.8968C12.5284 13.2651 12.3214 13.7648 12.3214 14.2857C12.3214 14.8067 12.5284 15.3063 12.8968 15.6747C13.2651 16.043 13.7648 16.25 14.2857 16.25C14.8067 16.25 15.3063 16.043 15.6747 15.6747C16.043 15.3063 16.25 14.8067 16.25 14.2857C16.25 13.7648 16.043 13.2651 15.6747 12.8968C15.3063 12.5284 14.8067 12.3214 14.2857 12.3214Z"/>
</svg>
