<svg
	width="20"
	height="20"
	viewBox="0 0 20 20"
	xmlns="http://www.w3.org/2000/svg"
>
	<path
		fill-rule="evenodd"
		clip-rule="evenodd"
		d="M4.64809 6C5.00603 6 5.29619 6.30877 5.29619 6.68966L5.29619 9.29364L8.14781 9.29364L8.14781 6.68966C8.14781 6.30877 8.43797 6 8.7959 6C9.15383 6 9.444 6.30877 9.444 6.68966L9.444 13.3103C9.444 13.6912 9.15383 14 8.7959 14C8.43797 14 8.14781 13.6912 8.14781 13.3103V10.673H5.29619L5.29619 13.3103C5.29619 13.6912 5.00603 14 4.64809 14C4.29016 14 4 13.6912 4 13.3103V6.68966C4 6.30877 4.29016 6 4.64809 6ZM11.3098 7.36317L13.1422 6.14133C13.2375 6.07445 13.3508 6.02805 13.4742 6.00931C13.5347 6.00008 13.5959 5.99776 13.6565 6.00214C13.7322 6.00754 13.8047 6.02325 13.8724 6.04773C14.0014 6.09417 14.118 6.17392 14.2054 6.28457C14.3069 6.41303 14.3532 6.56286 14.3483 6.71012V12.6207H15.2492C15.6639 12.6207 16 12.9295 16 13.3103C16 13.6912 15.6639 14 15.2492 14H13.5982H13.5969H11.9459C11.5312 14 11.1951 13.6912 11.1951 13.3103C11.1951 12.9295 11.5312 12.6207 11.9459 12.6207H12.8468V8.04269L12.1918 8.4794C11.8563 8.70314 11.3868 8.63465 11.1432 8.32641C10.8997 8.01817 10.9742 7.58692 11.3098 7.36317Z"
	/>
</svg>