<svg width="24" height="24" viewBox="0 0 24 24" xmlns="http://www.w3.org/2000/svg">
<path d="M15.1997 12.9326C15.5603 12.9326 15.8695 12.9977 16.1274 13.1279C16.3877 13.2581 16.5878 13.4359 16.728 13.6611C16.8682 13.884 16.9389 14.137 16.939 14.4199C16.939 14.7229 16.8785 14.9996 16.7583 15.25C16.6381 15.5004 16.4633 15.7487 16.2329 15.9941C16.0051 16.2394 15.7296 16.5108 15.4067 16.8086L14.7007 17.4736V17.5264H17.0933V18.5029H13.2544V17.6953L14.6323 16.3018C14.9103 16.0163 15.1335 15.7782 15.3013 15.5879C15.4714 15.3952 15.5943 15.2202 15.6694 15.0625C15.747 14.9049 15.7856 14.7358 15.7856 14.5557C15.7856 14.3381 15.7245 14.1751 15.6021 14.0674C15.4819 13.9572 15.3195 13.9014 15.1167 13.9014C14.9041 13.9014 14.6977 13.9503 14.4976 14.0479C14.2972 14.1455 14.0875 14.2846 13.8696 14.4648L13.2388 13.7178C13.3965 13.5826 13.5635 13.4551 13.7388 13.335C13.9166 13.2148 14.1221 13.1175 14.355 13.0449C14.5903 12.9699 14.8719 12.9326 15.1997 12.9326ZM10.0239 5.49707C10.9028 5.49707 11.5767 5.68848 12.0454 6.07129C12.5142 6.4541 12.7485 7.03613 12.7485 7.81738V12.1826H11.5005L11.1548 11.292H11.1079C10.9204 11.5264 10.729 11.7178 10.5337 11.8662C10.3384 12.0146 10.1138 12.124 9.85986 12.1943C9.60596 12.2646 9.29736 12.2998 8.93408 12.2998C8.54736 12.2998 8.19971 12.2256 7.89111 12.0771C7.58643 11.9287 7.34619 11.7021 7.17041 11.3975C6.99463 11.0889 6.90674 10.6982 6.90674 10.2256C6.90674 9.53027 7.15088 9.01855 7.63916 8.69043C8.12744 8.3584 8.85986 8.1748 9.83643 8.13965L10.9731 8.10449V7.81738C10.9731 7.47363 10.8833 7.22168 10.7036 7.06152C10.5239 6.90137 10.2739 6.82129 9.95361 6.82129C9.63721 6.82129 9.32666 6.86621 9.02197 6.95605C8.71729 7.0459 8.4126 7.15918 8.10791 7.2959L7.51611 6.08887C7.86377 5.90527 8.25244 5.76074 8.68213 5.65527C9.11572 5.5498 9.56299 5.49707 10.0239 5.49707ZM10.2817 9.1709C9.70361 9.18652 9.30127 9.29004 9.07471 9.48145C8.85205 9.67285 8.74072 9.9248 8.74072 10.2373C8.74072 10.5107 8.8208 10.7061 8.98096 10.8232C9.14111 10.9365 9.3501 10.9932 9.60791 10.9932C9.99072 10.9932 10.313 10.8799 10.5747 10.6533C10.8403 10.4268 10.9731 10.1045 10.9731 9.68652V9.14746L10.2817 9.1709Z" />
</svg>
