<svg width="20" height="20" viewBox="0 0 20 20" xmlns="http://www.w3.org/2000/svg">
	<path fill-rule="evenodd" clip-rule="evenodd" d="M2.37252 2.36123C2.61105 2.12994 2.93455 2 3.27188 2H16.7281C17.0654 2 17.389 2.12994 17.6275 2.36123C17.866 2.59253 18 2.90623 18 3.23333V10.7667C18 11.0938 17.866 11.4075 17.6275 11.6388C17.389 11.8701 17.0654 12 16.7281 12H3.27188C2.93455 12 2.61105 11.8701 2.37252 11.6388C2.134 11.4075 2 11.0938 2 10.7667V3.23333C2 2.90623 2.134 2.59253 2.37252 2.36123ZM3.27188 2.8C3.15336 2.8 3.03969 2.84565 2.95589 2.92692C2.87208 3.00819 2.825 3.11841 2.825 3.23333V10.7667C2.825 10.8816 2.87208 10.9918 2.95589 11.0731C3.03969 11.1543 3.15336 11.2 3.27188 11.2H16.7281C16.8466 11.2 16.9603 11.1543 17.0441 11.0731C17.1279 10.9918 17.175 10.8816 17.175 10.7667V3.23333C17.175 3.11841 17.1279 3.00819 17.0441 2.92692C16.9603 2.84565 16.8466 2.8 16.7281 2.8H3.27188Z"/>
	<path opacity="0.4" fill-rule="evenodd" clip-rule="evenodd" d="M0.460575 0.460574C0.755476 0.165673 1.15545 0 1.5725 0H18.4275C18.8446 0 19.2445 0.165673 19.5394 0.460574C19.8343 0.755475 20 1.15545 20 1.5725V18.4275C20 18.8446 19.8343 19.2445 19.5394 19.5394C19.2445 19.8343 18.8446 20 18.4275 20H1.5725C1.15545 20 0.755476 19.8343 0.460575 19.5394C0.165674 19.2445 0 18.8446 0 18.4275V1.5725C0 1.15545 0.165674 0.755475 0.460575 0.460574ZM1.5725 1.02C1.42597 1.02 1.28544 1.07821 1.18182 1.18182C1.07821 1.28544 1.02 1.42597 1.02 1.5725V18.4275C1.02 18.574 1.07821 18.7146 1.18182 18.8182C1.28544 18.9218 1.42597 18.98 1.5725 18.98H18.4275C18.574 18.98 18.7146 18.9218 18.8182 18.8182C18.9218 18.7146 18.98 18.574 18.98 18.4275V1.5725C18.98 1.42597 18.9218 1.28544 18.8182 1.18182C18.7146 1.07821 18.574 1.02 18.4275 1.02H1.5725Z"/>
	<path opacity="0.4" d="M14.7285 6C15.0657 6.0001 15.3895 6.13012 15.6279 6.36133C15.8663 6.5926 16 6.90643 16 7.2334V8.7666C16 9.09357 15.8663 9.4074 15.6279 9.63867C15.3895 9.86988 15.0657 9.9999 14.7285 10H5.27148C4.9343 9.9999 4.6105 9.86988 4.37207 9.63867C4.13372 9.4074 4 9.09357 4 8.7666V7.2334C4 6.90643 4.13372 6.5926 4.37207 6.36133C4.6105 6.13012 4.9343 6.0001 5.27148 6H14.7285ZM5.27148 6.7998C5.15319 6.7999 5.03975 6.84568 4.95605 6.92676C4.87225 7.00802 4.8252 7.11847 4.8252 7.2334V8.7666C4.8252 8.88153 4.87225 8.99198 4.95605 9.07324C5.03975 9.15432 5.15319 9.2001 5.27148 9.2002H14.7285C14.8468 9.2001 14.9602 9.15432 15.0439 9.07324C15.1278 8.99198 15.1748 8.88153 15.1748 8.7666V7.2334C15.1748 7.11847 15.1278 7.00802 15.0439 6.92676C14.9602 6.84568 14.8468 6.7999 14.7285 6.7998H5.27148ZM10.8125 8.40039H6.0625V7.59961H10.8125V8.40039ZM10 5H4V4H10V5Z"/>
	<path d="M16.7285 13C17.0657 13.0001 17.3895 13.1301 17.6279 13.3613C17.8663 13.5926 18 13.9064 18 14.2334V19H17.1748V14.2334C17.1748 14.1185 17.1278 14.008 17.0439 13.9268C16.9602 13.8457 16.8468 13.7999 16.7285 13.7998H3.27148C3.15319 13.7999 3.03975 13.8457 2.95605 13.9268C2.87225 14.008 2.8252 14.1185 2.8252 14.2334V19H2V14.2334C2 13.9064 2.13372 13.5926 2.37207 13.3613C2.6105 13.1301 2.9343 13.0001 3.27148 13H16.7285Z"/>
	<path opacity="0.4" d="M14.7285 17C15.0657 17.0001 15.3895 17.1301 15.6279 17.3613C15.8663 17.5926 16 17.9064 16 18.2334V19H15.1748V18.2334C15.1748 18.1185 15.1278 18.008 15.0439 17.9268C14.9602 17.8457 14.8468 17.7999 14.7285 17.7998H5.27148C5.15319 17.7999 5.03975 17.8457 4.95605 17.9268C4.87225 18.008 4.8252 18.1185 4.8252 18.2334V19H4V18.2334C4 17.9064 4.13372 17.5926 4.37207 17.3613C4.6105 17.1301 4.9343 17.0001 5.27148 17H14.7285ZM10.8125 19H6.0625V18.5996H10.8125V19ZM10 16H4V15H10V16Z"/>
</svg>
