<svg width="24" height="24" viewBox="0 0 24 24" xmlns="http://www.w3.org/2000/svg">
<path d="M16.8047 12.6348C16.8438 12.752 16.877 12.8711 16.9043 12.9922C16.9316 13.1133 16.9551 13.2383 16.9746 13.3672C16.9941 13.4961 17.0098 13.6309 17.0215 13.7715H17.0566C17.0801 13.5605 17.1113 13.3633 17.1504 13.1797C17.1934 12.9961 17.2461 12.8145 17.3086 12.6348L18.5215 8.94922H20.4375L17.666 16.3379C17.498 16.791 17.2793 17.168 17.0098 17.4688C16.7402 17.7734 16.4297 18.002 16.0781 18.1543C15.7305 18.3066 15.3477 18.3828 14.9297 18.3828C14.7266 18.3828 14.5508 18.3711 14.4023 18.3477C14.2539 18.3281 14.127 18.3066 14.0215 18.2832V16.8652C14.1035 16.8848 14.207 16.9023 14.332 16.918C14.457 16.9336 14.5879 16.9414 14.7246 16.9414C14.9746 16.9414 15.1895 16.8887 15.3691 16.7832C15.5488 16.6777 15.6992 16.5352 15.8203 16.3555C15.9414 16.1797 16.0371 15.9863 16.1074 15.7754L16.2129 15.4531L13.6113 8.94922H15.5684L16.8047 12.6348ZM7.02539 11.0352L8.30859 8.94922H10.3359L8.20312 12.1543L10.4355 15.5H8.40234L7.02539 13.2559L5.64258 15.5H3.61523L5.83594 12.1543L3.72656 8.94922H5.75391L7.02539 11.0352Z" />
</svg>
