<svg width="24" height="24" viewBox="0 0 24 24" xmlns="http://www.w3.org/2000/svg">
<path opacity="0.3" d="M3 12C3 9.61305 3.94821 7.32387 5.63604 5.63604C7.32387 3.94821 9.61305 3 12 3C14.3869 3 16.6761 3.94821 18.364 5.63604C20.0518 7.32387 21 9.61305 21 12C21 14.3869 20.0518 16.6761 18.364 18.364C16.6761 20.0518 14.3869 21 12 21C9.61305 21 7.32387 20.0518 5.63604 18.364C3.94821 16.6761 3 14.3869 3 12ZM12 4.54286C11.0207 4.54286 10.051 4.73574 9.14628 5.1105C8.24153 5.48525 7.41946 6.03454 6.727 6.727C6.03454 7.41946 5.48525 8.24153 5.1105 9.14628C4.73574 10.051 4.54286 11.0207 4.54286 12C4.54286 12.9793 4.73574 13.949 5.1105 14.8537C5.48525 15.7585 6.03454 16.5805 6.727 17.273C7.41946 17.9655 8.24153 18.5147 9.14628 18.8895C10.051 19.2643 11.0207 19.4571 12 19.4571C13.9778 19.4571 15.8745 18.6715 17.273 17.273C18.6715 15.8745 19.4571 13.9778 19.4571 12C19.4571 10.0222 18.6715 8.12549 17.273 6.727C15.8745 5.32852 13.9778 4.54286 12 4.54286Z"/>
<path d="M10.662 9.627C10.348 9.847 10.25 10.079 10.25 10.25C10.25 10.421 10.348 10.653 10.662 10.873C10.974 11.091 11.445 11.25 12 11.25C12.825 11.25 13.605 11.483 14.198 11.898C14.788 12.312 15.25 12.955 15.25 13.75C15.25 14.545 14.789 15.188 14.198 15.602C13.788 15.888 13.291 16.088 12.75 16.184V16.5C12.75 16.6989 12.671 16.8897 12.5303 17.0303C12.3897 17.171 12.1989 17.25 12 17.25C11.8011 17.25 11.6103 17.171 11.4697 17.0303C11.329 16.8897 11.25 16.6989 11.25 16.5V16.184C10.7309 16.097 10.2369 15.8984 9.802 15.602C9.212 15.188 8.75 14.545 8.75 13.75C8.75 13.5511 8.82902 13.3603 8.96967 13.2197C9.11032 13.079 9.30109 13 9.5 13C9.69891 13 9.88968 13.079 10.0303 13.2197C10.171 13.3603 10.25 13.5511 10.25 13.75C10.25 13.921 10.348 14.153 10.662 14.373C10.974 14.591 11.445 14.75 12 14.75C12.555 14.75 13.026 14.591 13.338 14.373C13.652 14.153 13.75 13.921 13.75 13.75C13.75 13.579 13.652 13.347 13.338 13.127C13.026 12.909 12.555 12.75 12 12.75C11.175 12.75 10.395 12.517 9.802 12.102C9.212 11.688 8.75 11.045 8.75 10.25C8.75 9.455 9.211 8.812 9.802 8.398C10.2369 8.1016 10.7309 7.90303 11.25 7.816V7.5C11.25 7.30109 11.329 7.11032 11.4697 6.96967C11.6103 6.82902 11.8011 6.75 12 6.75C12.1989 6.75 12.3897 6.82902 12.5303 6.96967C12.671 7.11032 12.75 7.30109 12.75 7.5V7.816C13.29 7.912 13.789 8.112 14.198 8.398C14.788 8.812 15.25 9.455 15.25 10.25C15.25 10.4489 15.171 10.6397 15.0303 10.7803C14.8897 10.921 14.6989 11 14.5 11C14.3011 11 14.1103 10.921 13.9697 10.7803C13.829 10.6397 13.75 10.4489 13.75 10.25C13.75 10.079 13.652 9.847 13.338 9.627C13.026 9.409 12.555 9.25 12 9.25C11.445 9.25 10.974 9.409 10.662 9.627Z"/>
</svg>
