<svg
	width="20"
	height="20"
	viewBox="0 0 20 20"
	xmlns="http://www.w3.org/2000/svg"
>
	<path
		fill-rule="evenodd"
		clip-rule="evenodd"
		d="M14 6L14 4L6 4L6 6L14 6ZM15 4C15 3.44772 14.5523 3 14 3L6 3C5.44771 3 5 3.44771 5 4L5 6C5 6.55228 5.44772 7 6 7L14 7C14.5523 7 15 6.55228 15 6L15 4ZM14 11L14 9L6 9L6 11L14 11ZM15 9C15 8.44772 14.5523 8 14 8L6 8C5.44771 8 5 8.44771 5 9L5 11C5 11.5523 5.44772 12 6 12L14 12C14.5523 12 15 11.5523 15 11L15 9ZM14 14L14 16L6 16L6 14L14 14ZM14 13C14.5523 13 15 13.4477 15 14L15 16C15 16.5523 14.5523 17 14 17L6 17C5.44772 17 5 16.5523 5 16L5 14C5 13.4477 5.44772 13 6 13L14 13Z"
	/>
</svg>