<svg width="24" height="24" viewBox="0 0 24 24" xmlns="http://www.w3.org/2000/svg">
<path d="M19.0249 15.3496C18.8756 15.4083 18.7005 15.4509 18.5005 15.4775C18.3007 15.5042 18.0676 15.5176 17.8013 15.5176C18.0677 15.6322 18.2701 15.7748 18.4087 15.9453C18.55 16.1133 18.6206 16.3348 18.6206 16.6094C18.6206 16.884 18.5475 17.1297 18.4009 17.3457C18.2542 17.559 18.0461 17.727 17.7769 17.8496C17.5075 17.9722 17.1888 18.0332 16.8208 18.0332C16.7302 18.0332 16.6449 18.0295 16.5649 18.0215C16.485 18.0135 16.4059 18.0013 16.3286 17.9854C16.2834 18.0093 16.2491 18.0446 16.2251 18.0898C16.2012 18.1351 16.189 18.1816 16.189 18.2295C16.189 18.2961 16.2158 18.3559 16.269 18.4092C16.325 18.4625 16.4542 18.4892 16.6567 18.4893H17.353C17.6835 18.4893 17.9686 18.5429 18.2085 18.6494C18.4512 18.7561 18.6396 18.9019 18.7729 19.0859C18.9062 19.2699 18.9731 19.4805 18.9731 19.7178C18.9731 20.1524 18.7822 20.4955 18.4009 20.7461C18.0195 20.9966 17.4525 21.1221 16.7007 21.1221C16.1569 21.1221 15.7356 21.066 15.437 20.9541C15.141 20.8448 14.9342 20.6868 14.8169 20.4814C14.7023 20.2789 14.645 20.0377 14.645 19.7578H15.7651C15.7652 19.8804 15.7894 19.9803 15.8374 20.0576C15.888 20.1374 15.9823 20.1961 16.1206 20.2334C16.2619 20.2707 16.4663 20.29 16.7329 20.29C17.0022 20.29 17.2078 20.2683 17.3491 20.2256C17.4904 20.1829 17.5866 20.1244 17.6372 20.0498C17.6905 19.9778 17.7173 19.8963 17.7173 19.8057C17.7173 19.6804 17.6675 19.5793 17.5688 19.502C17.4702 19.4246 17.3144 19.3858 17.1011 19.3857H16.4253C15.9668 19.3857 15.6333 19.3016 15.4253 19.1338C15.2174 18.9632 15.1129 18.7646 15.1128 18.5381C15.1128 18.3808 15.1542 18.2311 15.2368 18.0898C15.3221 17.9485 15.4413 17.8294 15.5933 17.7334C15.3213 17.5894 15.1266 17.4202 15.0093 17.2256C14.8919 17.0283 14.8325 16.7922 14.8325 16.5176C14.8325 16.1976 14.914 15.9227 15.0767 15.6934C15.2393 15.4614 15.4633 15.2825 15.7485 15.1572C16.0365 15.0319 16.3649 14.9697 16.7329 14.9697C17.0502 14.9751 17.3264 14.9533 17.561 14.9053C17.7956 14.8546 18.0062 14.7865 18.1929 14.7012C18.3795 14.6132 18.5584 14.5205 18.729 14.4219L19.0249 15.3496ZM7.2915 14.9619C7.66985 14.9619 7.99897 15.0108 8.27881 15.1094C8.56146 15.2054 8.80591 15.3282 9.01123 15.4775L8.50732 16.2217C8.33132 16.1123 8.14163 16.0259 7.93896 15.9619C7.73648 15.8953 7.53278 15.8614 7.32764 15.8613C7.12263 15.8613 6.96901 15.8895 6.86768 15.9453C6.76906 15.9986 6.71929 16.0802 6.71924 16.1895C6.71924 16.2615 6.74474 16.3246 6.79541 16.3779C6.8488 16.4285 6.94753 16.4822 7.09131 16.5381C7.23528 16.5914 7.44603 16.6574 7.72314 16.7373C7.99776 16.8146 8.23632 16.9045 8.43896 17.0059C8.6443 17.1072 8.80353 17.2434 8.91553 17.4141C9.02733 17.582 9.0835 17.8049 9.0835 18.082C9.08342 18.3911 8.99098 18.6508 8.80713 18.8613C8.62318 19.0693 8.37956 19.2261 8.07568 19.3301C7.77181 19.434 7.43817 19.4853 7.07568 19.4854C6.66502 19.4854 6.30148 19.4269 5.98682 19.3096C5.67231 19.1923 5.40435 19.0376 5.18311 18.8457L5.81885 18.1338C5.98418 18.2618 6.17139 18.3688 6.37939 18.4541C6.58988 18.5393 6.81914 18.582 7.06689 18.582C7.27756 18.582 7.44768 18.5481 7.57568 18.4814C7.70605 18.4148 7.77099 18.3148 7.771 18.1816C7.771 18.091 7.74544 18.0154 7.69482 17.9541C7.64416 17.8928 7.54683 17.8333 7.40283 17.7773C7.25884 17.7214 7.04556 17.6544 6.76318 17.5771C6.50471 17.5079 6.27557 17.4201 6.07568 17.3135C5.87835 17.2068 5.72284 17.0694 5.61084 16.9014C5.50166 16.7334 5.44678 16.5239 5.44678 16.2734C5.44681 16.0202 5.51837 15.7949 5.65967 15.5977C5.801 15.4004 6.00911 15.2458 6.28369 15.1338C6.55829 15.0192 6.89434 14.9619 7.2915 14.9619ZM12.0239 18.3818L12.8882 15.1016H14.1685L12.7524 19.3496H11.2642L9.83252 15.1016H11.1958L12.0239 18.3818ZM4.25049 15.3213L1.65479 16.8379L4.25049 18.3252L3.67822 19.2256L0.562012 17.29V16.3936L3.69873 14.4492L4.25049 15.3213ZM23.438 16.3857V17.29L20.3218 19.2256L19.7495 18.3652L22.3501 16.8379L19.7495 15.3574L20.3101 14.4492L23.438 16.3857ZM16.7651 15.79C16.5651 15.79 16.4059 15.8534 16.2886 15.9814C16.1713 16.1068 16.1128 16.2807 16.1128 16.502C16.1128 16.7365 16.1735 16.9167 16.2935 17.042C16.4134 17.167 16.5707 17.2295 16.7651 17.2295C16.9755 17.2295 17.1353 17.167 17.2446 17.042C17.3566 16.9167 17.4126 16.7307 17.4126 16.4854C17.4126 16.2482 17.3578 16.0739 17.2485 15.9619C17.1392 15.8473 16.9783 15.7901 16.7651 15.79ZM19.0249 5.34961C18.8756 5.40827 18.7005 5.45087 18.5005 5.47754C18.3007 5.50416 18.0676 5.51757 17.8013 5.51758C18.0676 5.63215 18.2701 5.77485 18.4087 5.94531C18.55 6.11325 18.6206 6.33485 18.6206 6.60938C18.6206 6.88404 18.5475 7.1297 18.4009 7.3457C18.2542 7.55901 18.0462 7.72695 17.7769 7.84961C17.5075 7.97226 17.1888 8.0332 16.8208 8.0332C16.7302 8.0332 16.6449 8.02948 16.5649 8.02148C16.485 8.01348 16.4059 8.00135 16.3286 7.98535C16.2833 8.00935 16.2491 8.04456 16.2251 8.08984C16.2012 8.13509 16.189 8.18159 16.189 8.22949C16.189 8.29616 16.2157 8.35682 16.269 8.41016C16.3252 8.4633 16.4545 8.48924 16.6567 8.48926H17.353C17.6834 8.48926 17.9686 8.5429 18.2085 8.64941C18.4512 8.75608 18.6396 8.90194 18.7729 9.08594C18.9062 9.2699 18.9731 9.48051 18.9731 9.71777C18.9731 10.1524 18.7822 10.4954 18.4009 10.7461C18.0195 10.9966 17.4525 11.1221 16.7007 11.1221C16.1569 11.1221 15.7356 11.066 15.437 10.9541C15.141 10.8448 14.9342 10.6868 14.8169 10.4814C14.7023 10.2789 14.645 10.0377 14.645 9.75781H15.7651C15.7652 9.88042 15.7894 9.98031 15.8374 10.0576C15.888 10.1375 15.9822 10.1961 16.1206 10.2334C16.2619 10.2707 16.4663 10.29 16.7329 10.29C17.0022 10.29 17.2078 10.2683 17.3491 10.2256C17.4904 10.1829 17.5866 10.1244 17.6372 10.0498C17.6905 9.97781 17.7173 9.89632 17.7173 9.80566C17.7173 9.68036 17.6675 9.57928 17.5688 9.50195C17.4702 9.42463 17.3144 9.38575 17.1011 9.38574H16.4253C15.9668 9.38574 15.6333 9.30166 15.4253 9.13379C15.2174 8.96322 15.1129 8.76459 15.1128 8.53809C15.1128 8.38082 15.1542 8.23112 15.2368 8.08984C15.3221 7.94851 15.4413 7.8294 15.5933 7.7334C15.3213 7.58941 15.1266 7.42023 15.0093 7.22559C14.8919 7.02825 14.8325 6.79224 14.8325 6.51758C14.8325 6.19762 14.914 5.92267 15.0767 5.69336C15.2393 5.46145 15.4633 5.28254 15.7485 5.15723C16.0365 5.0319 16.3649 4.96973 16.7329 4.96973C17.0502 4.97506 17.3264 4.95327 17.561 4.90527C17.7955 4.85463 18.0063 4.78741 18.1929 4.70215C18.3795 4.61416 18.5584 4.52053 18.729 4.42188L19.0249 5.34961ZM7.95947 8.48535H9.03955V9.34961H5.4917V8.48535H6.69482V5.96582H5.53076V5.10156H7.95947V8.48535ZM13.3003 4.96191C13.5029 4.96194 13.6697 5.00454 13.8003 5.08984C13.9309 5.17518 14.0283 5.31024 14.0923 5.49414C14.1562 5.67541 14.188 5.91297 14.188 6.20605V9.34961H13.104V6.34961C13.104 6.20032 13.0894 6.09453 13.0601 6.0332C13.0333 5.97215 12.9772 5.94141 12.8921 5.94141C12.8254 5.94141 12.7561 5.96195 12.6841 6.00195C12.6148 6.03931 12.5369 6.11117 12.4517 6.21777V9.34961H11.564V6.34961C11.564 6.20032 11.5493 6.09453 11.52 6.0332C11.4933 5.97216 11.4372 5.94141 11.3521 5.94141C11.2854 5.94142 11.216 5.96196 11.144 6.00195C11.0747 6.03931 10.9969 6.11119 10.9116 6.21777V9.34961H9.81201V5.10156H10.7397L10.8237 5.51367C10.9571 5.33234 11.092 5.1949 11.228 5.10156C11.364 5.00823 11.5257 4.96191 11.7124 4.96191C11.8722 4.96197 12.0077 5.00341 12.1196 5.08594C12.2343 5.16594 12.3158 5.29249 12.3638 5.46582C12.4918 5.31649 12.6339 5.1949 12.7886 5.10156C12.9431 5.00839 13.1138 4.96191 13.3003 4.96191ZM4.25049 5.32129L1.65479 6.83789L4.25049 8.32617L3.67822 9.22559L0.562012 7.29004V6.39355L3.69873 4.44922L4.25049 5.32129ZM23.438 6.38574V7.29004L20.3218 9.22559L19.7495 8.36523L22.3501 6.83789L19.7495 5.35742L20.3101 4.44922L23.438 6.38574ZM16.7651 5.79004C16.5651 5.79004 16.4059 5.85345 16.2886 5.98145C16.1713 6.10677 16.1128 6.28066 16.1128 6.50195C16.1128 6.73649 16.1735 6.91671 16.2935 7.04199C16.4134 7.16706 16.5707 7.22949 16.7651 7.22949C16.9755 7.22946 17.1353 7.16706 17.2446 7.04199C17.3566 6.91666 17.4126 6.73068 17.4126 6.48535C17.4125 6.24819 17.3578 6.07386 17.2485 5.96191C17.1392 5.84734 16.9783 5.79007 16.7651 5.79004ZM7.19482 2.87793C7.41349 2.87793 7.59229 2.94603 7.73096 3.08203C7.8696 3.21802 7.93896 3.3872 7.93896 3.58984C7.93893 3.79244 7.86959 3.96293 7.73096 4.10156C7.5923 4.23751 7.41345 4.30566 7.19482 4.30566C6.97367 4.30558 6.79213 4.23748 6.65088 4.10156C6.5124 3.96297 6.44291 3.79233 6.44287 3.58984C6.44287 3.38735 6.51244 3.21797 6.65088 3.08203C6.79213 2.94611 6.97367 2.87801 7.19482 2.87793Z" />
</svg>
