<svg width="24" height="24" viewBox="0 0 24 24" xmlns="http://www.w3.org/2000/svg">
<path fill-rule="evenodd" clip-rule="evenodd" d="M11.9755 4.00283C13.6064 3.99173 14.778 3.97603 16.5038 4.74698C18.7377 5.74131 19.9999 8.05944 19.9999 10.4198C19.9998 13.0402 19.0156 14.2829 17.5731 15.3322L17.2782 15.5324C15.752 16.5114 13.9207 16.7429 12.5838 16.7444L12.5848 16.7453C11.5434 16.7731 10.4937 16.7453 9.46272 16.7453H7.34944L9.17464 18.7424L9.02132 18.8869L7.85628 19.9817L7.70979 19.8244L4.02425 15.841L4.15803 15.6955L7.70979 11.8557L7.85628 11.6985L9.02132 12.7942L9.17464 12.9387L7.34944 14.9358H9.46272C10.5004 14.9358 11.5194 14.9634 12.5457 14.9358H12.5701C13.7516 14.9357 15.188 14.7218 16.3006 14.008L16.4949 13.8762C17.4537 13.1851 18.1902 12.4961 18.1904 10.4198C18.1904 8.83158 17.4835 7.32323 16.0605 6.5458L15.7665 6.4003C14.4206 5.80068 13.6441 5.80595 11.9657 5.81241C11.794 5.81425 11.6223 5.81436 11.4531 5.81436H11.2411V4.00381H11.4531L11.9755 4.00283Z" />
</svg>
