<svg width="20" height="20" viewBox="0 0 20 20" xmlns="http://www.w3.org/2000/svg">
<path d="M10.085 3C10.0304 3.32531 10 3.65917 10 4C10 7.21021 12.5211 9.83157 15.6914 9.99219L16 10V16.5908L10 11.8477L4 16.5908V3H10.085ZM15.5908 1.10254C16.0188 1.10254 16.396 1.18489 16.7217 1.34961C17.0474 1.51438 17.3068 1.7352 17.5 2.01172C17.6951 2.28633 17.8086 2.58948 17.8408 2.9209H16.2842C16.2482 2.75613 16.1649 2.63533 16.0342 2.55957C15.9054 2.48202 15.7574 2.44336 15.5908 2.44336C15.2596 2.44349 15.0166 2.58731 14.8613 2.875C14.7079 3.16288 14.6288 3.54202 14.625 4.01172H14.6592C14.733 3.83369 14.8455 3.6806 14.9951 3.55371C15.1446 3.42698 15.3189 3.32984 15.5176 3.26172C15.7164 3.19355 15.9269 3.15918 16.1484 3.15918C16.5005 3.15923 16.8082 3.2385 17.0713 3.39746C17.3363 3.55647 17.5427 3.77446 17.6904 4.05078C17.8382 4.32729 17.9111 4.64395 17.9092 5C17.9111 5.41661 17.8131 5.78128 17.6143 6.09375C17.4173 6.40625 17.1433 6.64894 16.793 6.82129C16.4427 6.99358 16.0383 7.07908 15.5801 7.0791C15.2412 7.0791 14.9191 7.02687 14.6143 6.9209C14.3114 6.81299 14.0424 6.64302 13.8076 6.41211C13.5728 6.18108 13.3874 5.87994 13.2529 5.50879C13.1204 5.13759 13.0557 4.68756 13.0576 4.15918C13.0595 3.68768 13.12 3.26356 13.2393 2.88672C13.3605 2.50982 13.5313 2.188 13.7529 1.92285C13.9764 1.65777 14.2441 1.45556 14.5547 1.31543C14.8651 1.17352 15.2104 1.10259 15.5908 1.10254ZM15.5684 4.22754C15.4529 4.22756 15.3455 4.24839 15.2471 4.29004C15.1508 4.32975 15.0669 4.38742 14.9951 4.46289C14.9231 4.53675 14.8659 4.62527 14.8242 4.72754C14.7845 4.82781 14.7636 4.93748 14.7617 5.05664C14.7636 5.21573 14.8 5.3584 14.8701 5.4834C14.9401 5.60805 15.0353 5.70647 15.1562 5.77832C15.2774 5.85026 15.415 5.88669 15.5684 5.88672C15.7256 5.88672 15.8651 5.85029 15.9863 5.77832C16.1093 5.70639 16.2053 5.60825 16.2734 5.4834C16.3435 5.3584 16.3769 5.21573 16.375 5.05664C16.3769 4.89585 16.3434 4.75385 16.2734 4.63086C16.2053 4.50586 16.1094 4.40693 15.9863 4.33496C15.8651 4.26299 15.7256 4.22754 15.5684 4.22754Z"/>
</svg>
