<svg width="20" height="20" viewBox="0 0 20 20" xmlns="http://www.w3.org/2000/svg">
<path d="M10.085 3C10.0304 3.32531 10 3.65917 10 4C10 7.21021 12.5211 9.83157 15.6914 9.99219L16 10V16.5908L10 11.8477L4 16.5908V3H10.085ZM15.4717 1.10254C15.9014 1.10259 16.2809 1.17551 16.6104 1.32129C16.9416 1.46704 17.2002 1.66738 17.3857 1.92285C17.5732 2.17664 17.666 2.46825 17.6641 2.7959C17.6678 3.12147 17.5563 3.38844 17.3291 3.59668C17.1038 3.80488 16.818 3.92789 16.4717 3.96582V4.01172C16.9411 4.0629 17.2946 4.2067 17.5312 4.44336C17.7677 4.67806 17.8836 4.97338 17.8799 5.3291C17.8818 5.66994 17.7796 5.97213 17.5732 6.23535C17.3687 6.49856 17.0842 6.70585 16.7188 6.85547C16.3551 7.00508 15.9353 7.07909 15.46 7.0791C15.0016 7.0791 14.5943 7.00095 14.2383 6.84375C13.8842 6.68468 13.606 6.46585 13.4033 6.1875C13.2007 5.90915 13.0986 5.58918 13.0967 5.22754H14.6875C14.6894 5.33908 14.7229 5.43943 14.7891 5.52832C14.8572 5.61539 14.9501 5.68416 15.0674 5.7334C15.1848 5.78264 15.3202 5.80664 15.4717 5.80664C15.6172 5.80659 15.7459 5.78147 15.8574 5.73047C15.9691 5.67747 16.0566 5.60445 16.1191 5.51172C16.1816 5.41896 16.2118 5.31261 16.21 5.19336C16.2119 5.07594 16.1754 4.97177 16.1016 4.88086C16.0296 4.79 15.9285 4.71909 15.7979 4.66797C15.6673 4.61688 15.5169 4.59087 15.3467 4.59082H14.7549V3.5H15.3467C15.5037 3.49995 15.6416 3.47393 15.7607 3.42285C15.882 3.37172 15.9757 3.30087 16.042 3.20996C16.1101 3.11907 16.1435 3.01486 16.1416 2.89746C16.1434 2.78402 16.1163 2.68369 16.0596 2.59668C16.0028 2.50956 15.9226 2.44084 15.8203 2.3916C15.7202 2.34257 15.6039 2.31842 15.4717 2.31836C15.3278 2.31836 15.1985 2.34346 15.085 2.39453C14.9732 2.44567 14.8847 2.51749 14.8203 2.6084C14.7561 2.6992 14.7236 2.80366 14.7217 2.9209H13.21C13.2119 2.56484 13.3097 2.25027 13.5029 1.97754C13.698 1.70484 13.9647 1.49025 14.3037 1.33496C14.6427 1.17972 15.0324 1.10254 15.4717 1.10254Z"/>
</svg>
