<svg width="20" height="20" viewBox="0 0 20 20" xmlns="http://www.w3.org/2000/svg">
<path d="M10.085 3C10.0304 3.32531 10 3.65917 10 4C10 7.21021 12.5211 9.83157 15.6914 9.99219L16 10V16.5908L10 11.8477L4 16.5908V3H10.085ZM17.5176 2.44336H14.9033L14.79 3.72754H14.8242C14.9151 3.55142 15.0724 3.40556 15.2959 3.29004C15.5194 3.17261 15.7788 3.11328 16.0742 3.11328C16.4208 3.11328 16.7292 3.19452 17 3.35547C17.2727 3.51644 17.4883 3.73839 17.6455 4.02246C17.8046 4.30466 17.8828 4.63068 17.8809 5C17.8827 5.40525 17.7859 5.76474 17.5908 6.0791C17.3977 6.39151 17.1266 6.63741 16.7764 6.81543C16.426 6.99157 16.0135 7.0791 15.54 7.0791C15.0931 7.07909 14.6962 7.00094 14.3496 6.84375C14.005 6.68466 13.733 6.46588 13.5342 6.1875C13.3373 5.90919 13.2372 5.58911 13.2334 5.22754H14.7676C14.7733 5.42798 14.8507 5.58781 15 5.70703C15.1515 5.82633 15.3317 5.8867 15.54 5.88672C15.7009 5.88672 15.8428 5.85221 15.9658 5.78418C16.0889 5.7141 16.1858 5.61518 16.2559 5.48828C16.3259 5.36142 16.3603 5.21341 16.3584 5.04492C16.3602 4.87475 16.3258 4.72739 16.2559 4.60254C16.1858 4.47565 16.0889 4.37775 15.9658 4.30957C15.8428 4.23963 15.7009 4.2041 15.54 4.2041C15.3735 4.20412 15.2191 4.24485 15.0771 4.32617C14.937 4.40572 14.8339 4.51713 14.7676 4.65918L13.3809 4.38672L13.6084 1.18164H17.5176V2.44336Z"/>
</svg>
