<svg width="24" height="24" viewBox="0 0 24 24" xmlns="http://www.w3.org/2000/svg">
<path d="M9.84668 13.2852L11.1299 11.1992H13.1572L11.0244 14.4043L13.2568 17.75H11.2236L9.84668 15.5059L8.46387 17.75H6.43652L8.65723 14.4043L6.54785 11.1992H8.5752L9.84668 13.2852ZM15.6699 4.25C16.0305 4.25 16.3398 4.31512 16.5977 4.44531C16.858 4.57546 17.058 4.75331 17.1982 4.97852C17.3385 5.20135 17.4092 5.45439 17.4092 5.7373C17.4092 6.04029 17.3487 6.31698 17.2285 6.56738C17.1083 6.81779 16.9335 7.06612 16.7031 7.31152C16.4754 7.55681 16.1998 7.82815 15.877 8.12598L15.1709 8.79102V8.84375H17.5635V9.82031H13.7246V9.0127L15.1025 7.61914C15.3805 7.33368 15.6037 7.09558 15.7715 6.90527C15.9416 6.71257 16.0646 6.53756 16.1396 6.37988C16.2172 6.22224 16.2558 6.05319 16.2559 5.87305C16.2559 5.65544 16.1947 5.49244 16.0723 5.38477C15.9521 5.27459 15.7897 5.21875 15.5869 5.21875C15.3743 5.21882 15.1679 5.26773 14.9678 5.36523C14.7674 5.46289 14.5577 5.60193 14.3398 5.78223L13.709 5.03516C13.8667 4.89997 14.0337 4.77252 14.209 4.65234C14.3868 4.53215 14.5923 4.43492 14.8252 4.3623C15.0605 4.28728 15.3421 4.25 15.6699 4.25Z" />
</svg>
