<svg width="24" height="24" viewBox="0 0 24 24" xmlns="http://www.w3.org/2000/svg">
<path opacity="0.3" d="M1 7C0.447715 7 0 6.55228 0 6V6C0 5.44772 0.447715 5 1 5H6C6.55228 5 7 5.44772 7 6V6C7 6.55228 6.55228 7 6 7H1Z"/>
<path opacity="0.3" fill-rule="evenodd" clip-rule="evenodd" d="M1.85 9C1.35938 9.00008 0.888882 9.19504 0.542 9.542C0.195 9.889 0 10.36 0 10.85V13.15C0 13.6406 0.19491 14.1112 0.541852 14.4581C0.888795 14.8051 1.35935 15 1.85 15H14.15C14.3929 15 14.6335 14.9521 14.858 14.8592C15.0824 14.7662 15.2864 14.6299 15.4581 14.4581C15.6299 14.2864 15.7662 14.0824 15.8592 13.858C15.9521 13.6335 16 13.3929 16 13.15V10.85C16 10.3594 15.8051 9.88879 15.4581 9.54185C15.1112 9.19491 14.6406 9 14.15 9H1.85ZM1.39038 10.3904C1.51228 10.2685 1.67761 10.2 1.85 10.2H14.15C14.2354 10.2 14.3199 10.2168 14.3987 10.2495C14.4776 10.2821 14.5493 10.33 14.6096 10.3904C14.67 10.4507 14.7179 10.5224 14.7505 10.6013C14.7832 10.6801 14.8 10.7646 14.8 10.85V13.15C14.8 13.3224 14.7315 13.4877 14.6096 13.6096C14.4877 13.7315 14.3224 13.8 14.15 13.8H1.85C1.67761 13.8 1.51228 13.7315 1.39038 13.6096C1.26848 13.4877 1.2 13.3224 1.2 13.15V10.85C1.2 10.6776 1.26848 10.5123 1.39038 10.3904ZM3 11.4V12.6H7V11.4H3Z"/>
<path fill-rule="evenodd" clip-rule="evenodd" d="M17.542 9.542C17.8889 9.19504 18.3594 9.00008 18.85 9H22.15C22.6407 9 23.1112 9.19491 23.4581 9.54185C23.8051 9.88879 24 10.3593 24 10.85V13.15C24 13.3929 23.9521 13.6335 23.8592 13.858C23.7662 14.0824 23.6299 14.2864 23.4581 14.4581C23.2864 14.6299 23.0824 14.7662 22.858 14.8592C22.6335 14.9521 22.3929 15 22.15 15H18.85C18.3593 15 17.8888 14.8051 17.5419 14.4581C17.1949 14.1112 17 13.6407 17 13.15V10.85C17 10.36 17.195 9.889 17.542 9.542Z"/>
</svg>
