<svg width="24" height="24" viewBox="0 0 24 24" xmlns="http://www.w3.org/2000/svg">
<path d="M9.84668 10.811L11.1299 8.7251H13.1572L11.0244 11.9302L13.2568 15.2759H11.2236L9.84668 13.0317L8.46387 15.2759H6.43652L8.65723 11.9302L6.54785 8.7251H8.5752L9.84668 10.811ZM15.6699 4.25049C16.0305 4.25049 16.3397 4.31559 16.5977 4.4458C16.858 4.57601 17.058 4.75367 17.1982 4.979C17.3385 5.20186 17.4092 5.45484 17.4092 5.73779C17.4091 6.04064 17.3487 6.31757 17.2285 6.56787C17.1084 6.81808 16.9333 7.06583 16.7031 7.31104C16.4753 7.5564 16.1999 7.82853 15.877 8.12646L15.1709 8.7915V8.84326H17.5635V9.8208H13.7246V9.01318L15.1025 7.61963C15.3805 7.3342 15.6037 7.09606 15.7715 6.90576C15.9418 6.71295 16.0645 6.53715 16.1396 6.37939C16.2172 6.22173 16.2559 6.05273 16.2559 5.87256C16.2558 5.65485 16.1948 5.49194 16.0723 5.38428C15.9521 5.2741 15.7897 5.21924 15.5869 5.21924C15.3743 5.2193 15.1679 5.26816 14.9678 5.36572C14.7674 5.46338 14.5577 5.60242 14.3398 5.78271L13.709 5.03467C13.8667 4.89945 14.0337 4.77205 14.209 4.65186C14.3867 4.5317 14.5924 4.4354 14.8252 4.36279C15.0605 4.28773 15.342 4.25049 15.6699 4.25049Z" />
</svg>
