<svg width="20" height="20" viewBox="0 0 20 20" xmlns="http://www.w3.org/2000/svg">
<path d="M10.085 3C10.0304 3.32531 10 3.65917 10 4C10 7.21021 12.5211 9.83157 15.6914 9.99219L16 10V16.5908L10 11.8477L4 16.5908V3H10.085ZM15.4199 1.10254C15.8858 1.10256 16.289 1.17755 16.6299 1.32715C16.9727 1.47487 17.2373 1.68323 17.4229 1.95215C17.6101 2.22093 17.7041 2.53602 17.7041 2.89746C17.7041 3.12095 17.6573 3.34384 17.5645 3.56543C17.4716 3.78509 17.3049 4.0289 17.0645 4.2959C16.8239 4.56288 16.4821 4.88083 16.0391 5.25L15.4932 5.7041V5.73828H17.7666V7H13.3008V5.86328L15.4707 4.06836C15.6145 3.94919 15.7376 3.83745 15.8398 3.7334C15.944 3.62734 16.0242 3.51799 16.0791 3.40625C16.1359 3.29456 16.1641 3.17047 16.1641 3.03418C16.1641 2.88456 16.1318 2.75645 16.0674 2.65039C16.0049 2.54442 15.9173 2.46303 15.8057 2.40625C15.694 2.34769 15.5655 2.31838 15.4199 2.31836C15.2741 2.31836 15.1449 2.34754 15.0332 2.40625C14.9234 2.46496 14.8379 2.55145 14.7773 2.66504C14.7169 2.7785 14.6866 2.91659 14.6865 3.0791H13.1865C13.1866 2.67021 13.2783 2.3178 13.4619 2.02246C13.6456 1.72701 13.906 1.49991 14.2412 1.34082C14.5764 1.18186 14.9693 1.10254 15.4199 1.10254Z"/>
</svg>
