<svg
	width="20"
	height="20"
	viewBox="0 0 20 20"
	xmlns="http://www.w3.org/2000/svg"
>
	<path d="M5.29619 6.68966C5.29619 6.30877 5.00603 6 4.64809 6C4.29016 6 4 6.30877 4 6.68966V13.3103C4 13.6912 4.29016 14 4.64809 14C5.00603 14 5.29619 13.6912 5.29619 13.3103L5.29619 10.673H8.14781V13.3103C8.14781 13.6912 8.43797 14 8.7959 14C9.15383 14 9.444 13.6912 9.444 13.3103L9.444 6.68966C9.444 6.30877 9.15383 6 8.7959 6C8.43797 6 8.14781 6.30877 8.14781 6.68966L8.14781 9.29364L5.29619 9.29364L5.29619 6.68966Z" />
	<path d="M15.4839 6.68605C15.4839 7.06495 15.1496 7.3721 14.7373 7.3721H12.4938V8.87391H13.2148C13.2221 8.87391 13.2295 8.87401 13.2367 8.8742H13.3932C14.8971 8.8742 16 10.0835 16 11.4371C16 12.7907 14.8971 14 13.3932 14H11.7472C11.3349 14 11.0006 13.6928 11.0006 13.3139C11.0006 12.9351 11.3349 12.6279 11.7472 12.6279H13.3932C13.944 12.6279 14.5067 12.1566 14.5067 11.4371C14.5067 10.7176 13.944 10.2463 13.3932 10.2463H12.6852C12.6778 10.2463 12.6705 10.2462 12.6632 10.246H11.7472C11.3348 10.246 11.0003 9.93886 11.0003 9.55996L11.0006 9.54125V6.71928L11.0006 6.71354C11.0002 6.70442 11 6.69526 11 6.68605C11 6.30716 11.3343 6 11.7466 6H14.7373C15.1496 6 15.4839 6.30716 15.4839 6.68605Z" />
</svg>