<svg
	width="20"
	height="20"
	viewBox="0 0 20 20"
	xmlns="http://www.w3.org/2000/svg"
>
	<path
		fillRule="evenodd"
		clipRule="evenodd"
		d="M14.1148 5.8852C13.3706 5.14096 11.9468 5.14447 10.9256 6.16573L10.0826 7.00872C9.81754 7.27374 9.38786 7.27374 9.12284 7.00872C8.85782 6.7437 8.85782 6.31402 9.12284 6.04899L9.96583 5.206C11.3909 3.78091 13.6823 3.53323 15.0745 4.92547C16.4668 6.31771 16.2191 8.60908 14.794 10.0342L13.951 10.8772C13.686 11.1422 13.2563 11.1422 12.9913 10.8772C12.7263 10.6121 12.7263 10.1825 12.9913 9.91743L13.8343 9.07444C14.8555 8.05319 14.859 6.62944 14.1148 5.8852ZM12.0057 7.99452C12.2707 8.25954 12.2707 8.68922 12.0057 8.95424L8.9541 12.0058C8.68908 12.2708 8.25939 12.2708 7.99437 12.0058C7.72935 11.7408 7.72935 11.3111 7.99437 11.0461L11.0459 7.99452C11.311 7.7295 11.7406 7.7295 12.0057 7.99452ZM7.00872 9.12319C7.27374 9.38821 7.27374 9.81789 7.00872 10.0829L6.16573 10.9259C5.14447 11.9472 5.14096 13.3709 5.8852 14.1151C6.62944 14.8594 8.05319 14.8559 9.07444 13.8346L9.91744 12.9916C10.1825 12.7266 10.6121 12.7266 10.8772 12.9916C11.1422 13.2566 11.1422 13.6863 10.8772 13.9514L10.0342 14.7943C8.60908 16.2194 6.31771 16.4671 4.92547 15.0749C3.53323 13.6826 3.78091 11.3913 5.206 9.96618L6.049 9.12319C6.31402 8.85817 6.7437 8.85817 7.00872 9.12319Z"
	/>
</svg>