<svg width="24" height="24" viewBox="0 0 24 24" xmlns="http://www.w3.org/2000/svg">
<path d="M13.8311 19.3486H14.6904V20.5205H13.8311V22H12.3564V20.5205H9.30957V19.4707L12.4395 14.8613H13.8311V19.3486ZM12.1855 16.9805C12.1172 17.1042 12.0374 17.2344 11.9463 17.3711L10.6377 19.3486H12.3564V18.1377C12.3564 18.0238 12.3581 17.8887 12.3613 17.7324L12.3809 17.2637C12.3874 17.1074 12.3939 16.9691 12.4004 16.8486C12.4102 16.7249 12.4167 16.6387 12.4199 16.5898H12.3809C12.319 16.7233 12.2539 16.8535 12.1855 16.9805ZM18 12.7002H6V11.2998H18V12.7002ZM11.8584 1.75879C12.5941 1.75879 13.1768 1.9069 13.6064 2.20312C14.0361 2.49935 14.251 2.91764 14.251 3.45801C14.251 3.78678 14.1826 4.07161 14.0459 4.3125C13.9092 4.55339 13.7236 4.75033 13.4893 4.90332C13.2581 5.05632 12.9977 5.16862 12.708 5.24023V5.26953C13.2809 5.34115 13.7155 5.51693 14.0117 5.79688C14.3112 6.07682 14.4609 6.45117 14.4609 6.91992C14.4609 7.33659 14.3584 7.70931 14.1533 8.03809C13.9515 8.36686 13.639 8.62565 13.2158 8.81445C12.7926 9.00326 12.2474 9.09766 11.5801 9.09766C11.1862 9.09766 10.8184 9.0651 10.4766 9C10.138 8.93815 9.81901 8.84212 9.51953 8.71191V7.42773C9.82552 7.58398 10.1462 7.7028 10.4814 7.78418C10.8167 7.8623 11.1292 7.90137 11.4189 7.90137C11.9593 7.90137 12.3369 7.80859 12.5518 7.62305C12.7699 7.43424 12.8789 7.17057 12.8789 6.83203C12.8789 6.63346 12.8285 6.46582 12.7275 6.3291C12.6266 6.19238 12.4508 6.08822 12.2002 6.0166C11.9528 5.94499 11.6061 5.90918 11.1602 5.90918H10.6182V4.75195H11.1699C11.6094 4.75195 11.943 4.71126 12.1709 4.62988C12.402 4.54525 12.5583 4.43132 12.6396 4.28809C12.7243 4.1416 12.7666 3.97559 12.7666 3.79004C12.7666 3.53613 12.6885 3.33757 12.5322 3.19434C12.376 3.05111 12.1156 2.97949 11.751 2.97949C11.5231 2.97949 11.3148 3.00879 11.126 3.06738C10.9404 3.12272 10.7728 3.19108 10.623 3.27246C10.4733 3.35059 10.3415 3.42708 10.2275 3.50195L9.5293 2.46191C9.80924 2.26009 10.1364 2.09245 10.5107 1.95898C10.8883 1.82552 11.3376 1.75879 11.8584 1.75879Z" />
</svg>
