<svg width="20" height="20" viewBox="0 0 20 20" fill="none" xmlns="http://www.w3.org/2000/svg">
<path fill-rule="evenodd" clip-rule="evenodd" d="M5.00065 4.58325H7.50065C7.61116 4.58325 7.71714 4.62715 7.79528 4.70529C7.87342 4.78343 7.91732 4.88941 7.91732 4.99992V7.49992C7.91732 7.61042 7.87342 7.71641 7.79528 7.79455C7.71714 7.87269 7.61116 7.91658 7.50065 7.91658H5.00065C4.89014 7.91658 4.78416 7.87269 4.70602 7.79455C4.62788 7.71641 4.58398 7.61042 4.58398 7.49992V4.99992C4.58398 4.88941 4.62788 4.78343 4.70602 4.70529C4.78416 4.62715 4.89014 4.58325 5.00065 4.58325ZM3.33398 4.99992C3.33398 4.55789 3.50958 4.13397 3.82214 3.82141C4.1347 3.50885 4.55862 3.33325 5.00065 3.33325H7.50065C7.94268 3.33325 8.3666 3.50885 8.67916 3.82141C8.99172 4.13397 9.16732 4.55789 9.16732 4.99992V7.49992C9.16732 7.94195 8.99172 8.36587 8.67916 8.67843C8.3666 8.99099 7.94268 9.16658 7.50065 9.16658H5.00065C4.55862 9.16658 4.1347 8.99099 3.82214 8.67843C3.50958 8.36587 3.33398 7.94195 3.33398 7.49992V4.99992ZM12.5007 4.58325H15.0007C15.1112 4.58325 15.2171 4.62715 15.2953 4.70529C15.3734 4.78343 15.4173 4.88941 15.4173 4.99992V7.49992C15.4173 7.61042 15.3734 7.71641 15.2953 7.79455C15.2171 7.87269 15.1112 7.91658 15.0007 7.91658H12.5007C12.3901 7.91658 12.2842 7.87269 12.206 7.79455C12.1279 7.71641 12.084 7.61042 12.084 7.49992V4.99992C12.084 4.88941 12.1279 4.78343 12.206 4.70529C12.2842 4.62715 12.3901 4.58325 12.5007 4.58325ZM10.834 4.99992C10.834 4.55789 11.0096 4.13397 11.3221 3.82141C11.6347 3.50885 12.0586 3.33325 12.5007 3.33325H15.0007C15.4427 3.33325 15.8666 3.50885 16.1792 3.82141C16.4917 4.13397 16.6673 4.55789 16.6673 4.99992V7.49992C16.6673 7.94195 16.4917 8.36587 16.1792 8.67843C15.8666 8.99099 15.4427 9.16658 15.0007 9.16658H12.5007C12.0586 9.16658 11.6347 8.99099 11.3221 8.67843C11.0096 8.36587 10.834 7.94195 10.834 7.49992V4.99992ZM15.0007 12.0833H12.5007C12.3901 12.0833 12.2842 12.1271 12.206 12.2053C12.1279 12.2834 12.084 12.3894 12.084 12.4999V14.9999C12.084 15.1104 12.1279 15.2164 12.206 15.2945C12.2842 15.3727 12.3901 15.4166 12.5007 15.4166H15.0007C15.1112 15.4166 15.2171 15.3727 15.2953 15.2945C15.3734 15.2164 15.4173 15.1104 15.4173 14.9999V12.4999C15.4173 12.3894 15.3734 12.2834 15.2953 12.2053C15.2171 12.1271 15.1112 12.0833 15.0007 12.0833ZM12.5007 10.8333C12.0586 10.8333 11.6347 11.0088 11.3221 11.3214C11.0096 11.634 10.834 12.0579 10.834 12.4999V14.9999C10.834 15.4419 11.0096 15.8659 11.3221 16.1784C11.6347 16.491 12.0586 16.6666 12.5007 16.6666H15.0007C15.4427 16.6666 15.8666 16.491 16.1792 16.1784C16.4917 15.8659 16.6673 15.4419 16.6673 14.9999V12.4999C16.6673 12.0579 16.4917 11.634 16.1792 11.3214C15.8666 11.0088 15.4427 10.8333 15.0007 10.8333H12.5007ZM5.00065 12.0833H7.50065C7.61116 12.0833 7.71714 12.1271 7.79528 12.2053C7.87342 12.2834 7.91732 12.3894 7.91732 12.4999V14.9999C7.91732 15.1104 7.87342 15.2164 7.79528 15.2945C7.71714 15.3727 7.61116 15.4166 7.50065 15.4166H5.00065C4.89014 15.4166 4.78416 15.3727 4.70602 15.2945C4.62788 15.2164 4.58398 15.1104 4.58398 14.9999V12.4999C4.58398 12.3894 4.62788 12.2834 4.70602 12.2053C4.78416 12.1271 4.89014 12.0833 5.00065 12.0833ZM3.33398 12.4999C3.33398 12.0579 3.50958 11.634 3.82214 11.3214C4.1347 11.0088 4.55862 10.8333 5.00065 10.8333H7.50065C7.94268 10.8333 8.3666 11.0088 8.67916 11.3214C8.99172 11.634 9.16732 12.0579 9.16732 12.4999V14.9999C9.16732 15.4419 8.99172 15.8659 8.67916 16.1784C8.3666 16.491 7.94268 16.6666 7.50065 16.6666H5.00065C4.55862 16.6666 4.1347 16.491 3.82214 16.1784C3.50958 15.8659 3.33398 15.4419 3.33398 14.9999V12.4999Z" fill="black"/>
</svg>
