<svg
	width="20"
	height="20"
	viewBox="0 0 20 20"
	xmlns="http://www.w3.org/2000/svg"
>
	<path d="M5.29619 6.68966C5.29619 6.30877 5.00603 6 4.64809 6C4.29016 6 4 6.30877 4 6.68966V13.3103C4 13.6912 4.29016 14 4.64809 14C5.00603 14 5.29619 13.6912 5.29619 13.3103L5.29619 10.673H8.14781V13.3103C8.14781 13.6912 8.43797 14 8.7959 14C9.15383 14 9.444 13.6912 9.444 13.3103L9.444 6.68966C9.444 6.30877 9.15383 6 8.7959 6C8.43797 6 8.14781 6.30877 8.14781 6.68966L8.14781 9.29364L5.29619 9.29364L5.29619 6.68966Z" />
	<path d="M11.7353 6C11.3292 6 11 6.30877 11 6.68966C11 7.07054 11.3292 7.37931 11.7353 7.37931H13.7613L12.2137 9.24556C12.0413 9.45348 12.0102 9.73535 12.1336 9.97197C12.257 10.2086 12.5133 10.3586 12.7941 10.3586C13.3879 10.3586 13.8259 10.4987 14.0995 10.704C14.351 10.8928 14.5294 11.1836 14.5294 11.6552C14.5294 12.1203 14.3571 12.3212 14.2059 12.4276C14.019 12.559 13.7503 12.6207 13.5 12.6207C12.8893 12.6207 12.5088 12.388 12.2794 12.1513C12.0062 11.8694 11.5412 11.8487 11.2407 12.1049C10.9402 12.3611 10.9181 12.7973 11.1912 13.0791C11.6676 13.5706 12.43 14 13.5 14C13.9556 14 14.5692 13.8961 15.0882 13.531C15.6429 13.1409 16 12.5142 16 11.6552C16 10.8026 15.649 10.1003 15.0182 9.62699C14.7543 9.42897 14.4549 9.28092 14.1338 9.17672L15.8451 7.11306C16.0175 6.90515 16.0486 6.62327 15.9252 6.38665C15.8018 6.15004 15.5455 6 15.2647 6H11.7353Z" />
</svg>