<svg
	width="20"
	height="20"
	viewBox="0 0 20 20"
	xmlns="http://www.w3.org/2000/svg"
>
	<path
		opacity="0.3"
		fill-rule="evenodd"
		clip-rule="evenodd"
		d="M3 3C2.44772 3 2 3.44772 2 4V8C2 8.55228 2.44772 9 3 9H17C17.5523 9 18 8.55228 18 8V4C18 3.44772 17.5523 3 17 3H3ZM8 5C7.44772 5 7 5.44772 7 6C7 6.55228 7.44772 7 8 7H15C15.5523 7 16 6.55228 16 6C16 5.44772 15.5523 5 15 5H8Z"
	/>
	<circle cx="5" cy="6" r="1" />
	<path
		opacity="0.3"
		fill-rule="evenodd"
		clip-rule="evenodd"
		d="M3 11C2.44772 11 2 11.4477 2 12V16C2 16.5523 2.44772 17 3 17H17C17.5523 17 18 16.5523 18 16V12C18 11.4477 17.5523 11 17 11H3ZM8 13C7.44772 13 7 13.4477 7 14C7 14.5523 7.44772 15 8 15H15C15.5523 15 16 14.5523 16 14C16 13.4477 15.5523 13 15 13H8Z"
	/>
	<circle cx="5" cy="14" r="1" />
</svg>