<svg width="24" height="24" viewBox="0 0 24 24" xmlns="http://www.w3.org/2000/svg">
<path d="M4 12.0117V13.5117H20V12.0117H4Z"/>
<path d="M7.5 16.5117H16.5V15.0117H7.5V16.5117Z"/>
<path opacity="0.3" d="M8.80001 10H7.20001V9C7.20001 7.5 8.40001 6.2 10 6.2H14C15.5 6.2 16.8 7.4 16.8 9V10H15.3V9C15.3 8.3 14.7 7.8 14.1 7.8H10C9.30001 7.8 8.80001 8.4 8.80001 9V10ZM9.50001 2.5C9.50001 1.1 10.6 0 12 0C13.4 0 14.5 1.1 14.5 2.5C14.5 3.9 13.4 5 12 5C10.6 5 9.50001 3.9 9.50001 2.5ZM11 2.5C11 3.1 11.4 3.5 12 3.5C12.6 3.5 13 3.1 13 2.5C13 1.9 12.6 1.5 12 1.5C11.4 1.5 11 1.9 11 2.5Z"/>
<path opacity="0.3" d="M10 21C10 19.88 10.88 19 12 19C13.12 19 14 19.88 14 21C14 22.12 13.12 23 12 23C10.88 23 10 22.12 10 21ZM11.2 21C11.2 21.48 11.52 21.8 12 21.8C12.48 21.8 12.8 21.48 12.8 21C12.8 20.52 12.48 20.2 12 20.2C11.52 20.2 11.2 20.52 11.2 21Z"/>
<path opacity="0.3" d="M5 21C5 19.88 5.88 19 7 19C8.12 19 9 19.88 9 21C9 22.12 8.12 23 7 23C5.88 23 5 22.12 5 21ZM6.2 21C6.2 21.48 6.52 21.8 7 21.8C7.48 21.8 7.8 21.48 7.8 21C7.8 20.52 7.48 20.2 7 20.2C6.52 20.2 6.2 20.52 6.2 21Z"/>
<path opacity="0.3" d="M15 21C15 19.88 15.88 19 17 19C18.12 19 19 19.88 19 21C19 22.12 18.12 23 17 23C15.88 23 15 22.12 15 21ZM16.2 21C16.2 21.48 16.52 21.8 17 21.8C17.48 21.8 17.8 21.48 17.8 21C17.8 20.52 17.48 20.2 17 20.2C16.52 20.2 16.2 20.52 16.2 21Z"/>
</svg>
