<svg width="24" height="24" viewBox="0 0 24 24" xmlns="http://www.w3.org/2000/svg">
<path opacity="0.3" d="M2 8.5C2 7.1 3.1 6 4.5 6C5.9 6 7 7.1 7 8.5C7 9.9 5.9 11 4.5 11C3.1 11 2 9.9 2 8.5ZM3.5 8.5C3.5 9.1 3.9 9.5 4.5 9.5C5.1 9.5 5.5 9.1 5.5 8.5C5.5 7.9 5.1 7.5 4.5 7.5C3.9 7.5 3.5 7.9 3.5 8.5Z"/>
<path opacity="0.3" d="M2 15.5C2 14.1 3.1 13 4.5 13C5.9 13 7 14.1 7 15.5C7 16.9 5.9 18 4.5 18C3.1 18 2 16.9 2 15.5ZM3.5 15.5C3.5 16.1 3.9 16.5 4.5 16.5C5.1 16.5 5.5 16.1 5.5 15.5C5.5 14.9 5.1 14.5 4.5 14.5C3.9 14.5 3.5 14.9 3.5 15.5Z"/>
<path d="M9 7.5H20V6H9V7.5Z"/>
<path d="M9 14.5H20V13H9V14.5Z"/>
<path opacity="0.3" d="M9 10.5H16V9H9V10.5Z"/>
<path opacity="0.3" d="M9 17.5H16V16H9V17.5Z"/>
</svg>
