<svg
	width="20"
	height="20"
	viewBox="0 0 20 20"
	xmlns="http://www.w3.org/2000/svg"
>
	<path
		opacity="0.4"
		d="M14.6667 1H5.33333C4.6 1 4 1.6 4 2.33333V11.6667C4 12.4 4.6 13 5.33333 13H14.6667C15.4 13 16 12.4 16 11.6667V2.33333C16 1.6 15.4 1 14.6667 1ZM5.33333 2H14.6667C14.8667 2 15 2.13333 15 2.33333V7.93333L13 6C12.8 5.8 12.4667 5.8 12.3333 6L9.93333 8.33333L8 7C7.8 6.86667 7.6 6.86667 7.46667 7L5.06667 8.73333V2.33333C5 2.13333 5.13333 2 5.33333 2ZM14.6667 12H5.33333C5.13333 12 5 11.8667 5 11.6667V10.0667L7.73333 8.06667L9.73333 9.33333C9.93333 9.46667 10.2 9.46667 10.3333 9.26667L12.6667 7L15 9.26667V11.6667C15 11.8667 14.8667 12 14.6667 12Z"
	/>
	<rect x="5" y="14" width="7" height="1" />
	<rect x="5" y="16" width="5" height="1" />
</svg>