<svg
	width="20"
	height="20"
	viewBox="0 0 20 20"
	xmlns="http://www.w3.org/2000/svg"
>
	<path d="M14.6667 4H5.33333C4.6 4 4 4.6 4 5.33333V14.6667C4 15.4 4.6 16 5.33333 16H14.6667C15.4 16 16 15.4 16 14.6667V5.33333C16 4.6 15.4 4 14.6667 4ZM5.33333 5H14.6667C14.8667 5 15 5.13333 15 5.33333V10.9333L13 9C12.8 8.8 12.4667 8.8 12.3333 9L9.93333 11.3333L8 10C7.8 9.86667 7.6 9.86667 7.46667 10L5.06667 11.7333V5.33333C5 5.13333 5.13333 5 5.33333 5ZM14.6667 15H5.33333C5.13333 15 5 14.8667 5 14.6667V13.0667L7.73333 11.0667L9.73333 12.3333C9.93333 12.4667 10.2 12.4667 10.3333 12.2667L12.6667 10L15 12.2667V14.6667C15 14.8667 14.8667 15 14.6667 15Z" />
</svg>