<svg width="24" height="24" viewBox="0 0 24 24" xmlns="http://www.w3.org/2000/svg">
<path d="M15.4355 13.9331C15.7959 13.9332 16.1055 13.9983 16.3633 14.1284C16.6235 14.2586 16.8237 14.4364 16.9639 14.6616C17.104 14.8844 17.1738 15.1375 17.1738 15.4204C17.1738 15.7233 17.1143 16.0002 16.9941 16.2505C16.8739 16.5008 16.6981 16.7483 16.4678 16.9937C16.2399 17.239 15.9646 17.5111 15.6416 17.8091L14.9355 18.4741V18.5259H17.3281V19.5034H13.4893V18.6958L14.8682 17.3022C15.146 17.0169 15.3684 16.7786 15.5361 16.5884C15.7064 16.3956 15.8292 16.2198 15.9043 16.062C15.9819 15.9043 16.0215 15.7354 16.0215 15.5552C16.0215 15.3374 15.9596 15.1746 15.8369 15.0669C15.7167 14.9568 15.5553 14.9019 15.3525 14.9019C15.1397 14.9019 14.9327 14.9507 14.7324 15.0483C14.5322 15.146 14.3232 15.2851 14.1055 15.4653L13.4746 14.7173C13.6322 14.5822 13.7985 14.4546 13.9736 14.3345C14.1514 14.2143 14.357 14.118 14.5898 14.0454C14.8252 13.9703 15.1075 13.9331 15.4355 13.9331ZM9.78906 8.59912C10.668 8.59912 11.3418 8.79053 11.8105 9.17334C12.2791 9.55615 12.5137 10.1383 12.5137 10.9194V15.2847H11.2656L10.9199 14.394H10.873C10.6856 14.6283 10.4941 14.8199 10.2988 14.9683C10.1036 15.1166 9.8788 15.2261 9.625 15.2964C9.37112 15.3667 9.06244 15.4019 8.69922 15.4019C8.31258 15.4019 7.9648 15.3276 7.65625 15.1792C7.35168 15.0308 7.11131 14.804 6.93555 14.4995C6.75983 14.191 6.67194 13.8001 6.67188 13.3276C6.67188 12.6324 6.91617 12.1206 7.4043 11.7925C7.89258 11.4605 8.62501 11.2769 9.60156 11.2417L10.7383 11.2065V10.9194C10.7383 10.5758 10.6483 10.3237 10.4688 10.1636C10.2891 10.0034 10.0391 9.92334 9.71875 9.92334C9.40234 9.92334 9.0918 9.96826 8.78711 10.0581C8.48247 10.1479 8.17769 10.2613 7.87305 10.3979L7.28125 9.19092C7.62888 9.00734 8.01762 8.86279 8.44727 8.75732C8.88086 8.65186 9.32812 8.59912 9.78906 8.59912ZM10.0469 12.2729C9.46876 12.2886 9.0664 12.3921 8.83984 12.5835C8.61735 12.7749 8.50586 13.027 8.50586 13.3394C8.50595 13.6125 8.58603 13.8082 8.74609 13.9253C8.90622 14.0385 9.11536 14.0952 9.37305 14.0952C9.75574 14.0952 10.0782 13.9818 10.3398 13.7554C10.6054 13.5289 10.7382 13.2063 10.7383 12.7886V12.2495L10.0469 12.2729Z" />
</svg>