<svg
	width="20"
	height="20"
	viewBox="0 0 20 20"
	xmlns="http://www.w3.org/2000/svg"
>
	<path d="M5.29619 6.68966C5.29619 6.30877 5.00603 6 4.64809 6C4.29016 6 4 6.30877 4 6.68966V13.3103C4 13.6912 4.29016 14 4.64809 14C5.00603 14 5.29619 13.6912 5.29619 13.3103L5.29619 10.673H8.14781V13.3103C8.14781 13.6912 8.43797 14 8.7959 14C9.15383 14 9.444 13.6912 9.444 13.3103L9.444 6.68966C9.444 6.30877 9.15383 6 8.7959 6C8.43797 6 8.14781 6.30877 8.14781 6.68966L8.14781 9.29364L5.29619 9.29364L5.29619 6.68966Z" />
	<path
		fillRule="evenodd"
		clipRule="evenodd"
		d="M14.8464 6.02848C14.932 6.053 15.0109 6.09258 15.0797 6.14404C15.1606 6.2043 15.2248 6.27867 15.271 6.36116C15.3294 6.46544 15.359 6.58271 15.3572 6.70086V11.0768H15.7857C16.1802 11.0768 16.5 11.3856 16.5 11.7665C16.5 12.1474 16.1802 12.4561 15.7857 12.4561H15.3572V13.3104C15.3572 13.6912 15.0374 14 14.6429 14C14.2484 14 13.9286 13.6912 13.9286 13.3104V12.4561H11.2245C11.1537 12.4572 11.0824 12.4481 11.0129 12.4283C10.9265 12.4039 10.8469 12.3641 10.7775 12.3122C10.6229 12.1966 10.5187 12.0211 10.5023 11.8217C10.4953 11.738 10.504 11.6526 10.5295 11.57C10.5503 11.5023 10.5816 11.4389 10.6216 11.3816L14.0383 6.32238C14.0505 6.30361 14.0637 6.28545 14.0777 6.26796C14.1401 6.18982 14.2171 6.12783 14.3026 6.08323C14.4674 5.9972 14.6635 5.97593 14.8464 6.02848ZM13.9286 9.01003L12.5328 11.0768H13.9286V9.01003Z"
	/>
</svg>