<svg width="24" height="24" viewBox="0 0 24 24"  xmlns="http://www.w3.org/2000/svg">
<path fill-rule="evenodd" clip-rule="evenodd" d="M12 4C12.4276 4 12.7742 4.34662 12.7742 4.77419V5.49677C12.7742 5.92435 12.4276 6.27097 12 6.27097C11.5724 6.27097 11.2258 5.92435 11.2258 5.49677V4.77419C11.2258 4.34662 11.5724 4 12 4ZM6.32217 6.32217C6.62451 6.01983 7.1147 6.01983 7.41704 6.32217L7.85066 6.75579C8.153 7.05813 8.153 7.54832 7.85066 7.85066C7.54832 8.153 7.05813 8.153 6.75579 7.85066L6.32217 7.41704C6.01983 7.1147 6.01983 6.62451 6.32217 6.32217ZM17.678 6.32224C17.9803 6.62462 17.9802 7.11481 17.6779 7.41711L17.2441 7.85073C16.9418 8.15304 16.4516 8.15297 16.1493 7.85059C15.847 7.54822 15.847 7.05802 16.1494 6.75572L16.5831 6.3221C16.8855 6.0198 17.3757 6.01986 17.678 6.32224ZM12 8.43871C10.0332 8.43871 8.43871 10.0332 8.43871 12C8.43871 13.9668 10.0332 15.5613 12 15.5613C13.9668 15.5613 15.5613 13.9668 15.5613 12C15.5613 10.0332 13.9668 8.43871 12 8.43871ZM6.89032 12C6.89032 9.178 9.178 6.89032 12 6.89032C14.822 6.89032 17.1097 9.178 17.1097 12C17.1097 14.0267 15.9297 15.7778 14.2194 16.6038V17.7806C14.2194 19.0064 13.2257 20 12 20C10.7743 20 9.78064 19.0064 9.78064 17.7806V16.6038C8.07026 15.7778 6.89032 14.0267 6.89032 12ZM11.329 17.066V17.7806C11.329 18.1512 11.6294 18.4516 12 18.4516C12.3706 18.4516 12.671 18.1512 12.671 17.7806V17.066C12.4514 17.0948 12.2274 17.1097 12 17.1097C11.7726 17.1097 11.5486 17.0948 11.329 17.066ZM4 12C4 11.5724 4.34662 11.2258 4.77419 11.2258H5.49677C5.92435 11.2258 6.27097 11.5724 6.27097 12C6.27097 12.4276 5.92435 12.7742 5.49677 12.7742H4.77419C4.34662 12.7742 4 12.4276 4 12ZM17.729 12C17.729 11.5724 18.0756 11.2258 18.5032 11.2258H19.2258C19.6534 11.2258 20 11.5724 20 12C20 12.4276 19.6534 12.7742 19.2258 12.7742H18.5032C18.0756 12.7742 17.729 12.4276 17.729 12Z"/>
</svg>
