<svg
	width="14"
	height="14"
	viewBox="0 0 14 14"
	xmlns="http://www.w3.org/2000/svg"
>
	<path
		fill-rule="evenodd"
		clip-rule="evenodd"
		d="M4.02428 2.85071e-07L4.18947 5.36038e-07C4.56735 5.36038e-07 4.87369 0.306332 4.87369 0.684211C4.87369 1.06209 4.56735 1.36842 4.18947 1.36842H4.05263C3.45181 1.36842 3.04235 1.36895 2.72562 1.39483C2.41687 1.42006 2.25697 1.46591 2.14433 1.52331C1.87694 1.65955 1.65955 1.87694 1.52331 2.14433C1.46591 2.25697 1.42006 2.41687 1.39483 2.72562C1.36895 3.04235 1.36842 3.45181 1.36842 4.05263V4.18947C1.36842 4.56735 1.06209 4.87369 0.684211 4.87369C0.306332 4.87369 5.36038e-07 4.56735 5.36038e-07 4.18947L2.85071e-07 4.02428C-8.31055e-06 3.45885 -1.53384e-05 2.99325 0.0309554 2.61418C0.0630949 2.22081 0.131968 1.86078 0.304035 1.52308C0.571471 0.998207 0.998207 0.571471 1.52308 0.304035C1.86078 0.131968 2.22081 0.0630949 2.61418 0.0309554C2.99325 -1.53384e-05 3.45885 -8.31055e-06 4.02428 2.85071e-07ZM11.2744 1.39483C10.9577 1.36895 10.5482 1.36842 9.94737 1.36842H9.81053C9.43265 1.36842 9.12632 1.06209 9.12632 0.684211C9.12632 0.306332 9.43265 5.36038e-07 9.81053 5.36038e-07L9.97573 2.85071e-07C10.5412 -8.31055e-06 11.0068 -1.53384e-05 11.3858 0.0309554C11.7792 0.0630949 12.1392 0.131968 12.4769 0.304035C13.0018 0.571471 13.4285 0.998206 13.696 1.52308C13.868 1.86078 13.9369 2.22081 13.969 2.61418C14 2.99325 14 3.45885 14 4.02428V4.18947C14 4.56735 13.6937 4.87369 13.3158 4.87369C12.9379 4.87369 12.6316 4.56735 12.6316 4.18947V4.05263C12.6316 3.45181 12.631 3.04235 12.6052 2.72562C12.5799 2.41687 12.5341 2.25697 12.4767 2.14433C12.3405 1.87694 12.1231 1.65955 11.8557 1.52331C11.743 1.46591 11.5831 1.42006 11.2744 1.39483ZM0.684211 9.12632C1.06209 9.12632 1.36842 9.43265 1.36842 9.81053V9.94737C1.36842 10.5482 1.36895 10.9577 1.39483 11.2744C1.42006 11.5831 1.46591 11.743 1.52331 11.8557C1.65955 12.1231 1.87694 12.3405 2.14433 12.4767C2.25697 12.5341 2.41687 12.5799 2.72562 12.6052C3.04235 12.631 3.45181 12.6316 4.05263 12.6316H4.18947C4.56735 12.6316 4.87369 12.9379 4.87369 13.3158C4.87369 13.6937 4.56735 14 4.18947 14H4.02428C3.45885 14 2.99325 14 2.61418 13.969C2.22081 13.9369 1.86078 13.868 1.52308 13.696C0.998206 13.4285 0.571471 13.0018 0.304035 12.4769C0.131968 12.1392 0.0630949 11.7792 0.0309554 11.3858C-1.53384e-05 11.0068 -8.31055e-06 10.5412 2.85071e-07 9.97573L5.36038e-07 9.81053C5.36038e-07 9.43265 0.306332 9.12632 0.684211 9.12632ZM13.3158 9.12632C13.6937 9.12632 14 9.43265 14 9.81053V9.97572C14 10.5412 14 11.0068 13.969 11.3858C13.9369 11.7792 13.868 12.1392 13.696 12.4769C13.4285 13.0018 13.0018 13.4285 12.4769 13.696C12.1392 13.868 11.7792 13.9369 11.3858 13.969C11.0068 14 10.5412 14 9.97572 14H9.81053C9.43265 14 9.12632 13.6937 9.12632 13.3158C9.12632 12.9379 9.43265 12.6316 9.81053 12.6316H9.94737C10.5482 12.6316 10.9577 12.631 11.2744 12.6052C11.5831 12.5799 11.743 12.5341 11.8557 12.4767C12.1231 12.3405 12.3405 12.1231 12.4767 11.8557C12.5341 11.743 12.5799 11.5831 12.6052 11.2744C12.631 10.9577 12.6316 10.5482 12.6316 9.94737V9.81053C12.6316 9.43265 12.9379 9.12632 13.3158 9.12632Z"
	/>
</svg>