<svg
	width="14"
	height="14"
	viewBox="0 0 14 14"
	xmlns="http://www.w3.org/2000/svg"
>
	<path
		fill-rule="evenodd"
		clip-rule="evenodd"
		d="M2.50899 0.684211C2.50899 0.306332 2.81532 0 3.1932 0H10.8068C11.1847 0 11.4911 0.306332 11.4911 0.684211C11.4911 1.06209 11.1847 1.36842 10.8068 1.36842H3.1932C2.81532 1.36842 2.50899 1.06209 2.50899 0.684211ZM13.3158 2.50894C13.6937 2.50894 14 2.81527 14 3.19315V10.8071C14 11.185 13.6937 11.4913 13.3158 11.4913C12.9379 11.4913 12.6316 11.185 12.6316 10.8071V3.19315C12.6316 2.81527 12.9379 2.50894 13.3158 2.50894ZM0.684211 2.50894C1.06209 2.50894 1.36842 2.81527 1.36842 3.19315L1.36842 10.8069C1.36842 11.1848 1.06209 11.4911 0.684211 11.4911C0.306332 11.4911 2.50967e-07 11.1848 2.50967e-07 10.8069L0 3.19315C0 2.81527 0.306331 2.50894 0.684211 2.50894ZM2.50899 13.3158C2.50899 12.9379 2.81532 12.6316 3.1932 12.6316H10.8068C11.1847 12.6316 11.4911 12.9379 11.4911 13.3158C11.4911 13.6937 11.1847 14 10.8068 14H3.1932C2.81532 14 2.50899 13.6937 2.50899 13.3158Z"
	/>
</svg>