<svg
	width="18"
	height="18"
	viewBox="0 0 18 18"
	xmlns="http://www.w3.org/2000/svg"
>
	<rect x="1" y="5" width="5" height="2" />
	<rect x="7" y="5" width="6" height="2" />
	<path
		fillRule="evenodd"
		clipRule="evenodd"
		d="M14 2H15V3H14V2ZM14 4H15V5H14V4ZM15 6H14V7H15V6ZM14 8H15V9H14V8ZM15 10H14V11H15V10ZM14 12H15V13H14V12ZM15 14H14V15H15V14Z"
	/>
	<rect x="1" y="8" width="2" height="2" />
	<rect x="4" y="8" width="9" height="2" />
	<rect x="7" y="11" width="4" height="2" />
	<rect x="1" y="11" width="5" height="2" />
</svg>