<svg width="24" height="24" viewBox="0 0 24 24" xmlns="http://www.w3.org/2000/svg">
<path fill-rule="evenodd" clip-rule="evenodd" d="M4.77419 4C5.20177 4 5.54839 4.34662 5.54839 4.77419V8.01434L13.7292 8.01434C14.075 6.63068 15.3264 5.60573 16.8172 5.60573C18.575 5.60573 20 7.03072 20 8.78853C20 10.5463 18.575 11.9713 16.8172 11.9713C15.3264 11.9713 14.075 10.9464 13.7292 9.56272L5.54839 9.56272V12.9634C5.54839 13.6507 5.54899 14.1196 5.57863 14.4824C5.60754 14.8361 5.66014 15.0203 5.72653 15.1506C5.88322 15.4581 6.13326 15.7082 6.44079 15.8649C6.57107 15.9313 6.75527 15.9839 7.10904 16.0128C7.47184 16.0424 7.94071 16.043 8.62796 16.043H13.7292C14.075 14.6594 15.3264 13.6344 16.8172 13.6344C18.575 13.6344 20 15.0594 20 16.8172C20 18.575 18.575 20 16.8172 20C15.3264 20 14.075 18.9751 13.7292 17.5914H8.59585C7.94868 17.5914 7.41628 17.5914 6.98295 17.556C6.53343 17.5193 6.12278 17.4406 5.73784 17.2445C5.13896 16.9393 4.65205 16.4524 4.3469 15.8536C4.15077 15.4686 4.07211 15.058 4.03539 14.6085C3.99998 14.1751 3.99999 13.6427 4 12.9956L4 4.77419C4 4.34662 4.34662 4 4.77419 4ZM16.8172 7.15412C15.9145 7.15412 15.1828 7.88587 15.1828 8.78853C15.1828 9.69119 15.9145 10.4229 16.8172 10.4229C17.7199 10.4229 18.4516 9.69119 18.4516 8.78853C18.4516 7.88587 17.7199 7.15412 16.8172 7.15412ZM16.8172 15.1828C15.9145 15.1828 15.1828 15.9145 15.1828 16.8172C15.1828 17.7199 15.9145 18.4516 16.8172 18.4516C17.7199 18.4516 18.4516 17.7199 18.4516 16.8172C18.4516 15.9145 17.7199 15.1828 16.8172 15.1828Z" />
</svg>
