<svg width="24" height="24" viewBox="0 0 24 24" xmlns="http://www.w3.org/2000/svg">
<path fill-rule="evenodd" clip-rule="evenodd" d="M18.2526 5C17.8398 5 17.5051 5.33429 17.5051 5.74667V8.48444L10.5636 8.48444C10.2357 7.28449 9.13677 6.40239 7.83162 6.40239C6.26776 6.40239 5 7.66885 5 9.23111C5 10.7934 6.26776 12.0598 7.83162 12.0598C9.13677 12.0598 10.2357 11.1777 10.5636 9.97778L17.5051 9.97778V12.84C17.5051 13.4353 17.5046 13.837 17.4792 14.1467C17.4546 14.4477 17.4104 14.5956 17.3594 14.6955C17.2313 14.9468 17.0268 15.151 16.7753 15.2791C16.6753 15.33 16.5272 15.3741 16.2259 15.3987C15.9158 15.424 15.5138 15.4246 14.9179 15.4246H10.5636C10.2357 14.2247 9.13677 13.3426 7.83162 13.3426C6.26776 13.3426 5 14.609 5 16.1713C5 17.7335 6.26776 19 7.83162 19C9.13677 19 10.2357 18.1179 10.5636 16.9179H14.9484C15.5061 16.918 15.9695 16.918 16.3476 16.8871C16.7414 16.855 17.1081 16.7857 17.4539 16.6096C17.9867 16.3384 18.4199 15.9057 18.6914 15.3734C18.8676 15.028 18.9369 14.6617 18.9691 14.2683C19 13.8905 19 13.4276 19 12.8705L19 5.74667C19 5.33429 18.6654 5 18.2526 5ZM7.83162 7.89573C8.56989 7.89573 9.16838 8.4936 9.16838 9.23111C9.16838 9.96862 8.56989 10.5665 7.83162 10.5665C7.09335 10.5665 6.49487 9.96862 6.49487 9.23111C6.49487 8.4936 7.09335 7.89573 7.83162 7.89573ZM7.83162 14.8359C8.56989 14.8359 9.16838 15.4338 9.16838 16.1713C9.16838 16.9088 8.56989 17.5067 7.83162 17.5067C7.09335 17.5067 6.49487 16.9088 6.49487 16.1713C6.49487 15.4338 7.09335 14.8359 7.83162 14.8359Z"/>
</svg>
