<svg width="24" height="24" viewBox="0 0 24 24" xmlns="http://www.w3.org/2000/svg">
<path fill-rule="evenodd" clip-rule="evenodd" d="M12.0115 5.55295C8.44443 5.55295 5.55274 8.44464 5.55274 12.0117C5.55274 15.5788 8.44443 18.4705 12.0115 18.4705C15.5786 18.4705 18.4703 15.5788 18.4703 12.0117C18.4703 8.44464 15.5786 5.55295 12.0115 5.55295ZM4.02301 12.0117C4.02301 7.5998 7.59958 4.02322 12.0115 4.02322C16.4234 4.02322 20 7.5998 20 12.0117C20 16.4237 16.4234 20.0002 12.0115 20.0002C7.59958 20.0002 4.02301 16.4237 4.02301 12.0117ZM15.803 9.30379C16.1017 9.60249 16.1017 10.0868 15.803 10.3855L11.4688 14.7197C11.1701 15.0184 10.6858 15.0184 10.3871 14.7197L8.22004 12.5526C7.92134 12.2539 7.92134 11.7696 8.22004 11.4709C8.51873 11.1722 9.00302 11.1722 9.30172 11.4709L10.928 13.0971L14.7213 9.30379C15.02 9.0051 15.5043 9.0051 15.803 9.30379Z"/>
</svg>