<svg
	width="26"
	height="26"
	viewBox="0 0 26 26"
	xmlns="http://www.w3.org/2000/svg"
>
	<path
		fillRule="evenodd"
		clipRule="evenodd"
		d="M12.9979 4C12.6378 4 12.3462 4.29164 12.3462 4.65172V8.64325C12.3462 9.00272 12.6378 9.29434 12.9979 9.29434C13.3574 9.29434 13.649 9.00272 13.649 8.64325V4.65172C13.649 4.29162 13.3574 4 12.9979 4ZM6.63526 6.63537C6.38119 6.88961 6.38119 7.30239 6.63526 7.55708L9.45817 10.3794C9.71241 10.634 10.1252 10.634 10.3799 10.3794C10.6339 10.1246 10.6339 9.71234 10.3799 9.45765L7.55696 6.63537C7.30273 6.38069 6.88995 6.38069 6.63526 6.63537ZM12.317 12.59C12.2672 12.427 12.4271 12.2754 12.5933 12.3136L12.5928 12.3141L21.0975 14.8968C21.4479 15.0033 21.5461 15.4413 21.2487 15.6537L18.9724 17.2822L21.6518 19.9626C22.1162 20.4267 22.1162 21.1873 21.6518 21.6519C21.1878 22.1161 20.4274 22.1161 19.963 21.6519L17.2837 18.9714L15.6556 21.2485C15.4429 21.5456 15.0051 21.4474 14.8989 21.0974L12.317 12.59ZM4.65109 13.6501C4.29162 13.6501 4 13.3584 4 12.9983C4 12.6389 4.29162 12.3466 4.65109 12.3466H8.64262C9.00271 12.3466 9.29434 12.6389 9.29434 12.9983C9.29434 13.3584 9.00272 13.6501 8.64262 13.6501H4.65109ZM6.63526 19.3613C6.88997 19.616 7.30289 19.616 7.55696 19.3613L10.3799 16.539C10.6339 16.2848 10.6339 15.872 10.3799 15.6173C10.1252 15.3633 9.71224 15.3633 9.45817 15.6173L6.63526 18.4396C6.38119 18.6943 6.38119 19.1072 6.63526 19.3613ZM18.4394 6.63537C18.6941 6.38069 19.1064 6.38069 19.3612 6.63537C19.6158 6.88944 19.6158 7.30237 19.3612 7.55708L16.5389 10.3794C16.2842 10.634 15.8714 10.634 15.6172 10.3794C15.3625 10.1247 15.3625 9.71236 15.6172 9.45765L18.4394 6.63537Z"
	/>
</svg>