<svg width="18" height="18" viewBox="0 0 18 18" xmlns="http://www.w3.org/2000/svg">
<path d="M13.0971 9.7551C13.4565 10.0271 13.6888 10.4584 13.6888 10.9439V14C13.6888 15.1046 12.7933 16 11.6888 16H6.34184C5.23727 16 4.34184 15.1046 4.34184 14V10.9362C4.34184 10.4541 4.57201 10.0258 4.92847 9.7551H4C2.89543 9.7551 2 8.85967 2 7.7551V4C2 2.89543 2.89543 2 4 2H14C15.1046 2 16 2.89543 16 4V7.7551C16 8.85967 15.1046 9.7551 14 9.7551H13.0971ZM5.45663 8.7551C5.92579 8.7551 6.30612 9.13543 6.30612 9.60459V9.97194C6.30612 10.2382 6.09026 10.4541 5.82398 10.4541C5.5577 10.4541 5.34184 10.6699 5.34184 10.9362V14C5.34184 14.5523 5.78955 15 6.34184 15H11.6888C12.2411 15 12.6888 14.5523 12.6888 14V10.9439C12.6888 10.6734 12.4695 10.4541 12.199 10.4541C11.9285 10.4541 11.7092 10.2348 11.7092 9.96428V9.60459C11.7092 9.13543 12.0895 8.7551 12.5587 8.7551H14C14.5523 8.7551 15 8.30739 15 7.7551V4C15 3.44772 14.5523 3 14 3H4C3.44772 3 3 3.44772 3 4V7.7551C3 8.30739 3.44772 8.7551 4 8.7551H5.45663Z"/>
<path d="M5.99187 4L4 5.99187V4H5.99187Z"/>
<path d="M7.33228 4L4 7.33228V7.7551H5.45663C5.52403 7.7551 5.59058 7.75871 5.65611 7.76573L9.42185 4H7.33228Z"/>
<path d="M11.3323 4L6.89294 8.43933C7.15128 8.75738 7.30611 9.1629 7.30611 9.60459V9.97194C7.30611 10.0231 7.30352 10.0736 7.29847 10.1234L13.4218 4H11.3323Z"/>
<path d="M14 5.33228L6.34186 12.9904V14H7.42187L10.8419 10.5799C10.7567 10.3923 10.7092 10.1838 10.7092 9.96428V9.60459C10.7092 8.58315 11.5372 7.7551 12.5587 7.7551H14V5.33228Z"/>
<path d="M11.6888 11.6436L9.33228 14.0001H11.6888V11.6436Z"/>
</svg>
