<svg width="18" height="18" viewBox="0 0 18 18" xmlns="http://www.w3.org/2000/svg">
<path fill-rule="evenodd" clip-rule="evenodd" d="M3 1C1.89543 1 1 1.89543 1 3V15C1 16.1046 1.89543 17 3 17H15C16.1046 17 17 16.1046 17 15V3C17 1.89543 16.1046 1 15 1H3ZM3 2C2.44772 2 2 2.44772 2 3V15C2 15.5523 2.44772 16 3 16H15C15.5523 16 16 15.5523 16 15V3C16 2.44772 15.5523 2 15 2H3Z"/>
<path d="M4 9.42185V11.3323L11.3323 4H9.42185L4 9.42185ZM7.33228 4H5C4.44772 4 4 4.44772 4 5V7.33228L7.33228 4ZM5 14C4.57328 14 4.20899 13.7327 4.0654 13.3565L13.3565 4.0654C13.7327 4.20899 14 4.57328 14 5V5.33228L5.33228 14H5ZM9.33228 14H7.42185L14 7.42185V9.33228L9.33228 14ZM11.4218 14H13C13.5523 14 14 13.5523 14 13V11.4218L11.4218 14Z"/>
</svg>
