<svg width="18" height="18" viewBox="0 0 18 18" xmlns="http://www.w3.org/2000/svg">
<path fill-rule="evenodd" clip-rule="evenodd" d="M3 1C1.89543 1 1 1.89543 1 3V15C1 16.1046 1.89543 17 3 17H15C16.1046 17 17 16.1046 17 15V3C17 1.89543 16.1046 1 15 1H3ZM3 2C2.44772 2 2 2.44772 2 3V15C2 15.5523 2.44772 16 3 16H15C15.5523 16 16 15.5523 16 15V3C16 2.44772 15.5523 2 15 2H3Z"/>
<path d="M3 4.42179V6.33221L6.33221 3H4.42179L3 4.42179ZM3 10.3322V8.42179L8.42179 3H10.3322L3 10.3322ZM3 12.4218V14C3 14.1007 3.01489 14.198 3.04259 14.2896L14.2896 3.04259C14.198 3.01489 14.1007 3 14 3H12.4218L3 12.4218ZM8.42179 15H10.3322L15 10.3322V8.42179L8.42179 15ZM14 15H12.4218L15 12.4218V14C15 14.5523 14.5523 15 14 15ZM15 6.33221V4.42179L4.42179 15H6.33221L15 6.33221Z"/>
</svg>
