<svg width="24" height="24" viewBox="0 0 24 24" fill="none" xmlns="http://www.w3.org/2000/svg">
<path d="M10.6855 4.52112C10.8385 4.49346 10.9961 4.5368 11.1162 4.63342C11.2371 4.73262 11.3077 4.87731 11.3145 5.03186C11.3642 6.34245 12.4247 7.36682 13.7285 7.36682C13.7697 7.36682 13.8104 7.36085 13.8516 7.35413C13.89 7.34747 13.9284 7.34365 13.9668 7.33948L13.9697 7.33752C14.258 7.30827 14.5197 7.51453 14.5566 7.8053C14.7568 9.3847 16.0997 10.5748 17.6816 10.5748C18.0717 10.5748 18.4653 10.4974 18.8486 10.3444C18.9991 10.2839 19.1676 10.2948 19.3096 10.3746C19.449 10.4545 19.5475 10.5928 19.5752 10.7516C19.6584 11.2272 19.7002 11.6675 19.7002 12.1002C19.7002 16.3461 16.2459 19.8004 12 19.8004C7.75413 19.8004 4.2998 16.3461 4.2998 12.1002C4.30001 8.34775 6.98619 5.15998 10.6855 4.52112ZM10.3135 5.70081C7.41942 6.45414 5.37307 9.06448 5.37305 12.1031C5.37305 15.7555 8.34535 18.7272 11.9971 18.7272C15.6493 18.727 18.6211 15.7548 18.6211 12.1031C18.6211 11.9208 18.6115 11.7376 18.5947 11.5485C18.2913 11.6174 17.9854 11.652 17.6777 11.652L17.6738 11.651C15.7219 11.651 14.041 10.3018 13.5762 8.43811C11.9732 8.3741 10.6489 7.2332 10.3135 5.70081ZM9.9873 13.1227C10.6513 12.9655 11.3164 13.3767 11.4736 14.0406C11.63 14.7047 11.2188 15.3698 10.5547 15.527C9.8906 15.6833 9.22554 15.2721 9.06836 14.608C8.91215 13.944 9.3233 13.279 9.9873 13.1227ZM13.8193 14.7614C13.8193 13.8955 15.1191 13.8955 15.1191 14.7614C15.1191 15.6279 13.8194 15.6279 13.8193 14.7614ZM9.98828 8.93323C10.4942 8.93323 10.9061 9.34432 10.9062 9.85022C10.9062 10.3563 10.496 10.7672 9.98828 10.7672C9.48245 10.767 9.07129 10.3561 9.07129 9.85022C9.07148 9.3445 9.48255 8.93348 9.98828 8.93323ZM16.9375 7.41077C16.9377 6.42335 18.4177 6.42335 18.418 7.41077C18.418 8.39765 16.9375 8.39765 16.9375 7.41077ZM14.4688 4.94006C14.4689 3.95253 15.9491 3.95253 15.9492 4.94006C15.9492 5.92695 14.4688 5.92695 14.4688 4.94006Z" fill="black"/>
</svg>
