<svg
	width="18"
	height="18"
	viewBox="0 0 18 18"
	xmlns="http://www.w3.org/2000/svg"
>
	<path
		opacity="0.3"
		fill-rule="evenodd"
		clip-rule="evenodd"
		d="M10 9H0V11L12 11L10 9ZM17 11L18 10V11H17Z"
	/>
	<path
		fill-rule="evenodd"
		clip-rule="evenodd"
		d="M2.92658 2.01995L1.86408 0.181885H0.278853L2.03738 3.09098L0.233398 6.00007H1.83567L2.92658 4.14211H2.97203L4.06294 6.00007H5.67658L3.86408 3.09098L5.61976 0.181885H4.0459L2.97203 2.01995H2.92658ZM10.501 3.14459C12.6168 3.14459 14.4007 5.19774 14.9497 8L18 8L14.5 11.5L11 8L14.017 8C13.4997 5.91794 12.121 4.42876 10.5016 4.42876C8.89275 4.42876 7.52157 5.89841 6.9964 7.95898L6.0603 7.95899C6.61867 5.17773 8.39544 3.14459 10.501 3.14459ZM6.14594 12.0683H7.10575C7.69554 13.9258 8.99425 15.2158 10.5016 15.2158C11.8394 15.2158 13.0128 14.1996 13.6722 12.6724L14.4035 13.4038C13.5831 15.2652 12.1418 16.5 10.501 16.5C8.49328 16.5 6.78451 14.6514 6.14594 12.0683Z"
	/>
</svg>