<svg
	width="18"
	height="18"
	viewBox="0 0 18 18"
	xmlns="http://www.w3.org/2000/svg"
>
	<path d="M1.86408 0.181885L2.92658 2.01995H2.97203L4.0459 0.181885H5.61976L3.86408 3.09098L5.67658 6.00007H4.06294L2.97203 4.14211H2.92658L1.83567 6.00007H0.233398L2.03738 3.09098L0.278853 0.181885H1.86408Z" />
	<path
		opacity="0.3"
		fill-rule="evenodd"
		clip-rule="evenodd"
		d="M11.8293 8C11.9398 7.68722 12 7.35064 12 7C12 6.64936 11.9398 6.31278 11.8293 6H14.9999V8L11.8293 8ZM7.99976 9.82921C8.3126 9.93981 8.64927 10 9 10C9.35054 10 9.68705 9.93988 9.99976 9.82938V18H7.99976V9.82921ZM6.38634 8.47376C6.72248 9.0686 7.25581 9.53726 7.89757 9.79096L-0.585786 18.2743L-2 16.8601L6.38634 8.47376Z"
	/>
	<path
		fill-rule="evenodd"
		clip-rule="evenodd"
		d="M18 7L15 4V10L18 7ZM11 7C11 8.10457 10.1046 9 9 9C7.89543 9 7 8.10457 7 7C7 5.89543 7.89543 5 9 5C10.1046 5 11 5.89543 11 7ZM11.8291 8C11.9397 7.68722 11.9998 7.35064 11.9998 7C11.9998 6.64936 11.9397 6.31278 11.8291 6H14.9997V8H11.8291Z"
	/>
</svg>