<svg width="24" height="24" viewBox="0 0 24 24" xmlns="http://www.w3.org/2000/svg">
<path fill-rule="evenodd" clip-rule="evenodd" d="M12.0068 6C11.7705 6 11.5452 6.10477 11.389 6.28805L8.48916 9.95258C8.31007 10.1735 8.00296 10.2307 7.75944 10.0868L5.22459 8.51013L5.22028 8.50769C4.9355 8.34623 4.58448 8.37316 4.32546 8.57622C4.0673 8.78025 3.94807 9.12046 4.02127 9.4479L5.52772 17.0592C5.62353 17.604 6.08219 18 6.61752 18H17.3825C17.9178 18 18.3765 17.604 18.4723 17.0592L19.9788 9.44788C20.052 9.12047 19.9323 8.77995 19.6742 8.57591C19.4152 8.37286 19.0644 8.34615 18.7797 8.5076L16.2404 10.0869C15.997 10.232 15.6868 10.1743 15.5062 9.95201L12.6279 6.29185L12.6247 6.28805C12.4684 6.10477 12.2432 6 12.0068 6ZM9.74029 11.0248L12.0048 8.1629L14.2534 11.022L14.2608 11.0313C14.947 11.8786 16.1258 12.0973 17.0549 11.5411L17.0649 11.5351L18.0632 10.9142L16.9537 16.3193H7.0463L5.93681 10.9143L6.93536 11.5353L6.94954 11.5437C7.87609 12.094 9.05031 11.8777 9.7355 11.0307L9.74029 11.0248Z" />
</svg>
