<svg width="24" height="24" viewBox="0 0 24 24" xmlns="http://www.w3.org/2000/svg">
<path fill-rule="evenodd" clip-rule="evenodd" d="M7.62989 9.99495L5.05426 8.4465C4.80823 8.31167 4.50521 8.33391 4.28142 8.50349C4.05764 8.67446 3.95478 8.95938 4.01872 9.23323L5.54933 17.7085C5.6353 18.1846 6.04968 18.5308 6.53341 18.5308H17.4666C17.9503 18.5308 18.3647 18.1846 18.4507 17.7085L19.9813 9.23323C20.0452 8.95941 19.9424 8.67447 19.7186 8.50349C19.4948 8.33391 19.1917 8.31167 18.9457 8.4465L16.3701 9.99495C16.0698 10.1687 15.6876 10.1006 15.4652 9.8351L12.5406 6.24046C12.4058 6.08757 12.2112 6 12.0069 6C11.8026 6 11.608 6.08757 11.4731 6.24046L8.53058 9.8351C8.30957 10.0992 7.93011 10.1673 7.62989 9.99495ZM12.0052 7.80069L9.6091 10.7278L9.60424 10.7336C8.94728 11.5186 7.82136 11.7192 6.93285 11.2091L6.92063 11.2021L5.66007 10.4442L6.86764 17.1308H17.1324L18.3399 10.4442L17.0814 11.2008L17.0713 11.2067C16.1804 11.7222 15.05 11.5196 14.392 10.7341L14.3855 10.7264L12.0052 7.80069Z"/>
</svg>
