<svg
	width="24"
	height="24"
	viewBox="0 0 24 24"
	fill="none"
	xmlns="http://www.w3.org/2000/svg"
>
	<path
		d="M19.6542 4L18.3192 18.9558L12.3181 20.6195L6.33362 18.9582L5 4H19.6542Z"
		fill="#264DE4"
	/>
	<path
		d="M17.1762 18.0035L18.3171 5.22308H12.3271V19.3479L17.1762 18.0035Z"
		fill="#2965F1"
	/>
	<path
		d="M8.0573 10.7708L8.22173 12.6053H12.3271V10.7708H8.0573Z"
		fill="#EBEBEB"
	/>
	<path
		d="M12.3271 7.05762H12.3208H7.72691L7.89368 8.89219H12.3271V7.05762Z"
		fill="#EBEBEB"
	/>
	<path
		d="M12.3271 17.444V15.5353L12.3191 15.5375L10.2759 14.9858L10.1453 13.5226H9.15249H8.3037L8.56072 16.4032L12.3187 17.4464L12.3271 17.444Z"
		fill="#EBEBEB"
	/>
	<path
		d="M14.5798 12.6053L14.3669 14.9846L12.3208 15.5369V17.4455L16.0817 16.4032L16.1093 16.0932L16.5404 11.2634L16.5852 10.7708L16.9164 7.05762H12.3208V8.89219H14.9058L14.7389 10.7708H12.3208V12.6053H14.5798Z"
		fill="white"
	/>
</svg>