<svg width="20" height="20" viewBox="0 0 20 20" fill="none" xmlns="http://www.w3.org/2000/svg">
<path d="M9 6.2832H8.42676C7.71413 6.28336 7.66603 6.69987 7.66602 7.00391V8.81738C7.65599 9.86487 6.98887 9.94351 6.49707 9.98926V10.0107C6.98863 10.0455 7.65599 10.1244 7.66602 11.1719V12.9961C7.66607 13.3002 7.71439 13.7157 8.42676 13.7158H9V15H7.77246C6.94199 15 6.2627 14.5265 6.2627 13.3555V11.4189C6.2627 10.7199 5.29137 10.6416 5 10.6416V9.35742C5.29134 9.35742 6.2625 9.27923 6.2627 8.58105V6.63281C6.2627 5.462 6.90744 5 7.77246 5H9V6.2832ZM12.2627 5C13.0575 5 13.7362 5.47381 13.7363 6.64355V8.58105C13.7366 9.27901 14.6718 9.35741 15 9.35742V10.6416C14.6719 10.6416 13.7365 10.7199 13.7363 11.4189V13.3672C13.7363 14.5378 13.093 14.9999 12.2285 15H11V13.7158H11.5732C12.2866 13.7157 12.333 13.3003 12.333 12.9961V11.1816C12.3447 10.1347 13.011 10.0566 13.5029 10.0107V9.98926C13.0108 9.95455 12.3446 9.87555 12.333 8.82812V7.00391C12.333 6.69985 12.2864 6.28425 11.5732 6.28418H11V5H12.2627Z" fill="black"/>
</svg>
