<svg
	width="24"
	height="24"
	viewBox="0 0 24 24"
	xmlns="http://www.w3.org/2000/svg"
>
	<path
		fill-rule="evenodd"
		clip-rule="evenodd"
		d="M22.3819 7.89422C22.4927 7.84908 22.6064 7.79549 22.723 7.73343L24 7.0141L23.3703 5.99859L22.0933 6.72638C21.9883 6.78843 21.8892 6.85331 21.7959 6.92102C21.7026 6.98308 21.6181 7.0536 21.5423 7.13258C21.5773 7.03103 21.6006 6.92384 21.6122 6.811C21.6297 6.69817 21.6385 6.58251 21.6385 6.46403V5H20.3615V6.48096C20.3615 6.71227 20.3965 6.92948 20.4665 7.13258C20.3265 6.9859 20.1399 6.85049 19.9067 6.72638L18.6297 5.98166L18 6.99718L19.277 7.73343C19.3878 7.79549 19.4985 7.8519 19.6093 7.90268C19.726 7.94781 19.8396 7.97884 19.9504 7.99577C19.7289 8.04654 19.5044 8.13681 19.277 8.26657L18 8.9859L18.6297 9.99295L19.9067 9.27362C20.0117 9.21157 20.1108 9.14951 20.2041 9.08745C20.2974 9.01975 20.3819 8.9464 20.4577 8.86742C20.4227 8.96897 20.3965 9.07616 20.379 9.189C20.3673 9.30183 20.3615 9.41749 20.3615 9.53597V11H21.6385V9.51904C21.6385 9.28773 21.6035 9.07052 21.5335 8.86742C21.6735 9.0141 21.8601 9.14951 22.0933 9.27362L23.3703 10.0099L24 9.00282L22.723 8.26657C22.5015 8.13117 22.2741 8.0409 22.0408 7.99577C22.1574 7.9732 22.2711 7.93935 22.3819 7.89422ZM3.7326 13.2319C3.85626 13.2773 3.97087 13.3592 4.07644 13.4773V15.4728C4.01611 15.5455 3.95428 15.6107 3.89095 15.6683C3.83062 15.7228 3.76578 15.7683 3.69641 15.8046C3.62704 15.841 3.55012 15.8698 3.46567 15.891C3.38424 15.9092 3.29225 15.9183 3.1897 15.9183C3.0781 15.9183 2.97706 15.8955 2.88658 15.8501C2.7961 15.8046 2.71768 15.7304 2.65132 15.6273C2.58798 15.5213 2.53822 15.3834 2.50202 15.2137C2.46583 15.044 2.44773 14.8349 2.44773 14.5864C2.44773 14.3289 2.47036 14.1092 2.5156 13.9273C2.56084 13.7455 2.62267 13.5986 2.70109 13.4864C2.78252 13.3713 2.87753 13.288 2.98611 13.2364C3.09469 13.1849 3.21383 13.1592 3.34352 13.1592C3.47925 13.1592 3.60894 13.1834 3.7326 13.2319ZM5.47893 16.9273V10.1228H4.07644V12.5092C3.94071 12.391 3.78991 12.297 3.62402 12.2273C3.45813 12.1577 3.25304 12.1228 3.00873 12.1228C2.71014 12.1228 2.43718 12.1849 2.18986 12.3092C1.94254 12.4334 1.7299 12.6061 1.55195 12.8273C1.37701 13.0455 1.24129 13.3061 1.14477 13.6092C1.04826 13.9092 1 14.2349 1 14.5864C1 14.9683 1.04223 15.3092 1.12668 15.6092C1.21414 15.9061 1.33328 16.1577 1.48409 16.3637C1.63489 16.5698 1.81435 16.7273 2.02246 16.8364C2.23057 16.9455 2.45678 17.0001 2.70109 17.0001C2.86094 17.0001 3.00873 16.9834 3.14446 16.9501C3.2832 16.9198 3.41138 16.8758 3.52901 16.8183C3.64966 16.7577 3.76125 16.6864 3.8638 16.6046C3.96635 16.5228 4.06437 16.4319 4.15787 16.3319L4.26645 16.691C4.32074 16.8486 4.43535 16.9273 4.61029 16.9273H5.47893ZM8.15469 15.0819C8.33566 15.0455 8.56639 15.0213 8.84689 15.0092V15.6637C8.70815 15.8061 8.57092 15.9092 8.43519 15.9728C8.29947 16.0364 8.14112 16.0683 7.96015 16.0683C7.79125 16.0683 7.66307 16.0364 7.5756 15.9728C7.48813 15.9061 7.4444 15.7925 7.4444 15.6319C7.4444 15.5501 7.464 15.4743 7.50321 15.4046C7.54544 15.3349 7.61933 15.2728 7.7249 15.2183C7.83046 15.1637 7.97373 15.1183 8.15469 15.0819ZM7.26343 12.3092C6.9196 12.4304 6.60592 12.6167 6.3224 12.8683L6.57576 13.3092C6.61798 13.3758 6.67227 13.4334 6.73863 13.4819C6.80498 13.5304 6.88642 13.5546 6.98293 13.5546C7.09151 13.5546 7.18501 13.5364 7.26343 13.5001C7.34185 13.4637 7.42178 13.4228 7.50321 13.3773C7.58766 13.3319 7.68267 13.291 7.78824 13.2546C7.8938 13.2183 8.02953 13.2001 8.19541 13.2001C8.40352 13.2001 8.56338 13.2622 8.67497 13.3864C8.78959 13.5077 8.84689 13.7061 8.84689 13.9819V14.1819C8.31002 14.194 7.86515 14.2486 7.51226 14.3455C7.15938 14.4425 6.87888 14.5637 6.67077 14.7092C6.46265 14.8516 6.31637 15.0107 6.23192 15.1864C6.14747 15.3592 6.10524 15.5304 6.10524 15.7001C6.10524 15.9122 6.13842 16.1001 6.20478 16.2637C6.27113 16.4243 6.36463 16.5592 6.48527 16.6683C6.60894 16.7773 6.75823 16.8607 6.93317 16.9183C7.1081 16.9728 7.30264 17.0001 7.51679 17.0001C7.67664 17.0001 7.82141 16.9864 7.95111 16.9592C8.08382 16.9349 8.20748 16.897 8.32209 16.8455C8.43972 16.791 8.55282 16.7258 8.6614 16.6501C8.76998 16.5743 8.88308 16.4864 9.00071 16.3864L9.10025 16.6455C9.14549 16.7607 9.20129 16.8364 9.26764 16.8728C9.33701 16.9092 9.43805 16.9273 9.57076 16.9273H10.2132V13.9819C10.2132 13.7122 10.171 13.4637 10.0865 13.2364C10.0021 13.0092 9.87991 12.8137 9.72006 12.6501C9.56322 12.4834 9.37019 12.3546 9.14096 12.2637C8.91475 12.1698 8.65989 12.1228 8.37638 12.1228C7.98127 12.1228 7.61029 12.1849 7.26343 12.3092ZM12.7175 17.0001C12.4943 17.0001 12.2967 16.9683 12.1248 16.9046C11.9559 16.838 11.8126 16.7455 11.695 16.6273C11.5804 16.5061 11.4929 16.3607 11.4326 16.191C11.3723 16.0213 11.3421 15.8319 11.3421 15.6228V13.1864H10.944C10.8716 13.1864 10.8098 13.1637 10.7585 13.1183C10.7072 13.0698 10.6816 13.0001 10.6816 12.9092V12.3592L11.4281 12.2137L11.704 11.0637C11.7402 10.9183 11.8428 10.8455 12.0117 10.8455H12.7446V12.2228H13.9073V13.1864H12.7446V15.5273C12.7446 15.6364 12.7702 15.7273 12.8215 15.8001C12.8758 15.8698 12.9527 15.9046 13.0523 15.9046C13.1035 15.9046 13.1457 15.9001 13.1789 15.891C13.2151 15.8789 13.2453 15.8667 13.2694 15.8546C13.2966 15.8395 13.3207 15.8273 13.3418 15.8183C13.3659 15.8061 13.3931 15.8001 13.4232 15.8001C13.4655 15.8001 13.4986 15.8107 13.5228 15.8319C13.5499 15.8501 13.5771 15.8804 13.6042 15.9228L14.0295 16.591C13.8485 16.7273 13.6449 16.8304 13.4187 16.9001C13.1925 16.9667 12.9588 17.0001 12.7175 17.0001ZM16.2399 15.0819C16.4208 15.0455 16.6516 15.0213 16.9321 15.0092V15.6637C16.7933 15.8061 16.6561 15.9092 16.5204 15.9728C16.3847 16.0364 16.2263 16.0683 16.0453 16.0683C15.8764 16.0683 15.7483 16.0364 15.6608 15.9728C15.5733 15.9061 15.5296 15.7925 15.5296 15.6319C15.5296 15.5501 15.5492 15.4743 15.5884 15.4046C15.6306 15.3349 15.7045 15.2728 15.8101 15.2183C15.9156 15.1637 16.0589 15.1183 16.2399 15.0819ZM15.3486 12.3092C15.0048 12.4304 14.6911 12.6167 14.4076 12.8683L14.6609 13.3092C14.7032 13.3758 14.7575 13.4334 14.8238 13.4819C14.8902 13.5304 14.9716 13.5546 15.0681 13.5546C15.1767 13.5546 15.2702 13.5364 15.3486 13.5001C15.427 13.4637 15.507 13.4228 15.5884 13.3773C15.6729 13.3319 15.7679 13.291 15.8734 13.2546C15.979 13.2183 16.1147 13.2001 16.2806 13.2001C16.4887 13.2001 16.6486 13.2622 16.7602 13.3864C16.8748 13.5077 16.9321 13.7061 16.9321 13.9819V14.1819C16.3952 14.194 15.9503 14.2486 15.5974 14.3455C15.2446 14.4425 14.9641 14.5637 14.756 14.7092C14.5478 14.8516 14.4016 15.0107 14.3171 15.1864C14.2327 15.3592 14.1904 15.5304 14.1904 15.7001C14.1904 15.9122 14.2236 16.1001 14.29 16.2637C14.3563 16.4243 14.4498 16.5592 14.5705 16.6683C14.6941 16.7773 14.8434 16.8607 15.0184 16.9183C15.1933 16.9728 15.3878 17.0001 15.602 17.0001C15.7618 17.0001 15.9066 16.9864 16.0363 16.9592C16.169 16.9349 16.2927 16.897 16.4073 16.8455C16.5249 16.791 16.638 16.7258 16.7466 16.6501C16.8552 16.5743 16.9683 16.4864 17.0859 16.3864L17.1854 16.6455C17.2307 16.7607 17.2865 16.8364 17.3528 16.8728C17.4222 16.9092 17.5232 16.9273 17.6559 16.9273H18.2984V13.9819C18.2984 13.7122 18.2562 13.4637 18.1717 13.2364C18.0873 13.0092 17.9651 12.8137 17.8052 12.6501C17.6484 12.4834 17.4554 12.3546 17.2262 12.2637C16.9999 12.1698 16.7451 12.1228 16.4616 12.1228C16.0665 12.1228 15.6955 12.1849 15.3486 12.3092Z"
	/>
</svg>