<svg width="24" height="24" viewBox="0 0 24 24" xmlns="http://www.w3.org/2000/svg">
<path d="M12 14C11.4477 14 11 14.4477 11 15C11 15.5523 11.4477 16 12 16C12.5523 16 13 15.5523 13 15C13 14.4477 12.5523 14 12 14Z" />
<path fill-rule="evenodd" clip-rule="evenodd" d="M8 8C8 6.89543 8.89543 6 10 6H14C15.1046 6 16 6.89543 16 8V16C16 17.1046 15.1046 18 14 18H10C8.89543 18 8 17.1046 8 16V8ZM10 7.5H14C14.2761 7.5 14.5 7.72386 14.5 8V16C14.5 16.2761 14.2761 16.5 14 16.5H10C9.72386 16.5 9.5 16.2761 9.5 16V8C9.5 7.72386 9.72386 7.5 10 7.5Z" />
</svg>
