<svg width="24" height="24" viewBox="0 0 24 24"  xmlns="http://www.w3.org/2000/svg">
<path d="M10 12C10 11.4477 9.55228 11 9 11C8.44772 11 8 11.4477 8 12C8 12.5523 8.44772 13 9 13C9.55228 13 10 12.5523 10 12Z" />
<path fill-rule="evenodd" clip-rule="evenodd" d="M16 8C17.1046 8 18 8.89543 18 10V14C18 15.1046 17.1046 16 16 16H8C6.89543 16 6 15.1046 6 14V10C6 8.89543 6.89543 8 8 8H16ZM16.5 10V14C16.5 14.2761 16.2761 14.5 16 14.5L8 14.5C7.72386 14.5 7.5 14.2761 7.5 14L7.5 10C7.5 9.72386 7.72386 9.5 8 9.5L16 9.5C16.2761 9.5 16.5 9.72386 16.5 10Z" />
</svg>
