<svg width="24" height="24" viewBox="0 0 24 24"  xmlns="http://www.w3.org/2000/svg">
<path d="M4 11V16H3C2.44772 16 2 16.4477 2 17C2 17.5523 2.44772 18 3 18H21C21.5523 18 22 17.5523 22 17C22 16.4477 21.5523 16 21 16H20V8C20 6.89543 19.1046 6 18 6H9.13074L9.41234 6.47658L8.3375 7L9.36424 7.5H18C18.2761 7.5 18.5 7.72386 18.5 8V15H5.5V11H4Z" />
<path d="M4.34759 10L4.47059 7.89063L2.65241 9.05208L2 7.94792L3.94118 7L2 6.05208L2.65241 4.94792L4.47059 6.10937L4.34759 4H5.64706L5.52941 6.10937L7.34759 4.94792L8 6.05208L6.05348 7L8 7.94792L7.34759 9.05208L5.52941 7.89063L5.64706 10H4.34759Z" />
</svg>
