<svg
	width="18"
	height="18"
	viewBox="0 0 18 18"
	xmlns="http://www.w3.org/2000/svg"
>
	<path
		fill-rule="evenodd"
		clip-rule="evenodd"
		d="M12.495 5.50501C12.7683 5.77838 12.7683 6.2216 12.495 6.49496L9.98993 9L12.495 11.505C12.7683 11.7784 12.7683 12.2216 12.495 12.495C12.2216 12.7683 11.7784 12.7683 11.505 12.495L8.99998 9.98995L6.49496 12.495C6.2216 12.7683 5.77838 12.7683 5.50501 12.495C5.23165 12.2216 5.23165 11.7784 5.50501 11.505L8.01003 9L5.50501 6.49501C5.23165 6.22164 5.23165 5.77843 5.50501 5.50506C5.77838 5.23169 6.22159 5.23169 6.49496 5.50506L8.99997 8.01005L11.505 5.50501C11.7784 5.23165 12.2216 5.23165 12.495 5.50501Z"
	/>
</svg>