<svg width="18" height="18" viewBox="0 0 18 18" xmlns="http://www.w3.org/2000/svg">
<path opacity="0.4" fill-rule="evenodd" clip-rule="evenodd" d="M3 1C1.89543 1 1 1.89543 1 3V15C1 16.1046 1.89543 17 3 17H15C16.1046 17 17 16.1046 17 15V3C17 1.89543 16.1046 1 15 1H3ZM3 2C2.44772 2 2 2.44772 2 3V15C2 15.5523 2.44772 16 3 16H15C15.5523 16 16 15.5523 16 15V3C16 2.44772 15.5523 2 15 2H3Z"/>
<path opacity="0.3" d="M8.27 8.977L5.622 11.624L6.329 12.331L8.977 9.684L11.632 12.339L12.339 11.632L9.684 8.977L12.334 6.326L11.627 5.619L8.977 8.269L6.37 5.663L5.663 6.37L8.27 8.977Z"/>
</svg>
