<svg width="24" height="24" viewBox="0 0 24 24" xmlns="http://www.w3.org/2000/svg">
<path fill-rule="evenodd" clip-rule="evenodd" d="M15.9143 6.59042C15.7939 6.55124 15.647 6.54375 15.0659 6.54375H8.93384C8.35281 6.54375 8.20683 6.55123 8.08637 6.59042C7.95922 6.63179 7.84203 6.69954 7.74325 6.78874C7.64951 6.8734 7.57057 6.99598 7.28274 7.49802C7.28273 7.49802 7.28274 7.49802 7.28274 7.49802L6.74562 8.43487H17.2544L16.718 7.49915C16.718 7.49914 16.718 7.49915 16.718 7.49915C16.4299 6.99669 16.3505 6.87359 16.2565 6.78874C16.1571 6.69893 16.0406 6.6315 15.9143 6.59042ZM17.7179 9.71265H6.28205V16.0454C6.28205 16.4996 6.28255 16.8017 6.30158 17.0338C6.32 17.2584 6.35252 17.3606 6.38546 17.425C6.4767 17.6035 6.62193 17.7483 6.79988 17.8387C6.86431 17.8714 6.96673 17.9038 7.1919 17.9221C7.42452 17.9411 7.72729 17.9416 8.18216 17.9416H15.8178C16.2727 17.9416 16.5753 17.9411 16.8078 17.9221C17.0327 17.9038 17.135 17.8714 17.1995 17.8387C17.3781 17.748 17.5238 17.6028 17.6147 17.425C17.6476 17.3607 17.68 17.2587 17.6984 17.0345C17.7174 16.8028 17.7179 16.5012 17.7179 16.0478V9.71265ZM15.1499 5.26592C15.6048 5.26552 15.9724 5.26519 16.3121 5.3757C16.6112 5.473 16.8852 5.63218 17.1174 5.84183C17.3825 6.08129 17.5646 6.39938 17.7906 6.7944C17.8039 6.81773 17.8174 6.84133 17.8311 6.86519L18.9156 8.75681C18.9709 8.85334 19 8.96259 19 9.07376V16.0734C19 16.4944 19 16.8486 18.9762 17.1386C18.9513 17.442 18.8973 17.7308 18.757 18.0051C18.5431 18.4236 18.2011 18.7641 17.7815 18.9772C17.5063 19.117 17.2166 19.1709 16.9122 19.1957C16.6213 19.2194 16.266 19.2194 15.8436 19.2194H8.15648C7.73404 19.2194 7.37854 19.2194 7.08748 19.1957C6.78308 19.1709 6.49315 19.117 6.21785 18.9772C5.79754 18.7638 5.45673 18.4229 5.24314 18.0051C5.1028 17.7306 5.04869 17.4416 5.02379 17.1379C4.99998 16.8476 4.99999 16.4928 5 16.071L5 9.07376C5 8.96258 5.02911 8.85332 5.08446 8.75679L6.1696 6.86407C6.18362 6.83961 6.19746 6.81542 6.21114 6.79152C6.43614 6.39828 6.61777 6.08083 6.88243 5.84183C7.11526 5.63157 7.39033 5.47272 7.68857 5.3757C8.02827 5.2652 8.39499 5.26552 8.84992 5.26592C8.87757 5.26594 8.90554 5.26597 8.93384 5.26597H15.0659C15.0942 5.26597 15.1222 5.26594 15.1499 5.26592ZM12 10.8115C12.354 10.8115 12.641 11.0976 12.641 11.4504V15.01L14.029 14.0878C14.3236 13.892 14.7216 13.9714 14.918 14.265C15.1144 14.5585 15.0348 14.9552 14.7402 15.1509L12.3556 16.7354C12.1403 16.8785 11.8597 16.8785 11.6444 16.7354L9.25981 15.1509C8.96524 14.9552 8.88564 14.5585 9.08202 14.265C9.2784 13.9714 9.67639 13.892 9.97096 14.0878L11.359 15.01V11.4504C11.359 11.0976 11.646 10.8115 12 10.8115Z" />
</svg>
