<svg width="24" height="24" viewBox="0 0 24 24"  xmlns="http://www.w3.org/2000/svg">
<path fill-rule="evenodd" clip-rule="evenodd" d="M12 3C7.02944 3 3 7.02944 3 12C3 16.9706 7.02944 21 12 21C16.9706 21 21 16.9706 21 12C21 7.02944 16.9706 3 12 3ZM7 8C7 7.44772 7.44772 7 8 7H16C16.5523 7 17 7.44772 17 8V10H16V8H8V16H10V17H8C7.44772 17 7 16.5523 7 16V8ZM12.5 13C12.5 12.4477 12.9477 12 13.5 12H16.5C17.0523 12 17.5 12.4477 17.5 13V16C17.5 16.5523 17.0523 17 16.5 17H13.5C12.9477 17 12.5 16.5523 12.5 16V13Z" />
</svg>
