<svg width="24" height="24" viewBox="0 0 24 24"  xmlns="http://www.w3.org/2000/svg">
<path fill-rule="evenodd" clip-rule="evenodd" d="M12 3C7.02944 3 3 7.02944 3 12C3 16.9706 7.02944 21 12 21C16.9706 21 21 16.9706 21 12C21 7.02944 16.9706 3 12 3ZM10.78 6.69396C10.8089 6.52108 10.8985 6.364 11.0329 6.25066C11.1673 6.13733 11.3378 6.07508 11.5139 6.075H12.4861C12.6624 6.07491 12.833 6.13707 12.9675 6.25042C13.1021 6.36378 13.1918 6.52096 13.2207 6.69396L13.4023 7.77937C13.9881 7.97187 14.5211 8.28209 14.9714 8.68115L16.0083 8.29467C16.1732 8.23339 16.3547 8.23227 16.5204 8.29151C16.6861 8.35075 16.8254 8.46651 16.9134 8.61822L17.3994 9.45486C17.4878 9.60667 17.519 9.78475 17.4877 9.95736C17.4563 10.13 17.3644 10.2859 17.2282 10.3974L16.3737 11.0963C16.4971 11.691 16.4971 12.3044 16.3737 12.8991L17.229 13.5995C17.365 13.711 17.4568 13.8668 17.4881 14.0392C17.5195 14.2116 17.4883 14.3896 17.4002 14.5413L16.9141 15.3779C16.8261 15.5296 16.6869 15.6454 16.5212 15.7046C16.3554 15.7639 16.174 15.7628 16.009 15.7015L14.9714 15.315C14.5211 15.7148 13.9889 16.0243 13.4023 16.2168L13.2207 17.3022C13.1918 17.4752 13.1021 17.6324 12.9675 17.7457C12.833 17.8591 12.6624 17.9212 12.4861 17.9212H11.5139C11.3378 17.9211 11.1673 17.8588 11.0329 17.7455C10.8985 17.6322 10.8089 17.4751 10.78 17.3022L10.5984 16.2168C10.0189 16.0261 9.48485 15.7192 9.02935 15.315L7.99174 15.7015C7.82676 15.763 7.64519 15.7644 7.47932 15.7053C7.31344 15.6461 7.17403 15.5304 7.08588 15.3787L6.59982 14.5413C6.5117 14.3896 6.48053 14.2116 6.51188 14.0392C6.54323 13.8668 6.63505 13.711 6.77102 13.5995L7.62627 12.8991C7.50293 12.3044 7.50293 11.691 7.62627 11.0963L6.77177 10.3974C6.6358 10.2859 6.54397 10.1301 6.51263 9.95769C6.48128 9.78525 6.51244 9.60734 6.60057 9.4556L7.08662 8.61822C7.17466 8.46634 7.31402 8.35047 7.4799 8.29122C7.64579 8.23197 7.82742 8.23319 7.99248 8.29467L9.02935 8.68115C9.48484 8.27696 10.0189 7.97003 10.5984 7.77937L10.78 6.69396ZM14.2338 11.9981C14.2338 12.2898 14.176 12.5786 14.0638 12.8481C13.9516 13.1176 13.7871 13.3624 13.5797 13.5687C13.3724 13.7749 13.1262 13.9385 12.8553 14.0502C12.5844 14.1618 12.294 14.2192 12.0007 14.2192C11.7075 14.2192 11.4171 14.1618 11.1462 14.0502C10.8753 13.9385 10.6291 13.7749 10.4218 13.5687C10.2144 13.3624 10.0499 13.1176 9.93771 12.8481C9.82549 12.5786 9.76773 12.2898 9.76773 11.9981C9.76773 11.409 10.003 10.844 10.4218 10.4275C10.8405 10.0109 11.4085 9.77692 12.0007 9.77692C12.593 9.77692 13.161 10.0109 13.5797 10.4275C13.9985 10.844 14.2338 11.409 14.2338 11.9981Z" />
</svg>
