<svg width="24" height="24" viewBox="0 0 24 24"  xmlns="http://www.w3.org/2000/svg">
<path fill-rule="evenodd" clip-rule="evenodd" d="M12 3C7.02944 3 3 7.02944 3 12C3 16.9706 7.02944 21 12 21C16.9706 21 21 16.9706 21 12C21 7.02944 16.9706 3 12 3ZM12 14.7307C9.8599 14.7307 7.97091 13.6506 6.849 12C7.97091 10.3494 9.8599 9.26929 12 9.26929C14.1401 9.26929 16.0291 10.3494 17.151 12C16.0291 13.6506 14.1401 14.7307 12 14.7307ZM5.62753 12.4476C5.45749 12.1732 5.45749 11.8268 5.62753 11.5524C6.94884 9.42006 9.30873 8 12 8C14.6913 8 17.0512 9.42006 18.3725 11.5524C18.5425 11.8268 18.5425 12.1732 18.3725 12.4476C17.0512 14.5799 14.6913 16 12 16C9.30873 16 6.94884 14.5799 5.62753 12.4476ZM11.9998 13.7918C12.9885 13.7918 13.7899 12.9897 13.7899 12.0002C13.7899 11.0107 12.9885 10.2085 11.9998 10.2085C11.0112 10.2085 10.2097 11.0107 10.2097 12.0002C10.2097 12.9897 11.0112 13.7918 11.9998 13.7918Z" />
</svg>
