<svg width="24" height="24" viewBox="0 0 24 24" xmlns="http://www.w3.org/2000/svg">
<path d="M12 3C16.9706 3 21 7.02944 21 12C21 16.9706 16.9706 21 12 21C7.02944 21 3 16.9706 3 12C3 7.02944 7.02944 3 12 3ZM12.8535 5.93555C12.8803 5.46965 12.2825 5.26731 12.0273 5.65527L7.20996 12.9648L7.17871 13.0195C7.02833 13.33 7.27041 13.7062 7.62695 13.6738L10.415 13.416L10.1455 18.0645C10.1189 18.5295 10.7164 18.7318 10.9717 18.3457L15.7891 11.0352L15.8203 10.9805C15.9711 10.6694 15.7295 10.2935 15.373 10.3262L12.583 10.583L12.8535 5.93555ZM11.8496 7.63086L11.0928 10.9316C10.9905 11.3788 11.3303 11.8056 11.7891 11.8057C12.2837 11.8057 12.6286 12.2963 12.4609 12.7617L11.1455 16.4111L11.3477 12.9404V12.8809C11.3438 12.8208 11.3285 12.7619 11.3018 12.708C11.2749 12.654 11.2371 12.6058 11.1914 12.5664C11.1457 12.5271 11.0925 12.4971 11.0352 12.4785C10.9777 12.46 10.9166 12.4528 10.8564 12.458L8.48535 12.6768L11.8535 7.56445L11.8496 7.63086Z"/>
</svg>
