<svg width="24" height="24" viewBox="0 0 24 24" xmlns="http://www.w3.org/2000/svg">
<path fill-rule="evenodd" clip-rule="evenodd" d="M12 3C7.02944 3 3 7.02944 3 12C3 16.9706 7.02944 21 12 21C16.9706 21 21 16.9706 21 12C21 7.02944 16.9706 3 12 3ZM15.6117 10.1117L14.75 12L13.8883 10.1117L12 9.25L13.8883 8.38834L14.75 6.5L15.6117 8.38834L17.5 9.25L15.6117 10.1117ZM10.1667 10.1667L11.3125 12.6875L13.8333 13.8333L11.3125 14.9792L10.1667 17.5L9.02081 14.9792L6.5 13.8333L9.02081 12.6875L10.1667 10.1667Z"/>
</svg>
