<svg width="24" height="24" viewBox="0 0 24 24" xmlns="http://www.w3.org/2000/svg">
<path d="M12 3C16.9706 3 21 7.02944 21 12C21 16.9706 16.9706 21 12 21C7.02944 21 3 16.9706 3 12C3 7.02944 7.02944 3 12 3ZM12 6C8.72727 6 6 8.65909 6 12C6 15.2727 8.65909 18 12 18C15.2727 18 18 15.3409 18 12C18 8.65909 15.2727 6 12 6ZM9.34082 14.1816C9.61352 15.2043 10.023 16.0905 10.5684 16.7041C9.34109 16.295 8.182 15.3407 7.56836 14.1816H9.34082ZM16.3633 14.1816C15.8178 15.3407 14.7269 16.295 13.3633 16.7041C13.9087 16.0223 14.3181 15.2043 14.5908 14.1816H16.3633ZM13.5684 14.1133C13.2275 15.2042 12.6818 16.0909 12 16.5C11.3182 16.0227 10.7725 15.2042 10.4316 14.1133H13.5684ZM9.2041 10.7041C9.13593 11.1131 9.13672 11.5226 9.13672 11.9316C9.13672 12.3407 9.2041 12.7501 9.2041 13.1592H7.22754C7.09118 12.7501 7.09082 12.3407 7.09082 11.9316C7.09084 11.5226 7.15937 11.1131 7.22754 10.7041H9.2041ZM13.7725 10.7041C13.8406 11.1131 13.8408 11.4545 13.8408 11.9316C13.8408 12.4089 13.7725 12.7501 13.7725 13.1592H10.2275C10.1594 12.7501 10.1592 12.4089 10.1592 11.9316C10.1592 11.5226 10.2275 11.1131 10.2275 10.7041H13.7725ZM16.7725 10.7041C16.9088 11.1131 16.9092 11.5226 16.9092 11.9316C16.9092 12.3407 16.8406 12.7501 16.7725 13.1592H14.7959C14.8641 12.7501 14.8633 12.3407 14.8633 11.9316C14.8633 11.5226 14.7959 11.1131 14.7959 10.7041H16.7725ZM10.6367 7.15918C10.0913 7.84099 9.68191 8.72728 9.40918 9.75H7.56836C8.182 8.52276 9.27311 7.56826 10.6367 7.15918ZM12 7.36328C12.6818 7.84055 13.2275 8.65909 13.5684 9.75H10.4316C10.7725 8.65909 11.3182 7.77237 12 7.36328ZM13.3633 7.15918C14.7269 7.56826 15.818 8.52276 16.4316 9.75H14.6592C14.3183 8.72727 13.9087 7.841 13.3633 7.15918Z" />
</svg>
