<svg width="24" height="24" viewBox="0 0 24 24" xmlns="http://www.w3.org/2000/svg">
<path fill-rule="evenodd" clip-rule="evenodd" d="M12 3C7.02944 3 3 7.02944 3 12C3 16.9706 7.02944 21 12 21C16.9706 21 21 16.9706 21 12C21 7.02944 16.9706 3 12 3ZM11 17H9.77216C8.94169 17 8.2631 16.5268 8.2631 15.3557V13.4189C8.2631 12.7199 7.29137 12.6417 7 12.6417V11.3575C7.29137 11.3575 8.2631 11.2792 8.2631 10.5808V8.63279C8.2631 7.46197 8.90714 7 9.77216 7H11V8.28361H10.4272C9.71403 8.28361 9.66568 8.69994 9.66568 9.00406V10.8176C9.65566 11.8652 8.98862 11.9433 8.4968 11.9891V12.0105C8.98839 12.0452 9.65566 12.1242 9.66568 13.1718V14.9956C9.66568 15.2998 9.71403 15.7161 10.4272 15.7161H11V17ZM13 7H14.2626C15.0575 7 15.736 7.47391 15.736 8.64393V10.5808C15.736 11.2791 16.6719 11.3575 17 11.3575V12.6417C16.672 12.6417 15.736 12.7198 15.736 13.4191V15.367C15.736 16.5378 15.0929 17 14.2282 17H13V15.7163H13.573C14.2867 15.7163 14.3331 15.3001 14.3331 14.9959V13.1819C14.3446 12.1347 15.0108 12.0564 15.5028 12.0105V11.9891C15.0107 11.9544 14.3446 11.8756 14.3331 10.8281V9.00415C14.3331 8.70004 14.2865 8.2837 13.573 8.2837H13V7Z"/>
</svg>
