<svg width="24" height="24" viewBox="0 0 24 24" xmlns="http://www.w3.org/2000/svg">
<path d="M12 3C16.9706 3 21 7.02944 21 12C21 16.9706 16.9706 21 12 21C7.02944 21 3 16.9706 3 12C3 7.02944 7.02944 3 12 3ZM8.9873 12.8115C8.86281 12.8115 8.74038 12.8445 8.63281 12.9072C8.52535 12.9699 8.43637 13.0598 8.375 13.168L6.5918 16.3154C6.53113 16.4225 6.49926 16.5439 6.5 16.667C6.50079 16.7899 6.53385 16.9104 6.5957 17.0166C6.65766 17.1229 6.74682 17.2111 6.85352 17.2725C6.96016 17.3337 7.08113 17.3662 7.2041 17.3662H10.7705C10.8936 17.3662 11.0144 17.3338 11.1211 17.2725C11.2278 17.2111 11.317 17.1229 11.3789 17.0166C11.4407 16.9104 11.4738 16.7898 11.4746 16.667C11.4754 16.5439 11.4435 16.4225 11.3828 16.3154L9.59961 13.168C9.53828 13.0598 9.44919 12.9699 9.3418 12.9072C9.23428 12.8446 9.11174 12.8116 8.9873 12.8115ZM14.0557 12.792C13.9323 12.792 13.811 12.8241 13.7041 12.8857C13.5971 12.9475 13.5081 13.0366 13.4463 13.1436L12.5332 14.7275C12.4716 14.8345 12.4385 14.9556 12.4385 15.0791C12.4385 15.2026 12.4715 15.3237 12.5332 15.4307L13.4463 17.0146L13.498 17.0918C13.5638 17.1772 13.6485 17.2464 13.7451 17.2939C13.8417 17.3415 13.948 17.3662 14.0557 17.3662H15.8828C15.9905 17.3662 16.0968 17.3415 16.1934 17.2939C16.29 17.2464 16.3747 17.1772 16.4404 17.0918L16.4922 17.0146L17.4053 15.4307C17.467 15.3237 17.5 15.2026 17.5 15.0791C17.5 14.9556 17.467 14.8345 17.4053 14.7275L16.4922 13.1436C16.4304 13.0366 16.3413 12.9475 16.2344 12.8857C16.1275 12.8241 16.0062 12.792 15.8828 12.792H14.0557ZM10.167 16.3105H7.80762L8.9873 14.2285L10.167 16.3105ZM15.6787 13.8477L16.3896 15.0791L15.6797 16.3105H14.2598L13.5488 15.0791H13.5479L14.2588 13.8477H15.6787ZM14.9688 6.63379C14.3156 6.63392 13.6894 6.89364 13.2275 7.35547C12.7657 7.81735 12.5059 8.44353 12.5059 9.09668C12.5059 9.41999 12.5697 9.74034 12.6934 10.0391C12.8171 10.3379 12.9988 10.6101 13.2275 10.8389C13.4562 11.0675 13.7276 11.2493 14.0264 11.373C14.3251 11.4968 14.6454 11.5605 14.9688 11.5605C15.2922 11.5605 15.6133 11.4968 15.9121 11.373C16.2109 11.2493 16.4822 11.0675 16.7109 10.8389C16.9397 10.6101 17.1213 10.3379 17.2451 10.0391C17.3688 9.74034 17.4326 9.41999 17.4326 9.09668C17.4326 8.44353 17.1727 7.81735 16.7109 7.35547C16.249 6.89353 15.622 6.63379 14.9688 6.63379ZM7.40332 6.80957C7.21687 6.80965 7.03814 6.88383 6.90625 7.01562C6.77427 7.14761 6.7002 7.32702 6.7002 7.51367V10.6807L6.70312 10.752C6.71957 10.9128 6.79109 11.0633 6.90527 11.1777C7.0196 11.2922 7.17014 11.3642 7.33105 11.3809L7.40332 11.3838H10.5703L10.6426 11.3809C10.8157 11.3631 10.9761 11.2815 11.0928 11.1523C11.2095 11.0231 11.2744 10.8548 11.2744 10.6807V7.51367C11.2744 7.32702 11.2003 7.14761 11.0684 7.01562C10.9364 6.88365 10.757 6.80957 10.5703 6.80957H7.40332ZM14.9688 7.68945C15.3421 7.68945 15.7009 7.83759 15.9648 8.10156C16.2287 8.36547 16.3769 8.72351 16.377 9.09668C16.377 9.46982 16.2286 9.82786 15.9648 10.0918C15.7009 10.3558 15.3421 10.5049 14.9688 10.5049C14.5956 10.5048 14.2375 10.3557 13.9736 10.0918C13.7099 9.82786 13.5615 9.46982 13.5615 9.09668C13.5616 8.72351 13.7098 8.36547 13.9736 8.10156C14.2375 7.83771 14.5956 7.68958 14.9688 7.68945ZM10.2188 7.86523V10.3281H7.75586V7.86523H10.2188Z"/>
</svg>
