<svg width="25" height="24" viewBox="0 0 25 24" xmlns="http://www.w3.org/2000/svg">
<path fill-rule="evenodd" clip-rule="evenodd" d="M12.5 3C7.52944 3 3.5 7.02944 3.5 12C3.5 16.9706 7.52944 21 12.5 21C17.4706 21 21.5 16.9706 21.5 12C21.5 7.02944 17.4706 3 12.5 3ZM9 8C8.44772 8 8 8.44772 8 9V11C8 11.5523 8.44772 12 9 12H16C16.5523 12 17 11.5523 17 11V9C17 8.44772 16.5523 8 16 8H9ZM9 14H11V16H9V14ZM8 14C8 13.4477 8.44772 13 9 13H11C11.5523 13 12 13.4477 12 14V16C12 16.5523 11.5523 17 11 17H9C8.44772 17 8 16.5523 8 16V14ZM16 14H14V16H16V14ZM14 13C13.4477 13 13 13.4477 13 14V16C13 16.5523 13.4477 17 14 17H16C16.5523 17 17 16.5523 17 16V14C17 13.4477 16.5523 13 16 13H14Z"/>
</svg>
