<svg
	width="24"
	height="24"
	viewBox="0 0 24 24"
	xmlns="http://www.w3.org/2000/svg"
>
	<path
		fill-rule="evenodd"
		clip-rule="evenodd"
		d="M12 3C7.02944 3 3 7.02944 3 12C3 16.9706 7.02944 21 12 21C16.9706 21 21 16.9706 21 12C21 7.02944 16.9706 3 12 3ZM11.7032 7.19263C11.7591 7.07463 11.8742 7 12 7C12.1257 7 12.2408 7.07463 12.2967 7.19263L13.6133 9.96786C13.6478 10.041 13.7145 10.0917 13.7915 10.1037L16.7172 10.5579C16.8415 10.5774 16.9449 10.6688 16.9838 10.7943C17.0226 10.9196 16.9905 11.0574 16.9007 11.1495L14.7885 13.319C14.733 13.3762 14.7075 13.4583 14.7204 13.5389L15.2123 16.5948C15.233 16.7249 15.182 16.8562 15.0801 16.9335C14.9783 17.0112 14.8436 17.0216 14.7318 16.9605L12.1103 15.526C12.0412 15.4883 11.9587 15.4883 11.8897 15.526L9.26814 16.9605C9.1564 17.0216 9.02163 17.0112 8.91985 16.9335C8.81792 16.8561 8.76696 16.7249 8.7877 16.5948L9.27954 13.5389C9.29246 13.4583 9.26694 13.3762 9.21143 13.319L7.0993 11.1495C7.0095 11.0574 6.97736 10.9196 7.0162 10.7943C7.05504 10.6688 7.1584 10.5774 7.28274 10.5579L10.2085 10.1037C10.2854 10.0917 10.3521 10.041 10.3867 9.96786L11.7032 7.19263Z"
	/>
</svg>