<svg width="24" height="24" viewBox="0 0 24 24" xmlns="http://www.w3.org/2000/svg">
<path fill-rule="evenodd" clip-rule="evenodd" d="M8.5 7C7.94772 7 7.5 7.44772 7.5 8V16C7.5 16.5523 7.94772 17 8.5 17H16.5C17.0523 17 17.5 16.5523 17.5 16V8C17.5 7.44772 17.0523 7 16.5 7H8.5ZM8.5 8H16.5V16H8.5V8Z"/>
<path fill-rule="evenodd" clip-rule="evenodd" d="M12.5 3C7.52944 3 3.5 7.02944 3.5 12C3.5 16.9706 7.52944 21 12.5 21C17.4706 21 21.5 16.9706 21.5 12C21.5 7.02944 17.4706 3 12.5 3ZM8.5 6C7.39543 6 6.5 6.89543 6.5 8V16C6.5 17.1046 7.39543 18 8.5 18H16.5C17.6046 18 18.5 17.1046 18.5 16V8C18.5 6.89543 17.6046 6 16.5 6H8.5Z"/>
</svg>
