<svg width="24" height="24" viewBox="0 0 24 24"  xmlns="http://www.w3.org/2000/svg">
<path fill-rule="evenodd" clip-rule="evenodd" d="M12.5 3C7.52944 3 3.5 7.02944 3.5 12C3.5 16.9706 7.52944 21 12.5 21C17.4706 21 21.5 16.9706 21.5 12C21.5 7.02944 17.4706 3 12.5 3ZM11 6.5C11 5.67157 11.6716 5 12.5 5C13.3284 5 14 5.67157 14 6.5C14 7.32843 13.3284 8 12.5 8C11.6716 8 11 7.32843 11 6.5ZM7 16.5C7 15.6716 7.67157 15 8.5 15C9.32843 15 10 15.6716 10 16.5C10 17.3284 9.32843 18 8.5 18C7.67157 18 7 17.3284 7 16.5ZM16.5 15C15.6716 15 15 15.6716 15 16.5C15 17.3284 15.6716 18 16.5 18C17.3284 18 18 17.3284 18 16.5C18 15.6716 17.3284 15 16.5 15ZM13 9L12 9L12 9.38462V11H9.17857C8 11 8 12 8 12.3846V14H9V12.3846C9 12.1722 9.17589 12 9.39286 12H12L13 12L15.6071 12C15.8241 12 16 12.1722 16 12.3846L16 14L17 14L17 12.3846C17 11.5 16.5 11 15.6071 11L13 11V9Z" />
</svg>
