<svg
	width="20"
	height="20"
	viewBox="0 0 20 20"
	xmlns="http://www.w3.org/2000/svg"
>
	<path
		fill-rule="evenodd"
		clip-rule="evenodd"
		d="M5 15.3108L6.13731 13.9471C4.58717 13.1522 3.31384 11.8938 2.5 10.3548C3.922 7.66563 6.7468 5.8333 10 5.8333C10.8969 5.8333 11.7613 5.97257 12.5728 6.23067L14.2943 4.1665L15.2851 4.99288L6.04167 16.0763L6.04846 16.0819L5.99766 16.1428L5 15.3108ZM6.88236 13.0538L8.10495 11.5878C7.87374 11.2332 7.73933 10.8097 7.73933 10.3547C7.73933 9.10564 8.75214 8.09396 10.0001 8.09396C10.3096 8.09396 10.6046 8.15609 10.8732 8.26857L11.7804 7.18076C11.2103 7.03892 10.6139 6.96367 10 6.96367C7.40015 6.96367 5.11454 8.31333 3.80784 10.3548C4.55444 11.5212 5.6206 12.4617 6.88236 13.0538Z"
	/>
	<path
		d="M8.92874 14.8092C9.2796 14.8535 9.63713 14.8763 10 14.8763C13.2532 14.8763 16.0791 13.0439 17.5 10.3548C16.9023 9.22362 16.0561 8.24407 15.034 7.48873L14.3086 8.3585C15.0544 8.89916 15.6948 9.57672 16.1933 10.3548C14.8855 12.3962 12.5998 13.7459 10 13.7459C9.93896 13.7459 9.87809 13.7451 9.8174 13.7437L8.92874 14.8092Z"
	/>
</svg>