<svg
	width="18"
	height="18"
	viewBox="0 0 18 18"
	xmlns="http://www.w3.org/2000/svg"
>
	<g opacity="0.4">
		<path
			fill-rule="evenodd"
			clip-rule="evenodd"
			d="M5 3C4.44772 3 4 3.44772 4 4V16C4 16.5523 4.44772 17 5 17H17C17.5523 17 18 16.5523 18 16V4C18 3.44772 17.5523 3 17 3H5ZM17 4H5V16H17V4Z"
		/>
		<path
			d="M13.7917 10L17 14.2857V16H6L13.7917 10Z"
		/>
		<circle cx="8.5" cy="7.5" r="1.5" />
	</g>
	<path
		fill-rule="evenodd"
		clip-rule="evenodd"
		d="M2 1C1.44772 1 1 1.44772 1 2V14C1 14.5523 1.44772 15 2 15H14C14.5523 15 15 14.5523 15 14V2C15 1.44772 14.5523 1 14 1H2ZM14 2H2V14H14V2Z"
	/>
	<path
		d="M10.7917 8L14 12.2857V14H3L10.7917 8Z"
	/>
	<circle cx="5.5" cy="5.5" r="1.5" />
</svg>