<svg
	width="18"
	height="18"
	viewBox="0 0 18 18"
	xmlns="http://www.w3.org/2000/svg"
>
	<path
		d="M8.73879 3.64495C8.86449 3.48685 8.9849 3.33812 9.1 3.2C9.8 4 10.4 4.8 10.9 5.5C11.7 6.6 12.4 7.7 12.9 8.6C13.0423 8.86436 13.1599 9.10392 13.2568 9.32034C12.4597 9.31622 11.6433 9.86171 10.7455 10.4615C9.65424 11.1907 7.99963 12.027 7 12C5.30244 11.9541 4.94393 11.6517 4.5191 11.2934L4.51726 11.2918C4.50584 11.1625 4.5 11.0318 4.5 10.9C4.5 10.8479 4.50302 10.7837 4.51168 10.7064C4.01288 10.5001 3.565 10.1926 3.19038 9.80716C3.06815 10.2055 3 10.5698 3 10.9C3 14.3 5.7 17 9.1 17C12.5 17 15.2 14.3 15.2 10.9C15.2 10.1 14.9 9.1 14.2 7.9C13.7 6.9 13 5.8 12.1 4.7C11.5 3.8 10.8 3 10 2.1L9 1L8 2.1C7.94576 2.18135 7.89071 2.26189 7.83492 2.34175C7.87981 2.40838 7.92391 2.47565 7.96721 2.54375C8.25576 2.91349 8.51295 3.28324 8.73879 3.64495Z"
	/>
	<path
		d="M8.5082 5.45C8.2623 4.95 7.91803 4.4 7.47541 3.85C7.18033 3.4 6.83607 3 6.44262 2.55L5.95082 2L5.45902 2.55C5.16393 3 4.81967 3.4 4.47541 3.85C4.08197 4.45 3.7377 5 3.4918 5.45C3.19672 6.05 3 6.55 3 6.95C3 8.65 4.32787 10 6 10C7.67213 10 9 8.65 9 6.95C9 6.55 8.85246 6.05 8.5082 5.45Z"
	/>
</svg>