<svg
	width="18"
	height="18"
	viewBox="0 0 18 18"
	xmlns="http://www.w3.org/2000/svg"
>
	<path
		fill-rule="evenodd"
		clip-rule="evenodd"
		d="M12.1 4.7C13 5.8 13.7 6.9 14.2 7.9C14.9 9.1 15.2 10.1 15.2 10.9C15.2 14.3 12.5 17 9.1 17C5.7 17 3 14.3 3 10.9C3 10.1 3.4 9.1 4 7.9C4.5 7 5.2 5.9 6 4.7C6.21594 4.42236 6.43188 4.15424 6.64489 3.88976C7.12236 3.29691 7.58509 2.72236 8 2.1L9 1L10 2.1C10.8 3 11.5 3.8 12.1 4.7ZM9 15.4989C6.54425 15.4438 4.5 13.3666 4.5 10.9C4.5 10.6 4.6 9.9 5.3 8.6C5.8 7.7 6.4 6.7 7.3 5.5C7.5089 5.23141 7.7089 4.97172 7.89999 4.7236C8.30708 4.19503 8.67375 3.71893 9 3.32101V15.4989Z"
	/>
</svg>