<svg
	width="18"
	height="18"
	viewBox="0 0 18 18"
	xmlns="http://www.w3.org/2000/svg"
>
	<path
		opacity="0.6"
		fill-rule="evenodd"
		clip-rule="evenodd"
		d="M12 4.55224V16.2815C11.6829 16.4508 11.3486 16.593 11 16.705V3.24944C11.3587 3.67817 11.6921 4.1039 12 4.55224ZM13 5.89162V15.6114C13.3741 15.3024 13.71 14.9493 14 14.5594V7.51469C13.7188 6.99199 13.3855 6.44653 13 5.89162ZM15 9.66961V12.4732C15.1306 11.9723 15.2 11.4452 15.2 10.9C15.2 10.5322 15.1366 10.122 15 9.66961ZM10 2.1V16.9358C9.70665 16.9781 9.40616 17 9.1 17C9.0666 17 9.03326 16.9997 9 16.9992V15.4989V3.32101V1L10 2.1ZM8 2.1C7.5851 2.72235 7.12238 3.29689 6.6449 3.88974L6.64489 3.88976C6.43188 4.15424 6.21594 4.42236 6 4.7C5.2 5.9 4.5 7 4 7.9C3.4 9.1 3 10.1 3 10.9C3 13.9239 5.13565 16.394 8 16.9036V15.362C6.01332 14.8562 4.5 13.0222 4.5 10.9C4.5 10.6 4.6 9.9 5.3 8.6C5.8 7.7 6.4 6.7 7.3 5.5C7.5089 5.23141 7.7089 4.97172 7.89999 4.7236C7.9336 4.67996 7.96694 4.63668 8 4.59377V2.1Z"
	/>
	<path
		d="M14.2 7.9C13.7 6.9 13 5.8 12.1 4.7C11.5 3.8 10.8 3 10 2.1L9 1L8 2.1C7.4 3 6.7 3.8 6 4.7C5.2 5.9 4.5 7 4 7.9C3.4 9.1 3 10.1 3 10.9C3 14.3 5.7 17 9.1 17C12.5 17 15.2 14.3 15.2 10.9C15.2 10.1 14.9 9.1 14.2 7.9ZM9.1 15.5C6.6 15.5 4.5 13.4 4.5 10.9C4.5 10.6 4.6 9.9 5.3 8.6C5.8 7.7 6.4 6.7 7.3 5.5C8 4.6 8.6 3.8 9.1 3.2C9.8 4 10.4 4.8 10.9 5.5C11.7 6.6 12.4 7.7 12.9 8.6C13.6 9.9 13.7 10.6 13.7 10.9C13.7 13.4 11.6 15.5 9.1 15.5Z"
	/>
</svg>