<svg width="18" height="18" viewBox="0 0 18 18" xmlns="http://www.w3.org/2000/svg">
<path opacity="0.3" fill-rule="evenodd" clip-rule="evenodd" d="M3 1C2.46957 1 1.96086 1.21071 1.58579 1.58579C1.21071 1.96086 1 2.46957 1 3V15C1 15.5304 1.21071 16.0391 1.58579 16.4142C1.96086 16.7893 2.46957 17 3 17H15C15.5304 17 16.0391 16.7893 16.4142 16.4142C16.7893 16.0391 17 15.5304 17 15V3C17 2.46957 16.7893 1.96086 16.4142 1.58579C16.0391 1.21071 15.5304 1 15 1H3ZM3 2C2.73478 2 2.48043 2.10536 2.29289 2.29289C2.10536 2.48043 2 2.73478 2 3V15C2 15.2652 2.10536 15.5196 2.29289 15.7071C2.48043 15.8946 2.73478 16 3 16H15C15.2652 16 15.5196 15.8946 15.7071 15.7071C15.8946 15.5196 16 15.2652 16 15V3C16 2.73478 15.8946 2.48043 15.7071 2.29289C15.5196 2.10536 15.2652 2 15 2H3Z"/>
<path opacity="0.15" d="M2 3C2 2.44772 2.44772 2 3 2H15C15.5523 2 16 2.44772 16 3V15C16 15.5523 15.5523 16 15 16H3C2.44772 16 2 15.5523 2 15V3Z"/>
<path d="M16 12.7139V15C16 15.5523 15.5523 16 15 16H3C2.86918 16 2.74441 15.9744 2.62988 15.9287L13.1143 6.94238L16 12.7139ZM5.57129 2.14258C5.57129 4.03613 4.03613 5.57129 2.14258 5.57129C2.09476 5.57129 2.04734 5.5664 2 5.56445V3C2 2.44772 2.44772 2 3 2H5.56543C5.56737 2.04733 5.57129 2.09478 5.57129 2.14258Z"/>
</svg>
