<svg width="24" height="24" viewBox="0 0 24 24" xmlns="http://www.w3.org/2000/svg">
<path fill-rule="evenodd" clip-rule="evenodd" d="M6.10158 4.02323C6.11091 4.02323 6.12025 4.02323 6.12962 4.02323L12.4119 4.02323C12.611 4.0232 12.8028 4.02318 12.9647 4.03641C13.1419 4.05089 13.3481 4.08486 13.5549 4.19024C13.8432 4.33714 14.0777 4.57155 14.2246 4.85987C14.3299 5.06668 14.3639 5.27288 14.3784 5.4501C14.3916 5.61205 14.3916 5.80375 14.3916 6.00288L14.3916 7.34186L18.4091 7.34186C18.563 7.34182 18.7252 7.34178 18.8608 7.35422C19.0007 7.36704 19.2339 7.40066 19.4501 7.55614C19.7102 7.7431 19.8795 8.03088 19.9166 8.34898C19.9475 8.61352 19.8637 8.83369 19.807 8.96218C19.752 9.08677 19.6731 9.22859 19.5984 9.3631L18.463 11.4068L19.5984 13.4506C19.6731 13.5851 19.752 13.7269 19.807 13.8515C19.8637 13.9799 19.9475 14.2001 19.9166 14.4647C19.8795 14.7828 19.7102 15.0705 19.4501 15.2575C19.2339 15.413 19.0007 15.4466 18.8608 15.4594C18.7252 15.4719 18.563 15.4718 18.4091 15.4718L12.3896 15.4718C12.1905 15.4718 11.9988 15.4718 11.8369 15.4586C11.6596 15.4441 11.4534 15.4101 11.2466 15.3048C10.9583 15.1579 10.7239 14.9235 10.577 14.6351C10.4716 14.4283 10.4377 14.2221 10.4232 14.0449C10.4099 13.883 10.41 13.6913 10.41 13.4921L10.41 12.1531H7.13405L8.97644 19.5227C9.0764 19.9226 8.83329 20.3278 8.43344 20.4277C8.03358 20.5277 7.6284 20.2846 7.52844 19.8847L4.20976 6.61002C4.20924 6.60793 4.20873 6.60584 4.20822 6.60375L4.18557 6.51315C4.1833 6.50406 4.18103 6.49499 4.17877 6.48595C4.11803 6.24312 4.06114 6.01565 4.03073 5.82319C3.99831 5.61805 3.98005 5.36705 4.06164 5.10306C4.1724 4.74468 4.41077 4.43938 4.73158 4.245C4.9679 4.10182 5.21583 4.05865 5.42271 4.04035C5.6168 4.02318 5.85127 4.0232 6.10158 4.02323ZM6.76098 10.6606H11.1482C11.1509 10.6605 11.1536 10.6605 11.1563 10.6605C11.159 10.6605 11.1617 10.6605 11.1643 10.6606H12.3877C12.6201 10.6606 12.7495 10.66 12.8432 10.6523C12.862 10.6508 12.8761 10.6492 12.8862 10.6478C12.8876 10.6377 12.8892 10.6236 12.8908 10.6047C12.8984 10.5111 12.899 10.3817 12.899 10.1493V8.09059C12.899 8.08978 12.899 8.08896 12.899 8.08814C12.899 8.08733 12.899 8.08651 12.899 8.0857V6.02711C12.899 5.7947 12.8984 5.66527 12.8908 5.57164C12.8892 5.55276 12.8876 5.53867 12.8862 5.52861C12.8761 5.52721 12.862 5.52557 12.8432 5.52403C12.7495 5.51638 12.6201 5.5158 12.3877 5.5158H6.12962C5.84141 5.5158 5.67439 5.51648 5.55425 5.52711C5.52965 5.52929 5.51111 5.53163 5.49763 5.53367C5.49892 5.54724 5.50114 5.5658 5.505 5.5902C5.52383 5.70933 5.56367 5.87152 5.63357 6.15113L6.76098 10.6606ZM14.3916 8.83443L14.3916 10.1735C14.3916 10.3726 14.3916 10.5643 14.3784 10.7263C14.3639 10.9035 14.3299 11.1097 14.2246 11.3165C14.0777 11.6048 13.8432 11.8392 13.5549 11.9861C13.3481 12.0915 13.1419 12.1255 12.9647 12.14C12.8028 12.1532 12.6111 12.1532 12.4119 12.1531L11.9026 12.1531V13.4679C11.9026 13.7003 11.9031 13.8297 11.9108 13.9234C11.9123 13.9422 11.914 13.9563 11.9154 13.9664C11.9254 13.9678 11.9395 13.9694 11.9584 13.971C12.052 13.9786 12.1815 13.9792 12.4139 13.9792H18.1846L17.1265 12.0746C17.1229 12.0681 17.1187 12.0607 17.1141 12.0525C17.069 11.973 16.9797 11.8154 16.9429 11.6363C16.9118 11.4849 16.9118 11.3287 16.9429 11.1773C16.9797 10.9982 17.069 10.8406 17.1141 10.7611C17.1187 10.7529 17.1229 10.7455 17.1265 10.739L18.1846 8.83443H14.3916Z"/>
</svg>
