<svg
	width="18"
	height="18"
	viewBox="0 0 18 18"
	xmlns="http://www.w3.org/2000/svg"
>
	<path
		opacity="0.4"
		fill-rule="evenodd"
		clip-rule="evenodd"
		d="M2 15.3C2 14.9134 2.34393 14.6 2.76818 14.6H15.2318C15.6561 14.6 16 14.9134 16 15.3C16 15.6866 15.6561 16 15.2318 16H2.76818C2.34393 16 2 15.6866 2 15.3Z"
	/>
	<path d="M7.5 6.8C7.5 6.35817 7.85817 6 8.3 6L9.7 6C10.1418 6 10.5 6.35817 10.5 6.8L10.5 12.2C10.5 12.6418 10.1418 13 9.7 13H8.3C7.85817 13 7.5 12.6418 7.5 12.2L7.5 6.8Z" />
</svg>