<svg
	width="18"
	height="18"
	viewBox="0 0 18 18"
	xmlns="http://www.w3.org/2000/svg"
>
	<path
		fill-rule="evenodd"
		clip-rule="evenodd"
		d="M11.4809 4.04286C11.7227 4.30822 11.7035 4.71934 11.4382 4.9611L9.43816 6.78322C9.19008 7.00924 8.81073 7.00924 8.56265 6.78322L6.56265 4.9611C6.29728 4.71934 6.27815 4.30822 6.51992 4.04286C6.76168 3.77749 7.17279 3.75836 7.43816 4.00012L8.35041 4.83123L8.34996 1.65012C8.34996 1.29114 8.64097 1.00012 8.99996 1.00012C9.35894 1.00012 9.64996 1.29114 9.64996 1.65012L9.65041 4.83123L10.5627 4.00012C10.828 3.75836 11.2391 3.77749 11.4809 4.04286ZM11.5125 13.9685C11.2676 14.2309 10.8563 14.2451 10.5939 14.0001L9.68738 13.154L9.64996 16.3501C9.64996 16.7091 9.35894 17.0001 8.99996 17.0001C8.64097 17.0001 8.34996 16.7091 8.34996 16.3501L8.38738 13.154L7.48089 14.0001C7.21846 14.2451 6.80715 14.2309 6.5622 13.9685C6.31725 13.706 6.33142 13.2947 6.59386 13.0498L8.59386 11.183C8.84359 10.9499 9.23116 10.9499 9.48089 11.183L11.4809 13.0498C11.7433 13.2947 11.7575 13.706 11.5125 13.9685Z"
	/>
	<path
		opacity="0.4"
		fill-rule="evenodd"
		clip-rule="evenodd"
		d="M15.15 8.9498C15.15 9.30879 14.859 9.5998 14.5 9.5998L3.50002 9.5998C3.14104 9.5998 2.85003 9.30879 2.85003 8.9498C2.85003 8.59082 3.14104 8.2998 3.50002 8.2998L14.5 8.2998C14.859 8.2998 15.15 8.59082 15.15 8.9498Z"
	/>
</svg>