<svg
	width="18"
	height="18"
	viewBox="0 0 18 18"
	xmlns="http://www.w3.org/2000/svg"
>
	<path
		d="M8.49181 4C9.40901 4 10.1661 4.11537 10.763 4.3461C11.3647 4.57684 11.8112 4.92795 12.1024 5.39945C12.3984 5.87095 12.5464 6.47036 12.5464 7.19767C12.5464 7.7394 12.4493 8.20087 12.2552 8.58208C12.0611 8.96329 11.8063 9.2793 11.4909 9.5301C11.1755 9.78089 10.8382 9.98153 10.4791 10.132L13.5 15H11.5273L8.95769 10.591H7.24704V15H5.5V4H8.49181ZM8.37534 5.50479H7.24704V9.10123H8.45541C9.26585 9.10123 9.85305 8.94574 10.217 8.63475C10.5858 8.32376 10.7702 7.8648 10.7702 7.25787C10.7702 6.62084 10.5737 6.1694 10.1806 5.90356C9.79239 5.63771 9.19063 5.50479 8.37534 5.50479Z"
	/>
</svg>