<svg width="24" height="24" viewBox="0 0 24 24" xmlns="http://www.w3.org/2000/svg">
<path fill-rule="evenodd" clip-rule="evenodd" d="M10.361 4.836C10.3998 4.6025 10.5202 4.39034 10.7008 4.23726C10.8813 4.08418 11.1103 4.00011 11.347 4H12.653C12.8899 3.99987 13.1191 4.08384 13.2999 4.23694C13.4806 4.39004 13.6012 4.60233 13.64 4.836L13.884 6.302C14.671 6.562 15.387 6.981 15.992 7.52L17.385 6.998C17.6066 6.91523 17.8504 6.91372 18.0731 6.99373C18.2957 7.07374 18.4828 7.23009 18.601 7.435L19.254 8.565C19.3727 8.77005 19.4147 9.01056 19.3726 9.2437C19.3304 9.47683 19.2069 9.68744 19.024 9.838L17.876 10.782C18.0417 11.5852 18.0417 12.4138 17.876 13.217L19.025 14.163C19.2077 14.3135 19.331 14.5239 19.3732 14.7568C19.4153 14.9898 19.3734 15.2301 19.255 15.435L18.602 16.565C18.4838 16.7699 18.2967 16.9263 18.0741 17.0063C17.8514 17.0863 17.6076 17.0848 17.386 17.002L15.992 16.48C15.387 17.02 14.672 17.438 13.884 17.698L13.64 19.164C13.6012 19.3977 13.4806 19.61 13.2999 19.7631C13.1191 19.9162 12.8899 20.0001 12.653 20H11.347C11.1103 19.9999 10.8813 19.9158 10.7008 19.7627C10.5202 19.6097 10.3998 19.3975 10.361 19.164L10.117 17.698C9.33843 17.4405 8.62097 17.0259 8.00901 16.48L6.61501 17.002C6.39337 17.0851 6.14943 17.0869 5.92658 17.0071C5.70374 16.9273 5.51644 16.771 5.39801 16.566L4.74501 15.435C4.62661 15.2301 4.58475 14.9898 4.62686 14.7568C4.66897 14.5239 4.79234 14.3135 4.97501 14.163L6.12401 13.217C5.95831 12.4138 5.95831 11.5852 6.12401 10.782L4.97601 9.838C4.79334 9.68749 4.66997 9.47707 4.62786 9.24416C4.58575 9.01125 4.62761 8.77095 4.74601 8.566L5.39901 7.435C5.51728 7.22986 5.70451 7.07336 5.92737 6.99333C6.15023 6.91331 6.39425 6.91496 6.61601 6.998L8.00901 7.52C8.62095 6.97407 9.33842 6.55952 10.117 6.302L10.361 4.836ZM15.001 12C15.001 12.394 14.9234 12.7841 14.7726 13.1481C14.6219 13.512 14.4009 13.8427 14.1223 14.1213C13.8438 14.3999 13.513 14.6209 13.1491 14.7716C12.7851 14.9224 12.395 15 12.001 15C11.607 15 11.2169 14.9224 10.853 14.7716C10.489 14.6209 10.1583 14.3999 9.87969 14.1213C9.60111 13.8427 9.38013 13.512 9.22937 13.1481C9.0786 12.7841 9.00101 12.394 9.00101 12C9.00101 11.2044 9.31708 10.4413 9.87969 9.87868C10.4423 9.31607 11.2054 9 12.001 9C12.7967 9 13.5597 9.31607 14.1223 9.87868C14.6849 10.4413 15.001 11.2044 15.001 12Z"/>
</svg>
