<svg width="24" height="24" viewBox="0 0 24 24" xmlns="http://www.w3.org/2000/svg">
<path fill-rule="evenodd" clip-rule="evenodd" d="M10.5582 5.7315C10.5924 5.52719 10.6983 5.34155 10.8571 5.2076C11.0159 5.07366 11.2173 5.0001 11.4256 5H12.5744C12.7828 4.99989 12.9845 5.07336 13.1435 5.20732C13.3025 5.34128 13.4085 5.52704 13.4427 5.7315L13.6573 7.01425C14.3496 7.24175 14.9795 7.60838 15.5117 8.08L16.737 7.62325C16.932 7.55083 17.1465 7.5495 17.3423 7.61951C17.5382 7.68952 17.7027 7.82633 17.8067 8.00563L18.3811 8.99437C18.4855 9.17379 18.5225 9.38424 18.4854 9.58824C18.4484 9.79223 18.3397 9.97651 18.1788 10.1083L17.169 10.9342C17.3147 11.6371 17.3147 12.3621 17.169 13.0649L18.1797 13.8926C18.3404 14.0243 18.4489 14.2084 18.486 14.4122C18.523 14.616 18.4862 14.8263 18.382 15.0056L17.8076 15.9944C17.7036 16.1737 17.539 16.3105 17.3432 16.3805C17.1473 16.4505 16.9329 16.4492 16.7379 16.3768L15.5117 15.92C14.9795 16.3925 14.3505 16.7582 13.6573 16.9857L13.4427 18.2685C13.4085 18.473 13.3025 18.6587 13.1435 18.7927C12.9845 18.9266 12.7828 19.0001 12.5744 19H11.4256C11.2173 18.9999 11.0159 18.9263 10.8571 18.7924C10.6983 18.6585 10.5924 18.4728 10.5582 18.2685L10.3436 16.9857C9.65868 16.7604 9.02755 16.3977 8.48922 15.92L7.26296 16.3768C7.06799 16.4495 6.8534 16.4511 6.65737 16.3812C6.46134 16.3114 6.29658 16.1746 6.1924 15.9952L5.61797 15.0056C5.51382 14.8263 5.47699 14.616 5.51404 14.4122C5.55109 14.2084 5.6596 14.0243 5.82029 13.8926L6.83104 13.0649C6.68528 12.3621 6.68528 11.6371 6.83104 10.9342L5.82117 10.1083C5.66048 9.97656 5.55197 9.79243 5.51492 9.58864C5.47787 9.38484 5.5147 9.17458 5.61885 8.99525L6.19328 8.00563C6.29732 7.82613 6.46202 7.68919 6.65806 7.61916C6.85411 7.54914 7.06877 7.55059 7.26384 7.62325L8.48922 8.08C9.02754 7.60231 9.65867 7.23958 10.3436 7.01425L10.5582 5.7315ZM14.6399 12C14.6399 12.3447 14.5716 12.6861 14.439 13.0045C14.3064 13.323 14.112 13.6124 13.8669 13.8562C13.6219 14.0999 13.331 14.2933 13.0108 14.4252C12.6906 14.5571 12.3474 14.625 12.0009 14.625C11.6543 14.625 11.3112 14.5571 10.991 14.4252C10.6708 14.2933 10.3799 14.0999 10.1348 13.8562C9.88975 13.6124 9.69537 13.323 9.56274 13.0045C9.43012 12.6861 9.36186 12.3447 9.36186 12C9.36186 11.3038 9.6399 10.6361 10.1348 10.1438C10.6297 9.65156 11.301 9.375 12.0009 9.375C12.7008 9.375 13.372 9.65156 13.8669 10.1438C14.3619 10.6361 14.6399 11.3038 14.6399 12Z"/>
</svg>
