<svg width="24" height="24" viewBox="0 0 24 24" xmlns="http://www.w3.org/2000/svg">
<path d="M12.833 6.25C13.4997 7 14.083 7.66699 14.583 8.41699C15.3329 9.33351 15.9164 10.2498 16.333 11.083C16.9163 12.0829 17.1669 12.9164 17.167 13.583C17.167 16.4163 14.9163 18.667 12.083 18.667C9.24983 18.6668 7 16.4162 7 13.583C7.00008 12.9164 7.33307 12.0829 7.83301 11.083C8.24963 10.3331 8.83343 9.41686 9.5 8.41699C10.0833 7.66699 10.667 7 11.167 6.25L12 5.33301L12.833 6.25ZM12.083 7.16699C11.6664 7.66695 11.1662 8.33321 10.583 9.08301C9.83301 10.083 9.33366 10.917 8.91699 11.667C8.33394 12.7499 8.25005 13.3329 8.25 13.583C8.25 15.0613 9.13153 16.3713 10.3877 17.0078C12.3142 16.6212 16.2675 13.3943 12.8359 8.08105C12.6025 7.78194 12.3519 7.47427 12.083 7.16699Z"/>
</svg>
