<svg
	width="24"
	height="24"
	viewBox="0 0 24 24"
	xmlns="http://www.w3.org/2000/svg"
>
	<path d="M3 8.66667C3 7.7474 3.80719 7 4.8 7H10.2H11.55H12H19.2C20.1928 7 21 7.7474 21 8.66667V15.3333C21 16.2526 20.1928 17 19.2 17H12H11.55H10.2H4.8C3.80719 17 3 16.2526 3 15.3333V8.66667ZM12 8.66667V15.3333H19.2V8.66667H12ZM8.01469 9.91406C7.92469 9.72656 7.72219 9.60417 7.5 9.60417C7.27781 9.60417 7.07531 9.72656 6.98531 9.91406L5.18531 13.6641C5.05875 13.9271 5.18812 14.2344 5.47219 14.3516C5.75625 14.4687 6.08813 14.349 6.21469 14.0859L6.465 13.5625H8.535L8.78531 14.0859C8.91187 14.349 9.24375 14.4661 9.52781 14.3516C9.81188 14.237 9.93844 13.9271 9.81469 13.6641L8.01469 9.91406ZM7.5 11.4062L8.03437 12.5208H6.96562L7.5 11.4062ZM15.6 9.60417C15.9094 9.60417 16.1625 9.83854 16.1625 10.125V10.2292H17.4H17.85C18.1594 10.2292 18.4125 10.4635 18.4125 10.75C18.4125 11.0365 18.1594 11.2708 17.85 11.2708H17.7937L17.7488 11.388C17.4984 12.0234 17.1187 12.6016 16.635 13.0911C16.6603 13.1068 16.6856 13.1198 16.7109 13.1328L17.2425 13.4271C17.5097 13.5755 17.5941 13.8958 17.4366 14.1406C17.2791 14.3854 16.9303 14.4661 16.6659 14.3203L16.1344 14.026C16.0078 13.9557 15.8869 13.8828 15.7659 13.8047C15.4678 14 15.15 14.1693 14.8097 14.3099L14.7084 14.3516C14.4244 14.4687 14.0925 14.349 13.9659 14.0859C13.8394 13.8229 13.9687 13.5156 14.2528 13.3984L14.3541 13.3568C14.5341 13.2813 14.7084 13.1979 14.8744 13.1016L14.5312 12.7839C14.3119 12.5807 14.3119 12.25 14.5312 12.0469C14.7506 11.8437 15.1078 11.8437 15.3272 12.0469L15.7378 12.4271L15.7519 12.4401C16.1006 12.099 16.3847 11.7031 16.59 11.2682H15.6H13.575C13.2656 11.2682 13.0125 11.0339 13.0125 10.7474C13.0125 10.4609 13.2656 10.2266 13.575 10.2266H15.0375V10.1224C15.0375 9.83594 15.2906 9.60156 15.6 9.60156V9.60417Z" />
</svg>