<svg width="18" height="18" viewBox="0 0 18 18" xmlns="http://www.w3.org/2000/svg" class="icon-inherit-circle">
<path fill-rule="evenodd" clip-rule="evenodd" d="M9 17C13.4183 17 17 13.4183 17 9C17 4.58172 13.4183 1 9 1C4.58172 1 1 4.58172 1 9C1 13.4183 4.58172 17 9 17ZM9 16C12.866 16 16 12.866 16 9C16 5.13401 12.866 2 9 2C5.13401 2 2 5.13401 2 9C2 12.866 5.13401 16 9 16Z"/>
<path fill-rule="evenodd" clip-rule="evenodd" d="M8.5 2V3H9.5V2H8.5ZM8.5 5V4H9.5V5H8.5ZM8.5 6V7H9.5V6H8.5ZM8.5 9V8H9.5V9H8.5ZM8.5 10V11H9.5V10H8.5Z"/>
<path d="M9.5 9V11.4365L11.1914 9.77587C11.3764 9.59704 11.6763 9.59704 11.8613 9.77587C12.0462 9.95471 12.0462 10.2447 11.8613 10.4235L9.33494 12.8659C9.14996 13.0447 8.85004 13.0447 8.66505 12.8659L6.13874 10.4235C5.95375 10.2447 5.95375 9.95471 6.13874 9.77587C6.32372 9.59704 6.62364 9.59704 6.80863 9.77587L8.5 11.4365V9H9.5Z"/>
</svg>
