<svg width="18" height="18" viewBox="0 0 18 18" xmlns="http://www.w3.org/2000/svg" class="icon-inherit-circle">
<path fill-rule="evenodd" clip-rule="evenodd" d="M9 17C13.4183 17 17 13.4183 17 9C17 4.58172 13.4183 1 9 1C4.58172 1 1 4.58172 1 9C1 13.4183 4.58172 17 9 17ZM9 16C12.866 16 16 12.866 16 9C16 5.13401 12.866 2 9 2C5.13401 2 2 5.13401 2 9C2 12.866 5.13401 16 9 16Z"/>
<path fill-rule="evenodd" clip-rule="evenodd" d="M8.5 2V3H9.5V2H8.5ZM8.5 5V4H9.5V5H8.5ZM8.5 6V7H9.5V6H8.5ZM8.5 9V8H9.5V9H8.5ZM8 10H6V11H8.5H9.5H12V10H10H9.5H8.5H8Z"/>
</svg>
