<svg width="18" height="18" viewBox="0 0 18 18" xmlns="http://www.w3.org/2000/svg" class="icon-inherit-square">
<path fill-rule="evenodd" clip-rule="evenodd" d="M3 1C1.89543 1 1 1.89543 1 3V15C1 16.1046 1.89543 17 3 17H15C16.1046 17 17 16.1046 17 15V3C17 1.89543 16.1046 1 15 1H3ZM3 2C2.44772 2 2 2.44772 2 3V15C2 15.5523 2.44772 16 3 16H15C15.5523 16 16 15.5523 16 15V3C16 2.44772 15.5523 2 15 2H3Z"/>
<path fill-rule="evenodd" clip-rule="evenodd" d="M8.5 3V2H9.5V3H8.5ZM8.5 4V5H9.5V4H8.5ZM8.5 7V6H9.5V7H8.5ZM8.5 8V9V11V11.4365L6.80863 9.77587C6.62364 9.59704 6.32372 9.59704 6.13874 9.77587C5.95375 9.95471 5.95375 10.2447 6.13874 10.4235L8.66505 12.8659C8.85004 13.0447 9.14996 13.0447 9.33494 12.8659L11.8613 10.4235C12.0462 10.2447 12.0462 9.95471 11.8613 9.77587C11.6763 9.59704 11.3764 9.59704 11.1914 9.77587L9.5 11.4365V11V9V8H8.5Z"/>
</svg>
