<svg width="18" height="18" viewBox="0 0 18 18" xmlns="http://www.w3.org/2000/svg" class="icon-inherit-square">
<path fill-rule="evenodd" clip-rule="evenodd" d="M3 1C1.89543 1 1 1.89543 1 3V15C1 16.1046 1.89543 17 3 17H15C16.1046 17 17 16.1046 17 15V3C17 1.89543 16.1046 1 15 1H3ZM3 2C2.44772 2 2 2.44772 2 3V15C2 15.5523 2.44772 16 3 16H15C15.5523 16 16 15.5523 16 15V3C16 2.44772 15.5523 2 15 2H3Z"/>
<path fill-rule="evenodd" clip-rule="evenodd" d="M8.5 2V3H9.5V2H8.5ZM8.5 5V4H9.5V5H8.5ZM8.5 6V7H9.5V6H8.5ZM8.5 9V8H9.5V9H8.5ZM8 10H6V11H8.5H9.5H12V10H10H9.5H8.5H8Z"/>
</svg>
