<svg width="24" height="24" viewBox="0 0 24 24" xmlns="http://www.w3.org/2000/svg">
<path fill-rule="evenodd" clip-rule="evenodd" d="M6 4H18C19.1 4 20 4.9 20 6V7H18.5V6C18.5 5.7 18.3 5.5 18 5.5H6C5.7 5.5 5.5 5.7 5.5 6V18C5.5 18.3 5.7 18.5 6 18.5H8V20H6C4.9 20 4 19.1 4 18V6C4 4.9 4.9 4 6 4Z" />
<path fill-rule="evenodd" clip-rule="evenodd" d="M10 9C9.44772 9 9 9.44772 9 10V12.8889C9 13.4412 9.44771 13.8889 10 13.8889H19C19.5523 13.8889 20 13.4412 20 12.8889V10C20 9.44772 19.5523 9 19 9H10ZM10.3 16.4111V18.7H12.5889V16.4111H10.3ZM10 15.1111C9.44772 15.1111 9 15.5588 9 16.1111V19C9 19.5523 9.44772 20 10 20H12.8889C13.4412 20 13.8889 19.5523 13.8889 19V16.1111C13.8889 15.5588 13.4412 15.1111 12.8889 15.1111H10ZM16.4111 16.4111V18.7H18.7V16.4111H16.4111ZM16.1111 15.1111C15.5588 15.1111 15.1111 15.5588 15.1111 16.1111V19C15.1111 19.5523 15.5588 20 16.1111 20H19C19.5523 20 20 19.5523 20 19V16.1111C20 15.5588 19.5523 15.1111 19 15.1111H16.1111Z" />
</svg>
