<svg width="24" height="24" viewBox="0 0 24 24" fill="none" xmlns="http://www.w3.org/2000/svg">
<g opacity="0.4">
<path d="M8.71289 13.3809V7.46875H10.4648V13.3809C10.4648 13.9512 10.3398 14.4414 10.0898 14.8516C9.83984 15.2578 9.49805 15.5703 9.06445 15.7891C8.63477 16.0078 8.15039 16.1172 7.61133 16.1172C7.05273 16.1172 6.55859 16.0234 6.12891 15.8359C5.69922 15.6484 5.36133 15.3613 5.11523 14.9746C4.86914 14.584 4.74609 14.0898 4.74609 13.4922H6.50977C6.50977 13.8047 6.55273 14.0527 6.63867 14.2363C6.72852 14.4199 6.85547 14.5508 7.01953 14.6289C7.18359 14.707 7.38086 14.7461 7.61133 14.7461C7.83398 14.7461 8.02734 14.6934 8.19141 14.5879C8.35547 14.4824 8.48242 14.3281 8.57227 14.125C8.66602 13.9219 8.71289 13.6738 8.71289 13.3809ZM16.4062 13.7676C16.4062 13.6152 16.3828 13.4785 16.3359 13.3574C16.293 13.2324 16.2109 13.1191 16.0898 13.0176C15.9688 12.9121 15.7988 12.8086 15.5801 12.707C15.3613 12.6055 15.0781 12.5 14.7305 12.3906C14.3438 12.2656 13.9766 12.125 13.6289 11.9688C13.2852 11.8125 12.9805 11.6309 12.7148 11.4238C12.4531 11.2129 12.2461 10.9688 12.0938 10.6914C11.9453 10.4141 11.8711 10.0918 11.8711 9.72461C11.8711 9.36914 11.9492 9.04688 12.1055 8.75781C12.2617 8.46484 12.4805 8.21484 12.7617 8.00781C13.043 7.79688 13.375 7.63477 13.7578 7.52148C14.1445 7.4082 14.5684 7.35156 15.0293 7.35156C15.6582 7.35156 16.207 7.46484 16.6758 7.69141C17.1445 7.91797 17.5078 8.22852 17.7656 8.62305C18.0273 9.01758 18.1582 9.46875 18.1582 9.97656H16.4121C16.4121 9.72656 16.3594 9.50781 16.2539 9.32031C16.1523 9.12891 15.9961 8.97852 15.7852 8.86914C15.5781 8.75977 15.3164 8.70508 15 8.70508C14.6953 8.70508 14.4414 8.75195 14.2383 8.8457C14.0352 8.93555 13.8828 9.05859 13.7812 9.21484C13.6797 9.36719 13.6289 9.53906 13.6289 9.73047C13.6289 9.875 13.6641 10.0059 13.7344 10.123C13.8086 10.2402 13.918 10.3496 14.0625 10.4512C14.207 10.5527 14.3848 10.6484 14.5957 10.7383C14.8066 10.8281 15.0508 10.916 15.3281 11.002C15.793 11.1426 16.2012 11.3008 16.5527 11.4766C16.9082 11.6523 17.2051 11.8496 17.4434 12.0684C17.6816 12.2871 17.8613 12.5352 17.9824 12.8125C18.1035 13.0898 18.1641 13.4043 18.1641 13.7559C18.1641 14.127 18.0918 14.459 17.9473 14.752C17.8027 15.0449 17.5938 15.293 17.3203 15.4961C17.0469 15.6992 16.7207 15.8535 16.3418 15.959C15.9629 16.0645 15.5391 16.1172 15.0703 16.1172C14.6484 16.1172 14.2324 16.0625 13.8223 15.9531C13.4121 15.8398 13.0391 15.6699 12.7031 15.4434C12.3711 15.2168 12.1055 14.9277 11.9062 14.5762C11.707 14.2246 11.6074 13.8086 11.6074 13.3281H13.3711C13.3711 13.5938 13.4121 13.8184 13.4941 14.002C13.5762 14.1855 13.6914 14.334 13.8398 14.4473C13.9922 14.5605 14.1719 14.6426 14.3789 14.6934C14.5898 14.7441 14.8203 14.7695 15.0703 14.7695C15.375 14.7695 15.625 14.7266 15.8203 14.6406C16.0195 14.5547 16.166 14.4355 16.2598 14.2832C16.3574 14.1309 16.4062 13.959 16.4062 13.7676Z" fill="black"/>
</g>
</svg>
