<svg
	width="18"
	height="18"
	viewBox="0 0 18 18"
	xmlns="http://www.w3.org/2000/svg"
>
	<g opacity="0.4">
		<path
			fill-rule="evenodd"
			clip-rule="evenodd"
			d="M2.8 2C3.24183 2 3.6 2.34393 3.6 2.76818L3.6 15.2318C3.6 15.6561 3.24183 16 2.8 16C2.35817 16 2 15.6561 2 15.2318L2 2.76818C2 2.34393 2.35817 2 2.8 2Z"
		/>
		<path
			fill-rule="evenodd"
			clip-rule="evenodd"
			d="M15.2 2C15.6418 2 16 2.34393 16 2.76818V15.2318C16 15.6561 15.6418 16 15.2 16C14.7582 16 14.4 15.6561 14.4 15.2318L14.4 2.76818C14.4 2.34393 14.7582 2 15.2 2Z"
		/>
	</g>
	<path d="M2.80005 5.8C2.80005 5.35817 3.15822 5 3.60005 5L5.00005 5C5.44188 5 5.80005 5.35817 5.80005 5.8L5.80005 12.2C5.80005 12.6418 5.44188 13 5.00005 13H3.60005C3.15822 13 2.80005 12.6418 2.80005 12.2L2.80005 5.8Z" />
	<path d="M12.2001 5.8C12.2001 5.35817 12.5582 5 13.0001 5L14.4001 5C14.8419 5 15.2001 5.35817 15.2001 5.8L15.2 12.2C15.2 12.6418 14.8419 13 14.4 13H13C12.5582 13 12.2 12.6418 12.2 12.2L12.2001 5.8Z" />
</svg>