<svg width="24" height="24" viewBox="0 0 24 24" xmlns="http://www.w3.org/2000/svg">
<path d="M18.0505 14.878C18.3848 14.7262 18.7788 14.8747 18.9305 15.2094C19.082 15.544 18.9337 15.9386 18.5994 16.0904L12.7947 18.7268L12.7938 18.7259C12.5429 18.8401 12.271 18.9003 11.9954 18.9004C11.7193 18.9004 11.4464 18.8404 11.1952 18.7259L5.39044 16.0904C5.05621 15.9386 4.9079 15.544 5.0594 15.2094C5.21103 14.8748 5.60513 14.7263 5.93938 14.878L11.7441 17.5144L11.746 17.5153C11.8242 17.551 11.9094 17.5692 11.9954 17.5692C12.0814 17.5691 12.1666 17.5511 12.2448 17.5153L12.2458 17.5144L18.0505 14.878ZM18.0505 11.7096C18.3848 11.5578 18.7788 11.7064 18.9305 12.041C19.0819 12.3756 18.9336 12.7693 18.5994 12.9211L12.7956 15.5566C12.5443 15.6713 12.2716 15.7311 11.9954 15.7311C11.7191 15.7311 11.4456 15.6722 11.1942 15.5575L5.39044 12.9211C5.05633 12.7693 4.9081 12.3756 5.0594 12.041C5.21105 11.7064 5.6051 11.5578 5.93938 11.7096L11.7441 14.3461H11.746C11.8242 14.3818 11.9094 14.4008 11.9954 14.4008C12.0814 14.4008 12.1666 14.3818 12.2448 14.3461L18.0505 11.7096ZM11.9954 6.2316C11.9095 6.2316 11.8242 6.24981 11.746 6.28544L11.745 6.28637L6.37613 8.73157L11.7515 11.1842L11.8739 11.225C11.9155 11.2341 11.9581 11.238 12.001 11.238C12.0871 11.238 12.173 11.22 12.2513 11.1842L17.6249 8.73807L12.2448 6.28637C12.1666 6.25064 12.0814 6.23165 11.9954 6.2316ZM19 8.73807C19 8.98998 18.9269 9.23626 18.7895 9.4473C18.6521 9.65832 18.4569 9.82559 18.2267 9.92725L18.2257 9.92632L12.8021 12.3956L12.8012 12.3947C12.55 12.5092 12.277 12.5692 12.001 12.5692C11.7246 12.5692 11.4512 12.5095 11.1998 12.3947L5.77618 9.91982C5.77466 9.91915 5.77307 9.91864 5.77155 9.91796L5.76877 9.91703C5.54201 9.81507 5.34916 9.64938 5.21333 9.44081C5.07596 9.22979 5.00284 8.98345 5.00284 8.73157C5.00287 8.47967 5.07591 8.23335 5.21333 8.02233L5.32646 7.87287C5.4487 7.73398 5.59968 7.62234 5.76969 7.5461L11.1942 5.07491L11.3862 4.99879C11.5821 4.93362 11.7881 4.90039 11.9954 4.90039C12.2718 4.90043 12.5451 4.96009 12.7966 5.07491L12.7956 5.07584L18.2257 7.54889C18.3986 7.6252 18.5525 7.73856 18.6764 7.87937L18.7895 8.02883L18.8804 8.19314C18.9589 8.36333 19 8.54911 19 8.73807Z"/>
</svg>
