<svg width="18" height="18" viewBox="0 0 18 18" xmlns="http://www.w3.org/2000/svg">
<path opacity="0.4" fill-rule="evenodd" clip-rule="evenodd" d="M17 6.90039C17 5.79582 16.1046 4.90039 15 4.90039L3 4.90039C1.89543 4.90039 1 5.79582 1 6.90039L1 10.9004C1 12.005 1.89543 12.9004 3 12.9004L15 12.9004C16.1046 12.9004 17 12.005 17 10.9004V6.90039ZM16 6.90039C16 6.34811 15.5523 5.90039 15 5.90039L3 5.90039C2.44772 5.90039 2 6.34811 2 6.90039L2 10.9004C2 11.4527 2.44772 11.9004 3 11.9004L15 11.9004C15.5523 11.9004 16 11.4527 16 10.9004V6.90039Z"/>
<path d="M1 0.900391H17V3.90039H1V0.900391Z"/>
<path d="M1 13.9004H17V16.9004H1V13.9004Z"/>
</svg>
