<svg width="18" height="18" viewBox="0 0 18 18" xmlns="http://www.w3.org/2000/svg">
<path opacity="0.4" fill-rule="evenodd" clip-rule="evenodd" d="M11 16.9004C12.1046 16.9004 13 16.005 13 14.9004L13 2.90039C13 1.79582 12.1046 0.900391 11 0.900391L7 0.900391C5.89543 0.900391 5 1.79582 5 2.90039L5 14.9004C5 16.005 5.89543 16.9004 7 16.9004H11ZM11 15.9004C11.5523 15.9004 12 15.4527 12 14.9004L12 2.90039C12 2.34811 11.5523 1.90039 11 1.90039L7 1.90039C6.44772 1.90039 6 2.34811 6 2.90039L6 14.9004C6 15.4527 6.44772 15.9004 7 15.9004H11Z"/>
<path d="M4 16.9004H1V0.900391H4V16.9004ZM17 16.9004H14V0.900391H17V16.9004Z"/>
</svg>
