<svg
	width="18"
	height="18"
	viewBox="0 0 18 18"
	xmlns="http://www.w3.org/2000/svg"
>
	<path d="M13.4093 4C13.566 3.99982 13.7164 4.06199 13.8272 4.17281C13.938 4.28362 14.0002 4.43396 14 4.59068L13.9982 8.41331C13.9978 8.73916 13.7334 9.00301 13.4075 9.00263C13.0817 9.00226 12.8178 8.7378 12.8182 8.41196V6.16111C12.8182 6.13684 12.8036 6.11494 12.7812 6.10563C12.7588 6.09632 12.733 6.10144 12.7158 6.11859L6.11865 12.7157C6.10146 12.7329 6.09632 12.7587 6.10562 12.7812C6.11492 12.8036 6.13682 12.8182 6.16111 12.8182H8.40627C8.73212 12.8178 8.99658 13.0817 8.99695 13.4075C8.99733 13.7334 8.73348 13.9978 8.40763 13.9982L4.59068 14C4.43397 14.0002 4.28362 13.938 4.17281 13.8272C4.062 13.7164 3.99982 13.566 4 13.4093L4.0018 9.59196C4.00218 9.26611 4.26663 9.00226 4.59248 9.00263C4.91833 9.00301 5.18218 9.26746 5.1818 9.59331V11.8389C5.18178 11.8632 5.19638 11.8851 5.21879 11.8944C5.24121 11.9037 5.26703 11.8986 5.2842 11.8814L11.8814 5.28426C11.8985 5.2671 11.9037 5.24127 11.8944 5.21883C11.8851 5.19639 11.8632 5.18178 11.8389 5.1818H9.59458C9.26873 5.18218 9.00428 4.91833 9.00391 4.59248C9.00353 4.26663 9.26738 4.00218 9.59323 4.0018L13.4093 4Z" />
</svg>