<svg width="18" height="18" viewBox="0 0 18 18" xmlns="http://www.w3.org/2000/svg">
<path fill-rule="evenodd" clip-rule="evenodd" d="M1 3C1 1.89543 1.89543 1 3 1H15C16.1046 1 17 1.89543 17 3V15C17 16.1046 16.1046 17 15 17H3C1.89543 17 1 16.1046 1 15V3ZM2 3C2 2.44772 2.44772 2 3 2H15C15.0761 2 15.1502 2.0085 15.2214 2.0246L2.0246 15.2214C2.0085 15.1502 2 15.0761 2 15V3ZM2.70459 15.9557C2.79796 15.9845 2.89717 16 3 16H15C15.5523 16 16 15.5523 16 15V3C16 2.89717 15.9845 2.79796 15.9557 2.7046L2.70459 15.9557Z"/>
</svg>
