<svg width="24" height="24" viewBox="0 0 24 24"  xmlns="http://www.w3.org/2000/svg">
<path fill-rule="evenodd" clip-rule="evenodd" d="M12 20C16.4183 20 20 16.4183 20 12C20 7.58172 16.4183 4 12 4C7.58172 4 4 7.58172 4 12C4 16.4183 7.58172 20 12 20ZM11.7607 16H13.2695V8.86133H12.0293L9.72949 10.6924L10.457 11.6006L11.2773 10.9414C11.3717 10.86 11.4727 10.7689 11.5801 10.668C11.6908 10.5638 11.764 10.4906 11.7998 10.4482C11.7933 10.5915 11.7868 10.7526 11.7803 10.9316C11.7738 11.1074 11.7689 11.2799 11.7656 11.4492C11.7624 11.6152 11.7607 11.7552 11.7607 11.8691V16Z" />
</svg>
