<svg width="24" height="24" viewBox="0 0 24 24"  xmlns="http://www.w3.org/2000/svg">
<path fill-rule="evenodd" clip-rule="evenodd" d="M12 20C16.4183 20 20 16.4183 20 12C20 7.58172 16.4183 4 12 4C7.58172 4 4 7.58172 4 12C4 16.4183 7.58172 20 12 20ZM14.0459 11.3125C14.1826 11.0716 14.251 10.7868 14.251 10.458C14.251 9.91764 14.0361 9.49935 13.6064 9.20312C13.1768 8.9069 12.5941 8.75879 11.8584 8.75879C11.3376 8.75879 10.8883 8.82552 10.5107 8.95898C10.1364 9.09245 9.80924 9.26009 9.5293 9.46191L10.2275 10.502C10.3415 10.4271 10.4733 10.3506 10.623 10.2725C10.7728 10.1911 10.9404 10.1227 11.126 10.0674C11.3148 10.0088 11.5231 9.97949 11.751 9.97949C12.1156 9.97949 12.376 10.0511 12.5322 10.1943C12.6885 10.3376 12.7666 10.5361 12.7666 10.79C12.7666 10.9756 12.7243 11.1416 12.6396 11.2881C12.5583 11.4313 12.402 11.5452 12.1709 11.6299C11.943 11.7113 11.6094 11.752 11.1699 11.752H10.6182V12.9092H11.1602C11.6061 12.9092 11.9528 12.945 12.2002 13.0166C12.4508 13.0882 12.6266 13.1924 12.7275 13.3291C12.8285 13.4658 12.8789 13.6335 12.8789 13.832C12.8789 14.1706 12.7699 14.4342 12.5518 14.623C12.3369 14.8086 11.9593 14.9014 11.4189 14.9014C11.1292 14.9014 10.8167 14.8623 10.4814 14.7842C10.1462 14.7028 9.82552 14.584 9.51953 14.4277V15.7119C9.81901 15.8421 10.138 15.9382 10.4766 16C10.8184 16.0651 11.1862 16.0977 11.5801 16.0977C12.2474 16.0977 12.7926 16.0033 13.2158 15.8145C13.639 15.6257 13.9515 15.3669 14.1533 15.0381C14.3584 14.7093 14.4609 14.3366 14.4609 13.9199C14.4609 13.4512 14.3112 13.0768 14.0117 12.7969C13.7155 12.5169 13.2809 12.3411 12.708 12.2695V12.2402C12.9977 12.1686 13.2581 12.0563 13.4893 11.9033C13.7236 11.7503 13.9092 11.5534 14.0459 11.3125Z" />
</svg>
