<svg width="24" height="24" viewBox="0 0 24 24"  xmlns="http://www.w3.org/2000/svg">
<path fill-rule="evenodd" clip-rule="evenodd" d="M12 20C16.4183 20 20 16.4183 20 12C20 7.58172 16.4183 4 12 4C7.58172 4 4 7.58172 4 12C4 16.4183 7.58172 20 12 20ZM13.2988 11.6885C12.9603 11.5225 12.5729 11.4395 12.1367 11.4395C11.9023 11.4395 11.7201 11.4508 11.5898 11.4736C11.4596 11.4964 11.3392 11.5192 11.2285 11.542L11.3604 10.1406H13.9092V8.86133H10.0371L9.76855 12.499L10.3691 12.8213C10.5026 12.7855 10.6686 12.7497 10.8672 12.7139C11.069 12.6781 11.2627 12.6602 11.4482 12.6602C11.9333 12.6602 12.293 12.7529 12.5273 12.9385C12.7617 13.124 12.8789 13.391 12.8789 13.7393C12.8789 13.9997 12.8252 14.2145 12.7178 14.3838C12.6136 14.5498 12.459 14.6735 12.2539 14.7549C12.0488 14.833 11.7965 14.8721 11.4971 14.8721C11.1911 14.8721 10.8639 14.8281 10.5156 14.7402C10.1706 14.6491 9.87435 14.5384 9.62695 14.4082V15.7119C9.87435 15.8421 10.1624 15.9382 10.4912 16C10.8232 16.0651 11.1764 16.0977 11.5508 16.0977C12.179 16.0977 12.7031 15.9984 13.123 15.7998C13.5462 15.6012 13.8636 15.3164 14.0752 14.9453C14.29 14.571 14.3975 14.1266 14.3975 13.6123C14.3975 13.1403 14.2998 12.7432 14.1045 12.4209C13.9092 12.0986 13.6406 11.8545 13.2988 11.6885Z" />
</svg>
