<svg width="24" height="24" viewBox="0 0 24 24"  xmlns="http://www.w3.org/2000/svg">
<path fill-rule="evenodd" clip-rule="evenodd" d="M12 20C16.4183 20 20 16.4183 20 12C20 7.58172 16.4183 4 12 4C7.58172 4 4 7.58172 4 12C4 16.4183 7.58172 20 12 20ZM9.53906 16H14.5293V14.7305H11.4189V14.6621L12.3369 13.7979C12.7568 13.4105 13.1149 13.0573 13.4111 12.7383C13.7106 12.4193 13.9385 12.097 14.0947 11.7715C14.251 11.446 14.3291 11.0863 14.3291 10.6924C14.3291 10.3245 14.238 9.99577 14.0557 9.70605C13.8734 9.41309 13.613 9.18197 13.2744 9.0127C12.9391 8.84342 12.5371 8.75879 12.0684 8.75879C11.6419 8.75879 11.2757 8.80762 10.9697 8.90527C10.667 8.99967 10.4001 9.125 10.1689 9.28125C9.94108 9.4375 9.72461 9.60352 9.51953 9.7793L10.3398 10.751C10.623 10.5166 10.8949 10.3359 11.1553 10.209C11.4157 10.082 11.6842 10.0186 11.9609 10.0186C12.2246 10.0186 12.4346 10.0902 12.5908 10.2334C12.7503 10.3734 12.8301 10.585 12.8301 10.8682C12.8301 11.1025 12.7796 11.3223 12.6787 11.5273C12.5811 11.7324 12.4215 11.9603 12.2002 12.2109C11.9821 12.4583 11.6924 12.7676 11.3311 13.1387L9.53906 14.9502V16Z" />
</svg>
