<svg width="24" height="24" viewBox="0 0 24 24"  xmlns="http://www.w3.org/2000/svg">
<path fill-rule="evenodd" clip-rule="evenodd" d="M12 20C16.4183 20 20 16.4183 20 12C20 7.58172 16.4183 4 12 4C7.58172 4 4 7.58172 4 12C4 16.4183 7.58172 20 12 20ZM13.8311 14.5205H14.6904V13.3486H13.8311V8.86133H12.4395L9.30957 13.4707V14.5205H12.3564V16H13.8311V14.5205ZM12.3564 12.1377V13.3486H10.6377L11.9463 11.3711C12.0374 11.2344 12.1172 11.1042 12.1855 10.9805C12.2539 10.8535 12.319 10.7233 12.3809 10.5898H12.4199C12.4167 10.6387 12.4102 10.7249 12.4004 10.8486C12.3939 10.9691 12.3874 11.1074 12.3809 11.2637L12.3613 11.7324C12.3581 11.8887 12.3564 12.0238 12.3564 12.1377Z" />
</svg>
