<svg width="24" height="24" viewBox="0 0 24 24"  xmlns="http://www.w3.org/2000/svg">
<path d="M16.9761 6.17587C16.7341 6.00177 16.4191 5.95237 16.1362 6.04817L14.7364 6.51247C14.2465 6.67497 13.9841 7.20017 14.1474 7.68767C14.3107 8.17517 14.8385 8.43637 15.3284 8.27387L15.5005 8.21577V9.71607H15.031C14.5148 9.71607 14.0978 10.131 14.0978 10.6446C14.0978 11.1582 14.5148 11.5732 15.031 11.5732H16.4308H17.8306C18.3468 11.5732 18.7638 11.1582 18.7638 10.6446C18.7638 10.131 18.3468 9.71607 17.8306 9.71607H17.364V6.93027C17.364 6.63147 17.2211 6.35287 16.9761 6.17587Z" />
<path d="M16.0313 13.7091C16.2552 13.6037 16.512 13.5911 16.7453 13.6741C16.9785 13.7571 17.1691 13.9289 17.275 14.1517C17.381 14.3745 17.3937 14.63 17.3103 14.8621C17.2269 15.0942 17.0542 15.2838 16.8303 15.3893C16.6064 15.4947 16.3496 15.5073 16.1163 15.4243C15.8831 15.3414 15.6925 15.1696 15.5865 14.9468C15.4806 14.724 15.4679 14.4684 15.5513 14.2363C15.6347 14.0042 15.8074 13.8146 16.0313 13.7091ZM15.6463 16.9824L15.448 17.2493C15.1418 17.6614 15.2293 18.2417 15.6434 18.5493C16.0575 18.8569 16.6408 18.767 16.9499 18.3549L18.373 16.4455C18.7813 15.8971 19 15.2355 19 14.5536C19 13.1433 17.851 12 16.4337 12C15.0164 12 13.8674 13.1433 13.8674 14.5536C13.8674 15.6911 14.614 16.6545 15.6492 16.9853L15.6463 16.9824Z" />
<path d="M8.4986 19C8.76106 19 9.00894 18.8897 9.18683 18.6982L11.7531 15.9125C12.1002 15.5353 12.0768 14.9462 11.6948 14.6009C11.3128 14.2556 10.7237 14.2788 10.3767 14.6589L9.4318 15.6833V6.92857C9.4318 6.41496 9.01477 6 8.4986 6C7.98242 6 7.5654 6.41496 7.5654 6.92857V15.6833L6.62053 14.6589C6.2735 14.2817 5.6815 14.2556 5.30239 14.6009C4.92328 14.9462 4.89703 15.5353 5.24406 15.9125L7.81036 18.6982C7.98825 18.8897 8.23613 19 8.4986 19Z" />
</svg>
