<svg
	width="18"
	height="18"
	viewBox="0 0 18 18"
	xmlns="http://www.w3.org/2000/svg"
>
	<g opacity="0.4">
		<path
			fillRule="evenodd"
			clipRule="evenodd"
			d="M7.98 5.01999C7.43876 5.01999 7 5.45875 7 5.99999L7.00683 11.02C7.00683 11.5612 7.44559 12 7.98683 12L9.99683 12C10.5381 12 10.9768 11.5612 10.9768 11.02L10.97 5.99999C10.97 5.45875 10.5312 5.01999 9.99 5.01999L7.98 5.01999Z"
		/>
		<path
			fillRule="evenodd"
			clipRule="evenodd"
			d="M12.9832 5.01999C12.4419 5.01999 12.0032 5.45875 12.0032 5.99999L12.01 11.02C12.01 11.5612 12.4488 12 12.99 12L15 12C15.5412 12 15.98 11.5612 15.98 11.02L15.9732 5.99999C15.9732 5.45875 15.5344 5.01999 14.9932 5.01999L12.9832 5.01999Z"
		/>
	</g>
	<path d="M2.98 4C2.43876 4 2 4.43876 2 4.98V12.32C2 12.8612 2.43876 13.3 2.98 13.3H5C5.54124 13.3 5.98 12.8612 5.98 12.32L5.98 4.98C5.98 4.43876 5.54124 4 5 4H2.98Z" />
</svg>