<svg
	width="18"
	height="18"
	viewBox="0 0 18 18"
	xmlns="http://www.w3.org/2000/svg"
>
	<g opacity="0.4">
		<path
			fill-rule="evenodd"
			clip-rule="evenodd"
			d="M9.99998 12.28C10.5412 12.28 10.98 11.8412 10.98 11.3L10.9732 6.28C10.9732 5.73876 10.5344 5.3 9.99315 5.3L7.98315 5.3C7.44191 5.3 7.00315 5.73876 7.00315 6.28L7.00998 11.3C7.00998 11.8412 7.44874 12.28 7.98998 12.28L9.99998 12.28Z"
		/>
		<path
			fill-rule="evenodd"
			clip-rule="evenodd"
			d="M4.99681 12.28C5.53805 12.28 5.97681 11.8412 5.97681 11.3L5.96998 6.28C5.96998 5.73876 5.53122 5.3 4.98998 5.3L2.97998 5.3C2.43874 5.3 1.99998 5.73876 1.99998 6.28L2.00681 11.3C2.00681 11.8412 2.44557 12.28 2.98681 12.28L4.99681 12.28Z"
		/>
	</g>
	<path d="M15 13.3C15.5412 13.3 15.98 12.8612 15.98 12.32L15.98 4.97999C15.98 4.43875 15.5412 3.99999 15 3.99999L12.98 3.99999C12.4387 3.99999 12 4.43875 12 4.97999L12 12.32C12 12.8612 12.4387 13.3 12.98 13.3L15 13.3Z" />
</svg>