<svg width="18" height="18" viewBox="0 0 18 18" xmlns="http://www.w3.org/2000/svg">
<path opacity="0.3" fill-rule="evenodd" clip-rule="evenodd" d="M3 2C1.89543 2 1 2.89543 1 4V14C1 15.1046 1.89543 16 3 16H11C12.1046 16 13 15.1046 13 14V4C13 2.89543 12.1046 2 11 2H3ZM2.97888 3.01237C2.4266 3.01431 1.98047 3.4636 1.98241 4.01588L2.01773 14.0413C2.01968 14.5936 2.46897 15.0398 3.02125 15.0378L11.0212 15.0096C11.5735 15.0077 12.0196 14.5584 12.0177 14.0061L11.9824 3.98066C11.9804 3.42837 11.5311 2.98224 10.9788 2.98418L2.97888 3.01237Z"/>
<rect x="5" y="6" width="12" height="6"/>
</svg>
