<svg width="18" height="18" viewBox="0 0 18 18" xmlns="http://www.w3.org/2000/svg">
<path opacity="0.4" fill-rule="evenodd" clip-rule="evenodd" d="M17 2.90039C17 1.79582 16.1046 0.900391 15 0.900391L3 0.900391C1.89543 0.900391 1 1.79582 1 2.90039L1 14.9004C1 16.005 1.89543 16.9004 3 16.9004H15C16.1046 16.9004 17 16.005 17 14.9004V2.90039ZM16 2.90039C16 2.34811 15.5523 1.90039 15 1.90039L3 1.90039C2.44772 1.90039 2 2.34811 2 2.90039L2 14.9004C2 15.4527 2.44772 15.9004 3 15.9004L15 15.9004C15.5523 15.9004 16 15.4527 16 14.9004L16 2.90039Z"/>
<path d="M15 14.9004H3V11.9004H15V14.9004ZM15 5.90039H3V2.90039H15V5.90039Z"/>
</svg>
