<svg width="20" height="20" viewBox="0 0 20 20" xmlns="http://www.w3.org/2000/svg">
<path fill-rule="evenodd" clip-rule="evenodd" d="M7.6948 8.83294L11.8206 4.70511C12.7608 3.76497 14.2851 3.76496 15.2252 4.70511C16.1654 5.64526 16.1654 7.16955 15.2252 8.1097L13.9594 9.37546L13.958 9.37695L13.9565 9.3784L10.2156 13.1215L10.2145 13.1204L8.37006 14.9649C8.21628 15.1189 8.08076 15.2544 7.92011 15.3603C7.7783 15.4539 7.62449 15.5278 7.46288 15.5801C7.27982 15.6394 7.0893 15.6605 6.87298 15.6844L4.69402 15.9265C4.50532 15.9474 4.31732 15.8815 4.18306 15.7472C4.04881 15.613 3.98286 15.425 4.00383 15.2363L4.24591 13.0573C4.26976 12.841 4.29094 12.6505 4.35021 12.4674C4.40253 12.3058 4.47645 12.152 4.56997 12.0102C4.6759 11.8495 4.81145 11.714 4.96549 11.5602L7.69379 8.83192L7.6948 8.83294ZM14.3413 5.58899C13.8894 5.13702 13.1566 5.137 12.7046 5.58893L12.3348 5.95734L12.0185 6.27383L13.6588 7.9141L13.9928 7.57993L13.99 7.57714L14.3413 7.22581C14.7933 6.77382 14.7933 6.04099 14.3413 5.58899ZM12.4265 9.14698L10.7863 7.50671L8.11326 10.1811C8.11021 10.1839 8.10703 10.1865 8.10379 10.1892C8.1024 10.1904 8.101 10.1915 8.0996 10.1927L5.88223 12.4113C5.67933 12.6142 5.64099 12.6567 5.6135 12.6983C5.58199 12.7461 5.55708 12.798 5.53945 12.8524C5.52407 12.8999 5.51484 12.9564 5.48315 13.2416L5.46538 13.4015L6.52876 14.4649L6.68873 14.4472C6.97392 14.4155 7.0304 14.4062 7.07789 14.3909C7.13236 14.3732 7.18419 14.3483 7.23198 14.3168C7.27365 14.2893 7.31614 14.251 7.51904 14.0481L8.73713 12.83L8.73992 12.8328L10.2173 11.3554L10.2183 11.3564L12.4265 9.14698Z"/>
</svg>
