<svg
	width="16"
	height="16"
	viewBox="0 0 16 16"
	xmlns="http://www.w3.org/2000/svg"
>
	<path
		opacity="0.3"
		fill-rule="evenodd"
		clip-rule="evenodd"
		d="M0 0H16V16H0V15H1H15V3V1H8V3H1V8H0V0ZM1.5 2C1.77614 2 2 1.77614 2 1.5C2 1.22386 1.77614 1 1.5 1C1.22386 1 1 1.22386 1 1.5C1 1.77614 1.22386 2 1.5 2ZM4 1.5C4 1.77614 3.77614 2 3.5 2C3.22386 2 3 1.77614 3 1.5C3 1.22386 3.22386 1 3.5 1C3.77614 1 4 1.22386 4 1.5ZM5.5 2C5.77614 2 6 1.77614 6 1.5C6 1.22386 5.77614 1 5.5 1C5.22386 1 5 1.22386 5 1.5C5 1.77614 5.22386 2 5.5 2Z"
	/>
	<rect x="7" y="7" width="9" height="9" />
	<rect x="11" y="3" width="1" height="3" />
	<rect x="1" y="11" width="5" height="1" />
	<rect x="9" y="2" width="5" height="1" />
	<rect y="9" width="1" height="5" />
</svg>