<svg
	width="16"
	height="16"
	viewBox="0 0 16 16"
	xmlns="http://www.w3.org/2000/svg"
>
	<path
		opacity="0.3"
		fill-rule="evenodd"
		clip-rule="evenodd"
		d="M15 5.28141V15H1V3H7.31693C7.33847 2.84511 7.37971 2.69278 7.44027 2.54681C7.57966 2.21089 7.81515 1.92367 8.11715 1.72115C8.41915 1.51863 8.77421 1.40982 9.13778 1.40834L9.14351 1.40831L10.3699 1.40832L10.7398 1.03949C10.6848 0.823013 10.6671 0.598267 10.6879 0.374943C10.6997 0.24753 10.724 0.121974 10.7601 0H0V16H16V5.25526C15.8802 5.2902 15.757 5.31373 15.6321 5.32535C15.4199 5.34508 15.2064 5.33008 15 5.28141ZM16 1.14519V0H14.8574L16 1.14519ZM2 1.5C2 1.77614 1.77614 2 1.5 2C1.22386 2 1 1.77614 1 1.5C1 1.22386 1.22386 1 1.5 1C1.77614 1 2 1.22386 2 1.5ZM3.5 2C3.77614 2 4 1.77614 4 1.5C4 1.22386 3.77614 1 3.5 1C3.22386 1 3 1.22386 3 1.5C3 1.77614 3.22386 2 3.5 2ZM6 1.5C6 1.77614 5.77614 2 5.5 2C5.22386 2 5 1.77614 5 1.5C5 1.22386 5.22386 1 5.5 1C5.77614 1 6 1.22386 6 1.5Z"
	/>
	<path
		fill-rule="evenodd"
		clip-rule="evenodd"
		d="M8.17671 4.89601L6.4593 6.90784H6.44214L6.02235 7.41161C5.8767 7.58641 5.76573 7.78612 5.69419 8H1V3H7.31693C7.28891 3.20156 7.29426 3.40745 7.33382 3.60927C7.40379 3.96618 7.57762 4.29444 7.83347 4.55286L8.17671 4.89601ZM15 5.28141C14.9885 5.27869 14.977 5.27587 14.9655 5.27294L14.5996 5.63877V6.86907C14.5981 7.23278 14.4892 7.58791 14.2865 7.88991C14.2612 7.92767 14.2346 7.96438 14.2066 8H15V5.28141ZM11.2815 8L11.1127 7.83119L10.9146 8H11.2815Z"
	/>
	<path d="M7.10482 8.30786L9.46418 5.54404L10.4645 6.54408L7.69853 8.90142C7.61984 8.96736 7.5198 9.00237 7.41715 8.99988C7.33736 8.99895 7.25946 8.97542 7.1925 8.93203C7.12554 8.88864 7.07226 8.82716 7.03882 8.75472C7.00539 8.68228 6.99319 8.60186 7.00363 8.52276C7.01406 8.44367 7.04671 8.36916 7.09779 8.30786H7.10482ZM9.14341 2.80835C9.05555 2.80871 8.96976 2.835 8.89679 2.88393C8.82383 2.93286 8.76695 3.00224 8.73328 3.08337C8.69962 3.16451 8.69068 3.25377 8.70757 3.33996C8.72447 3.42616 8.76646 3.50545 8.82826 3.56787L12.4398 7.17842C12.5022 7.24021 12.5815 7.28219 12.6677 7.29908C12.7539 7.31598 12.8432 7.30703 12.9244 7.27338C13.0055 7.23972 13.0749 7.18286 13.1239 7.10991C13.1728 7.03697 13.1991 6.9512 13.1995 6.86336V5.05879L14.771 3.4877L15.0524 3.769C15.1108 3.82747 15.1815 3.87232 15.2593 3.90039C15.337 3.92846 15.4201 3.93904 15.5024 3.93138C15.5847 3.92373 15.6644 3.89803 15.7357 3.8561C15.8069 3.81418 15.8681 3.75707 15.9148 3.68883C15.9827 3.57449 16.0112 3.44102 15.996 3.3089C15.9807 3.17678 15.9226 3.05331 15.8304 2.95744L13.0588 0.179549C12.9656 0.0820152 12.8413 0.0199679 12.7073 0.00405563C12.5733 -0.0118566 12.4379 0.0193588 12.3244 0.0923442C12.2561 0.139021 12.199 0.200163 12.1571 0.271421C12.1151 0.342678 12.0894 0.422299 12.0818 0.504618C12.0741 0.586938 12.0847 0.669932 12.1128 0.747698C12.1408 0.825463 12.1857 0.896087 12.2442 0.954545L12.5256 1.23585L10.9484 2.80835H9.14341Z" />
</svg>