<svg width="20" height="20" viewBox="0 0 20 20"  xmlns="http://www.w3.org/2000/svg">
<path fill-rule="evenodd" clip-rule="evenodd" d="M17 10C17 13.8661 13.8661 17 10 17C6.1339 17 3 13.8661 3 10C3 6.1339 6.1339 3 10 3C13.8661 3 17 6.1339 17 10ZM9.4932 11.0549C9.2986 11.0549 9.1341 10.8953 9.1593 10.7035C9.1733 10.5971 9.1957 10.5215 9.2265 10.4186L9.2447 10.3542C9.3147 10.1218 9.4148 9.9342 9.5471 9.79C9.6787 9.6472 9.8376 9.517 10.0231 9.4008C10.1624 9.3119 10.2863 9.2188 10.3962 9.1222C10.5011 9.03188 10.5897 8.92413 10.658 8.8037C10.7224 8.6847 10.7553 8.5531 10.7553 8.4075C10.7553 8.2535 10.7182 8.1184 10.644 8.0015C10.5713 7.88629 10.4681 7.79349 10.3458 7.7334C10.2188 7.66987 10.0783 7.6377 9.9363 7.6396C9.79289 7.63904 9.65138 7.67238 9.5233 7.7369C9.34744 7.82158 9.20926 7.96849 9.1355 8.1492C9.0655 8.3235 8.9213 8.4782 8.733 8.4782H8.0603C7.8636 8.4782 7.7019 8.3151 7.7334 8.1212C7.7803 7.8307 7.8769 7.5801 8.0232 7.3708C8.2269 7.0775 8.4964 6.8598 8.8324 6.7163C9.1835 6.56797 9.56148 6.49385 9.9426 6.4986C10.3885 6.4986 10.7819 6.5721 11.1242 6.7198C11.4665 6.8654 11.7353 7.0768 11.9292 7.354C12.1245 7.6312 12.2218 7.9658 12.2218 8.3571C12.2218 8.6189 12.1777 8.852 12.0909 9.0557C12.0066 9.25597 11.8847 9.43822 11.7318 9.5926C11.5778 9.7466 11.3951 9.8866 11.1844 10.0119C11.008 10.1169 10.8624 10.2268 10.7483 10.3409C10.629 10.4622 10.539 10.6093 10.4851 10.7707C10.4319 10.9317 10.2891 11.0549 10.1204 11.0549H9.4932ZM9.8054 13.5525C9.5814 13.5525 9.3903 13.4741 9.2314 13.3173C9.15584 13.2431 9.09633 13.1542 9.05659 13.0561C9.01686 12.9579 8.99773 12.8526 9.0004 12.7468C8.99777 12.642 9.01694 12.5378 9.05671 12.4408C9.09647 12.3438 9.15596 12.2561 9.2314 12.1833C9.3903 12.0265 9.5814 11.9481 9.8054 11.9481C10.0182 11.9481 10.2044 12.0265 10.3654 12.1833C10.4957 12.3051 10.5798 12.4683 10.6031 12.6451C10.6265 12.8219 10.5877 13.0014 10.4935 13.1528C10.4211 13.2722 10.321 13.3723 10.2016 13.4447C10.0819 13.5162 9.94484 13.5535 9.8054 13.5525Z" />
</svg>
