<svg width="18" height="18" viewBox="0 0 18 18"  xmlns="http://www.w3.org/2000/svg">
<path opacity="0.7" d="M1 3C1 1.89543 1.89543 1 3 1H15C16.1046 1 17 1.89543 17 3V12H16V3C16 2.44772 15.5523 2 15 2H3C2.44772 2 2 2.44772 2 3V15C2 15.5523 2.44772 16 3 16H12V17H3C1.89543 17 1 16.1046 1 15V3Z" />
<path opacity="0.3" d="M16 3C16 2.44772 15.5523 2 15 2H3C2.44772 2 2 2.44772 2 3V15C2 15.5523 2.44772 16 3 16H12V15.0869C12 14.5565 11.7893 14.0478 11.4142 13.6727L8.1427 10.4012C7.84667 10.1052 7.41865 10 7 10C5.34315 10 4 8.65685 4 7C4 5.34315 5.34315 4 7 4C8.65685 4 10 5.34315 10 7C10 7.4188 10.1052 7.84699 10.4013 8.14313L13.6724 11.4142C14.0475 11.7893 14.5562 12 15.0866 12H16V3Z" />
<path d="M9.09312 9.80046C8.90741 9.61467 8.9353 9.30725 9.12107 9.12152C9.30683 8.93581 9.61422 8.90798 9.79997 9.09371L16 15.2929V13.4999H17V16.9999H13.5V15.9999H15.29L9.09312 9.80046Z" />
<path d="M7 8.5C7.82843 8.5 8.5 7.82843 8.5 7C8.5 6.17157 7.82843 5.5 7 5.5C6.17157 5.5 5.5 6.17157 5.5 7C5.5 7.82843 6.17157 8.5 7 8.5Z" />
</svg>
