<svg width="18" height="18" viewBox="0 0 18 18"  xmlns="http://www.w3.org/2000/svg">
<path d="M6.5 7C6.5 7.82843 7.17157 8.5 8 8.5C8.82843 8.5 9.5 7.82843 9.5 7C9.5 6.17157 8.82843 5.5 8 5.5C7.17157 5.5 6.5 6.17157 6.5 7Z" />
<path opacity="0.7" d="M13 1L13 2L3 2C2.44772 2 2 2.44772 2 3L2 15C2 15.5523 2.44772 16 3 16L13 16L13 17L3 17C1.89543 17 0.999999 16.1046 0.999999 15L1 3C1 1.89543 1.89543 1 3 1L13 1Z" />
<path opacity="0.3" d="M12.8988 2C13.7354 2.81971 14.3671 3.84767 14.7101 5L11.1299 5C10.5611 5 10.0372 4.72575 9.55046 4.43135C9.098 4.15768 8.56741 4.00017 8.00003 4.00017C6.34318 4.00017 5.00003 5.34332 5.00003 7.00017C5.00003 8.65703 6.34318 10.0002 8.00003 10.0002C8.56751 10.0002 9.09819 9.84261 9.5507 9.56885C10.0375 9.27435 10.5615 9 11.1304 9H14.7102C13.8497 11.8916 11.1711 14.0002 8.00003 14.0002C5.45377 14.0002 3.22504 12.6407 2.00012 10.6079L2.00012 3.39244C2.30755 2.88227 2.6782 2.41451 3.10123 2L12.8988 2Z" />
<path d="M17 17L17 1L15 1L15 6H11C10.9129 6 10.8605 6.0888 10.8844 6.17254C10.9597 6.43538 11 6.71298 11 7C11 7.28702 10.9597 7.56462 10.8844 7.82746C10.8605 7.9112 10.9129 8 11 8H15L15 17H17Z" />
</svg>
