<svg width="20" height="20" viewBox="0 0 20 20"  xmlns="http://www.w3.org/2000/svg">
<path fill-rule="evenodd" clip-rule="evenodd" d="M11.6779 4.26447C11.3918 4.5884 11.4224 5.08297 11.7463 5.36913L13.1495 6.60874H8.69565C6.10231 6.60874 4 8.71105 4 11.3044C4 13.9901 6.20092 15.655 8.69565 15.655H10.3261C10.7583 15.655 11.1087 15.3046 11.1087 14.8724C11.1087 14.4402 10.7583 14.0898 10.3261 14.0898H8.69565C6.86815 14.0898 5.56522 12.9409 5.56522 11.3044C5.56522 9.5755 6.96676 8.17396 8.69565 8.17396H13.1494L11.7463 9.41349C11.4224 9.69965 11.3918 10.1942 11.6779 10.5181C11.9641 10.8421 12.4586 10.8727 12.7826 10.5865L15.7355 7.97787C15.9037 7.82932 16 7.61573 16 7.39135C16 7.16697 15.9037 6.95339 15.7355 6.80483L12.7826 4.1961C12.4587 3.90994 11.9641 3.94055 11.6779 4.26447Z" />
</svg>
