<svg width="24" height="24" viewBox="0 0 24 24" xmlns="http://www.w3.org/2000/svg">
<path d="M11.229 17.6667L5.77314 12.2179C5.66403 12.109 5.66403 11.891 5.77314 11.7821L8.28283 9.27564L7.08254 8.1859L4.57286 10.6923C3.80905 11.4551 3.80905 12.6538 4.57286 13.4167L10.0287 18.8654H7.08254V20.5H12.8657V14.8333H11.229V17.6667ZM19.4127 10.6923L13.9569 5.24359H16.903V3.5H11.229V9.16667H12.8657V6.33333L18.3215 11.7821C18.4307 11.891 18.4307 12.109 18.3215 12.2179L15.8119 14.7244L17.0121 15.9231L19.5218 13.4167C20.1765 12.6538 20.1765 11.3462 19.4127 10.6923Z"/>
</svg>
