<svg width="24" height="24" viewBox="0 0 24 24" xmlns="http://www.w3.org/2000/svg">
<path d="M19 8H15C13.9 8 13 8.9 13 10V19C13 20.1 13.9 21 15 21H19C20.1 21 21 20.1 21 19V10C21 8.9 20.1 8 19 8ZM19.5 19C19.5 19.3 19.3 19.5 19 19.5H15C14.7 19.5 14.5 19.3 14.5 19V10C14.5 9.7 14.7 9.5 15 9.5H19C19.3 9.5 19.5 9.7 19.5 10V19ZM16 18.5H18V17H16V18.5Z"/>
<path d="M15 4C16.1046 4 17 4.89543 17 6V7H15.5V6C15.5 5.72386 15.2761 5.5 15 5.5H5C4.72386 5.5 4.5 5.72386 4.5 6V13C4.5 13.2761 4.72386 13.5 5 13.5H12V15H11V17H12V18.5H8V17H9V15H5C3.89543 15 3 14.1046 3 13V6C3 4.89543 3.89543 4 5 4H15Z"/>
</svg>
