<svg
	width="18"
	height="18"
	viewBox="0 0 18 18"
	xmlns="http://www.w3.org/2000/svg"
>
	<path
		fillRule="evenodd"
		clipRule="evenodd"
		d="M11 6.18651H4.33873L5.97799 7.8275C6.2455 8.09529 6.246 8.52996 5.9791 8.79837C5.71221 9.06677 5.27899 9.06727 5.01148 8.79948L2.20096 5.98599C2.0723 5.8572 2 5.68235 2 5.5C2 5.31765 2.0723 5.1428 2.20096 5.01401L5.01148 2.20052C5.27899 1.93273 5.71221 1.93323 5.9791 2.20163C6.246 2.47004 6.2455 2.90471 5.97799 3.1725L4.33873 4.81349H11V6.18651Z"
	/>
	<path
		fillRule="evenodd"
		clipRule="evenodd"
		d="M7 11.8135V13.1865H13.6613L12.022 14.8275C11.7545 15.0953 11.754 15.53 12.0209 15.7984C12.2878 16.0668 12.721 16.0673 12.9885 15.7995L15.799 12.986C15.9277 12.8572 16 12.6823 16 12.5C16 12.3177 15.9277 12.1428 15.799 12.014L12.9885 9.20052C12.721 8.93273 12.2878 8.93323 12.0209 9.20163C11.754 9.47004 11.7545 9.90471 12.022 10.1725L13.6613 11.8135H7Z"
	/>
</svg>