<svg
	width="24"
	height="24"
	viewBox="0 0 24 24"
	xmlns="http://www.w3.org/2000/svg"
>
	<path
		fillRule="evenodd"
		clipRule="evenodd"
		d="M11.9086 5.20688L13.5178 6.86633C12.8461 6.76745 12.167 6.78334 11.507 6.90978C9.11833 7.35617 7.07635 9.12672 6.40528 11.6312C5.93387 13.3905 6.23004 15.175 7.08646 16.6278C7.09 16.6362 7.09413 16.6444 7.09886 16.6523C7.38237 17.1291 7.72272 17.5618 8.10827 17.9438C8.15232 17.9875 8.21413 18.0082 8.2756 18C8.33706 17.9917 8.39123 17.9554 8.42224 17.9017L9.10065 16.7267C9.14352 16.6524 9.13429 16.5591 9.0777 16.4947C9.04401 16.4563 9.0109 16.4174 8.97837 16.3779C8.97091 16.3678 8.9632 16.3578 8.95524 16.3479C8.01926 15.189 7.6331 13.6172 8.04735 12.0712C8.44405 10.5907 9.48908 9.45673 10.7954 8.89338V8.91673C11.5908 8.55237 12.4711 8.43062 13.332 8.56652L11.9086 10.0344L13.079 11.2413L16.0048 8.22407C16.16 8.06403 16.2472 7.84697 16.2472 7.62063C16.2472 7.3943 16.16 7.17724 16.0048 7.0172L13.079 4L11.9086 5.20688ZM8.36675 17.6358L8.38979 17.6597C8.38304 17.653 8.37644 17.646 8.36984 17.6391L8.36675 17.6358Z"
	/>
	<path
		d="M18.295 14.5583C17.857 14.3895 17.365 14.6078 17.1962 15.0458C17.0203 15.5022 16.7762 15.9297 16.4729 16.3125C16.4098 16.3921 16.4164 16.5064 16.4882 16.5782L17.4122 17.5022C17.452 17.542 17.5067 17.5631 17.5628 17.5606C17.619 17.558 17.6715 17.5319 17.7074 17.4887C18.1631 16.9407 18.5265 16.3213 18.7825 15.6571C18.9513 15.2191 18.7331 14.7272 18.295 14.5583Z"
		opacity="0.4"
	/>
	<path
		d="M14.9976 17.5525C15.0754 17.5104 15.1717 17.5244 15.2343 17.587L16.1848 18.5375C16.2279 18.5806 16.249 18.6411 16.2421 18.7017C16.2351 18.7623 16.2009 18.8164 16.1492 18.8486C15.6156 19.1812 15.0247 19.4415 14.3864 19.6125C14.2788 19.6414 14.1711 19.6673 14.0633 19.6905C14.0043 19.7032 13.9426 19.6885 13.8956 19.6505C13.8486 19.6125 13.8213 19.5553 13.8213 19.4949V18.1574C13.8213 18.0672 13.8817 17.9882 13.9686 17.9644C14.3343 17.8646 14.6783 17.7254 14.9976 17.5525Z"
		opacity="0.4"
	/>
	<path
		d="M10.6208 17.663C10.5266 17.6178 10.4135 17.6528 10.3612 17.7433L9.70969 18.8718C9.68211 18.9196 9.67548 18.9766 9.69138 19.0294C9.70727 19.0823 9.74428 19.1262 9.79364 19.1508C10.4787 19.4924 11.2251 19.7147 11.9998 19.7986C12.0563 19.8047 12.1127 19.7865 12.1549 19.7486C12.1972 19.7107 12.2213 19.6565 12.2213 19.5998V18.2898C12.2213 18.1898 12.1475 18.1052 12.0484 18.0917C11.5498 18.0234 11.0684 17.8773 10.6208 17.663Z"
		opacity="0.4"
	/>
</svg>