<svg
	width="24"
	height="24"
	viewBox="0 0 24 24"
	xmlns="http://www.w3.org/2000/svg"
>
	<path
		d="M7.2263 14.5583C7.66434 14.3895 8.15629 14.6077 8.3251 15.0458C8.50099 15.5022 8.74513 15.9296 9.04847 16.3125C9.11153 16.3921 9.10493 16.5063 9.03312 16.5781L8.10908 17.5022C8.06932 17.5419 8.01466 17.5631 7.95849 17.5605C7.90232 17.558 7.84983 17.5319 7.81388 17.4886C7.35823 16.9407 6.99478 16.3213 6.73882 15.6571C6.57001 15.2191 6.78826 14.7271 7.2263 14.5583Z"
		opacity="0.4"
	/>
	<path
		d="M10.5237 17.5525C10.4459 17.5103 10.3496 17.5244 10.2871 17.5869L9.33654 18.5375C9.29341 18.5806 9.27232 18.641 9.27926 18.7016C9.28619 18.7622 9.32041 18.8163 9.37217 18.8486C9.90573 19.1812 10.4967 19.4415 11.135 19.6125C11.2426 19.6413 11.3503 19.6673 11.458 19.6904C11.5171 19.7031 11.5787 19.6884 11.6257 19.6505C11.6727 19.6125 11.7 19.5553 11.7 19.4949V18.1573C11.7 18.0672 11.6397 17.9881 11.5527 17.9644C11.1871 17.8646 10.843 17.7253 10.5237 17.5525Z"
		opacity="0.4"
	/>
	<path
		d="M14.9005 17.6629C14.9947 17.6178 15.1079 17.6528 15.1601 17.7433L15.8116 18.8718C15.8392 18.9196 15.8458 18.9766 15.83 19.0294C15.8141 19.0822 15.7771 19.1261 15.7277 19.1508C15.0427 19.4924 14.2963 19.7147 13.5215 19.7986C13.4651 19.8047 13.4087 19.7865 13.3664 19.7486C13.3242 19.7106 13.3 19.6565 13.3 19.5997V18.2898C13.3 18.1898 13.3738 18.1052 13.4729 18.0916C13.9716 18.0234 14.4529 17.8773 14.9005 17.6629Z"
		opacity="0.4"
	/>
	<path
		fillRule="evenodd"
		clipRule="evenodd"
		d="M13.6127 5.20688L12.0035 6.86633C12.6753 6.76744 13.3544 6.78334 14.0143 6.90978C16.403 7.35618 18.445 9.12673 19.116 11.6312C19.5874 13.3905 19.2913 15.175 18.4349 16.6278C18.4313 16.6362 18.4272 16.6444 18.4225 16.6523C18.1389 17.1291 17.7986 17.5618 17.413 17.9438C17.369 17.9875 17.3072 18.0082 17.2457 18C17.1843 17.9917 17.1301 17.9554 17.0991 17.9017L16.4207 16.7267C16.3778 16.6524 16.387 16.5591 16.4436 16.4947C16.4773 16.4563 16.5104 16.4174 16.5429 16.3779C16.5504 16.3678 16.5581 16.3578 16.5661 16.3479C17.5021 15.189 17.8882 13.6172 17.474 12.0712C17.0773 10.5907 16.0322 9.45673 14.7259 8.89338V8.91673C13.9306 8.55237 13.0502 8.43062 12.1893 8.56652L13.6127 10.0344L12.4424 11.2413L9.51655 8.22407C9.36136 8.06403 9.27417 7.84697 9.27417 7.62063C9.27417 7.3943 9.36136 7.17724 9.51655 7.0172L12.4424 4L13.6127 5.20688ZM17.1546 17.6358L17.1315 17.6597C17.1364 17.6548 17.1413 17.6498 17.1461 17.6448L17.1546 17.6358Z"
	/>
</svg>