<svg width="24" height="24" viewBox="0 0 24 24" xmlns="http://www.w3.org/2000/svg">
<path d="M15.3132 14.1005C15.3132 13.8625 15.3131 13.7273 15.3051 13.629C15.3027 13.5992 15.2989 13.5803 15.297 13.5692C15.2918 13.5621 15.2859 13.5561 15.2787 13.5509C15.2676 13.549 15.2485 13.5463 15.2189 13.5438C15.1206 13.5358 14.9856 13.5347 14.7474 13.5347H9.25253C9.01442 13.5347 8.87929 13.5358 8.78102 13.5438C8.74982 13.5464 8.73004 13.549 8.71917 13.5509C8.7126 13.5558 8.70676 13.5616 8.70193 13.5682C8.70002 13.5791 8.69734 13.5985 8.69483 13.629C8.6868 13.7273 8.68672 13.8625 8.68672 14.1005V18.5459H15.3132V14.1005ZM15.3132 5.83946C15.1407 5.66964 15.0849 5.62025 15.0273 5.58494C14.9478 5.53628 14.8613 5.50025 14.7707 5.47847C14.6878 5.45857 14.591 5.45414 14.1613 5.45414H8.68672V7.47504C8.68672 7.71305 8.6868 7.84833 8.69483 7.94655C8.69726 7.97621 8.70002 7.99531 8.70193 8.00638C8.70673 8.01309 8.71258 8.01866 8.71917 8.02362C8.73 8.02554 8.74966 8.02917 8.78102 8.03173C8.87929 8.03974 9.01442 8.04086 9.25253 8.04086H14.7474C14.9856 8.04086 15.1206 8.03976 15.2189 8.03173C15.2487 8.0293 15.2676 8.02553 15.2787 8.02362C15.2859 8.01841 15.2919 8.0126 15.297 8.00537C15.2989 7.99417 15.3027 7.97547 15.3051 7.94655C15.3131 7.84833 15.3132 7.71305 15.3132 7.47504V5.83946ZM4 8.60565C4 7.93911 3.99952 7.39545 4.03549 6.95486C4.07219 6.50566 4.15072 6.09965 4.34375 5.72082C4.64585 5.12791 5.12786 4.64591 5.72076 4.3438C6.09959 4.15078 6.5056 4.07225 6.9548 4.03555C7.23619 4.01257 7.55964 4.00593 7.93027 4.0031C7.93996 4.00272 7.94989 4.00006 7.95968 4.00006C7.96853 4.00006 7.97727 4.00278 7.98604 4.0031C8.17969 4.00189 8.38597 4.00006 8.6056 4.00006H14.1613C14.5218 4.00006 14.8205 3.99564 15.1094 4.06495C15.3485 4.12235 15.5771 4.21737 15.7868 4.34583C16.0403 4.50118 16.2486 4.7154 16.5037 4.97046L19.0295 7.49634C19.2845 7.75129 19.4989 7.9598 19.6542 8.21324C19.7825 8.42268 19.8777 8.65075 19.935 8.88958C20.0045 9.17868 19.9999 9.47798 19.9999 9.83868V15.3934C19.9999 16.0602 20.0004 16.6045 19.9644 17.0452C19.9277 17.4944 19.8492 17.9004 19.6562 18.2792C19.3541 18.8721 18.872 19.3542 18.2792 19.6563C17.9003 19.8493 17.4943 19.9278 17.0451 19.9645C16.7656 19.9873 16.4444 19.9931 16.0768 19.9959C16.0646 19.9965 16.0525 20 16.0403 20C16.029 20 16.0179 19.9964 16.0068 19.9959C15.8151 19.9971 15.6105 20 15.3933 20H8.6056C8.38827 20 8.18402 19.9971 7.99213 19.9959C7.98133 19.9964 7.9706 20 7.95968 20C7.94715 20 7.93454 19.9966 7.92216 19.9959C7.55493 19.9931 7.23413 19.9873 6.9548 19.9645C6.50564 19.9278 6.09957 19.8492 5.72076 19.6563C5.12792 19.3542 4.64586 18.8721 4.34375 18.2792C4.15072 17.9004 4.07219 17.4944 4.03549 17.0452C3.99949 16.6045 4 16.0602 4 15.3934V8.60565ZM16.7673 7.47504C16.7673 7.68901 16.7681 7.89316 16.7541 8.06418C16.7394 8.24387 16.7049 8.45039 16.6 8.65635C16.4528 8.94517 16.2175 9.17945 15.9287 9.32661C15.7229 9.43148 15.5172 9.46604 15.3376 9.48074C15.1664 9.49473 14.9617 9.49392 14.7474 9.49392H9.25253C9.03824 9.49392 8.8336 9.49473 8.66238 9.48074C8.48269 9.46605 8.27616 9.43155 8.07021 9.32661C7.78167 9.17945 7.54702 8.94495 7.39995 8.65635C7.295 8.45038 7.2605 8.24388 7.24582 8.06418C7.23187 7.89316 7.23264 7.68902 7.23264 7.47504V5.47442C7.17712 5.47753 7.12353 5.48038 7.07243 5.48456C6.71358 5.5139 6.52056 5.56757 6.38088 5.63868C6.06149 5.80142 5.80137 6.06154 5.63863 6.38093C5.56751 6.52061 5.51384 6.71364 5.4845 7.07248C5.45445 7.44022 5.45408 7.91495 5.45408 8.60565V15.3934C5.45408 16.084 5.45448 16.5588 5.4845 16.9266C5.51385 17.2858 5.56744 17.4794 5.63863 17.6191C5.80136 17.9385 6.06151 18.1976 6.38088 18.3604C6.52058 18.4315 6.71335 18.4861 7.07243 18.5155C7.12352 18.5197 7.17713 18.5215 7.23264 18.5246V14.1005C7.23264 13.8866 7.23188 13.6824 7.24582 13.5114C7.2605 13.3317 7.295 13.1252 7.39995 12.9192L7.45876 12.8138C7.60622 12.5732 7.81745 12.3768 8.07021 12.248C8.27616 12.143 8.48269 12.1095 8.66238 12.0948C8.8336 12.0808 9.03824 12.0817 9.25253 12.0817H14.7474C14.9617 12.0817 15.1664 12.0808 15.3376 12.0948C15.5171 12.1095 15.723 12.1432 15.9287 12.248C16.2175 12.3951 16.4528 12.6304 16.6 12.9192C16.7049 13.1252 16.7394 13.3317 16.7541 13.5114C16.7681 13.6824 16.7673 13.8866 16.7673 14.1005V18.5246C16.8226 18.5215 16.8756 18.5197 16.9265 18.5155C17.2858 18.4861 17.4793 18.4316 17.6191 18.3604C17.9383 18.1977 18.1976 17.9383 18.3603 17.6191C18.4315 17.4794 18.4861 17.2859 18.5154 16.9266C18.5455 16.5588 18.5459 16.084 18.5459 15.3934V9.83868C18.5459 9.40878 18.5414 9.31216 18.5215 9.22927C18.4998 9.1387 18.4637 9.05217 18.4151 8.97272C18.3705 8.90005 18.3051 8.82832 18.0013 8.52453L16.7673 7.29049V7.47504Z" />
</svg>
