<svg width="24" height="24" viewBox="0 0 24 24"  xmlns="http://www.w3.org/2000/svg">
<path d="M17.9617 7.15938C17.958 7.08432 17.9247 7.01373 17.869 6.96278C17.8133 6.91183 17.7396 6.8846 17.6639 6.88695C16.4872 6.90702 14.1597 6.71202 12.1879 5.06884C12.1356 5.02441 12.0689 5 12 5C11.9311 5 11.8644 5.02441 11.8121 5.06884C9.84025 6.71202 7.51281 6.90702 6.33608 6.88695C6.26035 6.8846 6.18672 6.91183 6.13103 6.96278C6.07534 7.01373 6.04203 7.08432 6.03828 7.15938C5.92552 10.0471 5.98913 13.7091 7.25549 15.4297C8.57967 17.2364 11.3524 18.7706 12 19C12.6476 18.7677 15.4203 17.2335 16.7445 15.4297C18.0109 13.7091 18.0745 10.0471 17.9617 7.15938ZM14.5501 10.5633L11.6068 13.7694C11.5664 13.8124 11.5177 13.8471 11.4635 13.8712C11.4094 13.8953 11.351 13.9085 11.2916 13.9099H11.2859C11.228 13.9097 11.1707 13.898 11.1176 13.8753C11.0644 13.8526 11.0164 13.8195 10.9765 13.778L9.45861 12.2409C9.37809 12.1591 9.33362 12.049 9.33498 11.9347C9.33633 11.8204 9.38341 11.7114 9.46584 11.6315C9.54827 11.5517 9.65931 11.5075 9.77453 11.5089C9.88975 11.5102 9.99971 11.5569 10.0802 11.6387L11.2743 12.8517L13.9082 9.98404C13.986 9.90085 14.0937 9.85149 14.208 9.84668C14.3223 9.84187 14.4338 9.882 14.5184 9.95835C14.603 10.0347 14.6538 10.1411 14.6597 10.2544C14.6656 10.3677 14.6262 10.4787 14.5501 10.5633Z" />
</svg>
