<svg width="24" height="24" viewBox="0 0 24 24" xmlns="http://www.w3.org/2000/svg">
<path fill-rule="evenodd" clip-rule="evenodd" d="M6.33539 7.64884C5.40857 8.85363 4.8575 10.3625 4.8575 12C4.8575 15.9447 8.05531 19.1425 12 19.1425C13.6375 19.1425 15.1464 18.5914 16.3512 17.6646L6.33539 7.64884ZM7.64884 6.33539L17.6646 16.3512C18.5914 15.1464 19.1425 13.6375 19.1425 12C19.1425 8.05531 15.9447 4.8575 12 4.8575C10.3625 4.8575 8.85363 5.40857 7.64884 6.33539ZM3 12C3 7.02944 7.02944 3 12 3C16.9706 3 21 7.02944 21 12C21 16.9706 16.9706 21 12 21C7.02944 21 3 16.9706 3 12Z"/>
</svg>
