<svg width="24" height="24" viewBox="0 0 24 24" xmlns="http://www.w3.org/2000/svg">
<path d="M10.5 4C11.3283 4.00008 11.9999 4.67167 12 5.5V6.27832L13.0049 5.27344C13.554 4.72444 14.4236 4.69047 15.0127 5.1709L15.126 5.27344L18.6621 8.80957L18.7646 8.92285C19.2451 9.51195 19.2111 10.3815 18.6621 10.9307L17.5928 12H18.5C19.2765 12.0002 19.9154 12.5904 19.9922 13.3467L20 13.5V18.5L19.9922 18.6533C19.9153 19.4095 19.2764 19.9998 18.5 20H5.5L5.34668 19.9922C5.30109 19.9875 5.25621 19.9803 5.21191 19.9717C5.19083 19.9676 5.17017 19.962 5.14941 19.957C5.12312 19.9507 5.09703 19.9442 5.07129 19.9365C5.0508 19.9304 5.03086 19.923 5.01074 19.916C4.98837 19.9083 4.96621 19.9004 4.94434 19.8916C4.92232 19.8828 4.9004 19.8741 4.87891 19.8643C4.86045 19.8558 4.84226 19.847 4.82422 19.8379C4.80012 19.8257 4.77626 19.8132 4.75293 19.7998C4.73976 19.7922 4.72679 19.7843 4.71387 19.7764C4.68784 19.7603 4.66263 19.7432 4.6377 19.7256C4.62416 19.716 4.61086 19.7063 4.59766 19.6963C4.57727 19.6809 4.55667 19.6658 4.53711 19.6494C4.46926 19.5925 4.40645 19.5298 4.34961 19.4619C4.33486 19.4443 4.32156 19.4255 4.30762 19.4072C4.29408 19.3895 4.28033 19.3719 4.26758 19.3535C4.25564 19.3363 4.24463 19.3185 4.2334 19.3008C4.21918 19.2783 4.20542 19.2556 4.19238 19.2324C4.18319 19.216 4.1746 19.1994 4.16602 19.1826C4.15413 19.1594 4.14253 19.1362 4.13184 19.1123C4.12385 19.0945 4.1157 19.0768 4.1084 19.0586C4.09962 19.0367 4.09175 19.0145 4.08398 18.9922C4.03037 18.8379 4.00004 18.6725 4 18.5V5.5C4.00006 4.67166 4.67166 4.00006 5.5 4H10.5ZM12 17.5918V18.5C12 18.5679 11.9941 18.6347 11.9854 18.7002H18.5C18.6102 18.7 18.7001 18.6103 18.7002 18.5V13.5C18.7002 13.3897 18.6103 13.3 18.5 13.2998H16.293L12 17.5918ZM8 15.1992C7.11653 15.1994 6.40045 15.9163 6.40039 16.7998C6.40049 17.6833 7.11656 18.3993 8 18.3994C8.88357 18.3994 9.60048 17.6834 9.60059 16.7998C9.60053 15.9162 8.8836 15.1992 8 15.1992ZM14.207 6.19238C14.129 6.1146 14.0019 6.11453 13.9238 6.19238L12 8.11621V15.7539L17.7422 10.0117C17.8202 9.93364 17.8201 9.8066 17.7422 9.72852L14.207 6.19238Z"/>
</svg>
