<svg
	width="18"
	height="18"
	viewBox="0 0 18 18"
	xmlns="http://www.w3.org/2000/svg"
>
	<path
		fill-rule="evenodd"
		clip-rule="evenodd"
		d="M15 9C15 12.3137 12.3137 15 9 15C5.68629 15 3 12.3137 3 9C3 5.68629 5.68629 3 9 3C12.3137 3 15 5.68629 15 9ZM11.7933 8.05053C12.0689 7.8102 12.0689 7.42056 11.7933 7.18024C11.5176 6.93992 11.0706 6.93992 10.795 7.18024L8.11765 9.51433L7.20502 8.71871C6.92935 8.47838 6.48241 8.47838 6.20675 8.7187C5.93108 8.95903 5.93108 9.34867 6.20675 9.58899L7.61851 10.8198C7.75089 10.9352 7.93043 11 8.11765 11C8.30486 11 8.4844 10.9352 8.61678 10.8198L11.7933 8.05053Z"
	/>
</svg>