<svg width="24" height="24" viewBox="0 0 24 24"  xmlns="http://www.w3.org/2000/svg">
<path fill-rule="evenodd" clip-rule="evenodd" d="M6.92958 8.03544C6.07395 9.12819 5.56391 10.5045 5.56391 12C5.56391 13.4955 6.07396 14.8718 6.92959 15.9646L8.91186 13.9823C8.54414 13.4106 8.33083 12.7302 8.33083 12C8.33083 11.2698 8.54414 10.5894 8.91185 10.0177L6.92958 8.03544ZM8.03543 6.92959L10.0177 8.91186C10.5894 8.54414 11.2698 8.33083 12 8.33083C12.7297 8.33083 13.4097 8.54385 13.9811 8.91111L15.9635 6.92874C14.8709 6.07362 13.495 5.56391 12 5.56391C10.5045 5.56391 9.12818 6.07396 8.03543 6.92959ZM17.0696 8.03436L15.0874 10.0165C15.4556 10.5884 15.6692 11.2693 15.6692 12C15.6692 12.7307 15.4556 13.4116 15.0874 13.9835L17.0696 15.9657C17.9257 14.8727 18.4361 13.496 18.4361 12C18.4361 10.504 17.9257 9.12728 17.0696 8.03436ZM15.9635 17.0713L13.9811 15.0889C13.4097 15.4562 12.7297 15.6692 12 15.6692C11.2698 15.6692 10.5894 15.4559 10.0177 15.0881L8.03544 17.0704C9.12819 17.926 10.5045 18.4361 12 18.4361C13.495 18.4361 14.8709 17.9264 15.9635 17.0713ZM6.34637 17.6601C7.79383 19.1059 9.7925 20 12 20C16.4183 20 20 16.4183 20 12C20 7.58172 16.4183 4 12 4C7.58172 4 4 7.58172 4 12C4 14.2082 4.89469 16.2075 6.34136 17.6551C6.34196 17.6557 6.34255 17.6563 6.34315 17.6569C6.34422 17.6579 6.34529 17.659 6.34637 17.6601ZM12 9.89474C10.8373 9.89474 9.89474 10.8373 9.89474 12C9.89474 13.1627 10.8373 14.1053 12 14.1053C13.1627 14.1053 14.1053 13.1627 14.1053 12C14.1053 10.8373 13.1627 9.89474 12 9.89474Z"/>
</svg>
