<svg width="24" height="24" viewBox="0 0 24 24" xmlns="http://www.w3.org/2000/svg">
<path d="M11.1405 20.1405V19.32C7.75633 18.9269 5.07312 16.2437 4.68005 12.8595H3.85946C3.38489 12.8595 3 12.4746 3 12C3 11.5254 3.38489 11.1405 3.85946 11.1405H4.68005C5.07313 7.7563 7.75628 5.0722 11.1405 4.67916V3.85946C11.1405 3.38489 11.5254 3 12 3C12.4746 3 12.8595 3.38489 12.8595 3.85946V4.67916C16.2437 5.0722 18.9269 7.7563 19.32 11.1405H20.1405L20.228 11.145C20.6615 11.1888 21 11.5549 21 12C21 12.4451 20.6615 12.8112 20.228 12.855L20.1405 12.8595H19.32C18.9269 16.2437 16.2437 18.9269 12.8595 19.32V20.1405C12.8595 20.6151 12.4746 21 12 21C11.5254 21 11.1405 20.6151 11.1405 20.1405ZM11.1405 7.11532V6.41133C8.70652 6.78256 6.78349 8.70654 6.41221 11.1405H7.11532L7.20365 11.145C7.6369 11.189 7.97478 11.5551 7.97478 12C7.97478 12.4449 7.6369 12.811 7.20365 12.855L7.11532 12.8595H6.41221C6.78349 15.2934 8.70658 17.2165 11.1405 17.5878V16.8847C11.1405 16.4101 11.5254 16.0252 12 16.0252C12.4746 16.0252 12.8595 16.4101 12.8595 16.8847V17.5878C15.2934 17.2165 17.2165 15.2934 17.5878 12.8595H16.8847C16.4101 12.8595 16.0252 12.4746 16.0252 12C16.0252 11.5254 16.4101 11.1405 16.8847 11.1405H17.5878C17.2165 8.70654 15.2935 6.78256 12.8595 6.41133V7.11532C12.8595 7.58989 12.4746 7.97478 12 7.97478C11.5254 7.97478 11.1405 7.58989 11.1405 7.11532Z"/>
</svg>
