<svg width="24" height="24" viewBox="0 0 24 24"  xmlns="http://www.w3.org/2000/svg">
<path d="M14 6C13.5852 6 13.25 6.33516 13.25 6.75C13.25 7.16484 13.5852 7.5 14 7.5H15.9383L11.2203 12.2203C10.9273 12.5133 10.9273 12.9891 11.2203 13.282C11.5133 13.575 11.9891 13.575 12.282 13.282L17 8.56172V10.5C17 10.9148 17.3352 11.25 17.75 11.25C18.1648 11.25 18.5 10.9148 18.5 10.5V6.75C18.5 6.33516 18.1648 6 17.75 6H14ZM8.375 6.75C7.33906 6.75 6.5 7.58906 6.5 8.625V16.125C6.5 17.1609 7.33906 18 8.375 18H15.875C16.9109 18 17.75 17.1609 17.75 16.125V13.5C17.75 13.0852 17.4148 12.75 17 12.75C16.5852 12.75 16.25 13.0852 16.25 13.5V16.125C16.25 16.3313 16.0813 16.5 15.875 16.5H8.375C8.16875 16.5 8 16.3313 8 16.125V8.625C8 8.41875 8.16875 8.25 8.375 8.25H11C11.4148 8.25 11.75 7.91484 11.75 7.5C11.75 7.08516 11.4148 6.75 11 6.75H8.375Z" />
</svg>
