<svg width="16" height="16" viewBox="0 0 16 16" xmlns="http://www.w3.org/2000/svg">
<path d="M9.01025 8.83901C8.87124 8.57289 8.68589 8.35113 8.45421 8.17372C8.17619 7.99631 7.89816 7.9076 7.5738 7.9076C7.34212 7.9076 7.15677 7.95195 6.92509 8.04066C6.73974 8.12936 6.55439 8.26242 6.41538 8.39548V6.1335H5.76666V11.4558H6.36904L6.46172 11.0123C6.55439 11.1897 6.73974 11.2784 6.92509 11.3671C7.11043 11.4558 7.34212 11.5002 7.57381 11.5002C7.89816 11.5002 8.12985 11.4115 8.40787 11.2784C8.63956 11.101 8.87124 10.8792 9.01025 10.6131C9.14926 10.347 9.24194 10.0365 9.24194 9.68171C9.1956 9.41559 9.14926 9.10512 9.01025 8.83901ZM8.22252 10.6131C8.03717 10.8349 7.80549 10.9679 7.48113 10.9679C7.15677 10.9679 6.92509 10.8792 6.6934 10.6575C6.50805 10.4357 6.36904 10.1252 6.36904 9.72606C6.36904 9.32688 6.46172 9.01642 6.6934 8.79465C6.87875 8.57289 7.15677 8.48419 7.48113 8.48419C7.80549 8.48419 8.03717 8.61724 8.22252 8.83901C8.40787 9.06077 8.50054 9.37124 8.50054 9.72606C8.54688 10.0809 8.40787 10.347 8.22252 10.6131Z"/>
<path d="M6.85348 0.000195313L5 4.96769H5.74139L6.2511 3.63711H8.24359L8.7533 4.96769H9.49469L7.64121 0.000195313H6.85348ZM6.48278 3.01617L7.27051 0.9316L8.05824 3.01617H6.48278Z"/>
<path fill-rule="evenodd" clip-rule="evenodd" d="M6.81877 -0.0498047H7.67592L9.56671 5.01769H8.71891L8.2092 3.68711H6.28549L5.77578 5.01769H4.92798L6.81877 -0.0498047ZM6.88819 0.0501953L5.07202 4.91769H5.707L6.21671 3.58711H8.27798L8.78769 4.91769H9.42267L7.6065 0.0501953H6.88819ZM7.27051 0.790153L8.13059 3.06617H6.41044L7.27051 0.790153ZM7.27051 1.07305L6.55513 2.96617H7.9859L7.27051 1.07305ZM5.71666 6.0835H6.46538V8.28316C6.59425 8.17361 6.74858 8.0697 6.9035 7.99556L6.90715 7.99381C7.14273 7.90362 7.33433 7.8576 7.5738 7.8576C7.90859 7.8576 8.19584 7.94954 8.4811 8.13157L8.48472 8.13387C8.72236 8.31585 8.91228 8.54347 9.05457 8.81586C9.18756 9.07045 9.23794 9.36355 9.28115 9.61491C9.28453 9.63459 9.28787 9.65401 9.29119 9.67313L9.29269 9.68171C9.29269 10.0456 9.19683 10.3639 9.05457 10.6363C8.91065 10.9118 8.67238 11.1388 8.43827 11.3181L8.42993 11.3245L8.42946 11.3235C8.1489 11.4578 7.90921 11.5502 7.57381 11.5502C7.3364 11.5502 7.09701 11.5048 6.9035 11.4122L6.89638 11.4088C6.75158 11.3395 6.5947 11.2645 6.48661 11.1376L6.40968 11.5058H5.71666V6.0835ZM5.81666 6.1835V11.4058H6.32841L6.44135 10.8653L6.50603 10.9891C6.58964 11.1492 6.75778 11.2316 6.94667 11.322C7.12386 11.4068 7.34784 11.4502 7.57381 11.4502C7.88534 11.4502 8.10825 11.3661 8.38159 11.2355C8.60943 11.0606 8.83263 10.8451 8.96593 10.59C9.10113 10.3311 9.19119 10.03 9.19193 9.68599C9.18897 9.66895 9.18601 9.65177 9.18303 9.63449C9.13924 9.38031 9.09131 9.10218 8.96593 8.86216C8.83054 8.60297 8.65044 8.38735 8.42551 8.21472C8.15534 8.0427 7.88704 7.9576 7.5738 7.9576C7.35053 7.9576 7.17175 7.9999 6.94486 8.08663C6.76531 8.17285 6.58504 8.3023 6.44995 8.4316L6.36538 8.51255V6.1835H5.81666ZM7.48113 8.53419C7.16529 8.53419 6.90421 8.6204 6.73177 8.82672L6.72819 8.831C6.51014 9.03971 6.41904 9.33422 6.41904 9.72606C6.41904 10.1116 6.55263 10.4101 6.72999 10.6233C6.95124 10.8343 7.16998 10.9179 7.48113 10.9179C7.7879 10.9179 8.00582 10.7937 8.18275 10.5827C8.36533 10.3203 8.49473 10.0677 8.45097 9.73253L8.45012 9.72606C8.45012 9.37934 8.35996 9.08141 8.18416 8.87107C8.00698 8.65908 7.78872 8.53419 7.48113 8.53419ZM6.65683 8.76045C6.85507 8.52483 7.14925 8.43419 7.48113 8.43419C7.82226 8.43419 8.06737 8.57541 8.26089 8.80694C8.45521 9.03944 8.54998 9.36122 8.55054 9.72282C8.59807 10.0949 8.45046 10.3733 8.26355 10.6417L8.26104 10.6453C8.06752 10.8768 7.82226 11.0179 7.48113 11.0179C7.14451 11.0179 6.90026 10.9247 6.65883 10.6936L6.6548 10.6897C6.46235 10.4595 6.31904 10.1376 6.31904 9.72606C6.31904 9.32066 6.413 8.99512 6.65683 8.76045Z"/>
<path d="M2 12.9286L11.8909 12.9286L10.6545 11.7143L11.3818 11L14 13.5L11.3818 16L10.6545 15.2857L11.8909 14.0714L2 14.0714L2 12.9286Z"/>
</svg>
