<svg width="16" height="16" viewBox="0 0 16 16" xmlns="http://www.w3.org/2000/svg">
<path d="M14 12.9286L4.1091 12.9286L5.34546 11.7143L4.61819 11L2.00001 13.5L4.61819 16L5.34546 15.2857L4.1091 14.0714L14 14.0714V12.9286Z"/>
<path d="M10.6033 3.19763L5.0496 0.999829L5.0496 1.87895L6.5372 2.48335V4.84598L5.0496 5.45038L5.0496 6.3295L10.6033 4.1317V3.19763ZM7.23141 2.75807L9.56199 3.69214L7.23141 4.6262V2.75807ZM7.97522 10.7251C8.27274 10.5603 8.52067 10.3405 8.71902 10.0658C8.91736 9.73609 9.01654 9.40642 9.01654 9.02181C9.01654 8.74708 8.96695 8.5273 8.86778 8.25258C8.7686 8.0328 8.61984 7.81302 8.47108 7.64818H11V6.87895H5.0496L5.0496 7.59324L5.54546 7.70313C5.34712 7.81302 5.24794 8.0328 5.14877 8.25258C5.0496 8.47236 5.00001 8.74708 5.00001 9.02181C5.00001 9.40642 5.09918 9.68115 5.24794 10.0108C5.44629 10.2855 5.69422 10.5603 5.99174 10.7251C6.28927 10.8899 6.63637 10.9998 7.03307 10.9998C7.33059 10.9449 7.67769 10.8899 7.97522 10.7251ZM5.99174 9.79104C5.74381 9.57126 5.59505 9.29653 5.59505 8.91192C5.59505 8.5273 5.69422 8.25258 5.94216 7.97785C6.19009 7.75807 6.5372 7.59324 6.98348 7.59324C7.42976 7.59324 7.77687 7.70313 8.0248 7.97785C8.27274 8.19763 8.37191 8.5273 8.37191 8.91192C8.37191 9.29653 8.22315 9.57126 7.97522 9.79104C7.72728 10.0108 7.38017 10.1207 6.98348 10.1207C6.58679 10.1757 6.28927 10.0108 5.99174 9.79104Z"/>
<path fill-rule="evenodd" clip-rule="evenodd" d="M11.05 6.82895V7.69818L8.5798 7.69818C8.70672 7.85369 8.82787 8.04258 8.91335 8.23201L8.91495 8.23555C9.01548 8.51403 9.06654 8.73974 9.06654 9.02181C9.06654 9.41621 8.96451 9.75471 8.76186 10.0915L8.7597 10.0951C8.55703 10.3758 8.30338 10.6005 7.99945 10.7688C7.71543 10.9262 7.3883 10.9858 7.10712 11.0371C7.08517 11.0411 7.0635 11.0451 7.04215 11.049L7.03307 11.0507C6.62675 11.0507 6.27137 10.9372 5.96751 10.7688C5.66053 10.5988 5.40742 10.3171 5.2074 10.0401L5.20143 10.0318L5.20237 10.0314C5.05247 9.69919 4.95001 9.41684 4.95001 9.02181C4.95001 8.74173 5.00046 8.45967 5.1032 8.23201L5.10675 8.22414C5.1871 8.04603 5.27352 7.85445 5.42337 7.72728L4.9996 7.63337L4.9996 6.82895L11.05 6.82895ZM10.95 6.92895L5.0996 6.92895L5.0996 7.5531L5.68519 7.68288L5.5697 7.74686C5.38855 7.84722 5.29531 8.0494 5.19435 8.27314C5.09873 8.48504 5.05001 8.75243 5.05001 9.02181C5.05001 9.39425 5.145 9.66059 5.29144 9.98564C5.48759 10.2566 5.72936 10.5226 6.01598 10.6814C6.30602 10.8421 6.64335 10.949 7.02852 10.9498C7.0477 10.9463 7.06704 10.9428 7.08651 10.9392C7.37052 10.8873 7.68202 10.8304 7.95098 10.6814C8.24148 10.5204 8.48343 10.3061 8.67725 10.0382C8.87057 9.71628 8.96654 9.39594 8.96654 9.02181C8.96654 8.75503 8.91878 8.54148 8.82141 8.27138C8.72452 8.05725 8.57911 7.84251 8.43396 7.68168L8.35861 7.59818L10.95 7.59818V6.92895ZM10.6533 3.16365V4.16568L4.9996 6.40306L4.9996 5.41672L6.4872 4.81233V2.517L4.9996 1.9126L4.9996 0.92627L10.6533 3.16365ZM10.5533 3.23162L5.0996 1.07339L5.0996 1.8453L6.5872 2.44969V4.87964L5.0996 5.48403L5.0996 6.25594L10.5533 4.09771V3.23162ZM9.69639 3.69214L7.18141 4.70011V2.68417L9.69639 3.69214ZM7.28141 2.83198V4.5523L9.42759 3.69214L7.28141 2.83198ZM8.32191 8.91192C8.32191 8.53496 8.22473 8.2219 7.99164 8.01527L7.98745 8.01156C7.7524 7.75111 7.42164 7.64324 6.98348 7.64324C6.55167 7.64324 6.21683 7.80199 5.97741 8.01342C5.73977 8.27756 5.64505 8.53968 5.64505 8.91192C5.64505 9.28002 5.78597 9.54118 6.02325 9.75215C6.31735 9.96918 6.60076 10.1232 6.97662 10.0712L6.98348 10.0702C7.37138 10.0702 7.70554 9.96328 7.94205 9.75362C8.18033 9.5424 8.32191 9.28088 8.32191 8.91192ZM8.06006 7.94229C8.32127 8.1752 8.42191 8.52068 8.42191 8.91192C8.42191 9.31219 8.26597 9.60012 8.00838 9.82845C7.74976 10.0577 7.391 10.1701 6.98692 10.1707C6.57188 10.227 6.26151 10.0525 5.96204 9.83126L5.95845 9.8286C5.70086 9.60027 5.54505 9.31219 5.54505 8.91192C5.54505 8.5159 5.64818 8.22896 5.90504 7.94435L5.90878 7.9402C6.16509 7.713 6.52398 7.54324 6.98348 7.54324C7.4368 7.54324 7.79938 7.65482 8.06006 7.94229Z"/>
</svg>
