<svg width="20" height="20" viewBox="0 0 20 20" xmlns="http://www.w3.org/2000/svg">
<path d="M11.293 14.8535C11.293 15.2106 11.0035 15.5 10.6465 15.5C10.2894 15.5 10 15.2106 10 14.8535V13.5H11.293V14.8535ZM11.3086 5C11.6904 5.00001 12 5.30956 12 5.69141C12 6.07325 11.6904 6.3828 11.3086 6.38281H8.91797V12.3535C8.91797 12.7106 8.62852 13 8.27148 13C7.91444 13 7.625 12.7106 7.625 12.3535V6.38281H5.19141C4.80955 6.38281 4.5 6.07326 4.5 5.69141C4.5 5.30955 4.80955 5 5.19141 5H11.3086ZM11.293 12.5H10V10.5H11.293V12.5ZM12 8.88281H11.293V9.5H10V8.5C10 7.94772 10.4477 7.5 11 7.5H12V8.88281ZM14.3086 7.5C14.6904 7.5 15 7.80955 15 8.19141C15 8.57326 14.6904 8.88281 14.3086 8.88281H13V7.5H14.3086Z"/>
</svg>
