<svg width="16" height="16" viewBox="0 0 16 16" xmlns="http://www.w3.org/2000/svg">
<path d="M10.0103 8.83881C9.87124 8.5727 9.68589 8.35093 9.45421 8.17352C9.17619 7.99611 8.89816 7.90741 8.57381 7.90741C8.34212 7.90741 8.15677 7.95176 7.92509 8.04046C7.73974 8.12917 7.55439 8.26223 7.41538 8.39528V6.1333H6.76666V11.4556H7.36904L7.46172 11.0121C7.55439 11.1895 7.73974 11.2782 7.92509 11.3669C8.11043 11.4556 8.34212 11.5 8.57381 11.5C8.89816 11.5 9.12985 11.4113 9.40787 11.2782C9.63956 11.1008 9.87124 10.879 10.0103 10.6129C10.1493 10.3468 10.2419 10.0363 10.2419 9.68151C10.1956 9.41539 10.1493 9.10493 10.0103 8.83881ZM9.22252 10.6129C9.03718 10.8347 8.80549 10.9677 8.48113 10.9677C8.15677 10.9677 7.92509 10.879 7.6934 10.6573C7.50805 10.4355 7.36904 10.125 7.36904 9.72586C7.36904 9.32669 7.46172 9.01622 7.6934 8.79446C7.87875 8.57269 8.15677 8.48399 8.48113 8.48399C8.80549 8.48399 9.03718 8.61705 9.22252 8.83881C9.40787 9.06057 9.50055 9.37104 9.50055 9.72586C9.54688 10.0807 9.40787 10.3468 9.22252 10.6129Z"/>
<path d="M7.85348 0L6 4.96749H6.74139L7.2511 3.63691H9.24359L9.7533 4.96749H10.4947L8.64121 0H7.85348ZM7.48278 3.01598L8.27051 0.931405L9.05824 3.01598H7.48278Z"/>
<path d="M14 12.9286L4.10909 12.9286L5.34546 11.7143L4.61818 11L2 13.5L4.61818 16L5.34546 15.2857L4.10909 14.0714L14 14.0714V12.9286Z"/>
</svg>
