<svg
	width="16"
	height="16"
	viewBox="0 0 16 16"
	xmlns="http://www.w3.org/2000/svg"
>
	<path
		d="M5.58331 5.50008V5.08342C5.58331 4.58342 5.74998 4.16675 6.16665 3.91675C6.58331 3.66675 7.16665 3.50008 7.83331 3.50008C8.41665 3.50008 8.99998 3.58341 9.58331 3.75008C10.1666 3.91675 10.75 4.16675 11.3333 4.50008L11.5 2.91675C11 2.66675 10.5 2.50008 9.91665 2.33341C9.24998 2.25008 8.58331 2.16675 7.91665 2.16675C6.66665 2.16675 5.66665 2.41675 4.91665 3.00008C4.24998 3.58341 3.91665 4.25008 3.91665 5.16675V5.50008H5.58331ZM14.6666 8.00008H1.33331V8.83342H8.24998C8.49998 8.91675 8.74998 9.00008 8.91665 9.08342C9.33331 9.25008 9.66665 9.50008 9.83331 9.75008C10.0833 10.0001 10.1666 10.3334 10.1666 10.7501C10.1666 11.3334 9.99998 11.6667 9.49998 12.0001C9.08331 12.2501 8.49998 12.4167 7.74998 12.4167C7.08331 12.4167 6.41665 12.3334 5.74998 12.1667C5.08331 12.0001 4.49998 11.7501 3.91665 11.5001L3.83331 13.0834C4.24998 13.2501 4.83331 13.4167 5.49998 13.5834C6.16665 13.7501 6.83331 13.8334 7.49998 13.8334C8.91665 13.8334 9.99998 13.5834 10.75 13.0001C11.5 12.4167 11.8333 11.6667 11.8333 10.6667C11.8333 9.91675 11.6666 9.25008 11.25 8.83342H14.6666V8.00008Z"
	/>
</svg>