<svg
	width="16"
	height="16"
	viewBox="0 0 16 16"
	xmlns="http://www.w3.org/2000/svg"
>
	<path
		d="M3.83337 2V2.83333H12.1667V2H3.83337Z"
	/>
	<path
		d="M12 8.99668C12 9.74529 11.9146 10.4275 11.7439 11.0432C11.5731 11.6545 11.3189 12.1816 10.9814 12.6246C10.6478 13.0631 10.2328 13.402 9.73641 13.6412C9.24001 13.8804 8.66418 14 8.00894 14C7.33383 14 6.74411 13.8804 6.23976 13.6412C5.73939 13.402 5.32241 13.0609 4.98883 12.6179C4.65922 12.175 4.41102 11.6456 4.24423 11.0299C4.08141 10.4142 4 9.732 4 8.98339C4 7.99114 4.14693 7.12071 4.4408 6.37209C4.73467 5.62348 5.17945 5.04097 5.77513 4.62458C6.37478 4.20819 7.12534 4 8.02681 4C8.88856 4 9.6133 4.20598 10.201 4.61794C10.7928 5.0299 11.2395 5.61019 11.5413 6.3588C11.8471 7.10299 12 7.98228 12 8.99668ZM5.06627 8.99668C5.06627 9.8206 5.17151 10.5338 5.38198 11.1362C5.59245 11.7386 5.91412 12.2038 6.34698 12.5316C6.78382 12.8594 7.3378 13.0233 8.00894 13.0233C8.68404 13.0233 9.23604 12.8594 9.66493 12.5316C10.0978 12.2038 10.4175 11.7386 10.624 11.1362C10.8305 10.5338 10.9337 9.8206 10.9337 8.99668C10.9337 7.74308 10.6974 6.76412 10.2249 6.0598C9.75627 5.35105 9.02358 4.99668 8.02681 4.99668C7.3517 4.99668 6.79573 5.15836 6.3589 5.48173C5.92206 5.80509 5.59643 6.26578 5.38198 6.86379C5.17151 7.45736 5.06627 8.16833 5.06627 8.99668Z"
	/>
	<path
		fillRule="evenodd"
		clipRule="evenodd"
		d="M11.7921 11.0566L11.792 11.0567C11.6198 11.6732 11.3631 12.2062 11.0212 12.6549C10.6828 13.0997 10.2616 13.4436 9.75813 13.6863C9.25379 13.9293 8.67031 14.05 8.00895 14.05C7.32796 14.05 6.73064 13.9294 6.21835 13.6864L6.21821 13.6863C5.71059 13.4437 5.28731 13.0974 4.9489 12.648L4.94873 12.6478C4.61484 12.1991 4.36416 11.6638 4.19598 11.043L4.1959 11.0427C4.03181 10.4221 3.95001 9.7356 3.95001 8.9834C3.95001 7.98631 4.09765 7.10946 4.39427 6.35383C4.69134 5.59707 5.14189 5.00624 5.7465 4.58362L5.74662 4.58353C6.35644 4.16008 7.11758 3.95001 8.02682 3.95001C8.89671 3.95001 9.63198 4.15804 10.2297 4.57696C10.8302 4.99509 11.2827 5.58354 11.5876 6.33995C11.8964 7.09148 12.05 7.97747 12.05 8.99669C12.05 9.74907 11.9642 10.4358 11.7921 11.0566ZM11.5413 6.35882C11.2395 5.6102 10.7928 5.02991 10.2011 4.61795C9.61332 4.20599 8.88857 4.00001 8.02682 4.00001C7.12535 4.00001 6.37479 4.20821 5.77514 4.6246C5.17946 5.04099 4.73469 5.62349 4.44082 6.37211C4.14695 7.12072 4.00001 7.99115 4.00001 8.9834C4.00001 9.73202 4.08142 10.4142 4.24424 11.0299C4.41103 11.6456 4.65923 12.175 4.98884 12.618C5.32242 13.0609 5.7394 13.402 6.23977 13.6412C6.74412 13.8804 7.33384 14 8.00895 14C8.6642 14 9.24002 13.8804 9.73642 13.6412C10.2328 13.402 10.6478 13.0631 10.9814 12.6246C11.319 12.1816 11.5731 11.6545 11.7439 11.0432C11.9146 10.4275 12 9.74531 12 8.99669C12 7.98229 11.8471 7.103 11.5413 6.35882ZM9.63458 12.4918L9.63476 12.4917C10.0584 12.1709 10.3728 11.7147 10.5767 11.12C10.781 10.5241 10.8837 9.81663 10.8837 8.99669C10.8837 7.74853 10.6484 6.78069 10.1834 6.08767L10.1832 6.08739C9.72554 5.39524 9.01017 5.04669 8.02682 5.04669C7.35979 5.04669 6.81498 5.20634 6.38866 5.52193C5.96107 5.83845 5.64077 6.29033 5.42909 6.8806C5.22103 7.4674 5.11628 8.17238 5.11628 8.99669C5.11628 9.81655 5.22102 10.5239 5.42919 11.1197C5.63698 11.7145 5.95339 12.1707 6.37703 12.4916C6.80338 12.8115 7.34612 12.9733 8.00895 12.9733C8.67588 12.9733 9.2164 12.8115 9.63458 12.4918ZM6.347 12.5316C5.91413 12.2038 5.59247 11.7387 5.38199 11.1362C5.17152 10.5338 5.06628 9.82061 5.06628 8.99669C5.06628 8.16834 5.17152 7.45738 5.38199 6.8638C5.59644 6.26579 5.92208 5.80511 6.35891 5.48174C6.79574 5.15837 7.35171 4.99669 8.02682 4.99669C9.02359 4.99669 9.75628 5.35106 10.2249 6.05981C10.6975 6.76413 10.9337 7.74309 10.9337 8.99669C10.9337 9.82061 10.8305 10.5338 10.624 11.1362C10.4175 11.7387 10.0978 12.2038 9.66494 12.5316C9.23605 12.8594 8.68405 13.0233 8.00895 13.0233C7.33781 13.0233 6.78383 12.8594 6.347 12.5316Z"
	/>
</svg>