<svg width="24" height="24" viewBox="0 0 24 24" xmlns="http://www.w3.org/2000/svg">
<path d="M12.7311 7.42155C12.7401 7.34963 12.7671 7.30018 12.812 7.27321C12.866 7.23725 12.9154 7.21927 12.9604 7.21927C13.5717 7.21927 14.1426 7.20128 14.6731 7.16532C15.2125 7.12037 15.6351 7.09789 15.9407 7.09789C16.7049 7.09789 17.3433 7.17431 17.8557 7.32715C18.3772 7.47999 18.7952 7.71824 19.1099 8.0419C19.4336 8.36556 19.6628 8.78362 19.7977 9.29608C19.9325 9.80855 20 10.4244 20 11.1436C20 11.8719 19.9236 12.5866 19.7707 13.2879C19.6269 13.9802 19.3706 14.596 19.002 15.1355C18.6334 15.6749 18.1344 16.1109 17.5051 16.4436C16.8848 16.7672 16.0981 16.9291 15.1451 16.9291C14.7045 16.9291 14.3 16.9201 13.9314 16.9021C13.5717 16.8841 13.2616 16.8302 13.0008 16.7403C12.7401 16.6504 12.5378 16.5155 12.394 16.3357C12.2501 16.1559 12.1782 15.9086 12.1782 15.594C12.1782 15.4771 12.1827 15.3018 12.1917 15.068C12.2097 14.8343 12.2276 14.5556 12.2456 14.2319C12.2726 13.9082 12.2996 13.5531 12.3265 13.1665C12.3625 12.7709 12.3985 12.3574 12.4344 11.9258C12.5063 11.0358 12.5603 10.3255 12.5963 9.79506C12.6412 9.26462 12.6682 8.85105 12.6772 8.55436C12.6951 8.24868 12.7041 8.01942 12.7041 7.86659C12.7131 7.71375 12.7221 7.5654 12.7311 7.42155ZM15.2395 14.7983C15.7429 14.7983 16.143 14.6904 16.4397 14.4746C16.7454 14.2589 16.9792 13.9847 17.141 13.652C17.3028 13.3194 17.4107 12.9552 17.4646 12.5597C17.5186 12.1641 17.5456 11.791 17.5456 11.4403C17.5456 11.0627 17.5186 10.7346 17.4646 10.4559C17.4197 10.1682 17.3343 9.92992 17.2084 9.74112C17.0915 9.55232 16.9252 9.41296 16.7094 9.32306C16.4937 9.22416 16.2239 9.17471 15.9003 9.17471C15.8014 9.17471 15.6755 9.17921 15.5227 9.1882C15.3698 9.19719 15.1855 9.21067 14.9698 9.22866C14.9518 9.56131 14.9293 9.95689 14.9023 10.4154C14.8754 10.8649 14.8439 11.3414 14.8079 11.8449C14.781 12.3394 14.7495 12.8429 14.7135 13.3553C14.6776 13.8588 14.6416 14.3263 14.6056 14.7578C14.7405 14.7758 14.8619 14.7893 14.9698 14.7983C15.0776 14.7983 15.1676 14.7983 15.2395 14.7983Z"/>
<path d="M7.74906 9.06683C7.55127 9.06683 7.33999 9.11178 7.11523 9.20169C6.89946 9.2826 6.74212 9.44443 6.64322 9.68718C6.61625 9.7591 6.59378 9.80405 6.5758 9.82203C6.55781 9.84001 6.49938 9.84901 6.40048 9.84901C5.87903 9.84901 5.50142 9.7546 5.26767 9.5658C5.03391 9.377 4.91704 9.12527 4.91704 8.8106C4.91704 8.54987 4.99346 8.31162 5.1463 8.09585C5.30813 7.88007 5.5239 7.69577 5.79362 7.54293C6.07232 7.39009 6.39598 7.27321 6.7646 7.1923C7.1422 7.11138 7.55127 7.07092 7.99181 7.07092C8.5672 7.07092 9.0437 7.14285 9.42131 7.2867C9.79891 7.42155 10.0956 7.60137 10.3114 7.82613C10.5361 8.0419 10.689 8.29364 10.7699 8.58134C10.8598 8.86903 10.9047 9.16123 10.9047 9.45792C10.9047 9.90744 10.8103 10.3075 10.6215 10.6582C10.4417 10.9998 10.1226 11.3145 9.66405 11.6022C10.0686 11.8 10.3698 12.0427 10.5676 12.3304C10.7744 12.6181 10.8778 12.9777 10.8778 13.4093C10.8778 13.7779 10.8014 14.169 10.6485 14.5825C10.4957 14.9961 10.2484 15.3782 9.9068 15.7288C9.56516 16.0705 9.11563 16.3582 8.55821 16.5919C8.00979 16.8167 7.3355 16.9291 6.53534 16.9291C6.07682 16.9291 5.68573 16.8841 5.36207 16.7942C5.03841 16.7133 4.77319 16.6009 4.56641 16.4571C4.36861 16.3132 4.22476 16.1424 4.13486 15.9446C4.04495 15.7468 4 15.5355 4 15.3108C4 14.8792 4.14385 14.5601 4.43155 14.3533C4.72824 14.1465 5.12832 14.0431 5.63179 14.0431C5.75765 14.0431 5.82508 14.0521 5.83407 14.0701C5.85206 14.0881 5.87004 14.133 5.88802 14.2049C5.92398 14.3398 5.98242 14.4477 6.06333 14.5286C6.14425 14.6095 6.23415 14.6724 6.33305 14.7174C6.44094 14.7623 6.54882 14.7938 6.65671 14.8118C6.7646 14.8208 6.86349 14.8253 6.9534 14.8253C7.2411 14.8253 7.47485 14.7758 7.65466 14.6769C7.84346 14.578 7.98731 14.4612 8.08621 14.3263C8.1941 14.1914 8.26602 14.0476 8.30198 13.8948C8.34694 13.7419 8.36941 13.6116 8.36941 13.5037C8.36941 13.216 8.27501 13.0047 8.08621 12.8698C7.9064 12.726 7.7131 12.6496 7.50632 12.6406L5.57784 12.5597C5.43399 12.5597 5.36207 12.4967 5.36207 12.3709L5.40253 11.9933C5.4295 11.7145 5.51041 11.4988 5.64527 11.3459C5.78013 11.1931 6.04535 11.1077 6.44094 11.0897L7.65466 11.0358C7.95135 11.0178 8.18511 10.9189 8.35593 10.7391C8.53574 10.5503 8.62564 10.285 8.62564 9.94341C8.62564 9.35902 8.33345 9.06683 7.74906 9.06683Z"/>
</svg>
