<svg width="24" height="24" viewBox="0 0 24 24" xmlns="http://www.w3.org/2000/svg">
<path fill-rule="evenodd" clip-rule="evenodd" d="M4.96106 4.53648C5.14436 4.35318 5.4155 4.28917 5.66143 4.37115L7.85153 5.10118C8.131 5.19434 8.31951 5.45587 8.31951 5.75046V7.65707L10.7089 10.0464C10.7029 10.0162 10.6966 9.98396 10.6898 9.94934C10.6314 9.65323 10.6009 9.34765 10.6009 9.03561C10.6009 6.4401 12.7049 4.33602 15.3004 4.33602C16.1585 4.33602 16.9647 4.5666 17.6584 4.96962C17.8421 5.07634 17.9658 5.26232 17.9933 5.47299C18.0207 5.68366 17.9488 5.89512 17.7985 6.04534L15.8803 7.96359C15.7277 8.11612 15.6428 8.2018 15.5861 8.26865C15.5722 8.28498 15.563 8.29684 15.5572 8.30474C15.5572 8.30529 15.5572 8.30585 15.5572 8.30641C15.563 8.31431 15.5722 8.32617 15.5861 8.3425C15.6428 8.40935 15.7277 8.49502 15.8803 8.64756L16.0535 8.82077C16.206 8.97331 16.2917 9.05823 16.3586 9.11498C16.3749 9.12884 16.3867 9.13804 16.3946 9.14385C16.3952 9.14386 16.3958 9.14386 16.3963 9.14385C16.4042 9.13804 16.4161 9.12884 16.4324 9.11498C16.4993 9.05823 16.5849 8.9733 16.7375 8.82077L18.5318 7.02641C18.6937 6.86455 18.9258 6.79432 19.1502 6.83929C19.3747 6.88426 19.5618 7.03847 19.6488 7.25021C19.8754 7.80158 20 8.4049 20 9.03561C20 11.2356 18.4883 13.0826 16.4469 13.5943L18.7045 15.8519C19.5765 16.7239 19.5766 18.1378 18.7045 19.0099C17.8324 19.8819 16.4186 19.8819 15.5465 19.0099L12.0153 15.4787L8.48407 19.01C7.61201 19.882 6.19813 19.882 5.32607 19.01C4.45402 18.1379 4.45402 16.724 5.32607 15.852L9.95234 11.2257L7.35161 8.62497H5.44501C5.15042 8.62497 4.88888 8.43646 4.79572 8.15699L4.06569 5.96689C3.98371 5.72096 4.04772 5.44982 4.23103 5.26651L4.96106 4.53648ZM6.95069 7.25615V6.24376L5.62986 5.80348L5.49802 5.93532L5.9383 7.25615H6.95069ZM11.4032 11.7107L6.29397 16.8199C5.95647 17.1574 5.95647 17.7046 6.29397 18.0421C6.63147 18.3796 7.17867 18.3796 7.51617 18.0421L12.741 12.8172C12.7415 12.8168 12.7419 12.8163 12.7424 12.8159C12.7557 12.8025 12.7693 12.7889 12.783 12.775C12.8122 12.7456 12.8424 12.7153 12.8735 12.6848L12.9474 12.6109C13.0265 12.5317 13.1117 12.4648 13.2012 12.4093C13.2284 12.3915 13.256 12.3749 13.2842 12.3599C13.3542 12.3224 13.4378 12.2819 13.5391 12.2511C13.6403 12.2203 13.7323 12.2074 13.8113 12.1995C13.8263 12.198 13.8412 12.1969 13.8561 12.196C14.0481 12.18 14.2395 12.1994 14.4163 12.2479C14.4933 12.2691 14.5715 12.2875 14.6507 12.3032C14.651 12.3032 14.6504 12.3031 14.6507 12.3032C14.665 12.306 14.6803 12.3089 14.6947 12.3116C14.7891 12.3289 14.8848 12.3422 14.9819 12.3514C15.0866 12.3613 15.1928 12.3664 15.3004 12.3664C17.14 12.3664 18.6312 10.8751 18.6312 9.03561C18.6312 8.97904 18.6298 8.92283 18.627 8.86701L17.6896 9.80446C17.5587 9.93537 17.433 10.0611 17.3183 10.1585C17.1928 10.265 17.0361 10.3773 16.8326 10.4434C16.5485 10.5357 16.2425 10.5357 15.9584 10.4434C15.7549 10.3773 15.5982 10.265 15.4727 10.1585C15.3579 10.061 15.2323 9.93537 15.1014 9.80445L14.8966 9.59968C14.7657 9.46879 14.64 9.34313 14.5426 9.22836C14.436 9.10288 14.3237 8.94615 14.2576 8.74266C14.1653 8.45858 14.1653 8.15257 14.2576 7.86849C14.3237 7.665 14.436 7.50827 14.5426 7.38278C14.64 7.26802 14.7657 7.14237 14.8966 7.01149L16.1055 5.80262C15.8479 5.73875 15.5784 5.70484 15.3004 5.70484C13.4609 5.70484 11.9697 7.19607 11.9697 9.03561C11.9697 9.25825 11.9914 9.47515 12.0327 9.68449L12.0352 9.69733C12.0681 9.86382 12.0964 10.0076 12.1146 10.1227C12.1318 10.231 12.1513 10.377 12.1365 10.5247C12.1287 10.6037 12.1158 10.6957 12.085 10.797C12.0542 10.8982 12.0136 10.9818 11.9762 11.0518C11.8749 11.2411 11.7061 11.4088 11.561 11.553C11.5467 11.5672 11.5326 11.5812 11.5188 11.595L11.4052 11.7086C11.4049 11.709 11.4045 11.7093 11.4042 11.7096C11.4039 11.71 11.4035 11.7103 11.4032 11.7107ZM12.9832 14.5108L16.5144 18.042C16.8519 18.3795 17.3991 18.3795 17.7366 18.042C18.0741 17.7045 18.0741 17.1573 17.7366 16.8198L14.6 13.6832C14.5284 13.6725 14.4573 13.6602 14.3867 13.6463C14.3867 13.6463 14.3867 13.6463 14.3867 13.6463C14.2037 13.6102 14.0858 13.5871 13.9995 13.5734C13.9727 13.5692 13.9537 13.5667 13.941 13.5652C13.938 13.5661 13.9353 13.5671 13.9329 13.568C13.9276 13.5725 13.9206 13.5786 13.9119 13.5865C13.8674 13.6269 13.8093 13.6847 13.7089 13.7851L12.9832 14.5108Z"/>
</svg>