<svg
	width="20"
	height="20"
	viewBox="0 0 20 20"
	xmlns="http://www.w3.org/2000/svg"
>
	<path
		opacity="0.3"
		fill-rule="evenodd"
		clip-rule="evenodd"
		d="M7.72727 2V3.43821H4.36364L7.96121 7.04497H7.818C7.36187 7.04497 6.9842 7.37712 6.9189 7.81016L3.45454 4.33709V7.66295H2V2H7.72727ZM7.78282 13.1342L4.36381 16.5618H8.182V18H2.00018V11.8876H3.45472V15.6629L6.90891 12.2V12.236C6.90891 12.7208 7.29705 13.116 7.78282 13.1342ZM13.0907 12.1997L16.5453 15.6629V11.8876H17.9998V18H11.818V16.5618H15.6362L12.2172 13.1342C12.7028 13.1158 13.0907 12.7207 13.0907 12.236V12.1997ZM13.0808 7.81047C13.0156 7.37728 12.6379 7.04497 12.1816 7.04497H12.0388L15.6364 3.43821H12.2727V2H18V7.66295H16.5455V4.33709L13.0808 7.81047Z"
	/>
	<rect x="6" y="6" width="8" height="8" rx="1" />
</svg>