<svg
	width="20"
	height="20"
	viewBox="0 0 20 20"
	xmlns="http://www.w3.org/2000/svg"
>
	<path
		opacity="0.3"
		fill-rule="evenodd"
		clip-rule="evenodd"
		d="M5.06099 3.75736C4.82869 3.98967 4.61941 4.23628 4.43317 4.49437L4.41046 4.52103L3.97861 5.10105L3.68908 2.75778L2.24551 2.93614L2.82162 7.59886L7.55324 7.01424L7.37689 5.58689L4.99106 5.88167L5.33327 5.44385L5.34851 5.45909C5.527 5.18184 5.73758 4.91925 5.98023 4.6766C6.81615 3.84068 7.8886 3.38546 8.98213 3.31094V3.35157C9.15094 3.32642 9.32086 3.31047 9.49107 3.30372C9.66127 3.31047 9.83119 3.32642 10 3.35157V3.31094C11.0935 3.38546 12.166 3.84068 13.0019 4.6766C13.2446 4.91925 13.4551 5.18184 13.6336 5.45909L13.6489 5.44385L13.9911 5.88167L11.6052 5.58689L11.4289 7.01424L16.1605 7.59886L16.7366 2.93614L15.293 2.75778L15.0035 5.10105L14.5717 4.52103L14.549 4.49437C14.3627 4.23628 14.1534 3.98967 13.9211 3.75736C12.7019 2.53811 11.0885 1.9533 9.49107 2.00291C7.89367 1.9533 6.28024 2.53811 5.06099 3.75736Z"
	/>
	<path d="M10.7071 8.00711C10.3166 7.61658 9.68342 7.61658 9.2929 8.00711L5.05026 12.2497C4.65973 12.6403 4.65973 13.2734 5.05026 13.664L9.2929 17.9066C9.68342 18.2971 10.3166 18.2971 10.7071 17.9066L14.9497 13.664C15.3403 13.2734 15.3403 12.6403 14.9497 12.2497L10.7071 8.00711Z" />
</svg>