<svg width="24" height="24" viewBox="0 0 24 24" xmlns="http://www.w3.org/2000/svg">
<path fill-rule="evenodd" clip-rule="evenodd" d="M7.00012 5L7.34768 5C8.14252 4.99999 8.77965 4.99999 9.29476 5.04041C9.82354 5.08191 10.2829 5.16919 10.7069 5.37667C11.2207 5.6281 11.6637 5.99406 12 6.44282C12.3363 5.99406 12.7793 5.6281 13.2931 5.37667C13.7171 5.16919 14.1765 5.08191 14.7052 5.04041C15.2204 4.99999 15.8575 4.99999 16.6523 5L16.9999 5C17.3872 4.99999 17.7175 4.99998 17.9888 5.02127C18.2737 5.04362 18.5524 5.09262 18.8199 5.22354C19.2226 5.42058 19.5536 5.73682 19.7622 6.13012C19.9019 6.39347 19.954 6.66818 19.9777 6.94591C20 7.20879 20 7.52804 20 7.89851V13.994C20 14.3644 20 14.6837 19.9777 14.9466C19.954 15.2243 19.9019 15.499 19.7622 15.7624C19.5536 16.1557 19.2226 16.4719 18.8199 16.6689C18.5524 16.7999 18.2737 16.8489 17.9888 16.8712C17.7175 16.8925 17.3872 16.8925 16.9999 16.8925H15.9681C15.0105 16.8925 14.6708 16.899 14.3727 16.986C14.089 17.0687 13.8262 17.2041 13.599 17.3834C13.3618 17.5707 13.1707 17.8338 12.6387 18.6002L12.5655 18.7057C12.4377 18.8899 12.2261 19 12 19C11.7739 19 11.5623 18.8899 11.4345 18.7057L11.3613 18.6002C10.8293 17.8338 10.6382 17.5707 10.401 17.3834C10.1738 17.2041 9.91103 17.0687 9.62734 16.986C9.32916 16.899 8.98949 16.8925 8.03187 16.8925H7.00013C6.6128 16.8925 6.28249 16.8925 6.01119 16.8712C5.72634 16.8489 5.44758 16.7999 5.18007 16.6689C4.77742 16.4719 4.44644 16.1557 4.2378 15.7624C4.09809 15.499 4.04596 15.2243 4.02234 14.9466C3.99998 14.6837 3.99999 14.3644 4 13.9939V7.89856C3.99999 7.52807 3.99998 7.2088 4.02234 6.94591C4.04596 6.66819 4.09809 6.39347 4.2378 6.13012C4.44644 5.73682 4.77742 5.42058 5.18007 5.22354C5.44758 5.09262 5.72634 5.04362 6.01119 5.02127C6.28249 4.99998 6.61279 4.99999 7.00012 5ZM11.3143 10.1735C11.3143 9.3751 11.3137 8.81822 11.2768 8.38458C11.2407 7.95943 11.1732 7.71366 11.0738 7.52618C10.8617 7.12636 10.5213 6.79778 10.0981 6.59072C9.89628 6.49193 9.63312 6.42607 9.18616 6.391C8.73175 6.35534 8.14914 6.35484 7.31886 6.35484H7.02629C6.60564 6.35484 6.33026 6.35534 6.11978 6.37185C5.91676 6.38779 5.83424 6.41536 5.78883 6.43758C5.64097 6.50994 5.52437 6.62358 5.45252 6.75903C5.43278 6.79623 5.40519 6.86851 5.38895 7.05936C5.37199 7.25871 5.37143 7.52051 5.37143 7.92545V13.967C5.37143 14.372 5.37199 14.6338 5.38895 14.8331C5.40519 15.024 5.43278 15.0962 5.45252 15.1334C5.52437 15.2689 5.64097 15.3825 5.78883 15.4549C5.83424 15.4771 5.91676 15.5047 6.11978 15.5206C6.33026 15.5371 6.60564 15.5376 7.02629 15.5376H8.03187C8.0663 15.5376 8.10026 15.5376 8.13378 15.5376C8.95148 15.5374 9.50345 15.5372 10.0157 15.6866C10.4681 15.8186 10.89 16.0352 11.2571 16.325C11.2764 16.3402 11.2954 16.3557 11.3143 16.3714V10.1735ZM12.6857 16.3714C12.7046 16.3557 12.7236 16.3402 12.7429 16.325C13.11 16.0352 13.5319 15.8186 13.9843 15.6866C14.4966 15.5372 15.0485 15.5374 15.8662 15.5376C15.8997 15.5376 15.9337 15.5376 15.9681 15.5376H16.9737C17.3944 15.5376 17.6697 15.5371 17.8802 15.5206C18.0832 15.5047 18.1658 15.4771 18.2112 15.4549C18.359 15.3825 18.4756 15.2689 18.5475 15.1334C18.5672 15.0962 18.5948 15.024 18.611 14.8331C18.628 14.6338 18.6286 14.372 18.6286 13.967V7.92545C18.6286 7.52051 18.628 7.25871 18.611 7.05936C18.5948 6.86851 18.5672 6.79623 18.5475 6.75903C18.4756 6.62358 18.359 6.50994 18.2112 6.43758C18.1658 6.41536 18.0832 6.38779 17.8802 6.37185C17.6697 6.35534 17.3944 6.35484 16.9737 6.35484H16.6811C15.8509 6.35484 15.2683 6.35534 14.8138 6.391C14.3669 6.42607 14.1037 6.49193 13.9019 6.59072C13.4787 6.79778 13.1383 7.12636 12.9262 7.52618C12.8268 7.71366 12.7593 7.95943 12.7232 8.38458C12.6863 8.81822 12.6857 9.3751 12.6857 10.1735V16.3714Z" />
</svg>
