<svg
	width="20"
	height="20"
	viewBox="0 0 20 20"
	xmlns="http://www.w3.org/2000/svg"
>
	<path d="M8.3868 4C8.04291 4 7.76414 4.27877 7.76414 4.62265V5.69812C7.76414 6.042 8.04291 6.32077 8.3868 6.32077C8.73068 6.32077 9.00945 6.042 9.00945 5.69812V4.62265C9.00945 4.27877 8.73068 4 8.3868 4Z" />
	<path d="M14.6229 5.37712C13.5397 4.29397 11.7836 4.29397 10.7004 5.37712L9.55972 6.51783C9.31656 6.76099 9.31656 7.15523 9.55972 7.39839C9.80288 7.64156 10.1971 7.64156 10.4403 7.39839L11.581 6.25769C12.1778 5.66085 13.1455 5.66085 13.7423 6.25769C14.3391 6.85452 14.3391 7.82218 13.7423 8.41901L12.6016 9.55972C12.3584 9.80288 12.3584 10.1971 12.6016 10.4403C12.8448 10.6834 13.239 10.6834 13.4822 10.4403L14.6229 9.29957C15.706 8.21642 15.706 6.46028 14.6229 5.37712Z" />
	<path d="M5.86954 4.98897C5.62638 4.74581 5.23213 4.74581 4.98897 4.98897C4.74581 5.23213 4.74581 5.62638 4.98897 5.86954L5.74944 6.63001C5.99261 6.87317 6.38685 6.87317 6.63001 6.63001C6.87317 6.38685 6.87317 5.99261 6.63001 5.74944L5.86954 4.98897Z" />
	<path d="M4.62265 7.76414C4.27877 7.76414 4 8.04291 4 8.3868C4 8.73068 4.27877 9.00945 4.62265 9.00945H5.69812C6.042 9.00945 6.32077 8.73068 6.32077 8.3868C6.32077 8.04291 6.042 7.76414 5.69812 7.76414H4.62265Z" />
	<path d="M7.39839 9.55972C7.15523 9.31656 6.76099 9.31656 6.51783 9.55972L5.37712 10.7004C4.29397 11.7836 4.29397 13.5397 5.37712 14.6229C6.46028 15.706 8.21642 15.706 9.29957 14.6229L10.4403 13.4822C10.6834 13.239 10.6834 12.8448 10.4403 12.6016C10.1971 12.3584 9.80288 12.3584 9.55972 12.6016L8.41901 13.7423C7.82218 14.3391 6.85452 14.3391 6.25769 13.7423C5.66085 13.1455 5.66085 12.1778 6.25769 11.581L7.39839 10.4403C7.64155 10.1971 7.64155 9.80288 7.39839 9.55972Z" />
	<path d="M14.3019 10.9906C13.958 10.9906 13.6792 11.2693 13.6792 11.6132C13.6792 11.9571 13.958 12.2359 14.3019 12.2359H15.3773C15.7212 12.2359 16 11.9571 16 11.6132C16 11.2693 15.7212 10.9906 15.3773 10.9906H14.3019Z" />
	<path d="M14.2506 13.37C14.0074 13.1268 13.6132 13.1268 13.37 13.37C13.1268 13.6132 13.1268 14.0074 13.37 14.2506L14.1305 15.011C14.3736 15.2542 14.7679 15.2542 15.011 15.011C15.2542 14.7679 15.2542 14.3736 15.011 14.1305L14.2506 13.37Z" />
	<path d="M11.6132 13.6792C11.2693 13.6792 10.9906 13.958 10.9906 14.3019V15.3773C10.9906 15.7212 11.2693 16 11.6132 16C11.9571 16 12.2359 15.7212 12.2359 15.3773V14.3019C12.2359 13.958 11.9571 13.6792 11.6132 13.6792Z" />
</svg>