<svg
	width="20"
	height="20"
	viewBox="0 0 20 20"
	xmlns="http://www.w3.org/2000/svg"
>
	<path
		opacity="0.5"
		fill-rule="evenodd"
		clip-rule="evenodd"
		d="M18 2H2V18H18V2ZM17 5H3V17H17V5ZM4 3.5C4 3.77614 3.77614 4 3.5 4C3.22386 4 3 3.77614 3 3.5C3 3.22386 3.22386 3 3.5 3C3.77614 3 4 3.22386 4 3.5ZM5.5 4C5.77614 4 6 3.77614 6 3.5C6 3.22386 5.77614 3 5.5 3C5.22386 3 5 3.22386 5 3.5C5 3.77614 5.22386 4 5.5 4ZM8 3.5C8 3.77614 7.77614 4 7.5 4C7.22386 4 7 3.77614 7 3.5C7 3.22386 7.22386 3 7.5 3C7.77614 3 8 3.22386 8 3.5Z"
	/>
	<path d="M15.8573 10.6519C15.9487 10.7431 16 10.8669 16 10.9959C16 11.125 15.9487 11.2488 15.8573 11.3399L13.6301 13.565C13.4401 13.7546 13.1325 13.7542 12.9429 13.5642C12.7534 13.3742 12.7537 13.0666 12.9437 12.877L14.2545 11.5662C14.2687 11.5521 14.2729 11.5309 14.2653 11.5124C14.2576 11.4939 14.2396 11.4819 14.2196 11.4818L5.78044 11.4826C5.76044 11.4826 5.7424 11.4946 5.73475 11.5131C5.7271 11.5316 5.73134 11.5528 5.7455 11.567L7.05299 12.8745C7.24297 13.064 7.24332 13.3717 7.05378 13.5616C6.86424 13.7516 6.55658 13.752 6.3666 13.5624L4.14272 11.3407C4.05135 11.2495 4 11.1257 4 10.9967C4 10.8676 4.05135 10.7438 4.14271 10.6527L6.36684 8.43065C6.55682 8.24111 6.86448 8.24146 7.05403 8.43144C7.24357 8.62142 7.24322 8.92908 7.05324 9.11862L5.7455 10.4264C5.73135 10.4405 5.7271 10.4617 5.73473 10.4802C5.74237 10.4987 5.76038 10.5107 5.78037 10.5108L14.2196 10.51C14.2396 10.51 14.2576 10.498 14.2653 10.4795C14.2729 10.461 14.2687 10.4398 14.2545 10.4256L12.9475 9.11863C12.7575 8.92909 12.7572 8.62143 12.9467 8.43145C13.1363 8.24147 13.4439 8.24112 13.6339 8.43066L15.8573 10.6519Z" />
</svg>