<svg width="20" height="20" viewBox="0 0 20 20" xmlns="http://www.w3.org/2000/svg">
<path d="M10 3V4.36816H7.05273C6.45191 4.36816 6.04232 4.36865 5.72559 4.39453C5.41694 4.41975 5.25716 4.46607 5.14453 4.52344C4.87714 4.65968 4.65968 4.87714 4.52344 5.14453C4.46607 5.25716 4.41975 5.41694 4.39453 5.72559C4.36865 6.04232 4.36816 6.45192 4.36816 7.05273L4.39941 12.9473C4.39941 13.5481 4.3999 13.9577 4.42578 14.2744C4.45101 14.5831 4.4973 14.7428 4.55469 14.8555C4.69086 15.1227 4.90762 15.3403 5.1748 15.4766C5.28744 15.534 5.44809 15.5802 5.75684 15.6055C6.07353 15.6313 6.48335 15.6318 7.08398 15.6318H12.9785C13.5792 15.6318 13.989 15.6313 14.3057 15.6055C14.6142 15.5802 14.7741 15.5339 14.8867 15.4766C15.1541 15.3403 15.3716 15.1228 15.5078 14.8555C15.5651 14.7428 15.6105 14.5829 15.6357 14.2744C15.6616 13.9577 15.6621 13.5481 15.6621 12.9473L15.6475 10H17.0156L17.0312 12.9756C17.0313 13.541 17.031 14.0067 17 14.3857C16.9679 14.7791 16.8986 15.1389 16.7266 15.4766C16.4591 16.0014 16.0327 16.4289 15.5078 16.6963C15.1702 16.8683 14.8102 16.9366 14.417 16.9688C14.038 16.9997 13.5722 17 13.0068 17H7.05566C6.49041 17 6.02451 16.9997 5.64551 16.9688C5.25214 16.9366 4.89141 16.8684 4.55371 16.6963C4.0289 16.4288 3.60238 16.0014 3.33496 15.4766C3.163 15.1389 3.09365 14.779 3.06152 14.3857C3.03056 14.0067 3.03124 13.541 3.03125 12.9756L3 7.02441C2.99999 6.45902 3.00028 5.99331 3.03125 5.61426C3.06338 5.22105 3.1318 4.86102 3.30371 4.52344C3.57115 3.99856 3.99856 3.57115 4.52344 3.30371C4.86102 3.1318 5.22105 3.06338 5.61426 3.03125C5.99331 3.00028 6.45902 2.99999 7.02441 3H10ZM11.1572 8.70117L13.8584 9.92969L11.1572 11.1572L9.92969 13.8584L8.70117 11.1572L6 9.92969L8.70117 8.70117L9.92969 6L11.1572 8.70117ZM15.9404 4.05957L18 5L15.9404 5.94043L15 8L14.0596 5.94043L12 5L14.0596 4.05957L15 2L15.9404 4.05957Z"/>
</svg>
