<svg
	width="20"
	height="20"
	viewBox="0 0 20 20"
	xmlns="http://www.w3.org/2000/svg"
>
	<path
		fill-rule="evenodd"
		clip-rule="evenodd"
		d="M2 16V4H3V16H2ZM18 16V4H17V16H18Z"
	/>
	<path d="M15.8573 9.65193C15.9487 9.74309 16 9.86685 16 9.99592C16 10.125 15.9487 10.2487 15.8573 10.3399L13.6301 12.565C13.4401 12.7545 13.1325 12.7542 12.9429 12.5642C12.7534 12.3742 12.7537 12.0666 12.9437 11.877L14.2545 10.5662C14.2686 10.5521 14.2729 10.5309 14.2653 10.5124C14.2576 10.4939 14.2396 10.4818 14.2196 10.4818L5.78044 10.4826C5.76044 10.4826 5.7424 10.4946 5.73475 10.5131C5.7271 10.5316 5.73134 10.5528 5.7455 10.567L7.05299 11.8745C7.24297 12.064 7.24332 12.3717 7.05378 12.5616C6.86424 12.7516 6.55658 12.752 6.3666 12.5624L4.14272 10.3406C4.05135 10.2495 4 10.1257 4 9.99665C4 9.86759 4.05135 9.74382 4.14271 9.65267L6.36684 7.43064C6.55682 7.2411 6.86448 7.24145 7.05403 7.43143C7.24357 7.62141 7.24322 7.92907 7.05324 8.11861L5.7455 9.42635C5.73135 9.44047 5.7271 9.46172 5.73473 9.4802C5.74237 9.49867 5.76038 9.51073 5.78037 9.51074L14.2196 9.51001C14.2396 9.51002 14.2576 9.49797 14.2653 9.47949C14.2729 9.46101 14.2687 9.43974 14.2545 9.42561L12.9475 8.11862C12.7575 7.92908 12.7572 7.62141 12.9467 7.43144C13.1363 7.24146 13.4439 7.24111 13.6339 7.43065L15.8573 9.65193Z" />
</svg>