<svg width="18" height="18" viewBox="0 0 18 18" xmlns="http://www.w3.org/2000/svg">
<path d="M8.9999 2.90039C9.77419 2.90039 10.4903 3.31407 10.8778 3.98438L15.7099 12.3574C16.0966 13.0268 16.0968 13.8522 15.7118 14.5225C15.326 15.1928 14.6132 15.6068 13.8397 15.6094H4.16786C3.39357 15.6094 2.6775 15.1957 2.28993 14.5254C1.90342 13.8543 1.90329 13.0285 2.28993 12.3574L7.12197 3.98438C7.50954 3.31409 8.22563 2.90042 8.9999 2.90039ZM8.9999 4.33008C8.73623 4.33017 8.49354 4.47078 8.36122 4.69922L3.52724 13.0723C3.39577 13.3008 3.39581 13.582 3.52724 13.8105C3.65864 14.0382 3.90212 14.1795 4.16493 14.1797H13.8349C14.0986 14.1822 14.3438 14.0408 14.4735 13.8105C14.6082 13.5829 14.6084 13.2999 14.4735 13.0723L14.4745 13.0732L9.63954 4.69922C9.50722 4.47062 9.26371 4.33008 8.9999 4.33008ZM8.85927 11.9766C9.06969 11.9346 9.28726 11.9893 9.45302 12.125C9.6186 12.2607 9.71363 12.4632 9.71376 12.6777C9.7129 12.7713 9.69424 12.8645 9.65908 12.9512C9.64103 12.995 9.61931 13.0365 9.59267 13.0752C9.5669 13.1147 9.53742 13.1521 9.50478 13.1855C9.22467 13.4635 8.7731 13.4636 8.49306 13.1855C8.4604 13.152 8.43009 13.1147 8.40517 13.0752C8.37854 13.0365 8.35595 12.995 8.33876 12.9512C8.32079 12.9083 8.30717 12.8637 8.29775 12.8174C8.2883 12.7718 8.28408 12.7241 8.28408 12.6777C8.2842 12.488 8.35997 12.3058 8.49306 12.1719C8.52638 12.1386 8.56317 12.1096 8.60243 12.084C8.641 12.0583 8.68264 12.0357 8.72548 12.0186C8.76931 12.0005 8.8147 11.986 8.86025 11.9766H8.85927ZM8.9999 6.29785C9.39506 6.29785 9.71451 6.61758 9.71474 7.0127V10.5381C9.71474 10.9334 9.39521 11.2529 8.9999 11.2529C8.60464 11.2529 8.28505 10.9334 8.28505 10.5381V7.0127C8.28529 6.61762 8.60478 6.29791 8.9999 6.29785Z" />
</svg>
