<svg
	width="18"
	height="18"
	viewBox="0 0 18 18"
	xmlns="http://www.w3.org/2000/svg"
>
	<g opacity="0.4">
		<path d="M9.99004 6C10.5313 6 10.97 6.43876 10.97 6.98L10.97 10.99C10.97 11.5312 10.5313 11.97 9.99005 11.97L8.65004 11.97C8.10881 11.97 7.67004 11.5312 7.67004 10.99L7.67004 6.98C7.67004 6.43876 8.10881 6 8.65004 6H9.99004Z" />
		<path d="M14.66 6C15.2013 6 15.64 6.43876 15.64 6.98L15.64 10.99C15.64 11.5312 15.2013 11.97 14.66 11.97L13.32 11.97C12.7788 11.97 12.34 11.5312 12.34 10.99L12.34 6.98C12.34 6.43876 12.7788 6 13.32 6H14.66Z" />
	</g>
	<path d="M5.32 6C5.86124 6 6.3 6.43876 6.3 6.98L6.3 10.99C6.3 11.5312 5.86124 11.97 5.32 11.97L3.98 11.97C3.43876 11.97 3 11.5312 3 10.99V6.98C3 6.43876 3.43876 6 3.98 6H5.32Z" />
</svg>