<svg width="24" height="24" viewBox="0 0 24 24" xmlns="http://www.w3.org/2000/svg">
<path fill-rule="evenodd" clip-rule="evenodd" d="M16.2823 4.05623C16.625 4.19168 16.8313 4.54314 16.7826 4.90839L16.104 9.99811L19.1704 9.9981C19.3468 9.99806 19.5299 9.99802 19.6812 10.0119C19.83 10.0255 20.1011 10.0615 20.3434 10.2486C20.626 10.4667 20.797 10.799 20.8103 11.1557C20.8216 11.4617 20.6934 11.7032 20.618 11.8322C20.5413 11.9633 20.4349 12.1123 20.3323 12.2559L15.0408 19.664C14.8266 19.9638 14.4357 20.0792 14.093 19.9438C13.7503 19.8083 13.544 19.4569 13.5927 19.0916L14.2713 14.0019H11.2326C11.2234 14.0019 11.2142 14.0019 11.205 14.0019C11.0285 14.0019 10.8454 14.002 10.6941 13.9881C10.5453 13.9745 10.2742 13.9385 10.0319 13.7514C9.74931 13.5333 9.57827 13.201 9.56504 12.8443C9.5537 12.5383 9.68192 12.2968 9.75733 12.1678C9.83399 12.0367 9.94044 11.8877 10.0431 11.7441C10.0484 11.7366 10.0538 11.7291 10.0591 11.7216L15.3345 4.33603C15.5487 4.03619 15.9396 3.92079 16.2823 4.05623ZM11.5483 12.3973H15.1877C15.4189 12.3973 15.6389 12.4971 15.7913 12.6711C15.9436 12.8451 16.0135 13.0764 15.9829 13.3056L15.6093 16.1073L18.827 11.6027H15.1877C14.9564 11.6027 14.7364 11.5029 14.584 11.3289C14.4317 11.1549 14.3618 10.9236 14.3924 10.6944L14.766 7.89265L11.5483 12.3973ZM3.18903 12C3.18903 11.5569 3.54822 11.1977 3.99131 11.1977H7.59014C8.03323 11.1977 8.39242 11.5569 8.39242 12C8.39242 12.4431 8.03323 12.8023 7.59014 12.8023H3.99131C3.54822 12.8023 3.18903 12.4431 3.18903 12Z"/>
<path opacity="0.5" fill-rule="evenodd" clip-rule="evenodd" d="M4.78851 7.60144C4.78851 7.15835 5.14771 6.79915 5.5908 6.79915H9.58949C10.0326 6.79915 10.3918 7.15835 10.3918 7.60144C10.3918 8.04453 10.0326 8.40372 9.58949 8.40372H5.5908C5.14771 8.40372 4.78851 8.04453 4.78851 7.60144ZM4.38864 16.3986C4.38864 15.9555 4.74784 15.5963 5.19093 15.5963H9.58949C10.0326 15.5963 10.3918 15.9555 10.3918 16.3986C10.3918 16.8417 10.0326 17.2008 9.58949 17.2008H5.19093C4.74784 17.2008 4.38864 16.8417 4.38864 16.3986Z"/>
</svg>
