<?xml version="1.0" encoding="utf-8"?>
<!-- Generator: Adobe Illustrator 16.0.4, SVG Export Plug-In . SVG Version: 6.00 Build 0)  -->
<!DOCTYPE svg PUBLIC "-//W3C//DTD SVG 1.1//EN" "http://www.w3.org/Graphics/SVG/1.1/DTD/svg11.dtd">
<svg version="1.1" id="Layer_1" xmlns="http://www.w3.org/2000/svg" xmlns:xlink="http://www.w3.org/1999/xlink" x="0px" y="0px"
	 width="56.693px" height="56.693px" viewBox="0 0 56.693 56.693" enable-background="new 0 0 56.693 56.693" xml:space="preserve">
<g>
	<path d="M23.839,29.278l4.17-7.264c0.311-0.543,0.123-1.241-0.42-1.557l-2.967-1.697c-0.541-0.314-1.242-0.125-1.553,0.418
		l-4.547,7.918l0,0l-5.009,8.723l0,0l-4.181,7.283c-0.314,0.543-0.123,1.24,0.42,1.551l2.965,1.705
		c0.543,0.312,1.243,0.123,1.557-0.418l5.81-10.121l0,0L23.839,29.278z"/>
	<path d="M51.798,27.097h-10.01c1.178,2.207,2.27,4.285,3.039,5.754c0.531,1.016,0.953,1.818,1.102,2.088
		c0.156,0.285,0.268,0.58,0.342,0.881h5.527c0.568,0,1.031-0.461,1.031-1.029v-6.664C52.829,27.558,52.366,27.097,51.798,27.097z"/>
	<path d="M27.466,27.097l-5.008,8.723h13.59c-0.986-1.947-2.293-4.732-4.049-8.723H27.466z"/>
	<path d="M16.147,27.097H4.625c-0.569,0-1.03,0.461-1.03,1.029v6.664c0,0.568,0.461,1.029,1.03,1.029h6.514L16.147,27.097z"/>
	<path d="M11.749,47.663l-2.965-1.701c-0.543-0.312-1.045-0.057-1.117,0.564l-0.513,4.465c-0.071,0.621,0.294,0.844,0.812,0.492
		l3.83-2.611C12.314,48.522,12.292,47.976,11.749,47.663z"/>
	<path d="M44.124,35.931c-0.018-0.029-0.039-0.07-0.061-0.111l0,0c-0.275-0.51-0.967-1.836-1.873-3.557
		c-0.01-0.023-0.021-0.043-0.033-0.066c-0.068-0.133-0.139-0.266-0.211-0.402c-0.053-0.098-0.104-0.197-0.158-0.297
		c-0.043-0.086-0.09-0.172-0.135-0.26c-0.08-0.152-0.162-0.305-0.244-0.461c-0.025-0.049-0.051-0.098-0.076-0.146
		c-0.092-0.176-0.186-0.352-0.281-0.531c-0.027-0.051-0.053-0.102-0.082-0.154c-2.088-3.949-4.711-8.811-6.33-11.368
		c-2.834-4.48-6.617-11.947-7.674-11.416c-1.479,0.736,3.1,10.215,4.615,13.777c1.516,3.561,7.432,17.209,8.617,17.805
		c1.188,0.594,1.646,0.264,2.438-0.064C43.429,38.349,44.849,37.253,44.124,35.931z"/>
	<path d="M47.505,42.964l-1.412-2.711c-0.32-0.613-1.072-0.863-1.672-0.557l-1.703,0.877c-0.6,0.311-0.789,1.037-0.42,1.623
		l1.787,2.822c0.369,0.582,1.148,0.773,1.727,0.424l1.215-0.73C47.608,44.364,47.823,43.577,47.505,42.964z"/>
	<path d="M47.069,46.888c-0.445,0.426-1.502,1.352-0.223,3.148c1.275,1.801,4.125,1.881,4.502,3.076
		C51.349,53.112,52.243,43.97,47.069,46.888z"/>
</g>
</svg>
