<?xml version="1.0" encoding="utf-8"?>
<!-- Generator: Adobe Illustrator 16.0.4, SVG Export Plug-In . SVG Version: 6.00 Build 0)  -->
<!DOCTYPE svg PUBLIC "-//W3C//DTD SVG 1.1//EN" "http://www.w3.org/Graphics/SVG/1.1/DTD/svg11.dtd">
<svg version="1.1" id="Layer_1" xmlns="http://www.w3.org/2000/svg" xmlns:xlink="http://www.w3.org/1999/xlink" x="0px" y="0px"
	 width="56.693px" height="56.693px" viewBox="0 0 56.693 56.693" enable-background="new 0 0 56.693 56.693" xml:space="preserve">
<g>
	<path d="M11.414,14.254v6.556H3.968v15.009h12.283V14.254H11.414z M11.414,31.786H8.891v-6.822h2.522V31.786z"/>
	<path d="M26.336,20.872v15.006h7.449v2.348h-7.533v4.213h10.232h2.137V20.872H26.336z M33.785,31.728H31.26v-6.824h2.525V31.728z"
		/>
	<path d="M41.174,20.872v15.006h7.443v2.348h-7.531v4.213h10.236h2.135V20.872H41.174z M48.617,31.728H46.1v-6.824h2.518V31.728z"/>
	<rect x="18.746" y="20.781" width="5.01" height="15.097"/>
	<rect x="18.746" y="14.52" width="5.01" height="4.095"/>
</g>
</svg>
