<?xml version="1.0" encoding="utf-8"?>
<!-- Generator: Adobe Illustrator 19.2.1, SVG Export Plug-In . SVG Version: 6.00 Build 0)  -->
<svg version="1.1" id="Layer_1" xmlns="http://www.w3.org/2000/svg" xmlns:xlink="http://www.w3.org/1999/xlink" x="0px" y="0px"
	 width="56.7px" height="56.7px" viewBox="0 0 56.7 56.7" style="enable-background:new 0 0 56.7 56.7;" xml:space="preserve">
<g>
	<g>
		<path d="M28.35,3.5943c-13.6721,0-24.7556,11.0835-24.7556,24.7556c0,13.6722,11.0835,24.7557,24.7556,24.7557
			c13.6722,0,24.7556-11.0835,24.7556-24.7557C53.1056,14.6778,42.0222,3.5943,28.35,3.5943z M31.6508,33.3011L31.6508,33.3011
			l-7.0141,0.0001v7.4266h-4.9511V15.9721l11.9653,0.0001v-0.0001c4.7853,0,8.6644,3.8793,8.6644,8.6645
			C40.3152,29.4219,36.4361,33.3011,31.6508,33.3011z"/>
	</g>
	<g>
		<path d="M31.6508,20.9233L31.6508,20.9233l-7.0141,0.0001V28.35h7.0141v-0.0001c2.0508,0,3.7132-1.6625,3.7132-3.7133
			C35.364,22.5858,33.7016,20.9233,31.6508,20.9233z"/>
	</g>
</g>
</svg>
