<svg width="18" height="18" viewBox="0 0 18 18" xmlns="http://www.w3.org/2000/svg">
<path d="M6.07227 5.57227C6.25117 5.39336 6.51596 5.32987 6.75684 5.40723L15.7012 8.28516C15.925 8.35718 16.0951 8.54095 16.1504 8.76953C16.2055 8.99809 16.1379 9.23902 15.9717 9.40527L14.4268 10.9502L16.4775 13.001C16.7407 13.2646 16.7409 13.6916 16.4775 13.9551L14.4551 15.9775C14.3285 16.1039 14.1564 16.1748 13.9775 16.1748C13.7987 16.1746 13.6264 16.104 13.5 15.9775L11.4492 13.9268L9.90527 15.4717C9.73903 15.6378 9.49799 15.7055 9.26953 15.6504C9.04107 15.5951 8.85715 15.425 8.78516 15.2012L5.90723 6.25684C5.82978 6.01599 5.89345 5.75122 6.07227 5.57227ZM9.73145 13.7354L10.9727 12.4951L11.0752 12.4102C11.1852 12.3368 11.316 12.2969 11.4502 12.2969C11.6291 12.2969 11.8012 12.3687 11.9277 12.4951L13.9775 14.5449L15.0449 13.4775L12.9951 11.4277C12.7318 11.1642 12.7318 10.7362 12.9951 10.4727L14.2354 9.23145L7.59473 7.09473L9.73145 13.7354ZM3.66504 8.72266C3.92859 8.45912 4.35651 8.45923 4.62012 8.72266C4.88358 8.98628 4.88369 9.41418 4.62012 9.67773L3.87695 10.4199C3.61337 10.683 3.18632 10.6832 2.92285 10.4199C2.6595 10.1564 2.65948 9.72839 2.92285 9.46484L3.66504 8.72266ZM3.0498 5.72461C3.4226 5.72461 3.72461 6.0276 3.72461 6.40039C3.7244 6.773 3.42247 7.0752 3.0498 7.0752H2C1.62751 7.075 1.32541 6.77288 1.3252 6.40039C1.3252 6.02772 1.62738 5.72481 2 5.72461H3.0498ZM2.92285 2.42285C3.18636 2.15934 3.61333 2.15952 3.87695 2.42285L4.62012 3.16504C4.8836 3.42865 4.88368 3.85655 4.62012 4.12012C4.35654 4.3835 3.92859 4.38354 3.66504 4.12012L2.92285 3.37695C2.65958 3.11339 2.65952 2.68638 2.92285 2.42285ZM9.96484 2.42285C10.2284 2.15932 10.6563 2.15942 10.9199 2.42285C11.1833 2.68639 11.1832 3.11338 10.9199 3.37695L10.1777 4.12012C9.91417 4.38347 9.48621 4.38349 9.22266 4.12012C8.9593 3.85655 8.95929 3.42859 9.22266 3.16504L9.96484 2.42285ZM6.90039 0.825195C7.273 0.825408 7.5752 1.12734 7.5752 1.5V2.5498C7.5752 2.92247 7.273 3.2244 6.90039 3.22461C6.52777 3.22441 6.22461 2.92247 6.22461 2.5498V1.5C6.22461 1.12733 6.52777 0.825393 6.90039 0.825195Z"/>
</svg>
