<svg xmlns="http://www.w3.org/2000/svg" width="103" height="87" fill="none" viewBox="0 0 103 87"><circle cx="52.5" cy="38.5" r="38.5" fill="#FED35E"></circle><path fill="#0051E7" fill-rule="evenodd" d="M71.881 23.893 52 35.371 32.119 23.893 52 12.415zM50.087 45.857V39.18c0-.684-.365-1.315-.957-1.656L30 26.48v22l19.37 11.183a.478.478 0 0 0 .717-.414v-6.272a.96.96 0 0 0-.478-.828l-1.913-1.105a.96.96 0 0 1-.479-.828v-4.773c0-.184.2-.3.36-.208l1.793 1.036a.478.478 0 0 0 .717-.414m-7.054 5.364-8.25-4.763v-3.826l8.13 4.693a.96.96 0 0 1 .478.828v2.86a.24.24 0 0 1-.358.208m0-7.652-8.25-4.764V34.98l8.13 4.694a.96.96 0 0 1 .478.828v2.86a.24.24 0 0 1-.358.208m10.88-5.476L74 26.496v22L53.913 60.093z" clip-rule="evenodd"></path><path fill="#FED35E" d="M11.232 77.538V62.17H.475l6.147 12.294L.475 86.76h18.441a3.083 3.083 0 0 0 3.074-3.074h-4.61a6.145 6.145 0 0 1-6.148-6.147M102.525 62.17H91.768v15.368a6.145 6.145 0 0 1-6.147 6.147h-4.61a3.083 3.083 0 0 0 3.073 3.074h18.441l-6.147-12.295z"></path><path fill="#FED35E" stroke="#f0f4ff" stroke-width="2" d="M86.522 56.023H16.873c-2.462 0-4.87 1.621-4.87 4.073v18.442c0 2.452 2.408 4.073 4.87 4.073h69.649c2.462 0 4.87-1.62 4.87-4.073V60.096c0-2.452-2.408-4.073-4.87-4.073Z"></path><path fill="#654A00" d="M37.249 74.421V64.003h4.11q1.185 0 2.02.453.834.448 1.271 1.246.443.794.443 1.832 0 1.037-.448 1.83-.447.795-1.297 1.237-.845.443-2.045.443h-2.62v-1.766h2.264q.636 0 1.048-.218a1.45 1.45 0 0 0 .62-.616q.21-.397.209-.91 0-.519-.209-.906a1.4 1.4 0 0 0-.62-.605q-.417-.219-1.058-.219H39.45v8.617zM47.24 74.421V64.003h4.11q1.18 0 2.015.422.84.418 1.276 1.186.443.763.443 1.795 0 1.038-.448 1.786-.447.742-1.297 1.14-.845.396-2.045.396h-2.752v-1.77h2.396q.63 0 1.048-.173.417-.172.62-.519.21-.345.21-.86 0-.519-.21-.875a1.28 1.28 0 0 0-.625-.539q-.418-.188-1.053-.188h-1.486v8.617zm5.626-4.74 2.59 4.74h-2.432l-2.534-4.74zM66.93 69.212q0 1.704-.645 2.9-.642 1.196-1.75 1.826-1.104.626-2.483.626-1.39 0-2.492-.63-1.104-.632-1.745-1.827t-.641-2.895q0-1.703.64-2.9.642-1.194 1.746-1.82 1.103-.631 2.492-.631 1.38 0 2.483.63 1.108.627 1.75 1.822.645 1.195.646 2.9m-2.233 0q0-1.103-.33-1.862-.326-.757-.92-1.15-.596-.39-1.395-.39-.798 0-1.394.39-.594.393-.925 1.15-.326.758-.326 1.862t.326 1.862q.33.758.925 1.15.596.391 1.394.391.799 0 1.394-.391.596-.392.92-1.15.332-.758.332-1.862"></path></svg>