<svg width="20" height="20" viewBox="0 0 20 20" xmlns="http://www.w3.org/2000/svg">
<path d="M18.5297 8.46L13.3968 3.60667C12.7552 3 11.747 3 11.1053 3.60667L5.97249 8.46C5.33088 9.06667 5.33088 10.02 5.97249 10.6267L11.1053 15.48C11.3803 15.74 11.8386 15.9133 12.2052 15.9133C12.5719 15.9133 13.0302 15.74 13.3051 15.48L18.438 10.6267C19.1713 10.02 19.1713 8.98 18.5297 8.46ZM17.6131 9.67333L12.4802 14.5267C12.3886 14.6133 12.2052 14.6133 12.1136 14.5267L6.98073 9.67333C6.88907 9.58667 6.88907 9.41333 6.98073 9.32667L12.1136 4.47333C12.1136 4.47333 12.2052 4.38667 12.2969 4.38667C12.3886 4.38667 12.3886 4.38667 12.4802 4.47333L17.6131 9.32667C17.7048 9.41333 17.7048 9.58667 17.6131 9.67333ZM2.39781 9.32667L8.17229 3.86667L7.25571 3L1.48123 8.46C0.839622 9.06667 0.839622 10.02 1.48123 10.6267L7.25571 16L8.26395 15.0467L2.48947 9.58667C2.30615 9.58667 2.30615 9.41333 2.39781 9.32667Z"/>
<path d="M7.32424 2.92773L8.24124 3.79395L8.31741 3.86621L8.24124 3.93945L2.46682 9.39941C2.45574 9.40989 2.44728 9.42367 2.44241 9.4375C2.43753 9.45145 2.43718 9.46248 2.4385 9.46875C2.43956 9.47355 2.44097 9.47579 2.44338 9.47754C2.44677 9.47996 2.45929 9.4863 2.48928 9.48633H2.52932L2.55862 9.51367L8.33303 14.9736L8.4092 15.0469L8.33303 15.1191L7.32424 16.0723L7.25588 16.1367L7.18753 16.0732L1.41311 10.7002L1.41213 10.6992C0.729206 10.0532 0.729274 9.03375 1.41213 8.3877L7.25588 2.8623L7.32424 2.92773ZM11.0362 3.53418C11.7164 2.89107 12.7857 2.89105 13.4658 3.53418L18.5928 8.38184L18.7149 8.49414C19.2845 9.08382 19.2299 10.1018 18.502 10.7041L13.374 15.5527C13.0798 15.831 12.5963 16.0137 12.2051 16.0137C11.8141 16.0136 11.3305 15.831 11.0362 15.5527L5.90335 10.6992C5.22045 10.0532 5.22052 9.03375 5.90335 8.3877L11.0362 3.53418ZM1.54983 8.53223C0.950021 9.09937 0.950165 9.98646 1.54983 10.5537L7.25491 15.8623L8.11819 15.0459L2.44241 9.67969C2.3996 9.67383 2.35955 9.66374 2.3262 9.63965C2.27997 9.60622 2.25261 9.55892 2.24221 9.50977C2.22253 9.41631 2.26222 9.31717 2.32913 9.25391L8.02639 3.86621L7.25491 3.13672L1.54983 8.53223ZM13.3281 3.67969C12.7251 3.10947 11.777 3.10946 11.1739 3.67969L6.04104 8.53223C5.44124 9.09936 5.4414 9.98646 6.04104 10.5537L11.1739 15.4072C11.4295 15.6489 11.863 15.8134 12.2051 15.8135C12.5473 15.8135 12.9808 15.6489 13.2364 15.4072L18.3692 10.5537L18.374 10.5498C19.0641 9.97886 19.0537 9.014 18.4668 8.53809L18.461 8.5332L13.3281 3.67969ZM12.2969 4.28711C12.3354 4.28711 12.3842 4.2842 12.4317 4.30664C12.4545 4.31743 12.4733 4.33229 12.4903 4.34668C12.507 4.36092 12.5268 4.37953 12.5489 4.40039L17.6817 9.25391C17.7515 9.31989 17.7823 9.4135 17.7823 9.5C17.7823 9.5865 17.7515 9.68011 17.6817 9.74609L12.5489 14.5996C12.4798 14.6648 12.3839 14.6914 12.2969 14.6914C12.2099 14.6914 12.114 14.6648 12.0449 14.5996L6.91213 9.74609C6.84234 9.68011 6.81155 9.58649 6.81155 9.5C6.81155 9.41351 6.84234 9.31989 6.91213 9.25391L12.0449 4.40039L12.0469 4.39844C12.048 4.39742 12.05 4.39613 12.0518 4.39453C12.0554 4.39135 12.0603 4.38678 12.0664 4.38184C12.0787 4.37192 12.0962 4.35898 12.1172 4.3457C12.1568 4.32074 12.2226 4.28712 12.2969 4.28711ZM12.2969 4.48633C12.2796 4.48634 12.2536 4.49641 12.2246 4.51465C12.2117 4.52282 12.2001 4.53087 12.1924 4.53711C12.1886 4.5402 12.1854 4.54338 12.1836 4.54492L12.1826 4.5459L7.04983 9.39941C7.02796 9.42009 7.01174 9.45649 7.01174 9.5C7.01174 9.54351 7.02796 9.57991 7.04983 9.60059L12.1826 14.4541C12.2052 14.4753 12.2466 14.4912 12.2969 14.4912C12.3472 14.4912 12.3885 14.4753 12.4112 14.4541L17.544 9.60059C17.5659 9.57991 17.5821 9.5435 17.5821 9.5C17.5821 9.4565 17.5659 9.42009 17.544 9.39941L12.4112 4.5459C12.3876 4.52364 12.3732 4.50908 12.3614 4.49902C12.3506 4.4899 12.3462 4.4885 12.3457 4.48828C12.3431 4.48792 12.3326 4.48633 12.2969 4.48633Z"/>
</svg>
