<svg width="24" height="24" viewBox="0 0 24 24" xmlns="http://www.w3.org/2000/svg">
<path d="M17.5955 7.82859H19.7576V16.1407H17.5955V22L12.5445 16.9436V21.7056H11.4346V16.9661L6.40616 22V16.1407H4.24414V7.82859H6.40616V2L11.4346 7.03296V2.59875H12.5445V7.05554L17.5955 2V7.82859ZM7.51606 13.6581V19.3187L11.4346 15.3975V9.73593L7.51606 13.6581ZM12.5563 15.3857L16.4856 19.3187V13.6572L12.5563 9.72419V15.3857ZM17.5955 8.9394H13.3401L17.5955 13.1984V15.0308H18.6485V8.9385L17.5955 8.9394ZM5.35314 15.0308H6.40616V13.4278L6.40706 13.1984L6.56871 13.0359L10.6616 8.9394H6.40616L5.35314 8.9385V15.0308ZM13.341 7.82859H16.4856V4.68039L13.341 7.82859ZM7.51606 7.82859H10.6606L7.51606 4.68039V7.82859Z" />
</svg>
