<svg width="24" height="24" viewBox="0 0 24 24" xmlns="http://www.w3.org/2000/svg">
<path d="M11.9975 3.49023C12.024 3.49031 12.0501 3.49777 12.0727 3.51172C12.0838 3.51868 12.0942 3.52749 12.1029 3.53711L12.1254 3.57031L14.7592 8.90527C14.7944 8.97669 14.8463 9.03897 14.9106 9.08594C14.975 9.13284 15.0514 9.16413 15.1303 9.17578L21.0189 10.0312C21.0454 10.035 21.0707 10.0463 21.0912 10.0635C21.1115 10.0807 21.1269 10.1036 21.1352 10.1289C21.1433 10.1543 21.1445 10.1822 21.1381 10.208C21.1316 10.2338 21.1171 10.2579 21.0981 10.2764L16.8383 14.4287C16.7809 14.4846 16.738 14.5537 16.7133 14.6299C16.6886 14.7061 16.682 14.7873 16.6957 14.8662L17.7016 20.7305C17.7058 20.7564 17.7027 20.7833 17.6928 20.8076C17.6827 20.8322 17.6655 20.8545 17.6439 20.8701C17.6225 20.8855 17.597 20.8946 17.5707 20.8965C17.5442 20.8984 17.5171 20.8922 17.4936 20.8799L12.227 18.1113C12.1563 18.0743 12.0772 18.0547 11.9975 18.0547C11.9176 18.0547 11.8387 18.0741 11.768 18.1113L6.50137 20.8809C6.47776 20.8932 6.45077 20.8994 6.42422 20.8975C6.39785 20.8954 6.3724 20.8856 6.35098 20.8701C6.3296 20.8545 6.31221 20.8331 6.30215 20.8086C6.2922 20.7841 6.28997 20.7566 6.29434 20.7305L7.29922 14.8662L7.30508 14.7471C7.30228 14.7075 7.2949 14.6679 7.28262 14.6299C7.25794 14.5538 7.21486 14.4846 7.15762 14.4287L2.8959 10.2764C2.87688 10.2579 2.86338 10.2337 2.85684 10.208C2.85043 10.1822 2.85066 10.1542 2.85879 10.1289C2.86707 10.1035 2.88324 10.0807 2.90371 10.0635C2.92413 10.0464 2.94965 10.035 2.97598 10.0312L8.86465 9.17578C8.94365 9.16415 9.01885 9.13295 9.0834 9.08594C9.14782 9.03893 9.20051 8.97681 9.23575 8.90527L11.8686 3.57031C11.8804 3.54649 11.8987 3.52578 11.9213 3.51172C11.944 3.49765 11.9708 3.49023 11.9975 3.49023ZM10.6352 9.59766C10.488 9.89555 10.2701 10.1532 10.0014 10.3486C9.73235 10.5441 9.41929 10.6718 9.09024 10.7197L6.392 11.1113L6.04043 11.1631L8.24746 13.3135C8.73011 13.7847 8.95086 14.4648 8.83731 15.1309L8.37637 17.8174L8.3168 18.167L11.0434 16.7324C11.338 16.5775 11.6666 16.4971 11.9994 16.4971C12.3321 16.4971 12.66 16.5776 12.9545 16.7324L15.6801 18.167L15.6205 17.8174L15.1596 15.1309C15.1033 14.8029 15.128 14.4659 15.2309 14.1494C15.3338 13.8329 15.512 13.5457 15.7504 13.3135L17.9564 11.1631L17.6049 11.1113L14.9066 10.7197C14.5776 10.6718 14.2645 10.544 13.9955 10.3486C13.7268 10.1533 13.5089 9.89552 13.3617 9.59766L11.9984 6.83398L10.6352 9.59766Z" />
</svg>
