<svg width="66" height="56" viewBox="0 0 66 56" fill="none" xmlns="http://www.w3.org/2000/svg">
<circle cx="33.6401" cy="25.0996" r="24.6518" fill="#FFF2CE"/>
<path fill-rule="evenodd" clip-rule="evenodd" d="M46.0503 15.7468L33.3202 23.0964L20.59 15.7468L33.3202 8.39722L46.0503 15.7468ZM32.0952 29.8103V25.5359C32.0952 25.098 31.8619 24.6938 31.4827 24.4751L19.2334 17.403V31.4903L31.6359 38.6507C31.8398 38.7683 32.0952 38.6213 32.0952 38.3855V34.3695C32.0952 34.1509 31.9782 33.9488 31.789 33.8391L30.564 33.1317C30.3748 33.0221 30.2578 32.82 30.2578 32.6013V29.5451C30.2578 29.4275 30.3852 29.3534 30.4875 29.4122L31.6359 30.0755C31.8398 30.1931 32.0952 30.0461 32.0952 29.8103ZM27.5783 33.245L22.2957 30.195V27.7451L27.5017 30.7505C27.691 30.8601 27.8079 31.0622 27.8079 31.2809V33.1121C27.8079 33.2297 27.6805 33.3038 27.5783 33.245ZM27.5783 28.3453L22.2957 25.2952V22.8453L27.5017 25.8507C27.691 25.9604 27.8079 26.1625 27.8079 26.3811V28.2124C27.8079 28.33 27.6805 28.4041 27.5783 28.3453ZM34.545 24.8388L47.4069 17.4133V31.5L34.545 38.9256V24.8388Z" fill="#0051E7"/>
<path d="M7.21626 50.0958V40.2556H0.328125L4.2642 48.1278L0.328125 55.9999H12.1364C13.2188 55.9999 14.1044 55.1143 14.1044 54.0319H11.1523C8.97766 54.0319 7.21626 52.2705 7.21626 50.0958Z" fill="#FED35E"/>
<path d="M65.6718 40.2556H58.7836V50.0958C58.7836 52.2705 57.0222 54.0319 54.8476 54.0319H51.8955C51.8955 55.1143 52.7811 55.9999 53.8635 55.9999H65.6718L61.7357 48.1278L65.6718 40.2556Z" fill="#FED35E"/>
<path d="M55.4247 35.9597H10.8282C9.13454 35.9597 7.35059 37.0861 7.35059 38.9278V50.736C7.35059 52.5776 9.13454 53.704 10.8282 53.704H55.4247C57.1183 53.704 58.9023 52.5776 58.9023 50.736V38.9278C58.9023 37.0861 57.1183 35.9597 55.4247 35.9597Z" fill="#FED35E" stroke="#0051E7" stroke-width="2"/>
<path d="M23.874 48.1002V41.4293H26.5059C27.0119 41.4293 27.4429 41.526 27.799 41.7192C28.1552 41.9103 28.4266 42.1763 28.6133 42.5173C28.8023 42.856 28.8967 43.2469 28.8967 43.6899C28.8967 44.1329 28.8012 44.5237 28.6101 44.8625C28.419 45.2013 28.1421 45.4651 27.7795 45.654C27.419 45.8429 26.9825 45.9374 26.4701 45.9374H24.7926V44.8071H26.2421C26.5135 44.8071 26.7372 44.7604 26.9131 44.6671C27.0911 44.5715 27.2236 44.4401 27.3104 44.2729C27.3995 44.1036 27.444 43.9092 27.444 43.6899C27.444 43.4684 27.3995 43.2751 27.3104 43.1101C27.2236 42.9429 27.0911 42.8137 26.9131 42.7225C26.735 42.6291 26.5092 42.5824 26.2355 42.5824H25.2844V48.1002H23.874Z" fill="#654A00"/>
<path d="M30.2715 48.1002V41.4293H32.9033C33.4071 41.4293 33.8371 41.5195 34.1932 41.6997C34.5515 41.8778 34.824 42.1307 35.0108 42.4586C35.1997 42.7844 35.2942 43.1676 35.2942 43.6085C35.2942 44.0514 35.1986 44.4325 35.0075 44.7518C34.8164 45.0688 34.5396 45.312 34.1769 45.4814C33.8165 45.6508 33.38 45.7354 32.8675 45.7354H31.1053V44.6019H32.6395C32.9088 44.6019 33.1324 44.565 33.3105 44.4912C33.4886 44.4173 33.621 44.3066 33.7079 44.1589C33.7969 44.0113 33.8414 43.8278 33.8414 43.6085C33.8414 43.387 33.7969 43.2002 33.7079 43.0482C33.621 42.8962 33.4875 42.7811 33.3072 42.7029C33.1292 42.6226 32.9044 42.5824 32.633 42.5824H31.6819V48.1002H30.2715ZM33.874 45.0644L35.5319 48.1002H33.975L32.3529 45.0644H33.874Z" fill="#654A00"/>
<path d="M42.8797 44.7648C42.8797 45.4922 42.7418 46.1111 42.466 46.6214C42.1924 47.1317 41.8189 47.5215 41.3455 47.7908C40.8743 48.0579 40.3445 48.1914 39.756 48.1914C39.1632 48.1914 38.6311 48.0568 38.1599 47.7875C37.6887 47.5183 37.3163 47.1285 37.0427 46.6182C36.7691 46.1079 36.6323 45.4901 36.6323 44.7648C36.6323 44.0373 36.7691 43.4184 37.0427 42.9081C37.3163 42.3978 37.6887 42.0091 38.1599 41.742C38.6311 41.4728 39.1632 41.3381 39.756 41.3381C40.3445 41.3381 40.8743 41.4728 41.3455 41.742C41.8189 42.0091 42.1924 42.3978 42.466 42.9081C42.7418 43.4184 42.8797 44.0373 42.8797 44.7648ZM41.4498 44.7648C41.4498 44.2936 41.3792 43.8962 41.238 43.5726C41.0991 43.2491 40.9025 43.0037 40.6485 42.8365C40.3944 42.6693 40.0969 42.5857 39.756 42.5857C39.415 42.5857 39.1175 42.6693 38.8635 42.8365C38.6094 43.0037 38.4118 43.2491 38.2707 43.5726C38.1317 43.8962 38.0622 44.2936 38.0622 44.7648C38.0622 45.236 38.1317 45.6334 38.2707 45.9569C38.4118 46.2805 38.6094 46.5259 38.8635 46.6931C39.1175 46.8603 39.415 46.9439 39.756 46.9439C40.0969 46.9439 40.3944 46.8603 40.6485 46.6931C40.9025 46.5259 41.0991 46.2805 41.238 45.9569C41.3792 45.6334 41.4498 45.236 41.4498 44.7648Z" fill="#654A00"/>
</svg>