<svg width="24" height="24" viewBox="0 0 24 24" xmlns="http://www.w3.org/2000/svg">
<path fill-rule="evenodd" clip-rule="evenodd" d="M20.1333 6.69565L12 11.3913L3.86673 6.69565L12 2L20.1333 6.69565ZM11.2174 15.6808V12.9499C11.2174 12.6701 11.0683 12.4118 10.8261 12.2721L3 7.75374V16.7541L10.9239 21.3289C11.0542 21.404 11.2174 21.3101 11.2174 21.1594V18.5937C11.2174 18.454 11.1427 18.3248 11.0217 18.2548L10.2391 17.8028C10.1182 17.7328 10.0435 17.6037 10.0435 17.464V15.5114C10.0435 15.4362 10.1249 15.3889 10.1902 15.4264L10.9239 15.8502C11.0542 15.9254 11.2174 15.8314 11.2174 15.6808ZM8.33152 17.8752L4.95652 15.9265V14.3613L8.28261 16.2814C8.40352 16.3515 8.47826 16.4806 8.47826 16.6203V17.7903C8.47826 17.8654 8.39687 17.9128 8.33152 17.8752ZM8.33152 14.7448L4.95652 12.7961V11.2309L8.28261 13.151C8.40352 13.221 8.47826 13.3502 8.47826 13.4899V14.6599C8.47826 14.735 8.39687 14.7824 8.33152 14.7448ZM12.7826 12.5046L21 7.76039V16.7604L12.7826 21.5046V12.5046Z" />
</svg>
