<svg width="24" height="24" viewBox="0 0 24 24" xmlns="http://www.w3.org/2000/svg">
<path fill-rule="evenodd" clip-rule="evenodd" d="M20.1333 6.69565L12 11.3913L3.86674 6.69565L12 2L20.1333 6.69565ZM11.2174 15.6874V12.9565C11.2174 12.6767 11.0683 12.4185 10.8261 12.2788L3 7.76039V16.7608L10.9239 21.3355C11.0542 21.4106 11.2174 21.3167 11.2174 21.1661V18.6003C11.2174 18.4606 11.1427 18.3315 11.0217 18.2614L10.2391 17.8095C10.1182 17.7394 10.0435 17.6103 10.0435 17.4706V15.518C10.0435 15.4429 10.1249 15.3955 10.1902 15.4331L10.9239 15.8569C11.0542 15.932 11.2174 15.8381 11.2174 15.6874ZM8.33152 17.8819L4.95652 15.9332V14.368L8.28261 16.2881C8.40352 16.3581 8.47826 16.4873 8.47826 16.627V17.797C8.47826 17.8721 8.39687 17.9194 8.33152 17.8819ZM8.33152 14.7514L4.95652 12.8027V11.2375L8.28261 13.1576C8.40352 13.2277 8.47826 13.3568 8.47826 13.4965V14.6665C8.47826 14.7416 8.39687 14.789 8.33152 14.7514ZM12.7826 21.5046V12.5046L21 7.76039V16.7604L18.2609 18.3416V13.0277L16.9559 12.4208L15.5217 13.2453V14.6399L16.9559 13.8154V19.0953L12.7826 21.5046Z" />
</svg>
