<svg width="24" height="24" viewBox="0 0 24 24" style="color: var(--blockera-controls-primary-color);" xmlns="http://www.w3.org/2000/svg">
<path d="M6.25 14.1104C6.68496 14.1104 7.10162 14.2833 7.40918 14.5908C7.71674 14.8984 7.88965 15.315 7.88965 15.75C7.88965 16.2415 7.49153 16.6396 7 16.6396C6.55604 16.6396 6.18915 16.3148 6.12207 15.8896H5C4.97083 15.8896 4.9425 15.9012 4.92188 15.9219C4.90125 15.9425 4.88965 15.9708 4.88965 16V17C4.88965 17.0292 4.90125 17.0575 4.92188 17.0781C4.9425 17.0988 4.97082 17.1104 5 17.1104H6C6.50126 17.1104 6.98247 17.3086 7.33691 17.6631C7.69136 18.0175 7.88965 18.4987 7.88965 19V20C7.88965 20.5013 7.69136 20.9825 7.33691 21.3369C6.98247 21.6914 6.50126 21.8896 6 21.8896H4.75C3.84447 21.8896 3.11035 21.1555 3.11035 20.25C3.11035 19.7585 3.50847 19.3604 4 19.3604C4.44396 19.3604 4.81085 19.6852 4.87793 20.1104H6C6.02918 20.1104 6.0575 20.0988 6.07812 20.0781C6.09875 20.0575 6.11035 20.0292 6.11035 20V19C6.11035 18.9708 6.09875 18.9425 6.07812 18.9219C6.0575 18.9012 6.02918 18.8896 6 18.8896H5C4.49874 18.8896 4.01753 18.6914 3.66309 18.3369C3.30864 17.9825 3.11035 17.5013 3.11035 17V16C3.11035 15.4987 3.30864 15.0175 3.66309 14.6631C4.01753 14.3086 4.49874 14.1104 5 14.1104H6.25ZM13.1553 14.7188C13.3107 14.2526 13.8151 14.0001 14.2812 14.1553C14.7474 14.3107 14.9999 14.8151 14.8447 15.2812L12.8447 21.2812C12.7236 21.6447 12.3831 21.8896 12 21.8896C11.6169 21.8896 11.2764 21.6447 11.1553 21.2812L9.15527 15.2812C9.00011 14.815 9.25257 14.3107 9.71875 14.1553C10.1849 14.0001 10.6893 14.2526 10.8447 14.7188L12 18.1846L13.1553 14.7188ZM20 14.1104C20.4915 14.1104 20.8896 14.5085 20.8896 15C20.8896 15.4915 20.4915 15.8896 20 15.8896H19C18.7056 15.8896 18.423 16.0067 18.2148 16.2148C18.0067 16.423 17.8896 16.7056 17.8896 17V19C17.8896 19.2944 18.0067 19.577 18.2148 19.7852C18.423 19.9933 18.7056 20.1104 19 20.1104H19.1104V18C19.1104 17.5085 19.5085 17.1104 20 17.1104C20.4915 17.1104 20.8896 17.5085 20.8896 18V21C20.8896 21.4915 20.4915 21.8896 20 21.8896H19C18.2335 21.8896 17.498 21.5859 16.9561 21.0439C16.4141 20.502 16.1104 19.7665 16.1104 19V17C16.1104 16.2335 16.4141 15.498 16.9561 14.9561C17.498 14.4141 18.2335 14.1104 19 14.1104H20ZM14 2.11035C14.0598 2.11035 14.119 2.11621 14.1768 2.12793C14.186 2.12979 14.195 2.13262 14.2041 2.13477C14.3086 2.15945 14.4079 2.2025 14.4971 2.2627C14.5276 2.28328 14.5564 2.30597 14.584 2.33008C14.5992 2.34337 14.6145 2.3567 14.6289 2.37109L19.6289 7.37109C19.6498 7.39196 19.6698 7.41368 19.6885 7.43652C19.8181 7.59476 19.8896 7.7936 19.8896 8V12C19.8896 12.4915 19.4915 12.8896 19 12.8896C18.5085 12.8896 18.1104 12.4915 18.1104 12V8.88965H15C14.4987 8.88965 14.0175 8.69136 13.6631 8.33691C13.3086 7.98247 13.1104 7.50126 13.1104 7V3.88965H7C6.70561 3.88965 6.42301 4.00668 6.21484 4.21484C6.00668 4.42301 5.88965 4.70561 5.88965 5V12C5.88965 12.4915 5.49153 12.8896 5 12.8896C4.50847 12.8896 4.11035 12.4915 4.11035 12V5C4.11035 4.23352 4.41407 3.49803 4.95605 2.95605C5.49803 2.41407 6.23352 2.11035 7 2.11035H14ZM14.8896 7C14.8896 7.02917 14.9012 7.0575 14.9219 7.07812C14.9425 7.09875 14.9708 7.11035 15 7.11035H16.8525L14.8896 5.14746V7Z" fill="black"/>
</svg>
